M48
;DRILL file {KiCad (5.0.2-dirty)} date su 15. maaliskuuta 2020 20.19.31
;FORMAT={-:-/ absolute / inch / decimal}
FMAT,2
INCH,TZ
T1C0.0157
T2C0.0688
T3C0.0787
%
G90
G05
T1
X5.1142Y-4.6083
X5.1142Y-4.8287
X5.1181Y-5.2028
X5.1299Y-4.3858
X5.1339Y-2.4921
X5.1457Y-2.3898
X5.1535Y-2.0118
X5.1535Y-3.7913
X5.1654Y-2.4528
X5.186Y-5.4242
X5.189Y-3.9409
X5.2008Y-4.7047
X5.2047Y-3.7913
X5.2087Y-4.9449
X5.2126Y-3.8465
X5.2205Y-2.4488
X5.252Y-3.8504
X5.2559Y-2.4055
X5.2598Y-2.6063
X5.2598Y-3.3189
X5.2598Y-5.126
X5.2677Y-4.2165
X5.2736Y-4.2579
X5.2736Y-4.313
X5.2756Y-2.4528
X5.2795Y-4.1299
X5.2825Y-5.0364
X5.2874Y-3.7972
X5.2913Y-4.6535
X5.3071Y-5.3425
X5.311Y-4.0177
X5.315Y-2.4134
X5.3227Y-4.3129
X5.3346Y-3.2953
X5.3386Y-4.8888
X5.3504Y-2.4488
X5.3524Y-4.3405
X5.3583Y-5.3504
X5.366Y-4.2151
X5.3807Y-3.7812
X5.3967Y-4.0167
X5.4094Y-5.1299
X5.4136Y-3.7597
X5.4173Y-2.2008
X5.4341Y-4.6457
X5.4341Y-3.8554
X5.4409Y-5.1063
X5.4449Y-3.2992
X5.4528Y-3.7717
X5.4528Y-5.4134
X5.4606Y-4.5682
X5.4783Y-4.8563
X5.4803Y-4.312
X5.4843Y-3.8268
X5.4941Y-4.4852
X5.5Y-3.2933
X5.5157Y-2.0118
X5.5295Y-4.3287
X5.531Y-3.79
X5.5581Y-4.9852
X5.5669Y-3.2953
X5.5702Y-3.7869
X5.5787Y-5.189
X5.5955Y-4.0197
X5.5974Y-4.8278
X5.6024Y-3.8661
X5.6152Y-4.5482
X5.626Y-3.311
X5.6339Y-3.8307
X5.6378Y-3.8976
X5.6415Y-3.7714
X5.6457Y-4.4508
X5.6496Y-4.4055
X5.6506Y-2.4252
X5.6693Y-3.8031
X5.6929Y-3.8898
X5.7264Y-4.4488
X5.7264Y-4.5974
X5.7264Y-4.7884
X5.7283Y-3.311
X5.7348Y-4.3209
X5.7372Y-5.2539
X5.748Y-3.9843
X5.752Y-2.0138
X5.752Y-3.9213
X5.7677Y-2.3228
X5.7864Y-5.372
X5.7904Y-4.0148
X5.7913Y-3.3012
X5.8192Y-4.3792
X5.8268Y-2.1083
X5.8425Y-2.2008
X5.8573Y-3.3012
X5.8661Y-2.2539
X5.8996Y-2.2283
X5.9035Y-2.1142
X5.9322Y-2.2755
X5.937Y-3.311
X5.937Y-2.4331
X5.9449Y-5.251
X5.9646Y-4.1299
X5.9744Y-4.373
X6.0118Y-5.3612
X6.0315Y-3.311
X6.0827Y-3.3002
X6.0866Y-2.0118
X6.0866Y-2.126
X6.1299Y-4.7018
X6.1348Y-4.6053
X6.1496Y-3.2972
X6.1516Y-5.0453
X6.1772Y-1.9606
X6.2047Y-2.0551
X6.2287Y-3.3
X6.251Y-5.2795
X6.2569Y-5.124
X6.3307Y-3.2957
X6.3425Y-2.1831
X6.374Y-3.3012
X6.4409Y-3.3022
X6.4567Y-2.0079
X6.4646Y-2.1772
X6.4793Y-5.2018
X6.4803Y-2.313
X6.5079Y-1.9606
X6.5157Y-3.2953
X6.5591Y-2.1634
X6.5925Y-2.2146
X6.6181Y-2.3406
X6.622Y-3.2953
X6.628Y-2.0098
X6.6683Y-3.2982
X6.6742Y-5.3091
X6.7343Y-3.2992
X6.7618Y-2.2087
X6.7717Y-1.9685
X6.7776Y-2.126
X6.7904Y-3.8037
X6.8091Y-3.2953
X6.8192Y-3.6341
X6.9016Y-3.2008
X6.9134Y-5.1348
X6.9193Y-1.9783
X6.937Y-3.6496
X6.9528Y-2.1437
X6.9764Y-3.6496
X6.9764Y-5.378
X7.0157Y-3.6496
X7.0551Y-3.6496
X7.063Y-4.9961
X7.0728Y-5.1339
X7.0748Y-3.0709
X7.0748Y-2.0374
X7.0787Y-3.2008
X7.1063Y-4.6024
X7.1063Y-4.8976
X7.1417Y-2.2283
X7.1939Y-3.8159
X7.2264Y-1.9705
X7.2825Y-5.4183
X7.2874Y-3.31
X7.3819Y-3.2972
X7.3937Y-1.9843
X7.4173Y-5.2195
X7.4298Y-3.313
X7.4439Y-2.2264
X7.5098Y-3.2972
X7.5512Y-3.2854
X7.565Y-5.4193
X7.6073Y-4.6171
X7.6083Y-1.9862
X7.6102Y-3.8799
X7.6102Y-4.0148
X7.6102Y-4.2835
X7.6111Y-4.3228
X7.6112Y-4.1841
X7.6112Y-3.9193
X7.6122Y-4.4813
X7.6969Y-3.2972
X7.6998Y-3.6988
X7.6998Y-4.7746
X7.747Y-5.0955
X7.81Y-5.4193
X7.813Y-2.2343
X7.8858Y-1.9803
X8.0866Y-5.4094
X8.0876Y-4.9173
X8.0896Y-5.1742
X8.0984Y-1.9902
X8.1142Y-2.5167
T2
X6.4567Y-4.685
X6.4567Y-4.9998
X6.5354Y-4.8424
X6.6141Y-4.685
X6.6141Y-4.9998
X6.6928Y-4.8424
X6.7715Y-4.685
X6.7715Y-4.9998
X6.063Y-2.4016
X6.063Y-2.7164
X6.1417Y-2.559
X6.2204Y-2.4016
X6.2204Y-2.7164
X6.2992Y-2.559
X6.3779Y-2.4016
X6.3779Y-2.7164
X6.4567Y-2.559
X6.5354Y-2.4016
X6.5354Y-2.7164
X6.6141Y-2.559
X6.6928Y-2.4016
X6.6928Y-2.7164
X6.7715Y-2.559
X6.8503Y-2.4016
X6.8503Y-2.7164
X6.929Y-2.559
X7.0078Y-2.4016
X7.0078Y-2.7164
X7.0865Y-2.559
X7.1652Y-2.4016
X7.1652Y-2.7164
T3
X6.0157Y-5.1298
X6.0748Y-4.4173
X7.1534Y-4.4173
X7.2125Y-5.1298
X5.622Y-2.8464
X5.6811Y-2.1339
X7.5471Y-2.1339
X7.6062Y-2.8464
T0
M30
