G04 #@! TF.GenerationSoftware,KiCad,Pcbnew,(2017-01-11 revision e99b79cb2)-master*
G04 #@! TF.CreationDate,2017-11-18T13:54:03+02:00*
G04 #@! TF.ProjectId,esb,6573622E6B696361645F706362000000,rev?*
G04 #@! TF.FileFunction,Soldermask,Top*
G04 #@! TF.FilePolarity,Negative*
%FSLAX46Y46*%
G04 Gerber Fmt 4.6, Leading zero omitted, Abs format (unit mm)*
G04 Created by KiCad (PCBNEW (2017-01-11 revision e99b79cb2)-master) date Sat Nov 18 13:54:03 2017*
%MOMM*%
%LPD*%
G01*
G04 APERTURE LIST*
%ADD10C,0.100000*%
%ADD11R,0.762000X0.939800*%
%ADD12R,1.297940X1.399540*%
%ADD13R,0.939800X0.762000*%
%ADD14R,0.398780X1.498600*%
%ADD15R,0.279400X1.498600*%
%ADD16R,1.498600X0.398780*%
%ADD17R,1.498600X0.279400*%
%ADD18R,0.998220X1.899920*%
%ADD19R,1.699260X2.397760*%
%ADD20R,0.635000X1.905000*%
%ADD21R,2.700000X2.400000*%
%ADD22R,2.400000X2.700000*%
%ADD23R,1.200000X0.500000*%
%ADD24R,0.700000X1.350000*%
%ADD25R,2.623820X2.623820*%
%ADD26C,2.623820*%
%ADD27C,2.999740*%
%ADD28R,2.000000X2.800000*%
%ADD29R,1.900000X2.179320*%
%ADD30R,1.200000X0.700000*%
%ADD31R,0.800000X2.200000*%
%ADD32R,5.600000X6.400000*%
%ADD33R,0.400000X1.200000*%
%ADD34R,3.600000X1.900000*%
%ADD35R,0.700000X1.200000*%
%ADD36R,1.900000X1.400000*%
%ADD37R,5.970000X6.100000*%
%ADD38R,1.399540X1.297940*%
%ADD39R,1.524000X0.600000*%
%ADD40R,1.524000X0.635000*%
G04 APERTURE END LIST*
D10*
D11*
X157838200Y-135000000D03*
X156161800Y-135000000D03*
X161838200Y-135000000D03*
X160161800Y-135000000D03*
D12*
X145930600Y-132300000D03*
X142400000Y-132300000D03*
D13*
X135250000Y-124338200D03*
X135250000Y-122661800D03*
X129300000Y-56938200D03*
X129300000Y-55261800D03*
X131200000Y-56938200D03*
X131200000Y-55261800D03*
D11*
X177661800Y-58300000D03*
X179338200Y-58300000D03*
D14*
X125440000Y-74597880D03*
D15*
X126001340Y-74597880D03*
X126501720Y-74597880D03*
X127002100Y-74597880D03*
X127502480Y-74597880D03*
X128000320Y-74597880D03*
X128500700Y-74597880D03*
X129001080Y-74597880D03*
X129498920Y-74597880D03*
X129999300Y-74597880D03*
X130499680Y-74597880D03*
X130997520Y-74597880D03*
X131497900Y-74597880D03*
X131998280Y-74597880D03*
X132498660Y-74597880D03*
D14*
X133060000Y-74597880D03*
D16*
X135147880Y-72510000D03*
D17*
X135147880Y-71948660D03*
X135147880Y-71448280D03*
X135147880Y-70947900D03*
X135147880Y-70447520D03*
X135147880Y-69949680D03*
X135147880Y-69449300D03*
X135147880Y-68948920D03*
X135147880Y-68451080D03*
X135147880Y-67950700D03*
X135147880Y-67450320D03*
X135147880Y-66952480D03*
X135147880Y-66452100D03*
X135147880Y-65951720D03*
X135147880Y-65451340D03*
D16*
X135147880Y-64890000D03*
D14*
X133060000Y-62802120D03*
D15*
X132498660Y-62802120D03*
X131998280Y-62802120D03*
X131497900Y-62802120D03*
X130997520Y-62802120D03*
X130499680Y-62802120D03*
X129999300Y-62802120D03*
X129498920Y-62802120D03*
X129001080Y-62802120D03*
X128500700Y-62802120D03*
X128000320Y-62802120D03*
X127502480Y-62802120D03*
X127002100Y-62802120D03*
X126501720Y-62802120D03*
X126001340Y-62802120D03*
D14*
X125440000Y-62802120D03*
D16*
X123352120Y-64890000D03*
D17*
X123352120Y-65451340D03*
X123352120Y-65951720D03*
X123352120Y-66452100D03*
X123352120Y-66952480D03*
X123352120Y-67450320D03*
X123352120Y-67950700D03*
X123352120Y-68451080D03*
X123352120Y-68948920D03*
X123352120Y-69449300D03*
X123352120Y-69949680D03*
X123352120Y-70447520D03*
X123352120Y-70947900D03*
X123352120Y-71448280D03*
X123352120Y-71948660D03*
D16*
X123352120Y-72510000D03*
D13*
X120750000Y-129711800D03*
X120750000Y-131388200D03*
D11*
X122661800Y-113000000D03*
X124338200Y-113000000D03*
D13*
X120950000Y-67311800D03*
X120950000Y-68988200D03*
X120950000Y-65738200D03*
X120950000Y-64061800D03*
D11*
X131611800Y-76900000D03*
X133288200Y-76900000D03*
X137161800Y-69900000D03*
X138838200Y-69900000D03*
D13*
X130500000Y-59261800D03*
X130500000Y-60938200D03*
D11*
X138838200Y-71900000D03*
X137161800Y-71900000D03*
X138938200Y-55400000D03*
X137261800Y-55400000D03*
D18*
X145898600Y-129600000D03*
X142901400Y-129600000D03*
D11*
X158838200Y-57000000D03*
X157161800Y-57000000D03*
X166638200Y-57000000D03*
X164961800Y-57000000D03*
D19*
X138901564Y-58400000D03*
X133821564Y-58400000D03*
D13*
X130650000Y-133211800D03*
X130650000Y-134888200D03*
D11*
X133661800Y-55400000D03*
X135338200Y-55400000D03*
X154838200Y-57000000D03*
X153161800Y-57000000D03*
X161161800Y-57000000D03*
X162838200Y-57000000D03*
D20*
X126940000Y-54060000D03*
X126940000Y-59140000D03*
X125670000Y-54060000D03*
X125670000Y-59140000D03*
X124400000Y-54060000D03*
X124400000Y-59140000D03*
X123130000Y-59140000D03*
X121860000Y-54060000D03*
X121860000Y-59140000D03*
D21*
X134000000Y-136100000D03*
X134000000Y-129300000D03*
D22*
X122800000Y-121000000D03*
X129600000Y-121000000D03*
D23*
X153900000Y-53850000D03*
X153900000Y-52900000D03*
X153900000Y-51950000D03*
X151100000Y-51950000D03*
X151100000Y-53850000D03*
X158400000Y-53850000D03*
X158400000Y-52900000D03*
X158400000Y-51950000D03*
X155600000Y-51950000D03*
X155600000Y-53850000D03*
X164800000Y-53850000D03*
X164800000Y-51950000D03*
X167600000Y-51950000D03*
X167600000Y-52900000D03*
X167600000Y-53850000D03*
X163000000Y-53850000D03*
X163000000Y-52900000D03*
X163000000Y-51950000D03*
X160200000Y-51950000D03*
X160200000Y-53850000D03*
D24*
X124500000Y-114600000D03*
X122500000Y-114600000D03*
X123500000Y-117200000D03*
D25*
X154000260Y-60999580D03*
D26*
X157998220Y-60999580D03*
X161998720Y-60999580D03*
X165999220Y-60999580D03*
X169997180Y-60999580D03*
X173997680Y-60999580D03*
X177998180Y-60999580D03*
X181996140Y-60999580D03*
X155999240Y-64997540D03*
X159999740Y-64997540D03*
X164000240Y-64997540D03*
X167998200Y-64997540D03*
X171996160Y-64997540D03*
X175996660Y-64997540D03*
X179997160Y-64997540D03*
X154000260Y-68995500D03*
X157998220Y-68995500D03*
X161998720Y-68995500D03*
X165999220Y-68995500D03*
X169997180Y-68995500D03*
X173997680Y-68995500D03*
X177998180Y-68995500D03*
X181996140Y-68995500D03*
D27*
X144300000Y-54200000D03*
X191696400Y-54200000D03*
X142798860Y-72297500D03*
X193197540Y-72297500D03*
D25*
X164000260Y-118999580D03*
D26*
X167998220Y-118999580D03*
X171996180Y-118999580D03*
X165999240Y-122997540D03*
X169997200Y-122997540D03*
X164000260Y-126995500D03*
X167998220Y-126995500D03*
X171996180Y-126995500D03*
D27*
X154300000Y-112200000D03*
X181696440Y-112200000D03*
X183197580Y-130297500D03*
X152798860Y-130297500D03*
D28*
X127200000Y-126500000D03*
X123400000Y-126500000D03*
D29*
X146500000Y-135400000D03*
X141500000Y-135400000D03*
D12*
X125534700Y-130000000D03*
X129065300Y-130000000D03*
D30*
X150700000Y-66140000D03*
X150700000Y-63600000D03*
X144300000Y-63600000D03*
X144300000Y-66140000D03*
D11*
X150511800Y-86775000D03*
X152188200Y-86775000D03*
X146038200Y-86600000D03*
X144361800Y-86600000D03*
X170538200Y-86600000D03*
X168861800Y-86600000D03*
X161538200Y-86600000D03*
X159861800Y-86600000D03*
D13*
X197300000Y-99838200D03*
X197300000Y-98161800D03*
X199200000Y-98161800D03*
X199200000Y-99838200D03*
D11*
X186961800Y-86700000D03*
X188638200Y-86700000D03*
X177961800Y-86700000D03*
X179638200Y-86700000D03*
D13*
X152500000Y-65738200D03*
X152500000Y-64061800D03*
D31*
X153780000Y-89050000D03*
X152640000Y-89050000D03*
X150360000Y-89050000D03*
X149220000Y-89050000D03*
D32*
X151500000Y-95350000D03*
X145180742Y-95375679D03*
D31*
X142900742Y-89075679D03*
X144040742Y-89075679D03*
X146320742Y-89075679D03*
X147460742Y-89075679D03*
X171980000Y-89100000D03*
X170840000Y-89100000D03*
X168560000Y-89100000D03*
X167420000Y-89100000D03*
D32*
X169700000Y-95400000D03*
X160680742Y-95375679D03*
D31*
X158400742Y-89075679D03*
X159540742Y-89075679D03*
X161820742Y-89075679D03*
X162960742Y-89075679D03*
D33*
X194950000Y-95900000D03*
X195750000Y-95900000D03*
X196550000Y-95900000D03*
X197350000Y-95900000D03*
X198150000Y-95900000D03*
X198950000Y-95900000D03*
X198950000Y-90300000D03*
X198150000Y-90300000D03*
X197350000Y-90300000D03*
X196550000Y-90300000D03*
X195750000Y-90300000D03*
X194950000Y-90300000D03*
D34*
X196950000Y-93100000D03*
D32*
X187861573Y-95407878D03*
D31*
X185581573Y-89107878D03*
X186721573Y-89107878D03*
X189001573Y-89107878D03*
X190141573Y-89107878D03*
X181071573Y-89107878D03*
X179931573Y-89107878D03*
X177651573Y-89107878D03*
X176511573Y-89107878D03*
D32*
X178791573Y-95407878D03*
D35*
X177200000Y-56500000D03*
X179740000Y-56500000D03*
X179740000Y-50100000D03*
X177200000Y-50100000D03*
D36*
X176515000Y-118910000D03*
X176515000Y-123490000D03*
D37*
X182600000Y-121200000D03*
D36*
X159685000Y-123490000D03*
X159685000Y-118910000D03*
D37*
X153600000Y-121200000D03*
D38*
X170100000Y-52034700D03*
X170100000Y-55565300D03*
X174100000Y-55565300D03*
X174100000Y-52034700D03*
D11*
X169161800Y-58300000D03*
X170838200Y-58300000D03*
X174838200Y-58300000D03*
X173161800Y-58300000D03*
D38*
X192800000Y-88865300D03*
X192800000Y-85334700D03*
D39*
X137279000Y-121745000D03*
D40*
X137279000Y-123050000D03*
D39*
X137279000Y-124285000D03*
X137279000Y-125555000D03*
X143121000Y-125555000D03*
X143121000Y-124285000D03*
X143121000Y-123015000D03*
X143121000Y-121745000D03*
X129080610Y-131876856D03*
X129080610Y-133146856D03*
X129080610Y-134416856D03*
X129080610Y-135686856D03*
X123238610Y-135686856D03*
X123238610Y-134416856D03*
D40*
X123238610Y-133181856D03*
D39*
X123238610Y-131876856D03*
M02*
