G04 #@! TF.GenerationSoftware,KiCad,Pcbnew,(2017-01-11 revision e99b79cb2)-master*
G04 #@! TF.CreationDate,2017-10-24T08:49:55+03:00*
G04 #@! TF.ProjectId,esb,6573622E6B696361645F706362000000,rev?*
G04 #@! TF.FileFunction,Copper,L2,Bot,Signal*
G04 #@! TF.FilePolarity,Positive*
%FSLAX46Y46*%
G04 Gerber Fmt 4.6, Leading zero omitted, Abs format (unit mm)*
G04 Created by KiCad (PCBNEW (2017-01-11 revision e99b79cb2)-master) date Tue Oct 24 08:49:55 2017*
%MOMM*%
%LPD*%
G01*
G04 APERTURE LIST*
%ADD10C,0.100000*%
%ADD11R,2.623820X2.623820*%
%ADD12C,2.623820*%
%ADD13C,2.999740*%
%ADD14C,0.800000*%
%ADD15C,0.200000*%
%ADD16C,0.800000*%
%ADD17C,0.400000*%
%ADD18C,0.300000*%
G04 APERTURE END LIST*
D10*
D11*
X154000260Y-60999580D03*
D12*
X157998220Y-60999580D03*
X161998720Y-60999580D03*
X165999220Y-60999580D03*
X169997180Y-60999580D03*
X173997680Y-60999580D03*
X177998180Y-60999580D03*
X181996140Y-60999580D03*
X155999240Y-64997540D03*
X159999740Y-64997540D03*
X164000240Y-64997540D03*
X167998200Y-64997540D03*
X171996160Y-64997540D03*
X175996660Y-64997540D03*
X179997160Y-64997540D03*
X154000260Y-68995500D03*
X157998220Y-68995500D03*
X161998720Y-68995500D03*
X165999220Y-68995500D03*
X169997180Y-68995500D03*
X173997680Y-68995500D03*
X177998180Y-68995500D03*
X181996140Y-68995500D03*
D13*
X144300000Y-54200000D03*
X191696400Y-54200000D03*
X142798860Y-72297500D03*
X193197540Y-72297500D03*
D11*
X164000260Y-118999580D03*
D12*
X167998220Y-118999580D03*
X171996180Y-118999580D03*
X165999240Y-122997540D03*
X169997200Y-122997540D03*
X164000260Y-126995500D03*
X167998220Y-126995500D03*
X171996180Y-126995500D03*
D13*
X154300000Y-112200000D03*
X181696440Y-112200000D03*
X183197580Y-130297500D03*
X152798860Y-130297500D03*
D14*
X138800000Y-86500000D03*
X138700000Y-82900000D03*
X164000000Y-82800000D03*
X193800000Y-81200000D03*
X185200000Y-72200000D03*
X141100000Y-51500000D03*
X128300000Y-51600000D03*
X141600000Y-58300000D03*
X138900000Y-62300000D03*
X146200000Y-61000000D03*
X150300000Y-68800000D03*
X142700000Y-76200000D03*
X174100000Y-76700000D03*
X177700000Y-80300000D03*
X169300000Y-80300000D03*
X172600000Y-83600000D03*
X163900000Y-75800000D03*
X164000000Y-80400000D03*
X132200000Y-78500000D03*
X132900000Y-81900000D03*
X128400000Y-80600000D03*
X129900000Y-72900000D03*
X123500000Y-74100000D03*
X122900000Y-86500000D03*
X126300000Y-86600000D03*
X126300000Y-104600000D03*
X129600000Y-116400000D03*
X134800000Y-112400000D03*
X132300000Y-99300000D03*
X140400000Y-90200000D03*
X156300000Y-90400000D03*
X164800000Y-89900000D03*
X174200000Y-90200000D03*
X183500000Y-90000000D03*
X193000000Y-90300000D03*
X194600000Y-111900000D03*
X190300000Y-123900000D03*
X154900000Y-134799979D03*
X194500000Y-99900000D03*
X135572127Y-77082162D03*
X145600000Y-86600000D03*
X151800000Y-86800000D03*
X161100000Y-86600000D03*
X170100000Y-86600000D03*
X179200000Y-86700000D03*
X188200000Y-86700000D03*
X185400000Y-136000000D03*
X196800000Y-78300000D03*
X198800000Y-65400000D03*
X211500000Y-137500000D03*
X199600000Y-132400000D03*
X202600000Y-130000000D03*
X199700000Y-137600000D03*
X136893140Y-67516896D03*
X146600000Y-121600000D03*
X149700000Y-125100000D03*
X138100000Y-128300000D03*
X143100000Y-127300000D03*
X148000000Y-130400000D03*
X159500000Y-131900000D03*
X163100000Y-132200000D03*
X122900000Y-56500000D03*
X138800000Y-73900000D03*
X128700000Y-60600000D03*
X132200000Y-72600000D03*
X129000000Y-64700000D03*
X132700000Y-68200000D03*
X133000000Y-70500000D03*
X125400000Y-68500000D03*
X141800000Y-120300000D03*
X137700000Y-120200000D03*
X127600000Y-110100000D03*
X123300000Y-110100000D03*
X133600000Y-121900000D03*
X121000000Y-124900000D03*
X129200000Y-128100000D03*
X122700000Y-130400000D03*
X131300000Y-136300000D03*
X144700000Y-135600000D03*
X182200000Y-57400000D03*
X191500000Y-50400000D03*
X211400000Y-50300000D03*
X216700000Y-54800000D03*
X216800000Y-64900000D03*
X216600000Y-84400000D03*
X216500000Y-100100000D03*
X216600000Y-115200000D03*
X216500000Y-132800000D03*
X160100000Y-50000000D03*
X165700000Y-50000000D03*
X131600000Y-69600000D03*
X131000000Y-64800000D03*
X120000000Y-65700000D03*
X120000000Y-69000000D03*
X119100000Y-107200000D03*
X119100000Y-108400000D03*
X126900000Y-50000000D03*
X144700000Y-123000000D03*
X146400000Y-124300000D03*
X135239345Y-120200020D03*
X135500000Y-126200000D03*
X157000000Y-55600000D03*
X149675761Y-56118427D03*
X149762261Y-57609672D03*
X166600010Y-55300000D03*
X173161800Y-58300000D03*
X150900000Y-60100000D03*
X195947219Y-98094438D03*
X137566190Y-79742187D03*
X177199998Y-51800000D03*
X149000000Y-58300000D03*
X132251967Y-85163919D03*
X177651573Y-89107878D03*
X136500000Y-82800000D03*
X186721573Y-89107878D03*
X197300000Y-98161800D03*
X139192999Y-78797852D03*
X169161800Y-58300000D03*
X150200000Y-59100000D03*
X138500000Y-80099990D03*
X195500000Y-97200000D03*
X135573943Y-83763907D03*
X189001573Y-89107878D03*
X128900000Y-71400000D03*
X179931573Y-89107878D03*
X138301779Y-78340231D03*
X199200000Y-98161800D03*
X152640000Y-89050000D03*
X146320742Y-89075679D03*
X125300000Y-72800000D03*
X127487598Y-71822437D03*
X170840000Y-89100000D03*
X126500000Y-72200000D03*
X161820742Y-89075679D03*
X144040742Y-89075679D03*
X150360000Y-89050000D03*
X137148007Y-88099016D03*
X133352239Y-86089616D03*
X168560000Y-89100000D03*
X150382876Y-56825542D03*
X163399992Y-55200000D03*
X140600000Y-127100000D03*
X158900000Y-135000000D03*
X137529777Y-86616925D03*
X159540742Y-89075679D03*
D15*
X132200000Y-78500000D02*
X134700000Y-81000000D01*
X134700000Y-81000000D02*
X139500000Y-81000000D01*
X139500000Y-81000000D02*
X139700001Y-80799999D01*
X139700001Y-80799999D02*
X163600001Y-80799999D01*
X163600001Y-80799999D02*
X164000000Y-80400000D01*
X164565685Y-82800000D02*
X164000000Y-82800000D01*
X171800000Y-82800000D02*
X164565685Y-82800000D01*
X172600000Y-83600000D02*
X171800000Y-82800000D01*
X193000000Y-82000000D02*
X193800000Y-81200000D01*
X193000000Y-90300000D02*
X193000000Y-82000000D01*
X185600000Y-80300000D02*
X193000000Y-87700000D01*
X193000000Y-87700000D02*
X193000000Y-90300000D01*
X177700000Y-80300000D02*
X185600000Y-80300000D01*
X165434315Y-73700000D02*
X183700000Y-73700000D01*
X183700000Y-73700000D02*
X185200000Y-72200000D01*
X163900000Y-75800000D02*
X163900000Y-75234315D01*
X163900000Y-75234315D02*
X165434315Y-73700000D01*
X151100000Y-51200000D02*
X141400000Y-51200000D01*
X141400000Y-51200000D02*
X141100000Y-51500000D01*
X141100000Y-51500000D02*
X141600000Y-52000000D01*
X141600000Y-52000000D02*
X141600000Y-58300000D01*
X128300000Y-51600000D02*
X141000000Y-51600000D01*
X141000000Y-51600000D02*
X141100000Y-51500000D01*
X141600000Y-58300000D02*
X134900000Y-51600000D01*
X134900000Y-51600000D02*
X128300000Y-51600000D01*
X138900000Y-62300000D02*
X138900000Y-61000000D01*
X138900000Y-61000000D02*
X141600000Y-58300000D01*
X146200000Y-61000000D02*
X144900000Y-62300000D01*
X144900000Y-62300000D02*
X138900000Y-62300000D01*
X150300000Y-68800000D02*
X150300000Y-65100000D01*
X150300000Y-65100000D02*
X146200000Y-61000000D01*
X142700000Y-76200000D02*
X150100000Y-68800000D01*
X150100000Y-68800000D02*
X150300000Y-68800000D01*
X142700000Y-76200000D02*
X140400000Y-73900000D01*
X140400000Y-73900000D02*
X138800000Y-73900000D01*
X162034315Y-74500000D02*
X144400000Y-74500000D01*
X144400000Y-74500000D02*
X142700000Y-76200000D01*
X163900000Y-75800000D02*
X163334315Y-75800000D01*
X163334315Y-75800000D02*
X162034315Y-74500000D01*
X174100000Y-76700000D02*
X173200000Y-75800000D01*
X173200000Y-75800000D02*
X163900000Y-75800000D01*
X169300000Y-80300000D02*
X177700000Y-80300000D01*
X132900000Y-81900000D02*
X132200000Y-81200000D01*
X132200000Y-81200000D02*
X132200000Y-78500000D01*
X128400000Y-80600000D02*
X131600000Y-80600000D01*
X131600000Y-80600000D02*
X132900000Y-81900000D01*
X129900000Y-72900000D02*
X128400000Y-74400000D01*
X128400000Y-74400000D02*
X128400000Y-80600000D01*
X122900000Y-86500000D02*
X123500000Y-85900000D01*
X123500000Y-85900000D02*
X123500000Y-74100000D01*
X126300000Y-86600000D02*
X123000000Y-86600000D01*
X123000000Y-86600000D02*
X122900000Y-86500000D01*
X126300000Y-104600000D02*
X126300000Y-86600000D01*
X129600000Y-116400000D02*
X129600000Y-107900000D01*
X129600000Y-107900000D02*
X126300000Y-104600000D01*
X134800000Y-112400000D02*
X130800000Y-116400000D01*
X130800000Y-116400000D02*
X129600000Y-116400000D01*
X132300000Y-99300000D02*
X132300000Y-109900000D01*
X132300000Y-109900000D02*
X134800000Y-112400000D01*
X140400000Y-90200000D02*
X132300000Y-98300000D01*
X132300000Y-98300000D02*
X132300000Y-99300000D01*
X154100000Y-92600000D02*
X142800000Y-92600000D01*
X142800000Y-92600000D02*
X140400000Y-90200000D01*
X156300000Y-90400000D02*
X154100000Y-92600000D01*
X161900000Y-92800000D02*
X158700000Y-92800000D01*
X158700000Y-92800000D02*
X156300000Y-90400000D01*
X164800000Y-89900000D02*
X161900000Y-92800000D01*
X172300000Y-92100000D02*
X167000000Y-92100000D01*
X167000000Y-92100000D02*
X164800000Y-89900000D01*
X174200000Y-90200000D02*
X172300000Y-92100000D01*
X181434315Y-91500000D02*
X175500000Y-91500000D01*
X175500000Y-91500000D02*
X174200000Y-90200000D01*
X183500000Y-90000000D02*
X182934315Y-90000000D01*
X182934315Y-90000000D02*
X181434315Y-91500000D01*
X188500000Y-90700000D02*
X184200000Y-90700000D01*
X184200000Y-90700000D02*
X183500000Y-90000000D01*
X188900000Y-90300000D02*
X188500000Y-90700000D01*
X193000000Y-90300000D02*
X188900000Y-90300000D01*
X194600000Y-111900000D02*
X193000000Y-110300000D01*
X193000000Y-110300000D02*
X193000000Y-90300000D01*
X190300000Y-123900000D02*
X190300000Y-116200000D01*
X190300000Y-116200000D02*
X194600000Y-111900000D01*
X186900000Y-136000000D02*
X190300000Y-132600000D01*
X190300000Y-132600000D02*
X190300000Y-123900000D01*
X154900000Y-133500000D02*
X154900000Y-134799979D01*
X147000000Y-135600000D02*
X147400000Y-136000000D01*
X147400000Y-136000000D02*
X186900000Y-136000000D01*
X144700000Y-135600000D02*
X147000000Y-135600000D01*
X170700000Y-130765685D02*
X170700000Y-130200000D01*
X170900000Y-136000000D02*
X170700000Y-135800000D01*
X170700000Y-135800000D02*
X170700000Y-130765685D01*
X185400000Y-136000000D02*
X170900000Y-136000000D01*
X194134315Y-60734315D02*
X198800000Y-65400000D01*
X186100000Y-60734315D02*
X194134315Y-60734315D01*
X182765685Y-57400000D02*
X186100000Y-60734315D01*
X202600000Y-130000000D02*
X200200000Y-132400000D01*
X200200000Y-132400000D02*
X199600000Y-132400000D01*
X199600000Y-132400000D02*
X199600000Y-137500000D01*
X199600000Y-137500000D02*
X199700000Y-137600000D01*
X154900000Y-133500000D02*
X151100000Y-133500000D01*
X157900000Y-133500000D02*
X154900000Y-133500000D01*
X148000000Y-130400000D02*
X144900000Y-127300000D01*
X144900000Y-127300000D02*
X143100000Y-127300000D01*
X151100000Y-133500000D02*
X148000000Y-130400000D01*
X159500000Y-131900000D02*
X157900000Y-133500000D01*
X163100000Y-132200000D02*
X159800000Y-132200000D01*
X159800000Y-132200000D02*
X159500000Y-131900000D01*
X150700001Y-51599999D02*
X151100000Y-51200000D01*
X145800000Y-56500000D02*
X150700001Y-51599999D01*
X122900000Y-56500000D02*
X145800000Y-56500000D01*
X141800000Y-120300000D02*
X136100000Y-114600000D01*
X137700000Y-120200000D02*
X141700000Y-120200000D01*
X141700000Y-120200000D02*
X141800000Y-120300000D01*
X127600000Y-110100000D02*
X137700000Y-120200000D01*
X123300000Y-110100000D02*
X127600000Y-110100000D01*
X121000000Y-124900000D02*
X124000000Y-121900000D01*
X124000000Y-121900000D02*
X133600000Y-121900000D01*
X129200000Y-128100000D02*
X124200000Y-128100000D01*
X124200000Y-128100000D02*
X121000000Y-124900000D01*
X122700000Y-130400000D02*
X125000000Y-128100000D01*
X125000000Y-128100000D02*
X129200000Y-128100000D01*
X131300000Y-136300000D02*
X128600000Y-136300000D01*
X128600000Y-136300000D02*
X122700000Y-130400000D01*
X144700000Y-135600000D02*
X144000000Y-136300000D01*
X144000000Y-136300000D02*
X131300000Y-136300000D01*
X182200000Y-57400000D02*
X182765685Y-57400000D01*
X211400000Y-50300000D02*
X191600000Y-50300000D01*
X191600000Y-50300000D02*
X191500000Y-50400000D01*
X216800000Y-64900000D02*
X216800000Y-54900000D01*
X216800000Y-54900000D02*
X216700000Y-54800000D01*
X216500000Y-84800000D02*
X216600000Y-84700000D01*
X216600000Y-84700000D02*
X216600000Y-84400000D01*
X216500000Y-100100000D02*
X216500000Y-84800000D01*
X216500000Y-132800000D02*
X216500000Y-115300000D01*
X216500000Y-115300000D02*
X216600000Y-115200000D01*
D16*
X161300000Y-50000000D02*
X160100000Y-50000000D01*
X160100000Y-50000000D02*
X156800000Y-50000000D01*
X165700000Y-50000000D02*
X161300000Y-50000000D01*
X126900000Y-50000000D02*
X152200000Y-50000000D01*
X156800000Y-50000000D02*
X152200000Y-50000000D01*
D17*
X131000000Y-66600000D02*
X131600000Y-67200000D01*
X131600000Y-67200000D02*
X131600000Y-69600000D01*
X130100000Y-65700000D02*
X131000000Y-66600000D01*
X131000000Y-64800000D02*
X130100000Y-65700000D01*
X130100000Y-65700000D02*
X120000000Y-65700000D01*
D16*
X119100000Y-69000000D02*
X119100000Y-65700000D01*
X119100000Y-65700000D02*
X119100000Y-56500000D01*
D17*
X120000000Y-65700000D02*
X119100000Y-65700000D01*
D16*
X119100000Y-108400000D02*
X119100000Y-69000000D01*
D17*
X119100000Y-69000000D02*
X120000000Y-69000000D01*
D16*
X125600000Y-50000000D02*
X126900000Y-50000000D01*
X119100000Y-56500000D02*
X125600000Y-50000000D01*
D17*
X145600000Y-123000000D02*
X144700000Y-123000000D01*
X166001020Y-123000000D02*
X145600000Y-123000000D01*
X169998980Y-123000000D02*
X169198980Y-123800000D01*
X169198980Y-123800000D02*
X169198980Y-123801020D01*
X168000000Y-125000000D02*
X164600000Y-125000000D01*
X169198980Y-123801020D02*
X168000000Y-125000000D01*
X164600000Y-125000000D02*
X163400000Y-123800000D01*
X163400000Y-123800000D02*
X146900000Y-123800000D01*
X146900000Y-123800000D02*
X146400000Y-124300000D01*
D18*
X135500000Y-126200000D02*
X135500000Y-120460675D01*
X135500000Y-120460675D02*
X135239345Y-120200020D01*
D15*
X149675761Y-56118427D02*
X150594187Y-55200001D01*
X150594187Y-55200001D02*
X156600001Y-55200001D01*
X156600001Y-55200001D02*
X157000000Y-55600000D01*
X150518285Y-57800011D02*
X150327946Y-57609672D01*
X164099999Y-57800011D02*
X150518285Y-57800011D01*
X166600010Y-55300000D02*
X164099999Y-57800011D01*
X150327946Y-57609672D02*
X149762261Y-57609672D01*
X150900000Y-60100000D02*
X151900000Y-59100000D01*
X151900000Y-59100000D02*
X172361800Y-59100000D01*
X172361800Y-59100000D02*
X173161800Y-58300000D01*
X196347218Y-86181518D02*
X195900011Y-85734311D01*
X195947219Y-98094438D02*
X196347218Y-97694439D01*
X195900011Y-85734311D02*
X195900011Y-81698307D01*
X196347218Y-97694439D02*
X196347218Y-86181518D01*
X195900011Y-81698307D02*
X192801693Y-78599989D01*
X192801693Y-78599989D02*
X140399996Y-78599989D01*
X140399996Y-78599989D02*
X139399997Y-79599988D01*
X137908389Y-79399988D02*
X137566190Y-79742187D01*
X139399997Y-79599988D02*
X139036002Y-79599988D01*
X138836002Y-79399988D02*
X137908389Y-79399988D01*
X139036002Y-79599988D02*
X138836002Y-79399988D01*
X149575358Y-58309673D02*
X150098262Y-58309673D01*
X172700000Y-51800000D02*
X176634313Y-51800000D01*
X166200022Y-58299978D02*
X172700000Y-51800000D01*
X150098262Y-58309673D02*
X150107957Y-58299978D01*
X149565685Y-58300000D02*
X149575358Y-58309673D01*
X176634313Y-51800000D02*
X177199998Y-51800000D01*
X150107957Y-58299978D02*
X166200022Y-58299978D01*
X149000000Y-58300000D02*
X149565685Y-58300000D01*
X157862831Y-84100031D02*
X157862756Y-84099956D01*
X136603482Y-84863920D02*
X132551966Y-84863920D01*
X167131431Y-84100031D02*
X157862831Y-84100031D01*
X177051573Y-89107878D02*
X173143726Y-85200031D01*
X177651573Y-89107878D02*
X177051573Y-89107878D01*
X168231431Y-85200031D02*
X167131431Y-84100031D01*
X137367446Y-84099956D02*
X136603482Y-84863920D01*
X173143726Y-85200031D02*
X168231431Y-85200031D01*
X157862756Y-84099956D02*
X137367446Y-84099956D01*
X132551966Y-84863920D02*
X132251967Y-85163919D01*
X136500000Y-82800000D02*
X137700011Y-81599989D01*
X178399989Y-81599989D02*
X185907878Y-89107878D01*
X137700011Y-81599989D02*
X178399989Y-81599989D01*
X186121573Y-89107878D02*
X186721573Y-89107878D01*
X185907878Y-89107878D02*
X186121573Y-89107878D01*
X196300022Y-85568622D02*
X196300022Y-81532618D01*
X139790873Y-78199978D02*
X139592998Y-78397853D01*
X196300022Y-81532618D02*
X192967382Y-78199978D01*
X197300000Y-86568600D02*
X196300022Y-85568622D01*
X197300000Y-98161800D02*
X197300000Y-86568600D01*
X192967382Y-78199978D02*
X139790873Y-78199978D01*
X139592998Y-78397853D02*
X139192999Y-78797852D01*
X150200000Y-59100000D02*
X150600011Y-58699989D01*
X150600011Y-58699989D02*
X168761811Y-58699989D01*
X168761811Y-58699989D02*
X169161800Y-58300000D01*
X139065685Y-80099990D02*
X138500000Y-80099990D01*
X140565685Y-79000000D02*
X139465695Y-80099990D01*
X139465695Y-80099990D02*
X139065685Y-80099990D01*
X195500000Y-81863996D02*
X192636004Y-79000000D01*
X195500000Y-97200000D02*
X195500000Y-81863996D01*
X192636004Y-79000000D02*
X140565685Y-79000000D01*
X178200000Y-82000000D02*
X138336002Y-82000000D01*
X189001573Y-89107878D02*
X187792122Y-89107878D01*
X187792122Y-89107878D02*
X187000000Y-89900000D01*
X187000000Y-89900000D02*
X186100000Y-89900000D01*
X186100000Y-89900000D02*
X178200000Y-82000000D01*
X138336002Y-82000000D02*
X136836001Y-83500001D01*
X136836001Y-83500001D02*
X135837849Y-83500001D01*
X135837849Y-83500001D02*
X135573943Y-83763907D01*
X128900000Y-71400000D02*
X126100000Y-74200000D01*
X126100000Y-74200000D02*
X126100000Y-81900000D01*
X126100000Y-81900000D02*
X128663909Y-84463909D01*
X128663909Y-84463909D02*
X136437793Y-84463909D01*
X136437793Y-84463909D02*
X137201757Y-83699945D01*
X137201757Y-83699945D02*
X158028445Y-83699945D01*
X158028445Y-83699945D02*
X158028520Y-83700020D01*
X158028520Y-83700020D02*
X167297120Y-83700020D01*
X167297120Y-83700020D02*
X168397120Y-84800020D01*
X168397120Y-84800020D02*
X176265720Y-84800020D01*
X176265720Y-84800020D02*
X179273578Y-87807878D01*
X179273578Y-87807878D02*
X179331573Y-87807878D01*
X179331573Y-87807878D02*
X179931573Y-88407878D01*
X179931573Y-88407878D02*
X179931573Y-89107878D01*
X138842043Y-77799967D02*
X138701778Y-77940232D01*
X193133071Y-77799967D02*
X138842043Y-77799967D01*
X196700033Y-81366929D02*
X193133071Y-77799967D01*
X138701778Y-77940232D02*
X138301779Y-78340231D01*
X196700033Y-85334333D02*
X196700033Y-81366929D01*
X200000033Y-88634333D02*
X196700033Y-85334333D01*
X200000033Y-96780767D02*
X200000033Y-88634333D01*
X199200000Y-97580800D02*
X200000033Y-96780767D01*
X199200000Y-98161800D02*
X199200000Y-97580800D01*
X146320742Y-89075679D02*
X146920742Y-89075679D01*
X150700000Y-88300000D02*
X151450000Y-89050000D01*
X146920742Y-89075679D02*
X147696421Y-88300000D01*
X147696421Y-88300000D02*
X150700000Y-88300000D01*
X151450000Y-89050000D02*
X152040000Y-89050000D01*
X152040000Y-89050000D02*
X152640000Y-89050000D01*
X125300000Y-72800000D02*
X124899967Y-73200033D01*
X124899967Y-73200033D02*
X124899967Y-82397067D01*
X129819827Y-87316927D02*
X143316927Y-87316927D01*
X124899967Y-82397067D02*
X129819827Y-87316927D01*
X143316927Y-87316927D02*
X145075679Y-89075679D01*
X145075679Y-89075679D02*
X146320742Y-89075679D01*
X125699989Y-74034311D02*
X127487598Y-72246702D01*
X125699989Y-82065689D02*
X125699989Y-74034311D01*
X129498221Y-85863921D02*
X125699989Y-82065689D01*
X132587969Y-85863921D02*
X129498221Y-85863921D01*
X133187959Y-85263931D02*
X132587969Y-85863921D01*
X127487598Y-72246702D02*
X127487598Y-71822437D01*
X136769171Y-85263931D02*
X133187959Y-85263931D01*
X137533135Y-84499967D02*
X136769171Y-85263931D01*
X170240000Y-87800000D02*
X170240000Y-87774300D01*
X157697067Y-84499967D02*
X137533135Y-84499967D01*
X157697142Y-84500042D02*
X157697067Y-84499967D01*
X166965742Y-84500042D02*
X157697142Y-84500042D01*
X170240000Y-87774300D02*
X166965742Y-84500042D01*
X170840000Y-88400000D02*
X170240000Y-87800000D01*
X170840000Y-89100000D02*
X170840000Y-88400000D01*
X126500000Y-72200000D02*
X126100001Y-72599999D01*
X126100001Y-72599999D02*
X126100001Y-73068599D01*
X126100001Y-73068599D02*
X125299978Y-73868622D01*
X125299978Y-73868622D02*
X125299978Y-82231378D01*
X133660402Y-86789617D02*
X134386066Y-86063953D01*
X134386066Y-86063953D02*
X137100549Y-86063953D01*
X161220742Y-89075679D02*
X161820742Y-89075679D01*
X157445052Y-85299989D02*
X161220742Y-89075679D01*
X137864513Y-85299989D02*
X157445052Y-85299989D01*
X129858217Y-86789617D02*
X133660402Y-86789617D01*
X125299978Y-82231378D02*
X129858217Y-86789617D01*
X137100549Y-86063953D02*
X137864513Y-85299989D01*
X150360000Y-89050000D02*
X147650000Y-89050000D01*
X146800000Y-89900000D02*
X146000000Y-89900000D01*
X147650000Y-89050000D02*
X146800000Y-89900000D01*
X144040742Y-89075679D02*
X144075679Y-89075679D01*
X144075679Y-89075679D02*
X144900000Y-89900000D01*
X144900000Y-89900000D02*
X146000000Y-89900000D01*
X144040742Y-89075679D02*
X144040742Y-89040742D01*
X144040742Y-89040742D02*
X142800000Y-87800000D01*
X142800000Y-87800000D02*
X137447023Y-87800000D01*
X137447023Y-87800000D02*
X137148007Y-88099016D01*
X146000000Y-89900000D02*
X145900000Y-89900000D01*
X133777913Y-85663942D02*
X133752238Y-85689617D01*
X168560000Y-89100000D02*
X167960000Y-89100000D01*
X133752238Y-85689617D02*
X133352239Y-86089616D01*
X136934860Y-85663942D02*
X133777913Y-85663942D01*
X167960000Y-89100000D02*
X163760053Y-84900053D01*
X157531378Y-84899978D02*
X137698824Y-84899978D01*
X157531453Y-84900053D02*
X157531378Y-84899978D01*
X137698824Y-84899978D02*
X136934860Y-85663942D01*
X163760053Y-84900053D02*
X157531453Y-84900053D01*
X163399992Y-55200000D02*
X161199992Y-57400000D01*
X161199992Y-57400000D02*
X150957334Y-57400000D01*
X150957334Y-57400000D02*
X150382876Y-56825542D01*
D18*
X149049989Y-135549989D02*
X140999999Y-127499999D01*
X158350011Y-135549989D02*
X149049989Y-135549989D01*
X158900000Y-135000000D02*
X158350011Y-135549989D01*
X140999999Y-127499999D02*
X140600000Y-127100000D01*
D15*
X157200000Y-85700000D02*
X138446702Y-85700000D01*
X159540742Y-89075679D02*
X159540742Y-88040742D01*
X159540742Y-88040742D02*
X157200000Y-85700000D01*
X138446702Y-85700000D02*
X137929776Y-86216926D01*
X137929776Y-86216926D02*
X137529777Y-86616925D01*
G36*
X212841170Y-51020717D02*
X212923293Y-51218981D01*
X212923296Y-51218984D01*
X214007155Y-52841094D01*
X214007157Y-52841098D01*
X214083030Y-52916970D01*
X214158902Y-52992843D01*
X214158906Y-52992845D01*
X215781017Y-54076705D01*
X215781019Y-54076707D01*
X215979283Y-54158830D01*
X217450000Y-54451374D01*
X217450000Y-133548626D01*
X215979283Y-133841170D01*
X215781019Y-133923293D01*
X215781017Y-133923295D01*
X214158906Y-135007155D01*
X214158902Y-135007157D01*
X214083030Y-135083030D01*
X214007157Y-135158902D01*
X214007155Y-135158906D01*
X212923296Y-136781016D01*
X212923293Y-136781019D01*
X212841170Y-136979283D01*
X212548626Y-138450000D01*
X123451374Y-138450000D01*
X123158830Y-136979283D01*
X123076707Y-136781019D01*
X123076705Y-136781017D01*
X121992845Y-135158906D01*
X121992843Y-135158902D01*
X121916970Y-135083030D01*
X121841098Y-135007157D01*
X121841094Y-135007155D01*
X120218984Y-133923296D01*
X120218981Y-133923293D01*
X120020717Y-133841170D01*
X118550000Y-133548626D01*
X118550000Y-127278236D01*
X139699844Y-127278236D01*
X139836572Y-127609143D01*
X140089525Y-127862538D01*
X140420194Y-127999843D01*
X140580745Y-127999983D01*
X148590370Y-136009608D01*
X148801244Y-136150511D01*
X148842513Y-136158720D01*
X149049989Y-136199989D01*
X158350011Y-136199989D01*
X158557487Y-136158720D01*
X158598756Y-136150511D01*
X158809630Y-136009608D01*
X158919221Y-135900017D01*
X159078236Y-135900156D01*
X159409143Y-135763428D01*
X159662538Y-135510475D01*
X159799843Y-135179806D01*
X159800156Y-134821764D01*
X159663428Y-134490857D01*
X159410475Y-134237462D01*
X159079806Y-134100157D01*
X158721764Y-134099844D01*
X158390857Y-134236572D01*
X158137462Y-134489525D01*
X158000157Y-134820194D01*
X158000087Y-134899989D01*
X149319227Y-134899989D01*
X145112792Y-130693554D01*
X150798643Y-130693554D01*
X151102464Y-131428856D01*
X151664545Y-131991919D01*
X152399316Y-132297022D01*
X153194914Y-132297717D01*
X153930216Y-131993896D01*
X154493279Y-131431815D01*
X154798382Y-130697044D01*
X154798385Y-130693554D01*
X181197363Y-130693554D01*
X181501184Y-131428856D01*
X182063265Y-131991919D01*
X182798036Y-132297022D01*
X183593634Y-132297717D01*
X184328936Y-131993896D01*
X184891999Y-131431815D01*
X185197102Y-130697044D01*
X185197797Y-129901446D01*
X184893976Y-129166144D01*
X184331895Y-128603081D01*
X183597124Y-128297978D01*
X182801526Y-128297283D01*
X182066224Y-128601104D01*
X181503161Y-129163185D01*
X181198058Y-129897956D01*
X181197363Y-130693554D01*
X154798385Y-130693554D01*
X154799077Y-129901446D01*
X154495256Y-129166144D01*
X153933175Y-128603081D01*
X153198404Y-128297978D01*
X152402806Y-128297283D01*
X151667504Y-128601104D01*
X151104441Y-129163185D01*
X150799338Y-129897956D01*
X150798643Y-130693554D01*
X145112792Y-130693554D01*
X141500017Y-127080779D01*
X141500156Y-126921764D01*
X141363428Y-126590857D01*
X141110475Y-126337462D01*
X140779806Y-126200157D01*
X140421764Y-126199844D01*
X140090857Y-126336572D01*
X139837462Y-126589525D01*
X139700157Y-126920194D01*
X139699844Y-127278236D01*
X118550000Y-127278236D01*
X118550000Y-120378256D01*
X134339189Y-120378256D01*
X134475917Y-120709163D01*
X134728870Y-120962558D01*
X134850000Y-121012855D01*
X134850000Y-125577183D01*
X134737462Y-125689525D01*
X134600157Y-126020194D01*
X134599844Y-126378236D01*
X134736572Y-126709143D01*
X134989525Y-126962538D01*
X135320194Y-127099843D01*
X135678236Y-127100156D01*
X136009143Y-126963428D01*
X136262538Y-126710475D01*
X136399843Y-126379806D01*
X136400156Y-126021764D01*
X136263428Y-125690857D01*
X136150000Y-125577231D01*
X136150000Y-123178236D01*
X143799844Y-123178236D01*
X143936572Y-123509143D01*
X144189525Y-123762538D01*
X144520194Y-123899843D01*
X144878236Y-123900156D01*
X145209143Y-123763428D01*
X145272682Y-123700000D01*
X145727143Y-123700000D01*
X145637462Y-123789525D01*
X145500157Y-124120194D01*
X145499844Y-124478236D01*
X145636572Y-124809143D01*
X145889525Y-125062538D01*
X146220194Y-125199843D01*
X146578236Y-125200156D01*
X146909143Y-125063428D01*
X147162538Y-124810475D01*
X147291458Y-124500000D01*
X163110050Y-124500000D01*
X163793460Y-125183410D01*
X163641430Y-125183277D01*
X162975237Y-125458542D01*
X162465093Y-125967796D01*
X162188666Y-126633508D01*
X162188037Y-127354330D01*
X162463302Y-128020523D01*
X162972556Y-128530667D01*
X163638268Y-128807094D01*
X164359090Y-128807723D01*
X165025283Y-128532458D01*
X165535427Y-128023204D01*
X165811854Y-127357492D01*
X165812483Y-126636670D01*
X165537218Y-125970477D01*
X165267213Y-125700000D01*
X166731317Y-125700000D01*
X166463053Y-125967796D01*
X166186626Y-126633508D01*
X166185997Y-127354330D01*
X166461262Y-128020523D01*
X166970516Y-128530667D01*
X167636228Y-128807094D01*
X168357050Y-128807723D01*
X169023243Y-128532458D01*
X169533387Y-128023204D01*
X169809814Y-127357492D01*
X169809816Y-127354330D01*
X170183957Y-127354330D01*
X170459222Y-128020523D01*
X170968476Y-128530667D01*
X171634188Y-128807094D01*
X172355010Y-128807723D01*
X173021203Y-128532458D01*
X173531347Y-128023204D01*
X173807774Y-127357492D01*
X173808403Y-126636670D01*
X173533138Y-125970477D01*
X173023884Y-125460333D01*
X172358172Y-125183906D01*
X171637350Y-125183277D01*
X170971157Y-125458542D01*
X170461013Y-125967796D01*
X170184586Y-126633508D01*
X170183957Y-127354330D01*
X169809816Y-127354330D01*
X169810443Y-126636670D01*
X169535178Y-125970477D01*
X169025924Y-125460333D01*
X168675235Y-125314715D01*
X169314136Y-124675814D01*
X169635208Y-124809134D01*
X170356030Y-124809763D01*
X171022223Y-124534498D01*
X171532367Y-124025244D01*
X171808794Y-123359532D01*
X171809423Y-122638710D01*
X171534158Y-121972517D01*
X171024904Y-121462373D01*
X170359192Y-121185946D01*
X169638370Y-121185317D01*
X168972177Y-121460582D01*
X168462033Y-121969836D01*
X168185606Y-122635548D01*
X168184977Y-123356370D01*
X168322017Y-123688033D01*
X167710050Y-124300000D01*
X167259171Y-124300000D01*
X167534407Y-124025244D01*
X167810834Y-123359532D01*
X167811463Y-122638710D01*
X167536198Y-121972517D01*
X167026944Y-121462373D01*
X166361232Y-121185946D01*
X165640410Y-121185317D01*
X164974217Y-121460582D01*
X164464073Y-121969836D01*
X164326977Y-122300000D01*
X145272904Y-122300000D01*
X145210475Y-122237462D01*
X144879806Y-122100157D01*
X144521764Y-122099844D01*
X144190857Y-122236572D01*
X143937462Y-122489525D01*
X143800157Y-122820194D01*
X143799844Y-123178236D01*
X136150000Y-123178236D01*
X136150000Y-120460675D01*
X136135625Y-120388407D01*
X136139188Y-120379826D01*
X136139501Y-120021784D01*
X136002773Y-119690877D01*
X135749820Y-119437482D01*
X135419151Y-119300177D01*
X135061109Y-119299864D01*
X134730202Y-119436592D01*
X134476807Y-119689545D01*
X134339502Y-120020214D01*
X134339189Y-120378256D01*
X118550000Y-120378256D01*
X118550000Y-117687670D01*
X162178555Y-117687670D01*
X162178555Y-120311490D01*
X162217361Y-120506580D01*
X162327870Y-120671970D01*
X162493260Y-120782479D01*
X162688350Y-120821285D01*
X165312170Y-120821285D01*
X165507260Y-120782479D01*
X165672650Y-120671970D01*
X165783159Y-120506580D01*
X165821965Y-120311490D01*
X165821965Y-120221036D01*
X166783835Y-120221036D01*
X166916390Y-120497096D01*
X167571815Y-120797103D01*
X168292156Y-120823453D01*
X168967747Y-120572135D01*
X169080050Y-120497096D01*
X169212605Y-120221036D01*
X167998220Y-119006651D01*
X166783835Y-120221036D01*
X165821965Y-120221036D01*
X165821965Y-119293516D01*
X166174347Y-119293516D01*
X166425665Y-119969107D01*
X166500704Y-120081410D01*
X166776764Y-120213965D01*
X167991149Y-118999580D01*
X168005291Y-118999580D01*
X169219676Y-120213965D01*
X169495736Y-120081410D01*
X169795743Y-119425985D01*
X169798214Y-119358410D01*
X170183957Y-119358410D01*
X170459222Y-120024603D01*
X170968476Y-120534747D01*
X171634188Y-120811174D01*
X172355010Y-120811803D01*
X173021203Y-120536538D01*
X173531347Y-120027284D01*
X173807774Y-119361572D01*
X173808403Y-118640750D01*
X173533138Y-117974557D01*
X173023884Y-117464413D01*
X172358172Y-117187986D01*
X171637350Y-117187357D01*
X170971157Y-117462622D01*
X170461013Y-117971876D01*
X170184586Y-118637588D01*
X170183957Y-119358410D01*
X169798214Y-119358410D01*
X169822093Y-118705644D01*
X169570775Y-118030053D01*
X169495736Y-117917750D01*
X169219676Y-117785195D01*
X168005291Y-118999580D01*
X167991149Y-118999580D01*
X166776764Y-117785195D01*
X166500704Y-117917750D01*
X166200697Y-118573175D01*
X166174347Y-119293516D01*
X165821965Y-119293516D01*
X165821965Y-117778124D01*
X166783835Y-117778124D01*
X167998220Y-118992509D01*
X169212605Y-117778124D01*
X169080050Y-117502064D01*
X168424625Y-117202057D01*
X167704284Y-117175707D01*
X167028693Y-117427025D01*
X166916390Y-117502064D01*
X166783835Y-117778124D01*
X165821965Y-117778124D01*
X165821965Y-117687670D01*
X165783159Y-117492580D01*
X165672650Y-117327190D01*
X165507260Y-117216681D01*
X165312170Y-117177875D01*
X162688350Y-117177875D01*
X162493260Y-117216681D01*
X162327870Y-117327190D01*
X162217361Y-117492580D01*
X162178555Y-117687670D01*
X118550000Y-117687670D01*
X118550000Y-112596054D01*
X152299783Y-112596054D01*
X152603604Y-113331356D01*
X153165685Y-113894419D01*
X153900456Y-114199522D01*
X154696054Y-114200217D01*
X155431356Y-113896396D01*
X155994419Y-113334315D01*
X156299522Y-112599544D01*
X156299525Y-112596054D01*
X179696223Y-112596054D01*
X180000044Y-113331356D01*
X180562125Y-113894419D01*
X181296896Y-114199522D01*
X182092494Y-114200217D01*
X182827796Y-113896396D01*
X183390859Y-113334315D01*
X183695962Y-112599544D01*
X183696657Y-111803946D01*
X183392836Y-111068644D01*
X182830755Y-110505581D01*
X182095984Y-110200478D01*
X181300386Y-110199783D01*
X180565084Y-110503604D01*
X180002021Y-111065685D01*
X179696918Y-111800456D01*
X179696223Y-112596054D01*
X156299525Y-112596054D01*
X156300217Y-111803946D01*
X155996396Y-111068644D01*
X155434315Y-110505581D01*
X154699544Y-110200478D01*
X153903946Y-110199783D01*
X153168644Y-110503604D01*
X152605581Y-111065685D01*
X152300478Y-111800456D01*
X152299783Y-112596054D01*
X118550000Y-112596054D01*
X118550000Y-109122944D01*
X118589525Y-109162538D01*
X118755584Y-109231491D01*
X118755585Y-109231492D01*
X118755586Y-109231492D01*
X118920194Y-109299843D01*
X119278236Y-109300156D01*
X119609143Y-109163428D01*
X119862538Y-108910475D01*
X119999843Y-108579806D01*
X120000156Y-108221764D01*
X120000000Y-108221386D01*
X120000000Y-107200213D01*
X120000156Y-107021764D01*
X120000000Y-107021386D01*
X120000000Y-73200033D01*
X124299967Y-73200033D01*
X124299967Y-82397067D01*
X124345639Y-82626677D01*
X124475703Y-82821331D01*
X129395563Y-87741191D01*
X129590217Y-87871255D01*
X129819827Y-87916927D01*
X136249112Y-87916927D01*
X136248164Y-87919210D01*
X136247851Y-88277252D01*
X136384579Y-88608159D01*
X136637532Y-88861554D01*
X136968201Y-88998859D01*
X137326243Y-88999172D01*
X137657150Y-88862444D01*
X137910545Y-88609491D01*
X137997533Y-88400000D01*
X142551472Y-88400000D01*
X143140817Y-88989345D01*
X143140586Y-89253915D01*
X143277314Y-89584822D01*
X143530267Y-89838217D01*
X143860936Y-89975522D01*
X144127227Y-89975755D01*
X144475736Y-90324264D01*
X144670390Y-90454328D01*
X144900000Y-90500000D01*
X146800000Y-90500000D01*
X147029610Y-90454328D01*
X147224264Y-90324264D01*
X147898528Y-89650000D01*
X149687271Y-89650000D01*
X149849525Y-89812538D01*
X150180194Y-89949843D01*
X150538236Y-89950156D01*
X150869143Y-89813428D01*
X151122538Y-89560475D01*
X151129536Y-89543621D01*
X151220390Y-89604328D01*
X151450000Y-89650000D01*
X151967271Y-89650000D01*
X152129525Y-89812538D01*
X152460194Y-89949843D01*
X152818236Y-89950156D01*
X153149143Y-89813428D01*
X153402538Y-89560475D01*
X153539843Y-89229806D01*
X153540156Y-88871764D01*
X153403428Y-88540857D01*
X153150475Y-88287462D01*
X152819806Y-88150157D01*
X152461764Y-88149844D01*
X152130857Y-88286572D01*
X151967143Y-88450000D01*
X151698528Y-88450000D01*
X151124264Y-87875736D01*
X150929610Y-87745672D01*
X150700000Y-87700000D01*
X147696421Y-87700000D01*
X147466811Y-87745672D01*
X147272157Y-87875736D01*
X146832983Y-88314910D01*
X146831217Y-88313141D01*
X146500548Y-88175836D01*
X146142506Y-88175523D01*
X145811599Y-88312251D01*
X145647885Y-88475679D01*
X145324207Y-88475679D01*
X143741191Y-86892663D01*
X143546537Y-86762599D01*
X143316927Y-86716927D01*
X138429690Y-86716927D01*
X138429822Y-86565408D01*
X138695230Y-86300000D01*
X156951472Y-86300000D01*
X158940742Y-88289270D01*
X158940742Y-88402950D01*
X158778204Y-88565204D01*
X158640899Y-88895873D01*
X158640586Y-89253915D01*
X158777314Y-89584822D01*
X159030267Y-89838217D01*
X159360936Y-89975522D01*
X159718978Y-89975835D01*
X160049885Y-89839107D01*
X160303280Y-89586154D01*
X160440585Y-89255485D01*
X160440682Y-89144147D01*
X160796478Y-89499943D01*
X160991132Y-89630007D01*
X161129993Y-89657628D01*
X161310267Y-89838217D01*
X161640936Y-89975522D01*
X161998978Y-89975835D01*
X162329885Y-89839107D01*
X162583280Y-89586154D01*
X162720585Y-89255485D01*
X162720898Y-88897443D01*
X162584170Y-88566536D01*
X162331217Y-88313141D01*
X162000548Y-88175836D01*
X161642506Y-88175523D01*
X161311599Y-88312251D01*
X161308718Y-88315127D01*
X158493644Y-85500053D01*
X163511525Y-85500053D01*
X167535736Y-89524264D01*
X167730390Y-89654328D01*
X167869251Y-89681949D01*
X168049525Y-89862538D01*
X168380194Y-89999843D01*
X168738236Y-90000156D01*
X169069143Y-89863428D01*
X169322538Y-89610475D01*
X169459843Y-89279806D01*
X169460156Y-88921764D01*
X169323428Y-88590857D01*
X169070475Y-88337462D01*
X168739806Y-88200157D01*
X168381764Y-88199844D01*
X168050857Y-88336572D01*
X168047976Y-88339448D01*
X164808570Y-85100042D01*
X166717214Y-85100042D01*
X169763984Y-88146812D01*
X169815736Y-88224264D01*
X170129275Y-88537803D01*
X170077462Y-88589525D01*
X169940157Y-88920194D01*
X169939844Y-89278236D01*
X170076572Y-89609143D01*
X170329525Y-89862538D01*
X170660194Y-89999843D01*
X171018236Y-90000156D01*
X171349143Y-89863428D01*
X171602538Y-89610475D01*
X171739843Y-89279806D01*
X171740156Y-88921764D01*
X171603428Y-88590857D01*
X171440000Y-88427143D01*
X171440000Y-88400000D01*
X171394328Y-88170390D01*
X171264264Y-87975736D01*
X170716016Y-87427488D01*
X170664264Y-87350036D01*
X169114259Y-85800031D01*
X172895198Y-85800031D01*
X176627309Y-89532142D01*
X176821963Y-89662206D01*
X176960824Y-89689827D01*
X177141098Y-89870416D01*
X177471767Y-90007721D01*
X177829809Y-90008034D01*
X178160716Y-89871306D01*
X178414111Y-89618353D01*
X178551416Y-89287684D01*
X178551729Y-88929642D01*
X178415001Y-88598735D01*
X178162048Y-88345340D01*
X177831379Y-88208035D01*
X177473337Y-88207722D01*
X177142430Y-88344450D01*
X177139549Y-88347326D01*
X174192243Y-85400020D01*
X176017192Y-85400020D01*
X178849314Y-88232142D01*
X179024093Y-88348926D01*
X179220848Y-88545681D01*
X179169035Y-88597403D01*
X179031730Y-88928072D01*
X179031417Y-89286114D01*
X179168145Y-89617021D01*
X179421098Y-89870416D01*
X179751767Y-90007721D01*
X180109809Y-90008034D01*
X180440716Y-89871306D01*
X180694111Y-89618353D01*
X180831416Y-89287684D01*
X180831729Y-88929642D01*
X180695001Y-88598735D01*
X180531573Y-88435021D01*
X180531573Y-88407878D01*
X180485901Y-88178268D01*
X180355837Y-87983614D01*
X179755837Y-87383614D01*
X179581058Y-87266830D01*
X176689984Y-84375756D01*
X176495330Y-84245692D01*
X176265720Y-84200020D01*
X168645648Y-84200020D01*
X167721384Y-83275756D01*
X167526730Y-83145692D01*
X167297120Y-83100020D01*
X158028822Y-83100020D01*
X158028445Y-83099945D01*
X138084585Y-83099945D01*
X138584530Y-82600000D01*
X177951472Y-82600000D01*
X185675736Y-90324264D01*
X185870390Y-90454328D01*
X186100000Y-90500000D01*
X187000000Y-90500000D01*
X187229610Y-90454328D01*
X187424264Y-90324264D01*
X188040650Y-89707878D01*
X188328844Y-89707878D01*
X188491098Y-89870416D01*
X188821767Y-90007721D01*
X189179809Y-90008034D01*
X189510716Y-89871306D01*
X189764111Y-89618353D01*
X189901416Y-89287684D01*
X189901729Y-88929642D01*
X189765001Y-88598735D01*
X189512048Y-88345340D01*
X189181379Y-88208035D01*
X188823337Y-88207722D01*
X188492430Y-88344450D01*
X188328716Y-88507878D01*
X187792122Y-88507878D01*
X187562512Y-88553550D01*
X187487140Y-88603912D01*
X187485001Y-88598735D01*
X187232048Y-88345340D01*
X186901379Y-88208035D01*
X186543337Y-88207722D01*
X186212430Y-88344450D01*
X186102608Y-88454080D01*
X178824253Y-81175725D01*
X178629599Y-81045661D01*
X178399989Y-80999989D01*
X138678616Y-80999989D01*
X139009143Y-80863418D01*
X139172857Y-80699990D01*
X139465695Y-80699990D01*
X139695305Y-80654318D01*
X139889959Y-80524254D01*
X140814213Y-79600000D01*
X192387476Y-79600000D01*
X194900000Y-82112524D01*
X194900000Y-96527271D01*
X194737462Y-96689525D01*
X194600157Y-97020194D01*
X194599844Y-97378236D01*
X194736572Y-97709143D01*
X194989525Y-97962538D01*
X195047313Y-97986534D01*
X195047063Y-98272674D01*
X195183791Y-98603581D01*
X195436744Y-98856976D01*
X195767413Y-98994281D01*
X196125455Y-98994594D01*
X196456362Y-98857866D01*
X196589998Y-98724463D01*
X196789525Y-98924338D01*
X197120194Y-99061643D01*
X197478236Y-99061956D01*
X197809143Y-98925228D01*
X198062538Y-98672275D01*
X198199843Y-98341606D01*
X198200156Y-97983564D01*
X198063428Y-97652657D01*
X197900000Y-97488943D01*
X197900000Y-87382828D01*
X199400033Y-88882861D01*
X199400033Y-96532239D01*
X198775736Y-97156536D01*
X198645672Y-97351190D01*
X198622767Y-97466344D01*
X198437462Y-97651325D01*
X198300157Y-97981994D01*
X198299844Y-98340036D01*
X198436572Y-98670943D01*
X198689525Y-98924338D01*
X199020194Y-99061643D01*
X199378236Y-99061956D01*
X199709143Y-98925228D01*
X199962538Y-98672275D01*
X200099843Y-98341606D01*
X200100156Y-97983564D01*
X199967300Y-97662028D01*
X200424297Y-97205031D01*
X200554361Y-97010377D01*
X200600033Y-96780767D01*
X200600033Y-88634333D01*
X200554361Y-88404723D01*
X200424297Y-88210069D01*
X197300033Y-85085805D01*
X197300033Y-81366929D01*
X197254361Y-81137319D01*
X197124297Y-80942665D01*
X193557335Y-77375703D01*
X193362681Y-77245639D01*
X193133071Y-77199967D01*
X138842043Y-77199967D01*
X138612433Y-77245639D01*
X138417779Y-77375703D01*
X138353206Y-77440276D01*
X138123543Y-77440075D01*
X137792636Y-77576803D01*
X137539241Y-77829756D01*
X137401936Y-78160425D01*
X137401623Y-78518467D01*
X137535370Y-78842160D01*
X137387954Y-78842031D01*
X137057047Y-78978759D01*
X136803652Y-79231712D01*
X136666347Y-79562381D01*
X136666034Y-79920423D01*
X136802762Y-80251330D01*
X137055715Y-80504725D01*
X137386384Y-80642030D01*
X137744426Y-80642343D01*
X137762337Y-80634943D01*
X137989525Y-80862528D01*
X138320194Y-80999833D01*
X138498643Y-80999989D01*
X137700011Y-80999989D01*
X137470401Y-81045661D01*
X137275747Y-81175725D01*
X136551427Y-81900045D01*
X136321764Y-81899844D01*
X135990857Y-82036572D01*
X135737462Y-82289525D01*
X135600157Y-82620194D01*
X135599944Y-82863930D01*
X135395707Y-82863751D01*
X135064800Y-83000479D01*
X134811405Y-83253432D01*
X134674100Y-83584101D01*
X134673855Y-83863909D01*
X128912437Y-83863909D01*
X126700000Y-81651472D01*
X126700000Y-74448528D01*
X128454974Y-72693554D01*
X140798643Y-72693554D01*
X141102464Y-73428856D01*
X141664545Y-73991919D01*
X142399316Y-74297022D01*
X143194914Y-74297717D01*
X143930216Y-73993896D01*
X144493279Y-73431815D01*
X144798382Y-72697044D01*
X144798385Y-72693554D01*
X191197323Y-72693554D01*
X191501144Y-73428856D01*
X192063225Y-73991919D01*
X192797996Y-74297022D01*
X193593594Y-74297717D01*
X194328896Y-73993896D01*
X194891959Y-73431815D01*
X195197062Y-72697044D01*
X195197757Y-71901446D01*
X194893936Y-71166144D01*
X194331855Y-70603081D01*
X193597084Y-70297978D01*
X192801486Y-70297283D01*
X192066184Y-70601104D01*
X191503121Y-71163185D01*
X191198018Y-71897956D01*
X191197323Y-72693554D01*
X144798385Y-72693554D01*
X144799077Y-71901446D01*
X144495256Y-71166144D01*
X143933175Y-70603081D01*
X143198404Y-70297978D01*
X142402806Y-70297283D01*
X141667504Y-70601104D01*
X141104441Y-71163185D01*
X140799338Y-71897956D01*
X140798643Y-72693554D01*
X128454974Y-72693554D01*
X128848573Y-72299955D01*
X129078236Y-72300156D01*
X129409143Y-72163428D01*
X129662538Y-71910475D01*
X129799843Y-71579806D01*
X129800156Y-71221764D01*
X129663428Y-70890857D01*
X129410475Y-70637462D01*
X129079806Y-70500157D01*
X128721764Y-70499844D01*
X128390857Y-70636572D01*
X128137462Y-70889525D01*
X128046552Y-71108462D01*
X127998073Y-71059899D01*
X127667404Y-70922594D01*
X127309362Y-70922281D01*
X126978455Y-71059009D01*
X126725060Y-71311962D01*
X126722586Y-71317921D01*
X126679806Y-71300157D01*
X126321764Y-71299844D01*
X125990857Y-71436572D01*
X125737462Y-71689525D01*
X125624971Y-71960435D01*
X125479806Y-71900157D01*
X125121764Y-71899844D01*
X124790857Y-72036572D01*
X124537462Y-72289525D01*
X124400157Y-72620194D01*
X124399922Y-72889183D01*
X124345639Y-72970423D01*
X124299967Y-73200033D01*
X120000000Y-73200033D01*
X120000000Y-69900000D01*
X120178236Y-69900156D01*
X120509143Y-69763428D01*
X120762538Y-69510475D01*
X120899843Y-69179806D01*
X120900156Y-68821764D01*
X120763428Y-68490857D01*
X120510475Y-68237462D01*
X120179806Y-68100157D01*
X120000000Y-68100000D01*
X120000000Y-66600000D01*
X120178236Y-66600156D01*
X120509143Y-66463428D01*
X120572682Y-66400000D01*
X129810050Y-66400000D01*
X130900000Y-67489950D01*
X130900000Y-69027096D01*
X130837462Y-69089525D01*
X130700157Y-69420194D01*
X130699844Y-69778236D01*
X130836572Y-70109143D01*
X131089525Y-70362538D01*
X131420194Y-70499843D01*
X131778236Y-70500156D01*
X132109143Y-70363428D01*
X132362538Y-70110475D01*
X132499843Y-69779806D01*
X132500156Y-69421764D01*
X132472293Y-69354330D01*
X152188037Y-69354330D01*
X152463302Y-70020523D01*
X152972556Y-70530667D01*
X153638268Y-70807094D01*
X154359090Y-70807723D01*
X155025283Y-70532458D01*
X155535427Y-70023204D01*
X155811854Y-69357492D01*
X155811856Y-69354330D01*
X156185997Y-69354330D01*
X156461262Y-70020523D01*
X156970516Y-70530667D01*
X157636228Y-70807094D01*
X158357050Y-70807723D01*
X159023243Y-70532458D01*
X159533387Y-70023204D01*
X159809814Y-69357492D01*
X159809816Y-69354330D01*
X160186497Y-69354330D01*
X160461762Y-70020523D01*
X160971016Y-70530667D01*
X161636728Y-70807094D01*
X162357550Y-70807723D01*
X163023743Y-70532458D01*
X163533887Y-70023204D01*
X163810314Y-69357492D01*
X163810316Y-69354330D01*
X164186997Y-69354330D01*
X164462262Y-70020523D01*
X164971516Y-70530667D01*
X165637228Y-70807094D01*
X166358050Y-70807723D01*
X167024243Y-70532458D01*
X167534387Y-70023204D01*
X167810814Y-69357492D01*
X167810816Y-69354330D01*
X168184957Y-69354330D01*
X168460222Y-70020523D01*
X168969476Y-70530667D01*
X169635188Y-70807094D01*
X170356010Y-70807723D01*
X171022203Y-70532458D01*
X171532347Y-70023204D01*
X171808774Y-69357492D01*
X171808776Y-69354330D01*
X172185457Y-69354330D01*
X172460722Y-70020523D01*
X172969976Y-70530667D01*
X173635688Y-70807094D01*
X174356510Y-70807723D01*
X175022703Y-70532458D01*
X175532847Y-70023204D01*
X175809274Y-69357492D01*
X175809276Y-69354330D01*
X176185957Y-69354330D01*
X176461222Y-70020523D01*
X176970476Y-70530667D01*
X177636188Y-70807094D01*
X178357010Y-70807723D01*
X179023203Y-70532458D01*
X179533347Y-70023204D01*
X179809774Y-69357492D01*
X179809776Y-69354330D01*
X180183917Y-69354330D01*
X180459182Y-70020523D01*
X180968436Y-70530667D01*
X181634148Y-70807094D01*
X182354970Y-70807723D01*
X183021163Y-70532458D01*
X183531307Y-70023204D01*
X183807734Y-69357492D01*
X183808363Y-68636670D01*
X183533098Y-67970477D01*
X183023844Y-67460333D01*
X182358132Y-67183906D01*
X181637310Y-67183277D01*
X180971117Y-67458542D01*
X180460973Y-67967796D01*
X180184546Y-68633508D01*
X180183917Y-69354330D01*
X179809776Y-69354330D01*
X179810403Y-68636670D01*
X179535138Y-67970477D01*
X179025884Y-67460333D01*
X178360172Y-67183906D01*
X177639350Y-67183277D01*
X176973157Y-67458542D01*
X176463013Y-67967796D01*
X176186586Y-68633508D01*
X176185957Y-69354330D01*
X175809276Y-69354330D01*
X175809903Y-68636670D01*
X175534638Y-67970477D01*
X175025384Y-67460333D01*
X174359672Y-67183906D01*
X173638850Y-67183277D01*
X172972657Y-67458542D01*
X172462513Y-67967796D01*
X172186086Y-68633508D01*
X172185457Y-69354330D01*
X171808776Y-69354330D01*
X171809403Y-68636670D01*
X171534138Y-67970477D01*
X171024884Y-67460333D01*
X170359172Y-67183906D01*
X169638350Y-67183277D01*
X168972157Y-67458542D01*
X168462013Y-67967796D01*
X168185586Y-68633508D01*
X168184957Y-69354330D01*
X167810816Y-69354330D01*
X167811443Y-68636670D01*
X167536178Y-67970477D01*
X167026924Y-67460333D01*
X166361212Y-67183906D01*
X165640390Y-67183277D01*
X164974197Y-67458542D01*
X164464053Y-67967796D01*
X164187626Y-68633508D01*
X164186997Y-69354330D01*
X163810316Y-69354330D01*
X163810943Y-68636670D01*
X163535678Y-67970477D01*
X163026424Y-67460333D01*
X162360712Y-67183906D01*
X161639890Y-67183277D01*
X160973697Y-67458542D01*
X160463553Y-67967796D01*
X160187126Y-68633508D01*
X160186497Y-69354330D01*
X159809816Y-69354330D01*
X159810443Y-68636670D01*
X159535178Y-67970477D01*
X159025924Y-67460333D01*
X158360212Y-67183906D01*
X157639390Y-67183277D01*
X156973197Y-67458542D01*
X156463053Y-67967796D01*
X156186626Y-68633508D01*
X156185997Y-69354330D01*
X155811856Y-69354330D01*
X155812483Y-68636670D01*
X155537218Y-67970477D01*
X155027964Y-67460333D01*
X154362252Y-67183906D01*
X153641430Y-67183277D01*
X152975237Y-67458542D01*
X152465093Y-67967796D01*
X152188666Y-68633508D01*
X152188037Y-69354330D01*
X132472293Y-69354330D01*
X132363428Y-69090857D01*
X132300000Y-69027318D01*
X132300000Y-67200000D01*
X132246716Y-66932122D01*
X132246716Y-66932121D01*
X132094975Y-66705025D01*
X131090029Y-65700079D01*
X131178236Y-65700156D01*
X131509143Y-65563428D01*
X131716562Y-65356370D01*
X154187017Y-65356370D01*
X154462282Y-66022563D01*
X154971536Y-66532707D01*
X155637248Y-66809134D01*
X156358070Y-66809763D01*
X157024263Y-66534498D01*
X157534407Y-66025244D01*
X157810834Y-65359532D01*
X157810836Y-65356370D01*
X158187517Y-65356370D01*
X158462782Y-66022563D01*
X158972036Y-66532707D01*
X159637748Y-66809134D01*
X160358570Y-66809763D01*
X161024763Y-66534498D01*
X161534907Y-66025244D01*
X161811334Y-65359532D01*
X161811336Y-65356370D01*
X162188017Y-65356370D01*
X162463282Y-66022563D01*
X162972536Y-66532707D01*
X163638248Y-66809134D01*
X164359070Y-66809763D01*
X165025263Y-66534498D01*
X165535407Y-66025244D01*
X165811834Y-65359532D01*
X165811836Y-65356370D01*
X166185977Y-65356370D01*
X166461242Y-66022563D01*
X166970496Y-66532707D01*
X167636208Y-66809134D01*
X168357030Y-66809763D01*
X169023223Y-66534498D01*
X169533367Y-66025244D01*
X169809794Y-65359532D01*
X169809796Y-65356370D01*
X170183937Y-65356370D01*
X170459202Y-66022563D01*
X170968456Y-66532707D01*
X171634168Y-66809134D01*
X172354990Y-66809763D01*
X173021183Y-66534498D01*
X173531327Y-66025244D01*
X173807754Y-65359532D01*
X173807756Y-65356370D01*
X174184437Y-65356370D01*
X174459702Y-66022563D01*
X174968956Y-66532707D01*
X175634668Y-66809134D01*
X176355490Y-66809763D01*
X177021683Y-66534498D01*
X177531827Y-66025244D01*
X177808254Y-65359532D01*
X177808256Y-65356370D01*
X178184937Y-65356370D01*
X178460202Y-66022563D01*
X178969456Y-66532707D01*
X179635168Y-66809134D01*
X180355990Y-66809763D01*
X181022183Y-66534498D01*
X181532327Y-66025244D01*
X181808754Y-65359532D01*
X181809383Y-64638710D01*
X181534118Y-63972517D01*
X181024864Y-63462373D01*
X180359152Y-63185946D01*
X179638330Y-63185317D01*
X178972137Y-63460582D01*
X178461993Y-63969836D01*
X178185566Y-64635548D01*
X178184937Y-65356370D01*
X177808256Y-65356370D01*
X177808883Y-64638710D01*
X177533618Y-63972517D01*
X177024364Y-63462373D01*
X176358652Y-63185946D01*
X175637830Y-63185317D01*
X174971637Y-63460582D01*
X174461493Y-63969836D01*
X174185066Y-64635548D01*
X174184437Y-65356370D01*
X173807756Y-65356370D01*
X173808383Y-64638710D01*
X173533118Y-63972517D01*
X173023864Y-63462373D01*
X172358152Y-63185946D01*
X171637330Y-63185317D01*
X170971137Y-63460582D01*
X170460993Y-63969836D01*
X170184566Y-64635548D01*
X170183937Y-65356370D01*
X169809796Y-65356370D01*
X169810423Y-64638710D01*
X169535158Y-63972517D01*
X169025904Y-63462373D01*
X168360192Y-63185946D01*
X167639370Y-63185317D01*
X166973177Y-63460582D01*
X166463033Y-63969836D01*
X166186606Y-64635548D01*
X166185977Y-65356370D01*
X165811836Y-65356370D01*
X165812463Y-64638710D01*
X165537198Y-63972517D01*
X165027944Y-63462373D01*
X164362232Y-63185946D01*
X163641410Y-63185317D01*
X162975217Y-63460582D01*
X162465073Y-63969836D01*
X162188646Y-64635548D01*
X162188017Y-65356370D01*
X161811336Y-65356370D01*
X161811963Y-64638710D01*
X161536698Y-63972517D01*
X161027444Y-63462373D01*
X160361732Y-63185946D01*
X159640910Y-63185317D01*
X158974717Y-63460582D01*
X158464573Y-63969836D01*
X158188146Y-64635548D01*
X158187517Y-65356370D01*
X157810836Y-65356370D01*
X157811463Y-64638710D01*
X157536198Y-63972517D01*
X157026944Y-63462373D01*
X156361232Y-63185946D01*
X155640410Y-63185317D01*
X154974217Y-63460582D01*
X154464073Y-63969836D01*
X154187646Y-64635548D01*
X154187017Y-65356370D01*
X131716562Y-65356370D01*
X131762538Y-65310475D01*
X131899843Y-64979806D01*
X131900156Y-64621764D01*
X131763428Y-64290857D01*
X131510475Y-64037462D01*
X131179806Y-63900157D01*
X130821764Y-63899844D01*
X130490857Y-64036572D01*
X130237462Y-64289525D01*
X130100157Y-64620194D01*
X130100079Y-64709971D01*
X129810050Y-65000000D01*
X120572904Y-65000000D01*
X120510475Y-64937462D01*
X120179806Y-64800157D01*
X120000000Y-64800000D01*
X120000000Y-58478236D01*
X148099844Y-58478236D01*
X148236572Y-58809143D01*
X148489525Y-59062538D01*
X148820194Y-59199843D01*
X149178236Y-59200156D01*
X149299956Y-59149862D01*
X149299844Y-59278236D01*
X149436572Y-59609143D01*
X149689525Y-59862538D01*
X150000095Y-59991497D01*
X149999844Y-60278236D01*
X150136572Y-60609143D01*
X150389525Y-60862538D01*
X150720194Y-60999843D01*
X151078236Y-61000156D01*
X151409143Y-60863428D01*
X151662538Y-60610475D01*
X151799843Y-60279806D01*
X151800045Y-60048483D01*
X152148528Y-59700000D01*
X152178555Y-59700000D01*
X152178555Y-62311490D01*
X152217361Y-62506580D01*
X152327870Y-62671970D01*
X152493260Y-62782479D01*
X152688350Y-62821285D01*
X155312170Y-62821285D01*
X155507260Y-62782479D01*
X155672650Y-62671970D01*
X155783159Y-62506580D01*
X155821965Y-62311490D01*
X155821965Y-59700000D01*
X156735404Y-59700000D01*
X156463053Y-59971876D01*
X156186626Y-60637588D01*
X156185997Y-61358410D01*
X156461262Y-62024603D01*
X156970516Y-62534747D01*
X157636228Y-62811174D01*
X158357050Y-62811803D01*
X159023243Y-62536538D01*
X159533387Y-62027284D01*
X159809814Y-61361572D01*
X159810443Y-60640750D01*
X159535178Y-59974557D01*
X159261100Y-59700000D01*
X160735904Y-59700000D01*
X160463553Y-59971876D01*
X160187126Y-60637588D01*
X160186497Y-61358410D01*
X160461762Y-62024603D01*
X160971016Y-62534747D01*
X161636728Y-62811174D01*
X162357550Y-62811803D01*
X163023743Y-62536538D01*
X163533887Y-62027284D01*
X163810314Y-61361572D01*
X163810943Y-60640750D01*
X163535678Y-59974557D01*
X163261600Y-59700000D01*
X164736404Y-59700000D01*
X164464053Y-59971876D01*
X164187626Y-60637588D01*
X164186997Y-61358410D01*
X164462262Y-62024603D01*
X164971516Y-62534747D01*
X165637228Y-62811174D01*
X166358050Y-62811803D01*
X167024243Y-62536538D01*
X167534387Y-62027284D01*
X167810814Y-61361572D01*
X167811443Y-60640750D01*
X167536178Y-59974557D01*
X167262100Y-59700000D01*
X168734364Y-59700000D01*
X168462013Y-59971876D01*
X168185586Y-60637588D01*
X168184957Y-61358410D01*
X168460222Y-62024603D01*
X168969476Y-62534747D01*
X169635188Y-62811174D01*
X170356010Y-62811803D01*
X171022203Y-62536538D01*
X171532347Y-62027284D01*
X171808774Y-61361572D01*
X171808776Y-61358410D01*
X172185457Y-61358410D01*
X172460722Y-62024603D01*
X172969976Y-62534747D01*
X173635688Y-62811174D01*
X174356510Y-62811803D01*
X175022703Y-62536538D01*
X175532847Y-62027284D01*
X175809274Y-61361572D01*
X175809276Y-61358410D01*
X176185957Y-61358410D01*
X176461222Y-62024603D01*
X176970476Y-62534747D01*
X177636188Y-62811174D01*
X178357010Y-62811803D01*
X179023203Y-62536538D01*
X179533347Y-62027284D01*
X179809774Y-61361572D01*
X179809776Y-61358410D01*
X180183917Y-61358410D01*
X180459182Y-62024603D01*
X180968436Y-62534747D01*
X181634148Y-62811174D01*
X182354970Y-62811803D01*
X183021163Y-62536538D01*
X183531307Y-62027284D01*
X183807734Y-61361572D01*
X183808363Y-60640750D01*
X183533098Y-59974557D01*
X183023844Y-59464413D01*
X182358132Y-59187986D01*
X181637310Y-59187357D01*
X180971117Y-59462622D01*
X180460973Y-59971876D01*
X180184546Y-60637588D01*
X180183917Y-61358410D01*
X179809776Y-61358410D01*
X179810403Y-60640750D01*
X179535138Y-59974557D01*
X179025884Y-59464413D01*
X178360172Y-59187986D01*
X177639350Y-59187357D01*
X176973157Y-59462622D01*
X176463013Y-59971876D01*
X176186586Y-60637588D01*
X176185957Y-61358410D01*
X175809276Y-61358410D01*
X175809903Y-60640750D01*
X175534638Y-59974557D01*
X175025384Y-59464413D01*
X174359672Y-59187986D01*
X173638850Y-59187357D01*
X172972657Y-59462622D01*
X172462513Y-59971876D01*
X172186086Y-60637588D01*
X172185457Y-61358410D01*
X171808776Y-61358410D01*
X171809403Y-60640750D01*
X171534138Y-59974557D01*
X171260060Y-59700000D01*
X172361800Y-59700000D01*
X172591410Y-59654328D01*
X172786064Y-59524264D01*
X173110373Y-59199955D01*
X173340036Y-59200156D01*
X173670943Y-59063428D01*
X173924338Y-58810475D01*
X174061643Y-58479806D01*
X174061956Y-58121764D01*
X173925228Y-57790857D01*
X173672275Y-57537462D01*
X173341606Y-57400157D01*
X172983564Y-57399844D01*
X172652657Y-57536572D01*
X172399262Y-57789525D01*
X172261957Y-58120194D01*
X172261755Y-58351517D01*
X172113272Y-58500000D01*
X170053258Y-58500000D01*
X170061643Y-58479806D01*
X170061956Y-58121764D01*
X169925228Y-57790857D01*
X169672275Y-57537462D01*
X169341606Y-57400157D01*
X168983564Y-57399844D01*
X168652657Y-57536572D01*
X168399262Y-57789525D01*
X168270347Y-58099989D01*
X167248539Y-58099989D01*
X170752474Y-54596054D01*
X189696183Y-54596054D01*
X190000004Y-55331356D01*
X190562085Y-55894419D01*
X191296856Y-56199522D01*
X192092454Y-56200217D01*
X192827756Y-55896396D01*
X193390819Y-55334315D01*
X193695922Y-54599544D01*
X193696617Y-53803946D01*
X193392796Y-53068644D01*
X192830715Y-52505581D01*
X192095944Y-52200478D01*
X191300346Y-52199783D01*
X190565044Y-52503604D01*
X190001981Y-53065685D01*
X189696878Y-53800456D01*
X189696183Y-54596054D01*
X170752474Y-54596054D01*
X172948528Y-52400000D01*
X176527269Y-52400000D01*
X176689523Y-52562538D01*
X177020192Y-52699843D01*
X177378234Y-52700156D01*
X177709141Y-52563428D01*
X177962536Y-52310475D01*
X178099841Y-51979806D01*
X178100154Y-51621764D01*
X177963426Y-51290857D01*
X177710473Y-51037462D01*
X177379804Y-50900157D01*
X177021762Y-50899844D01*
X176690855Y-51036572D01*
X176527141Y-51200000D01*
X172700000Y-51200000D01*
X172470390Y-51245672D01*
X172275736Y-51375736D01*
X165951494Y-57699978D01*
X165048560Y-57699978D01*
X166548583Y-56199955D01*
X166778246Y-56200156D01*
X167109153Y-56063428D01*
X167362548Y-55810475D01*
X167499853Y-55479806D01*
X167500166Y-55121764D01*
X167363438Y-54790857D01*
X167110485Y-54537462D01*
X166779816Y-54400157D01*
X166421774Y-54399844D01*
X166090867Y-54536572D01*
X165837472Y-54789525D01*
X165700167Y-55120194D01*
X165699965Y-55351517D01*
X163851471Y-57200011D01*
X162248509Y-57200011D01*
X163348565Y-56099955D01*
X163578228Y-56100156D01*
X163909135Y-55963428D01*
X164162530Y-55710475D01*
X164299835Y-55379806D01*
X164300148Y-55021764D01*
X164163420Y-54690857D01*
X163910467Y-54437462D01*
X163579798Y-54300157D01*
X163221756Y-54299844D01*
X162890849Y-54436572D01*
X162637454Y-54689525D01*
X162500149Y-55020194D01*
X162499947Y-55251517D01*
X160951464Y-56800000D01*
X151282899Y-56800000D01*
X151283032Y-56647306D01*
X151146304Y-56316399D01*
X150893351Y-56063004D01*
X150671735Y-55970981D01*
X150842715Y-55800001D01*
X156108837Y-55800001D01*
X156236572Y-56109143D01*
X156489525Y-56362538D01*
X156820194Y-56499843D01*
X157178236Y-56500156D01*
X157509143Y-56363428D01*
X157762538Y-56110475D01*
X157899843Y-55779806D01*
X157900156Y-55421764D01*
X157763428Y-55090857D01*
X157510475Y-54837462D01*
X157179806Y-54700157D01*
X156910800Y-54699922D01*
X156829611Y-54645673D01*
X156600001Y-54600001D01*
X150594187Y-54600001D01*
X150364577Y-54645673D01*
X150169923Y-54775737D01*
X149727188Y-55218472D01*
X149497525Y-55218271D01*
X149166618Y-55354999D01*
X148913223Y-55607952D01*
X148775918Y-55938621D01*
X148775605Y-56296663D01*
X148912333Y-56627570D01*
X149165286Y-56880965D01*
X149202752Y-56896522D01*
X148999723Y-57099197D01*
X148874865Y-57399890D01*
X148821764Y-57399844D01*
X148490857Y-57536572D01*
X148237462Y-57789525D01*
X148100157Y-58120194D01*
X148099844Y-58478236D01*
X120000000Y-58478236D01*
X120000000Y-56872792D01*
X122276738Y-54596054D01*
X142299783Y-54596054D01*
X142603604Y-55331356D01*
X143165685Y-55894419D01*
X143900456Y-56199522D01*
X144696054Y-56200217D01*
X145431356Y-55896396D01*
X145994419Y-55334315D01*
X146299522Y-54599544D01*
X146300217Y-53803946D01*
X145996396Y-53068644D01*
X145434315Y-52505581D01*
X144699544Y-52200478D01*
X143903946Y-52199783D01*
X143168644Y-52503604D01*
X142605581Y-53065685D01*
X142300478Y-53800456D01*
X142299783Y-54596054D01*
X122276738Y-54596054D01*
X125972792Y-50900000D01*
X126899787Y-50900000D01*
X127078236Y-50900156D01*
X127078614Y-50900000D01*
X160099787Y-50900000D01*
X160278236Y-50900156D01*
X160278614Y-50900000D01*
X165699787Y-50900000D01*
X165878236Y-50900156D01*
X166209143Y-50763428D01*
X166462538Y-50510475D01*
X166599843Y-50179806D01*
X166600156Y-49821764D01*
X166487865Y-49550000D01*
X212548626Y-49550000D01*
X212841170Y-51020717D01*
X212841170Y-51020717D01*
G37*
X212841170Y-51020717D02*
X212923293Y-51218981D01*
X212923296Y-51218984D01*
X214007155Y-52841094D01*
X214007157Y-52841098D01*
X214083030Y-52916970D01*
X214158902Y-52992843D01*
X214158906Y-52992845D01*
X215781017Y-54076705D01*
X215781019Y-54076707D01*
X215979283Y-54158830D01*
X217450000Y-54451374D01*
X217450000Y-133548626D01*
X215979283Y-133841170D01*
X215781019Y-133923293D01*
X215781017Y-133923295D01*
X214158906Y-135007155D01*
X214158902Y-135007157D01*
X214083030Y-135083030D01*
X214007157Y-135158902D01*
X214007155Y-135158906D01*
X212923296Y-136781016D01*
X212923293Y-136781019D01*
X212841170Y-136979283D01*
X212548626Y-138450000D01*
X123451374Y-138450000D01*
X123158830Y-136979283D01*
X123076707Y-136781019D01*
X123076705Y-136781017D01*
X121992845Y-135158906D01*
X121992843Y-135158902D01*
X121916970Y-135083030D01*
X121841098Y-135007157D01*
X121841094Y-135007155D01*
X120218984Y-133923296D01*
X120218981Y-133923293D01*
X120020717Y-133841170D01*
X118550000Y-133548626D01*
X118550000Y-127278236D01*
X139699844Y-127278236D01*
X139836572Y-127609143D01*
X140089525Y-127862538D01*
X140420194Y-127999843D01*
X140580745Y-127999983D01*
X148590370Y-136009608D01*
X148801244Y-136150511D01*
X148842513Y-136158720D01*
X149049989Y-136199989D01*
X158350011Y-136199989D01*
X158557487Y-136158720D01*
X158598756Y-136150511D01*
X158809630Y-136009608D01*
X158919221Y-135900017D01*
X159078236Y-135900156D01*
X159409143Y-135763428D01*
X159662538Y-135510475D01*
X159799843Y-135179806D01*
X159800156Y-134821764D01*
X159663428Y-134490857D01*
X159410475Y-134237462D01*
X159079806Y-134100157D01*
X158721764Y-134099844D01*
X158390857Y-134236572D01*
X158137462Y-134489525D01*
X158000157Y-134820194D01*
X158000087Y-134899989D01*
X149319227Y-134899989D01*
X145112792Y-130693554D01*
X150798643Y-130693554D01*
X151102464Y-131428856D01*
X151664545Y-131991919D01*
X152399316Y-132297022D01*
X153194914Y-132297717D01*
X153930216Y-131993896D01*
X154493279Y-131431815D01*
X154798382Y-130697044D01*
X154798385Y-130693554D01*
X181197363Y-130693554D01*
X181501184Y-131428856D01*
X182063265Y-131991919D01*
X182798036Y-132297022D01*
X183593634Y-132297717D01*
X184328936Y-131993896D01*
X184891999Y-131431815D01*
X185197102Y-130697044D01*
X185197797Y-129901446D01*
X184893976Y-129166144D01*
X184331895Y-128603081D01*
X183597124Y-128297978D01*
X182801526Y-128297283D01*
X182066224Y-128601104D01*
X181503161Y-129163185D01*
X181198058Y-129897956D01*
X181197363Y-130693554D01*
X154798385Y-130693554D01*
X154799077Y-129901446D01*
X154495256Y-129166144D01*
X153933175Y-128603081D01*
X153198404Y-128297978D01*
X152402806Y-128297283D01*
X151667504Y-128601104D01*
X151104441Y-129163185D01*
X150799338Y-129897956D01*
X150798643Y-130693554D01*
X145112792Y-130693554D01*
X141500017Y-127080779D01*
X141500156Y-126921764D01*
X141363428Y-126590857D01*
X141110475Y-126337462D01*
X140779806Y-126200157D01*
X140421764Y-126199844D01*
X140090857Y-126336572D01*
X139837462Y-126589525D01*
X139700157Y-126920194D01*
X139699844Y-127278236D01*
X118550000Y-127278236D01*
X118550000Y-120378256D01*
X134339189Y-120378256D01*
X134475917Y-120709163D01*
X134728870Y-120962558D01*
X134850000Y-121012855D01*
X134850000Y-125577183D01*
X134737462Y-125689525D01*
X134600157Y-126020194D01*
X134599844Y-126378236D01*
X134736572Y-126709143D01*
X134989525Y-126962538D01*
X135320194Y-127099843D01*
X135678236Y-127100156D01*
X136009143Y-126963428D01*
X136262538Y-126710475D01*
X136399843Y-126379806D01*
X136400156Y-126021764D01*
X136263428Y-125690857D01*
X136150000Y-125577231D01*
X136150000Y-123178236D01*
X143799844Y-123178236D01*
X143936572Y-123509143D01*
X144189525Y-123762538D01*
X144520194Y-123899843D01*
X144878236Y-123900156D01*
X145209143Y-123763428D01*
X145272682Y-123700000D01*
X145727143Y-123700000D01*
X145637462Y-123789525D01*
X145500157Y-124120194D01*
X145499844Y-124478236D01*
X145636572Y-124809143D01*
X145889525Y-125062538D01*
X146220194Y-125199843D01*
X146578236Y-125200156D01*
X146909143Y-125063428D01*
X147162538Y-124810475D01*
X147291458Y-124500000D01*
X163110050Y-124500000D01*
X163793460Y-125183410D01*
X163641430Y-125183277D01*
X162975237Y-125458542D01*
X162465093Y-125967796D01*
X162188666Y-126633508D01*
X162188037Y-127354330D01*
X162463302Y-128020523D01*
X162972556Y-128530667D01*
X163638268Y-128807094D01*
X164359090Y-128807723D01*
X165025283Y-128532458D01*
X165535427Y-128023204D01*
X165811854Y-127357492D01*
X165812483Y-126636670D01*
X165537218Y-125970477D01*
X165267213Y-125700000D01*
X166731317Y-125700000D01*
X166463053Y-125967796D01*
X166186626Y-126633508D01*
X166185997Y-127354330D01*
X166461262Y-128020523D01*
X166970516Y-128530667D01*
X167636228Y-128807094D01*
X168357050Y-128807723D01*
X169023243Y-128532458D01*
X169533387Y-128023204D01*
X169809814Y-127357492D01*
X169809816Y-127354330D01*
X170183957Y-127354330D01*
X170459222Y-128020523D01*
X170968476Y-128530667D01*
X171634188Y-128807094D01*
X172355010Y-128807723D01*
X173021203Y-128532458D01*
X173531347Y-128023204D01*
X173807774Y-127357492D01*
X173808403Y-126636670D01*
X173533138Y-125970477D01*
X173023884Y-125460333D01*
X172358172Y-125183906D01*
X171637350Y-125183277D01*
X170971157Y-125458542D01*
X170461013Y-125967796D01*
X170184586Y-126633508D01*
X170183957Y-127354330D01*
X169809816Y-127354330D01*
X169810443Y-126636670D01*
X169535178Y-125970477D01*
X169025924Y-125460333D01*
X168675235Y-125314715D01*
X169314136Y-124675814D01*
X169635208Y-124809134D01*
X170356030Y-124809763D01*
X171022223Y-124534498D01*
X171532367Y-124025244D01*
X171808794Y-123359532D01*
X171809423Y-122638710D01*
X171534158Y-121972517D01*
X171024904Y-121462373D01*
X170359192Y-121185946D01*
X169638370Y-121185317D01*
X168972177Y-121460582D01*
X168462033Y-121969836D01*
X168185606Y-122635548D01*
X168184977Y-123356370D01*
X168322017Y-123688033D01*
X167710050Y-124300000D01*
X167259171Y-124300000D01*
X167534407Y-124025244D01*
X167810834Y-123359532D01*
X167811463Y-122638710D01*
X167536198Y-121972517D01*
X167026944Y-121462373D01*
X166361232Y-121185946D01*
X165640410Y-121185317D01*
X164974217Y-121460582D01*
X164464073Y-121969836D01*
X164326977Y-122300000D01*
X145272904Y-122300000D01*
X145210475Y-122237462D01*
X144879806Y-122100157D01*
X144521764Y-122099844D01*
X144190857Y-122236572D01*
X143937462Y-122489525D01*
X143800157Y-122820194D01*
X143799844Y-123178236D01*
X136150000Y-123178236D01*
X136150000Y-120460675D01*
X136135625Y-120388407D01*
X136139188Y-120379826D01*
X136139501Y-120021784D01*
X136002773Y-119690877D01*
X135749820Y-119437482D01*
X135419151Y-119300177D01*
X135061109Y-119299864D01*
X134730202Y-119436592D01*
X134476807Y-119689545D01*
X134339502Y-120020214D01*
X134339189Y-120378256D01*
X118550000Y-120378256D01*
X118550000Y-117687670D01*
X162178555Y-117687670D01*
X162178555Y-120311490D01*
X162217361Y-120506580D01*
X162327870Y-120671970D01*
X162493260Y-120782479D01*
X162688350Y-120821285D01*
X165312170Y-120821285D01*
X165507260Y-120782479D01*
X165672650Y-120671970D01*
X165783159Y-120506580D01*
X165821965Y-120311490D01*
X165821965Y-120221036D01*
X166783835Y-120221036D01*
X166916390Y-120497096D01*
X167571815Y-120797103D01*
X168292156Y-120823453D01*
X168967747Y-120572135D01*
X169080050Y-120497096D01*
X169212605Y-120221036D01*
X167998220Y-119006651D01*
X166783835Y-120221036D01*
X165821965Y-120221036D01*
X165821965Y-119293516D01*
X166174347Y-119293516D01*
X166425665Y-119969107D01*
X166500704Y-120081410D01*
X166776764Y-120213965D01*
X167991149Y-118999580D01*
X168005291Y-118999580D01*
X169219676Y-120213965D01*
X169495736Y-120081410D01*
X169795743Y-119425985D01*
X169798214Y-119358410D01*
X170183957Y-119358410D01*
X170459222Y-120024603D01*
X170968476Y-120534747D01*
X171634188Y-120811174D01*
X172355010Y-120811803D01*
X173021203Y-120536538D01*
X173531347Y-120027284D01*
X173807774Y-119361572D01*
X173808403Y-118640750D01*
X173533138Y-117974557D01*
X173023884Y-117464413D01*
X172358172Y-117187986D01*
X171637350Y-117187357D01*
X170971157Y-117462622D01*
X170461013Y-117971876D01*
X170184586Y-118637588D01*
X170183957Y-119358410D01*
X169798214Y-119358410D01*
X169822093Y-118705644D01*
X169570775Y-118030053D01*
X169495736Y-117917750D01*
X169219676Y-117785195D01*
X168005291Y-118999580D01*
X167991149Y-118999580D01*
X166776764Y-117785195D01*
X166500704Y-117917750D01*
X166200697Y-118573175D01*
X166174347Y-119293516D01*
X165821965Y-119293516D01*
X165821965Y-117778124D01*
X166783835Y-117778124D01*
X167998220Y-118992509D01*
X169212605Y-117778124D01*
X169080050Y-117502064D01*
X168424625Y-117202057D01*
X167704284Y-117175707D01*
X167028693Y-117427025D01*
X166916390Y-117502064D01*
X166783835Y-117778124D01*
X165821965Y-117778124D01*
X165821965Y-117687670D01*
X165783159Y-117492580D01*
X165672650Y-117327190D01*
X165507260Y-117216681D01*
X165312170Y-117177875D01*
X162688350Y-117177875D01*
X162493260Y-117216681D01*
X162327870Y-117327190D01*
X162217361Y-117492580D01*
X162178555Y-117687670D01*
X118550000Y-117687670D01*
X118550000Y-112596054D01*
X152299783Y-112596054D01*
X152603604Y-113331356D01*
X153165685Y-113894419D01*
X153900456Y-114199522D01*
X154696054Y-114200217D01*
X155431356Y-113896396D01*
X155994419Y-113334315D01*
X156299522Y-112599544D01*
X156299525Y-112596054D01*
X179696223Y-112596054D01*
X180000044Y-113331356D01*
X180562125Y-113894419D01*
X181296896Y-114199522D01*
X182092494Y-114200217D01*
X182827796Y-113896396D01*
X183390859Y-113334315D01*
X183695962Y-112599544D01*
X183696657Y-111803946D01*
X183392836Y-111068644D01*
X182830755Y-110505581D01*
X182095984Y-110200478D01*
X181300386Y-110199783D01*
X180565084Y-110503604D01*
X180002021Y-111065685D01*
X179696918Y-111800456D01*
X179696223Y-112596054D01*
X156299525Y-112596054D01*
X156300217Y-111803946D01*
X155996396Y-111068644D01*
X155434315Y-110505581D01*
X154699544Y-110200478D01*
X153903946Y-110199783D01*
X153168644Y-110503604D01*
X152605581Y-111065685D01*
X152300478Y-111800456D01*
X152299783Y-112596054D01*
X118550000Y-112596054D01*
X118550000Y-109122944D01*
X118589525Y-109162538D01*
X118755584Y-109231491D01*
X118755585Y-109231492D01*
X118755586Y-109231492D01*
X118920194Y-109299843D01*
X119278236Y-109300156D01*
X119609143Y-109163428D01*
X119862538Y-108910475D01*
X119999843Y-108579806D01*
X120000156Y-108221764D01*
X120000000Y-108221386D01*
X120000000Y-107200213D01*
X120000156Y-107021764D01*
X120000000Y-107021386D01*
X120000000Y-73200033D01*
X124299967Y-73200033D01*
X124299967Y-82397067D01*
X124345639Y-82626677D01*
X124475703Y-82821331D01*
X129395563Y-87741191D01*
X129590217Y-87871255D01*
X129819827Y-87916927D01*
X136249112Y-87916927D01*
X136248164Y-87919210D01*
X136247851Y-88277252D01*
X136384579Y-88608159D01*
X136637532Y-88861554D01*
X136968201Y-88998859D01*
X137326243Y-88999172D01*
X137657150Y-88862444D01*
X137910545Y-88609491D01*
X137997533Y-88400000D01*
X142551472Y-88400000D01*
X143140817Y-88989345D01*
X143140586Y-89253915D01*
X143277314Y-89584822D01*
X143530267Y-89838217D01*
X143860936Y-89975522D01*
X144127227Y-89975755D01*
X144475736Y-90324264D01*
X144670390Y-90454328D01*
X144900000Y-90500000D01*
X146800000Y-90500000D01*
X147029610Y-90454328D01*
X147224264Y-90324264D01*
X147898528Y-89650000D01*
X149687271Y-89650000D01*
X149849525Y-89812538D01*
X150180194Y-89949843D01*
X150538236Y-89950156D01*
X150869143Y-89813428D01*
X151122538Y-89560475D01*
X151129536Y-89543621D01*
X151220390Y-89604328D01*
X151450000Y-89650000D01*
X151967271Y-89650000D01*
X152129525Y-89812538D01*
X152460194Y-89949843D01*
X152818236Y-89950156D01*
X153149143Y-89813428D01*
X153402538Y-89560475D01*
X153539843Y-89229806D01*
X153540156Y-88871764D01*
X153403428Y-88540857D01*
X153150475Y-88287462D01*
X152819806Y-88150157D01*
X152461764Y-88149844D01*
X152130857Y-88286572D01*
X151967143Y-88450000D01*
X151698528Y-88450000D01*
X151124264Y-87875736D01*
X150929610Y-87745672D01*
X150700000Y-87700000D01*
X147696421Y-87700000D01*
X147466811Y-87745672D01*
X147272157Y-87875736D01*
X146832983Y-88314910D01*
X146831217Y-88313141D01*
X146500548Y-88175836D01*
X146142506Y-88175523D01*
X145811599Y-88312251D01*
X145647885Y-88475679D01*
X145324207Y-88475679D01*
X143741191Y-86892663D01*
X143546537Y-86762599D01*
X143316927Y-86716927D01*
X138429690Y-86716927D01*
X138429822Y-86565408D01*
X138695230Y-86300000D01*
X156951472Y-86300000D01*
X158940742Y-88289270D01*
X158940742Y-88402950D01*
X158778204Y-88565204D01*
X158640899Y-88895873D01*
X158640586Y-89253915D01*
X158777314Y-89584822D01*
X159030267Y-89838217D01*
X159360936Y-89975522D01*
X159718978Y-89975835D01*
X160049885Y-89839107D01*
X160303280Y-89586154D01*
X160440585Y-89255485D01*
X160440682Y-89144147D01*
X160796478Y-89499943D01*
X160991132Y-89630007D01*
X161129993Y-89657628D01*
X161310267Y-89838217D01*
X161640936Y-89975522D01*
X161998978Y-89975835D01*
X162329885Y-89839107D01*
X162583280Y-89586154D01*
X162720585Y-89255485D01*
X162720898Y-88897443D01*
X162584170Y-88566536D01*
X162331217Y-88313141D01*
X162000548Y-88175836D01*
X161642506Y-88175523D01*
X161311599Y-88312251D01*
X161308718Y-88315127D01*
X158493644Y-85500053D01*
X163511525Y-85500053D01*
X167535736Y-89524264D01*
X167730390Y-89654328D01*
X167869251Y-89681949D01*
X168049525Y-89862538D01*
X168380194Y-89999843D01*
X168738236Y-90000156D01*
X169069143Y-89863428D01*
X169322538Y-89610475D01*
X169459843Y-89279806D01*
X169460156Y-88921764D01*
X169323428Y-88590857D01*
X169070475Y-88337462D01*
X168739806Y-88200157D01*
X168381764Y-88199844D01*
X168050857Y-88336572D01*
X168047976Y-88339448D01*
X164808570Y-85100042D01*
X166717214Y-85100042D01*
X169763984Y-88146812D01*
X169815736Y-88224264D01*
X170129275Y-88537803D01*
X170077462Y-88589525D01*
X169940157Y-88920194D01*
X169939844Y-89278236D01*
X170076572Y-89609143D01*
X170329525Y-89862538D01*
X170660194Y-89999843D01*
X171018236Y-90000156D01*
X171349143Y-89863428D01*
X171602538Y-89610475D01*
X171739843Y-89279806D01*
X171740156Y-88921764D01*
X171603428Y-88590857D01*
X171440000Y-88427143D01*
X171440000Y-88400000D01*
X171394328Y-88170390D01*
X171264264Y-87975736D01*
X170716016Y-87427488D01*
X170664264Y-87350036D01*
X169114259Y-85800031D01*
X172895198Y-85800031D01*
X176627309Y-89532142D01*
X176821963Y-89662206D01*
X176960824Y-89689827D01*
X177141098Y-89870416D01*
X177471767Y-90007721D01*
X177829809Y-90008034D01*
X178160716Y-89871306D01*
X178414111Y-89618353D01*
X178551416Y-89287684D01*
X178551729Y-88929642D01*
X178415001Y-88598735D01*
X178162048Y-88345340D01*
X177831379Y-88208035D01*
X177473337Y-88207722D01*
X177142430Y-88344450D01*
X177139549Y-88347326D01*
X174192243Y-85400020D01*
X176017192Y-85400020D01*
X178849314Y-88232142D01*
X179024093Y-88348926D01*
X179220848Y-88545681D01*
X179169035Y-88597403D01*
X179031730Y-88928072D01*
X179031417Y-89286114D01*
X179168145Y-89617021D01*
X179421098Y-89870416D01*
X179751767Y-90007721D01*
X180109809Y-90008034D01*
X180440716Y-89871306D01*
X180694111Y-89618353D01*
X180831416Y-89287684D01*
X180831729Y-88929642D01*
X180695001Y-88598735D01*
X180531573Y-88435021D01*
X180531573Y-88407878D01*
X180485901Y-88178268D01*
X180355837Y-87983614D01*
X179755837Y-87383614D01*
X179581058Y-87266830D01*
X176689984Y-84375756D01*
X176495330Y-84245692D01*
X176265720Y-84200020D01*
X168645648Y-84200020D01*
X167721384Y-83275756D01*
X167526730Y-83145692D01*
X167297120Y-83100020D01*
X158028822Y-83100020D01*
X158028445Y-83099945D01*
X138084585Y-83099945D01*
X138584530Y-82600000D01*
X177951472Y-82600000D01*
X185675736Y-90324264D01*
X185870390Y-90454328D01*
X186100000Y-90500000D01*
X187000000Y-90500000D01*
X187229610Y-90454328D01*
X187424264Y-90324264D01*
X188040650Y-89707878D01*
X188328844Y-89707878D01*
X188491098Y-89870416D01*
X188821767Y-90007721D01*
X189179809Y-90008034D01*
X189510716Y-89871306D01*
X189764111Y-89618353D01*
X189901416Y-89287684D01*
X189901729Y-88929642D01*
X189765001Y-88598735D01*
X189512048Y-88345340D01*
X189181379Y-88208035D01*
X188823337Y-88207722D01*
X188492430Y-88344450D01*
X188328716Y-88507878D01*
X187792122Y-88507878D01*
X187562512Y-88553550D01*
X187487140Y-88603912D01*
X187485001Y-88598735D01*
X187232048Y-88345340D01*
X186901379Y-88208035D01*
X186543337Y-88207722D01*
X186212430Y-88344450D01*
X186102608Y-88454080D01*
X178824253Y-81175725D01*
X178629599Y-81045661D01*
X178399989Y-80999989D01*
X138678616Y-80999989D01*
X139009143Y-80863418D01*
X139172857Y-80699990D01*
X139465695Y-80699990D01*
X139695305Y-80654318D01*
X139889959Y-80524254D01*
X140814213Y-79600000D01*
X192387476Y-79600000D01*
X194900000Y-82112524D01*
X194900000Y-96527271D01*
X194737462Y-96689525D01*
X194600157Y-97020194D01*
X194599844Y-97378236D01*
X194736572Y-97709143D01*
X194989525Y-97962538D01*
X195047313Y-97986534D01*
X195047063Y-98272674D01*
X195183791Y-98603581D01*
X195436744Y-98856976D01*
X195767413Y-98994281D01*
X196125455Y-98994594D01*
X196456362Y-98857866D01*
X196589998Y-98724463D01*
X196789525Y-98924338D01*
X197120194Y-99061643D01*
X197478236Y-99061956D01*
X197809143Y-98925228D01*
X198062538Y-98672275D01*
X198199843Y-98341606D01*
X198200156Y-97983564D01*
X198063428Y-97652657D01*
X197900000Y-97488943D01*
X197900000Y-87382828D01*
X199400033Y-88882861D01*
X199400033Y-96532239D01*
X198775736Y-97156536D01*
X198645672Y-97351190D01*
X198622767Y-97466344D01*
X198437462Y-97651325D01*
X198300157Y-97981994D01*
X198299844Y-98340036D01*
X198436572Y-98670943D01*
X198689525Y-98924338D01*
X199020194Y-99061643D01*
X199378236Y-99061956D01*
X199709143Y-98925228D01*
X199962538Y-98672275D01*
X200099843Y-98341606D01*
X200100156Y-97983564D01*
X199967300Y-97662028D01*
X200424297Y-97205031D01*
X200554361Y-97010377D01*
X200600033Y-96780767D01*
X200600033Y-88634333D01*
X200554361Y-88404723D01*
X200424297Y-88210069D01*
X197300033Y-85085805D01*
X197300033Y-81366929D01*
X197254361Y-81137319D01*
X197124297Y-80942665D01*
X193557335Y-77375703D01*
X193362681Y-77245639D01*
X193133071Y-77199967D01*
X138842043Y-77199967D01*
X138612433Y-77245639D01*
X138417779Y-77375703D01*
X138353206Y-77440276D01*
X138123543Y-77440075D01*
X137792636Y-77576803D01*
X137539241Y-77829756D01*
X137401936Y-78160425D01*
X137401623Y-78518467D01*
X137535370Y-78842160D01*
X137387954Y-78842031D01*
X137057047Y-78978759D01*
X136803652Y-79231712D01*
X136666347Y-79562381D01*
X136666034Y-79920423D01*
X136802762Y-80251330D01*
X137055715Y-80504725D01*
X137386384Y-80642030D01*
X137744426Y-80642343D01*
X137762337Y-80634943D01*
X137989525Y-80862528D01*
X138320194Y-80999833D01*
X138498643Y-80999989D01*
X137700011Y-80999989D01*
X137470401Y-81045661D01*
X137275747Y-81175725D01*
X136551427Y-81900045D01*
X136321764Y-81899844D01*
X135990857Y-82036572D01*
X135737462Y-82289525D01*
X135600157Y-82620194D01*
X135599944Y-82863930D01*
X135395707Y-82863751D01*
X135064800Y-83000479D01*
X134811405Y-83253432D01*
X134674100Y-83584101D01*
X134673855Y-83863909D01*
X128912437Y-83863909D01*
X126700000Y-81651472D01*
X126700000Y-74448528D01*
X128454974Y-72693554D01*
X140798643Y-72693554D01*
X141102464Y-73428856D01*
X141664545Y-73991919D01*
X142399316Y-74297022D01*
X143194914Y-74297717D01*
X143930216Y-73993896D01*
X144493279Y-73431815D01*
X144798382Y-72697044D01*
X144798385Y-72693554D01*
X191197323Y-72693554D01*
X191501144Y-73428856D01*
X192063225Y-73991919D01*
X192797996Y-74297022D01*
X193593594Y-74297717D01*
X194328896Y-73993896D01*
X194891959Y-73431815D01*
X195197062Y-72697044D01*
X195197757Y-71901446D01*
X194893936Y-71166144D01*
X194331855Y-70603081D01*
X193597084Y-70297978D01*
X192801486Y-70297283D01*
X192066184Y-70601104D01*
X191503121Y-71163185D01*
X191198018Y-71897956D01*
X191197323Y-72693554D01*
X144798385Y-72693554D01*
X144799077Y-71901446D01*
X144495256Y-71166144D01*
X143933175Y-70603081D01*
X143198404Y-70297978D01*
X142402806Y-70297283D01*
X141667504Y-70601104D01*
X141104441Y-71163185D01*
X140799338Y-71897956D01*
X140798643Y-72693554D01*
X128454974Y-72693554D01*
X128848573Y-72299955D01*
X129078236Y-72300156D01*
X129409143Y-72163428D01*
X129662538Y-71910475D01*
X129799843Y-71579806D01*
X129800156Y-71221764D01*
X129663428Y-70890857D01*
X129410475Y-70637462D01*
X129079806Y-70500157D01*
X128721764Y-70499844D01*
X128390857Y-70636572D01*
X128137462Y-70889525D01*
X128046552Y-71108462D01*
X127998073Y-71059899D01*
X127667404Y-70922594D01*
X127309362Y-70922281D01*
X126978455Y-71059009D01*
X126725060Y-71311962D01*
X126722586Y-71317921D01*
X126679806Y-71300157D01*
X126321764Y-71299844D01*
X125990857Y-71436572D01*
X125737462Y-71689525D01*
X125624971Y-71960435D01*
X125479806Y-71900157D01*
X125121764Y-71899844D01*
X124790857Y-72036572D01*
X124537462Y-72289525D01*
X124400157Y-72620194D01*
X124399922Y-72889183D01*
X124345639Y-72970423D01*
X124299967Y-73200033D01*
X120000000Y-73200033D01*
X120000000Y-69900000D01*
X120178236Y-69900156D01*
X120509143Y-69763428D01*
X120762538Y-69510475D01*
X120899843Y-69179806D01*
X120900156Y-68821764D01*
X120763428Y-68490857D01*
X120510475Y-68237462D01*
X120179806Y-68100157D01*
X120000000Y-68100000D01*
X120000000Y-66600000D01*
X120178236Y-66600156D01*
X120509143Y-66463428D01*
X120572682Y-66400000D01*
X129810050Y-66400000D01*
X130900000Y-67489950D01*
X130900000Y-69027096D01*
X130837462Y-69089525D01*
X130700157Y-69420194D01*
X130699844Y-69778236D01*
X130836572Y-70109143D01*
X131089525Y-70362538D01*
X131420194Y-70499843D01*
X131778236Y-70500156D01*
X132109143Y-70363428D01*
X132362538Y-70110475D01*
X132499843Y-69779806D01*
X132500156Y-69421764D01*
X132472293Y-69354330D01*
X152188037Y-69354330D01*
X152463302Y-70020523D01*
X152972556Y-70530667D01*
X153638268Y-70807094D01*
X154359090Y-70807723D01*
X155025283Y-70532458D01*
X155535427Y-70023204D01*
X155811854Y-69357492D01*
X155811856Y-69354330D01*
X156185997Y-69354330D01*
X156461262Y-70020523D01*
X156970516Y-70530667D01*
X157636228Y-70807094D01*
X158357050Y-70807723D01*
X159023243Y-70532458D01*
X159533387Y-70023204D01*
X159809814Y-69357492D01*
X159809816Y-69354330D01*
X160186497Y-69354330D01*
X160461762Y-70020523D01*
X160971016Y-70530667D01*
X161636728Y-70807094D01*
X162357550Y-70807723D01*
X163023743Y-70532458D01*
X163533887Y-70023204D01*
X163810314Y-69357492D01*
X163810316Y-69354330D01*
X164186997Y-69354330D01*
X164462262Y-70020523D01*
X164971516Y-70530667D01*
X165637228Y-70807094D01*
X166358050Y-70807723D01*
X167024243Y-70532458D01*
X167534387Y-70023204D01*
X167810814Y-69357492D01*
X167810816Y-69354330D01*
X168184957Y-69354330D01*
X168460222Y-70020523D01*
X168969476Y-70530667D01*
X169635188Y-70807094D01*
X170356010Y-70807723D01*
X171022203Y-70532458D01*
X171532347Y-70023204D01*
X171808774Y-69357492D01*
X171808776Y-69354330D01*
X172185457Y-69354330D01*
X172460722Y-70020523D01*
X172969976Y-70530667D01*
X173635688Y-70807094D01*
X174356510Y-70807723D01*
X175022703Y-70532458D01*
X175532847Y-70023204D01*
X175809274Y-69357492D01*
X175809276Y-69354330D01*
X176185957Y-69354330D01*
X176461222Y-70020523D01*
X176970476Y-70530667D01*
X177636188Y-70807094D01*
X178357010Y-70807723D01*
X179023203Y-70532458D01*
X179533347Y-70023204D01*
X179809774Y-69357492D01*
X179809776Y-69354330D01*
X180183917Y-69354330D01*
X180459182Y-70020523D01*
X180968436Y-70530667D01*
X181634148Y-70807094D01*
X182354970Y-70807723D01*
X183021163Y-70532458D01*
X183531307Y-70023204D01*
X183807734Y-69357492D01*
X183808363Y-68636670D01*
X183533098Y-67970477D01*
X183023844Y-67460333D01*
X182358132Y-67183906D01*
X181637310Y-67183277D01*
X180971117Y-67458542D01*
X180460973Y-67967796D01*
X180184546Y-68633508D01*
X180183917Y-69354330D01*
X179809776Y-69354330D01*
X179810403Y-68636670D01*
X179535138Y-67970477D01*
X179025884Y-67460333D01*
X178360172Y-67183906D01*
X177639350Y-67183277D01*
X176973157Y-67458542D01*
X176463013Y-67967796D01*
X176186586Y-68633508D01*
X176185957Y-69354330D01*
X175809276Y-69354330D01*
X175809903Y-68636670D01*
X175534638Y-67970477D01*
X175025384Y-67460333D01*
X174359672Y-67183906D01*
X173638850Y-67183277D01*
X172972657Y-67458542D01*
X172462513Y-67967796D01*
X172186086Y-68633508D01*
X172185457Y-69354330D01*
X171808776Y-69354330D01*
X171809403Y-68636670D01*
X171534138Y-67970477D01*
X171024884Y-67460333D01*
X170359172Y-67183906D01*
X169638350Y-67183277D01*
X168972157Y-67458542D01*
X168462013Y-67967796D01*
X168185586Y-68633508D01*
X168184957Y-69354330D01*
X167810816Y-69354330D01*
X167811443Y-68636670D01*
X167536178Y-67970477D01*
X167026924Y-67460333D01*
X166361212Y-67183906D01*
X165640390Y-67183277D01*
X164974197Y-67458542D01*
X164464053Y-67967796D01*
X164187626Y-68633508D01*
X164186997Y-69354330D01*
X163810316Y-69354330D01*
X163810943Y-68636670D01*
X163535678Y-67970477D01*
X163026424Y-67460333D01*
X162360712Y-67183906D01*
X161639890Y-67183277D01*
X160973697Y-67458542D01*
X160463553Y-67967796D01*
X160187126Y-68633508D01*
X160186497Y-69354330D01*
X159809816Y-69354330D01*
X159810443Y-68636670D01*
X159535178Y-67970477D01*
X159025924Y-67460333D01*
X158360212Y-67183906D01*
X157639390Y-67183277D01*
X156973197Y-67458542D01*
X156463053Y-67967796D01*
X156186626Y-68633508D01*
X156185997Y-69354330D01*
X155811856Y-69354330D01*
X155812483Y-68636670D01*
X155537218Y-67970477D01*
X155027964Y-67460333D01*
X154362252Y-67183906D01*
X153641430Y-67183277D01*
X152975237Y-67458542D01*
X152465093Y-67967796D01*
X152188666Y-68633508D01*
X152188037Y-69354330D01*
X132472293Y-69354330D01*
X132363428Y-69090857D01*
X132300000Y-69027318D01*
X132300000Y-67200000D01*
X132246716Y-66932122D01*
X132246716Y-66932121D01*
X132094975Y-66705025D01*
X131090029Y-65700079D01*
X131178236Y-65700156D01*
X131509143Y-65563428D01*
X131716562Y-65356370D01*
X154187017Y-65356370D01*
X154462282Y-66022563D01*
X154971536Y-66532707D01*
X155637248Y-66809134D01*
X156358070Y-66809763D01*
X157024263Y-66534498D01*
X157534407Y-66025244D01*
X157810834Y-65359532D01*
X157810836Y-65356370D01*
X158187517Y-65356370D01*
X158462782Y-66022563D01*
X158972036Y-66532707D01*
X159637748Y-66809134D01*
X160358570Y-66809763D01*
X161024763Y-66534498D01*
X161534907Y-66025244D01*
X161811334Y-65359532D01*
X161811336Y-65356370D01*
X162188017Y-65356370D01*
X162463282Y-66022563D01*
X162972536Y-66532707D01*
X163638248Y-66809134D01*
X164359070Y-66809763D01*
X165025263Y-66534498D01*
X165535407Y-66025244D01*
X165811834Y-65359532D01*
X165811836Y-65356370D01*
X166185977Y-65356370D01*
X166461242Y-66022563D01*
X166970496Y-66532707D01*
X167636208Y-66809134D01*
X168357030Y-66809763D01*
X169023223Y-66534498D01*
X169533367Y-66025244D01*
X169809794Y-65359532D01*
X169809796Y-65356370D01*
X170183937Y-65356370D01*
X170459202Y-66022563D01*
X170968456Y-66532707D01*
X171634168Y-66809134D01*
X172354990Y-66809763D01*
X173021183Y-66534498D01*
X173531327Y-66025244D01*
X173807754Y-65359532D01*
X173807756Y-65356370D01*
X174184437Y-65356370D01*
X174459702Y-66022563D01*
X174968956Y-66532707D01*
X175634668Y-66809134D01*
X176355490Y-66809763D01*
X177021683Y-66534498D01*
X177531827Y-66025244D01*
X177808254Y-65359532D01*
X177808256Y-65356370D01*
X178184937Y-65356370D01*
X178460202Y-66022563D01*
X178969456Y-66532707D01*
X179635168Y-66809134D01*
X180355990Y-66809763D01*
X181022183Y-66534498D01*
X181532327Y-66025244D01*
X181808754Y-65359532D01*
X181809383Y-64638710D01*
X181534118Y-63972517D01*
X181024864Y-63462373D01*
X180359152Y-63185946D01*
X179638330Y-63185317D01*
X178972137Y-63460582D01*
X178461993Y-63969836D01*
X178185566Y-64635548D01*
X178184937Y-65356370D01*
X177808256Y-65356370D01*
X177808883Y-64638710D01*
X177533618Y-63972517D01*
X177024364Y-63462373D01*
X176358652Y-63185946D01*
X175637830Y-63185317D01*
X174971637Y-63460582D01*
X174461493Y-63969836D01*
X174185066Y-64635548D01*
X174184437Y-65356370D01*
X173807756Y-65356370D01*
X173808383Y-64638710D01*
X173533118Y-63972517D01*
X173023864Y-63462373D01*
X172358152Y-63185946D01*
X171637330Y-63185317D01*
X170971137Y-63460582D01*
X170460993Y-63969836D01*
X170184566Y-64635548D01*
X170183937Y-65356370D01*
X169809796Y-65356370D01*
X169810423Y-64638710D01*
X169535158Y-63972517D01*
X169025904Y-63462373D01*
X168360192Y-63185946D01*
X167639370Y-63185317D01*
X166973177Y-63460582D01*
X166463033Y-63969836D01*
X166186606Y-64635548D01*
X166185977Y-65356370D01*
X165811836Y-65356370D01*
X165812463Y-64638710D01*
X165537198Y-63972517D01*
X165027944Y-63462373D01*
X164362232Y-63185946D01*
X163641410Y-63185317D01*
X162975217Y-63460582D01*
X162465073Y-63969836D01*
X162188646Y-64635548D01*
X162188017Y-65356370D01*
X161811336Y-65356370D01*
X161811963Y-64638710D01*
X161536698Y-63972517D01*
X161027444Y-63462373D01*
X160361732Y-63185946D01*
X159640910Y-63185317D01*
X158974717Y-63460582D01*
X158464573Y-63969836D01*
X158188146Y-64635548D01*
X158187517Y-65356370D01*
X157810836Y-65356370D01*
X157811463Y-64638710D01*
X157536198Y-63972517D01*
X157026944Y-63462373D01*
X156361232Y-63185946D01*
X155640410Y-63185317D01*
X154974217Y-63460582D01*
X154464073Y-63969836D01*
X154187646Y-64635548D01*
X154187017Y-65356370D01*
X131716562Y-65356370D01*
X131762538Y-65310475D01*
X131899843Y-64979806D01*
X131900156Y-64621764D01*
X131763428Y-64290857D01*
X131510475Y-64037462D01*
X131179806Y-63900157D01*
X130821764Y-63899844D01*
X130490857Y-64036572D01*
X130237462Y-64289525D01*
X130100157Y-64620194D01*
X130100079Y-64709971D01*
X129810050Y-65000000D01*
X120572904Y-65000000D01*
X120510475Y-64937462D01*
X120179806Y-64800157D01*
X120000000Y-64800000D01*
X120000000Y-58478236D01*
X148099844Y-58478236D01*
X148236572Y-58809143D01*
X148489525Y-59062538D01*
X148820194Y-59199843D01*
X149178236Y-59200156D01*
X149299956Y-59149862D01*
X149299844Y-59278236D01*
X149436572Y-59609143D01*
X149689525Y-59862538D01*
X150000095Y-59991497D01*
X149999844Y-60278236D01*
X150136572Y-60609143D01*
X150389525Y-60862538D01*
X150720194Y-60999843D01*
X151078236Y-61000156D01*
X151409143Y-60863428D01*
X151662538Y-60610475D01*
X151799843Y-60279806D01*
X151800045Y-60048483D01*
X152148528Y-59700000D01*
X152178555Y-59700000D01*
X152178555Y-62311490D01*
X152217361Y-62506580D01*
X152327870Y-62671970D01*
X152493260Y-62782479D01*
X152688350Y-62821285D01*
X155312170Y-62821285D01*
X155507260Y-62782479D01*
X155672650Y-62671970D01*
X155783159Y-62506580D01*
X155821965Y-62311490D01*
X155821965Y-59700000D01*
X156735404Y-59700000D01*
X156463053Y-59971876D01*
X156186626Y-60637588D01*
X156185997Y-61358410D01*
X156461262Y-62024603D01*
X156970516Y-62534747D01*
X157636228Y-62811174D01*
X158357050Y-62811803D01*
X159023243Y-62536538D01*
X159533387Y-62027284D01*
X159809814Y-61361572D01*
X159810443Y-60640750D01*
X159535178Y-59974557D01*
X159261100Y-59700000D01*
X160735904Y-59700000D01*
X160463553Y-59971876D01*
X160187126Y-60637588D01*
X160186497Y-61358410D01*
X160461762Y-62024603D01*
X160971016Y-62534747D01*
X161636728Y-62811174D01*
X162357550Y-62811803D01*
X163023743Y-62536538D01*
X163533887Y-62027284D01*
X163810314Y-61361572D01*
X163810943Y-60640750D01*
X163535678Y-59974557D01*
X163261600Y-59700000D01*
X164736404Y-59700000D01*
X164464053Y-59971876D01*
X164187626Y-60637588D01*
X164186997Y-61358410D01*
X164462262Y-62024603D01*
X164971516Y-62534747D01*
X165637228Y-62811174D01*
X166358050Y-62811803D01*
X167024243Y-62536538D01*
X167534387Y-62027284D01*
X167810814Y-61361572D01*
X167811443Y-60640750D01*
X167536178Y-59974557D01*
X167262100Y-59700000D01*
X168734364Y-59700000D01*
X168462013Y-59971876D01*
X168185586Y-60637588D01*
X168184957Y-61358410D01*
X168460222Y-62024603D01*
X168969476Y-62534747D01*
X169635188Y-62811174D01*
X170356010Y-62811803D01*
X171022203Y-62536538D01*
X171532347Y-62027284D01*
X171808774Y-61361572D01*
X171808776Y-61358410D01*
X172185457Y-61358410D01*
X172460722Y-62024603D01*
X172969976Y-62534747D01*
X173635688Y-62811174D01*
X174356510Y-62811803D01*
X175022703Y-62536538D01*
X175532847Y-62027284D01*
X175809274Y-61361572D01*
X175809276Y-61358410D01*
X176185957Y-61358410D01*
X176461222Y-62024603D01*
X176970476Y-62534747D01*
X177636188Y-62811174D01*
X178357010Y-62811803D01*
X179023203Y-62536538D01*
X179533347Y-62027284D01*
X179809774Y-61361572D01*
X179809776Y-61358410D01*
X180183917Y-61358410D01*
X180459182Y-62024603D01*
X180968436Y-62534747D01*
X181634148Y-62811174D01*
X182354970Y-62811803D01*
X183021163Y-62536538D01*
X183531307Y-62027284D01*
X183807734Y-61361572D01*
X183808363Y-60640750D01*
X183533098Y-59974557D01*
X183023844Y-59464413D01*
X182358132Y-59187986D01*
X181637310Y-59187357D01*
X180971117Y-59462622D01*
X180460973Y-59971876D01*
X180184546Y-60637588D01*
X180183917Y-61358410D01*
X179809776Y-61358410D01*
X179810403Y-60640750D01*
X179535138Y-59974557D01*
X179025884Y-59464413D01*
X178360172Y-59187986D01*
X177639350Y-59187357D01*
X176973157Y-59462622D01*
X176463013Y-59971876D01*
X176186586Y-60637588D01*
X176185957Y-61358410D01*
X175809276Y-61358410D01*
X175809903Y-60640750D01*
X175534638Y-59974557D01*
X175025384Y-59464413D01*
X174359672Y-59187986D01*
X173638850Y-59187357D01*
X172972657Y-59462622D01*
X172462513Y-59971876D01*
X172186086Y-60637588D01*
X172185457Y-61358410D01*
X171808776Y-61358410D01*
X171809403Y-60640750D01*
X171534138Y-59974557D01*
X171260060Y-59700000D01*
X172361800Y-59700000D01*
X172591410Y-59654328D01*
X172786064Y-59524264D01*
X173110373Y-59199955D01*
X173340036Y-59200156D01*
X173670943Y-59063428D01*
X173924338Y-58810475D01*
X174061643Y-58479806D01*
X174061956Y-58121764D01*
X173925228Y-57790857D01*
X173672275Y-57537462D01*
X173341606Y-57400157D01*
X172983564Y-57399844D01*
X172652657Y-57536572D01*
X172399262Y-57789525D01*
X172261957Y-58120194D01*
X172261755Y-58351517D01*
X172113272Y-58500000D01*
X170053258Y-58500000D01*
X170061643Y-58479806D01*
X170061956Y-58121764D01*
X169925228Y-57790857D01*
X169672275Y-57537462D01*
X169341606Y-57400157D01*
X168983564Y-57399844D01*
X168652657Y-57536572D01*
X168399262Y-57789525D01*
X168270347Y-58099989D01*
X167248539Y-58099989D01*
X170752474Y-54596054D01*
X189696183Y-54596054D01*
X190000004Y-55331356D01*
X190562085Y-55894419D01*
X191296856Y-56199522D01*
X192092454Y-56200217D01*
X192827756Y-55896396D01*
X193390819Y-55334315D01*
X193695922Y-54599544D01*
X193696617Y-53803946D01*
X193392796Y-53068644D01*
X192830715Y-52505581D01*
X192095944Y-52200478D01*
X191300346Y-52199783D01*
X190565044Y-52503604D01*
X190001981Y-53065685D01*
X189696878Y-53800456D01*
X189696183Y-54596054D01*
X170752474Y-54596054D01*
X172948528Y-52400000D01*
X176527269Y-52400000D01*
X176689523Y-52562538D01*
X177020192Y-52699843D01*
X177378234Y-52700156D01*
X177709141Y-52563428D01*
X177962536Y-52310475D01*
X178099841Y-51979806D01*
X178100154Y-51621764D01*
X177963426Y-51290857D01*
X177710473Y-51037462D01*
X177379804Y-50900157D01*
X177021762Y-50899844D01*
X176690855Y-51036572D01*
X176527141Y-51200000D01*
X172700000Y-51200000D01*
X172470390Y-51245672D01*
X172275736Y-51375736D01*
X165951494Y-57699978D01*
X165048560Y-57699978D01*
X166548583Y-56199955D01*
X166778246Y-56200156D01*
X167109153Y-56063428D01*
X167362548Y-55810475D01*
X167499853Y-55479806D01*
X167500166Y-55121764D01*
X167363438Y-54790857D01*
X167110485Y-54537462D01*
X166779816Y-54400157D01*
X166421774Y-54399844D01*
X166090867Y-54536572D01*
X165837472Y-54789525D01*
X165700167Y-55120194D01*
X165699965Y-55351517D01*
X163851471Y-57200011D01*
X162248509Y-57200011D01*
X163348565Y-56099955D01*
X163578228Y-56100156D01*
X163909135Y-55963428D01*
X164162530Y-55710475D01*
X164299835Y-55379806D01*
X164300148Y-55021764D01*
X164163420Y-54690857D01*
X163910467Y-54437462D01*
X163579798Y-54300157D01*
X163221756Y-54299844D01*
X162890849Y-54436572D01*
X162637454Y-54689525D01*
X162500149Y-55020194D01*
X162499947Y-55251517D01*
X160951464Y-56800000D01*
X151282899Y-56800000D01*
X151283032Y-56647306D01*
X151146304Y-56316399D01*
X150893351Y-56063004D01*
X150671735Y-55970981D01*
X150842715Y-55800001D01*
X156108837Y-55800001D01*
X156236572Y-56109143D01*
X156489525Y-56362538D01*
X156820194Y-56499843D01*
X157178236Y-56500156D01*
X157509143Y-56363428D01*
X157762538Y-56110475D01*
X157899843Y-55779806D01*
X157900156Y-55421764D01*
X157763428Y-55090857D01*
X157510475Y-54837462D01*
X157179806Y-54700157D01*
X156910800Y-54699922D01*
X156829611Y-54645673D01*
X156600001Y-54600001D01*
X150594187Y-54600001D01*
X150364577Y-54645673D01*
X150169923Y-54775737D01*
X149727188Y-55218472D01*
X149497525Y-55218271D01*
X149166618Y-55354999D01*
X148913223Y-55607952D01*
X148775918Y-55938621D01*
X148775605Y-56296663D01*
X148912333Y-56627570D01*
X149165286Y-56880965D01*
X149202752Y-56896522D01*
X148999723Y-57099197D01*
X148874865Y-57399890D01*
X148821764Y-57399844D01*
X148490857Y-57536572D01*
X148237462Y-57789525D01*
X148100157Y-58120194D01*
X148099844Y-58478236D01*
X120000000Y-58478236D01*
X120000000Y-56872792D01*
X122276738Y-54596054D01*
X142299783Y-54596054D01*
X142603604Y-55331356D01*
X143165685Y-55894419D01*
X143900456Y-56199522D01*
X144696054Y-56200217D01*
X145431356Y-55896396D01*
X145994419Y-55334315D01*
X146299522Y-54599544D01*
X146300217Y-53803946D01*
X145996396Y-53068644D01*
X145434315Y-52505581D01*
X144699544Y-52200478D01*
X143903946Y-52199783D01*
X143168644Y-52503604D01*
X142605581Y-53065685D01*
X142300478Y-53800456D01*
X142299783Y-54596054D01*
X122276738Y-54596054D01*
X125972792Y-50900000D01*
X126899787Y-50900000D01*
X127078236Y-50900156D01*
X127078614Y-50900000D01*
X160099787Y-50900000D01*
X160278236Y-50900156D01*
X160278614Y-50900000D01*
X165699787Y-50900000D01*
X165878236Y-50900156D01*
X166209143Y-50763428D01*
X166462538Y-50510475D01*
X166599843Y-50179806D01*
X166600156Y-49821764D01*
X166487865Y-49550000D01*
X212548626Y-49550000D01*
X212841170Y-51020717D01*
M02*
