G04 #@! TF.GenerationSoftware,KiCad,Pcbnew,(5.0.0-rc2-dev-130-g0bdae22af-dirty)*
G04 #@! TF.CreationDate,2018-10-04T20:22:11+03:00*
G04 #@! TF.ProjectId,esb,6573622E6B696361645F706362000000,rev?*
G04 #@! TF.SameCoordinates,Original*
G04 #@! TF.FileFunction,Copper,L2,Bot,Signal*
G04 #@! TF.FilePolarity,Positive*
%FSLAX46Y46*%
G04 Gerber Fmt 4.6, Leading zero omitted, Abs format (unit mm)*
G04 Created by KiCad (PCBNEW (5.0.0-rc2-dev-130-g0bdae22af-dirty)) date Thu Oct  4 20:22:11 2018*
%MOMM*%
%LPD*%
G01*
G04 APERTURE LIST*
%ADD10R,0.939800X0.762000*%
%ADD11R,2.623820X2.623820*%
%ADD12C,2.623820*%
%ADD13C,2.999740*%
%ADD14R,0.630000X0.830000*%
%ADD15C,0.800000*%
%ADD16C,0.200000*%
%ADD17C,0.300000*%
%ADD18C,0.400000*%
G04 APERTURE END LIST*
D10*
X165150000Y-81938200D03*
X165150000Y-80261800D03*
X150350000Y-80161800D03*
X150350000Y-81838200D03*
D11*
X154000260Y-60999580D03*
D12*
X157998220Y-60999580D03*
X161998720Y-60999580D03*
X165999220Y-60999580D03*
X169997180Y-60999580D03*
X173997680Y-60999580D03*
X177998180Y-60999580D03*
X181996140Y-60999580D03*
X155999240Y-64997540D03*
X159999740Y-64997540D03*
X164000240Y-64997540D03*
X167998200Y-64997540D03*
X171996160Y-64997540D03*
X175996660Y-64997540D03*
X179997160Y-64997540D03*
X154000260Y-68995500D03*
X157998220Y-68995500D03*
X161998720Y-68995500D03*
X165999220Y-68995500D03*
X169997180Y-68995500D03*
X173997680Y-68995500D03*
X177998180Y-68995500D03*
X181996140Y-68995500D03*
D13*
X144300000Y-54200000D03*
X191696400Y-54200000D03*
X142798860Y-72297500D03*
X193197540Y-72297500D03*
D11*
X164000260Y-118999580D03*
D12*
X167998220Y-118999580D03*
X171996180Y-118999580D03*
X165999240Y-122997540D03*
X169997200Y-122997540D03*
X164000260Y-126995500D03*
X167998220Y-126995500D03*
X171996180Y-126995500D03*
D13*
X154300000Y-112200000D03*
X181696440Y-112200000D03*
X183197580Y-130297500D03*
X152798860Y-130297500D03*
D10*
X185000000Y-90038200D03*
X185000000Y-88361800D03*
X183300000Y-88361800D03*
X183300000Y-90038200D03*
X155900000Y-80173600D03*
X155900000Y-81850000D03*
X180000000Y-80261800D03*
X180000000Y-81938200D03*
X202450000Y-81838200D03*
X202450000Y-80161800D03*
X157550000Y-80161800D03*
X157550000Y-81838200D03*
X188400000Y-90038200D03*
X188400000Y-88361800D03*
X172449482Y-82138200D03*
X172449482Y-80461800D03*
X178300000Y-80261800D03*
X178300000Y-81938200D03*
X163400000Y-80261800D03*
X163400000Y-81938200D03*
X186700000Y-88361800D03*
X186700000Y-90038200D03*
X191800000Y-90038200D03*
X191800000Y-88361800D03*
X190100000Y-90038200D03*
X190100000Y-88361800D03*
X170800000Y-80461800D03*
X170800000Y-82138200D03*
X148650000Y-81838200D03*
X148650000Y-80161800D03*
X200800000Y-80161800D03*
X200800000Y-81838200D03*
X174100000Y-80461800D03*
X174100000Y-82138200D03*
X181700000Y-81938200D03*
X181700000Y-80261800D03*
X159200000Y-80161800D03*
X159200000Y-81838200D03*
X166900000Y-81938200D03*
X166900000Y-80261800D03*
X152100000Y-80161800D03*
X152100000Y-81838200D03*
X204100000Y-81838200D03*
X204100000Y-80161800D03*
D14*
X194915000Y-85500000D03*
X192685000Y-85500000D03*
X185985000Y-85500000D03*
X188215000Y-85500000D03*
X173115000Y-85500000D03*
X170885000Y-85500000D03*
X178385000Y-85500000D03*
X180615000Y-85500000D03*
X155785000Y-85500000D03*
X158015000Y-85500000D03*
X165815000Y-85500000D03*
X163585000Y-85500000D03*
X148385000Y-85500000D03*
X150615000Y-85500000D03*
X202815000Y-85500000D03*
X200585000Y-85500000D03*
D15*
X167208269Y-83820092D03*
X179650000Y-130400000D03*
X187800000Y-50400000D03*
X193250000Y-50450000D03*
X200300000Y-50300000D03*
X205700000Y-50550000D03*
X205850000Y-57550000D03*
X206000000Y-62800000D03*
X205900000Y-68100000D03*
X202200000Y-69650000D03*
X205900000Y-73350000D03*
X199400000Y-66600000D03*
X195400000Y-63050000D03*
X190950000Y-61650000D03*
X185250000Y-61650000D03*
X181350000Y-58350000D03*
X183550000Y-50050000D03*
X175750000Y-50250000D03*
X172150000Y-54000000D03*
X168350000Y-51050000D03*
X166600000Y-54950000D03*
X168100000Y-59450000D03*
X164600000Y-58750000D03*
X164200000Y-55300000D03*
X155600000Y-51000000D03*
X151900000Y-59050000D03*
X149050000Y-62800000D03*
X146300000Y-60450000D03*
X144550000Y-62150000D03*
X144550000Y-64750000D03*
X140350000Y-66200000D03*
X138150000Y-70500000D03*
X140100000Y-51100000D03*
X146100000Y-51150000D03*
X142200000Y-58550000D03*
X138500000Y-61650000D03*
X135350000Y-64650000D03*
X132100000Y-67750000D03*
X132050000Y-63000000D03*
X132250000Y-58400000D03*
X132300000Y-53450000D03*
X134250000Y-51050000D03*
X130650000Y-50450000D03*
X129950000Y-56100000D03*
X130050000Y-60900000D03*
X129950000Y-65850000D03*
X129850000Y-71200000D03*
X130050000Y-76200000D03*
X129950000Y-81650000D03*
X137450000Y-78000000D03*
X134450000Y-72350000D03*
X134450000Y-82900000D03*
X137600000Y-85600000D03*
X134425000Y-85925000D03*
X137625000Y-94000000D03*
X133125000Y-93950000D03*
X134300000Y-91000000D03*
X129950000Y-87200000D03*
X129950000Y-93650000D03*
X130000000Y-100325000D03*
X129900000Y-106900000D03*
X129900000Y-117050000D03*
X129900000Y-122650000D03*
X139425000Y-106550000D03*
X137075000Y-102025000D03*
X142125000Y-102100000D03*
X147075000Y-101975000D03*
X147525000Y-110950000D03*
X151750000Y-111075000D03*
X151575000Y-106475000D03*
X155825000Y-116975000D03*
X155700000Y-119425000D03*
X141175000Y-126625000D03*
X145450000Y-121625000D03*
X145450000Y-116775000D03*
X145450000Y-113000000D03*
X142625000Y-115525000D03*
X142175000Y-122625000D03*
X139150000Y-123350000D03*
X135600000Y-124175000D03*
X134175000Y-127925000D03*
X130000000Y-132150000D03*
X131725000Y-137775000D03*
X145725000Y-133450000D03*
X146975000Y-136450000D03*
X152700000Y-136175000D03*
X151000000Y-133375000D03*
X156250000Y-128150000D03*
X158925000Y-130150000D03*
X158775000Y-134100000D03*
X164575000Y-132125000D03*
X169525000Y-134850000D03*
X196775000Y-129425000D03*
X195575000Y-121275000D03*
X188400000Y-132575000D03*
X175600000Y-130425000D03*
X179775000Y-126300000D03*
X183100000Y-123175000D03*
X188150000Y-118525000D03*
X193475000Y-113300000D03*
X205725000Y-100100000D03*
X199025000Y-107350000D03*
X205550000Y-104775000D03*
X205550000Y-111675000D03*
X205150000Y-118375000D03*
X205425000Y-124900000D03*
X205475000Y-131425000D03*
X184975000Y-137625000D03*
X192150000Y-137650000D03*
X198375000Y-137650000D03*
X205400000Y-137400000D03*
X191800000Y-83699990D03*
X147696889Y-83349979D03*
X144003111Y-83349979D03*
X141887694Y-106851171D03*
X147135107Y-106349990D03*
X159650000Y-83699996D03*
X181950000Y-83699996D03*
X174500000Y-83700000D03*
X134300000Y-96450000D03*
X134900000Y-102050000D03*
X148000000Y-53550000D03*
X133800000Y-104552110D03*
X179700000Y-51750000D03*
X196500000Y-83750000D03*
X184250000Y-77500000D03*
X188800000Y-77350000D03*
X204500000Y-83750000D03*
X130250000Y-113300000D03*
X199750000Y-83750000D03*
X138200000Y-110700032D03*
X184100000Y-92600000D03*
X138499990Y-117419545D03*
X138500000Y-137500000D03*
X140200000Y-83700000D03*
X151500000Y-83700000D03*
X155100000Y-83700000D03*
X162400000Y-83700000D03*
X169800043Y-83710495D03*
X177200000Y-83700000D03*
X184300000Y-81300000D03*
X188800000Y-81300000D03*
X164000000Y-51000000D03*
X154600000Y-54000000D03*
X134000000Y-107100000D03*
X134400000Y-118200000D03*
X132300000Y-125600000D03*
X138200000Y-129700000D03*
X141700000Y-131800000D03*
X177200000Y-136600000D03*
X156900000Y-49800000D03*
X138650000Y-115200000D03*
X131100000Y-111903074D03*
X165300000Y-49800000D03*
X172000000Y-50000000D03*
X132100000Y-119500000D03*
X136100000Y-135900000D03*
X134800000Y-135700000D03*
X143500000Y-111900000D03*
X133600000Y-130200000D03*
X143400000Y-113050000D03*
X137400000Y-130300000D03*
X149950000Y-53700000D03*
X157600000Y-52200000D03*
X149000000Y-57250000D03*
X171750000Y-56100000D03*
X136300000Y-107800000D03*
X186200000Y-92700000D03*
X150678292Y-57797671D03*
X176600004Y-54450000D03*
X146900000Y-62750000D03*
X141050000Y-60000000D03*
X143274377Y-98680493D03*
X170900000Y-83700000D03*
X142950000Y-100600000D03*
X178300000Y-83700000D03*
X133950000Y-109550012D03*
X187200000Y-92700000D03*
X149850000Y-56600010D03*
X167450000Y-56250000D03*
X135196342Y-109548290D03*
X188200000Y-92700000D03*
X138933426Y-96718944D03*
X150400000Y-83700000D03*
X140600000Y-98700000D03*
X165150000Y-83700000D03*
X148700000Y-83349979D03*
X138055211Y-96240652D03*
X141255018Y-97405018D03*
X163500000Y-83700000D03*
X161100000Y-55450000D03*
X148400000Y-55900000D03*
X152400000Y-82900000D03*
X160300000Y-82800000D03*
X167600000Y-82900000D03*
X175100000Y-82900000D03*
X182700000Y-82800000D03*
X200800000Y-83400000D03*
X135950000Y-110248569D03*
X144250000Y-98900000D03*
X172400000Y-83700000D03*
X179600000Y-83700000D03*
X145700000Y-100900000D03*
X140260709Y-97298364D03*
X157749990Y-83689582D03*
X138917783Y-97755770D03*
X156100000Y-83700000D03*
X133950000Y-108150000D03*
X185200000Y-92700000D03*
X204700000Y-82500000D03*
X197716221Y-84149990D03*
X145664242Y-109750019D03*
X201749981Y-83797920D03*
D16*
X153300000Y-83700000D02*
X155100000Y-83700000D01*
X151500000Y-83700000D02*
X153300000Y-83700000D01*
D17*
X131100000Y-84450000D02*
X131100000Y-78550000D01*
X131100000Y-111903074D02*
X131100000Y-84450000D01*
X156334315Y-49800000D02*
X156900000Y-49800000D01*
X131100000Y-78550000D02*
X131100000Y-52400000D01*
X131100000Y-52400000D02*
X133700000Y-49800000D01*
X133700000Y-49800000D02*
X156334315Y-49800000D01*
X165300000Y-49800000D02*
X156900000Y-49800000D01*
X171800000Y-49800000D02*
X172000000Y-50000000D01*
X165300000Y-49800000D02*
X171800000Y-49800000D01*
X138650000Y-115200000D02*
X134396926Y-115200000D01*
X134396926Y-115200000D02*
X131100000Y-111903074D01*
X138699702Y-115150298D02*
X138650000Y-115200000D01*
D16*
X138700000Y-115150000D02*
X138650000Y-115200000D01*
D18*
X165999240Y-122997540D02*
X164250994Y-122997540D01*
X136700000Y-135300000D02*
X136100000Y-135900000D01*
X164250994Y-122997540D02*
X151948534Y-135300000D01*
X151948534Y-135300000D02*
X136700000Y-135300000D01*
X151800000Y-134600000D02*
X135900000Y-134600000D01*
X165300000Y-121100000D02*
X151800000Y-134600000D01*
X168099660Y-121100000D02*
X165300000Y-121100000D01*
X169997200Y-122997540D02*
X168099660Y-121100000D01*
X135900000Y-134600000D02*
X134800000Y-135700000D01*
D16*
X136950000Y-122250000D02*
X136950000Y-129000000D01*
X140450000Y-118750000D02*
X136950000Y-122250000D01*
X140450000Y-114950000D02*
X140450000Y-118750000D01*
X143500000Y-111900000D02*
X140450000Y-114950000D01*
X136950000Y-129000000D02*
X135750000Y-130200000D01*
X135750000Y-130200000D02*
X133600000Y-130200000D01*
X140900000Y-118900000D02*
X137400000Y-122400000D01*
X137400000Y-122400000D02*
X137400000Y-130300000D01*
X140900000Y-115550000D02*
X140900000Y-118900000D01*
X143400000Y-113050000D02*
X140900000Y-115550000D01*
X157600000Y-52200000D02*
X151450000Y-52200000D01*
X150349999Y-53300001D02*
X149950000Y-53700000D01*
X151450000Y-52200000D02*
X150349999Y-53300001D01*
X150086012Y-57400000D02*
X149150000Y-57400000D01*
X150536012Y-56950000D02*
X150086012Y-57400000D01*
X170900000Y-56950000D02*
X150536012Y-56950000D01*
X171750000Y-56100000D02*
X170900000Y-56950000D01*
X149150000Y-57400000D02*
X149000000Y-57250000D01*
X137050000Y-107800000D02*
X136865685Y-107800000D01*
X186200000Y-92700000D02*
X187750011Y-94250011D01*
X187750011Y-102315689D02*
X181915689Y-108150011D01*
X181915689Y-108150011D02*
X137400011Y-108150011D01*
X137400011Y-108150011D02*
X137050000Y-107800000D01*
X136865685Y-107800000D02*
X136300000Y-107800000D01*
X187750011Y-94250011D02*
X187750011Y-102315689D01*
X185000000Y-90038200D02*
X185000000Y-91500000D01*
X185000000Y-91500000D02*
X186200000Y-92700000D01*
X176600004Y-54450000D02*
X173700004Y-57350000D01*
X173700004Y-57350000D02*
X151125963Y-57350000D01*
X151125963Y-57350000D02*
X150678292Y-57797671D01*
X141050000Y-60000000D02*
X144150000Y-60000000D01*
X144150000Y-60000000D02*
X146900000Y-62750000D01*
X170885000Y-85500000D02*
X170034700Y-85500000D01*
X145554879Y-96399991D02*
X143674376Y-98280494D01*
X160750009Y-96399991D02*
X145554879Y-96399991D01*
X170034700Y-87115300D02*
X160750009Y-96399991D01*
X170034700Y-85500000D02*
X170034700Y-87115300D01*
X143674376Y-98280494D02*
X143274377Y-98680493D01*
X170900000Y-83700000D02*
X170034700Y-84565300D01*
X170034700Y-84565300D02*
X170034700Y-85500000D01*
X170749482Y-83549482D02*
X170900000Y-83700000D01*
X170749482Y-82138766D02*
X170749482Y-83549482D01*
X178385000Y-85500000D02*
X177434700Y-85500000D01*
X145350000Y-100150000D02*
X165050000Y-100150000D01*
X165050000Y-100150000D02*
X177434700Y-87765300D01*
X144900000Y-100600000D02*
X145350000Y-100150000D01*
X142950000Y-100600000D02*
X144900000Y-100600000D01*
X177434700Y-87765300D02*
X177434700Y-85500000D01*
X178300000Y-83700000D02*
X177434700Y-84565300D01*
X177434700Y-84565300D02*
X177434700Y-85500000D01*
X178300000Y-83700000D02*
X178300000Y-81838200D01*
X185985000Y-85500000D02*
X185985000Y-86719872D01*
X185985000Y-86719872D02*
X185769901Y-86934971D01*
X185769901Y-89197001D02*
X186611100Y-90038200D01*
X185769901Y-86934971D02*
X185769901Y-89197001D01*
X186611100Y-90038200D02*
X186700000Y-90038200D01*
X134949990Y-108550022D02*
X182081378Y-108550022D01*
X188150022Y-102481378D02*
X188150022Y-93650022D01*
X187599999Y-93099999D02*
X187200000Y-92700000D01*
X133950000Y-109550012D02*
X134949990Y-108550022D01*
X188150022Y-93650022D02*
X187599999Y-93099999D01*
X182081378Y-108550022D02*
X188150022Y-102481378D01*
X188400000Y-90038200D02*
X186700000Y-90038200D01*
X186700000Y-90038200D02*
X186700000Y-92200000D01*
X186700000Y-92200000D02*
X187200000Y-92700000D01*
X167450000Y-56250000D02*
X166750000Y-56250000D01*
X166750000Y-56250000D02*
X166450000Y-56550000D01*
X166450000Y-56550000D02*
X149900010Y-56550000D01*
X149900010Y-56550000D02*
X149850000Y-56600010D01*
X191888900Y-90038200D02*
X192685000Y-89242100D01*
X192685000Y-89242100D02*
X192685000Y-86216400D01*
X191800000Y-90038200D02*
X191888900Y-90038200D01*
X192685000Y-86216400D02*
X192685000Y-85500000D01*
X182247067Y-108950033D02*
X135794599Y-108950033D01*
X135596341Y-109148291D02*
X135196342Y-109548290D01*
X188599999Y-93099999D02*
X188599999Y-102597101D01*
X135794599Y-108950033D02*
X135596341Y-109148291D01*
X188200000Y-92700000D02*
X188599999Y-93099999D01*
X188599999Y-102597101D02*
X182247067Y-108950033D01*
X190100000Y-90038200D02*
X191800000Y-90038200D01*
X188200000Y-92700000D02*
X190100000Y-90800000D01*
X190100000Y-90800000D02*
X190100000Y-90038200D01*
X190100000Y-88361800D02*
X190011100Y-88361800D01*
X139802359Y-95850011D02*
X139333425Y-96318945D01*
X141537190Y-95850011D02*
X139802359Y-95850011D01*
X149500000Y-87887201D02*
X141537190Y-95850011D01*
X150400000Y-83700000D02*
X150400000Y-84000000D01*
X149500000Y-84900000D02*
X149500000Y-87887201D01*
X150400000Y-84000000D02*
X149500000Y-84900000D01*
X139333425Y-96318945D02*
X138933426Y-96718944D01*
X150350000Y-81938200D02*
X150350000Y-83650000D01*
X150350000Y-83650000D02*
X150400000Y-83700000D01*
X165150000Y-85250000D02*
X165150000Y-84265685D01*
X161400000Y-89000000D02*
X165150000Y-85250000D01*
X150650000Y-89000000D02*
X161400000Y-89000000D01*
X140950000Y-98700000D02*
X150650000Y-89000000D01*
X140600000Y-98700000D02*
X140950000Y-98700000D01*
X165150000Y-84265685D02*
X165150000Y-83700000D01*
X165150000Y-81938200D02*
X165150000Y-83700000D01*
X148400000Y-84800000D02*
X148400000Y-88421501D01*
X148400000Y-83649979D02*
X148400000Y-84800000D01*
X148385000Y-85500000D02*
X148385000Y-84815000D01*
X148385000Y-84815000D02*
X148400000Y-84800000D01*
X148400000Y-88421501D02*
X141371501Y-95450000D01*
X148700000Y-83349979D02*
X148400000Y-83649979D01*
X141371501Y-95450000D02*
X138845863Y-95450000D01*
X138845863Y-95450000D02*
X138055211Y-96240652D01*
X148650000Y-81938200D02*
X148700000Y-81988200D01*
X148700000Y-82784294D02*
X148700000Y-83349979D01*
X148700000Y-81988200D02*
X148700000Y-82784294D01*
X162400000Y-84935730D02*
X158735740Y-88599990D01*
X163500000Y-83835730D02*
X162400000Y-84935730D01*
X163585000Y-85500000D02*
X163070000Y-85500000D01*
X163070000Y-85500000D02*
X162505730Y-84935730D01*
X162505730Y-84935730D02*
X162400000Y-84935730D01*
X158735740Y-88599990D02*
X150484311Y-88599990D01*
X163500000Y-83700000D02*
X163500000Y-83835730D01*
X150484311Y-88599990D02*
X142034258Y-97050044D01*
X142034258Y-97050044D02*
X141609992Y-97050044D01*
X141609992Y-97050044D02*
X141255018Y-97405018D01*
X163500000Y-83700000D02*
X163500000Y-81988200D01*
X163500000Y-81988200D02*
X163450000Y-81938200D01*
X148400000Y-55850000D02*
X148400000Y-55900000D01*
X148450000Y-55900000D02*
X148400000Y-55850000D01*
X161100000Y-55450000D02*
X160400000Y-56150000D01*
X160400000Y-56150000D02*
X150550000Y-56150000D01*
X150550000Y-56150000D02*
X150300000Y-55900000D01*
X150300000Y-55900000D02*
X148450000Y-55900000D01*
X152100000Y-82600000D02*
X152400000Y-82900000D01*
X152100000Y-81838200D02*
X152100000Y-82600000D01*
X159338200Y-81838200D02*
X160300000Y-82800000D01*
X159200000Y-81838200D02*
X159338200Y-81838200D01*
X166900000Y-82200000D02*
X167600000Y-82900000D01*
X166900000Y-81938200D02*
X166900000Y-82200000D01*
X174338200Y-82138200D02*
X175100000Y-82900000D01*
X174100000Y-82138200D02*
X174338200Y-82138200D01*
X181838200Y-81938200D02*
X182700000Y-82800000D01*
X181700000Y-81938200D02*
X181838200Y-81938200D01*
X199884700Y-85500000D02*
X199884700Y-92443800D01*
X199884700Y-84915300D02*
X199884700Y-85500000D01*
X200585000Y-85500000D02*
X200070000Y-85500000D01*
X200070000Y-85500000D02*
X199884700Y-85500000D01*
X146700000Y-109800000D02*
X146000000Y-110500000D01*
X182528500Y-109800000D02*
X146700000Y-109800000D01*
X136349999Y-109848570D02*
X135950000Y-110248569D01*
X199884700Y-92443800D02*
X182528500Y-109800000D01*
X145200000Y-110500000D02*
X144548570Y-109848570D01*
X200800000Y-81838200D02*
X200800000Y-84000000D01*
X200800000Y-84000000D02*
X199884700Y-84915300D01*
X146000000Y-110500000D02*
X145200000Y-110500000D01*
X144548570Y-109848570D02*
X136349999Y-109848570D01*
X200800000Y-81838200D02*
X200800000Y-83400000D01*
X145800000Y-96800000D02*
X144250000Y-98350000D01*
X160965700Y-96800000D02*
X145800000Y-96800000D01*
X172400000Y-85365700D02*
X160965700Y-96800000D01*
X172400000Y-83700000D02*
X172400000Y-85365700D01*
X144250000Y-98350000D02*
X144250000Y-98900000D01*
X172400000Y-83700000D02*
X172400000Y-82187682D01*
X172400000Y-82187682D02*
X172449482Y-82138200D01*
X179600000Y-86200000D02*
X179600000Y-84265685D01*
X146050000Y-100550000D02*
X165250000Y-100550000D01*
X165250000Y-100550000D02*
X179600000Y-86200000D01*
X145700000Y-100900000D02*
X146050000Y-100550000D01*
X179600000Y-84265685D02*
X179600000Y-83700000D01*
X180039723Y-83260277D02*
X179600000Y-83700000D01*
X180039723Y-81816676D02*
X180039723Y-83260277D01*
X141868568Y-96650033D02*
X140909040Y-96650033D01*
X140660708Y-96898365D02*
X140260709Y-97298364D01*
X150318622Y-88199979D02*
X141868568Y-96650033D01*
X155100021Y-88199979D02*
X150318622Y-88199979D01*
X156700000Y-86600000D02*
X155100021Y-88199979D01*
X157749990Y-83689582D02*
X156700000Y-84739572D01*
X156700000Y-84739572D02*
X156700000Y-86600000D01*
X140909040Y-96650033D02*
X140660708Y-96898365D01*
X157550000Y-83489592D02*
X157749990Y-83689582D01*
X157550000Y-81838200D02*
X157550000Y-83489592D01*
X154700000Y-85100000D02*
X154800000Y-85000000D01*
X155270000Y-85500000D02*
X154800000Y-85030000D01*
X155785000Y-85500000D02*
X155270000Y-85500000D01*
X154800000Y-85030000D02*
X154800000Y-85000000D01*
X154700000Y-85100000D02*
X155700000Y-84100000D01*
X154300000Y-85500000D02*
X154700000Y-85100000D01*
X150152933Y-87799968D02*
X151885762Y-87799968D01*
X138917783Y-97755770D02*
X139579339Y-97094214D01*
X151885762Y-87799968D02*
X154185730Y-85500000D01*
X141702879Y-96250022D02*
X150152933Y-87799968D01*
X140318098Y-96250022D02*
X141702879Y-96250022D01*
X139579339Y-96988781D02*
X140318098Y-96250022D01*
X139579339Y-97094214D02*
X139579339Y-96988781D01*
X154185730Y-85500000D02*
X154300000Y-85500000D01*
X155700000Y-84100000D02*
X156100000Y-83700000D01*
X155850000Y-81838200D02*
X155850000Y-83450000D01*
X155850000Y-83450000D02*
X156100000Y-83700000D01*
X137650000Y-107750000D02*
X181750000Y-107750000D01*
X133950000Y-108150000D02*
X134349999Y-107750001D01*
X187350000Y-102150000D02*
X187350000Y-94850000D01*
X134849999Y-107750001D02*
X135550000Y-107050000D01*
X135550000Y-107050000D02*
X136950000Y-107050000D01*
X134349999Y-107750001D02*
X134849999Y-107750001D01*
X136950000Y-107050000D02*
X137650000Y-107750000D01*
X181750000Y-107750000D02*
X187350000Y-102150000D01*
X187350000Y-94850000D02*
X185200000Y-92700000D01*
X185200000Y-92700000D02*
X183300000Y-90800000D01*
X183300000Y-90800000D02*
X183300000Y-90038200D01*
X204100000Y-81900000D02*
X204700000Y-82500000D01*
X204100000Y-81838200D02*
X204100000Y-81900000D01*
X145664242Y-109750019D02*
X145664242Y-109734076D01*
X182412756Y-109350044D02*
X197716221Y-94046579D01*
X146048274Y-109350044D02*
X182412756Y-109350044D01*
X145664242Y-109734076D02*
X146048274Y-109350044D01*
X197716221Y-94046579D02*
X197716221Y-84715675D01*
X197716221Y-84715675D02*
X197716221Y-84149990D01*
X202149980Y-83397921D02*
X201749981Y-83797920D01*
X202450000Y-83097901D02*
X202149980Y-83397921D01*
X202450000Y-81838200D02*
X202450000Y-83097901D01*
G36*
X130685652Y-51895111D02*
X130631377Y-51931376D01*
X130571507Y-52020979D01*
X130487715Y-52146383D01*
X130437266Y-52400000D01*
X130450001Y-52464021D01*
X130450000Y-78614017D01*
X130450001Y-78614022D01*
X130450000Y-84514017D01*
X130450001Y-84514022D01*
X130450000Y-111280282D01*
X130337017Y-111393265D01*
X130200000Y-111724053D01*
X130200000Y-112082095D01*
X130337017Y-112412883D01*
X130590191Y-112666057D01*
X130920979Y-112803074D01*
X131080763Y-112803074D01*
X133892039Y-115614351D01*
X133928302Y-115668624D01*
X134143309Y-115812286D01*
X134332908Y-115850000D01*
X134332909Y-115850000D01*
X134396925Y-115862734D01*
X134460941Y-115850000D01*
X138027208Y-115850000D01*
X138140191Y-115962983D01*
X138470979Y-116100000D01*
X138829021Y-116100000D01*
X139159809Y-115962983D01*
X139412983Y-115709809D01*
X139550000Y-115379021D01*
X139550000Y-115020979D01*
X139412983Y-114690191D01*
X139159809Y-114437017D01*
X138829021Y-114300000D01*
X138470979Y-114300000D01*
X138140191Y-114437017D01*
X138027208Y-114550000D01*
X134666165Y-114550000D01*
X132000000Y-111883837D01*
X132000000Y-111724053D01*
X131862983Y-111393265D01*
X131750000Y-111280282D01*
X131750000Y-107970979D01*
X133050000Y-107970979D01*
X133050000Y-108329021D01*
X133187017Y-108659809D01*
X133377214Y-108850006D01*
X133187017Y-109040203D01*
X133050000Y-109370991D01*
X133050000Y-109729033D01*
X133187017Y-110059821D01*
X133440191Y-110312995D01*
X133770979Y-110450012D01*
X134129021Y-110450012D01*
X134459809Y-110312995D01*
X134574032Y-110198772D01*
X134686533Y-110311273D01*
X135017321Y-110448290D01*
X135058574Y-110448290D01*
X135187017Y-110758378D01*
X135440191Y-111011552D01*
X135770979Y-111148569D01*
X136129021Y-111148569D01*
X136459809Y-111011552D01*
X136712983Y-110758378D01*
X136841310Y-110448570D01*
X144300043Y-110448570D01*
X144733953Y-110882481D01*
X144767425Y-110932575D01*
X144965892Y-111065187D01*
X145140909Y-111100000D01*
X145140913Y-111100000D01*
X145199999Y-111111753D01*
X145259086Y-111100000D01*
X145940914Y-111100000D01*
X146000000Y-111111753D01*
X146059086Y-111100000D01*
X146059091Y-111100000D01*
X146234108Y-111065187D01*
X146432575Y-110932575D01*
X146466048Y-110882479D01*
X146948528Y-110400000D01*
X153419672Y-110400000D01*
X153167165Y-110504592D01*
X152604592Y-111067165D01*
X152300130Y-111802201D01*
X152300130Y-112597799D01*
X152604592Y-113332835D01*
X153167165Y-113895408D01*
X153902201Y-114199870D01*
X154697799Y-114199870D01*
X155432835Y-113895408D01*
X155995408Y-113332835D01*
X156299870Y-112597799D01*
X156299870Y-111802201D01*
X155995408Y-111067165D01*
X155432835Y-110504592D01*
X155180328Y-110400000D01*
X180816112Y-110400000D01*
X180563605Y-110504592D01*
X180001032Y-111067165D01*
X179696570Y-111802201D01*
X179696570Y-112597799D01*
X180001032Y-113332835D01*
X180563605Y-113895408D01*
X181298641Y-114199870D01*
X182094239Y-114199870D01*
X182829275Y-113895408D01*
X183391848Y-113332835D01*
X183696310Y-112597799D01*
X183696310Y-111802201D01*
X183391848Y-111067165D01*
X182829275Y-110504592D01*
X182580277Y-110401454D01*
X182587586Y-110400000D01*
X182587591Y-110400000D01*
X182762608Y-110365187D01*
X182961075Y-110232575D01*
X182994549Y-110182478D01*
X200267181Y-92909847D01*
X200317275Y-92876375D01*
X200449887Y-92677908D01*
X200484700Y-92502891D01*
X200484700Y-92502887D01*
X200496453Y-92443801D01*
X200484700Y-92384715D01*
X200484700Y-86424795D01*
X200900000Y-86424795D01*
X201095090Y-86385989D01*
X201260480Y-86275480D01*
X201370989Y-86110090D01*
X201409795Y-85915000D01*
X201409795Y-85630000D01*
X202000000Y-85630000D01*
X202000000Y-86014456D01*
X202076121Y-86198227D01*
X202216773Y-86338880D01*
X202400544Y-86415000D01*
X202685000Y-86415000D01*
X202810000Y-86290000D01*
X202810000Y-85505000D01*
X202820000Y-85505000D01*
X202820000Y-86290000D01*
X202945000Y-86415000D01*
X203229456Y-86415000D01*
X203413227Y-86338880D01*
X203553879Y-86198227D01*
X203630000Y-86014456D01*
X203630000Y-85630000D01*
X203505000Y-85505000D01*
X202820000Y-85505000D01*
X202810000Y-85505000D01*
X202125000Y-85505000D01*
X202000000Y-85630000D01*
X201409795Y-85630000D01*
X201409795Y-85085000D01*
X201390012Y-84985544D01*
X202000000Y-84985544D01*
X202000000Y-85370000D01*
X202125000Y-85495000D01*
X202810000Y-85495000D01*
X202810000Y-84710000D01*
X202820000Y-84710000D01*
X202820000Y-85495000D01*
X203505000Y-85495000D01*
X203630000Y-85370000D01*
X203630000Y-84985544D01*
X203553879Y-84801773D01*
X203413227Y-84661120D01*
X203229456Y-84585000D01*
X202945000Y-84585000D01*
X202820000Y-84710000D01*
X202810000Y-84710000D01*
X202685000Y-84585000D01*
X202400544Y-84585000D01*
X202216773Y-84661120D01*
X202076121Y-84801773D01*
X202000000Y-84985544D01*
X201390012Y-84985544D01*
X201370989Y-84889910D01*
X201260480Y-84724520D01*
X201095090Y-84614011D01*
X201044567Y-84603961D01*
X201163898Y-84484629D01*
X201240172Y-84560903D01*
X201570960Y-84697920D01*
X201929002Y-84697920D01*
X202259790Y-84560903D01*
X202512964Y-84307729D01*
X202649981Y-83976941D01*
X202649981Y-83746447D01*
X202832478Y-83563950D01*
X202882575Y-83530476D01*
X203015187Y-83332009D01*
X203050000Y-83156992D01*
X203050000Y-83156988D01*
X203061753Y-83097902D01*
X203050000Y-83038816D01*
X203050000Y-82703116D01*
X203114990Y-82690189D01*
X203275000Y-82583275D01*
X203435010Y-82690189D01*
X203630100Y-82728995D01*
X203820700Y-82728995D01*
X203937017Y-83009809D01*
X204190191Y-83262983D01*
X204520979Y-83400000D01*
X204879021Y-83400000D01*
X205209809Y-83262983D01*
X205462983Y-83009809D01*
X205600000Y-82679021D01*
X205600000Y-82320979D01*
X205462983Y-81990191D01*
X205209809Y-81737017D01*
X205079695Y-81683122D01*
X205079695Y-81457200D01*
X205040889Y-81262110D01*
X204930380Y-81096720D01*
X204780674Y-80996690D01*
X204853127Y-80966679D01*
X204993780Y-80826027D01*
X205069900Y-80642256D01*
X205069900Y-80291800D01*
X204944900Y-80166800D01*
X204105000Y-80166800D01*
X204105000Y-80186800D01*
X204095000Y-80186800D01*
X204095000Y-80166800D01*
X202455000Y-80166800D01*
X202455000Y-80186800D01*
X202445000Y-80186800D01*
X202445000Y-80166800D01*
X200805000Y-80166800D01*
X200805000Y-80186800D01*
X200795000Y-80186800D01*
X200795000Y-80166800D01*
X199955100Y-80166800D01*
X199830100Y-80291800D01*
X199830100Y-80642256D01*
X199906220Y-80826027D01*
X200046873Y-80966679D01*
X200119326Y-80996690D01*
X199969620Y-81096720D01*
X199859111Y-81262110D01*
X199820305Y-81457200D01*
X199820305Y-82219200D01*
X199859111Y-82414290D01*
X199969620Y-82579680D01*
X200135010Y-82690189D01*
X200200000Y-82703116D01*
X200200000Y-82727208D01*
X200037017Y-82890191D01*
X199900000Y-83220979D01*
X199900000Y-83579021D01*
X200037017Y-83909809D01*
X200039340Y-83912132D01*
X199502221Y-84449251D01*
X199452125Y-84482725D01*
X199319513Y-84681193D01*
X199284700Y-84856210D01*
X199284700Y-84856214D01*
X199272947Y-84915300D01*
X199284700Y-84974386D01*
X199284700Y-85440909D01*
X199272946Y-85500000D01*
X199284700Y-85559090D01*
X199284701Y-92195271D01*
X198316221Y-93163751D01*
X198316221Y-84822782D01*
X198479204Y-84659799D01*
X198616221Y-84329011D01*
X198616221Y-83970969D01*
X198479204Y-83640181D01*
X198226030Y-83387007D01*
X197895242Y-83249990D01*
X197537200Y-83249990D01*
X197206412Y-83387007D01*
X196953238Y-83640181D01*
X196816221Y-83970969D01*
X196816221Y-84329011D01*
X196953238Y-84659799D01*
X197116222Y-84822783D01*
X197116221Y-93798051D01*
X189199999Y-101714274D01*
X189199999Y-93159085D01*
X189211752Y-93099998D01*
X189199999Y-93040912D01*
X189199999Y-93040908D01*
X189165186Y-92865891D01*
X189100000Y-92768334D01*
X189100000Y-92648527D01*
X190482482Y-91266046D01*
X190532575Y-91232575D01*
X190566048Y-91182480D01*
X190665187Y-91034109D01*
X190690882Y-90904930D01*
X190764990Y-90890189D01*
X190930380Y-90779680D01*
X190950000Y-90750316D01*
X190969620Y-90779680D01*
X191135010Y-90890189D01*
X191330100Y-90928995D01*
X192269900Y-90928995D01*
X192464990Y-90890189D01*
X192630380Y-90779680D01*
X192740889Y-90614290D01*
X192779695Y-90419200D01*
X192779695Y-89995933D01*
X193067482Y-89708146D01*
X193117575Y-89674675D01*
X193250187Y-89476208D01*
X193285000Y-89301191D01*
X193285000Y-89301187D01*
X193296753Y-89242101D01*
X193285000Y-89183015D01*
X193285000Y-86325914D01*
X193360480Y-86275480D01*
X193470989Y-86110090D01*
X193509795Y-85915000D01*
X193509795Y-85630000D01*
X194100000Y-85630000D01*
X194100000Y-86014456D01*
X194176121Y-86198227D01*
X194316773Y-86338880D01*
X194500544Y-86415000D01*
X194785000Y-86415000D01*
X194910000Y-86290000D01*
X194910000Y-85505000D01*
X194920000Y-85505000D01*
X194920000Y-86290000D01*
X195045000Y-86415000D01*
X195329456Y-86415000D01*
X195513227Y-86338880D01*
X195653879Y-86198227D01*
X195730000Y-86014456D01*
X195730000Y-85630000D01*
X195605000Y-85505000D01*
X194920000Y-85505000D01*
X194910000Y-85505000D01*
X194225000Y-85505000D01*
X194100000Y-85630000D01*
X193509795Y-85630000D01*
X193509795Y-85085000D01*
X193490012Y-84985544D01*
X194100000Y-84985544D01*
X194100000Y-85370000D01*
X194225000Y-85495000D01*
X194910000Y-85495000D01*
X194910000Y-84710000D01*
X194920000Y-84710000D01*
X194920000Y-85495000D01*
X195605000Y-85495000D01*
X195730000Y-85370000D01*
X195730000Y-84985544D01*
X195653879Y-84801773D01*
X195513227Y-84661120D01*
X195329456Y-84585000D01*
X195045000Y-84585000D01*
X194920000Y-84710000D01*
X194910000Y-84710000D01*
X194785000Y-84585000D01*
X194500544Y-84585000D01*
X194316773Y-84661120D01*
X194176121Y-84801773D01*
X194100000Y-84985544D01*
X193490012Y-84985544D01*
X193470989Y-84889910D01*
X193360480Y-84724520D01*
X193195090Y-84614011D01*
X193000000Y-84575205D01*
X192370000Y-84575205D01*
X192174910Y-84614011D01*
X192009520Y-84724520D01*
X191899011Y-84889910D01*
X191860205Y-85085000D01*
X191860205Y-85915000D01*
X191899011Y-86110090D01*
X192009520Y-86275480D01*
X192085001Y-86325914D01*
X192085001Y-87480800D01*
X191930000Y-87480800D01*
X191805000Y-87605800D01*
X191805000Y-88356800D01*
X191825000Y-88356800D01*
X191825000Y-88366800D01*
X191805000Y-88366800D01*
X191805000Y-88386800D01*
X191795000Y-88386800D01*
X191795000Y-88366800D01*
X190955100Y-88366800D01*
X190950000Y-88371900D01*
X190944900Y-88366800D01*
X190105000Y-88366800D01*
X190105000Y-88386800D01*
X190095000Y-88386800D01*
X190095000Y-88366800D01*
X189255100Y-88366800D01*
X189250000Y-88371900D01*
X189244900Y-88366800D01*
X188405000Y-88366800D01*
X188405000Y-88386800D01*
X188395000Y-88386800D01*
X188395000Y-88366800D01*
X187555100Y-88366800D01*
X187550000Y-88371900D01*
X187544900Y-88366800D01*
X186705000Y-88366800D01*
X186705000Y-88386800D01*
X186695000Y-88386800D01*
X186695000Y-88366800D01*
X186675000Y-88366800D01*
X186675000Y-88356800D01*
X186695000Y-88356800D01*
X186695000Y-87605800D01*
X186705000Y-87605800D01*
X186705000Y-88356800D01*
X187544900Y-88356800D01*
X187550000Y-88351700D01*
X187555100Y-88356800D01*
X188395000Y-88356800D01*
X188395000Y-87605800D01*
X188405000Y-87605800D01*
X188405000Y-88356800D01*
X189244900Y-88356800D01*
X189250000Y-88351700D01*
X189255100Y-88356800D01*
X190095000Y-88356800D01*
X190095000Y-87605800D01*
X190105000Y-87605800D01*
X190105000Y-88356800D01*
X190944900Y-88356800D01*
X190950000Y-88351700D01*
X190955100Y-88356800D01*
X191795000Y-88356800D01*
X191795000Y-87605800D01*
X191670000Y-87480800D01*
X191230644Y-87480800D01*
X191046873Y-87556921D01*
X190950000Y-87653793D01*
X190853127Y-87556921D01*
X190669356Y-87480800D01*
X190230000Y-87480800D01*
X190105000Y-87605800D01*
X190095000Y-87605800D01*
X189970000Y-87480800D01*
X189530644Y-87480800D01*
X189346873Y-87556921D01*
X189250000Y-87653793D01*
X189153127Y-87556921D01*
X188969356Y-87480800D01*
X188530000Y-87480800D01*
X188405000Y-87605800D01*
X188395000Y-87605800D01*
X188270000Y-87480800D01*
X187830644Y-87480800D01*
X187646873Y-87556921D01*
X187550000Y-87653793D01*
X187453127Y-87556921D01*
X187269356Y-87480800D01*
X186830000Y-87480800D01*
X186705000Y-87605800D01*
X186695000Y-87605800D01*
X186570000Y-87480800D01*
X186369901Y-87480800D01*
X186369901Y-87184302D01*
X186417575Y-87152447D01*
X186550187Y-86953980D01*
X186585000Y-86778963D01*
X186585000Y-86778958D01*
X186596753Y-86719872D01*
X186585000Y-86660786D01*
X186585000Y-86325914D01*
X186660480Y-86275480D01*
X186770989Y-86110090D01*
X186809795Y-85915000D01*
X186809795Y-85630000D01*
X187400000Y-85630000D01*
X187400000Y-86014456D01*
X187476121Y-86198227D01*
X187616773Y-86338880D01*
X187800544Y-86415000D01*
X188085000Y-86415000D01*
X188210000Y-86290000D01*
X188210000Y-85505000D01*
X188220000Y-85505000D01*
X188220000Y-86290000D01*
X188345000Y-86415000D01*
X188629456Y-86415000D01*
X188813227Y-86338880D01*
X188953879Y-86198227D01*
X189030000Y-86014456D01*
X189030000Y-85630000D01*
X188905000Y-85505000D01*
X188220000Y-85505000D01*
X188210000Y-85505000D01*
X187525000Y-85505000D01*
X187400000Y-85630000D01*
X186809795Y-85630000D01*
X186809795Y-85085000D01*
X186790012Y-84985544D01*
X187400000Y-84985544D01*
X187400000Y-85370000D01*
X187525000Y-85495000D01*
X188210000Y-85495000D01*
X188210000Y-84710000D01*
X188220000Y-84710000D01*
X188220000Y-85495000D01*
X188905000Y-85495000D01*
X189030000Y-85370000D01*
X189030000Y-84985544D01*
X188953879Y-84801773D01*
X188813227Y-84661120D01*
X188629456Y-84585000D01*
X188345000Y-84585000D01*
X188220000Y-84710000D01*
X188210000Y-84710000D01*
X188085000Y-84585000D01*
X187800544Y-84585000D01*
X187616773Y-84661120D01*
X187476121Y-84801773D01*
X187400000Y-84985544D01*
X186790012Y-84985544D01*
X186770989Y-84889910D01*
X186660480Y-84724520D01*
X186495090Y-84614011D01*
X186300000Y-84575205D01*
X185670000Y-84575205D01*
X185474910Y-84614011D01*
X185309520Y-84724520D01*
X185199011Y-84889910D01*
X185160205Y-85085000D01*
X185160205Y-85915000D01*
X185199011Y-86110090D01*
X185309520Y-86275480D01*
X185385001Y-86325914D01*
X185385001Y-86470541D01*
X185337326Y-86502396D01*
X185204714Y-86700864D01*
X185169901Y-86875881D01*
X185169901Y-86875885D01*
X185158148Y-86934971D01*
X185169901Y-86994058D01*
X185169901Y-87480800D01*
X185130000Y-87480800D01*
X185005000Y-87605800D01*
X185005000Y-88356800D01*
X185025000Y-88356800D01*
X185025000Y-88366800D01*
X185005000Y-88366800D01*
X185005000Y-88386800D01*
X184995000Y-88386800D01*
X184995000Y-88366800D01*
X184155100Y-88366800D01*
X184150000Y-88371900D01*
X184144900Y-88366800D01*
X183305000Y-88366800D01*
X183305000Y-88386800D01*
X183295000Y-88386800D01*
X183295000Y-88366800D01*
X182455100Y-88366800D01*
X182330100Y-88491800D01*
X182330100Y-88842256D01*
X182406220Y-89026027D01*
X182546873Y-89166679D01*
X182619326Y-89196690D01*
X182469620Y-89296720D01*
X182359111Y-89462110D01*
X182320305Y-89657200D01*
X182320305Y-90419200D01*
X182359111Y-90614290D01*
X182469620Y-90779680D01*
X182635010Y-90890189D01*
X182709118Y-90904930D01*
X182734813Y-91034107D01*
X182867425Y-91232575D01*
X182917522Y-91266049D01*
X184300000Y-92648528D01*
X184300000Y-92879021D01*
X184437017Y-93209809D01*
X184690191Y-93462983D01*
X185020979Y-93600000D01*
X185251473Y-93600000D01*
X186750001Y-95098529D01*
X186750000Y-101901472D01*
X181501473Y-107150000D01*
X137898528Y-107150000D01*
X137416048Y-106667521D01*
X137382575Y-106617425D01*
X137184108Y-106484813D01*
X137009091Y-106450000D01*
X137009086Y-106450000D01*
X136950000Y-106438247D01*
X136890914Y-106450000D01*
X135609086Y-106450000D01*
X135550000Y-106438247D01*
X135490913Y-106450000D01*
X135490909Y-106450000D01*
X135315892Y-106484813D01*
X135117425Y-106617425D01*
X135083953Y-106667519D01*
X134601472Y-107150001D01*
X134409085Y-107150001D01*
X134349998Y-107138248D01*
X134290912Y-107150001D01*
X134290908Y-107150001D01*
X134115891Y-107184814D01*
X134018334Y-107250000D01*
X133770979Y-107250000D01*
X133440191Y-107387017D01*
X133187017Y-107640191D01*
X133050000Y-107970979D01*
X131750000Y-107970979D01*
X131750000Y-100420979D01*
X142050000Y-100420979D01*
X142050000Y-100779021D01*
X142187017Y-101109809D01*
X142440191Y-101362983D01*
X142770979Y-101500000D01*
X143129021Y-101500000D01*
X143459809Y-101362983D01*
X143622792Y-101200000D01*
X144840914Y-101200000D01*
X144850937Y-101201994D01*
X144937017Y-101409809D01*
X145190191Y-101662983D01*
X145520979Y-101800000D01*
X145879021Y-101800000D01*
X146209809Y-101662983D01*
X146462983Y-101409809D01*
X146570600Y-101150000D01*
X165190914Y-101150000D01*
X165250000Y-101161753D01*
X165309086Y-101150000D01*
X165309091Y-101150000D01*
X165484108Y-101115187D01*
X165682575Y-100982575D01*
X165716049Y-100932478D01*
X178767183Y-87881344D01*
X182330100Y-87881344D01*
X182330100Y-88231800D01*
X182455100Y-88356800D01*
X183295000Y-88356800D01*
X183295000Y-87605800D01*
X183305000Y-87605800D01*
X183305000Y-88356800D01*
X184144900Y-88356800D01*
X184150000Y-88351700D01*
X184155100Y-88356800D01*
X184995000Y-88356800D01*
X184995000Y-87605800D01*
X184870000Y-87480800D01*
X184430644Y-87480800D01*
X184246873Y-87556921D01*
X184150000Y-87653793D01*
X184053127Y-87556921D01*
X183869356Y-87480800D01*
X183430000Y-87480800D01*
X183305000Y-87605800D01*
X183295000Y-87605800D01*
X183170000Y-87480800D01*
X182730644Y-87480800D01*
X182546873Y-87556921D01*
X182406220Y-87697573D01*
X182330100Y-87881344D01*
X178767183Y-87881344D01*
X179982482Y-86666046D01*
X180032575Y-86632575D01*
X180154230Y-86450507D01*
X180165187Y-86434108D01*
X180171390Y-86402924D01*
X180200544Y-86415000D01*
X180485000Y-86415000D01*
X180610000Y-86290000D01*
X180610000Y-85505000D01*
X180620000Y-85505000D01*
X180620000Y-86290000D01*
X180745000Y-86415000D01*
X181029456Y-86415000D01*
X181213227Y-86338880D01*
X181353879Y-86198227D01*
X181430000Y-86014456D01*
X181430000Y-85630000D01*
X181305000Y-85505000D01*
X180620000Y-85505000D01*
X180610000Y-85505000D01*
X180590000Y-85505000D01*
X180590000Y-85495000D01*
X180610000Y-85495000D01*
X180610000Y-84710000D01*
X180620000Y-84710000D01*
X180620000Y-85495000D01*
X181305000Y-85495000D01*
X181430000Y-85370000D01*
X181430000Y-84985544D01*
X181353879Y-84801773D01*
X181213227Y-84661120D01*
X181029456Y-84585000D01*
X180745000Y-84585000D01*
X180620000Y-84710000D01*
X180610000Y-84710000D01*
X180485000Y-84585000D01*
X180200544Y-84585000D01*
X180200000Y-84585225D01*
X180200000Y-84372792D01*
X180362983Y-84209809D01*
X180500000Y-83879021D01*
X180500000Y-83651393D01*
X180604910Y-83494385D01*
X180639723Y-83319368D01*
X180639723Y-83319364D01*
X180651476Y-83260278D01*
X180639723Y-83201191D01*
X180639723Y-82795215D01*
X180664990Y-82790189D01*
X180830380Y-82679680D01*
X180850000Y-82650316D01*
X180869620Y-82679680D01*
X181035010Y-82790189D01*
X181230100Y-82828995D01*
X181800000Y-82828995D01*
X181800000Y-82979021D01*
X181937017Y-83309809D01*
X182190191Y-83562983D01*
X182520979Y-83700000D01*
X182879021Y-83700000D01*
X183209809Y-83562983D01*
X183462983Y-83309809D01*
X183600000Y-82979021D01*
X183600000Y-82620979D01*
X183462983Y-82290191D01*
X183209809Y-82037017D01*
X182879021Y-81900000D01*
X182679695Y-81900000D01*
X182679695Y-81557200D01*
X182640889Y-81362110D01*
X182530380Y-81196720D01*
X182380674Y-81096690D01*
X182453127Y-81066679D01*
X182593780Y-80926027D01*
X182669900Y-80742256D01*
X182669900Y-80391800D01*
X182544900Y-80266800D01*
X181705000Y-80266800D01*
X181705000Y-80286800D01*
X181695000Y-80286800D01*
X181695000Y-80266800D01*
X180855100Y-80266800D01*
X180850000Y-80271900D01*
X180844900Y-80266800D01*
X180005000Y-80266800D01*
X180005000Y-80286800D01*
X179995000Y-80286800D01*
X179995000Y-80266800D01*
X179155100Y-80266800D01*
X179150000Y-80271900D01*
X179144900Y-80266800D01*
X178305000Y-80266800D01*
X178305000Y-80286800D01*
X178295000Y-80286800D01*
X178295000Y-80266800D01*
X177455100Y-80266800D01*
X177330100Y-80391800D01*
X177330100Y-80742256D01*
X177406220Y-80926027D01*
X177546873Y-81066679D01*
X177619326Y-81096690D01*
X177469620Y-81196720D01*
X177359111Y-81362110D01*
X177320305Y-81557200D01*
X177320305Y-82319200D01*
X177359111Y-82514290D01*
X177469620Y-82679680D01*
X177635010Y-82790189D01*
X177700000Y-82803116D01*
X177700000Y-83027208D01*
X177537017Y-83190191D01*
X177400000Y-83520979D01*
X177400000Y-83751473D01*
X177052221Y-84099251D01*
X177002125Y-84132725D01*
X176869513Y-84331193D01*
X176834700Y-84506210D01*
X176834700Y-84506214D01*
X176822947Y-84565300D01*
X176834700Y-84624387D01*
X176834701Y-85440904D01*
X176822946Y-85500000D01*
X176834701Y-85559096D01*
X176834700Y-87516772D01*
X164801473Y-99550000D01*
X145409086Y-99550000D01*
X145349999Y-99538247D01*
X145290913Y-99550000D01*
X145290909Y-99550000D01*
X145115892Y-99584813D01*
X144917425Y-99717425D01*
X144883953Y-99767519D01*
X144651473Y-100000000D01*
X143622792Y-100000000D01*
X143459809Y-99837017D01*
X143129021Y-99700000D01*
X142770979Y-99700000D01*
X142440191Y-99837017D01*
X142187017Y-100090191D01*
X142050000Y-100420979D01*
X131750000Y-100420979D01*
X131750000Y-96061631D01*
X137155211Y-96061631D01*
X137155211Y-96419673D01*
X137292228Y-96750461D01*
X137545402Y-97003635D01*
X137876190Y-97140652D01*
X138133950Y-97140652D01*
X138170443Y-97228753D01*
X138171226Y-97229536D01*
X138154800Y-97245961D01*
X138017783Y-97576749D01*
X138017783Y-97934791D01*
X138154800Y-98265579D01*
X138407974Y-98518753D01*
X138738762Y-98655770D01*
X139096804Y-98655770D01*
X139427592Y-98518753D01*
X139680766Y-98265579D01*
X139763244Y-98066460D01*
X139902900Y-98124308D01*
X139837017Y-98190191D01*
X139700000Y-98520979D01*
X139700000Y-98879021D01*
X139837017Y-99209809D01*
X140090191Y-99462983D01*
X140420979Y-99600000D01*
X140779021Y-99600000D01*
X141109809Y-99462983D01*
X141362983Y-99209809D01*
X141415197Y-99083752D01*
X141416049Y-99082478D01*
X141997055Y-98501472D01*
X142374377Y-98501472D01*
X142374377Y-98859514D01*
X142511394Y-99190302D01*
X142764568Y-99443476D01*
X143095356Y-99580493D01*
X143453398Y-99580493D01*
X143597862Y-99520654D01*
X143740191Y-99662983D01*
X144070979Y-99800000D01*
X144429021Y-99800000D01*
X144759809Y-99662983D01*
X145012983Y-99409809D01*
X145150000Y-99079021D01*
X145150000Y-98720979D01*
X145026267Y-98422261D01*
X146048528Y-97400000D01*
X160906614Y-97400000D01*
X160965700Y-97411753D01*
X161024786Y-97400000D01*
X161024791Y-97400000D01*
X161199808Y-97365187D01*
X161398275Y-97232575D01*
X161431749Y-97182478D01*
X172396061Y-86218167D01*
X172516773Y-86338880D01*
X172700544Y-86415000D01*
X172985000Y-86415000D01*
X173110000Y-86290000D01*
X173110000Y-85505000D01*
X173120000Y-85505000D01*
X173120000Y-86290000D01*
X173245000Y-86415000D01*
X173529456Y-86415000D01*
X173713227Y-86338880D01*
X173853879Y-86198227D01*
X173930000Y-86014456D01*
X173930000Y-85630000D01*
X173805000Y-85505000D01*
X173120000Y-85505000D01*
X173110000Y-85505000D01*
X173090000Y-85505000D01*
X173090000Y-85495000D01*
X173110000Y-85495000D01*
X173110000Y-84710000D01*
X173120000Y-84710000D01*
X173120000Y-85495000D01*
X173805000Y-85495000D01*
X173930000Y-85370000D01*
X173930000Y-84985544D01*
X173853879Y-84801773D01*
X173713227Y-84661120D01*
X173529456Y-84585000D01*
X173245000Y-84585000D01*
X173120000Y-84710000D01*
X173110000Y-84710000D01*
X173000000Y-84600000D01*
X173000000Y-84372792D01*
X173162983Y-84209809D01*
X173300000Y-83879021D01*
X173300000Y-83520979D01*
X173162983Y-83190191D01*
X173000000Y-83027208D01*
X173000000Y-83012959D01*
X173114472Y-82990189D01*
X173274741Y-82883102D01*
X173435010Y-82990189D01*
X173630100Y-83028995D01*
X174200000Y-83028995D01*
X174200000Y-83079021D01*
X174337017Y-83409809D01*
X174590191Y-83662983D01*
X174920979Y-83800000D01*
X175279021Y-83800000D01*
X175609809Y-83662983D01*
X175862983Y-83409809D01*
X176000000Y-83079021D01*
X176000000Y-82720979D01*
X175862983Y-82390191D01*
X175609809Y-82137017D01*
X175279021Y-82000000D01*
X175079695Y-82000000D01*
X175079695Y-81757200D01*
X175040889Y-81562110D01*
X174930380Y-81396720D01*
X174780674Y-81296690D01*
X174853127Y-81266679D01*
X174993780Y-81126027D01*
X175069900Y-80942256D01*
X175069900Y-80591800D01*
X174944900Y-80466800D01*
X174105000Y-80466800D01*
X174105000Y-80486800D01*
X174095000Y-80486800D01*
X174095000Y-80466800D01*
X172454482Y-80466800D01*
X172454482Y-80486800D01*
X172444482Y-80486800D01*
X172444482Y-80466800D01*
X170805000Y-80466800D01*
X170805000Y-80486800D01*
X170795000Y-80486800D01*
X170795000Y-80466800D01*
X169955100Y-80466800D01*
X169830100Y-80591800D01*
X169830100Y-80942256D01*
X169906220Y-81126027D01*
X170046873Y-81266679D01*
X170119326Y-81296690D01*
X169969620Y-81396720D01*
X169859111Y-81562110D01*
X169820305Y-81757200D01*
X169820305Y-82519200D01*
X169859111Y-82714290D01*
X169969620Y-82879680D01*
X170135010Y-82990189D01*
X170149483Y-82993068D01*
X170149483Y-83177725D01*
X170137017Y-83190191D01*
X170000000Y-83520979D01*
X170000000Y-83751473D01*
X169652221Y-84099251D01*
X169602125Y-84132725D01*
X169469513Y-84331193D01*
X169434700Y-84506210D01*
X169434700Y-84506214D01*
X169422947Y-84565300D01*
X169434700Y-84624387D01*
X169434701Y-85440904D01*
X169422946Y-85500000D01*
X169434700Y-85559090D01*
X169434701Y-86866771D01*
X160501482Y-95799991D01*
X145613967Y-95799991D01*
X145554879Y-95788238D01*
X145495791Y-95799991D01*
X145495788Y-95799991D01*
X145362566Y-95826490D01*
X145320770Y-95834804D01*
X145172398Y-95933944D01*
X145122304Y-95967416D01*
X145088832Y-96017510D01*
X143325850Y-97780493D01*
X143095356Y-97780493D01*
X142764568Y-97917510D01*
X142511394Y-98170684D01*
X142374377Y-98501472D01*
X141997055Y-98501472D01*
X150898529Y-89600000D01*
X161340914Y-89600000D01*
X161400000Y-89611753D01*
X161459086Y-89600000D01*
X161459091Y-89600000D01*
X161634108Y-89565187D01*
X161832575Y-89432575D01*
X161866049Y-89382478D01*
X165068558Y-86179969D01*
X165076121Y-86198227D01*
X165216773Y-86338880D01*
X165400544Y-86415000D01*
X165685000Y-86415000D01*
X165810000Y-86290000D01*
X165810000Y-85505000D01*
X165820000Y-85505000D01*
X165820000Y-86290000D01*
X165945000Y-86415000D01*
X166229456Y-86415000D01*
X166413227Y-86338880D01*
X166553879Y-86198227D01*
X166630000Y-86014456D01*
X166630000Y-85630000D01*
X166505000Y-85505000D01*
X165820000Y-85505000D01*
X165810000Y-85505000D01*
X165790000Y-85505000D01*
X165790000Y-85495000D01*
X165810000Y-85495000D01*
X165810000Y-84710000D01*
X165820000Y-84710000D01*
X165820000Y-85495000D01*
X166505000Y-85495000D01*
X166630000Y-85370000D01*
X166630000Y-84985544D01*
X166553879Y-84801773D01*
X166413227Y-84661120D01*
X166229456Y-84585000D01*
X165945000Y-84585000D01*
X165820000Y-84710000D01*
X165810000Y-84710000D01*
X165750000Y-84650000D01*
X165750000Y-84372792D01*
X165912983Y-84209809D01*
X166050000Y-83879021D01*
X166050000Y-83520979D01*
X165912983Y-83190191D01*
X165750000Y-83027208D01*
X165750000Y-82803116D01*
X165814990Y-82790189D01*
X165980380Y-82679680D01*
X166025000Y-82612901D01*
X166069620Y-82679680D01*
X166235010Y-82790189D01*
X166430100Y-82828995D01*
X166680468Y-82828995D01*
X166700000Y-82848527D01*
X166700000Y-83079021D01*
X166837017Y-83409809D01*
X167090191Y-83662983D01*
X167420979Y-83800000D01*
X167779021Y-83800000D01*
X168109809Y-83662983D01*
X168362983Y-83409809D01*
X168500000Y-83079021D01*
X168500000Y-82720979D01*
X168362983Y-82390191D01*
X168109809Y-82137017D01*
X167879695Y-82041701D01*
X167879695Y-81557200D01*
X167840889Y-81362110D01*
X167730380Y-81196720D01*
X167580674Y-81096690D01*
X167653127Y-81066679D01*
X167793780Y-80926027D01*
X167869900Y-80742256D01*
X167869900Y-80391800D01*
X167744900Y-80266800D01*
X166905000Y-80266800D01*
X166905000Y-80286800D01*
X166895000Y-80286800D01*
X166895000Y-80266800D01*
X166055100Y-80266800D01*
X166025000Y-80296900D01*
X165994900Y-80266800D01*
X165155000Y-80266800D01*
X165155000Y-80286800D01*
X165145000Y-80286800D01*
X165145000Y-80266800D01*
X164305100Y-80266800D01*
X164275000Y-80296900D01*
X164244900Y-80266800D01*
X163405000Y-80266800D01*
X163405000Y-80286800D01*
X163395000Y-80286800D01*
X163395000Y-80266800D01*
X162555100Y-80266800D01*
X162430100Y-80391800D01*
X162430100Y-80742256D01*
X162506220Y-80926027D01*
X162646873Y-81066679D01*
X162719326Y-81096690D01*
X162569620Y-81196720D01*
X162459111Y-81362110D01*
X162420305Y-81557200D01*
X162420305Y-82319200D01*
X162459111Y-82514290D01*
X162569620Y-82679680D01*
X162735010Y-82790189D01*
X162900001Y-82823008D01*
X162900000Y-83027208D01*
X162737017Y-83190191D01*
X162600000Y-83520979D01*
X162600000Y-83879021D01*
X162602396Y-83884806D01*
X162017521Y-84469681D01*
X161967425Y-84503155D01*
X161933953Y-84553249D01*
X158487213Y-87999990D01*
X156148537Y-87999990D01*
X157082481Y-87066047D01*
X157132575Y-87032575D01*
X157265187Y-86834108D01*
X157300000Y-86659091D01*
X157300000Y-86659087D01*
X157311753Y-86600001D01*
X157300000Y-86540914D01*
X157300000Y-86222106D01*
X157416773Y-86338880D01*
X157600544Y-86415000D01*
X157885000Y-86415000D01*
X158010000Y-86290000D01*
X158010000Y-85505000D01*
X158020000Y-85505000D01*
X158020000Y-86290000D01*
X158145000Y-86415000D01*
X158429456Y-86415000D01*
X158613227Y-86338880D01*
X158753879Y-86198227D01*
X158830000Y-86014456D01*
X158830000Y-85630000D01*
X158705000Y-85505000D01*
X158020000Y-85505000D01*
X158010000Y-85505000D01*
X157990000Y-85505000D01*
X157990000Y-85495000D01*
X158010000Y-85495000D01*
X158010000Y-84710000D01*
X158020000Y-84710000D01*
X158020000Y-85495000D01*
X158705000Y-85495000D01*
X158830000Y-85370000D01*
X158830000Y-84985544D01*
X158753879Y-84801773D01*
X158613227Y-84661120D01*
X158429456Y-84585000D01*
X158145000Y-84585000D01*
X158020000Y-84710000D01*
X158010000Y-84710000D01*
X157889582Y-84589582D01*
X157929011Y-84589582D01*
X158259799Y-84452565D01*
X158512973Y-84199391D01*
X158649990Y-83868603D01*
X158649990Y-83510561D01*
X158512973Y-83179773D01*
X158259799Y-82926599D01*
X158150000Y-82881119D01*
X158150000Y-82703116D01*
X158214990Y-82690189D01*
X158375000Y-82583275D01*
X158535010Y-82690189D01*
X158730100Y-82728995D01*
X159380468Y-82728995D01*
X159400000Y-82748528D01*
X159400000Y-82979021D01*
X159537017Y-83309809D01*
X159790191Y-83562983D01*
X160120979Y-83700000D01*
X160479021Y-83700000D01*
X160809809Y-83562983D01*
X161062983Y-83309809D01*
X161200000Y-82979021D01*
X161200000Y-82620979D01*
X161062983Y-82290191D01*
X160809809Y-82037017D01*
X160479021Y-81900000D01*
X160248528Y-81900000D01*
X160179695Y-81831168D01*
X160179695Y-81457200D01*
X160140889Y-81262110D01*
X160030380Y-81096720D01*
X159880674Y-80996690D01*
X159953127Y-80966679D01*
X160093780Y-80826027D01*
X160169900Y-80642256D01*
X160169900Y-80291800D01*
X160044900Y-80166800D01*
X159205000Y-80166800D01*
X159205000Y-80186800D01*
X159195000Y-80186800D01*
X159195000Y-80166800D01*
X157555000Y-80166800D01*
X157555000Y-80186800D01*
X157545000Y-80186800D01*
X157545000Y-80166800D01*
X157525000Y-80166800D01*
X157525000Y-80156800D01*
X157545000Y-80156800D01*
X157545000Y-79405800D01*
X157555000Y-79405800D01*
X157555000Y-80156800D01*
X159195000Y-80156800D01*
X159195000Y-79405800D01*
X159205000Y-79405800D01*
X159205000Y-80156800D01*
X160044900Y-80156800D01*
X160169900Y-80031800D01*
X160169900Y-79781344D01*
X162430100Y-79781344D01*
X162430100Y-80131800D01*
X162555100Y-80256800D01*
X163395000Y-80256800D01*
X163395000Y-79505800D01*
X163405000Y-79505800D01*
X163405000Y-80256800D01*
X164244900Y-80256800D01*
X164275000Y-80226700D01*
X164305100Y-80256800D01*
X165145000Y-80256800D01*
X165145000Y-79505800D01*
X165155000Y-79505800D01*
X165155000Y-80256800D01*
X165994900Y-80256800D01*
X166025000Y-80226700D01*
X166055100Y-80256800D01*
X166895000Y-80256800D01*
X166895000Y-79505800D01*
X166905000Y-79505800D01*
X166905000Y-80256800D01*
X167744900Y-80256800D01*
X167869900Y-80131800D01*
X167869900Y-79981344D01*
X169830100Y-79981344D01*
X169830100Y-80331800D01*
X169955100Y-80456800D01*
X170795000Y-80456800D01*
X170795000Y-79705800D01*
X170805000Y-79705800D01*
X170805000Y-80456800D01*
X172444482Y-80456800D01*
X172444482Y-79705800D01*
X172454482Y-79705800D01*
X172454482Y-80456800D01*
X174095000Y-80456800D01*
X174095000Y-79705800D01*
X174105000Y-79705800D01*
X174105000Y-80456800D01*
X174944900Y-80456800D01*
X175069900Y-80331800D01*
X175069900Y-79981344D01*
X174993780Y-79797573D01*
X174977551Y-79781344D01*
X177330100Y-79781344D01*
X177330100Y-80131800D01*
X177455100Y-80256800D01*
X178295000Y-80256800D01*
X178295000Y-79505800D01*
X178305000Y-79505800D01*
X178305000Y-80256800D01*
X179144900Y-80256800D01*
X179150000Y-80251700D01*
X179155100Y-80256800D01*
X179995000Y-80256800D01*
X179995000Y-79505800D01*
X180005000Y-79505800D01*
X180005000Y-80256800D01*
X180844900Y-80256800D01*
X180850000Y-80251700D01*
X180855100Y-80256800D01*
X181695000Y-80256800D01*
X181695000Y-79505800D01*
X181705000Y-79505800D01*
X181705000Y-80256800D01*
X182544900Y-80256800D01*
X182669900Y-80131800D01*
X182669900Y-79781344D01*
X182628479Y-79681344D01*
X199830100Y-79681344D01*
X199830100Y-80031800D01*
X199955100Y-80156800D01*
X200795000Y-80156800D01*
X200795000Y-79405800D01*
X200805000Y-79405800D01*
X200805000Y-80156800D01*
X202445000Y-80156800D01*
X202445000Y-79405800D01*
X202455000Y-79405800D01*
X202455000Y-80156800D01*
X204095000Y-80156800D01*
X204095000Y-79405800D01*
X204105000Y-79405800D01*
X204105000Y-80156800D01*
X204944900Y-80156800D01*
X205069900Y-80031800D01*
X205069900Y-79681344D01*
X204993780Y-79497573D01*
X204853127Y-79356921D01*
X204669356Y-79280800D01*
X204230000Y-79280800D01*
X204105000Y-79405800D01*
X204095000Y-79405800D01*
X203970000Y-79280800D01*
X203530644Y-79280800D01*
X203346873Y-79356921D01*
X203275000Y-79428793D01*
X203203127Y-79356921D01*
X203019356Y-79280800D01*
X202580000Y-79280800D01*
X202455000Y-79405800D01*
X202445000Y-79405800D01*
X202320000Y-79280800D01*
X201880644Y-79280800D01*
X201696873Y-79356921D01*
X201625000Y-79428793D01*
X201553127Y-79356921D01*
X201369356Y-79280800D01*
X200930000Y-79280800D01*
X200805000Y-79405800D01*
X200795000Y-79405800D01*
X200670000Y-79280800D01*
X200230644Y-79280800D01*
X200046873Y-79356921D01*
X199906220Y-79497573D01*
X199830100Y-79681344D01*
X182628479Y-79681344D01*
X182593780Y-79597573D01*
X182453127Y-79456921D01*
X182269356Y-79380800D01*
X181830000Y-79380800D01*
X181705000Y-79505800D01*
X181695000Y-79505800D01*
X181570000Y-79380800D01*
X181130644Y-79380800D01*
X180946873Y-79456921D01*
X180850000Y-79553793D01*
X180753127Y-79456921D01*
X180569356Y-79380800D01*
X180130000Y-79380800D01*
X180005000Y-79505800D01*
X179995000Y-79505800D01*
X179870000Y-79380800D01*
X179430644Y-79380800D01*
X179246873Y-79456921D01*
X179150000Y-79553793D01*
X179053127Y-79456921D01*
X178869356Y-79380800D01*
X178430000Y-79380800D01*
X178305000Y-79505800D01*
X178295000Y-79505800D01*
X178170000Y-79380800D01*
X177730644Y-79380800D01*
X177546873Y-79456921D01*
X177406220Y-79597573D01*
X177330100Y-79781344D01*
X174977551Y-79781344D01*
X174853127Y-79656921D01*
X174669356Y-79580800D01*
X174230000Y-79580800D01*
X174105000Y-79705800D01*
X174095000Y-79705800D01*
X173970000Y-79580800D01*
X173530644Y-79580800D01*
X173346873Y-79656921D01*
X173274741Y-79729052D01*
X173202609Y-79656921D01*
X173018838Y-79580800D01*
X172579482Y-79580800D01*
X172454482Y-79705800D01*
X172444482Y-79705800D01*
X172319482Y-79580800D01*
X171880126Y-79580800D01*
X171696355Y-79656921D01*
X171624741Y-79728534D01*
X171553127Y-79656921D01*
X171369356Y-79580800D01*
X170930000Y-79580800D01*
X170805000Y-79705800D01*
X170795000Y-79705800D01*
X170670000Y-79580800D01*
X170230644Y-79580800D01*
X170046873Y-79656921D01*
X169906220Y-79797573D01*
X169830100Y-79981344D01*
X167869900Y-79981344D01*
X167869900Y-79781344D01*
X167793780Y-79597573D01*
X167653127Y-79456921D01*
X167469356Y-79380800D01*
X167030000Y-79380800D01*
X166905000Y-79505800D01*
X166895000Y-79505800D01*
X166770000Y-79380800D01*
X166330644Y-79380800D01*
X166146873Y-79456921D01*
X166025000Y-79578793D01*
X165903127Y-79456921D01*
X165719356Y-79380800D01*
X165280000Y-79380800D01*
X165155000Y-79505800D01*
X165145000Y-79505800D01*
X165020000Y-79380800D01*
X164580644Y-79380800D01*
X164396873Y-79456921D01*
X164275000Y-79578793D01*
X164153127Y-79456921D01*
X163969356Y-79380800D01*
X163530000Y-79380800D01*
X163405000Y-79505800D01*
X163395000Y-79505800D01*
X163270000Y-79380800D01*
X162830644Y-79380800D01*
X162646873Y-79456921D01*
X162506220Y-79597573D01*
X162430100Y-79781344D01*
X160169900Y-79781344D01*
X160169900Y-79681344D01*
X160093780Y-79497573D01*
X159953127Y-79356921D01*
X159769356Y-79280800D01*
X159330000Y-79280800D01*
X159205000Y-79405800D01*
X159195000Y-79405800D01*
X159070000Y-79280800D01*
X158630644Y-79280800D01*
X158446873Y-79356921D01*
X158375000Y-79428793D01*
X158303127Y-79356921D01*
X158119356Y-79280800D01*
X157680000Y-79280800D01*
X157555000Y-79405800D01*
X157545000Y-79405800D01*
X157420000Y-79280800D01*
X156980644Y-79280800D01*
X156796873Y-79356921D01*
X156719100Y-79434693D01*
X156653127Y-79368721D01*
X156469356Y-79292600D01*
X156030000Y-79292600D01*
X155905000Y-79417600D01*
X155905000Y-80168600D01*
X155925000Y-80168600D01*
X155925000Y-80178600D01*
X155905000Y-80178600D01*
X155905000Y-80198600D01*
X155895000Y-80198600D01*
X155895000Y-80178600D01*
X155055100Y-80178600D01*
X154930100Y-80303600D01*
X154930100Y-80654056D01*
X155006220Y-80837827D01*
X155146873Y-80978479D01*
X155219326Y-81008490D01*
X155069620Y-81108520D01*
X154959111Y-81273910D01*
X154920305Y-81469000D01*
X154920305Y-82231000D01*
X154959111Y-82426090D01*
X155069620Y-82591480D01*
X155235010Y-82701989D01*
X155250001Y-82704971D01*
X155250001Y-83390909D01*
X155246420Y-83408911D01*
X155200000Y-83520979D01*
X155200000Y-83751471D01*
X154417520Y-84533953D01*
X154367425Y-84567425D01*
X154333952Y-84617521D01*
X154317522Y-84633951D01*
X154317519Y-84633953D01*
X154032809Y-84918664D01*
X153951622Y-84934813D01*
X153753155Y-85067425D01*
X153719683Y-85117519D01*
X151637235Y-87199968D01*
X150212019Y-87199968D01*
X150152933Y-87188215D01*
X150100000Y-87198744D01*
X150100000Y-86373354D01*
X150200544Y-86415000D01*
X150485000Y-86415000D01*
X150610000Y-86290000D01*
X150610000Y-85505000D01*
X150620000Y-85505000D01*
X150620000Y-86290000D01*
X150745000Y-86415000D01*
X151029456Y-86415000D01*
X151213227Y-86338880D01*
X151353879Y-86198227D01*
X151430000Y-86014456D01*
X151430000Y-85630000D01*
X151305000Y-85505000D01*
X150620000Y-85505000D01*
X150610000Y-85505000D01*
X150590000Y-85505000D01*
X150590000Y-85495000D01*
X150610000Y-85495000D01*
X150610000Y-85475000D01*
X150620000Y-85475000D01*
X150620000Y-85495000D01*
X151305000Y-85495000D01*
X151430000Y-85370000D01*
X151430000Y-84985544D01*
X151353879Y-84801773D01*
X151213227Y-84661120D01*
X151029456Y-84585000D01*
X150745000Y-84585000D01*
X150620002Y-84709998D01*
X150620002Y-84628526D01*
X150697677Y-84550851D01*
X150909809Y-84462983D01*
X151162983Y-84209809D01*
X151300000Y-83879021D01*
X151300000Y-83520979D01*
X151162983Y-83190191D01*
X150950000Y-82977208D01*
X150950000Y-82703116D01*
X151014990Y-82690189D01*
X151180380Y-82579680D01*
X151225000Y-82512901D01*
X151269620Y-82579680D01*
X151435010Y-82690189D01*
X151506836Y-82704476D01*
X151500000Y-82720979D01*
X151500000Y-83079021D01*
X151637017Y-83409809D01*
X151890191Y-83662983D01*
X152220979Y-83800000D01*
X152579021Y-83800000D01*
X152909809Y-83662983D01*
X153162983Y-83409809D01*
X153300000Y-83079021D01*
X153300000Y-82720979D01*
X153162983Y-82390191D01*
X153065144Y-82292352D01*
X153079695Y-82219200D01*
X153079695Y-81457200D01*
X153040889Y-81262110D01*
X152930380Y-81096720D01*
X152780674Y-80996690D01*
X152853127Y-80966679D01*
X152993780Y-80826027D01*
X153069900Y-80642256D01*
X153069900Y-80291800D01*
X152944900Y-80166800D01*
X152105000Y-80166800D01*
X152105000Y-80186800D01*
X152095000Y-80186800D01*
X152095000Y-80166800D01*
X151255100Y-80166800D01*
X151225000Y-80196900D01*
X151194900Y-80166800D01*
X150355000Y-80166800D01*
X150355000Y-80186800D01*
X150345000Y-80186800D01*
X150345000Y-80166800D01*
X149505100Y-80166800D01*
X149500000Y-80171900D01*
X149494900Y-80166800D01*
X148655000Y-80166800D01*
X148655000Y-80186800D01*
X148645000Y-80186800D01*
X148645000Y-80166800D01*
X147805100Y-80166800D01*
X147680100Y-80291800D01*
X147680100Y-80642256D01*
X147756220Y-80826027D01*
X147896873Y-80966679D01*
X147969326Y-80996690D01*
X147819620Y-81096720D01*
X147709111Y-81262110D01*
X147670305Y-81457200D01*
X147670305Y-82219200D01*
X147709111Y-82414290D01*
X147819620Y-82579680D01*
X147985010Y-82690189D01*
X148070077Y-82707110D01*
X147937017Y-82840170D01*
X147800000Y-83170958D01*
X147800000Y-83529000D01*
X147808317Y-83549078D01*
X147800000Y-83590889D01*
X147800000Y-83590893D01*
X147788247Y-83649979D01*
X147800000Y-83709066D01*
X147800001Y-84664063D01*
X147709520Y-84724520D01*
X147599011Y-84889910D01*
X147560205Y-85085000D01*
X147560205Y-85915000D01*
X147599011Y-86110090D01*
X147709520Y-86275480D01*
X147800000Y-86335937D01*
X147800001Y-88172972D01*
X141122974Y-94850000D01*
X138904951Y-94850000D01*
X138845863Y-94838247D01*
X138786775Y-94850000D01*
X138786772Y-94850000D01*
X138653550Y-94876499D01*
X138611754Y-94884813D01*
X138463382Y-94983953D01*
X138413288Y-95017425D01*
X138379816Y-95067519D01*
X138106683Y-95340652D01*
X137876190Y-95340652D01*
X137545402Y-95477669D01*
X137292228Y-95730843D01*
X137155211Y-96061631D01*
X131750000Y-96061631D01*
X131750000Y-79681344D01*
X147680100Y-79681344D01*
X147680100Y-80031800D01*
X147805100Y-80156800D01*
X148645000Y-80156800D01*
X148645000Y-79405800D01*
X148655000Y-79405800D01*
X148655000Y-80156800D01*
X149494900Y-80156800D01*
X149500000Y-80151700D01*
X149505100Y-80156800D01*
X150345000Y-80156800D01*
X150345000Y-79405800D01*
X150355000Y-79405800D01*
X150355000Y-80156800D01*
X151194900Y-80156800D01*
X151225000Y-80126700D01*
X151255100Y-80156800D01*
X152095000Y-80156800D01*
X152095000Y-79405800D01*
X152105000Y-79405800D01*
X152105000Y-80156800D01*
X152944900Y-80156800D01*
X153069900Y-80031800D01*
X153069900Y-79693144D01*
X154930100Y-79693144D01*
X154930100Y-80043600D01*
X155055100Y-80168600D01*
X155895000Y-80168600D01*
X155895000Y-79417600D01*
X155770000Y-79292600D01*
X155330644Y-79292600D01*
X155146873Y-79368721D01*
X155006220Y-79509373D01*
X154930100Y-79693144D01*
X153069900Y-79693144D01*
X153069900Y-79681344D01*
X152993780Y-79497573D01*
X152853127Y-79356921D01*
X152669356Y-79280800D01*
X152230000Y-79280800D01*
X152105000Y-79405800D01*
X152095000Y-79405800D01*
X151970000Y-79280800D01*
X151530644Y-79280800D01*
X151346873Y-79356921D01*
X151225000Y-79478793D01*
X151103127Y-79356921D01*
X150919356Y-79280800D01*
X150480000Y-79280800D01*
X150355000Y-79405800D01*
X150345000Y-79405800D01*
X150220000Y-79280800D01*
X149780644Y-79280800D01*
X149596873Y-79356921D01*
X149500000Y-79453793D01*
X149403127Y-79356921D01*
X149219356Y-79280800D01*
X148780000Y-79280800D01*
X148655000Y-79405800D01*
X148645000Y-79405800D01*
X148520000Y-79280800D01*
X148080644Y-79280800D01*
X147896873Y-79356921D01*
X147756220Y-79497573D01*
X147680100Y-79681344D01*
X131750000Y-79681344D01*
X131750000Y-71899701D01*
X140798990Y-71899701D01*
X140798990Y-72695299D01*
X141103452Y-73430335D01*
X141666025Y-73992908D01*
X142401061Y-74297370D01*
X143196659Y-74297370D01*
X143931695Y-73992908D01*
X144494268Y-73430335D01*
X144798730Y-72695299D01*
X144798730Y-71899701D01*
X191197670Y-71899701D01*
X191197670Y-72695299D01*
X191502132Y-73430335D01*
X192064705Y-73992908D01*
X192799741Y-74297370D01*
X193595339Y-74297370D01*
X194330375Y-73992908D01*
X194892948Y-73430335D01*
X195197410Y-72695299D01*
X195197410Y-71899701D01*
X194892948Y-71164665D01*
X194330375Y-70602092D01*
X193595339Y-70297630D01*
X192799741Y-70297630D01*
X192064705Y-70602092D01*
X191502132Y-71164665D01*
X191197670Y-71899701D01*
X144798730Y-71899701D01*
X144494268Y-71164665D01*
X143931695Y-70602092D01*
X143196659Y-70297630D01*
X142401061Y-70297630D01*
X141666025Y-70602092D01*
X141103452Y-71164665D01*
X140798990Y-71899701D01*
X131750000Y-71899701D01*
X131750000Y-68635089D01*
X152188350Y-68635089D01*
X152188350Y-69355911D01*
X152464197Y-70021864D01*
X152973896Y-70531563D01*
X153639849Y-70807410D01*
X154360671Y-70807410D01*
X155026624Y-70531563D01*
X155536323Y-70021864D01*
X155812170Y-69355911D01*
X155812170Y-68635089D01*
X156186310Y-68635089D01*
X156186310Y-69355911D01*
X156462157Y-70021864D01*
X156971856Y-70531563D01*
X157637809Y-70807410D01*
X158358631Y-70807410D01*
X159024584Y-70531563D01*
X159534283Y-70021864D01*
X159810130Y-69355911D01*
X159810130Y-68635089D01*
X160186810Y-68635089D01*
X160186810Y-69355911D01*
X160462657Y-70021864D01*
X160972356Y-70531563D01*
X161638309Y-70807410D01*
X162359131Y-70807410D01*
X163025084Y-70531563D01*
X163534783Y-70021864D01*
X163810630Y-69355911D01*
X163810630Y-68635089D01*
X164187310Y-68635089D01*
X164187310Y-69355911D01*
X164463157Y-70021864D01*
X164972856Y-70531563D01*
X165638809Y-70807410D01*
X166359631Y-70807410D01*
X167025584Y-70531563D01*
X167535283Y-70021864D01*
X167811130Y-69355911D01*
X167811130Y-68635089D01*
X168185270Y-68635089D01*
X168185270Y-69355911D01*
X168461117Y-70021864D01*
X168970816Y-70531563D01*
X169636769Y-70807410D01*
X170357591Y-70807410D01*
X171023544Y-70531563D01*
X171533243Y-70021864D01*
X171809090Y-69355911D01*
X171809090Y-68635089D01*
X172185770Y-68635089D01*
X172185770Y-69355911D01*
X172461617Y-70021864D01*
X172971316Y-70531563D01*
X173637269Y-70807410D01*
X174358091Y-70807410D01*
X175024044Y-70531563D01*
X175533743Y-70021864D01*
X175809590Y-69355911D01*
X175809590Y-68635089D01*
X176186270Y-68635089D01*
X176186270Y-69355911D01*
X176462117Y-70021864D01*
X176971816Y-70531563D01*
X177637769Y-70807410D01*
X178358591Y-70807410D01*
X179024544Y-70531563D01*
X179534243Y-70021864D01*
X179810090Y-69355911D01*
X179810090Y-68635089D01*
X180184230Y-68635089D01*
X180184230Y-69355911D01*
X180460077Y-70021864D01*
X180969776Y-70531563D01*
X181635729Y-70807410D01*
X182356551Y-70807410D01*
X183022504Y-70531563D01*
X183532203Y-70021864D01*
X183808050Y-69355911D01*
X183808050Y-68635089D01*
X183532203Y-67969136D01*
X183022504Y-67459437D01*
X182356551Y-67183590D01*
X181635729Y-67183590D01*
X180969776Y-67459437D01*
X180460077Y-67969136D01*
X180184230Y-68635089D01*
X179810090Y-68635089D01*
X179534243Y-67969136D01*
X179024544Y-67459437D01*
X178358591Y-67183590D01*
X177637769Y-67183590D01*
X176971816Y-67459437D01*
X176462117Y-67969136D01*
X176186270Y-68635089D01*
X175809590Y-68635089D01*
X175533743Y-67969136D01*
X175024044Y-67459437D01*
X174358091Y-67183590D01*
X173637269Y-67183590D01*
X172971316Y-67459437D01*
X172461617Y-67969136D01*
X172185770Y-68635089D01*
X171809090Y-68635089D01*
X171533243Y-67969136D01*
X171023544Y-67459437D01*
X170357591Y-67183590D01*
X169636769Y-67183590D01*
X168970816Y-67459437D01*
X168461117Y-67969136D01*
X168185270Y-68635089D01*
X167811130Y-68635089D01*
X167535283Y-67969136D01*
X167025584Y-67459437D01*
X166359631Y-67183590D01*
X165638809Y-67183590D01*
X164972856Y-67459437D01*
X164463157Y-67969136D01*
X164187310Y-68635089D01*
X163810630Y-68635089D01*
X163534783Y-67969136D01*
X163025084Y-67459437D01*
X162359131Y-67183590D01*
X161638309Y-67183590D01*
X160972356Y-67459437D01*
X160462657Y-67969136D01*
X160186810Y-68635089D01*
X159810130Y-68635089D01*
X159534283Y-67969136D01*
X159024584Y-67459437D01*
X158358631Y-67183590D01*
X157637809Y-67183590D01*
X156971856Y-67459437D01*
X156462157Y-67969136D01*
X156186310Y-68635089D01*
X155812170Y-68635089D01*
X155536323Y-67969136D01*
X155026624Y-67459437D01*
X154360671Y-67183590D01*
X153639849Y-67183590D01*
X152973896Y-67459437D01*
X152464197Y-67969136D01*
X152188350Y-68635089D01*
X131750000Y-68635089D01*
X131750000Y-64637129D01*
X154187330Y-64637129D01*
X154187330Y-65357951D01*
X154463177Y-66023904D01*
X154972876Y-66533603D01*
X155638829Y-66809450D01*
X156359651Y-66809450D01*
X157025604Y-66533603D01*
X157535303Y-66023904D01*
X157811150Y-65357951D01*
X157811150Y-64637129D01*
X158187830Y-64637129D01*
X158187830Y-65357951D01*
X158463677Y-66023904D01*
X158973376Y-66533603D01*
X159639329Y-66809450D01*
X160360151Y-66809450D01*
X161026104Y-66533603D01*
X161535803Y-66023904D01*
X161811650Y-65357951D01*
X161811650Y-64637129D01*
X162188330Y-64637129D01*
X162188330Y-65357951D01*
X162464177Y-66023904D01*
X162973876Y-66533603D01*
X163639829Y-66809450D01*
X164360651Y-66809450D01*
X165026604Y-66533603D01*
X165536303Y-66023904D01*
X165812150Y-65357951D01*
X165812150Y-64637129D01*
X166186290Y-64637129D01*
X166186290Y-65357951D01*
X166462137Y-66023904D01*
X166971836Y-66533603D01*
X167637789Y-66809450D01*
X168358611Y-66809450D01*
X169024564Y-66533603D01*
X169534263Y-66023904D01*
X169810110Y-65357951D01*
X169810110Y-64637129D01*
X170184250Y-64637129D01*
X170184250Y-65357951D01*
X170460097Y-66023904D01*
X170969796Y-66533603D01*
X171635749Y-66809450D01*
X172356571Y-66809450D01*
X173022524Y-66533603D01*
X173532223Y-66023904D01*
X173808070Y-65357951D01*
X173808070Y-64637129D01*
X174184750Y-64637129D01*
X174184750Y-65357951D01*
X174460597Y-66023904D01*
X174970296Y-66533603D01*
X175636249Y-66809450D01*
X176357071Y-66809450D01*
X177023024Y-66533603D01*
X177532723Y-66023904D01*
X177808570Y-65357951D01*
X177808570Y-64637129D01*
X178185250Y-64637129D01*
X178185250Y-65357951D01*
X178461097Y-66023904D01*
X178970796Y-66533603D01*
X179636749Y-66809450D01*
X180357571Y-66809450D01*
X181023524Y-66533603D01*
X181533223Y-66023904D01*
X181809070Y-65357951D01*
X181809070Y-64637129D01*
X181533223Y-63971176D01*
X181023524Y-63461477D01*
X180357571Y-63185630D01*
X179636749Y-63185630D01*
X178970796Y-63461477D01*
X178461097Y-63971176D01*
X178185250Y-64637129D01*
X177808570Y-64637129D01*
X177532723Y-63971176D01*
X177023024Y-63461477D01*
X176357071Y-63185630D01*
X175636249Y-63185630D01*
X174970296Y-63461477D01*
X174460597Y-63971176D01*
X174184750Y-64637129D01*
X173808070Y-64637129D01*
X173532223Y-63971176D01*
X173022524Y-63461477D01*
X172356571Y-63185630D01*
X171635749Y-63185630D01*
X170969796Y-63461477D01*
X170460097Y-63971176D01*
X170184250Y-64637129D01*
X169810110Y-64637129D01*
X169534263Y-63971176D01*
X169024564Y-63461477D01*
X168358611Y-63185630D01*
X167637789Y-63185630D01*
X166971836Y-63461477D01*
X166462137Y-63971176D01*
X166186290Y-64637129D01*
X165812150Y-64637129D01*
X165536303Y-63971176D01*
X165026604Y-63461477D01*
X164360651Y-63185630D01*
X163639829Y-63185630D01*
X162973876Y-63461477D01*
X162464177Y-63971176D01*
X162188330Y-64637129D01*
X161811650Y-64637129D01*
X161535803Y-63971176D01*
X161026104Y-63461477D01*
X160360151Y-63185630D01*
X159639329Y-63185630D01*
X158973376Y-63461477D01*
X158463677Y-63971176D01*
X158187830Y-64637129D01*
X157811150Y-64637129D01*
X157535303Y-63971176D01*
X157025604Y-63461477D01*
X156359651Y-63185630D01*
X155638829Y-63185630D01*
X154972876Y-63461477D01*
X154463177Y-63971176D01*
X154187330Y-64637129D01*
X131750000Y-64637129D01*
X131750000Y-59820979D01*
X140150000Y-59820979D01*
X140150000Y-60179021D01*
X140287017Y-60509809D01*
X140540191Y-60762983D01*
X140870979Y-60900000D01*
X141229021Y-60900000D01*
X141559809Y-60762983D01*
X141722792Y-60600000D01*
X143901473Y-60600000D01*
X146000000Y-62698528D01*
X146000000Y-62929021D01*
X146137017Y-63259809D01*
X146390191Y-63512983D01*
X146720979Y-63650000D01*
X147079021Y-63650000D01*
X147409809Y-63512983D01*
X147662983Y-63259809D01*
X147800000Y-62929021D01*
X147800000Y-62570979D01*
X147662983Y-62240191D01*
X147409809Y-61987017D01*
X147079021Y-61850000D01*
X146848528Y-61850000D01*
X144686198Y-59687670D01*
X152178555Y-59687670D01*
X152178555Y-62311490D01*
X152217361Y-62506580D01*
X152327870Y-62671970D01*
X152493260Y-62782479D01*
X152688350Y-62821285D01*
X155312170Y-62821285D01*
X155507260Y-62782479D01*
X155672650Y-62671970D01*
X155783159Y-62506580D01*
X155821965Y-62311490D01*
X155821965Y-60639169D01*
X156186310Y-60639169D01*
X156186310Y-61359991D01*
X156462157Y-62025944D01*
X156971856Y-62535643D01*
X157637809Y-62811490D01*
X158358631Y-62811490D01*
X159024584Y-62535643D01*
X159534283Y-62025944D01*
X159810130Y-61359991D01*
X159810130Y-60639169D01*
X160186810Y-60639169D01*
X160186810Y-61359991D01*
X160462657Y-62025944D01*
X160972356Y-62535643D01*
X161638309Y-62811490D01*
X162359131Y-62811490D01*
X163025084Y-62535643D01*
X163534783Y-62025944D01*
X163810630Y-61359991D01*
X163810630Y-60639169D01*
X164187310Y-60639169D01*
X164187310Y-61359991D01*
X164463157Y-62025944D01*
X164972856Y-62535643D01*
X165638809Y-62811490D01*
X166359631Y-62811490D01*
X167025584Y-62535643D01*
X167535283Y-62025944D01*
X167811130Y-61359991D01*
X167811130Y-60639169D01*
X168185270Y-60639169D01*
X168185270Y-61359991D01*
X168461117Y-62025944D01*
X168970816Y-62535643D01*
X169636769Y-62811490D01*
X170357591Y-62811490D01*
X171023544Y-62535643D01*
X171533243Y-62025944D01*
X171809090Y-61359991D01*
X171809090Y-60639169D01*
X172185770Y-60639169D01*
X172185770Y-61359991D01*
X172461617Y-62025944D01*
X172971316Y-62535643D01*
X173637269Y-62811490D01*
X174358091Y-62811490D01*
X175024044Y-62535643D01*
X175533743Y-62025944D01*
X175809590Y-61359991D01*
X175809590Y-60639169D01*
X176186270Y-60639169D01*
X176186270Y-61359991D01*
X176462117Y-62025944D01*
X176971816Y-62535643D01*
X177637769Y-62811490D01*
X178358591Y-62811490D01*
X179024544Y-62535643D01*
X179534243Y-62025944D01*
X179810090Y-61359991D01*
X179810090Y-60639169D01*
X180184230Y-60639169D01*
X180184230Y-61359991D01*
X180460077Y-62025944D01*
X180969776Y-62535643D01*
X181635729Y-62811490D01*
X182356551Y-62811490D01*
X183022504Y-62535643D01*
X183532203Y-62025944D01*
X183808050Y-61359991D01*
X183808050Y-60639169D01*
X183532203Y-59973216D01*
X183022504Y-59463517D01*
X182356551Y-59187670D01*
X181635729Y-59187670D01*
X180969776Y-59463517D01*
X180460077Y-59973216D01*
X180184230Y-60639169D01*
X179810090Y-60639169D01*
X179534243Y-59973216D01*
X179024544Y-59463517D01*
X178358591Y-59187670D01*
X177637769Y-59187670D01*
X176971816Y-59463517D01*
X176462117Y-59973216D01*
X176186270Y-60639169D01*
X175809590Y-60639169D01*
X175533743Y-59973216D01*
X175024044Y-59463517D01*
X174358091Y-59187670D01*
X173637269Y-59187670D01*
X172971316Y-59463517D01*
X172461617Y-59973216D01*
X172185770Y-60639169D01*
X171809090Y-60639169D01*
X171533243Y-59973216D01*
X171023544Y-59463517D01*
X170357591Y-59187670D01*
X169636769Y-59187670D01*
X168970816Y-59463517D01*
X168461117Y-59973216D01*
X168185270Y-60639169D01*
X167811130Y-60639169D01*
X167535283Y-59973216D01*
X167025584Y-59463517D01*
X166359631Y-59187670D01*
X165638809Y-59187670D01*
X164972856Y-59463517D01*
X164463157Y-59973216D01*
X164187310Y-60639169D01*
X163810630Y-60639169D01*
X163534783Y-59973216D01*
X163025084Y-59463517D01*
X162359131Y-59187670D01*
X161638309Y-59187670D01*
X160972356Y-59463517D01*
X160462657Y-59973216D01*
X160186810Y-60639169D01*
X159810130Y-60639169D01*
X159534283Y-59973216D01*
X159024584Y-59463517D01*
X158358631Y-59187670D01*
X157637809Y-59187670D01*
X156971856Y-59463517D01*
X156462157Y-59973216D01*
X156186310Y-60639169D01*
X155821965Y-60639169D01*
X155821965Y-59687670D01*
X155783159Y-59492580D01*
X155672650Y-59327190D01*
X155507260Y-59216681D01*
X155312170Y-59177875D01*
X152688350Y-59177875D01*
X152493260Y-59216681D01*
X152327870Y-59327190D01*
X152217361Y-59492580D01*
X152178555Y-59687670D01*
X144686198Y-59687670D01*
X144616049Y-59617522D01*
X144582575Y-59567425D01*
X144384108Y-59434813D01*
X144209091Y-59400000D01*
X144209086Y-59400000D01*
X144150000Y-59388247D01*
X144090914Y-59400000D01*
X141722792Y-59400000D01*
X141559809Y-59237017D01*
X141229021Y-59100000D01*
X140870979Y-59100000D01*
X140540191Y-59237017D01*
X140287017Y-59490191D01*
X140150000Y-59820979D01*
X131750000Y-59820979D01*
X131750000Y-53802201D01*
X142300130Y-53802201D01*
X142300130Y-54597799D01*
X142604592Y-55332835D01*
X143167165Y-55895408D01*
X143902201Y-56199870D01*
X144697799Y-56199870D01*
X145432835Y-55895408D01*
X145607264Y-55720979D01*
X147500000Y-55720979D01*
X147500000Y-56079021D01*
X147637017Y-56409809D01*
X147890191Y-56662983D01*
X148213523Y-56796911D01*
X148100000Y-57070979D01*
X148100000Y-57429021D01*
X148237017Y-57759809D01*
X148490191Y-58012983D01*
X148820979Y-58150000D01*
X149179021Y-58150000D01*
X149509809Y-58012983D01*
X149522792Y-58000000D01*
X149787946Y-58000000D01*
X149915309Y-58307480D01*
X150168483Y-58560654D01*
X150499271Y-58697671D01*
X150857313Y-58697671D01*
X151188101Y-58560654D01*
X151441275Y-58307480D01*
X151578292Y-57976692D01*
X151578292Y-57950000D01*
X173640918Y-57950000D01*
X173700004Y-57961753D01*
X173759090Y-57950000D01*
X173759095Y-57950000D01*
X173934112Y-57915187D01*
X174132579Y-57782575D01*
X174166053Y-57732478D01*
X176548532Y-55350000D01*
X176779025Y-55350000D01*
X177109813Y-55212983D01*
X177362987Y-54959809D01*
X177500004Y-54629021D01*
X177500004Y-54270979D01*
X177362987Y-53940191D01*
X177224997Y-53802201D01*
X189696530Y-53802201D01*
X189696530Y-54597799D01*
X190000992Y-55332835D01*
X190563565Y-55895408D01*
X191298601Y-56199870D01*
X192094199Y-56199870D01*
X192829235Y-55895408D01*
X193391808Y-55332835D01*
X193696270Y-54597799D01*
X193696270Y-53802201D01*
X193391808Y-53067165D01*
X192829235Y-52504592D01*
X192094199Y-52200130D01*
X191298601Y-52200130D01*
X190563565Y-52504592D01*
X190000992Y-53067165D01*
X189696530Y-53802201D01*
X177224997Y-53802201D01*
X177109813Y-53687017D01*
X176779025Y-53550000D01*
X176420983Y-53550000D01*
X176090195Y-53687017D01*
X175837021Y-53940191D01*
X175700004Y-54270979D01*
X175700004Y-54501472D01*
X173451477Y-56750000D01*
X172372792Y-56750000D01*
X172512983Y-56609809D01*
X172650000Y-56279021D01*
X172650000Y-55920979D01*
X172512983Y-55590191D01*
X172259809Y-55337017D01*
X171929021Y-55200000D01*
X171570979Y-55200000D01*
X171240191Y-55337017D01*
X170987017Y-55590191D01*
X170850000Y-55920979D01*
X170850000Y-56151472D01*
X170651473Y-56350000D01*
X168350000Y-56350000D01*
X168350000Y-56070979D01*
X168212983Y-55740191D01*
X167959809Y-55487017D01*
X167629021Y-55350000D01*
X167270979Y-55350000D01*
X166940191Y-55487017D01*
X166782497Y-55644711D01*
X166749999Y-55638247D01*
X166690913Y-55650000D01*
X166690909Y-55650000D01*
X166515892Y-55684813D01*
X166317425Y-55817425D01*
X166283951Y-55867522D01*
X166201473Y-55950000D01*
X161867046Y-55950000D01*
X162000000Y-55629021D01*
X162000000Y-55270979D01*
X161862983Y-54940191D01*
X161609809Y-54687017D01*
X161279021Y-54550000D01*
X160920979Y-54550000D01*
X160590191Y-54687017D01*
X160337017Y-54940191D01*
X160200000Y-55270979D01*
X160200000Y-55501473D01*
X160151473Y-55550000D01*
X150798527Y-55550000D01*
X150766049Y-55517522D01*
X150732575Y-55467425D01*
X150534108Y-55334813D01*
X150359091Y-55300000D01*
X150359086Y-55300000D01*
X150300000Y-55288247D01*
X150240914Y-55300000D01*
X149072792Y-55300000D01*
X148909809Y-55137017D01*
X148579021Y-55000000D01*
X148220979Y-55000000D01*
X147890191Y-55137017D01*
X147637017Y-55390191D01*
X147500000Y-55720979D01*
X145607264Y-55720979D01*
X145995408Y-55332835D01*
X146299870Y-54597799D01*
X146299870Y-53802201D01*
X146183384Y-53520979D01*
X149050000Y-53520979D01*
X149050000Y-53879021D01*
X149187017Y-54209809D01*
X149440191Y-54462983D01*
X149770979Y-54600000D01*
X150129021Y-54600000D01*
X150459809Y-54462983D01*
X150712983Y-54209809D01*
X150850000Y-53879021D01*
X150850000Y-53648527D01*
X151698528Y-52800000D01*
X156927208Y-52800000D01*
X157090191Y-52962983D01*
X157420979Y-53100000D01*
X157779021Y-53100000D01*
X158109809Y-52962983D01*
X158362983Y-52709809D01*
X158500000Y-52379021D01*
X158500000Y-52020979D01*
X158362983Y-51690191D01*
X158109809Y-51437017D01*
X157779021Y-51300000D01*
X157420979Y-51300000D01*
X157090191Y-51437017D01*
X156927208Y-51600000D01*
X151509085Y-51600000D01*
X151449999Y-51588247D01*
X151390913Y-51600000D01*
X151390909Y-51600000D01*
X151215892Y-51634813D01*
X151017425Y-51767425D01*
X150983953Y-51817519D01*
X150001473Y-52800000D01*
X149770979Y-52800000D01*
X149440191Y-52937017D01*
X149187017Y-53190191D01*
X149050000Y-53520979D01*
X146183384Y-53520979D01*
X145995408Y-53067165D01*
X145432835Y-52504592D01*
X144697799Y-52200130D01*
X143902201Y-52200130D01*
X143167165Y-52504592D01*
X142604592Y-53067165D01*
X142300130Y-53802201D01*
X131750000Y-53802201D01*
X131750000Y-52669237D01*
X133969239Y-50450000D01*
X156277208Y-50450000D01*
X156390191Y-50562983D01*
X156720979Y-50700000D01*
X157079021Y-50700000D01*
X157409809Y-50562983D01*
X157522792Y-50450000D01*
X164677208Y-50450000D01*
X164790191Y-50562983D01*
X165120979Y-50700000D01*
X165479021Y-50700000D01*
X165809809Y-50562983D01*
X165922792Y-50450000D01*
X171212243Y-50450000D01*
X171237017Y-50509809D01*
X171490191Y-50762983D01*
X171820979Y-50900000D01*
X172179021Y-50900000D01*
X172509809Y-50762983D01*
X172762983Y-50509809D01*
X172900000Y-50179021D01*
X172900000Y-49820979D01*
X172807622Y-49597960D01*
X204964393Y-49597960D01*
X205307273Y-49636420D01*
X205601233Y-49738787D01*
X205865210Y-49903738D01*
X206086080Y-50123072D01*
X206252870Y-50385889D01*
X206357288Y-50679128D01*
X206397940Y-51020050D01*
X206397941Y-136964404D01*
X206359480Y-137307294D01*
X206257111Y-137601255D01*
X206092162Y-137865230D01*
X205872829Y-138086100D01*
X205610009Y-138252890D01*
X205316771Y-138357308D01*
X204975848Y-138397960D01*
X131031461Y-138398077D01*
X130688589Y-138359652D01*
X130394662Y-138257329D01*
X130130703Y-138092426D01*
X129909842Y-137873145D01*
X129743050Y-137610379D01*
X129638619Y-137317195D01*
X129597940Y-136976340D01*
X129597940Y-135520979D01*
X133900000Y-135520979D01*
X133900000Y-135879021D01*
X134037017Y-136209809D01*
X134290191Y-136462983D01*
X134620979Y-136600000D01*
X134979021Y-136600000D01*
X135309809Y-136462983D01*
X135350000Y-136422792D01*
X135590191Y-136662983D01*
X135920979Y-136800000D01*
X136279021Y-136800000D01*
X136609809Y-136662983D01*
X136862983Y-136409809D01*
X137000000Y-136079021D01*
X137000000Y-136000000D01*
X151879599Y-136000000D01*
X151948534Y-136013712D01*
X152017469Y-136000000D01*
X152017474Y-136000000D01*
X152221660Y-135959385D01*
X152453205Y-135804671D01*
X152492259Y-135746223D01*
X158338781Y-129899701D01*
X181197710Y-129899701D01*
X181197710Y-130695299D01*
X181502172Y-131430335D01*
X182064745Y-131992908D01*
X182799781Y-132297370D01*
X183595379Y-132297370D01*
X184330415Y-131992908D01*
X184892988Y-131430335D01*
X185197450Y-130695299D01*
X185197450Y-129899701D01*
X184892988Y-129164665D01*
X184330415Y-128602092D01*
X183595379Y-128297630D01*
X182799781Y-128297630D01*
X182064745Y-128602092D01*
X181502172Y-129164665D01*
X181197710Y-129899701D01*
X158338781Y-129899701D01*
X161603393Y-126635089D01*
X162188350Y-126635089D01*
X162188350Y-127355911D01*
X162464197Y-128021864D01*
X162973896Y-128531563D01*
X163639849Y-128807410D01*
X164360671Y-128807410D01*
X165026624Y-128531563D01*
X165536323Y-128021864D01*
X165812170Y-127355911D01*
X165812170Y-126635089D01*
X166186310Y-126635089D01*
X166186310Y-127355911D01*
X166462157Y-128021864D01*
X166971856Y-128531563D01*
X167637809Y-128807410D01*
X168358631Y-128807410D01*
X169024584Y-128531563D01*
X169534283Y-128021864D01*
X169810130Y-127355911D01*
X169810130Y-126635089D01*
X170184270Y-126635089D01*
X170184270Y-127355911D01*
X170460117Y-128021864D01*
X170969816Y-128531563D01*
X171635769Y-128807410D01*
X172356591Y-128807410D01*
X173022544Y-128531563D01*
X173532243Y-128021864D01*
X173808090Y-127355911D01*
X173808090Y-126635089D01*
X173532243Y-125969136D01*
X173022544Y-125459437D01*
X172356591Y-125183590D01*
X171635769Y-125183590D01*
X170969816Y-125459437D01*
X170460117Y-125969136D01*
X170184270Y-126635089D01*
X169810130Y-126635089D01*
X169534283Y-125969136D01*
X169024584Y-125459437D01*
X168358631Y-125183590D01*
X167637809Y-125183590D01*
X166971856Y-125459437D01*
X166462157Y-125969136D01*
X166186310Y-126635089D01*
X165812170Y-126635089D01*
X165536323Y-125969136D01*
X165026624Y-125459437D01*
X164360671Y-125183590D01*
X163639849Y-125183590D01*
X162973896Y-125459437D01*
X162464197Y-125969136D01*
X162188350Y-126635089D01*
X161603393Y-126635089D01*
X164390364Y-123848119D01*
X164463177Y-124023904D01*
X164972876Y-124533603D01*
X165638829Y-124809450D01*
X166359651Y-124809450D01*
X167025604Y-124533603D01*
X167535303Y-124023904D01*
X167811150Y-123357951D01*
X167811150Y-122637129D01*
X167535303Y-121971176D01*
X167364127Y-121800000D01*
X167809712Y-121800000D01*
X168320475Y-122310764D01*
X168185290Y-122637129D01*
X168185290Y-123357951D01*
X168461137Y-124023904D01*
X168970836Y-124533603D01*
X169636789Y-124809450D01*
X170357611Y-124809450D01*
X171023564Y-124533603D01*
X171533263Y-124023904D01*
X171809110Y-123357951D01*
X171809110Y-122637129D01*
X171533263Y-121971176D01*
X171023564Y-121461477D01*
X170357611Y-121185630D01*
X169636789Y-121185630D01*
X169310424Y-121320815D01*
X168671825Y-120682217D01*
X168967747Y-120572135D01*
X169080050Y-120497096D01*
X169212605Y-120221036D01*
X167998220Y-119006651D01*
X166783835Y-120221036D01*
X166869768Y-120400000D01*
X165804359Y-120400000D01*
X165821965Y-120311490D01*
X165821965Y-119293516D01*
X166174347Y-119293516D01*
X166425665Y-119969107D01*
X166500704Y-120081410D01*
X166776764Y-120213965D01*
X167991149Y-118999580D01*
X168005291Y-118999580D01*
X169219676Y-120213965D01*
X169495736Y-120081410D01*
X169795743Y-119425985D01*
X169822093Y-118705644D01*
X169797365Y-118639169D01*
X170184270Y-118639169D01*
X170184270Y-119359991D01*
X170460117Y-120025944D01*
X170969816Y-120535643D01*
X171635769Y-120811490D01*
X172356591Y-120811490D01*
X173022544Y-120535643D01*
X173532243Y-120025944D01*
X173808090Y-119359991D01*
X173808090Y-118639169D01*
X173532243Y-117973216D01*
X173022544Y-117463517D01*
X172356591Y-117187670D01*
X171635769Y-117187670D01*
X170969816Y-117463517D01*
X170460117Y-117973216D01*
X170184270Y-118639169D01*
X169797365Y-118639169D01*
X169570775Y-118030053D01*
X169495736Y-117917750D01*
X169219676Y-117785195D01*
X168005291Y-118999580D01*
X167991149Y-118999580D01*
X166776764Y-117785195D01*
X166500704Y-117917750D01*
X166200697Y-118573175D01*
X166174347Y-119293516D01*
X165821965Y-119293516D01*
X165821965Y-117778124D01*
X166783835Y-117778124D01*
X167998220Y-118992509D01*
X169212605Y-117778124D01*
X169080050Y-117502064D01*
X168424625Y-117202057D01*
X167704284Y-117175707D01*
X167028693Y-117427025D01*
X166916390Y-117502064D01*
X166783835Y-117778124D01*
X165821965Y-117778124D01*
X165821965Y-117687670D01*
X165783159Y-117492580D01*
X165672650Y-117327190D01*
X165507260Y-117216681D01*
X165312170Y-117177875D01*
X162688350Y-117177875D01*
X162493260Y-117216681D01*
X162327870Y-117327190D01*
X162217361Y-117492580D01*
X162178555Y-117687670D01*
X162178555Y-120311490D01*
X162217361Y-120506580D01*
X162327870Y-120671970D01*
X162493260Y-120782479D01*
X162688350Y-120821285D01*
X164588766Y-120821285D01*
X154798730Y-130611322D01*
X154798730Y-129899701D01*
X154494268Y-129164665D01*
X153931695Y-128602092D01*
X153196659Y-128297630D01*
X152401061Y-128297630D01*
X151666025Y-128602092D01*
X151103452Y-129164665D01*
X150798990Y-129899701D01*
X150798990Y-130695299D01*
X151103452Y-131430335D01*
X151666025Y-131992908D01*
X152401061Y-132297370D01*
X153112682Y-132297370D01*
X151510052Y-133900000D01*
X135968935Y-133900000D01*
X135900000Y-133886288D01*
X135831065Y-133900000D01*
X135831060Y-133900000D01*
X135626874Y-133940615D01*
X135395329Y-134095329D01*
X135356277Y-134153774D01*
X134710052Y-134800000D01*
X134620979Y-134800000D01*
X134290191Y-134937017D01*
X134037017Y-135190191D01*
X133900000Y-135520979D01*
X129597940Y-135520979D01*
X129597940Y-130020979D01*
X132700000Y-130020979D01*
X132700000Y-130379021D01*
X132837017Y-130709809D01*
X133090191Y-130962983D01*
X133420979Y-131100000D01*
X133779021Y-131100000D01*
X134109809Y-130962983D01*
X134272792Y-130800000D01*
X135690914Y-130800000D01*
X135750000Y-130811753D01*
X135809086Y-130800000D01*
X135809091Y-130800000D01*
X135984108Y-130765187D01*
X136182575Y-130632575D01*
X136216049Y-130582479D01*
X136500000Y-130298527D01*
X136500000Y-130479021D01*
X136637017Y-130809809D01*
X136890191Y-131062983D01*
X137220979Y-131200000D01*
X137579021Y-131200000D01*
X137909809Y-131062983D01*
X138162983Y-130809809D01*
X138300000Y-130479021D01*
X138300000Y-130120979D01*
X138162983Y-129790191D01*
X138000000Y-129627208D01*
X138000000Y-122648527D01*
X141282481Y-119366047D01*
X141332575Y-119332575D01*
X141465187Y-119134108D01*
X141500000Y-118959091D01*
X141500000Y-118959087D01*
X141511753Y-118900001D01*
X141500000Y-118840915D01*
X141500000Y-115798527D01*
X143348528Y-113950000D01*
X143579021Y-113950000D01*
X143909809Y-113812983D01*
X144162983Y-113559809D01*
X144300000Y-113229021D01*
X144300000Y-112870979D01*
X144162983Y-112540191D01*
X144147792Y-112525000D01*
X144262983Y-112409809D01*
X144400000Y-112079021D01*
X144400000Y-111720979D01*
X144262983Y-111390191D01*
X144009809Y-111137017D01*
X143679021Y-111000000D01*
X143320979Y-111000000D01*
X142990191Y-111137017D01*
X142737017Y-111390191D01*
X142600000Y-111720979D01*
X142600000Y-111951472D01*
X140067522Y-114483951D01*
X140017425Y-114517425D01*
X139884813Y-114715893D01*
X139850000Y-114890910D01*
X139850000Y-114890914D01*
X139838247Y-114950000D01*
X139850000Y-115009086D01*
X139850001Y-118501471D01*
X136567522Y-121783951D01*
X136517425Y-121817425D01*
X136384813Y-122015893D01*
X136350000Y-122190910D01*
X136350000Y-122190914D01*
X136338247Y-122250000D01*
X136350000Y-122309086D01*
X136350001Y-128751471D01*
X135501473Y-129600000D01*
X134272792Y-129600000D01*
X134109809Y-129437017D01*
X133779021Y-129300000D01*
X133420979Y-129300000D01*
X133090191Y-129437017D01*
X132837017Y-129690191D01*
X132700000Y-130020979D01*
X129597940Y-130020979D01*
X129597940Y-119320979D01*
X131200000Y-119320979D01*
X131200000Y-119679021D01*
X131337017Y-120009809D01*
X131590191Y-120262983D01*
X131920979Y-120400000D01*
X132279021Y-120400000D01*
X132609809Y-120262983D01*
X132862983Y-120009809D01*
X133000000Y-119679021D01*
X133000000Y-119320979D01*
X132862983Y-118990191D01*
X132609809Y-118737017D01*
X132279021Y-118600000D01*
X131920979Y-118600000D01*
X131590191Y-118737017D01*
X131337017Y-118990191D01*
X131200000Y-119320979D01*
X129597940Y-119320979D01*
X129597940Y-51031507D01*
X129636400Y-50688627D01*
X129738767Y-50394667D01*
X129903718Y-50130690D01*
X130123052Y-49909820D01*
X130385869Y-49743030D01*
X130679108Y-49638612D01*
X131020030Y-49597960D01*
X132982801Y-49597960D01*
X130685652Y-51895111D01*
X130685652Y-51895111D01*
G37*
X130685652Y-51895111D02*
X130631377Y-51931376D01*
X130571507Y-52020979D01*
X130487715Y-52146383D01*
X130437266Y-52400000D01*
X130450001Y-52464021D01*
X130450000Y-78614017D01*
X130450001Y-78614022D01*
X130450000Y-84514017D01*
X130450001Y-84514022D01*
X130450000Y-111280282D01*
X130337017Y-111393265D01*
X130200000Y-111724053D01*
X130200000Y-112082095D01*
X130337017Y-112412883D01*
X130590191Y-112666057D01*
X130920979Y-112803074D01*
X131080763Y-112803074D01*
X133892039Y-115614351D01*
X133928302Y-115668624D01*
X134143309Y-115812286D01*
X134332908Y-115850000D01*
X134332909Y-115850000D01*
X134396925Y-115862734D01*
X134460941Y-115850000D01*
X138027208Y-115850000D01*
X138140191Y-115962983D01*
X138470979Y-116100000D01*
X138829021Y-116100000D01*
X139159809Y-115962983D01*
X139412983Y-115709809D01*
X139550000Y-115379021D01*
X139550000Y-115020979D01*
X139412983Y-114690191D01*
X139159809Y-114437017D01*
X138829021Y-114300000D01*
X138470979Y-114300000D01*
X138140191Y-114437017D01*
X138027208Y-114550000D01*
X134666165Y-114550000D01*
X132000000Y-111883837D01*
X132000000Y-111724053D01*
X131862983Y-111393265D01*
X131750000Y-111280282D01*
X131750000Y-107970979D01*
X133050000Y-107970979D01*
X133050000Y-108329021D01*
X133187017Y-108659809D01*
X133377214Y-108850006D01*
X133187017Y-109040203D01*
X133050000Y-109370991D01*
X133050000Y-109729033D01*
X133187017Y-110059821D01*
X133440191Y-110312995D01*
X133770979Y-110450012D01*
X134129021Y-110450012D01*
X134459809Y-110312995D01*
X134574032Y-110198772D01*
X134686533Y-110311273D01*
X135017321Y-110448290D01*
X135058574Y-110448290D01*
X135187017Y-110758378D01*
X135440191Y-111011552D01*
X135770979Y-111148569D01*
X136129021Y-111148569D01*
X136459809Y-111011552D01*
X136712983Y-110758378D01*
X136841310Y-110448570D01*
X144300043Y-110448570D01*
X144733953Y-110882481D01*
X144767425Y-110932575D01*
X144965892Y-111065187D01*
X145140909Y-111100000D01*
X145140913Y-111100000D01*
X145199999Y-111111753D01*
X145259086Y-111100000D01*
X145940914Y-111100000D01*
X146000000Y-111111753D01*
X146059086Y-111100000D01*
X146059091Y-111100000D01*
X146234108Y-111065187D01*
X146432575Y-110932575D01*
X146466048Y-110882479D01*
X146948528Y-110400000D01*
X153419672Y-110400000D01*
X153167165Y-110504592D01*
X152604592Y-111067165D01*
X152300130Y-111802201D01*
X152300130Y-112597799D01*
X152604592Y-113332835D01*
X153167165Y-113895408D01*
X153902201Y-114199870D01*
X154697799Y-114199870D01*
X155432835Y-113895408D01*
X155995408Y-113332835D01*
X156299870Y-112597799D01*
X156299870Y-111802201D01*
X155995408Y-111067165D01*
X155432835Y-110504592D01*
X155180328Y-110400000D01*
X180816112Y-110400000D01*
X180563605Y-110504592D01*
X180001032Y-111067165D01*
X179696570Y-111802201D01*
X179696570Y-112597799D01*
X180001032Y-113332835D01*
X180563605Y-113895408D01*
X181298641Y-114199870D01*
X182094239Y-114199870D01*
X182829275Y-113895408D01*
X183391848Y-113332835D01*
X183696310Y-112597799D01*
X183696310Y-111802201D01*
X183391848Y-111067165D01*
X182829275Y-110504592D01*
X182580277Y-110401454D01*
X182587586Y-110400000D01*
X182587591Y-110400000D01*
X182762608Y-110365187D01*
X182961075Y-110232575D01*
X182994549Y-110182478D01*
X200267181Y-92909847D01*
X200317275Y-92876375D01*
X200449887Y-92677908D01*
X200484700Y-92502891D01*
X200484700Y-92502887D01*
X200496453Y-92443801D01*
X200484700Y-92384715D01*
X200484700Y-86424795D01*
X200900000Y-86424795D01*
X201095090Y-86385989D01*
X201260480Y-86275480D01*
X201370989Y-86110090D01*
X201409795Y-85915000D01*
X201409795Y-85630000D01*
X202000000Y-85630000D01*
X202000000Y-86014456D01*
X202076121Y-86198227D01*
X202216773Y-86338880D01*
X202400544Y-86415000D01*
X202685000Y-86415000D01*
X202810000Y-86290000D01*
X202810000Y-85505000D01*
X202820000Y-85505000D01*
X202820000Y-86290000D01*
X202945000Y-86415000D01*
X203229456Y-86415000D01*
X203413227Y-86338880D01*
X203553879Y-86198227D01*
X203630000Y-86014456D01*
X203630000Y-85630000D01*
X203505000Y-85505000D01*
X202820000Y-85505000D01*
X202810000Y-85505000D01*
X202125000Y-85505000D01*
X202000000Y-85630000D01*
X201409795Y-85630000D01*
X201409795Y-85085000D01*
X201390012Y-84985544D01*
X202000000Y-84985544D01*
X202000000Y-85370000D01*
X202125000Y-85495000D01*
X202810000Y-85495000D01*
X202810000Y-84710000D01*
X202820000Y-84710000D01*
X202820000Y-85495000D01*
X203505000Y-85495000D01*
X203630000Y-85370000D01*
X203630000Y-84985544D01*
X203553879Y-84801773D01*
X203413227Y-84661120D01*
X203229456Y-84585000D01*
X202945000Y-84585000D01*
X202820000Y-84710000D01*
X202810000Y-84710000D01*
X202685000Y-84585000D01*
X202400544Y-84585000D01*
X202216773Y-84661120D01*
X202076121Y-84801773D01*
X202000000Y-84985544D01*
X201390012Y-84985544D01*
X201370989Y-84889910D01*
X201260480Y-84724520D01*
X201095090Y-84614011D01*
X201044567Y-84603961D01*
X201163898Y-84484629D01*
X201240172Y-84560903D01*
X201570960Y-84697920D01*
X201929002Y-84697920D01*
X202259790Y-84560903D01*
X202512964Y-84307729D01*
X202649981Y-83976941D01*
X202649981Y-83746447D01*
X202832478Y-83563950D01*
X202882575Y-83530476D01*
X203015187Y-83332009D01*
X203050000Y-83156992D01*
X203050000Y-83156988D01*
X203061753Y-83097902D01*
X203050000Y-83038816D01*
X203050000Y-82703116D01*
X203114990Y-82690189D01*
X203275000Y-82583275D01*
X203435010Y-82690189D01*
X203630100Y-82728995D01*
X203820700Y-82728995D01*
X203937017Y-83009809D01*
X204190191Y-83262983D01*
X204520979Y-83400000D01*
X204879021Y-83400000D01*
X205209809Y-83262983D01*
X205462983Y-83009809D01*
X205600000Y-82679021D01*
X205600000Y-82320979D01*
X205462983Y-81990191D01*
X205209809Y-81737017D01*
X205079695Y-81683122D01*
X205079695Y-81457200D01*
X205040889Y-81262110D01*
X204930380Y-81096720D01*
X204780674Y-80996690D01*
X204853127Y-80966679D01*
X204993780Y-80826027D01*
X205069900Y-80642256D01*
X205069900Y-80291800D01*
X204944900Y-80166800D01*
X204105000Y-80166800D01*
X204105000Y-80186800D01*
X204095000Y-80186800D01*
X204095000Y-80166800D01*
X202455000Y-80166800D01*
X202455000Y-80186800D01*
X202445000Y-80186800D01*
X202445000Y-80166800D01*
X200805000Y-80166800D01*
X200805000Y-80186800D01*
X200795000Y-80186800D01*
X200795000Y-80166800D01*
X199955100Y-80166800D01*
X199830100Y-80291800D01*
X199830100Y-80642256D01*
X199906220Y-80826027D01*
X200046873Y-80966679D01*
X200119326Y-80996690D01*
X199969620Y-81096720D01*
X199859111Y-81262110D01*
X199820305Y-81457200D01*
X199820305Y-82219200D01*
X199859111Y-82414290D01*
X199969620Y-82579680D01*
X200135010Y-82690189D01*
X200200000Y-82703116D01*
X200200000Y-82727208D01*
X200037017Y-82890191D01*
X199900000Y-83220979D01*
X199900000Y-83579021D01*
X200037017Y-83909809D01*
X200039340Y-83912132D01*
X199502221Y-84449251D01*
X199452125Y-84482725D01*
X199319513Y-84681193D01*
X199284700Y-84856210D01*
X199284700Y-84856214D01*
X199272947Y-84915300D01*
X199284700Y-84974386D01*
X199284700Y-85440909D01*
X199272946Y-85500000D01*
X199284700Y-85559090D01*
X199284701Y-92195271D01*
X198316221Y-93163751D01*
X198316221Y-84822782D01*
X198479204Y-84659799D01*
X198616221Y-84329011D01*
X198616221Y-83970969D01*
X198479204Y-83640181D01*
X198226030Y-83387007D01*
X197895242Y-83249990D01*
X197537200Y-83249990D01*
X197206412Y-83387007D01*
X196953238Y-83640181D01*
X196816221Y-83970969D01*
X196816221Y-84329011D01*
X196953238Y-84659799D01*
X197116222Y-84822783D01*
X197116221Y-93798051D01*
X189199999Y-101714274D01*
X189199999Y-93159085D01*
X189211752Y-93099998D01*
X189199999Y-93040912D01*
X189199999Y-93040908D01*
X189165186Y-92865891D01*
X189100000Y-92768334D01*
X189100000Y-92648527D01*
X190482482Y-91266046D01*
X190532575Y-91232575D01*
X190566048Y-91182480D01*
X190665187Y-91034109D01*
X190690882Y-90904930D01*
X190764990Y-90890189D01*
X190930380Y-90779680D01*
X190950000Y-90750316D01*
X190969620Y-90779680D01*
X191135010Y-90890189D01*
X191330100Y-90928995D01*
X192269900Y-90928995D01*
X192464990Y-90890189D01*
X192630380Y-90779680D01*
X192740889Y-90614290D01*
X192779695Y-90419200D01*
X192779695Y-89995933D01*
X193067482Y-89708146D01*
X193117575Y-89674675D01*
X193250187Y-89476208D01*
X193285000Y-89301191D01*
X193285000Y-89301187D01*
X193296753Y-89242101D01*
X193285000Y-89183015D01*
X193285000Y-86325914D01*
X193360480Y-86275480D01*
X193470989Y-86110090D01*
X193509795Y-85915000D01*
X193509795Y-85630000D01*
X194100000Y-85630000D01*
X194100000Y-86014456D01*
X194176121Y-86198227D01*
X194316773Y-86338880D01*
X194500544Y-86415000D01*
X194785000Y-86415000D01*
X194910000Y-86290000D01*
X194910000Y-85505000D01*
X194920000Y-85505000D01*
X194920000Y-86290000D01*
X195045000Y-86415000D01*
X195329456Y-86415000D01*
X195513227Y-86338880D01*
X195653879Y-86198227D01*
X195730000Y-86014456D01*
X195730000Y-85630000D01*
X195605000Y-85505000D01*
X194920000Y-85505000D01*
X194910000Y-85505000D01*
X194225000Y-85505000D01*
X194100000Y-85630000D01*
X193509795Y-85630000D01*
X193509795Y-85085000D01*
X193490012Y-84985544D01*
X194100000Y-84985544D01*
X194100000Y-85370000D01*
X194225000Y-85495000D01*
X194910000Y-85495000D01*
X194910000Y-84710000D01*
X194920000Y-84710000D01*
X194920000Y-85495000D01*
X195605000Y-85495000D01*
X195730000Y-85370000D01*
X195730000Y-84985544D01*
X195653879Y-84801773D01*
X195513227Y-84661120D01*
X195329456Y-84585000D01*
X195045000Y-84585000D01*
X194920000Y-84710000D01*
X194910000Y-84710000D01*
X194785000Y-84585000D01*
X194500544Y-84585000D01*
X194316773Y-84661120D01*
X194176121Y-84801773D01*
X194100000Y-84985544D01*
X193490012Y-84985544D01*
X193470989Y-84889910D01*
X193360480Y-84724520D01*
X193195090Y-84614011D01*
X193000000Y-84575205D01*
X192370000Y-84575205D01*
X192174910Y-84614011D01*
X192009520Y-84724520D01*
X191899011Y-84889910D01*
X191860205Y-85085000D01*
X191860205Y-85915000D01*
X191899011Y-86110090D01*
X192009520Y-86275480D01*
X192085001Y-86325914D01*
X192085001Y-87480800D01*
X191930000Y-87480800D01*
X191805000Y-87605800D01*
X191805000Y-88356800D01*
X191825000Y-88356800D01*
X191825000Y-88366800D01*
X191805000Y-88366800D01*
X191805000Y-88386800D01*
X191795000Y-88386800D01*
X191795000Y-88366800D01*
X190955100Y-88366800D01*
X190950000Y-88371900D01*
X190944900Y-88366800D01*
X190105000Y-88366800D01*
X190105000Y-88386800D01*
X190095000Y-88386800D01*
X190095000Y-88366800D01*
X189255100Y-88366800D01*
X189250000Y-88371900D01*
X189244900Y-88366800D01*
X188405000Y-88366800D01*
X188405000Y-88386800D01*
X188395000Y-88386800D01*
X188395000Y-88366800D01*
X187555100Y-88366800D01*
X187550000Y-88371900D01*
X187544900Y-88366800D01*
X186705000Y-88366800D01*
X186705000Y-88386800D01*
X186695000Y-88386800D01*
X186695000Y-88366800D01*
X186675000Y-88366800D01*
X186675000Y-88356800D01*
X186695000Y-88356800D01*
X186695000Y-87605800D01*
X186705000Y-87605800D01*
X186705000Y-88356800D01*
X187544900Y-88356800D01*
X187550000Y-88351700D01*
X187555100Y-88356800D01*
X188395000Y-88356800D01*
X188395000Y-87605800D01*
X188405000Y-87605800D01*
X188405000Y-88356800D01*
X189244900Y-88356800D01*
X189250000Y-88351700D01*
X189255100Y-88356800D01*
X190095000Y-88356800D01*
X190095000Y-87605800D01*
X190105000Y-87605800D01*
X190105000Y-88356800D01*
X190944900Y-88356800D01*
X190950000Y-88351700D01*
X190955100Y-88356800D01*
X191795000Y-88356800D01*
X191795000Y-87605800D01*
X191670000Y-87480800D01*
X191230644Y-87480800D01*
X191046873Y-87556921D01*
X190950000Y-87653793D01*
X190853127Y-87556921D01*
X190669356Y-87480800D01*
X190230000Y-87480800D01*
X190105000Y-87605800D01*
X190095000Y-87605800D01*
X189970000Y-87480800D01*
X189530644Y-87480800D01*
X189346873Y-87556921D01*
X189250000Y-87653793D01*
X189153127Y-87556921D01*
X188969356Y-87480800D01*
X188530000Y-87480800D01*
X188405000Y-87605800D01*
X188395000Y-87605800D01*
X188270000Y-87480800D01*
X187830644Y-87480800D01*
X187646873Y-87556921D01*
X187550000Y-87653793D01*
X187453127Y-87556921D01*
X187269356Y-87480800D01*
X186830000Y-87480800D01*
X186705000Y-87605800D01*
X186695000Y-87605800D01*
X186570000Y-87480800D01*
X186369901Y-87480800D01*
X186369901Y-87184302D01*
X186417575Y-87152447D01*
X186550187Y-86953980D01*
X186585000Y-86778963D01*
X186585000Y-86778958D01*
X186596753Y-86719872D01*
X186585000Y-86660786D01*
X186585000Y-86325914D01*
X186660480Y-86275480D01*
X186770989Y-86110090D01*
X186809795Y-85915000D01*
X186809795Y-85630000D01*
X187400000Y-85630000D01*
X187400000Y-86014456D01*
X187476121Y-86198227D01*
X187616773Y-86338880D01*
X187800544Y-86415000D01*
X188085000Y-86415000D01*
X188210000Y-86290000D01*
X188210000Y-85505000D01*
X188220000Y-85505000D01*
X188220000Y-86290000D01*
X188345000Y-86415000D01*
X188629456Y-86415000D01*
X188813227Y-86338880D01*
X188953879Y-86198227D01*
X189030000Y-86014456D01*
X189030000Y-85630000D01*
X188905000Y-85505000D01*
X188220000Y-85505000D01*
X188210000Y-85505000D01*
X187525000Y-85505000D01*
X187400000Y-85630000D01*
X186809795Y-85630000D01*
X186809795Y-85085000D01*
X186790012Y-84985544D01*
X187400000Y-84985544D01*
X187400000Y-85370000D01*
X187525000Y-85495000D01*
X188210000Y-85495000D01*
X188210000Y-84710000D01*
X188220000Y-84710000D01*
X188220000Y-85495000D01*
X188905000Y-85495000D01*
X189030000Y-85370000D01*
X189030000Y-84985544D01*
X188953879Y-84801773D01*
X188813227Y-84661120D01*
X188629456Y-84585000D01*
X188345000Y-84585000D01*
X188220000Y-84710000D01*
X188210000Y-84710000D01*
X188085000Y-84585000D01*
X187800544Y-84585000D01*
X187616773Y-84661120D01*
X187476121Y-84801773D01*
X187400000Y-84985544D01*
X186790012Y-84985544D01*
X186770989Y-84889910D01*
X186660480Y-84724520D01*
X186495090Y-84614011D01*
X186300000Y-84575205D01*
X185670000Y-84575205D01*
X185474910Y-84614011D01*
X185309520Y-84724520D01*
X185199011Y-84889910D01*
X185160205Y-85085000D01*
X185160205Y-85915000D01*
X185199011Y-86110090D01*
X185309520Y-86275480D01*
X185385001Y-86325914D01*
X185385001Y-86470541D01*
X185337326Y-86502396D01*
X185204714Y-86700864D01*
X185169901Y-86875881D01*
X185169901Y-86875885D01*
X185158148Y-86934971D01*
X185169901Y-86994058D01*
X185169901Y-87480800D01*
X185130000Y-87480800D01*
X185005000Y-87605800D01*
X185005000Y-88356800D01*
X185025000Y-88356800D01*
X185025000Y-88366800D01*
X185005000Y-88366800D01*
X185005000Y-88386800D01*
X184995000Y-88386800D01*
X184995000Y-88366800D01*
X184155100Y-88366800D01*
X184150000Y-88371900D01*
X184144900Y-88366800D01*
X183305000Y-88366800D01*
X183305000Y-88386800D01*
X183295000Y-88386800D01*
X183295000Y-88366800D01*
X182455100Y-88366800D01*
X182330100Y-88491800D01*
X182330100Y-88842256D01*
X182406220Y-89026027D01*
X182546873Y-89166679D01*
X182619326Y-89196690D01*
X182469620Y-89296720D01*
X182359111Y-89462110D01*
X182320305Y-89657200D01*
X182320305Y-90419200D01*
X182359111Y-90614290D01*
X182469620Y-90779680D01*
X182635010Y-90890189D01*
X182709118Y-90904930D01*
X182734813Y-91034107D01*
X182867425Y-91232575D01*
X182917522Y-91266049D01*
X184300000Y-92648528D01*
X184300000Y-92879021D01*
X184437017Y-93209809D01*
X184690191Y-93462983D01*
X185020979Y-93600000D01*
X185251473Y-93600000D01*
X186750001Y-95098529D01*
X186750000Y-101901472D01*
X181501473Y-107150000D01*
X137898528Y-107150000D01*
X137416048Y-106667521D01*
X137382575Y-106617425D01*
X137184108Y-106484813D01*
X137009091Y-106450000D01*
X137009086Y-106450000D01*
X136950000Y-106438247D01*
X136890914Y-106450000D01*
X135609086Y-106450000D01*
X135550000Y-106438247D01*
X135490913Y-106450000D01*
X135490909Y-106450000D01*
X135315892Y-106484813D01*
X135117425Y-106617425D01*
X135083953Y-106667519D01*
X134601472Y-107150001D01*
X134409085Y-107150001D01*
X134349998Y-107138248D01*
X134290912Y-107150001D01*
X134290908Y-107150001D01*
X134115891Y-107184814D01*
X134018334Y-107250000D01*
X133770979Y-107250000D01*
X133440191Y-107387017D01*
X133187017Y-107640191D01*
X133050000Y-107970979D01*
X131750000Y-107970979D01*
X131750000Y-100420979D01*
X142050000Y-100420979D01*
X142050000Y-100779021D01*
X142187017Y-101109809D01*
X142440191Y-101362983D01*
X142770979Y-101500000D01*
X143129021Y-101500000D01*
X143459809Y-101362983D01*
X143622792Y-101200000D01*
X144840914Y-101200000D01*
X144850937Y-101201994D01*
X144937017Y-101409809D01*
X145190191Y-101662983D01*
X145520979Y-101800000D01*
X145879021Y-101800000D01*
X146209809Y-101662983D01*
X146462983Y-101409809D01*
X146570600Y-101150000D01*
X165190914Y-101150000D01*
X165250000Y-101161753D01*
X165309086Y-101150000D01*
X165309091Y-101150000D01*
X165484108Y-101115187D01*
X165682575Y-100982575D01*
X165716049Y-100932478D01*
X178767183Y-87881344D01*
X182330100Y-87881344D01*
X182330100Y-88231800D01*
X182455100Y-88356800D01*
X183295000Y-88356800D01*
X183295000Y-87605800D01*
X183305000Y-87605800D01*
X183305000Y-88356800D01*
X184144900Y-88356800D01*
X184150000Y-88351700D01*
X184155100Y-88356800D01*
X184995000Y-88356800D01*
X184995000Y-87605800D01*
X184870000Y-87480800D01*
X184430644Y-87480800D01*
X184246873Y-87556921D01*
X184150000Y-87653793D01*
X184053127Y-87556921D01*
X183869356Y-87480800D01*
X183430000Y-87480800D01*
X183305000Y-87605800D01*
X183295000Y-87605800D01*
X183170000Y-87480800D01*
X182730644Y-87480800D01*
X182546873Y-87556921D01*
X182406220Y-87697573D01*
X182330100Y-87881344D01*
X178767183Y-87881344D01*
X179982482Y-86666046D01*
X180032575Y-86632575D01*
X180154230Y-86450507D01*
X180165187Y-86434108D01*
X180171390Y-86402924D01*
X180200544Y-86415000D01*
X180485000Y-86415000D01*
X180610000Y-86290000D01*
X180610000Y-85505000D01*
X180620000Y-85505000D01*
X180620000Y-86290000D01*
X180745000Y-86415000D01*
X181029456Y-86415000D01*
X181213227Y-86338880D01*
X181353879Y-86198227D01*
X181430000Y-86014456D01*
X181430000Y-85630000D01*
X181305000Y-85505000D01*
X180620000Y-85505000D01*
X180610000Y-85505000D01*
X180590000Y-85505000D01*
X180590000Y-85495000D01*
X180610000Y-85495000D01*
X180610000Y-84710000D01*
X180620000Y-84710000D01*
X180620000Y-85495000D01*
X181305000Y-85495000D01*
X181430000Y-85370000D01*
X181430000Y-84985544D01*
X181353879Y-84801773D01*
X181213227Y-84661120D01*
X181029456Y-84585000D01*
X180745000Y-84585000D01*
X180620000Y-84710000D01*
X180610000Y-84710000D01*
X180485000Y-84585000D01*
X180200544Y-84585000D01*
X180200000Y-84585225D01*
X180200000Y-84372792D01*
X180362983Y-84209809D01*
X180500000Y-83879021D01*
X180500000Y-83651393D01*
X180604910Y-83494385D01*
X180639723Y-83319368D01*
X180639723Y-83319364D01*
X180651476Y-83260278D01*
X180639723Y-83201191D01*
X180639723Y-82795215D01*
X180664990Y-82790189D01*
X180830380Y-82679680D01*
X180850000Y-82650316D01*
X180869620Y-82679680D01*
X181035010Y-82790189D01*
X181230100Y-82828995D01*
X181800000Y-82828995D01*
X181800000Y-82979021D01*
X181937017Y-83309809D01*
X182190191Y-83562983D01*
X182520979Y-83700000D01*
X182879021Y-83700000D01*
X183209809Y-83562983D01*
X183462983Y-83309809D01*
X183600000Y-82979021D01*
X183600000Y-82620979D01*
X183462983Y-82290191D01*
X183209809Y-82037017D01*
X182879021Y-81900000D01*
X182679695Y-81900000D01*
X182679695Y-81557200D01*
X182640889Y-81362110D01*
X182530380Y-81196720D01*
X182380674Y-81096690D01*
X182453127Y-81066679D01*
X182593780Y-80926027D01*
X182669900Y-80742256D01*
X182669900Y-80391800D01*
X182544900Y-80266800D01*
X181705000Y-80266800D01*
X181705000Y-80286800D01*
X181695000Y-80286800D01*
X181695000Y-80266800D01*
X180855100Y-80266800D01*
X180850000Y-80271900D01*
X180844900Y-80266800D01*
X180005000Y-80266800D01*
X180005000Y-80286800D01*
X179995000Y-80286800D01*
X179995000Y-80266800D01*
X179155100Y-80266800D01*
X179150000Y-80271900D01*
X179144900Y-80266800D01*
X178305000Y-80266800D01*
X178305000Y-80286800D01*
X178295000Y-80286800D01*
X178295000Y-80266800D01*
X177455100Y-80266800D01*
X177330100Y-80391800D01*
X177330100Y-80742256D01*
X177406220Y-80926027D01*
X177546873Y-81066679D01*
X177619326Y-81096690D01*
X177469620Y-81196720D01*
X177359111Y-81362110D01*
X177320305Y-81557200D01*
X177320305Y-82319200D01*
X177359111Y-82514290D01*
X177469620Y-82679680D01*
X177635010Y-82790189D01*
X177700000Y-82803116D01*
X177700000Y-83027208D01*
X177537017Y-83190191D01*
X177400000Y-83520979D01*
X177400000Y-83751473D01*
X177052221Y-84099251D01*
X177002125Y-84132725D01*
X176869513Y-84331193D01*
X176834700Y-84506210D01*
X176834700Y-84506214D01*
X176822947Y-84565300D01*
X176834700Y-84624387D01*
X176834701Y-85440904D01*
X176822946Y-85500000D01*
X176834701Y-85559096D01*
X176834700Y-87516772D01*
X164801473Y-99550000D01*
X145409086Y-99550000D01*
X145349999Y-99538247D01*
X145290913Y-99550000D01*
X145290909Y-99550000D01*
X145115892Y-99584813D01*
X144917425Y-99717425D01*
X144883953Y-99767519D01*
X144651473Y-100000000D01*
X143622792Y-100000000D01*
X143459809Y-99837017D01*
X143129021Y-99700000D01*
X142770979Y-99700000D01*
X142440191Y-99837017D01*
X142187017Y-100090191D01*
X142050000Y-100420979D01*
X131750000Y-100420979D01*
X131750000Y-96061631D01*
X137155211Y-96061631D01*
X137155211Y-96419673D01*
X137292228Y-96750461D01*
X137545402Y-97003635D01*
X137876190Y-97140652D01*
X138133950Y-97140652D01*
X138170443Y-97228753D01*
X138171226Y-97229536D01*
X138154800Y-97245961D01*
X138017783Y-97576749D01*
X138017783Y-97934791D01*
X138154800Y-98265579D01*
X138407974Y-98518753D01*
X138738762Y-98655770D01*
X139096804Y-98655770D01*
X139427592Y-98518753D01*
X139680766Y-98265579D01*
X139763244Y-98066460D01*
X139902900Y-98124308D01*
X139837017Y-98190191D01*
X139700000Y-98520979D01*
X139700000Y-98879021D01*
X139837017Y-99209809D01*
X140090191Y-99462983D01*
X140420979Y-99600000D01*
X140779021Y-99600000D01*
X141109809Y-99462983D01*
X141362983Y-99209809D01*
X141415197Y-99083752D01*
X141416049Y-99082478D01*
X141997055Y-98501472D01*
X142374377Y-98501472D01*
X142374377Y-98859514D01*
X142511394Y-99190302D01*
X142764568Y-99443476D01*
X143095356Y-99580493D01*
X143453398Y-99580493D01*
X143597862Y-99520654D01*
X143740191Y-99662983D01*
X144070979Y-99800000D01*
X144429021Y-99800000D01*
X144759809Y-99662983D01*
X145012983Y-99409809D01*
X145150000Y-99079021D01*
X145150000Y-98720979D01*
X145026267Y-98422261D01*
X146048528Y-97400000D01*
X160906614Y-97400000D01*
X160965700Y-97411753D01*
X161024786Y-97400000D01*
X161024791Y-97400000D01*
X161199808Y-97365187D01*
X161398275Y-97232575D01*
X161431749Y-97182478D01*
X172396061Y-86218167D01*
X172516773Y-86338880D01*
X172700544Y-86415000D01*
X172985000Y-86415000D01*
X173110000Y-86290000D01*
X173110000Y-85505000D01*
X173120000Y-85505000D01*
X173120000Y-86290000D01*
X173245000Y-86415000D01*
X173529456Y-86415000D01*
X173713227Y-86338880D01*
X173853879Y-86198227D01*
X173930000Y-86014456D01*
X173930000Y-85630000D01*
X173805000Y-85505000D01*
X173120000Y-85505000D01*
X173110000Y-85505000D01*
X173090000Y-85505000D01*
X173090000Y-85495000D01*
X173110000Y-85495000D01*
X173110000Y-84710000D01*
X173120000Y-84710000D01*
X173120000Y-85495000D01*
X173805000Y-85495000D01*
X173930000Y-85370000D01*
X173930000Y-84985544D01*
X173853879Y-84801773D01*
X173713227Y-84661120D01*
X173529456Y-84585000D01*
X173245000Y-84585000D01*
X173120000Y-84710000D01*
X173110000Y-84710000D01*
X173000000Y-84600000D01*
X173000000Y-84372792D01*
X173162983Y-84209809D01*
X173300000Y-83879021D01*
X173300000Y-83520979D01*
X173162983Y-83190191D01*
X173000000Y-83027208D01*
X173000000Y-83012959D01*
X173114472Y-82990189D01*
X173274741Y-82883102D01*
X173435010Y-82990189D01*
X173630100Y-83028995D01*
X174200000Y-83028995D01*
X174200000Y-83079021D01*
X174337017Y-83409809D01*
X174590191Y-83662983D01*
X174920979Y-83800000D01*
X175279021Y-83800000D01*
X175609809Y-83662983D01*
X175862983Y-83409809D01*
X176000000Y-83079021D01*
X176000000Y-82720979D01*
X175862983Y-82390191D01*
X175609809Y-82137017D01*
X175279021Y-82000000D01*
X175079695Y-82000000D01*
X175079695Y-81757200D01*
X175040889Y-81562110D01*
X174930380Y-81396720D01*
X174780674Y-81296690D01*
X174853127Y-81266679D01*
X174993780Y-81126027D01*
X175069900Y-80942256D01*
X175069900Y-80591800D01*
X174944900Y-80466800D01*
X174105000Y-80466800D01*
X174105000Y-80486800D01*
X174095000Y-80486800D01*
X174095000Y-80466800D01*
X172454482Y-80466800D01*
X172454482Y-80486800D01*
X172444482Y-80486800D01*
X172444482Y-80466800D01*
X170805000Y-80466800D01*
X170805000Y-80486800D01*
X170795000Y-80486800D01*
X170795000Y-80466800D01*
X169955100Y-80466800D01*
X169830100Y-80591800D01*
X169830100Y-80942256D01*
X169906220Y-81126027D01*
X170046873Y-81266679D01*
X170119326Y-81296690D01*
X169969620Y-81396720D01*
X169859111Y-81562110D01*
X169820305Y-81757200D01*
X169820305Y-82519200D01*
X169859111Y-82714290D01*
X169969620Y-82879680D01*
X170135010Y-82990189D01*
X170149483Y-82993068D01*
X170149483Y-83177725D01*
X170137017Y-83190191D01*
X170000000Y-83520979D01*
X170000000Y-83751473D01*
X169652221Y-84099251D01*
X169602125Y-84132725D01*
X169469513Y-84331193D01*
X169434700Y-84506210D01*
X169434700Y-84506214D01*
X169422947Y-84565300D01*
X169434700Y-84624387D01*
X169434701Y-85440904D01*
X169422946Y-85500000D01*
X169434700Y-85559090D01*
X169434701Y-86866771D01*
X160501482Y-95799991D01*
X145613967Y-95799991D01*
X145554879Y-95788238D01*
X145495791Y-95799991D01*
X145495788Y-95799991D01*
X145362566Y-95826490D01*
X145320770Y-95834804D01*
X145172398Y-95933944D01*
X145122304Y-95967416D01*
X145088832Y-96017510D01*
X143325850Y-97780493D01*
X143095356Y-97780493D01*
X142764568Y-97917510D01*
X142511394Y-98170684D01*
X142374377Y-98501472D01*
X141997055Y-98501472D01*
X150898529Y-89600000D01*
X161340914Y-89600000D01*
X161400000Y-89611753D01*
X161459086Y-89600000D01*
X161459091Y-89600000D01*
X161634108Y-89565187D01*
X161832575Y-89432575D01*
X161866049Y-89382478D01*
X165068558Y-86179969D01*
X165076121Y-86198227D01*
X165216773Y-86338880D01*
X165400544Y-86415000D01*
X165685000Y-86415000D01*
X165810000Y-86290000D01*
X165810000Y-85505000D01*
X165820000Y-85505000D01*
X165820000Y-86290000D01*
X165945000Y-86415000D01*
X166229456Y-86415000D01*
X166413227Y-86338880D01*
X166553879Y-86198227D01*
X166630000Y-86014456D01*
X166630000Y-85630000D01*
X166505000Y-85505000D01*
X165820000Y-85505000D01*
X165810000Y-85505000D01*
X165790000Y-85505000D01*
X165790000Y-85495000D01*
X165810000Y-85495000D01*
X165810000Y-84710000D01*
X165820000Y-84710000D01*
X165820000Y-85495000D01*
X166505000Y-85495000D01*
X166630000Y-85370000D01*
X166630000Y-84985544D01*
X166553879Y-84801773D01*
X166413227Y-84661120D01*
X166229456Y-84585000D01*
X165945000Y-84585000D01*
X165820000Y-84710000D01*
X165810000Y-84710000D01*
X165750000Y-84650000D01*
X165750000Y-84372792D01*
X165912983Y-84209809D01*
X166050000Y-83879021D01*
X166050000Y-83520979D01*
X165912983Y-83190191D01*
X165750000Y-83027208D01*
X165750000Y-82803116D01*
X165814990Y-82790189D01*
X165980380Y-82679680D01*
X166025000Y-82612901D01*
X166069620Y-82679680D01*
X166235010Y-82790189D01*
X166430100Y-82828995D01*
X166680468Y-82828995D01*
X166700000Y-82848527D01*
X166700000Y-83079021D01*
X166837017Y-83409809D01*
X167090191Y-83662983D01*
X167420979Y-83800000D01*
X167779021Y-83800000D01*
X168109809Y-83662983D01*
X168362983Y-83409809D01*
X168500000Y-83079021D01*
X168500000Y-82720979D01*
X168362983Y-82390191D01*
X168109809Y-82137017D01*
X167879695Y-82041701D01*
X167879695Y-81557200D01*
X167840889Y-81362110D01*
X167730380Y-81196720D01*
X167580674Y-81096690D01*
X167653127Y-81066679D01*
X167793780Y-80926027D01*
X167869900Y-80742256D01*
X167869900Y-80391800D01*
X167744900Y-80266800D01*
X166905000Y-80266800D01*
X166905000Y-80286800D01*
X166895000Y-80286800D01*
X166895000Y-80266800D01*
X166055100Y-80266800D01*
X166025000Y-80296900D01*
X165994900Y-80266800D01*
X165155000Y-80266800D01*
X165155000Y-80286800D01*
X165145000Y-80286800D01*
X165145000Y-80266800D01*
X164305100Y-80266800D01*
X164275000Y-80296900D01*
X164244900Y-80266800D01*
X163405000Y-80266800D01*
X163405000Y-80286800D01*
X163395000Y-80286800D01*
X163395000Y-80266800D01*
X162555100Y-80266800D01*
X162430100Y-80391800D01*
X162430100Y-80742256D01*
X162506220Y-80926027D01*
X162646873Y-81066679D01*
X162719326Y-81096690D01*
X162569620Y-81196720D01*
X162459111Y-81362110D01*
X162420305Y-81557200D01*
X162420305Y-82319200D01*
X162459111Y-82514290D01*
X162569620Y-82679680D01*
X162735010Y-82790189D01*
X162900001Y-82823008D01*
X162900000Y-83027208D01*
X162737017Y-83190191D01*
X162600000Y-83520979D01*
X162600000Y-83879021D01*
X162602396Y-83884806D01*
X162017521Y-84469681D01*
X161967425Y-84503155D01*
X161933953Y-84553249D01*
X158487213Y-87999990D01*
X156148537Y-87999990D01*
X157082481Y-87066047D01*
X157132575Y-87032575D01*
X157265187Y-86834108D01*
X157300000Y-86659091D01*
X157300000Y-86659087D01*
X157311753Y-86600001D01*
X157300000Y-86540914D01*
X157300000Y-86222106D01*
X157416773Y-86338880D01*
X157600544Y-86415000D01*
X157885000Y-86415000D01*
X158010000Y-86290000D01*
X158010000Y-85505000D01*
X158020000Y-85505000D01*
X158020000Y-86290000D01*
X158145000Y-86415000D01*
X158429456Y-86415000D01*
X158613227Y-86338880D01*
X158753879Y-86198227D01*
X158830000Y-86014456D01*
X158830000Y-85630000D01*
X158705000Y-85505000D01*
X158020000Y-85505000D01*
X158010000Y-85505000D01*
X157990000Y-85505000D01*
X157990000Y-85495000D01*
X158010000Y-85495000D01*
X158010000Y-84710000D01*
X158020000Y-84710000D01*
X158020000Y-85495000D01*
X158705000Y-85495000D01*
X158830000Y-85370000D01*
X158830000Y-84985544D01*
X158753879Y-84801773D01*
X158613227Y-84661120D01*
X158429456Y-84585000D01*
X158145000Y-84585000D01*
X158020000Y-84710000D01*
X158010000Y-84710000D01*
X157889582Y-84589582D01*
X157929011Y-84589582D01*
X158259799Y-84452565D01*
X158512973Y-84199391D01*
X158649990Y-83868603D01*
X158649990Y-83510561D01*
X158512973Y-83179773D01*
X158259799Y-82926599D01*
X158150000Y-82881119D01*
X158150000Y-82703116D01*
X158214990Y-82690189D01*
X158375000Y-82583275D01*
X158535010Y-82690189D01*
X158730100Y-82728995D01*
X159380468Y-82728995D01*
X159400000Y-82748528D01*
X159400000Y-82979021D01*
X159537017Y-83309809D01*
X159790191Y-83562983D01*
X160120979Y-83700000D01*
X160479021Y-83700000D01*
X160809809Y-83562983D01*
X161062983Y-83309809D01*
X161200000Y-82979021D01*
X161200000Y-82620979D01*
X161062983Y-82290191D01*
X160809809Y-82037017D01*
X160479021Y-81900000D01*
X160248528Y-81900000D01*
X160179695Y-81831168D01*
X160179695Y-81457200D01*
X160140889Y-81262110D01*
X160030380Y-81096720D01*
X159880674Y-80996690D01*
X159953127Y-80966679D01*
X160093780Y-80826027D01*
X160169900Y-80642256D01*
X160169900Y-80291800D01*
X160044900Y-80166800D01*
X159205000Y-80166800D01*
X159205000Y-80186800D01*
X159195000Y-80186800D01*
X159195000Y-80166800D01*
X157555000Y-80166800D01*
X157555000Y-80186800D01*
X157545000Y-80186800D01*
X157545000Y-80166800D01*
X157525000Y-80166800D01*
X157525000Y-80156800D01*
X157545000Y-80156800D01*
X157545000Y-79405800D01*
X157555000Y-79405800D01*
X157555000Y-80156800D01*
X159195000Y-80156800D01*
X159195000Y-79405800D01*
X159205000Y-79405800D01*
X159205000Y-80156800D01*
X160044900Y-80156800D01*
X160169900Y-80031800D01*
X160169900Y-79781344D01*
X162430100Y-79781344D01*
X162430100Y-80131800D01*
X162555100Y-80256800D01*
X163395000Y-80256800D01*
X163395000Y-79505800D01*
X163405000Y-79505800D01*
X163405000Y-80256800D01*
X164244900Y-80256800D01*
X164275000Y-80226700D01*
X164305100Y-80256800D01*
X165145000Y-80256800D01*
X165145000Y-79505800D01*
X165155000Y-79505800D01*
X165155000Y-80256800D01*
X165994900Y-80256800D01*
X166025000Y-80226700D01*
X166055100Y-80256800D01*
X166895000Y-80256800D01*
X166895000Y-79505800D01*
X166905000Y-79505800D01*
X166905000Y-80256800D01*
X167744900Y-80256800D01*
X167869900Y-80131800D01*
X167869900Y-79981344D01*
X169830100Y-79981344D01*
X169830100Y-80331800D01*
X169955100Y-80456800D01*
X170795000Y-80456800D01*
X170795000Y-79705800D01*
X170805000Y-79705800D01*
X170805000Y-80456800D01*
X172444482Y-80456800D01*
X172444482Y-79705800D01*
X172454482Y-79705800D01*
X172454482Y-80456800D01*
X174095000Y-80456800D01*
X174095000Y-79705800D01*
X174105000Y-79705800D01*
X174105000Y-80456800D01*
X174944900Y-80456800D01*
X175069900Y-80331800D01*
X175069900Y-79981344D01*
X174993780Y-79797573D01*
X174977551Y-79781344D01*
X177330100Y-79781344D01*
X177330100Y-80131800D01*
X177455100Y-80256800D01*
X178295000Y-80256800D01*
X178295000Y-79505800D01*
X178305000Y-79505800D01*
X178305000Y-80256800D01*
X179144900Y-80256800D01*
X179150000Y-80251700D01*
X179155100Y-80256800D01*
X179995000Y-80256800D01*
X179995000Y-79505800D01*
X180005000Y-79505800D01*
X180005000Y-80256800D01*
X180844900Y-80256800D01*
X180850000Y-80251700D01*
X180855100Y-80256800D01*
X181695000Y-80256800D01*
X181695000Y-79505800D01*
X181705000Y-79505800D01*
X181705000Y-80256800D01*
X182544900Y-80256800D01*
X182669900Y-80131800D01*
X182669900Y-79781344D01*
X182628479Y-79681344D01*
X199830100Y-79681344D01*
X199830100Y-80031800D01*
X199955100Y-80156800D01*
X200795000Y-80156800D01*
X200795000Y-79405800D01*
X200805000Y-79405800D01*
X200805000Y-80156800D01*
X202445000Y-80156800D01*
X202445000Y-79405800D01*
X202455000Y-79405800D01*
X202455000Y-80156800D01*
X204095000Y-80156800D01*
X204095000Y-79405800D01*
X204105000Y-79405800D01*
X204105000Y-80156800D01*
X204944900Y-80156800D01*
X205069900Y-80031800D01*
X205069900Y-79681344D01*
X204993780Y-79497573D01*
X204853127Y-79356921D01*
X204669356Y-79280800D01*
X204230000Y-79280800D01*
X204105000Y-79405800D01*
X204095000Y-79405800D01*
X203970000Y-79280800D01*
X203530644Y-79280800D01*
X203346873Y-79356921D01*
X203275000Y-79428793D01*
X203203127Y-79356921D01*
X203019356Y-79280800D01*
X202580000Y-79280800D01*
X202455000Y-79405800D01*
X202445000Y-79405800D01*
X202320000Y-79280800D01*
X201880644Y-79280800D01*
X201696873Y-79356921D01*
X201625000Y-79428793D01*
X201553127Y-79356921D01*
X201369356Y-79280800D01*
X200930000Y-79280800D01*
X200805000Y-79405800D01*
X200795000Y-79405800D01*
X200670000Y-79280800D01*
X200230644Y-79280800D01*
X200046873Y-79356921D01*
X199906220Y-79497573D01*
X199830100Y-79681344D01*
X182628479Y-79681344D01*
X182593780Y-79597573D01*
X182453127Y-79456921D01*
X182269356Y-79380800D01*
X181830000Y-79380800D01*
X181705000Y-79505800D01*
X181695000Y-79505800D01*
X181570000Y-79380800D01*
X181130644Y-79380800D01*
X180946873Y-79456921D01*
X180850000Y-79553793D01*
X180753127Y-79456921D01*
X180569356Y-79380800D01*
X180130000Y-79380800D01*
X180005000Y-79505800D01*
X179995000Y-79505800D01*
X179870000Y-79380800D01*
X179430644Y-79380800D01*
X179246873Y-79456921D01*
X179150000Y-79553793D01*
X179053127Y-79456921D01*
X178869356Y-79380800D01*
X178430000Y-79380800D01*
X178305000Y-79505800D01*
X178295000Y-79505800D01*
X178170000Y-79380800D01*
X177730644Y-79380800D01*
X177546873Y-79456921D01*
X177406220Y-79597573D01*
X177330100Y-79781344D01*
X174977551Y-79781344D01*
X174853127Y-79656921D01*
X174669356Y-79580800D01*
X174230000Y-79580800D01*
X174105000Y-79705800D01*
X174095000Y-79705800D01*
X173970000Y-79580800D01*
X173530644Y-79580800D01*
X173346873Y-79656921D01*
X173274741Y-79729052D01*
X173202609Y-79656921D01*
X173018838Y-79580800D01*
X172579482Y-79580800D01*
X172454482Y-79705800D01*
X172444482Y-79705800D01*
X172319482Y-79580800D01*
X171880126Y-79580800D01*
X171696355Y-79656921D01*
X171624741Y-79728534D01*
X171553127Y-79656921D01*
X171369356Y-79580800D01*
X170930000Y-79580800D01*
X170805000Y-79705800D01*
X170795000Y-79705800D01*
X170670000Y-79580800D01*
X170230644Y-79580800D01*
X170046873Y-79656921D01*
X169906220Y-79797573D01*
X169830100Y-79981344D01*
X167869900Y-79981344D01*
X167869900Y-79781344D01*
X167793780Y-79597573D01*
X167653127Y-79456921D01*
X167469356Y-79380800D01*
X167030000Y-79380800D01*
X166905000Y-79505800D01*
X166895000Y-79505800D01*
X166770000Y-79380800D01*
X166330644Y-79380800D01*
X166146873Y-79456921D01*
X166025000Y-79578793D01*
X165903127Y-79456921D01*
X165719356Y-79380800D01*
X165280000Y-79380800D01*
X165155000Y-79505800D01*
X165145000Y-79505800D01*
X165020000Y-79380800D01*
X164580644Y-79380800D01*
X164396873Y-79456921D01*
X164275000Y-79578793D01*
X164153127Y-79456921D01*
X163969356Y-79380800D01*
X163530000Y-79380800D01*
X163405000Y-79505800D01*
X163395000Y-79505800D01*
X163270000Y-79380800D01*
X162830644Y-79380800D01*
X162646873Y-79456921D01*
X162506220Y-79597573D01*
X162430100Y-79781344D01*
X160169900Y-79781344D01*
X160169900Y-79681344D01*
X160093780Y-79497573D01*
X159953127Y-79356921D01*
X159769356Y-79280800D01*
X159330000Y-79280800D01*
X159205000Y-79405800D01*
X159195000Y-79405800D01*
X159070000Y-79280800D01*
X158630644Y-79280800D01*
X158446873Y-79356921D01*
X158375000Y-79428793D01*
X158303127Y-79356921D01*
X158119356Y-79280800D01*
X157680000Y-79280800D01*
X157555000Y-79405800D01*
X157545000Y-79405800D01*
X157420000Y-79280800D01*
X156980644Y-79280800D01*
X156796873Y-79356921D01*
X156719100Y-79434693D01*
X156653127Y-79368721D01*
X156469356Y-79292600D01*
X156030000Y-79292600D01*
X155905000Y-79417600D01*
X155905000Y-80168600D01*
X155925000Y-80168600D01*
X155925000Y-80178600D01*
X155905000Y-80178600D01*
X155905000Y-80198600D01*
X155895000Y-80198600D01*
X155895000Y-80178600D01*
X155055100Y-80178600D01*
X154930100Y-80303600D01*
X154930100Y-80654056D01*
X155006220Y-80837827D01*
X155146873Y-80978479D01*
X155219326Y-81008490D01*
X155069620Y-81108520D01*
X154959111Y-81273910D01*
X154920305Y-81469000D01*
X154920305Y-82231000D01*
X154959111Y-82426090D01*
X155069620Y-82591480D01*
X155235010Y-82701989D01*
X155250001Y-82704971D01*
X155250001Y-83390909D01*
X155246420Y-83408911D01*
X155200000Y-83520979D01*
X155200000Y-83751471D01*
X154417520Y-84533953D01*
X154367425Y-84567425D01*
X154333952Y-84617521D01*
X154317522Y-84633951D01*
X154317519Y-84633953D01*
X154032809Y-84918664D01*
X153951622Y-84934813D01*
X153753155Y-85067425D01*
X153719683Y-85117519D01*
X151637235Y-87199968D01*
X150212019Y-87199968D01*
X150152933Y-87188215D01*
X150100000Y-87198744D01*
X150100000Y-86373354D01*
X150200544Y-86415000D01*
X150485000Y-86415000D01*
X150610000Y-86290000D01*
X150610000Y-85505000D01*
X150620000Y-85505000D01*
X150620000Y-86290000D01*
X150745000Y-86415000D01*
X151029456Y-86415000D01*
X151213227Y-86338880D01*
X151353879Y-86198227D01*
X151430000Y-86014456D01*
X151430000Y-85630000D01*
X151305000Y-85505000D01*
X150620000Y-85505000D01*
X150610000Y-85505000D01*
X150590000Y-85505000D01*
X150590000Y-85495000D01*
X150610000Y-85495000D01*
X150610000Y-85475000D01*
X150620000Y-85475000D01*
X150620000Y-85495000D01*
X151305000Y-85495000D01*
X151430000Y-85370000D01*
X151430000Y-84985544D01*
X151353879Y-84801773D01*
X151213227Y-84661120D01*
X151029456Y-84585000D01*
X150745000Y-84585000D01*
X150620002Y-84709998D01*
X150620002Y-84628526D01*
X150697677Y-84550851D01*
X150909809Y-84462983D01*
X151162983Y-84209809D01*
X151300000Y-83879021D01*
X151300000Y-83520979D01*
X151162983Y-83190191D01*
X150950000Y-82977208D01*
X150950000Y-82703116D01*
X151014990Y-82690189D01*
X151180380Y-82579680D01*
X151225000Y-82512901D01*
X151269620Y-82579680D01*
X151435010Y-82690189D01*
X151506836Y-82704476D01*
X151500000Y-82720979D01*
X151500000Y-83079021D01*
X151637017Y-83409809D01*
X151890191Y-83662983D01*
X152220979Y-83800000D01*
X152579021Y-83800000D01*
X152909809Y-83662983D01*
X153162983Y-83409809D01*
X153300000Y-83079021D01*
X153300000Y-82720979D01*
X153162983Y-82390191D01*
X153065144Y-82292352D01*
X153079695Y-82219200D01*
X153079695Y-81457200D01*
X153040889Y-81262110D01*
X152930380Y-81096720D01*
X152780674Y-80996690D01*
X152853127Y-80966679D01*
X152993780Y-80826027D01*
X153069900Y-80642256D01*
X153069900Y-80291800D01*
X152944900Y-80166800D01*
X152105000Y-80166800D01*
X152105000Y-80186800D01*
X152095000Y-80186800D01*
X152095000Y-80166800D01*
X151255100Y-80166800D01*
X151225000Y-80196900D01*
X151194900Y-80166800D01*
X150355000Y-80166800D01*
X150355000Y-80186800D01*
X150345000Y-80186800D01*
X150345000Y-80166800D01*
X149505100Y-80166800D01*
X149500000Y-80171900D01*
X149494900Y-80166800D01*
X148655000Y-80166800D01*
X148655000Y-80186800D01*
X148645000Y-80186800D01*
X148645000Y-80166800D01*
X147805100Y-80166800D01*
X147680100Y-80291800D01*
X147680100Y-80642256D01*
X147756220Y-80826027D01*
X147896873Y-80966679D01*
X147969326Y-80996690D01*
X147819620Y-81096720D01*
X147709111Y-81262110D01*
X147670305Y-81457200D01*
X147670305Y-82219200D01*
X147709111Y-82414290D01*
X147819620Y-82579680D01*
X147985010Y-82690189D01*
X148070077Y-82707110D01*
X147937017Y-82840170D01*
X147800000Y-83170958D01*
X147800000Y-83529000D01*
X147808317Y-83549078D01*
X147800000Y-83590889D01*
X147800000Y-83590893D01*
X147788247Y-83649979D01*
X147800000Y-83709066D01*
X147800001Y-84664063D01*
X147709520Y-84724520D01*
X147599011Y-84889910D01*
X147560205Y-85085000D01*
X147560205Y-85915000D01*
X147599011Y-86110090D01*
X147709520Y-86275480D01*
X147800000Y-86335937D01*
X147800001Y-88172972D01*
X141122974Y-94850000D01*
X138904951Y-94850000D01*
X138845863Y-94838247D01*
X138786775Y-94850000D01*
X138786772Y-94850000D01*
X138653550Y-94876499D01*
X138611754Y-94884813D01*
X138463382Y-94983953D01*
X138413288Y-95017425D01*
X138379816Y-95067519D01*
X138106683Y-95340652D01*
X137876190Y-95340652D01*
X137545402Y-95477669D01*
X137292228Y-95730843D01*
X137155211Y-96061631D01*
X131750000Y-96061631D01*
X131750000Y-79681344D01*
X147680100Y-79681344D01*
X147680100Y-80031800D01*
X147805100Y-80156800D01*
X148645000Y-80156800D01*
X148645000Y-79405800D01*
X148655000Y-79405800D01*
X148655000Y-80156800D01*
X149494900Y-80156800D01*
X149500000Y-80151700D01*
X149505100Y-80156800D01*
X150345000Y-80156800D01*
X150345000Y-79405800D01*
X150355000Y-79405800D01*
X150355000Y-80156800D01*
X151194900Y-80156800D01*
X151225000Y-80126700D01*
X151255100Y-80156800D01*
X152095000Y-80156800D01*
X152095000Y-79405800D01*
X152105000Y-79405800D01*
X152105000Y-80156800D01*
X152944900Y-80156800D01*
X153069900Y-80031800D01*
X153069900Y-79693144D01*
X154930100Y-79693144D01*
X154930100Y-80043600D01*
X155055100Y-80168600D01*
X155895000Y-80168600D01*
X155895000Y-79417600D01*
X155770000Y-79292600D01*
X155330644Y-79292600D01*
X155146873Y-79368721D01*
X155006220Y-79509373D01*
X154930100Y-79693144D01*
X153069900Y-79693144D01*
X153069900Y-79681344D01*
X152993780Y-79497573D01*
X152853127Y-79356921D01*
X152669356Y-79280800D01*
X152230000Y-79280800D01*
X152105000Y-79405800D01*
X152095000Y-79405800D01*
X151970000Y-79280800D01*
X151530644Y-79280800D01*
X151346873Y-79356921D01*
X151225000Y-79478793D01*
X151103127Y-79356921D01*
X150919356Y-79280800D01*
X150480000Y-79280800D01*
X150355000Y-79405800D01*
X150345000Y-79405800D01*
X150220000Y-79280800D01*
X149780644Y-79280800D01*
X149596873Y-79356921D01*
X149500000Y-79453793D01*
X149403127Y-79356921D01*
X149219356Y-79280800D01*
X148780000Y-79280800D01*
X148655000Y-79405800D01*
X148645000Y-79405800D01*
X148520000Y-79280800D01*
X148080644Y-79280800D01*
X147896873Y-79356921D01*
X147756220Y-79497573D01*
X147680100Y-79681344D01*
X131750000Y-79681344D01*
X131750000Y-71899701D01*
X140798990Y-71899701D01*
X140798990Y-72695299D01*
X141103452Y-73430335D01*
X141666025Y-73992908D01*
X142401061Y-74297370D01*
X143196659Y-74297370D01*
X143931695Y-73992908D01*
X144494268Y-73430335D01*
X144798730Y-72695299D01*
X144798730Y-71899701D01*
X191197670Y-71899701D01*
X191197670Y-72695299D01*
X191502132Y-73430335D01*
X192064705Y-73992908D01*
X192799741Y-74297370D01*
X193595339Y-74297370D01*
X194330375Y-73992908D01*
X194892948Y-73430335D01*
X195197410Y-72695299D01*
X195197410Y-71899701D01*
X194892948Y-71164665D01*
X194330375Y-70602092D01*
X193595339Y-70297630D01*
X192799741Y-70297630D01*
X192064705Y-70602092D01*
X191502132Y-71164665D01*
X191197670Y-71899701D01*
X144798730Y-71899701D01*
X144494268Y-71164665D01*
X143931695Y-70602092D01*
X143196659Y-70297630D01*
X142401061Y-70297630D01*
X141666025Y-70602092D01*
X141103452Y-71164665D01*
X140798990Y-71899701D01*
X131750000Y-71899701D01*
X131750000Y-68635089D01*
X152188350Y-68635089D01*
X152188350Y-69355911D01*
X152464197Y-70021864D01*
X152973896Y-70531563D01*
X153639849Y-70807410D01*
X154360671Y-70807410D01*
X155026624Y-70531563D01*
X155536323Y-70021864D01*
X155812170Y-69355911D01*
X155812170Y-68635089D01*
X156186310Y-68635089D01*
X156186310Y-69355911D01*
X156462157Y-70021864D01*
X156971856Y-70531563D01*
X157637809Y-70807410D01*
X158358631Y-70807410D01*
X159024584Y-70531563D01*
X159534283Y-70021864D01*
X159810130Y-69355911D01*
X159810130Y-68635089D01*
X160186810Y-68635089D01*
X160186810Y-69355911D01*
X160462657Y-70021864D01*
X160972356Y-70531563D01*
X161638309Y-70807410D01*
X162359131Y-70807410D01*
X163025084Y-70531563D01*
X163534783Y-70021864D01*
X163810630Y-69355911D01*
X163810630Y-68635089D01*
X164187310Y-68635089D01*
X164187310Y-69355911D01*
X164463157Y-70021864D01*
X164972856Y-70531563D01*
X165638809Y-70807410D01*
X166359631Y-70807410D01*
X167025584Y-70531563D01*
X167535283Y-70021864D01*
X167811130Y-69355911D01*
X167811130Y-68635089D01*
X168185270Y-68635089D01*
X168185270Y-69355911D01*
X168461117Y-70021864D01*
X168970816Y-70531563D01*
X169636769Y-70807410D01*
X170357591Y-70807410D01*
X171023544Y-70531563D01*
X171533243Y-70021864D01*
X171809090Y-69355911D01*
X171809090Y-68635089D01*
X172185770Y-68635089D01*
X172185770Y-69355911D01*
X172461617Y-70021864D01*
X172971316Y-70531563D01*
X173637269Y-70807410D01*
X174358091Y-70807410D01*
X175024044Y-70531563D01*
X175533743Y-70021864D01*
X175809590Y-69355911D01*
X175809590Y-68635089D01*
X176186270Y-68635089D01*
X176186270Y-69355911D01*
X176462117Y-70021864D01*
X176971816Y-70531563D01*
X177637769Y-70807410D01*
X178358591Y-70807410D01*
X179024544Y-70531563D01*
X179534243Y-70021864D01*
X179810090Y-69355911D01*
X179810090Y-68635089D01*
X180184230Y-68635089D01*
X180184230Y-69355911D01*
X180460077Y-70021864D01*
X180969776Y-70531563D01*
X181635729Y-70807410D01*
X182356551Y-70807410D01*
X183022504Y-70531563D01*
X183532203Y-70021864D01*
X183808050Y-69355911D01*
X183808050Y-68635089D01*
X183532203Y-67969136D01*
X183022504Y-67459437D01*
X182356551Y-67183590D01*
X181635729Y-67183590D01*
X180969776Y-67459437D01*
X180460077Y-67969136D01*
X180184230Y-68635089D01*
X179810090Y-68635089D01*
X179534243Y-67969136D01*
X179024544Y-67459437D01*
X178358591Y-67183590D01*
X177637769Y-67183590D01*
X176971816Y-67459437D01*
X176462117Y-67969136D01*
X176186270Y-68635089D01*
X175809590Y-68635089D01*
X175533743Y-67969136D01*
X175024044Y-67459437D01*
X174358091Y-67183590D01*
X173637269Y-67183590D01*
X172971316Y-67459437D01*
X172461617Y-67969136D01*
X172185770Y-68635089D01*
X171809090Y-68635089D01*
X171533243Y-67969136D01*
X171023544Y-67459437D01*
X170357591Y-67183590D01*
X169636769Y-67183590D01*
X168970816Y-67459437D01*
X168461117Y-67969136D01*
X168185270Y-68635089D01*
X167811130Y-68635089D01*
X167535283Y-67969136D01*
X167025584Y-67459437D01*
X166359631Y-67183590D01*
X165638809Y-67183590D01*
X164972856Y-67459437D01*
X164463157Y-67969136D01*
X164187310Y-68635089D01*
X163810630Y-68635089D01*
X163534783Y-67969136D01*
X163025084Y-67459437D01*
X162359131Y-67183590D01*
X161638309Y-67183590D01*
X160972356Y-67459437D01*
X160462657Y-67969136D01*
X160186810Y-68635089D01*
X159810130Y-68635089D01*
X159534283Y-67969136D01*
X159024584Y-67459437D01*
X158358631Y-67183590D01*
X157637809Y-67183590D01*
X156971856Y-67459437D01*
X156462157Y-67969136D01*
X156186310Y-68635089D01*
X155812170Y-68635089D01*
X155536323Y-67969136D01*
X155026624Y-67459437D01*
X154360671Y-67183590D01*
X153639849Y-67183590D01*
X152973896Y-67459437D01*
X152464197Y-67969136D01*
X152188350Y-68635089D01*
X131750000Y-68635089D01*
X131750000Y-64637129D01*
X154187330Y-64637129D01*
X154187330Y-65357951D01*
X154463177Y-66023904D01*
X154972876Y-66533603D01*
X155638829Y-66809450D01*
X156359651Y-66809450D01*
X157025604Y-66533603D01*
X157535303Y-66023904D01*
X157811150Y-65357951D01*
X157811150Y-64637129D01*
X158187830Y-64637129D01*
X158187830Y-65357951D01*
X158463677Y-66023904D01*
X158973376Y-66533603D01*
X159639329Y-66809450D01*
X160360151Y-66809450D01*
X161026104Y-66533603D01*
X161535803Y-66023904D01*
X161811650Y-65357951D01*
X161811650Y-64637129D01*
X162188330Y-64637129D01*
X162188330Y-65357951D01*
X162464177Y-66023904D01*
X162973876Y-66533603D01*
X163639829Y-66809450D01*
X164360651Y-66809450D01*
X165026604Y-66533603D01*
X165536303Y-66023904D01*
X165812150Y-65357951D01*
X165812150Y-64637129D01*
X166186290Y-64637129D01*
X166186290Y-65357951D01*
X166462137Y-66023904D01*
X166971836Y-66533603D01*
X167637789Y-66809450D01*
X168358611Y-66809450D01*
X169024564Y-66533603D01*
X169534263Y-66023904D01*
X169810110Y-65357951D01*
X169810110Y-64637129D01*
X170184250Y-64637129D01*
X170184250Y-65357951D01*
X170460097Y-66023904D01*
X170969796Y-66533603D01*
X171635749Y-66809450D01*
X172356571Y-66809450D01*
X173022524Y-66533603D01*
X173532223Y-66023904D01*
X173808070Y-65357951D01*
X173808070Y-64637129D01*
X174184750Y-64637129D01*
X174184750Y-65357951D01*
X174460597Y-66023904D01*
X174970296Y-66533603D01*
X175636249Y-66809450D01*
X176357071Y-66809450D01*
X177023024Y-66533603D01*
X177532723Y-66023904D01*
X177808570Y-65357951D01*
X177808570Y-64637129D01*
X178185250Y-64637129D01*
X178185250Y-65357951D01*
X178461097Y-66023904D01*
X178970796Y-66533603D01*
X179636749Y-66809450D01*
X180357571Y-66809450D01*
X181023524Y-66533603D01*
X181533223Y-66023904D01*
X181809070Y-65357951D01*
X181809070Y-64637129D01*
X181533223Y-63971176D01*
X181023524Y-63461477D01*
X180357571Y-63185630D01*
X179636749Y-63185630D01*
X178970796Y-63461477D01*
X178461097Y-63971176D01*
X178185250Y-64637129D01*
X177808570Y-64637129D01*
X177532723Y-63971176D01*
X177023024Y-63461477D01*
X176357071Y-63185630D01*
X175636249Y-63185630D01*
X174970296Y-63461477D01*
X174460597Y-63971176D01*
X174184750Y-64637129D01*
X173808070Y-64637129D01*
X173532223Y-63971176D01*
X173022524Y-63461477D01*
X172356571Y-63185630D01*
X171635749Y-63185630D01*
X170969796Y-63461477D01*
X170460097Y-63971176D01*
X170184250Y-64637129D01*
X169810110Y-64637129D01*
X169534263Y-63971176D01*
X169024564Y-63461477D01*
X168358611Y-63185630D01*
X167637789Y-63185630D01*
X166971836Y-63461477D01*
X166462137Y-63971176D01*
X166186290Y-64637129D01*
X165812150Y-64637129D01*
X165536303Y-63971176D01*
X165026604Y-63461477D01*
X164360651Y-63185630D01*
X163639829Y-63185630D01*
X162973876Y-63461477D01*
X162464177Y-63971176D01*
X162188330Y-64637129D01*
X161811650Y-64637129D01*
X161535803Y-63971176D01*
X161026104Y-63461477D01*
X160360151Y-63185630D01*
X159639329Y-63185630D01*
X158973376Y-63461477D01*
X158463677Y-63971176D01*
X158187830Y-64637129D01*
X157811150Y-64637129D01*
X157535303Y-63971176D01*
X157025604Y-63461477D01*
X156359651Y-63185630D01*
X155638829Y-63185630D01*
X154972876Y-63461477D01*
X154463177Y-63971176D01*
X154187330Y-64637129D01*
X131750000Y-64637129D01*
X131750000Y-59820979D01*
X140150000Y-59820979D01*
X140150000Y-60179021D01*
X140287017Y-60509809D01*
X140540191Y-60762983D01*
X140870979Y-60900000D01*
X141229021Y-60900000D01*
X141559809Y-60762983D01*
X141722792Y-60600000D01*
X143901473Y-60600000D01*
X146000000Y-62698528D01*
X146000000Y-62929021D01*
X146137017Y-63259809D01*
X146390191Y-63512983D01*
X146720979Y-63650000D01*
X147079021Y-63650000D01*
X147409809Y-63512983D01*
X147662983Y-63259809D01*
X147800000Y-62929021D01*
X147800000Y-62570979D01*
X147662983Y-62240191D01*
X147409809Y-61987017D01*
X147079021Y-61850000D01*
X146848528Y-61850000D01*
X144686198Y-59687670D01*
X152178555Y-59687670D01*
X152178555Y-62311490D01*
X152217361Y-62506580D01*
X152327870Y-62671970D01*
X152493260Y-62782479D01*
X152688350Y-62821285D01*
X155312170Y-62821285D01*
X155507260Y-62782479D01*
X155672650Y-62671970D01*
X155783159Y-62506580D01*
X155821965Y-62311490D01*
X155821965Y-60639169D01*
X156186310Y-60639169D01*
X156186310Y-61359991D01*
X156462157Y-62025944D01*
X156971856Y-62535643D01*
X157637809Y-62811490D01*
X158358631Y-62811490D01*
X159024584Y-62535643D01*
X159534283Y-62025944D01*
X159810130Y-61359991D01*
X159810130Y-60639169D01*
X160186810Y-60639169D01*
X160186810Y-61359991D01*
X160462657Y-62025944D01*
X160972356Y-62535643D01*
X161638309Y-62811490D01*
X162359131Y-62811490D01*
X163025084Y-62535643D01*
X163534783Y-62025944D01*
X163810630Y-61359991D01*
X163810630Y-60639169D01*
X164187310Y-60639169D01*
X164187310Y-61359991D01*
X164463157Y-62025944D01*
X164972856Y-62535643D01*
X165638809Y-62811490D01*
X166359631Y-62811490D01*
X167025584Y-62535643D01*
X167535283Y-62025944D01*
X167811130Y-61359991D01*
X167811130Y-60639169D01*
X168185270Y-60639169D01*
X168185270Y-61359991D01*
X168461117Y-62025944D01*
X168970816Y-62535643D01*
X169636769Y-62811490D01*
X170357591Y-62811490D01*
X171023544Y-62535643D01*
X171533243Y-62025944D01*
X171809090Y-61359991D01*
X171809090Y-60639169D01*
X172185770Y-60639169D01*
X172185770Y-61359991D01*
X172461617Y-62025944D01*
X172971316Y-62535643D01*
X173637269Y-62811490D01*
X174358091Y-62811490D01*
X175024044Y-62535643D01*
X175533743Y-62025944D01*
X175809590Y-61359991D01*
X175809590Y-60639169D01*
X176186270Y-60639169D01*
X176186270Y-61359991D01*
X176462117Y-62025944D01*
X176971816Y-62535643D01*
X177637769Y-62811490D01*
X178358591Y-62811490D01*
X179024544Y-62535643D01*
X179534243Y-62025944D01*
X179810090Y-61359991D01*
X179810090Y-60639169D01*
X180184230Y-60639169D01*
X180184230Y-61359991D01*
X180460077Y-62025944D01*
X180969776Y-62535643D01*
X181635729Y-62811490D01*
X182356551Y-62811490D01*
X183022504Y-62535643D01*
X183532203Y-62025944D01*
X183808050Y-61359991D01*
X183808050Y-60639169D01*
X183532203Y-59973216D01*
X183022504Y-59463517D01*
X182356551Y-59187670D01*
X181635729Y-59187670D01*
X180969776Y-59463517D01*
X180460077Y-59973216D01*
X180184230Y-60639169D01*
X179810090Y-60639169D01*
X179534243Y-59973216D01*
X179024544Y-59463517D01*
X178358591Y-59187670D01*
X177637769Y-59187670D01*
X176971816Y-59463517D01*
X176462117Y-59973216D01*
X176186270Y-60639169D01*
X175809590Y-60639169D01*
X175533743Y-59973216D01*
X175024044Y-59463517D01*
X174358091Y-59187670D01*
X173637269Y-59187670D01*
X172971316Y-59463517D01*
X172461617Y-59973216D01*
X172185770Y-60639169D01*
X171809090Y-60639169D01*
X171533243Y-59973216D01*
X171023544Y-59463517D01*
X170357591Y-59187670D01*
X169636769Y-59187670D01*
X168970816Y-59463517D01*
X168461117Y-59973216D01*
X168185270Y-60639169D01*
X167811130Y-60639169D01*
X167535283Y-59973216D01*
X167025584Y-59463517D01*
X166359631Y-59187670D01*
X165638809Y-59187670D01*
X164972856Y-59463517D01*
X164463157Y-59973216D01*
X164187310Y-60639169D01*
X163810630Y-60639169D01*
X163534783Y-59973216D01*
X163025084Y-59463517D01*
X162359131Y-59187670D01*
X161638309Y-59187670D01*
X160972356Y-59463517D01*
X160462657Y-59973216D01*
X160186810Y-60639169D01*
X159810130Y-60639169D01*
X159534283Y-59973216D01*
X159024584Y-59463517D01*
X158358631Y-59187670D01*
X157637809Y-59187670D01*
X156971856Y-59463517D01*
X156462157Y-59973216D01*
X156186310Y-60639169D01*
X155821965Y-60639169D01*
X155821965Y-59687670D01*
X155783159Y-59492580D01*
X155672650Y-59327190D01*
X155507260Y-59216681D01*
X155312170Y-59177875D01*
X152688350Y-59177875D01*
X152493260Y-59216681D01*
X152327870Y-59327190D01*
X152217361Y-59492580D01*
X152178555Y-59687670D01*
X144686198Y-59687670D01*
X144616049Y-59617522D01*
X144582575Y-59567425D01*
X144384108Y-59434813D01*
X144209091Y-59400000D01*
X144209086Y-59400000D01*
X144150000Y-59388247D01*
X144090914Y-59400000D01*
X141722792Y-59400000D01*
X141559809Y-59237017D01*
X141229021Y-59100000D01*
X140870979Y-59100000D01*
X140540191Y-59237017D01*
X140287017Y-59490191D01*
X140150000Y-59820979D01*
X131750000Y-59820979D01*
X131750000Y-53802201D01*
X142300130Y-53802201D01*
X142300130Y-54597799D01*
X142604592Y-55332835D01*
X143167165Y-55895408D01*
X143902201Y-56199870D01*
X144697799Y-56199870D01*
X145432835Y-55895408D01*
X145607264Y-55720979D01*
X147500000Y-55720979D01*
X147500000Y-56079021D01*
X147637017Y-56409809D01*
X147890191Y-56662983D01*
X148213523Y-56796911D01*
X148100000Y-57070979D01*
X148100000Y-57429021D01*
X148237017Y-57759809D01*
X148490191Y-58012983D01*
X148820979Y-58150000D01*
X149179021Y-58150000D01*
X149509809Y-58012983D01*
X149522792Y-58000000D01*
X149787946Y-58000000D01*
X149915309Y-58307480D01*
X150168483Y-58560654D01*
X150499271Y-58697671D01*
X150857313Y-58697671D01*
X151188101Y-58560654D01*
X151441275Y-58307480D01*
X151578292Y-57976692D01*
X151578292Y-57950000D01*
X173640918Y-57950000D01*
X173700004Y-57961753D01*
X173759090Y-57950000D01*
X173759095Y-57950000D01*
X173934112Y-57915187D01*
X174132579Y-57782575D01*
X174166053Y-57732478D01*
X176548532Y-55350000D01*
X176779025Y-55350000D01*
X177109813Y-55212983D01*
X177362987Y-54959809D01*
X177500004Y-54629021D01*
X177500004Y-54270979D01*
X177362987Y-53940191D01*
X177224997Y-53802201D01*
X189696530Y-53802201D01*
X189696530Y-54597799D01*
X190000992Y-55332835D01*
X190563565Y-55895408D01*
X191298601Y-56199870D01*
X192094199Y-56199870D01*
X192829235Y-55895408D01*
X193391808Y-55332835D01*
X193696270Y-54597799D01*
X193696270Y-53802201D01*
X193391808Y-53067165D01*
X192829235Y-52504592D01*
X192094199Y-52200130D01*
X191298601Y-52200130D01*
X190563565Y-52504592D01*
X190000992Y-53067165D01*
X189696530Y-53802201D01*
X177224997Y-53802201D01*
X177109813Y-53687017D01*
X176779025Y-53550000D01*
X176420983Y-53550000D01*
X176090195Y-53687017D01*
X175837021Y-53940191D01*
X175700004Y-54270979D01*
X175700004Y-54501472D01*
X173451477Y-56750000D01*
X172372792Y-56750000D01*
X172512983Y-56609809D01*
X172650000Y-56279021D01*
X172650000Y-55920979D01*
X172512983Y-55590191D01*
X172259809Y-55337017D01*
X171929021Y-55200000D01*
X171570979Y-55200000D01*
X171240191Y-55337017D01*
X170987017Y-55590191D01*
X170850000Y-55920979D01*
X170850000Y-56151472D01*
X170651473Y-56350000D01*
X168350000Y-56350000D01*
X168350000Y-56070979D01*
X168212983Y-55740191D01*
X167959809Y-55487017D01*
X167629021Y-55350000D01*
X167270979Y-55350000D01*
X166940191Y-55487017D01*
X166782497Y-55644711D01*
X166749999Y-55638247D01*
X166690913Y-55650000D01*
X166690909Y-55650000D01*
X166515892Y-55684813D01*
X166317425Y-55817425D01*
X166283951Y-55867522D01*
X166201473Y-55950000D01*
X161867046Y-55950000D01*
X162000000Y-55629021D01*
X162000000Y-55270979D01*
X161862983Y-54940191D01*
X161609809Y-54687017D01*
X161279021Y-54550000D01*
X160920979Y-54550000D01*
X160590191Y-54687017D01*
X160337017Y-54940191D01*
X160200000Y-55270979D01*
X160200000Y-55501473D01*
X160151473Y-55550000D01*
X150798527Y-55550000D01*
X150766049Y-55517522D01*
X150732575Y-55467425D01*
X150534108Y-55334813D01*
X150359091Y-55300000D01*
X150359086Y-55300000D01*
X150300000Y-55288247D01*
X150240914Y-55300000D01*
X149072792Y-55300000D01*
X148909809Y-55137017D01*
X148579021Y-55000000D01*
X148220979Y-55000000D01*
X147890191Y-55137017D01*
X147637017Y-55390191D01*
X147500000Y-55720979D01*
X145607264Y-55720979D01*
X145995408Y-55332835D01*
X146299870Y-54597799D01*
X146299870Y-53802201D01*
X146183384Y-53520979D01*
X149050000Y-53520979D01*
X149050000Y-53879021D01*
X149187017Y-54209809D01*
X149440191Y-54462983D01*
X149770979Y-54600000D01*
X150129021Y-54600000D01*
X150459809Y-54462983D01*
X150712983Y-54209809D01*
X150850000Y-53879021D01*
X150850000Y-53648527D01*
X151698528Y-52800000D01*
X156927208Y-52800000D01*
X157090191Y-52962983D01*
X157420979Y-53100000D01*
X157779021Y-53100000D01*
X158109809Y-52962983D01*
X158362983Y-52709809D01*
X158500000Y-52379021D01*
X158500000Y-52020979D01*
X158362983Y-51690191D01*
X158109809Y-51437017D01*
X157779021Y-51300000D01*
X157420979Y-51300000D01*
X157090191Y-51437017D01*
X156927208Y-51600000D01*
X151509085Y-51600000D01*
X151449999Y-51588247D01*
X151390913Y-51600000D01*
X151390909Y-51600000D01*
X151215892Y-51634813D01*
X151017425Y-51767425D01*
X150983953Y-51817519D01*
X150001473Y-52800000D01*
X149770979Y-52800000D01*
X149440191Y-52937017D01*
X149187017Y-53190191D01*
X149050000Y-53520979D01*
X146183384Y-53520979D01*
X145995408Y-53067165D01*
X145432835Y-52504592D01*
X144697799Y-52200130D01*
X143902201Y-52200130D01*
X143167165Y-52504592D01*
X142604592Y-53067165D01*
X142300130Y-53802201D01*
X131750000Y-53802201D01*
X131750000Y-52669237D01*
X133969239Y-50450000D01*
X156277208Y-50450000D01*
X156390191Y-50562983D01*
X156720979Y-50700000D01*
X157079021Y-50700000D01*
X157409809Y-50562983D01*
X157522792Y-50450000D01*
X164677208Y-50450000D01*
X164790191Y-50562983D01*
X165120979Y-50700000D01*
X165479021Y-50700000D01*
X165809809Y-50562983D01*
X165922792Y-50450000D01*
X171212243Y-50450000D01*
X171237017Y-50509809D01*
X171490191Y-50762983D01*
X171820979Y-50900000D01*
X172179021Y-50900000D01*
X172509809Y-50762983D01*
X172762983Y-50509809D01*
X172900000Y-50179021D01*
X172900000Y-49820979D01*
X172807622Y-49597960D01*
X204964393Y-49597960D01*
X205307273Y-49636420D01*
X205601233Y-49738787D01*
X205865210Y-49903738D01*
X206086080Y-50123072D01*
X206252870Y-50385889D01*
X206357288Y-50679128D01*
X206397940Y-51020050D01*
X206397941Y-136964404D01*
X206359480Y-137307294D01*
X206257111Y-137601255D01*
X206092162Y-137865230D01*
X205872829Y-138086100D01*
X205610009Y-138252890D01*
X205316771Y-138357308D01*
X204975848Y-138397960D01*
X131031461Y-138398077D01*
X130688589Y-138359652D01*
X130394662Y-138257329D01*
X130130703Y-138092426D01*
X129909842Y-137873145D01*
X129743050Y-137610379D01*
X129638619Y-137317195D01*
X129597940Y-136976340D01*
X129597940Y-135520979D01*
X133900000Y-135520979D01*
X133900000Y-135879021D01*
X134037017Y-136209809D01*
X134290191Y-136462983D01*
X134620979Y-136600000D01*
X134979021Y-136600000D01*
X135309809Y-136462983D01*
X135350000Y-136422792D01*
X135590191Y-136662983D01*
X135920979Y-136800000D01*
X136279021Y-136800000D01*
X136609809Y-136662983D01*
X136862983Y-136409809D01*
X137000000Y-136079021D01*
X137000000Y-136000000D01*
X151879599Y-136000000D01*
X151948534Y-136013712D01*
X152017469Y-136000000D01*
X152017474Y-136000000D01*
X152221660Y-135959385D01*
X152453205Y-135804671D01*
X152492259Y-135746223D01*
X158338781Y-129899701D01*
X181197710Y-129899701D01*
X181197710Y-130695299D01*
X181502172Y-131430335D01*
X182064745Y-131992908D01*
X182799781Y-132297370D01*
X183595379Y-132297370D01*
X184330415Y-131992908D01*
X184892988Y-131430335D01*
X185197450Y-130695299D01*
X185197450Y-129899701D01*
X184892988Y-129164665D01*
X184330415Y-128602092D01*
X183595379Y-128297630D01*
X182799781Y-128297630D01*
X182064745Y-128602092D01*
X181502172Y-129164665D01*
X181197710Y-129899701D01*
X158338781Y-129899701D01*
X161603393Y-126635089D01*
X162188350Y-126635089D01*
X162188350Y-127355911D01*
X162464197Y-128021864D01*
X162973896Y-128531563D01*
X163639849Y-128807410D01*
X164360671Y-128807410D01*
X165026624Y-128531563D01*
X165536323Y-128021864D01*
X165812170Y-127355911D01*
X165812170Y-126635089D01*
X166186310Y-126635089D01*
X166186310Y-127355911D01*
X166462157Y-128021864D01*
X166971856Y-128531563D01*
X167637809Y-128807410D01*
X168358631Y-128807410D01*
X169024584Y-128531563D01*
X169534283Y-128021864D01*
X169810130Y-127355911D01*
X169810130Y-126635089D01*
X170184270Y-126635089D01*
X170184270Y-127355911D01*
X170460117Y-128021864D01*
X170969816Y-128531563D01*
X171635769Y-128807410D01*
X172356591Y-128807410D01*
X173022544Y-128531563D01*
X173532243Y-128021864D01*
X173808090Y-127355911D01*
X173808090Y-126635089D01*
X173532243Y-125969136D01*
X173022544Y-125459437D01*
X172356591Y-125183590D01*
X171635769Y-125183590D01*
X170969816Y-125459437D01*
X170460117Y-125969136D01*
X170184270Y-126635089D01*
X169810130Y-126635089D01*
X169534283Y-125969136D01*
X169024584Y-125459437D01*
X168358631Y-125183590D01*
X167637809Y-125183590D01*
X166971856Y-125459437D01*
X166462157Y-125969136D01*
X166186310Y-126635089D01*
X165812170Y-126635089D01*
X165536323Y-125969136D01*
X165026624Y-125459437D01*
X164360671Y-125183590D01*
X163639849Y-125183590D01*
X162973896Y-125459437D01*
X162464197Y-125969136D01*
X162188350Y-126635089D01*
X161603393Y-126635089D01*
X164390364Y-123848119D01*
X164463177Y-124023904D01*
X164972876Y-124533603D01*
X165638829Y-124809450D01*
X166359651Y-124809450D01*
X167025604Y-124533603D01*
X167535303Y-124023904D01*
X167811150Y-123357951D01*
X167811150Y-122637129D01*
X167535303Y-121971176D01*
X167364127Y-121800000D01*
X167809712Y-121800000D01*
X168320475Y-122310764D01*
X168185290Y-122637129D01*
X168185290Y-123357951D01*
X168461137Y-124023904D01*
X168970836Y-124533603D01*
X169636789Y-124809450D01*
X170357611Y-124809450D01*
X171023564Y-124533603D01*
X171533263Y-124023904D01*
X171809110Y-123357951D01*
X171809110Y-122637129D01*
X171533263Y-121971176D01*
X171023564Y-121461477D01*
X170357611Y-121185630D01*
X169636789Y-121185630D01*
X169310424Y-121320815D01*
X168671825Y-120682217D01*
X168967747Y-120572135D01*
X169080050Y-120497096D01*
X169212605Y-120221036D01*
X167998220Y-119006651D01*
X166783835Y-120221036D01*
X166869768Y-120400000D01*
X165804359Y-120400000D01*
X165821965Y-120311490D01*
X165821965Y-119293516D01*
X166174347Y-119293516D01*
X166425665Y-119969107D01*
X166500704Y-120081410D01*
X166776764Y-120213965D01*
X167991149Y-118999580D01*
X168005291Y-118999580D01*
X169219676Y-120213965D01*
X169495736Y-120081410D01*
X169795743Y-119425985D01*
X169822093Y-118705644D01*
X169797365Y-118639169D01*
X170184270Y-118639169D01*
X170184270Y-119359991D01*
X170460117Y-120025944D01*
X170969816Y-120535643D01*
X171635769Y-120811490D01*
X172356591Y-120811490D01*
X173022544Y-120535643D01*
X173532243Y-120025944D01*
X173808090Y-119359991D01*
X173808090Y-118639169D01*
X173532243Y-117973216D01*
X173022544Y-117463517D01*
X172356591Y-117187670D01*
X171635769Y-117187670D01*
X170969816Y-117463517D01*
X170460117Y-117973216D01*
X170184270Y-118639169D01*
X169797365Y-118639169D01*
X169570775Y-118030053D01*
X169495736Y-117917750D01*
X169219676Y-117785195D01*
X168005291Y-118999580D01*
X167991149Y-118999580D01*
X166776764Y-117785195D01*
X166500704Y-117917750D01*
X166200697Y-118573175D01*
X166174347Y-119293516D01*
X165821965Y-119293516D01*
X165821965Y-117778124D01*
X166783835Y-117778124D01*
X167998220Y-118992509D01*
X169212605Y-117778124D01*
X169080050Y-117502064D01*
X168424625Y-117202057D01*
X167704284Y-117175707D01*
X167028693Y-117427025D01*
X166916390Y-117502064D01*
X166783835Y-117778124D01*
X165821965Y-117778124D01*
X165821965Y-117687670D01*
X165783159Y-117492580D01*
X165672650Y-117327190D01*
X165507260Y-117216681D01*
X165312170Y-117177875D01*
X162688350Y-117177875D01*
X162493260Y-117216681D01*
X162327870Y-117327190D01*
X162217361Y-117492580D01*
X162178555Y-117687670D01*
X162178555Y-120311490D01*
X162217361Y-120506580D01*
X162327870Y-120671970D01*
X162493260Y-120782479D01*
X162688350Y-120821285D01*
X164588766Y-120821285D01*
X154798730Y-130611322D01*
X154798730Y-129899701D01*
X154494268Y-129164665D01*
X153931695Y-128602092D01*
X153196659Y-128297630D01*
X152401061Y-128297630D01*
X151666025Y-128602092D01*
X151103452Y-129164665D01*
X150798990Y-129899701D01*
X150798990Y-130695299D01*
X151103452Y-131430335D01*
X151666025Y-131992908D01*
X152401061Y-132297370D01*
X153112682Y-132297370D01*
X151510052Y-133900000D01*
X135968935Y-133900000D01*
X135900000Y-133886288D01*
X135831065Y-133900000D01*
X135831060Y-133900000D01*
X135626874Y-133940615D01*
X135395329Y-134095329D01*
X135356277Y-134153774D01*
X134710052Y-134800000D01*
X134620979Y-134800000D01*
X134290191Y-134937017D01*
X134037017Y-135190191D01*
X133900000Y-135520979D01*
X129597940Y-135520979D01*
X129597940Y-130020979D01*
X132700000Y-130020979D01*
X132700000Y-130379021D01*
X132837017Y-130709809D01*
X133090191Y-130962983D01*
X133420979Y-131100000D01*
X133779021Y-131100000D01*
X134109809Y-130962983D01*
X134272792Y-130800000D01*
X135690914Y-130800000D01*
X135750000Y-130811753D01*
X135809086Y-130800000D01*
X135809091Y-130800000D01*
X135984108Y-130765187D01*
X136182575Y-130632575D01*
X136216049Y-130582479D01*
X136500000Y-130298527D01*
X136500000Y-130479021D01*
X136637017Y-130809809D01*
X136890191Y-131062983D01*
X137220979Y-131200000D01*
X137579021Y-131200000D01*
X137909809Y-131062983D01*
X138162983Y-130809809D01*
X138300000Y-130479021D01*
X138300000Y-130120979D01*
X138162983Y-129790191D01*
X138000000Y-129627208D01*
X138000000Y-122648527D01*
X141282481Y-119366047D01*
X141332575Y-119332575D01*
X141465187Y-119134108D01*
X141500000Y-118959091D01*
X141500000Y-118959087D01*
X141511753Y-118900001D01*
X141500000Y-118840915D01*
X141500000Y-115798527D01*
X143348528Y-113950000D01*
X143579021Y-113950000D01*
X143909809Y-113812983D01*
X144162983Y-113559809D01*
X144300000Y-113229021D01*
X144300000Y-112870979D01*
X144162983Y-112540191D01*
X144147792Y-112525000D01*
X144262983Y-112409809D01*
X144400000Y-112079021D01*
X144400000Y-111720979D01*
X144262983Y-111390191D01*
X144009809Y-111137017D01*
X143679021Y-111000000D01*
X143320979Y-111000000D01*
X142990191Y-111137017D01*
X142737017Y-111390191D01*
X142600000Y-111720979D01*
X142600000Y-111951472D01*
X140067522Y-114483951D01*
X140017425Y-114517425D01*
X139884813Y-114715893D01*
X139850000Y-114890910D01*
X139850000Y-114890914D01*
X139838247Y-114950000D01*
X139850000Y-115009086D01*
X139850001Y-118501471D01*
X136567522Y-121783951D01*
X136517425Y-121817425D01*
X136384813Y-122015893D01*
X136350000Y-122190910D01*
X136350000Y-122190914D01*
X136338247Y-122250000D01*
X136350000Y-122309086D01*
X136350001Y-128751471D01*
X135501473Y-129600000D01*
X134272792Y-129600000D01*
X134109809Y-129437017D01*
X133779021Y-129300000D01*
X133420979Y-129300000D01*
X133090191Y-129437017D01*
X132837017Y-129690191D01*
X132700000Y-130020979D01*
X129597940Y-130020979D01*
X129597940Y-119320979D01*
X131200000Y-119320979D01*
X131200000Y-119679021D01*
X131337017Y-120009809D01*
X131590191Y-120262983D01*
X131920979Y-120400000D01*
X132279021Y-120400000D01*
X132609809Y-120262983D01*
X132862983Y-120009809D01*
X133000000Y-119679021D01*
X133000000Y-119320979D01*
X132862983Y-118990191D01*
X132609809Y-118737017D01*
X132279021Y-118600000D01*
X131920979Y-118600000D01*
X131590191Y-118737017D01*
X131337017Y-118990191D01*
X131200000Y-119320979D01*
X129597940Y-119320979D01*
X129597940Y-51031507D01*
X129636400Y-50688627D01*
X129738767Y-50394667D01*
X129903718Y-50130690D01*
X130123052Y-49909820D01*
X130385869Y-49743030D01*
X130679108Y-49638612D01*
X131020030Y-49597960D01*
X132982801Y-49597960D01*
X130685652Y-51895111D01*
M02*
