M48
;DRILL file {KiCad (5.0.0-rc2-dev-130-g0bdae22af-dirty)} date Thu Oct  4 20:22:12 2018
;FORMAT={-:-/ absolute / inch / decimal}
FMAT,2
INCH,TZ
T1C0.0157
T2C0.0688
T3C0.0787
%
G90
G05
M72
T1
X5.1122Y-2.8031
X5.1142Y-4.2087
X5.1142Y-4.6083
X5.1142Y-4.8287
X5.1161Y-2.2087
X5.1161Y-2.5925
X5.1161Y-3.2146
X5.1161Y-3.4331
X5.1161Y-3.687
X5.1181Y-3.9498
X5.1181Y-5.2028
X5.1201Y-2.3976
X5.1201Y-3.
X5.128Y-4.4606
X5.1437Y-1.9862
X5.1614Y-4.4056
X5.186Y-5.4242
X5.1988Y-2.4803
X5.2008Y-2.6673
X5.2008Y-4.7047
X5.2067Y-2.2992
X5.2087Y-2.1043
X5.2087Y-4.9449
X5.2411Y-3.6988
X5.2598Y-5.126
X5.2677Y-4.1162
X5.2736Y-4.2579
X5.2736Y-4.313
X5.2756Y-4.2165
X5.2825Y-5.0364
X5.2854Y-2.0098
X5.2874Y-3.5827
X5.2874Y-3.7972
X5.2913Y-4.6535
X5.2923Y-3.3829
X5.2933Y-2.8484
X5.2933Y-3.2638
X5.3071Y-5.3425
X5.311Y-4.0177
X5.3227Y-4.3129
X5.3287Y-2.5453
X5.3386Y-4.8888
X5.3524Y-4.3405
X5.3583Y-5.3504
X5.3661Y-4.2441
X5.3967Y-4.0167
X5.4094Y-5.1299
X5.4114Y-3.0709
X5.4173Y-3.3701
X5.4183Y-3.7008
X5.4352Y-3.789
X5.439Y-2.7756
X5.4409Y-4.3583
X5.4409Y-5.1063
X5.4528Y-4.6228
X5.4528Y-2.4272
X5.4528Y-5.4134
X5.4587Y-4.5354
X5.4692Y-3.8487
X5.4698Y-3.8078
X5.4783Y-4.8563
X5.4892Y-4.1949
X5.5157Y-2.0118
X5.5197Y-3.2953
X5.5221Y-3.8306
X5.5256Y-2.6063
X5.5354Y-3.8858
X5.5531Y-2.3622
X5.5581Y-4.9852
X5.5612Y-3.8348
X5.5787Y-5.189
X5.5861Y-4.2067
X5.5955Y-4.0197
X5.5974Y-4.8278
X5.5984Y-2.3051
X5.6152Y-4.5482
X5.628Y-3.9606
X5.6407Y-3.8851
X5.6457Y-4.4508
X5.6496Y-4.4055
X5.6694Y-3.2815
X5.6791Y-3.8937
X5.6909Y-2.4469
X5.6909Y-2.5492
X5.7264Y-4.4488
X5.7264Y-4.5974
X5.7264Y-4.7884
X5.7348Y-4.3209
X5.7362Y-3.9724
X5.7372Y-5.2539
X5.752Y-2.0138
X5.7598Y-2.3799
X5.7835Y-2.4705
X5.7864Y-5.372
X5.7904Y-4.0148
X5.7927Y-4.187
X5.8081Y-4.3681
X5.8148Y-3.2815
X5.8268Y-2.1083
X5.8425Y-2.2008
X5.8543Y-3.2815
X5.8661Y-2.2539
X5.8681Y-2.4724
X5.8996Y-2.2283
X5.9035Y-2.1142
X5.9213Y-3.2953
X5.9322Y-2.2755
X5.9449Y-5.251
X5.9646Y-3.2953
X5.9675Y-4.1919
X5.9744Y-4.373
X5.9803Y-2.3248
X6.Y-3.2638
X6.0118Y-5.3612
X6.0866Y-2.126
X6.1063Y-3.2953
X6.126Y-2.0079
X6.1299Y-4.7018
X6.1348Y-4.6053
X6.1457Y-3.2953
X6.1516Y-5.0453
X6.1772Y-1.9606
X6.2047Y-2.0551
X6.2106Y-3.2949
X6.251Y-5.2795
X6.2569Y-5.124
X6.2854Y-3.2953
X6.311Y-3.2598
X6.3425Y-2.1831
X6.3937Y-3.2953
X6.437Y-3.2953
X6.4567Y-2.0079
X6.4646Y-2.1772
X6.4793Y-5.2018
X6.4803Y-2.313
X6.502Y-3.2953
X6.5079Y-1.9606
X6.5591Y-2.1634
X6.583Y-3.3
X6.5925Y-2.2146
X6.5984Y-3.2638
X6.6181Y-2.3406
X6.628Y-2.0098
X6.6742Y-5.3091
X6.685Y-3.2957
X6.7283Y-3.2953
X6.7618Y-2.2087
X6.7717Y-1.9685
X6.7776Y-2.126
X6.7874Y-3.2953
X6.8701Y-3.2953
X6.8937Y-3.2638
X6.9134Y-5.1348
X6.9193Y-1.9783
X6.9528Y-2.1437
X6.9764Y-3.2953
X6.9764Y-5.378
X7.0197Y-3.2953
X7.0709Y-3.2953
X7.0728Y-5.1339
X7.0748Y-2.0374
X7.0778Y-4.9724
X7.1398Y-2.2972
X7.1634Y-3.2953
X7.1929Y-3.2598
X7.2087Y-4.8494
X7.2264Y-1.9705
X7.248Y-3.6457
X7.2539Y-3.0512
X7.2559Y-3.2008
X7.2825Y-5.4183
X7.2913Y-3.6496
X7.2933Y-2.4272
X7.3307Y-3.6496
X7.3701Y-3.6496
X7.3937Y-1.9843
X7.4075Y-4.6663
X7.4094Y-3.6496
X7.4173Y-5.2195
X7.4331Y-3.0453
X7.4331Y-3.2008
X7.5177Y-2.4272
X7.5512Y-3.2953
X7.565Y-5.4193
X7.6083Y-1.9862
X7.6171Y-4.4606
X7.6929Y-2.4823
X7.6998Y-4.7746
X7.7362Y-3.2972
X7.747Y-5.0955
X7.7841Y-3.313
X7.81Y-5.4193
X7.8356Y-4.2264
X7.8504Y-2.622
X7.8642Y-3.2972
X7.8858Y-1.9803
X7.9055Y-3.2835
X7.9429Y-3.2991
X7.9606Y-2.7421
X8.0512Y-3.2972
X8.0591Y-3.248
X8.0768Y-4.6604
X8.0866Y-5.4094
X8.0876Y-4.9173
X8.0896Y-5.1742
X8.0925Y-4.125
X8.0925Y-4.3967
X8.0984Y-1.9902
X8.0994Y-3.9409
X8.1043Y-2.2657
X8.1063Y-2.6811
X8.1063Y-2.8878
X8.1102Y-2.4724
T2
X6.4567Y-4.685
X6.4567Y-4.9998
X6.5354Y-4.8424
X6.6141Y-4.685
X6.6141Y-4.9998
X6.6928Y-4.8424
X6.7715Y-4.685
X6.7715Y-4.9998
X6.063Y-2.4016
X6.063Y-2.7164
X6.1417Y-2.559
X6.2204Y-2.4016
X6.2204Y-2.7164
X6.2992Y-2.559
X6.3779Y-2.4016
X6.3779Y-2.7164
X6.4567Y-2.559
X6.5354Y-2.4016
X6.5354Y-2.7164
X6.6141Y-2.559
X6.6928Y-2.4016
X6.6928Y-2.7164
X6.7715Y-2.559
X6.8503Y-2.4016
X6.8503Y-2.7164
X6.929Y-2.559
X7.0078Y-2.4016
X7.0078Y-2.7164
X7.0865Y-2.559
X7.1652Y-2.4016
X7.1652Y-2.7164
T3
X6.0157Y-5.1298
X6.0748Y-4.4173
X7.1534Y-4.4173
X7.2125Y-5.1298
X5.622Y-2.8464
X5.6811Y-2.1339
X7.5471Y-2.1339
X7.6062Y-2.8464
T0
M30
