G04 #@! TF.GenerationSoftware,KiCad,Pcbnew,(5.0.2-dirty)*
G04 #@! TF.CreationDate,2019-01-30T17:58:25+02:00*
G04 #@! TF.ProjectId,esb,6573622e-6b69-4636-9164-5f7063625858,rev?*
G04 #@! TF.SameCoordinates,Original*
G04 #@! TF.FileFunction,Soldermask,Bot*
G04 #@! TF.FilePolarity,Negative*
%FSLAX46Y46*%
G04 Gerber Fmt 4.6, Leading zero omitted, Abs format (unit mm)*
G04 Created by KiCad (PCBNEW (5.0.2-dirty)) date ke 30. tammikuuta 2019 17.58.25*
%MOMM*%
%LPD*%
G01*
G04 APERTURE LIST*
%ADD10C,0.100000*%
G04 APERTURE END LIST*
D10*
G36*
X183538485Y-128836056D02*
X183635076Y-128855269D01*
X183748139Y-128902102D01*
X183908034Y-128968332D01*
X184153694Y-129132477D01*
X184362603Y-129341386D01*
X184526748Y-129587046D01*
X184639811Y-129860005D01*
X184697450Y-130149774D01*
X184697450Y-130445226D01*
X184639811Y-130734995D01*
X184526748Y-131007954D01*
X184362603Y-131253614D01*
X184153694Y-131462523D01*
X183908034Y-131626668D01*
X183748139Y-131692898D01*
X183635076Y-131739731D01*
X183538485Y-131758944D01*
X183345306Y-131797370D01*
X183049854Y-131797370D01*
X182856675Y-131758944D01*
X182760084Y-131739731D01*
X182647021Y-131692898D01*
X182487126Y-131626668D01*
X182241466Y-131462523D01*
X182032557Y-131253614D01*
X181868412Y-131007954D01*
X181755349Y-130734995D01*
X181697710Y-130445226D01*
X181697710Y-130149774D01*
X181755349Y-129860005D01*
X181868412Y-129587046D01*
X182032557Y-129341386D01*
X182241466Y-129132477D01*
X182487126Y-128968332D01*
X182647021Y-128902102D01*
X182760084Y-128855269D01*
X182856675Y-128836056D01*
X183049854Y-128797630D01*
X183345306Y-128797630D01*
X183538485Y-128836056D01*
X183538485Y-128836056D01*
G37*
G36*
X153139765Y-128836056D02*
X153236356Y-128855269D01*
X153349419Y-128902102D01*
X153509314Y-128968332D01*
X153754974Y-129132477D01*
X153963883Y-129341386D01*
X154128028Y-129587046D01*
X154241091Y-129860005D01*
X154298730Y-130149774D01*
X154298730Y-130445226D01*
X154241091Y-130734995D01*
X154128028Y-131007954D01*
X153963883Y-131253614D01*
X153754974Y-131462523D01*
X153509314Y-131626668D01*
X153349419Y-131692898D01*
X153236356Y-131739731D01*
X153139765Y-131758944D01*
X152946586Y-131797370D01*
X152651134Y-131797370D01*
X152457955Y-131758944D01*
X152361364Y-131739731D01*
X152248301Y-131692898D01*
X152088406Y-131626668D01*
X151842746Y-131462523D01*
X151633837Y-131253614D01*
X151469692Y-131007954D01*
X151356629Y-130734995D01*
X151298990Y-130445226D01*
X151298990Y-130149774D01*
X151356629Y-129860005D01*
X151469692Y-129587046D01*
X151633837Y-129341386D01*
X151842746Y-129132477D01*
X152088406Y-128968332D01*
X152248301Y-128902102D01*
X152361364Y-128855269D01*
X152457955Y-128836056D01*
X152651134Y-128797630D01*
X152946586Y-128797630D01*
X153139765Y-128836056D01*
X153139765Y-128836056D01*
G37*
G36*
X164382927Y-125734005D02*
X164382929Y-125734006D01*
X164382930Y-125734006D01*
X164621683Y-125832900D01*
X164835584Y-125975825D01*
X164836557Y-125976475D01*
X165019285Y-126159203D01*
X165019287Y-126159206D01*
X165162860Y-126374077D01*
X165261754Y-126612830D01*
X165312170Y-126866288D01*
X165312170Y-127124712D01*
X165261754Y-127378170D01*
X165162860Y-127616923D01*
X165019935Y-127830824D01*
X165019285Y-127831797D01*
X164836557Y-128014525D01*
X164836554Y-128014527D01*
X164621683Y-128158100D01*
X164382930Y-128256994D01*
X164382929Y-128256994D01*
X164382927Y-128256995D01*
X164129473Y-128307410D01*
X163871047Y-128307410D01*
X163617593Y-128256995D01*
X163617591Y-128256994D01*
X163617590Y-128256994D01*
X163378837Y-128158100D01*
X163163966Y-128014527D01*
X163163963Y-128014525D01*
X162981235Y-127831797D01*
X162980585Y-127830824D01*
X162837660Y-127616923D01*
X162738766Y-127378170D01*
X162688350Y-127124712D01*
X162688350Y-126866288D01*
X162738766Y-126612830D01*
X162837660Y-126374077D01*
X162981233Y-126159206D01*
X162981235Y-126159203D01*
X163163963Y-125976475D01*
X163164936Y-125975825D01*
X163378837Y-125832900D01*
X163617590Y-125734006D01*
X163617591Y-125734006D01*
X163617593Y-125734005D01*
X163871047Y-125683590D01*
X164129473Y-125683590D01*
X164382927Y-125734005D01*
X164382927Y-125734005D01*
G37*
G36*
X168380887Y-125734005D02*
X168380889Y-125734006D01*
X168380890Y-125734006D01*
X168619643Y-125832900D01*
X168833544Y-125975825D01*
X168834517Y-125976475D01*
X169017245Y-126159203D01*
X169017247Y-126159206D01*
X169160820Y-126374077D01*
X169259714Y-126612830D01*
X169310130Y-126866288D01*
X169310130Y-127124712D01*
X169259714Y-127378170D01*
X169160820Y-127616923D01*
X169017895Y-127830824D01*
X169017245Y-127831797D01*
X168834517Y-128014525D01*
X168834514Y-128014527D01*
X168619643Y-128158100D01*
X168380890Y-128256994D01*
X168380889Y-128256994D01*
X168380887Y-128256995D01*
X168127433Y-128307410D01*
X167869007Y-128307410D01*
X167615553Y-128256995D01*
X167615551Y-128256994D01*
X167615550Y-128256994D01*
X167376797Y-128158100D01*
X167161926Y-128014527D01*
X167161923Y-128014525D01*
X166979195Y-127831797D01*
X166978545Y-127830824D01*
X166835620Y-127616923D01*
X166736726Y-127378170D01*
X166686310Y-127124712D01*
X166686310Y-126866288D01*
X166736726Y-126612830D01*
X166835620Y-126374077D01*
X166979193Y-126159206D01*
X166979195Y-126159203D01*
X167161923Y-125976475D01*
X167162896Y-125975825D01*
X167376797Y-125832900D01*
X167615550Y-125734006D01*
X167615551Y-125734006D01*
X167615553Y-125734005D01*
X167869007Y-125683590D01*
X168127433Y-125683590D01*
X168380887Y-125734005D01*
X168380887Y-125734005D01*
G37*
G36*
X172378847Y-125734005D02*
X172378849Y-125734006D01*
X172378850Y-125734006D01*
X172617603Y-125832900D01*
X172831504Y-125975825D01*
X172832477Y-125976475D01*
X173015205Y-126159203D01*
X173015207Y-126159206D01*
X173158780Y-126374077D01*
X173257674Y-126612830D01*
X173308090Y-126866288D01*
X173308090Y-127124712D01*
X173257674Y-127378170D01*
X173158780Y-127616923D01*
X173015855Y-127830824D01*
X173015205Y-127831797D01*
X172832477Y-128014525D01*
X172832474Y-128014527D01*
X172617603Y-128158100D01*
X172378850Y-128256994D01*
X172378849Y-128256994D01*
X172378847Y-128256995D01*
X172125393Y-128307410D01*
X171866967Y-128307410D01*
X171613513Y-128256995D01*
X171613511Y-128256994D01*
X171613510Y-128256994D01*
X171374757Y-128158100D01*
X171159886Y-128014527D01*
X171159883Y-128014525D01*
X170977155Y-127831797D01*
X170976505Y-127830824D01*
X170833580Y-127616923D01*
X170734686Y-127378170D01*
X170684270Y-127124712D01*
X170684270Y-126866288D01*
X170734686Y-126612830D01*
X170833580Y-126374077D01*
X170977153Y-126159206D01*
X170977155Y-126159203D01*
X171159883Y-125976475D01*
X171160856Y-125975825D01*
X171374757Y-125832900D01*
X171613510Y-125734006D01*
X171613511Y-125734006D01*
X171613513Y-125734005D01*
X171866967Y-125683590D01*
X172125393Y-125683590D01*
X172378847Y-125734005D01*
X172378847Y-125734005D01*
G37*
G36*
X170379867Y-121736045D02*
X170379869Y-121736046D01*
X170379870Y-121736046D01*
X170618623Y-121834940D01*
X170832524Y-121977865D01*
X170833497Y-121978515D01*
X171016225Y-122161243D01*
X171016227Y-122161246D01*
X171159800Y-122376117D01*
X171258694Y-122614870D01*
X171309110Y-122868328D01*
X171309110Y-123126752D01*
X171258694Y-123380210D01*
X171159800Y-123618963D01*
X171016875Y-123832864D01*
X171016225Y-123833837D01*
X170833497Y-124016565D01*
X170833494Y-124016567D01*
X170618623Y-124160140D01*
X170379870Y-124259034D01*
X170379869Y-124259034D01*
X170379867Y-124259035D01*
X170126413Y-124309450D01*
X169867987Y-124309450D01*
X169614533Y-124259035D01*
X169614531Y-124259034D01*
X169614530Y-124259034D01*
X169375777Y-124160140D01*
X169160906Y-124016567D01*
X169160903Y-124016565D01*
X168978175Y-123833837D01*
X168977525Y-123832864D01*
X168834600Y-123618963D01*
X168735706Y-123380210D01*
X168685290Y-123126752D01*
X168685290Y-122868328D01*
X168735706Y-122614870D01*
X168834600Y-122376117D01*
X168978173Y-122161246D01*
X168978175Y-122161243D01*
X169160903Y-121978515D01*
X169161876Y-121977865D01*
X169375777Y-121834940D01*
X169614530Y-121736046D01*
X169614531Y-121736046D01*
X169614533Y-121736045D01*
X169867987Y-121685630D01*
X170126413Y-121685630D01*
X170379867Y-121736045D01*
X170379867Y-121736045D01*
G37*
G36*
X166381907Y-121736045D02*
X166381909Y-121736046D01*
X166381910Y-121736046D01*
X166620663Y-121834940D01*
X166834564Y-121977865D01*
X166835537Y-121978515D01*
X167018265Y-122161243D01*
X167018267Y-122161246D01*
X167161840Y-122376117D01*
X167260734Y-122614870D01*
X167311150Y-122868328D01*
X167311150Y-123126752D01*
X167260734Y-123380210D01*
X167161840Y-123618963D01*
X167018915Y-123832864D01*
X167018265Y-123833837D01*
X166835537Y-124016565D01*
X166835534Y-124016567D01*
X166620663Y-124160140D01*
X166381910Y-124259034D01*
X166381909Y-124259034D01*
X166381907Y-124259035D01*
X166128453Y-124309450D01*
X165870027Y-124309450D01*
X165616573Y-124259035D01*
X165616571Y-124259034D01*
X165616570Y-124259034D01*
X165377817Y-124160140D01*
X165162946Y-124016567D01*
X165162943Y-124016565D01*
X164980215Y-123833837D01*
X164979565Y-123832864D01*
X164836640Y-123618963D01*
X164737746Y-123380210D01*
X164687330Y-123126752D01*
X164687330Y-122868328D01*
X164737746Y-122614870D01*
X164836640Y-122376117D01*
X164980213Y-122161246D01*
X164980215Y-122161243D01*
X165162943Y-121978515D01*
X165163916Y-121977865D01*
X165377817Y-121834940D01*
X165616570Y-121736046D01*
X165616571Y-121736046D01*
X165616573Y-121736045D01*
X165870027Y-121685630D01*
X166128453Y-121685630D01*
X166381907Y-121736045D01*
X166381907Y-121736045D01*
G37*
G36*
X165312170Y-120311490D02*
X162688350Y-120311490D01*
X162688350Y-117687670D01*
X165312170Y-117687670D01*
X165312170Y-120311490D01*
X165312170Y-120311490D01*
G37*
G36*
X168380887Y-117738085D02*
X168380889Y-117738086D01*
X168380890Y-117738086D01*
X168619643Y-117836980D01*
X168833544Y-117979905D01*
X168834517Y-117980555D01*
X169017245Y-118163283D01*
X169017247Y-118163286D01*
X169160820Y-118378157D01*
X169259714Y-118616910D01*
X169310130Y-118870368D01*
X169310130Y-119128792D01*
X169259714Y-119382250D01*
X169160820Y-119621003D01*
X169017895Y-119834904D01*
X169017245Y-119835877D01*
X168834517Y-120018605D01*
X168834514Y-120018607D01*
X168619643Y-120162180D01*
X168380890Y-120261074D01*
X168380889Y-120261074D01*
X168380887Y-120261075D01*
X168127433Y-120311490D01*
X167869007Y-120311490D01*
X167615553Y-120261075D01*
X167615551Y-120261074D01*
X167615550Y-120261074D01*
X167376797Y-120162180D01*
X167161926Y-120018607D01*
X167161923Y-120018605D01*
X166979195Y-119835877D01*
X166978545Y-119834904D01*
X166835620Y-119621003D01*
X166736726Y-119382250D01*
X166686310Y-119128792D01*
X166686310Y-118870368D01*
X166736726Y-118616910D01*
X166835620Y-118378157D01*
X166979193Y-118163286D01*
X166979195Y-118163283D01*
X167161923Y-117980555D01*
X167162896Y-117979905D01*
X167376797Y-117836980D01*
X167615550Y-117738086D01*
X167615551Y-117738086D01*
X167615553Y-117738085D01*
X167869007Y-117687670D01*
X168127433Y-117687670D01*
X168380887Y-117738085D01*
X168380887Y-117738085D01*
G37*
G36*
X172378847Y-117738085D02*
X172378849Y-117738086D01*
X172378850Y-117738086D01*
X172617603Y-117836980D01*
X172831504Y-117979905D01*
X172832477Y-117980555D01*
X173015205Y-118163283D01*
X173015207Y-118163286D01*
X173158780Y-118378157D01*
X173257674Y-118616910D01*
X173308090Y-118870368D01*
X173308090Y-119128792D01*
X173257674Y-119382250D01*
X173158780Y-119621003D01*
X173015855Y-119834904D01*
X173015205Y-119835877D01*
X172832477Y-120018605D01*
X172832474Y-120018607D01*
X172617603Y-120162180D01*
X172378850Y-120261074D01*
X172378849Y-120261074D01*
X172378847Y-120261075D01*
X172125393Y-120311490D01*
X171866967Y-120311490D01*
X171613513Y-120261075D01*
X171613511Y-120261074D01*
X171613510Y-120261074D01*
X171374757Y-120162180D01*
X171159886Y-120018607D01*
X171159883Y-120018605D01*
X170977155Y-119835877D01*
X170976505Y-119834904D01*
X170833580Y-119621003D01*
X170734686Y-119382250D01*
X170684270Y-119128792D01*
X170684270Y-118870368D01*
X170734686Y-118616910D01*
X170833580Y-118378157D01*
X170977153Y-118163286D01*
X170977155Y-118163283D01*
X171159883Y-117980555D01*
X171160856Y-117979905D01*
X171374757Y-117836980D01*
X171613510Y-117738086D01*
X171613511Y-117738086D01*
X171613513Y-117738085D01*
X171866967Y-117687670D01*
X172125393Y-117687670D01*
X172378847Y-117738085D01*
X172378847Y-117738085D01*
G37*
G36*
X182037345Y-110738556D02*
X182133936Y-110757769D01*
X182246999Y-110804602D01*
X182406894Y-110870832D01*
X182652554Y-111034977D01*
X182861463Y-111243886D01*
X183025608Y-111489546D01*
X183138671Y-111762505D01*
X183196310Y-112052274D01*
X183196310Y-112347726D01*
X183138671Y-112637495D01*
X183025608Y-112910454D01*
X182861463Y-113156114D01*
X182652554Y-113365023D01*
X182406894Y-113529168D01*
X182246999Y-113595398D01*
X182133936Y-113642231D01*
X182037345Y-113661444D01*
X181844166Y-113699870D01*
X181548714Y-113699870D01*
X181355535Y-113661444D01*
X181258944Y-113642231D01*
X181145881Y-113595398D01*
X180985986Y-113529168D01*
X180740326Y-113365023D01*
X180531417Y-113156114D01*
X180367272Y-112910454D01*
X180254209Y-112637495D01*
X180196570Y-112347726D01*
X180196570Y-112052274D01*
X180254209Y-111762505D01*
X180367272Y-111489546D01*
X180531417Y-111243886D01*
X180740326Y-111034977D01*
X180985986Y-110870832D01*
X181145881Y-110804602D01*
X181258944Y-110757769D01*
X181355535Y-110738556D01*
X181548714Y-110700130D01*
X181844166Y-110700130D01*
X182037345Y-110738556D01*
X182037345Y-110738556D01*
G37*
G36*
X154640905Y-110738556D02*
X154737496Y-110757769D01*
X154850559Y-110804602D01*
X155010454Y-110870832D01*
X155256114Y-111034977D01*
X155465023Y-111243886D01*
X155629168Y-111489546D01*
X155742231Y-111762505D01*
X155799870Y-112052274D01*
X155799870Y-112347726D01*
X155742231Y-112637495D01*
X155629168Y-112910454D01*
X155465023Y-113156114D01*
X155256114Y-113365023D01*
X155010454Y-113529168D01*
X154850559Y-113595398D01*
X154737496Y-113642231D01*
X154640905Y-113661444D01*
X154447726Y-113699870D01*
X154152274Y-113699870D01*
X153959095Y-113661444D01*
X153862504Y-113642231D01*
X153749441Y-113595398D01*
X153589546Y-113529168D01*
X153343886Y-113365023D01*
X153134977Y-113156114D01*
X152970832Y-112910454D01*
X152857769Y-112637495D01*
X152800130Y-112347726D01*
X152800130Y-112052274D01*
X152857769Y-111762505D01*
X152970832Y-111489546D01*
X153134977Y-111243886D01*
X153343886Y-111034977D01*
X153589546Y-110870832D01*
X153749441Y-110804602D01*
X153862504Y-110757769D01*
X153959095Y-110738556D01*
X154152274Y-110700130D01*
X154447726Y-110700130D01*
X154640905Y-110738556D01*
X154640905Y-110738556D01*
G37*
G36*
X183269900Y-90419200D02*
X182330100Y-90419200D01*
X182330100Y-89657200D01*
X183269900Y-89657200D01*
X183269900Y-90419200D01*
X183269900Y-90419200D01*
G37*
G36*
X181569900Y-90419200D02*
X180630100Y-90419200D01*
X180630100Y-89657200D01*
X181569900Y-89657200D01*
X181569900Y-90419200D01*
X181569900Y-90419200D01*
G37*
G36*
X178169900Y-90419200D02*
X177230100Y-90419200D01*
X177230100Y-89657200D01*
X178169900Y-89657200D01*
X178169900Y-90419200D01*
X178169900Y-90419200D01*
G37*
G36*
X174769900Y-90419200D02*
X173830100Y-90419200D01*
X173830100Y-89657200D01*
X174769900Y-89657200D01*
X174769900Y-90419200D01*
X174769900Y-90419200D01*
G37*
G36*
X176469900Y-90419200D02*
X175530100Y-90419200D01*
X175530100Y-89657200D01*
X176469900Y-89657200D01*
X176469900Y-90419200D01*
X176469900Y-90419200D01*
G37*
G36*
X179869900Y-90419200D02*
X178930100Y-90419200D01*
X178930100Y-89657200D01*
X179869900Y-89657200D01*
X179869900Y-90419200D01*
X179869900Y-90419200D01*
G37*
G36*
X174769900Y-88742800D02*
X173830100Y-88742800D01*
X173830100Y-87980800D01*
X174769900Y-87980800D01*
X174769900Y-88742800D01*
X174769900Y-88742800D01*
G37*
G36*
X181569900Y-88742800D02*
X180630100Y-88742800D01*
X180630100Y-87980800D01*
X181569900Y-87980800D01*
X181569900Y-88742800D01*
X181569900Y-88742800D01*
G37*
G36*
X183269900Y-88742800D02*
X182330100Y-88742800D01*
X182330100Y-87980800D01*
X183269900Y-87980800D01*
X183269900Y-88742800D01*
X183269900Y-88742800D01*
G37*
G36*
X178169900Y-88742800D02*
X177230100Y-88742800D01*
X177230100Y-87980800D01*
X178169900Y-87980800D01*
X178169900Y-88742800D01*
X178169900Y-88742800D01*
G37*
G36*
X179869900Y-88742800D02*
X178930100Y-88742800D01*
X178930100Y-87980800D01*
X179869900Y-87980800D01*
X179869900Y-88742800D01*
X179869900Y-88742800D01*
G37*
G36*
X176469900Y-88742800D02*
X175530100Y-88742800D01*
X175530100Y-87980800D01*
X176469900Y-87980800D01*
X176469900Y-88742800D01*
X176469900Y-88742800D01*
G37*
G36*
X147100000Y-85915000D02*
X146470000Y-85915000D01*
X146470000Y-85085000D01*
X147100000Y-85085000D01*
X147100000Y-85915000D01*
X147100000Y-85915000D01*
G37*
G36*
X141930000Y-85915000D02*
X141300000Y-85915000D01*
X141300000Y-85085000D01*
X141930000Y-85085000D01*
X141930000Y-85915000D01*
X141930000Y-85915000D01*
G37*
G36*
X139700000Y-85915000D02*
X139070000Y-85915000D01*
X139070000Y-85085000D01*
X139700000Y-85085000D01*
X139700000Y-85915000D01*
X139700000Y-85915000D01*
G37*
G36*
X162200000Y-85915000D02*
X161570000Y-85915000D01*
X161570000Y-85085000D01*
X162200000Y-85085000D01*
X162200000Y-85915000D01*
X162200000Y-85915000D01*
G37*
G36*
X169700000Y-85915000D02*
X169070000Y-85915000D01*
X169070000Y-85085000D01*
X169700000Y-85085000D01*
X169700000Y-85915000D01*
X169700000Y-85915000D01*
G37*
G36*
X171930000Y-85915000D02*
X171300000Y-85915000D01*
X171300000Y-85085000D01*
X171930000Y-85085000D01*
X171930000Y-85915000D01*
X171930000Y-85915000D01*
G37*
G36*
X194130000Y-85915000D02*
X193500000Y-85915000D01*
X193500000Y-85085000D01*
X194130000Y-85085000D01*
X194130000Y-85915000D01*
X194130000Y-85915000D01*
G37*
G36*
X177300000Y-85915000D02*
X176670000Y-85915000D01*
X176670000Y-85085000D01*
X177300000Y-85085000D01*
X177300000Y-85915000D01*
X177300000Y-85915000D01*
G37*
G36*
X154900000Y-85915000D02*
X154270000Y-85915000D01*
X154270000Y-85085000D01*
X154900000Y-85085000D01*
X154900000Y-85915000D01*
X154900000Y-85915000D01*
G37*
G36*
X191900000Y-85915000D02*
X191270000Y-85915000D01*
X191270000Y-85085000D01*
X191900000Y-85085000D01*
X191900000Y-85915000D01*
X191900000Y-85915000D01*
G37*
G36*
X164430000Y-85915000D02*
X163800000Y-85915000D01*
X163800000Y-85085000D01*
X164430000Y-85085000D01*
X164430000Y-85915000D01*
X164430000Y-85915000D01*
G37*
G36*
X179530000Y-85915000D02*
X178900000Y-85915000D01*
X178900000Y-85085000D01*
X179530000Y-85085000D01*
X179530000Y-85915000D01*
X179530000Y-85915000D01*
G37*
G36*
X157130000Y-85915000D02*
X156500000Y-85915000D01*
X156500000Y-85085000D01*
X157130000Y-85085000D01*
X157130000Y-85915000D01*
X157130000Y-85915000D01*
G37*
G36*
X184000000Y-85915000D02*
X183370000Y-85915000D01*
X183370000Y-85085000D01*
X184000000Y-85085000D01*
X184000000Y-85915000D01*
X184000000Y-85915000D01*
G37*
G36*
X186230000Y-85915000D02*
X185600000Y-85915000D01*
X185600000Y-85085000D01*
X186230000Y-85085000D01*
X186230000Y-85915000D01*
X186230000Y-85915000D01*
G37*
G36*
X149330000Y-85915000D02*
X148700000Y-85915000D01*
X148700000Y-85085000D01*
X149330000Y-85085000D01*
X149330000Y-85915000D01*
X149330000Y-85915000D01*
G37*
G36*
X165569900Y-82519200D02*
X164630100Y-82519200D01*
X164630100Y-81757200D01*
X165569900Y-81757200D01*
X165569900Y-82519200D01*
X165569900Y-82519200D01*
G37*
G36*
X163919382Y-82519200D02*
X162979582Y-82519200D01*
X162979582Y-81757200D01*
X163919382Y-81757200D01*
X163919382Y-82519200D01*
X163919382Y-82519200D01*
G37*
G36*
X162269900Y-82519200D02*
X161330100Y-82519200D01*
X161330100Y-81757200D01*
X162269900Y-81757200D01*
X162269900Y-82519200D01*
X162269900Y-82519200D01*
G37*
G36*
X171469900Y-82319200D02*
X170530100Y-82319200D01*
X170530100Y-81557200D01*
X171469900Y-81557200D01*
X171469900Y-82319200D01*
X171469900Y-82319200D01*
G37*
G36*
X156619900Y-82319200D02*
X155680100Y-82319200D01*
X155680100Y-81557200D01*
X156619900Y-81557200D01*
X156619900Y-82319200D01*
X156619900Y-82319200D01*
G37*
G36*
X158369900Y-82319200D02*
X157430100Y-82319200D01*
X157430100Y-81557200D01*
X158369900Y-81557200D01*
X158369900Y-82319200D01*
X158369900Y-82319200D01*
G37*
G36*
X173169900Y-82319200D02*
X172230100Y-82319200D01*
X172230100Y-81557200D01*
X173169900Y-81557200D01*
X173169900Y-82319200D01*
X173169900Y-82319200D01*
G37*
G36*
X154869900Y-82319200D02*
X153930100Y-82319200D01*
X153930100Y-81557200D01*
X154869900Y-81557200D01*
X154869900Y-82319200D01*
X154869900Y-82319200D01*
G37*
G36*
X169769900Y-82319200D02*
X168830100Y-82319200D01*
X168830100Y-81557200D01*
X169769900Y-81557200D01*
X169769900Y-82319200D01*
X169769900Y-82319200D01*
G37*
G36*
X147369900Y-82231000D02*
X146430100Y-82231000D01*
X146430100Y-81469000D01*
X147369900Y-81469000D01*
X147369900Y-82231000D01*
X147369900Y-82231000D01*
G37*
G36*
X193919900Y-82219200D02*
X192980100Y-82219200D01*
X192980100Y-81457200D01*
X193919900Y-81457200D01*
X193919900Y-82219200D01*
X193919900Y-82219200D01*
G37*
G36*
X149019900Y-82219200D02*
X148080100Y-82219200D01*
X148080100Y-81457200D01*
X149019900Y-81457200D01*
X149019900Y-82219200D01*
X149019900Y-82219200D01*
G37*
G36*
X192269900Y-82219200D02*
X191330100Y-82219200D01*
X191330100Y-81457200D01*
X192269900Y-81457200D01*
X192269900Y-82219200D01*
X192269900Y-82219200D01*
G37*
G36*
X140119900Y-82219200D02*
X139180100Y-82219200D01*
X139180100Y-81457200D01*
X140119900Y-81457200D01*
X140119900Y-82219200D01*
X140119900Y-82219200D01*
G37*
G36*
X150669900Y-82219200D02*
X149730100Y-82219200D01*
X149730100Y-81457200D01*
X150669900Y-81457200D01*
X150669900Y-82219200D01*
X150669900Y-82219200D01*
G37*
G36*
X141819900Y-82219200D02*
X140880100Y-82219200D01*
X140880100Y-81457200D01*
X141819900Y-81457200D01*
X141819900Y-82219200D01*
X141819900Y-82219200D01*
G37*
G36*
X195569900Y-82219200D02*
X194630100Y-82219200D01*
X194630100Y-81457200D01*
X195569900Y-81457200D01*
X195569900Y-82219200D01*
X195569900Y-82219200D01*
G37*
G36*
X143569900Y-82219200D02*
X142630100Y-82219200D01*
X142630100Y-81457200D01*
X143569900Y-81457200D01*
X143569900Y-82219200D01*
X143569900Y-82219200D01*
G37*
G36*
X162269900Y-80842800D02*
X161330100Y-80842800D01*
X161330100Y-80080800D01*
X162269900Y-80080800D01*
X162269900Y-80842800D01*
X162269900Y-80842800D01*
G37*
G36*
X163919382Y-80842800D02*
X162979582Y-80842800D01*
X162979582Y-80080800D01*
X163919382Y-80080800D01*
X163919382Y-80842800D01*
X163919382Y-80842800D01*
G37*
G36*
X165569900Y-80842800D02*
X164630100Y-80842800D01*
X164630100Y-80080800D01*
X165569900Y-80080800D01*
X165569900Y-80842800D01*
X165569900Y-80842800D01*
G37*
G36*
X158369900Y-80642800D02*
X157430100Y-80642800D01*
X157430100Y-79880800D01*
X158369900Y-79880800D01*
X158369900Y-80642800D01*
X158369900Y-80642800D01*
G37*
G36*
X171469900Y-80642800D02*
X170530100Y-80642800D01*
X170530100Y-79880800D01*
X171469900Y-79880800D01*
X171469900Y-80642800D01*
X171469900Y-80642800D01*
G37*
G36*
X173169900Y-80642800D02*
X172230100Y-80642800D01*
X172230100Y-79880800D01*
X173169900Y-79880800D01*
X173169900Y-80642800D01*
X173169900Y-80642800D01*
G37*
G36*
X156619900Y-80642800D02*
X155680100Y-80642800D01*
X155680100Y-79880800D01*
X156619900Y-79880800D01*
X156619900Y-80642800D01*
X156619900Y-80642800D01*
G37*
G36*
X169769900Y-80642800D02*
X168830100Y-80642800D01*
X168830100Y-79880800D01*
X169769900Y-79880800D01*
X169769900Y-80642800D01*
X169769900Y-80642800D01*
G37*
G36*
X154869900Y-80642800D02*
X153930100Y-80642800D01*
X153930100Y-79880800D01*
X154869900Y-79880800D01*
X154869900Y-80642800D01*
X154869900Y-80642800D01*
G37*
G36*
X147369900Y-80554600D02*
X146430100Y-80554600D01*
X146430100Y-79792600D01*
X147369900Y-79792600D01*
X147369900Y-80554600D01*
X147369900Y-80554600D01*
G37*
G36*
X149019900Y-80542800D02*
X148080100Y-80542800D01*
X148080100Y-79780800D01*
X149019900Y-79780800D01*
X149019900Y-80542800D01*
X149019900Y-80542800D01*
G37*
G36*
X195569900Y-80542800D02*
X194630100Y-80542800D01*
X194630100Y-79780800D01*
X195569900Y-79780800D01*
X195569900Y-80542800D01*
X195569900Y-80542800D01*
G37*
G36*
X150669900Y-80542800D02*
X149730100Y-80542800D01*
X149730100Y-79780800D01*
X150669900Y-79780800D01*
X150669900Y-80542800D01*
X150669900Y-80542800D01*
G37*
G36*
X143569900Y-80542800D02*
X142630100Y-80542800D01*
X142630100Y-79780800D01*
X143569900Y-79780800D01*
X143569900Y-80542800D01*
X143569900Y-80542800D01*
G37*
G36*
X192269900Y-80542800D02*
X191330100Y-80542800D01*
X191330100Y-79780800D01*
X192269900Y-79780800D01*
X192269900Y-80542800D01*
X192269900Y-80542800D01*
G37*
G36*
X141819900Y-80542800D02*
X140880100Y-80542800D01*
X140880100Y-79780800D01*
X141819900Y-79780800D01*
X141819900Y-80542800D01*
X141819900Y-80542800D01*
G37*
G36*
X140119900Y-80542800D02*
X139180100Y-80542800D01*
X139180100Y-79780800D01*
X140119900Y-79780800D01*
X140119900Y-80542800D01*
X140119900Y-80542800D01*
G37*
G36*
X193919900Y-80542800D02*
X192980100Y-80542800D01*
X192980100Y-79780800D01*
X193919900Y-79780800D01*
X193919900Y-80542800D01*
X193919900Y-80542800D01*
G37*
G36*
X143139765Y-70836056D02*
X143236356Y-70855269D01*
X143349419Y-70902102D01*
X143509314Y-70968332D01*
X143754974Y-71132477D01*
X143963883Y-71341386D01*
X144128028Y-71587046D01*
X144241091Y-71860005D01*
X144298730Y-72149774D01*
X144298730Y-72445226D01*
X144241091Y-72734995D01*
X144128028Y-73007954D01*
X143963883Y-73253614D01*
X143754974Y-73462523D01*
X143509314Y-73626668D01*
X143349419Y-73692898D01*
X143236356Y-73739731D01*
X143139765Y-73758944D01*
X142946586Y-73797370D01*
X142651134Y-73797370D01*
X142457955Y-73758944D01*
X142361364Y-73739731D01*
X142248301Y-73692898D01*
X142088406Y-73626668D01*
X141842746Y-73462523D01*
X141633837Y-73253614D01*
X141469692Y-73007954D01*
X141356629Y-72734995D01*
X141298990Y-72445226D01*
X141298990Y-72149774D01*
X141356629Y-71860005D01*
X141469692Y-71587046D01*
X141633837Y-71341386D01*
X141842746Y-71132477D01*
X142088406Y-70968332D01*
X142248301Y-70902102D01*
X142361364Y-70855269D01*
X142457955Y-70836056D01*
X142651134Y-70797630D01*
X142946586Y-70797630D01*
X143139765Y-70836056D01*
X143139765Y-70836056D01*
G37*
G36*
X193538445Y-70836056D02*
X193635036Y-70855269D01*
X193748099Y-70902102D01*
X193907994Y-70968332D01*
X194153654Y-71132477D01*
X194362563Y-71341386D01*
X194526708Y-71587046D01*
X194639771Y-71860005D01*
X194697410Y-72149774D01*
X194697410Y-72445226D01*
X194639771Y-72734995D01*
X194526708Y-73007954D01*
X194362563Y-73253614D01*
X194153654Y-73462523D01*
X193907994Y-73626668D01*
X193748099Y-73692898D01*
X193635036Y-73739731D01*
X193538445Y-73758944D01*
X193345266Y-73797370D01*
X193049814Y-73797370D01*
X192856635Y-73758944D01*
X192760044Y-73739731D01*
X192646981Y-73692898D01*
X192487086Y-73626668D01*
X192241426Y-73462523D01*
X192032517Y-73253614D01*
X191868372Y-73007954D01*
X191755309Y-72734995D01*
X191697670Y-72445226D01*
X191697670Y-72149774D01*
X191755309Y-71860005D01*
X191868372Y-71587046D01*
X192032517Y-71341386D01*
X192241426Y-71132477D01*
X192487086Y-70968332D01*
X192646981Y-70902102D01*
X192760044Y-70855269D01*
X192856635Y-70836056D01*
X193049814Y-70797630D01*
X193345266Y-70797630D01*
X193538445Y-70836056D01*
X193538445Y-70836056D01*
G37*
G36*
X182378807Y-67734005D02*
X182378809Y-67734006D01*
X182378810Y-67734006D01*
X182617563Y-67832900D01*
X182831464Y-67975825D01*
X182832437Y-67976475D01*
X183015165Y-68159203D01*
X183015167Y-68159206D01*
X183158740Y-68374077D01*
X183257634Y-68612830D01*
X183308050Y-68866288D01*
X183308050Y-69124712D01*
X183257634Y-69378170D01*
X183158740Y-69616923D01*
X183015815Y-69830824D01*
X183015165Y-69831797D01*
X182832437Y-70014525D01*
X182832434Y-70014527D01*
X182617563Y-70158100D01*
X182378810Y-70256994D01*
X182378809Y-70256994D01*
X182378807Y-70256995D01*
X182125353Y-70307410D01*
X181866927Y-70307410D01*
X181613473Y-70256995D01*
X181613471Y-70256994D01*
X181613470Y-70256994D01*
X181374717Y-70158100D01*
X181159846Y-70014527D01*
X181159843Y-70014525D01*
X180977115Y-69831797D01*
X180976465Y-69830824D01*
X180833540Y-69616923D01*
X180734646Y-69378170D01*
X180684230Y-69124712D01*
X180684230Y-68866288D01*
X180734646Y-68612830D01*
X180833540Y-68374077D01*
X180977113Y-68159206D01*
X180977115Y-68159203D01*
X181159843Y-67976475D01*
X181160816Y-67975825D01*
X181374717Y-67832900D01*
X181613470Y-67734006D01*
X181613471Y-67734006D01*
X181613473Y-67734005D01*
X181866927Y-67683590D01*
X182125353Y-67683590D01*
X182378807Y-67734005D01*
X182378807Y-67734005D01*
G37*
G36*
X174380347Y-67734005D02*
X174380349Y-67734006D01*
X174380350Y-67734006D01*
X174619103Y-67832900D01*
X174833004Y-67975825D01*
X174833977Y-67976475D01*
X175016705Y-68159203D01*
X175016707Y-68159206D01*
X175160280Y-68374077D01*
X175259174Y-68612830D01*
X175309590Y-68866288D01*
X175309590Y-69124712D01*
X175259174Y-69378170D01*
X175160280Y-69616923D01*
X175017355Y-69830824D01*
X175016705Y-69831797D01*
X174833977Y-70014525D01*
X174833974Y-70014527D01*
X174619103Y-70158100D01*
X174380350Y-70256994D01*
X174380349Y-70256994D01*
X174380347Y-70256995D01*
X174126893Y-70307410D01*
X173868467Y-70307410D01*
X173615013Y-70256995D01*
X173615011Y-70256994D01*
X173615010Y-70256994D01*
X173376257Y-70158100D01*
X173161386Y-70014527D01*
X173161383Y-70014525D01*
X172978655Y-69831797D01*
X172978005Y-69830824D01*
X172835080Y-69616923D01*
X172736186Y-69378170D01*
X172685770Y-69124712D01*
X172685770Y-68866288D01*
X172736186Y-68612830D01*
X172835080Y-68374077D01*
X172978653Y-68159206D01*
X172978655Y-68159203D01*
X173161383Y-67976475D01*
X173162356Y-67975825D01*
X173376257Y-67832900D01*
X173615010Y-67734006D01*
X173615011Y-67734006D01*
X173615013Y-67734005D01*
X173868467Y-67683590D01*
X174126893Y-67683590D01*
X174380347Y-67734005D01*
X174380347Y-67734005D01*
G37*
G36*
X170379847Y-67734005D02*
X170379849Y-67734006D01*
X170379850Y-67734006D01*
X170618603Y-67832900D01*
X170832504Y-67975825D01*
X170833477Y-67976475D01*
X171016205Y-68159203D01*
X171016207Y-68159206D01*
X171159780Y-68374077D01*
X171258674Y-68612830D01*
X171309090Y-68866288D01*
X171309090Y-69124712D01*
X171258674Y-69378170D01*
X171159780Y-69616923D01*
X171016855Y-69830824D01*
X171016205Y-69831797D01*
X170833477Y-70014525D01*
X170833474Y-70014527D01*
X170618603Y-70158100D01*
X170379850Y-70256994D01*
X170379849Y-70256994D01*
X170379847Y-70256995D01*
X170126393Y-70307410D01*
X169867967Y-70307410D01*
X169614513Y-70256995D01*
X169614511Y-70256994D01*
X169614510Y-70256994D01*
X169375757Y-70158100D01*
X169160886Y-70014527D01*
X169160883Y-70014525D01*
X168978155Y-69831797D01*
X168977505Y-69830824D01*
X168834580Y-69616923D01*
X168735686Y-69378170D01*
X168685270Y-69124712D01*
X168685270Y-68866288D01*
X168735686Y-68612830D01*
X168834580Y-68374077D01*
X168978153Y-68159206D01*
X168978155Y-68159203D01*
X169160883Y-67976475D01*
X169161856Y-67975825D01*
X169375757Y-67832900D01*
X169614510Y-67734006D01*
X169614511Y-67734006D01*
X169614513Y-67734005D01*
X169867967Y-67683590D01*
X170126393Y-67683590D01*
X170379847Y-67734005D01*
X170379847Y-67734005D01*
G37*
G36*
X166381887Y-67734005D02*
X166381889Y-67734006D01*
X166381890Y-67734006D01*
X166620643Y-67832900D01*
X166834544Y-67975825D01*
X166835517Y-67976475D01*
X167018245Y-68159203D01*
X167018247Y-68159206D01*
X167161820Y-68374077D01*
X167260714Y-68612830D01*
X167311130Y-68866288D01*
X167311130Y-69124712D01*
X167260714Y-69378170D01*
X167161820Y-69616923D01*
X167018895Y-69830824D01*
X167018245Y-69831797D01*
X166835517Y-70014525D01*
X166835514Y-70014527D01*
X166620643Y-70158100D01*
X166381890Y-70256994D01*
X166381889Y-70256994D01*
X166381887Y-70256995D01*
X166128433Y-70307410D01*
X165870007Y-70307410D01*
X165616553Y-70256995D01*
X165616551Y-70256994D01*
X165616550Y-70256994D01*
X165377797Y-70158100D01*
X165162926Y-70014527D01*
X165162923Y-70014525D01*
X164980195Y-69831797D01*
X164979545Y-69830824D01*
X164836620Y-69616923D01*
X164737726Y-69378170D01*
X164687310Y-69124712D01*
X164687310Y-68866288D01*
X164737726Y-68612830D01*
X164836620Y-68374077D01*
X164980193Y-68159206D01*
X164980195Y-68159203D01*
X165162923Y-67976475D01*
X165163896Y-67975825D01*
X165377797Y-67832900D01*
X165616550Y-67734006D01*
X165616551Y-67734006D01*
X165616553Y-67734005D01*
X165870007Y-67683590D01*
X166128433Y-67683590D01*
X166381887Y-67734005D01*
X166381887Y-67734005D01*
G37*
G36*
X158380887Y-67734005D02*
X158380889Y-67734006D01*
X158380890Y-67734006D01*
X158619643Y-67832900D01*
X158833544Y-67975825D01*
X158834517Y-67976475D01*
X159017245Y-68159203D01*
X159017247Y-68159206D01*
X159160820Y-68374077D01*
X159259714Y-68612830D01*
X159310130Y-68866288D01*
X159310130Y-69124712D01*
X159259714Y-69378170D01*
X159160820Y-69616923D01*
X159017895Y-69830824D01*
X159017245Y-69831797D01*
X158834517Y-70014525D01*
X158834514Y-70014527D01*
X158619643Y-70158100D01*
X158380890Y-70256994D01*
X158380889Y-70256994D01*
X158380887Y-70256995D01*
X158127433Y-70307410D01*
X157869007Y-70307410D01*
X157615553Y-70256995D01*
X157615551Y-70256994D01*
X157615550Y-70256994D01*
X157376797Y-70158100D01*
X157161926Y-70014527D01*
X157161923Y-70014525D01*
X156979195Y-69831797D01*
X156978545Y-69830824D01*
X156835620Y-69616923D01*
X156736726Y-69378170D01*
X156686310Y-69124712D01*
X156686310Y-68866288D01*
X156736726Y-68612830D01*
X156835620Y-68374077D01*
X156979193Y-68159206D01*
X156979195Y-68159203D01*
X157161923Y-67976475D01*
X157162896Y-67975825D01*
X157376797Y-67832900D01*
X157615550Y-67734006D01*
X157615551Y-67734006D01*
X157615553Y-67734005D01*
X157869007Y-67683590D01*
X158127433Y-67683590D01*
X158380887Y-67734005D01*
X158380887Y-67734005D01*
G37*
G36*
X154382927Y-67734005D02*
X154382929Y-67734006D01*
X154382930Y-67734006D01*
X154621683Y-67832900D01*
X154835584Y-67975825D01*
X154836557Y-67976475D01*
X155019285Y-68159203D01*
X155019287Y-68159206D01*
X155162860Y-68374077D01*
X155261754Y-68612830D01*
X155312170Y-68866288D01*
X155312170Y-69124712D01*
X155261754Y-69378170D01*
X155162860Y-69616923D01*
X155019935Y-69830824D01*
X155019285Y-69831797D01*
X154836557Y-70014525D01*
X154836554Y-70014527D01*
X154621683Y-70158100D01*
X154382930Y-70256994D01*
X154382929Y-70256994D01*
X154382927Y-70256995D01*
X154129473Y-70307410D01*
X153871047Y-70307410D01*
X153617593Y-70256995D01*
X153617591Y-70256994D01*
X153617590Y-70256994D01*
X153378837Y-70158100D01*
X153163966Y-70014527D01*
X153163963Y-70014525D01*
X152981235Y-69831797D01*
X152980585Y-69830824D01*
X152837660Y-69616923D01*
X152738766Y-69378170D01*
X152688350Y-69124712D01*
X152688350Y-68866288D01*
X152738766Y-68612830D01*
X152837660Y-68374077D01*
X152981233Y-68159206D01*
X152981235Y-68159203D01*
X153163963Y-67976475D01*
X153164936Y-67975825D01*
X153378837Y-67832900D01*
X153617590Y-67734006D01*
X153617591Y-67734006D01*
X153617593Y-67734005D01*
X153871047Y-67683590D01*
X154129473Y-67683590D01*
X154382927Y-67734005D01*
X154382927Y-67734005D01*
G37*
G36*
X178380847Y-67734005D02*
X178380849Y-67734006D01*
X178380850Y-67734006D01*
X178619603Y-67832900D01*
X178833504Y-67975825D01*
X178834477Y-67976475D01*
X179017205Y-68159203D01*
X179017207Y-68159206D01*
X179160780Y-68374077D01*
X179259674Y-68612830D01*
X179310090Y-68866288D01*
X179310090Y-69124712D01*
X179259674Y-69378170D01*
X179160780Y-69616923D01*
X179017855Y-69830824D01*
X179017205Y-69831797D01*
X178834477Y-70014525D01*
X178834474Y-70014527D01*
X178619603Y-70158100D01*
X178380850Y-70256994D01*
X178380849Y-70256994D01*
X178380847Y-70256995D01*
X178127393Y-70307410D01*
X177868967Y-70307410D01*
X177615513Y-70256995D01*
X177615511Y-70256994D01*
X177615510Y-70256994D01*
X177376757Y-70158100D01*
X177161886Y-70014527D01*
X177161883Y-70014525D01*
X176979155Y-69831797D01*
X176978505Y-69830824D01*
X176835580Y-69616923D01*
X176736686Y-69378170D01*
X176686270Y-69124712D01*
X176686270Y-68866288D01*
X176736686Y-68612830D01*
X176835580Y-68374077D01*
X176979153Y-68159206D01*
X176979155Y-68159203D01*
X177161883Y-67976475D01*
X177162856Y-67975825D01*
X177376757Y-67832900D01*
X177615510Y-67734006D01*
X177615511Y-67734006D01*
X177615513Y-67734005D01*
X177868967Y-67683590D01*
X178127393Y-67683590D01*
X178380847Y-67734005D01*
X178380847Y-67734005D01*
G37*
G36*
X162381387Y-67734005D02*
X162381389Y-67734006D01*
X162381390Y-67734006D01*
X162620143Y-67832900D01*
X162834044Y-67975825D01*
X162835017Y-67976475D01*
X163017745Y-68159203D01*
X163017747Y-68159206D01*
X163161320Y-68374077D01*
X163260214Y-68612830D01*
X163310630Y-68866288D01*
X163310630Y-69124712D01*
X163260214Y-69378170D01*
X163161320Y-69616923D01*
X163018395Y-69830824D01*
X163017745Y-69831797D01*
X162835017Y-70014525D01*
X162835014Y-70014527D01*
X162620143Y-70158100D01*
X162381390Y-70256994D01*
X162381389Y-70256994D01*
X162381387Y-70256995D01*
X162127933Y-70307410D01*
X161869507Y-70307410D01*
X161616053Y-70256995D01*
X161616051Y-70256994D01*
X161616050Y-70256994D01*
X161377297Y-70158100D01*
X161162426Y-70014527D01*
X161162423Y-70014525D01*
X160979695Y-69831797D01*
X160979045Y-69830824D01*
X160836120Y-69616923D01*
X160737226Y-69378170D01*
X160686810Y-69124712D01*
X160686810Y-68866288D01*
X160737226Y-68612830D01*
X160836120Y-68374077D01*
X160979693Y-68159206D01*
X160979695Y-68159203D01*
X161162423Y-67976475D01*
X161163396Y-67975825D01*
X161377297Y-67832900D01*
X161616050Y-67734006D01*
X161616051Y-67734006D01*
X161616053Y-67734005D01*
X161869507Y-67683590D01*
X162127933Y-67683590D01*
X162381387Y-67734005D01*
X162381387Y-67734005D01*
G37*
G36*
X168380867Y-63736045D02*
X168380869Y-63736046D01*
X168380870Y-63736046D01*
X168619623Y-63834940D01*
X168833524Y-63977865D01*
X168834497Y-63978515D01*
X169017225Y-64161243D01*
X169017227Y-64161246D01*
X169160800Y-64376117D01*
X169259694Y-64614870D01*
X169310110Y-64868328D01*
X169310110Y-65126752D01*
X169259694Y-65380210D01*
X169160800Y-65618963D01*
X169017875Y-65832864D01*
X169017225Y-65833837D01*
X168834497Y-66016565D01*
X168834494Y-66016567D01*
X168619623Y-66160140D01*
X168380870Y-66259034D01*
X168380869Y-66259034D01*
X168380867Y-66259035D01*
X168127413Y-66309450D01*
X167868987Y-66309450D01*
X167615533Y-66259035D01*
X167615531Y-66259034D01*
X167615530Y-66259034D01*
X167376777Y-66160140D01*
X167161906Y-66016567D01*
X167161903Y-66016565D01*
X166979175Y-65833837D01*
X166978525Y-65832864D01*
X166835600Y-65618963D01*
X166736706Y-65380210D01*
X166686290Y-65126752D01*
X166686290Y-64868328D01*
X166736706Y-64614870D01*
X166835600Y-64376117D01*
X166979173Y-64161246D01*
X166979175Y-64161243D01*
X167161903Y-63978515D01*
X167162876Y-63977865D01*
X167376777Y-63834940D01*
X167615530Y-63736046D01*
X167615531Y-63736046D01*
X167615533Y-63736045D01*
X167868987Y-63685630D01*
X168127413Y-63685630D01*
X168380867Y-63736045D01*
X168380867Y-63736045D01*
G37*
G36*
X180379827Y-63736045D02*
X180379829Y-63736046D01*
X180379830Y-63736046D01*
X180618583Y-63834940D01*
X180832484Y-63977865D01*
X180833457Y-63978515D01*
X181016185Y-64161243D01*
X181016187Y-64161246D01*
X181159760Y-64376117D01*
X181258654Y-64614870D01*
X181309070Y-64868328D01*
X181309070Y-65126752D01*
X181258654Y-65380210D01*
X181159760Y-65618963D01*
X181016835Y-65832864D01*
X181016185Y-65833837D01*
X180833457Y-66016565D01*
X180833454Y-66016567D01*
X180618583Y-66160140D01*
X180379830Y-66259034D01*
X180379829Y-66259034D01*
X180379827Y-66259035D01*
X180126373Y-66309450D01*
X179867947Y-66309450D01*
X179614493Y-66259035D01*
X179614491Y-66259034D01*
X179614490Y-66259034D01*
X179375737Y-66160140D01*
X179160866Y-66016567D01*
X179160863Y-66016565D01*
X178978135Y-65833837D01*
X178977485Y-65832864D01*
X178834560Y-65618963D01*
X178735666Y-65380210D01*
X178685250Y-65126752D01*
X178685250Y-64868328D01*
X178735666Y-64614870D01*
X178834560Y-64376117D01*
X178978133Y-64161246D01*
X178978135Y-64161243D01*
X179160863Y-63978515D01*
X179161836Y-63977865D01*
X179375737Y-63834940D01*
X179614490Y-63736046D01*
X179614491Y-63736046D01*
X179614493Y-63736045D01*
X179867947Y-63685630D01*
X180126373Y-63685630D01*
X180379827Y-63736045D01*
X180379827Y-63736045D01*
G37*
G36*
X176379327Y-63736045D02*
X176379329Y-63736046D01*
X176379330Y-63736046D01*
X176618083Y-63834940D01*
X176831984Y-63977865D01*
X176832957Y-63978515D01*
X177015685Y-64161243D01*
X177015687Y-64161246D01*
X177159260Y-64376117D01*
X177258154Y-64614870D01*
X177308570Y-64868328D01*
X177308570Y-65126752D01*
X177258154Y-65380210D01*
X177159260Y-65618963D01*
X177016335Y-65832864D01*
X177015685Y-65833837D01*
X176832957Y-66016565D01*
X176832954Y-66016567D01*
X176618083Y-66160140D01*
X176379330Y-66259034D01*
X176379329Y-66259034D01*
X176379327Y-66259035D01*
X176125873Y-66309450D01*
X175867447Y-66309450D01*
X175613993Y-66259035D01*
X175613991Y-66259034D01*
X175613990Y-66259034D01*
X175375237Y-66160140D01*
X175160366Y-66016567D01*
X175160363Y-66016565D01*
X174977635Y-65833837D01*
X174976985Y-65832864D01*
X174834060Y-65618963D01*
X174735166Y-65380210D01*
X174684750Y-65126752D01*
X174684750Y-64868328D01*
X174735166Y-64614870D01*
X174834060Y-64376117D01*
X174977633Y-64161246D01*
X174977635Y-64161243D01*
X175160363Y-63978515D01*
X175161336Y-63977865D01*
X175375237Y-63834940D01*
X175613990Y-63736046D01*
X175613991Y-63736046D01*
X175613993Y-63736045D01*
X175867447Y-63685630D01*
X176125873Y-63685630D01*
X176379327Y-63736045D01*
X176379327Y-63736045D01*
G37*
G36*
X164382907Y-63736045D02*
X164382909Y-63736046D01*
X164382910Y-63736046D01*
X164621663Y-63834940D01*
X164835564Y-63977865D01*
X164836537Y-63978515D01*
X165019265Y-64161243D01*
X165019267Y-64161246D01*
X165162840Y-64376117D01*
X165261734Y-64614870D01*
X165312150Y-64868328D01*
X165312150Y-65126752D01*
X165261734Y-65380210D01*
X165162840Y-65618963D01*
X165019915Y-65832864D01*
X165019265Y-65833837D01*
X164836537Y-66016565D01*
X164836534Y-66016567D01*
X164621663Y-66160140D01*
X164382910Y-66259034D01*
X164382909Y-66259034D01*
X164382907Y-66259035D01*
X164129453Y-66309450D01*
X163871027Y-66309450D01*
X163617573Y-66259035D01*
X163617571Y-66259034D01*
X163617570Y-66259034D01*
X163378817Y-66160140D01*
X163163946Y-66016567D01*
X163163943Y-66016565D01*
X162981215Y-65833837D01*
X162980565Y-65832864D01*
X162837640Y-65618963D01*
X162738746Y-65380210D01*
X162688330Y-65126752D01*
X162688330Y-64868328D01*
X162738746Y-64614870D01*
X162837640Y-64376117D01*
X162981213Y-64161246D01*
X162981215Y-64161243D01*
X163163943Y-63978515D01*
X163164916Y-63977865D01*
X163378817Y-63834940D01*
X163617570Y-63736046D01*
X163617571Y-63736046D01*
X163617573Y-63736045D01*
X163871027Y-63685630D01*
X164129453Y-63685630D01*
X164382907Y-63736045D01*
X164382907Y-63736045D01*
G37*
G36*
X160382407Y-63736045D02*
X160382409Y-63736046D01*
X160382410Y-63736046D01*
X160621163Y-63834940D01*
X160835064Y-63977865D01*
X160836037Y-63978515D01*
X161018765Y-64161243D01*
X161018767Y-64161246D01*
X161162340Y-64376117D01*
X161261234Y-64614870D01*
X161311650Y-64868328D01*
X161311650Y-65126752D01*
X161261234Y-65380210D01*
X161162340Y-65618963D01*
X161019415Y-65832864D01*
X161018765Y-65833837D01*
X160836037Y-66016565D01*
X160836034Y-66016567D01*
X160621163Y-66160140D01*
X160382410Y-66259034D01*
X160382409Y-66259034D01*
X160382407Y-66259035D01*
X160128953Y-66309450D01*
X159870527Y-66309450D01*
X159617073Y-66259035D01*
X159617071Y-66259034D01*
X159617070Y-66259034D01*
X159378317Y-66160140D01*
X159163446Y-66016567D01*
X159163443Y-66016565D01*
X158980715Y-65833837D01*
X158980065Y-65832864D01*
X158837140Y-65618963D01*
X158738246Y-65380210D01*
X158687830Y-65126752D01*
X158687830Y-64868328D01*
X158738246Y-64614870D01*
X158837140Y-64376117D01*
X158980713Y-64161246D01*
X158980715Y-64161243D01*
X159163443Y-63978515D01*
X159164416Y-63977865D01*
X159378317Y-63834940D01*
X159617070Y-63736046D01*
X159617071Y-63736046D01*
X159617073Y-63736045D01*
X159870527Y-63685630D01*
X160128953Y-63685630D01*
X160382407Y-63736045D01*
X160382407Y-63736045D01*
G37*
G36*
X172378827Y-63736045D02*
X172378829Y-63736046D01*
X172378830Y-63736046D01*
X172617583Y-63834940D01*
X172831484Y-63977865D01*
X172832457Y-63978515D01*
X173015185Y-64161243D01*
X173015187Y-64161246D01*
X173158760Y-64376117D01*
X173257654Y-64614870D01*
X173308070Y-64868328D01*
X173308070Y-65126752D01*
X173257654Y-65380210D01*
X173158760Y-65618963D01*
X173015835Y-65832864D01*
X173015185Y-65833837D01*
X172832457Y-66016565D01*
X172832454Y-66016567D01*
X172617583Y-66160140D01*
X172378830Y-66259034D01*
X172378829Y-66259034D01*
X172378827Y-66259035D01*
X172125373Y-66309450D01*
X171866947Y-66309450D01*
X171613493Y-66259035D01*
X171613491Y-66259034D01*
X171613490Y-66259034D01*
X171374737Y-66160140D01*
X171159866Y-66016567D01*
X171159863Y-66016565D01*
X170977135Y-65833837D01*
X170976485Y-65832864D01*
X170833560Y-65618963D01*
X170734666Y-65380210D01*
X170684250Y-65126752D01*
X170684250Y-64868328D01*
X170734666Y-64614870D01*
X170833560Y-64376117D01*
X170977133Y-64161246D01*
X170977135Y-64161243D01*
X171159863Y-63978515D01*
X171160836Y-63977865D01*
X171374737Y-63834940D01*
X171613490Y-63736046D01*
X171613491Y-63736046D01*
X171613493Y-63736045D01*
X171866947Y-63685630D01*
X172125373Y-63685630D01*
X172378827Y-63736045D01*
X172378827Y-63736045D01*
G37*
G36*
X156381907Y-63736045D02*
X156381909Y-63736046D01*
X156381910Y-63736046D01*
X156620663Y-63834940D01*
X156834564Y-63977865D01*
X156835537Y-63978515D01*
X157018265Y-64161243D01*
X157018267Y-64161246D01*
X157161840Y-64376117D01*
X157260734Y-64614870D01*
X157311150Y-64868328D01*
X157311150Y-65126752D01*
X157260734Y-65380210D01*
X157161840Y-65618963D01*
X157018915Y-65832864D01*
X157018265Y-65833837D01*
X156835537Y-66016565D01*
X156835534Y-66016567D01*
X156620663Y-66160140D01*
X156381910Y-66259034D01*
X156381909Y-66259034D01*
X156381907Y-66259035D01*
X156128453Y-66309450D01*
X155870027Y-66309450D01*
X155616573Y-66259035D01*
X155616571Y-66259034D01*
X155616570Y-66259034D01*
X155377817Y-66160140D01*
X155162946Y-66016567D01*
X155162943Y-66016565D01*
X154980215Y-65833837D01*
X154979565Y-65832864D01*
X154836640Y-65618963D01*
X154737746Y-65380210D01*
X154687330Y-65126752D01*
X154687330Y-64868328D01*
X154737746Y-64614870D01*
X154836640Y-64376117D01*
X154980213Y-64161246D01*
X154980215Y-64161243D01*
X155162943Y-63978515D01*
X155163916Y-63977865D01*
X155377817Y-63834940D01*
X155616570Y-63736046D01*
X155616571Y-63736046D01*
X155616573Y-63736045D01*
X155870027Y-63685630D01*
X156128453Y-63685630D01*
X156381907Y-63736045D01*
X156381907Y-63736045D01*
G37*
G36*
X192619200Y-63469900D02*
X191857200Y-63469900D01*
X191857200Y-62530100D01*
X192619200Y-62530100D01*
X192619200Y-63469900D01*
X192619200Y-63469900D01*
G37*
G36*
X190942800Y-63469900D02*
X190180800Y-63469900D01*
X190180800Y-62530100D01*
X190942800Y-62530100D01*
X190942800Y-63469900D01*
X190942800Y-63469900D01*
G37*
G36*
X158380887Y-59738085D02*
X158380889Y-59738086D01*
X158380890Y-59738086D01*
X158619643Y-59836980D01*
X158833544Y-59979905D01*
X158834517Y-59980555D01*
X159017245Y-60163283D01*
X159017247Y-60163286D01*
X159160820Y-60378157D01*
X159259714Y-60616910D01*
X159310130Y-60870368D01*
X159310130Y-61128792D01*
X159259714Y-61382250D01*
X159160820Y-61621003D01*
X159017895Y-61834904D01*
X159017245Y-61835877D01*
X158834517Y-62018605D01*
X158834514Y-62018607D01*
X158619643Y-62162180D01*
X158380890Y-62261074D01*
X158380889Y-62261074D01*
X158380887Y-62261075D01*
X158127433Y-62311490D01*
X157869007Y-62311490D01*
X157615553Y-62261075D01*
X157615551Y-62261074D01*
X157615550Y-62261074D01*
X157376797Y-62162180D01*
X157161926Y-62018607D01*
X157161923Y-62018605D01*
X156979195Y-61835877D01*
X156978545Y-61834904D01*
X156835620Y-61621003D01*
X156736726Y-61382250D01*
X156686310Y-61128792D01*
X156686310Y-60870368D01*
X156736726Y-60616910D01*
X156835620Y-60378157D01*
X156979193Y-60163286D01*
X156979195Y-60163283D01*
X157161923Y-59980555D01*
X157162896Y-59979905D01*
X157376797Y-59836980D01*
X157615550Y-59738086D01*
X157615551Y-59738086D01*
X157615553Y-59738085D01*
X157869007Y-59687670D01*
X158127433Y-59687670D01*
X158380887Y-59738085D01*
X158380887Y-59738085D01*
G37*
G36*
X170379847Y-59738085D02*
X170379849Y-59738086D01*
X170379850Y-59738086D01*
X170618603Y-59836980D01*
X170832504Y-59979905D01*
X170833477Y-59980555D01*
X171016205Y-60163283D01*
X171016207Y-60163286D01*
X171159780Y-60378157D01*
X171258674Y-60616910D01*
X171309090Y-60870368D01*
X171309090Y-61128792D01*
X171258674Y-61382250D01*
X171159780Y-61621003D01*
X171016855Y-61834904D01*
X171016205Y-61835877D01*
X170833477Y-62018605D01*
X170833474Y-62018607D01*
X170618603Y-62162180D01*
X170379850Y-62261074D01*
X170379849Y-62261074D01*
X170379847Y-62261075D01*
X170126393Y-62311490D01*
X169867967Y-62311490D01*
X169614513Y-62261075D01*
X169614511Y-62261074D01*
X169614510Y-62261074D01*
X169375757Y-62162180D01*
X169160886Y-62018607D01*
X169160883Y-62018605D01*
X168978155Y-61835877D01*
X168977505Y-61834904D01*
X168834580Y-61621003D01*
X168735686Y-61382250D01*
X168685270Y-61128792D01*
X168685270Y-60870368D01*
X168735686Y-60616910D01*
X168834580Y-60378157D01*
X168978153Y-60163286D01*
X168978155Y-60163283D01*
X169160883Y-59980555D01*
X169161856Y-59979905D01*
X169375757Y-59836980D01*
X169614510Y-59738086D01*
X169614511Y-59738086D01*
X169614513Y-59738085D01*
X169867967Y-59687670D01*
X170126393Y-59687670D01*
X170379847Y-59738085D01*
X170379847Y-59738085D01*
G37*
G36*
X166381887Y-59738085D02*
X166381889Y-59738086D01*
X166381890Y-59738086D01*
X166620643Y-59836980D01*
X166834544Y-59979905D01*
X166835517Y-59980555D01*
X167018245Y-60163283D01*
X167018247Y-60163286D01*
X167161820Y-60378157D01*
X167260714Y-60616910D01*
X167311130Y-60870368D01*
X167311130Y-61128792D01*
X167260714Y-61382250D01*
X167161820Y-61621003D01*
X167018895Y-61834904D01*
X167018245Y-61835877D01*
X166835517Y-62018605D01*
X166835514Y-62018607D01*
X166620643Y-62162180D01*
X166381890Y-62261074D01*
X166381889Y-62261074D01*
X166381887Y-62261075D01*
X166128433Y-62311490D01*
X165870007Y-62311490D01*
X165616553Y-62261075D01*
X165616551Y-62261074D01*
X165616550Y-62261074D01*
X165377797Y-62162180D01*
X165162926Y-62018607D01*
X165162923Y-62018605D01*
X164980195Y-61835877D01*
X164979545Y-61834904D01*
X164836620Y-61621003D01*
X164737726Y-61382250D01*
X164687310Y-61128792D01*
X164687310Y-60870368D01*
X164737726Y-60616910D01*
X164836620Y-60378157D01*
X164980193Y-60163286D01*
X164980195Y-60163283D01*
X165162923Y-59980555D01*
X165163896Y-59979905D01*
X165377797Y-59836980D01*
X165616550Y-59738086D01*
X165616551Y-59738086D01*
X165616553Y-59738085D01*
X165870007Y-59687670D01*
X166128433Y-59687670D01*
X166381887Y-59738085D01*
X166381887Y-59738085D01*
G37*
G36*
X162381387Y-59738085D02*
X162381389Y-59738086D01*
X162381390Y-59738086D01*
X162620143Y-59836980D01*
X162834044Y-59979905D01*
X162835017Y-59980555D01*
X163017745Y-60163283D01*
X163017747Y-60163286D01*
X163161320Y-60378157D01*
X163260214Y-60616910D01*
X163310630Y-60870368D01*
X163310630Y-61128792D01*
X163260214Y-61382250D01*
X163161320Y-61621003D01*
X163018395Y-61834904D01*
X163017745Y-61835877D01*
X162835017Y-62018605D01*
X162835014Y-62018607D01*
X162620143Y-62162180D01*
X162381390Y-62261074D01*
X162381389Y-62261074D01*
X162381387Y-62261075D01*
X162127933Y-62311490D01*
X161869507Y-62311490D01*
X161616053Y-62261075D01*
X161616051Y-62261074D01*
X161616050Y-62261074D01*
X161377297Y-62162180D01*
X161162426Y-62018607D01*
X161162423Y-62018605D01*
X160979695Y-61835877D01*
X160979045Y-61834904D01*
X160836120Y-61621003D01*
X160737226Y-61382250D01*
X160686810Y-61128792D01*
X160686810Y-60870368D01*
X160737226Y-60616910D01*
X160836120Y-60378157D01*
X160979693Y-60163286D01*
X160979695Y-60163283D01*
X161162423Y-59980555D01*
X161163396Y-59979905D01*
X161377297Y-59836980D01*
X161616050Y-59738086D01*
X161616051Y-59738086D01*
X161616053Y-59738085D01*
X161869507Y-59687670D01*
X162127933Y-59687670D01*
X162381387Y-59738085D01*
X162381387Y-59738085D01*
G37*
G36*
X182378807Y-59738085D02*
X182378809Y-59738086D01*
X182378810Y-59738086D01*
X182617563Y-59836980D01*
X182831464Y-59979905D01*
X182832437Y-59980555D01*
X183015165Y-60163283D01*
X183015167Y-60163286D01*
X183158740Y-60378157D01*
X183257634Y-60616910D01*
X183308050Y-60870368D01*
X183308050Y-61128792D01*
X183257634Y-61382250D01*
X183158740Y-61621003D01*
X183015815Y-61834904D01*
X183015165Y-61835877D01*
X182832437Y-62018605D01*
X182832434Y-62018607D01*
X182617563Y-62162180D01*
X182378810Y-62261074D01*
X182378809Y-62261074D01*
X182378807Y-62261075D01*
X182125353Y-62311490D01*
X181866927Y-62311490D01*
X181613473Y-62261075D01*
X181613471Y-62261074D01*
X181613470Y-62261074D01*
X181374717Y-62162180D01*
X181159846Y-62018607D01*
X181159843Y-62018605D01*
X180977115Y-61835877D01*
X180976465Y-61834904D01*
X180833540Y-61621003D01*
X180734646Y-61382250D01*
X180684230Y-61128792D01*
X180684230Y-60870368D01*
X180734646Y-60616910D01*
X180833540Y-60378157D01*
X180977113Y-60163286D01*
X180977115Y-60163283D01*
X181159843Y-59980555D01*
X181160816Y-59979905D01*
X181374717Y-59836980D01*
X181613470Y-59738086D01*
X181613471Y-59738086D01*
X181613473Y-59738085D01*
X181866927Y-59687670D01*
X182125353Y-59687670D01*
X182378807Y-59738085D01*
X182378807Y-59738085D01*
G37*
G36*
X178380847Y-59738085D02*
X178380849Y-59738086D01*
X178380850Y-59738086D01*
X178619603Y-59836980D01*
X178833504Y-59979905D01*
X178834477Y-59980555D01*
X179017205Y-60163283D01*
X179017207Y-60163286D01*
X179160780Y-60378157D01*
X179259674Y-60616910D01*
X179310090Y-60870368D01*
X179310090Y-61128792D01*
X179259674Y-61382250D01*
X179160780Y-61621003D01*
X179017855Y-61834904D01*
X179017205Y-61835877D01*
X178834477Y-62018605D01*
X178834474Y-62018607D01*
X178619603Y-62162180D01*
X178380850Y-62261074D01*
X178380849Y-62261074D01*
X178380847Y-62261075D01*
X178127393Y-62311490D01*
X177868967Y-62311490D01*
X177615513Y-62261075D01*
X177615511Y-62261074D01*
X177615510Y-62261074D01*
X177376757Y-62162180D01*
X177161886Y-62018607D01*
X177161883Y-62018605D01*
X176979155Y-61835877D01*
X176978505Y-61834904D01*
X176835580Y-61621003D01*
X176736686Y-61382250D01*
X176686270Y-61128792D01*
X176686270Y-60870368D01*
X176736686Y-60616910D01*
X176835580Y-60378157D01*
X176979153Y-60163286D01*
X176979155Y-60163283D01*
X177161883Y-59980555D01*
X177162856Y-59979905D01*
X177376757Y-59836980D01*
X177615510Y-59738086D01*
X177615511Y-59738086D01*
X177615513Y-59738085D01*
X177868967Y-59687670D01*
X178127393Y-59687670D01*
X178380847Y-59738085D01*
X178380847Y-59738085D01*
G37*
G36*
X174380347Y-59738085D02*
X174380349Y-59738086D01*
X174380350Y-59738086D01*
X174619103Y-59836980D01*
X174833004Y-59979905D01*
X174833977Y-59980555D01*
X175016705Y-60163283D01*
X175016707Y-60163286D01*
X175160280Y-60378157D01*
X175259174Y-60616910D01*
X175309590Y-60870368D01*
X175309590Y-61128792D01*
X175259174Y-61382250D01*
X175160280Y-61621003D01*
X175017355Y-61834904D01*
X175016705Y-61835877D01*
X174833977Y-62018605D01*
X174833974Y-62018607D01*
X174619103Y-62162180D01*
X174380350Y-62261074D01*
X174380349Y-62261074D01*
X174380347Y-62261075D01*
X174126893Y-62311490D01*
X173868467Y-62311490D01*
X173615013Y-62261075D01*
X173615011Y-62261074D01*
X173615010Y-62261074D01*
X173376257Y-62162180D01*
X173161386Y-62018607D01*
X173161383Y-62018605D01*
X172978655Y-61835877D01*
X172978005Y-61834904D01*
X172835080Y-61621003D01*
X172736186Y-61382250D01*
X172685770Y-61128792D01*
X172685770Y-60870368D01*
X172736186Y-60616910D01*
X172835080Y-60378157D01*
X172978653Y-60163286D01*
X172978655Y-60163283D01*
X173161383Y-59980555D01*
X173162356Y-59979905D01*
X173376257Y-59836980D01*
X173615010Y-59738086D01*
X173615011Y-59738086D01*
X173615013Y-59738085D01*
X173868467Y-59687670D01*
X174126893Y-59687670D01*
X174380347Y-59738085D01*
X174380347Y-59738085D01*
G37*
G36*
X155312170Y-62311490D02*
X152688350Y-62311490D01*
X152688350Y-59687670D01*
X155312170Y-59687670D01*
X155312170Y-62311490D01*
X155312170Y-62311490D01*
G37*
G36*
X192619200Y-61769900D02*
X191857200Y-61769900D01*
X191857200Y-60830100D01*
X192619200Y-60830100D01*
X192619200Y-61769900D01*
X192619200Y-61769900D01*
G37*
G36*
X190942800Y-61769900D02*
X190180800Y-61769900D01*
X190180800Y-60830100D01*
X190942800Y-60830100D01*
X190942800Y-61769900D01*
X190942800Y-61769900D01*
G37*
G36*
X190600000Y-60115000D02*
X189970000Y-60115000D01*
X189970000Y-59285000D01*
X190600000Y-59285000D01*
X190600000Y-60115000D01*
X190600000Y-60115000D01*
G37*
G36*
X192830000Y-60115000D02*
X192200000Y-60115000D01*
X192200000Y-59285000D01*
X192830000Y-59285000D01*
X192830000Y-60115000D01*
X192830000Y-60115000D01*
G37*
G36*
X190942800Y-58569900D02*
X190180800Y-58569900D01*
X190180800Y-57630100D01*
X190942800Y-57630100D01*
X190942800Y-58569900D01*
X190942800Y-58569900D01*
G37*
G36*
X192619200Y-58569900D02*
X191857200Y-58569900D01*
X191857200Y-57630100D01*
X192619200Y-57630100D01*
X192619200Y-58569900D01*
X192619200Y-58569900D01*
G37*
G36*
X192037305Y-52738556D02*
X192133896Y-52757769D01*
X192246959Y-52804602D01*
X192406854Y-52870832D01*
X192652514Y-53034977D01*
X192861423Y-53243886D01*
X193025568Y-53489546D01*
X193138631Y-53762505D01*
X193196270Y-54052274D01*
X193196270Y-54347726D01*
X193138631Y-54637495D01*
X193025568Y-54910454D01*
X192861423Y-55156114D01*
X192652514Y-55365023D01*
X192406854Y-55529168D01*
X192246959Y-55595398D01*
X192133896Y-55642231D01*
X192037305Y-55661444D01*
X191844126Y-55699870D01*
X191548674Y-55699870D01*
X191355495Y-55661444D01*
X191258904Y-55642231D01*
X191145841Y-55595398D01*
X190985946Y-55529168D01*
X190740286Y-55365023D01*
X190531377Y-55156114D01*
X190367232Y-54910454D01*
X190254169Y-54637495D01*
X190196530Y-54347726D01*
X190196530Y-54052274D01*
X190254169Y-53762505D01*
X190367232Y-53489546D01*
X190531377Y-53243886D01*
X190740286Y-53034977D01*
X190985946Y-52870832D01*
X191145841Y-52804602D01*
X191258904Y-52757769D01*
X191355495Y-52738556D01*
X191548674Y-52700130D01*
X191844126Y-52700130D01*
X192037305Y-52738556D01*
X192037305Y-52738556D01*
G37*
G36*
X144640905Y-52738556D02*
X144737496Y-52757769D01*
X144850559Y-52804602D01*
X145010454Y-52870832D01*
X145256114Y-53034977D01*
X145465023Y-53243886D01*
X145629168Y-53489546D01*
X145742231Y-53762505D01*
X145799870Y-54052274D01*
X145799870Y-54347726D01*
X145742231Y-54637495D01*
X145629168Y-54910454D01*
X145465023Y-55156114D01*
X145256114Y-55365023D01*
X145010454Y-55529168D01*
X144850559Y-55595398D01*
X144737496Y-55642231D01*
X144640905Y-55661444D01*
X144447726Y-55699870D01*
X144152274Y-55699870D01*
X143959095Y-55661444D01*
X143862504Y-55642231D01*
X143749441Y-55595398D01*
X143589546Y-55529168D01*
X143343886Y-55365023D01*
X143134977Y-55156114D01*
X142970832Y-54910454D01*
X142857769Y-54637495D01*
X142800130Y-54347726D01*
X142800130Y-54052274D01*
X142857769Y-53762505D01*
X142970832Y-53489546D01*
X143134977Y-53243886D01*
X143343886Y-53034977D01*
X143589546Y-52870832D01*
X143749441Y-52804602D01*
X143862504Y-52757769D01*
X143959095Y-52738556D01*
X144152274Y-52700130D01*
X144447726Y-52700130D01*
X144640905Y-52738556D01*
X144640905Y-52738556D01*
G37*
M02*
