G04 #@! TF.GenerationSoftware,KiCad,Pcbnew,(5.0.2-dirty)*
G04 #@! TF.CreationDate,2019-01-30T17:58:24+02:00*
G04 #@! TF.ProjectId,esb,6573622e-6b69-4636-9164-5f7063625858,rev?*
G04 #@! TF.SameCoordinates,Original*
G04 #@! TF.FileFunction,Legend,Top*
G04 #@! TF.FilePolarity,Positive*
%FSLAX46Y46*%
G04 Gerber Fmt 4.6, Leading zero omitted, Abs format (unit mm)*
G04 Created by KiCad (PCBNEW (5.0.2-dirty)) date ke 30. tammikuuta 2019 17.58.24*
%MOMM*%
%LPD*%
G01*
G04 APERTURE LIST*
%ADD10C,0.300000*%
%ADD11C,0.198120*%
%ADD12C,0.010000*%
%ADD13C,0.200000*%
%ADD14C,0.100000*%
%ADD15C,0.203200*%
%ADD16C,0.127000*%
%ADD17C,0.099060*%
%ADD18C,0.150000*%
%ADD19C,0.101600*%
%ADD20C,0.076200*%
G04 APERTURE END LIST*
D10*
X184357142Y-102103571D02*
X184357142Y-103317857D01*
X184428571Y-103460714D01*
X184500000Y-103532142D01*
X184642857Y-103603571D01*
X184928571Y-103603571D01*
X185071428Y-103532142D01*
X185142857Y-103460714D01*
X185214285Y-103317857D01*
X185214285Y-102103571D01*
X185857142Y-103532142D02*
X186000000Y-103603571D01*
X186285714Y-103603571D01*
X186428571Y-103532142D01*
X186500000Y-103389285D01*
X186500000Y-103317857D01*
X186428571Y-103175000D01*
X186285714Y-103103571D01*
X186071428Y-103103571D01*
X185928571Y-103032142D01*
X185857142Y-102889285D01*
X185857142Y-102817857D01*
X185928571Y-102675000D01*
X186071428Y-102603571D01*
X186285714Y-102603571D01*
X186428571Y-102675000D01*
X187714285Y-103532142D02*
X187571428Y-103603571D01*
X187285714Y-103603571D01*
X187142857Y-103532142D01*
X187071428Y-103389285D01*
X187071428Y-102817857D01*
X187142857Y-102675000D01*
X187285714Y-102603571D01*
X187571428Y-102603571D01*
X187714285Y-102675000D01*
X187785714Y-102817857D01*
X187785714Y-102960714D01*
X187071428Y-103103571D01*
X188285714Y-102603571D02*
X188571428Y-103603571D01*
X188857142Y-102889285D01*
X189142857Y-103603571D01*
X189428571Y-102603571D01*
X190214285Y-103603571D02*
X190071428Y-103532142D01*
X190000000Y-103460714D01*
X189928571Y-103317857D01*
X189928571Y-102889285D01*
X190000000Y-102746428D01*
X190071428Y-102675000D01*
X190214285Y-102603571D01*
X190428571Y-102603571D01*
X190571428Y-102675000D01*
X190642857Y-102746428D01*
X190714285Y-102889285D01*
X190714285Y-103317857D01*
X190642857Y-103460714D01*
X190571428Y-103532142D01*
X190428571Y-103603571D01*
X190214285Y-103603571D01*
X191571428Y-103603571D02*
X191428571Y-103532142D01*
X191357142Y-103460714D01*
X191285714Y-103317857D01*
X191285714Y-102889285D01*
X191357142Y-102746428D01*
X191428571Y-102675000D01*
X191571428Y-102603571D01*
X191785714Y-102603571D01*
X191928571Y-102675000D01*
X192000000Y-102746428D01*
X192071428Y-102889285D01*
X192071428Y-103317857D01*
X192000000Y-103460714D01*
X191928571Y-103532142D01*
X191785714Y-103603571D01*
X191571428Y-103603571D01*
X193357142Y-103603571D02*
X193357142Y-102103571D01*
X193357142Y-103532142D02*
X193214285Y-103603571D01*
X192928571Y-103603571D01*
X192785714Y-103532142D01*
X192714285Y-103460714D01*
X192642857Y-103317857D01*
X192642857Y-102889285D01*
X192714285Y-102746428D01*
X192785714Y-102675000D01*
X192928571Y-102603571D01*
X193214285Y-102603571D01*
X193357142Y-102675000D01*
X195214285Y-102817857D02*
X195714285Y-102817857D01*
X195928571Y-103603571D02*
X195214285Y-103603571D01*
X195214285Y-102103571D01*
X195928571Y-102103571D01*
X196500000Y-103532142D02*
X196714285Y-103603571D01*
X197071428Y-103603571D01*
X197214285Y-103532142D01*
X197285714Y-103460714D01*
X197357142Y-103317857D01*
X197357142Y-103175000D01*
X197285714Y-103032142D01*
X197214285Y-102960714D01*
X197071428Y-102889285D01*
X196785714Y-102817857D01*
X196642857Y-102746428D01*
X196571428Y-102675000D01*
X196500000Y-102532142D01*
X196500000Y-102389285D01*
X196571428Y-102246428D01*
X196642857Y-102175000D01*
X196785714Y-102103571D01*
X197142857Y-102103571D01*
X197357142Y-102175000D01*
X198500000Y-102817857D02*
X198714285Y-102889285D01*
X198785714Y-102960714D01*
X198857142Y-103103571D01*
X198857142Y-103317857D01*
X198785714Y-103460714D01*
X198714285Y-103532142D01*
X198571428Y-103603571D01*
X198000000Y-103603571D01*
X198000000Y-102103571D01*
X198500000Y-102103571D01*
X198642857Y-102175000D01*
X198714285Y-102246428D01*
X198785714Y-102389285D01*
X198785714Y-102532142D01*
X198714285Y-102675000D01*
X198642857Y-102746428D01*
X198500000Y-102817857D01*
X198000000Y-102817857D01*
X201357142Y-102103571D02*
X200642857Y-102103571D01*
X200571428Y-102817857D01*
X200642857Y-102746428D01*
X200785714Y-102675000D01*
X201142857Y-102675000D01*
X201285714Y-102746428D01*
X201357142Y-102817857D01*
X201428571Y-102960714D01*
X201428571Y-103317857D01*
X201357142Y-103460714D01*
X201285714Y-103532142D01*
X201142857Y-103603571D01*
X200785714Y-103603571D01*
X200642857Y-103532142D01*
X200571428Y-103460714D01*
X202071428Y-103460714D02*
X202142857Y-103532142D01*
X202071428Y-103603571D01*
X202000000Y-103532142D01*
X202071428Y-103460714D01*
X202071428Y-103603571D01*
X202714285Y-102246428D02*
X202785714Y-102175000D01*
X202928571Y-102103571D01*
X203285714Y-102103571D01*
X203428571Y-102175000D01*
X203500000Y-102246428D01*
X203571428Y-102389285D01*
X203571428Y-102532142D01*
X203500000Y-102746428D01*
X202642857Y-103603571D01*
X203571428Y-103603571D01*
X204214285Y-103460714D02*
X204285714Y-103532142D01*
X204214285Y-103603571D01*
X204142857Y-103532142D01*
X204214285Y-103460714D01*
X204214285Y-103603571D01*
X205214285Y-102103571D02*
X205357142Y-102103571D01*
X205500000Y-102175000D01*
X205571428Y-102246428D01*
X205642857Y-102389285D01*
X205714285Y-102675000D01*
X205714285Y-103032142D01*
X205642857Y-103317857D01*
X205571428Y-103460714D01*
X205500000Y-103532142D01*
X205357142Y-103603571D01*
X205214285Y-103603571D01*
X205071428Y-103532142D01*
X205000000Y-103460714D01*
X204928571Y-103317857D01*
X204857142Y-103032142D01*
X204857142Y-102675000D01*
X204928571Y-102389285D01*
X205000000Y-102246428D01*
X205071428Y-102175000D01*
X205214285Y-102103571D01*
X189321428Y-104653571D02*
X189321428Y-105867857D01*
X189392857Y-106010714D01*
X189464285Y-106082142D01*
X189607142Y-106153571D01*
X189892857Y-106153571D01*
X190035714Y-106082142D01*
X190107142Y-106010714D01*
X190178571Y-105867857D01*
X190178571Y-104653571D01*
X190821428Y-106082142D02*
X190964285Y-106153571D01*
X191250000Y-106153571D01*
X191392857Y-106082142D01*
X191464285Y-105939285D01*
X191464285Y-105867857D01*
X191392857Y-105725000D01*
X191250000Y-105653571D01*
X191035714Y-105653571D01*
X190892857Y-105582142D01*
X190821428Y-105439285D01*
X190821428Y-105367857D01*
X190892857Y-105225000D01*
X191035714Y-105153571D01*
X191250000Y-105153571D01*
X191392857Y-105225000D01*
X192678571Y-106082142D02*
X192535714Y-106153571D01*
X192250000Y-106153571D01*
X192107142Y-106082142D01*
X192035714Y-105939285D01*
X192035714Y-105367857D01*
X192107142Y-105225000D01*
X192250000Y-105153571D01*
X192535714Y-105153571D01*
X192678571Y-105225000D01*
X192750000Y-105367857D01*
X192750000Y-105510714D01*
X192035714Y-105653571D01*
X193250000Y-105153571D02*
X193607142Y-106153571D01*
X193964285Y-105153571D01*
X194750000Y-106153571D02*
X194607142Y-106082142D01*
X194535714Y-106010714D01*
X194464285Y-105867857D01*
X194464285Y-105439285D01*
X194535714Y-105296428D01*
X194607142Y-105225000D01*
X194750000Y-105153571D01*
X194964285Y-105153571D01*
X195107142Y-105225000D01*
X195178571Y-105296428D01*
X195250000Y-105439285D01*
X195250000Y-105867857D01*
X195178571Y-106010714D01*
X195107142Y-106082142D01*
X194964285Y-106153571D01*
X194750000Y-106153571D01*
X196107142Y-106153571D02*
X195964285Y-106082142D01*
X195892857Y-105939285D01*
X195892857Y-104653571D01*
X196464285Y-105153571D02*
X197035714Y-105153571D01*
X196678571Y-104653571D02*
X196678571Y-105939285D01*
X196750000Y-106082142D01*
X196892857Y-106153571D01*
X197035714Y-106153571D01*
X198964285Y-104653571D02*
X199250000Y-104653571D01*
X199392857Y-104725000D01*
X199535714Y-104867857D01*
X199607142Y-105153571D01*
X199607142Y-105653571D01*
X199535714Y-105939285D01*
X199392857Y-106082142D01*
X199250000Y-106153571D01*
X198964285Y-106153571D01*
X198821428Y-106082142D01*
X198678571Y-105939285D01*
X198607142Y-105653571D01*
X198607142Y-105153571D01*
X198678571Y-104867857D01*
X198821428Y-104725000D01*
X198964285Y-104653571D01*
X200107142Y-105153571D02*
X200464285Y-106153571D01*
X200821428Y-105153571D02*
X200464285Y-106153571D01*
X200321428Y-106510714D01*
X200250000Y-106582142D01*
X200107142Y-106653571D01*
D11*
G04 #@! TO.C,VR202*
X139352200Y-136649580D02*
X142247800Y-136649580D01*
X142247800Y-136649580D02*
X142247800Y-135550420D01*
X139352200Y-136649580D02*
X139352200Y-135550420D01*
X139352200Y-135550420D02*
X142247800Y-135550420D01*
D12*
G04 #@! TO.C,G\002A\002A\002A*
G36*
X194549322Y-109003067D02*
X194688807Y-109100100D01*
X194767031Y-109271241D01*
X194790400Y-109512050D01*
X194790400Y-109783999D01*
X195196800Y-109848985D01*
X195196800Y-111264892D01*
X195197630Y-111632316D01*
X195199975Y-111964280D01*
X195203615Y-112247901D01*
X195208330Y-112470298D01*
X195213899Y-112618589D01*
X195220103Y-112679891D01*
X195220972Y-112680799D01*
X195275706Y-112656671D01*
X195381115Y-112596846D01*
X195411472Y-112578400D01*
X195580316Y-112494194D01*
X195807499Y-112406594D01*
X196059140Y-112326018D01*
X196301355Y-112262884D01*
X196500262Y-112227610D01*
X196565394Y-112223600D01*
X196770036Y-112261654D01*
X196880272Y-112327639D01*
X197000200Y-112431679D01*
X196835100Y-112399803D01*
X196710699Y-112393696D01*
X196667758Y-112429799D01*
X196703471Y-112493561D01*
X196815031Y-112570429D01*
X196873435Y-112598602D01*
X197012986Y-112677313D01*
X197113771Y-112764585D01*
X197130871Y-112789260D01*
X197160939Y-112853203D01*
X197140667Y-112862937D01*
X197052138Y-112821483D01*
X197024451Y-112807206D01*
X196880290Y-112756070D01*
X196771098Y-112760138D01*
X196721569Y-112817618D01*
X196720800Y-112829222D01*
X196762249Y-112881900D01*
X196864216Y-112946839D01*
X196886370Y-112957801D01*
X197017399Y-113039466D01*
X197110961Y-113131182D01*
X197114853Y-113137107D01*
X197150099Y-113199497D01*
X197134405Y-113212048D01*
X197050658Y-113177098D01*
X196999573Y-113152870D01*
X196873820Y-113102178D01*
X196799145Y-113103631D01*
X196758391Y-113134698D01*
X196721796Y-113195699D01*
X196756350Y-113223933D01*
X196850865Y-113276576D01*
X196958279Y-113358870D01*
X197044665Y-113442108D01*
X197076400Y-113494694D01*
X197035745Y-113506152D01*
X196934756Y-113479213D01*
X196901317Y-113466061D01*
X196761845Y-113424940D01*
X196700168Y-113444900D01*
X196719061Y-113518503D01*
X196821301Y-113638313D01*
X196832883Y-113649406D01*
X196923206Y-113742837D01*
X196934027Y-113777875D01*
X196898600Y-113770485D01*
X196698594Y-113712018D01*
X196549163Y-113714057D01*
X196415432Y-113782142D01*
X196323054Y-113861907D01*
X196188567Y-113976537D01*
X196003789Y-114116729D01*
X195805120Y-114255066D01*
X195773551Y-114275798D01*
X195631593Y-114368559D01*
X195516455Y-114451143D01*
X195425152Y-114535012D01*
X195354700Y-114631633D01*
X195302113Y-114752468D01*
X195264406Y-114908982D01*
X195238594Y-115112640D01*
X195221692Y-115374905D01*
X195210715Y-115707243D01*
X195202677Y-116121117D01*
X195196800Y-116490800D01*
X195171400Y-118091000D01*
X194835140Y-117608400D01*
X194524021Y-117141922D01*
X194254700Y-116697524D01*
X194037410Y-116292906D01*
X193900418Y-115991387D01*
X193854446Y-115869860D01*
X193819353Y-115751074D01*
X193792779Y-115616850D01*
X193772363Y-115449010D01*
X193755744Y-115229374D01*
X193740562Y-114939765D01*
X193728900Y-114670587D01*
X193710605Y-114277749D01*
X193689644Y-113971366D01*
X193662158Y-113736300D01*
X193624289Y-113557412D01*
X193572178Y-113419564D01*
X193501966Y-113307617D01*
X193409795Y-113206435D01*
X193339213Y-113141840D01*
X193096590Y-112941180D01*
X192892218Y-112806649D01*
X192699233Y-112726386D01*
X192490771Y-112688527D01*
X192295151Y-112680799D01*
X192086748Y-112676917D01*
X191948541Y-112660275D01*
X191849262Y-112623380D01*
X191757645Y-112558742D01*
X191746297Y-112549284D01*
X191624136Y-112407924D01*
X191590000Y-112268614D01*
X191606621Y-112159077D01*
X191677257Y-112105750D01*
X191746766Y-112088106D01*
X191884659Y-112035197D01*
X191936862Y-111960785D01*
X191911987Y-111881177D01*
X191818645Y-111812679D01*
X191665448Y-111771599D01*
X191576867Y-111766400D01*
X191451287Y-111772689D01*
X191403877Y-111801071D01*
X191411511Y-111865815D01*
X191412200Y-111868000D01*
X191418400Y-111951482D01*
X191362213Y-111958284D01*
X191247545Y-111888714D01*
X191200197Y-111851245D01*
X191078979Y-111762224D01*
X190975564Y-111703527D01*
X190967990Y-111700551D01*
X190862480Y-111618801D01*
X190862116Y-111618256D01*
X191209000Y-111618256D01*
X191394336Y-111589394D01*
X191575710Y-111590603D01*
X191755732Y-111664465D01*
X191764805Y-111669764D01*
X191907373Y-111740990D01*
X191976672Y-111742593D01*
X191973723Y-111674259D01*
X191945600Y-111614000D01*
X191906693Y-111525340D01*
X191903384Y-111489595D01*
X191958570Y-111477914D01*
X192087244Y-111460776D01*
X192261704Y-111441864D01*
X192264111Y-111441627D01*
X192453112Y-111427059D01*
X192564463Y-111431503D01*
X192620799Y-111457651D01*
X192638094Y-111486128D01*
X192629629Y-111597223D01*
X192523444Y-111711026D01*
X192323209Y-111823673D01*
X192313900Y-111827832D01*
X192185408Y-111899395D01*
X192108111Y-111970611D01*
X192098000Y-111997377D01*
X192120327Y-112057423D01*
X192193574Y-112059804D01*
X192327137Y-112002154D01*
X192513136Y-111892957D01*
X192677094Y-111778296D01*
X192815290Y-111660399D01*
X192886566Y-111579689D01*
X192943203Y-111482866D01*
X192940326Y-111427738D01*
X192882410Y-111376931D01*
X192759425Y-111333042D01*
X192564114Y-111314356D01*
X192321939Y-111318513D01*
X192058362Y-111343151D01*
X191798845Y-111385909D01*
X191568852Y-111444426D01*
X191396788Y-111514705D01*
X191209000Y-111618256D01*
X190862116Y-111618256D01*
X190765181Y-111473446D01*
X190696482Y-111301748D01*
X190675789Y-111166501D01*
X190663579Y-111062038D01*
X190633873Y-111025357D01*
X190628310Y-111027630D01*
X190564130Y-111019538D01*
X190544001Y-110996959D01*
X190548879Y-110920283D01*
X190594411Y-110864024D01*
X190743320Y-110864024D01*
X190745502Y-110930886D01*
X190779046Y-110981225D01*
X190885143Y-111050333D01*
X191008444Y-111019550D01*
X191015205Y-111015359D01*
X191024968Y-110967377D01*
X190936480Y-110897409D01*
X190927441Y-110892152D01*
X190809893Y-110847555D01*
X190743320Y-110864024D01*
X190594411Y-110864024D01*
X190623649Y-110827898D01*
X190742801Y-110739044D01*
X190880827Y-110672961D01*
X191005573Y-110648800D01*
X191285033Y-110602250D01*
X191562966Y-110471874D01*
X191576933Y-110460553D01*
X191963468Y-110460553D01*
X191968911Y-110493020D01*
X192049017Y-110539962D01*
X192167871Y-110539798D01*
X192275823Y-110495502D01*
X192299353Y-110473225D01*
X192334538Y-110376885D01*
X192283448Y-110309130D01*
X192209301Y-110294815D01*
X192102253Y-110323479D01*
X192009450Y-110387678D01*
X191963468Y-110460553D01*
X191576933Y-110460553D01*
X191810089Y-110271580D01*
X191818600Y-110262649D01*
X191958112Y-110136794D01*
X192098914Y-110044142D01*
X192174200Y-110014326D01*
X192347728Y-109964826D01*
X192519014Y-109885098D01*
X192690313Y-109782152D01*
X192876447Y-109705421D01*
X193152036Y-109653403D01*
X193244933Y-109643502D01*
X193639041Y-109607400D01*
X193694020Y-109378800D01*
X193747730Y-109218646D01*
X193830684Y-109119151D01*
X193926800Y-109061378D01*
X194092950Y-109005235D01*
X194288512Y-108974467D01*
X194342212Y-108972478D01*
X194549322Y-109003067D01*
X194549322Y-109003067D01*
G37*
X194549322Y-109003067D02*
X194688807Y-109100100D01*
X194767031Y-109271241D01*
X194790400Y-109512050D01*
X194790400Y-109783999D01*
X195196800Y-109848985D01*
X195196800Y-111264892D01*
X195197630Y-111632316D01*
X195199975Y-111964280D01*
X195203615Y-112247901D01*
X195208330Y-112470298D01*
X195213899Y-112618589D01*
X195220103Y-112679891D01*
X195220972Y-112680799D01*
X195275706Y-112656671D01*
X195381115Y-112596846D01*
X195411472Y-112578400D01*
X195580316Y-112494194D01*
X195807499Y-112406594D01*
X196059140Y-112326018D01*
X196301355Y-112262884D01*
X196500262Y-112227610D01*
X196565394Y-112223600D01*
X196770036Y-112261654D01*
X196880272Y-112327639D01*
X197000200Y-112431679D01*
X196835100Y-112399803D01*
X196710699Y-112393696D01*
X196667758Y-112429799D01*
X196703471Y-112493561D01*
X196815031Y-112570429D01*
X196873435Y-112598602D01*
X197012986Y-112677313D01*
X197113771Y-112764585D01*
X197130871Y-112789260D01*
X197160939Y-112853203D01*
X197140667Y-112862937D01*
X197052138Y-112821483D01*
X197024451Y-112807206D01*
X196880290Y-112756070D01*
X196771098Y-112760138D01*
X196721569Y-112817618D01*
X196720800Y-112829222D01*
X196762249Y-112881900D01*
X196864216Y-112946839D01*
X196886370Y-112957801D01*
X197017399Y-113039466D01*
X197110961Y-113131182D01*
X197114853Y-113137107D01*
X197150099Y-113199497D01*
X197134405Y-113212048D01*
X197050658Y-113177098D01*
X196999573Y-113152870D01*
X196873820Y-113102178D01*
X196799145Y-113103631D01*
X196758391Y-113134698D01*
X196721796Y-113195699D01*
X196756350Y-113223933D01*
X196850865Y-113276576D01*
X196958279Y-113358870D01*
X197044665Y-113442108D01*
X197076400Y-113494694D01*
X197035745Y-113506152D01*
X196934756Y-113479213D01*
X196901317Y-113466061D01*
X196761845Y-113424940D01*
X196700168Y-113444900D01*
X196719061Y-113518503D01*
X196821301Y-113638313D01*
X196832883Y-113649406D01*
X196923206Y-113742837D01*
X196934027Y-113777875D01*
X196898600Y-113770485D01*
X196698594Y-113712018D01*
X196549163Y-113714057D01*
X196415432Y-113782142D01*
X196323054Y-113861907D01*
X196188567Y-113976537D01*
X196003789Y-114116729D01*
X195805120Y-114255066D01*
X195773551Y-114275798D01*
X195631593Y-114368559D01*
X195516455Y-114451143D01*
X195425152Y-114535012D01*
X195354700Y-114631633D01*
X195302113Y-114752468D01*
X195264406Y-114908982D01*
X195238594Y-115112640D01*
X195221692Y-115374905D01*
X195210715Y-115707243D01*
X195202677Y-116121117D01*
X195196800Y-116490800D01*
X195171400Y-118091000D01*
X194835140Y-117608400D01*
X194524021Y-117141922D01*
X194254700Y-116697524D01*
X194037410Y-116292906D01*
X193900418Y-115991387D01*
X193854446Y-115869860D01*
X193819353Y-115751074D01*
X193792779Y-115616850D01*
X193772363Y-115449010D01*
X193755744Y-115229374D01*
X193740562Y-114939765D01*
X193728900Y-114670587D01*
X193710605Y-114277749D01*
X193689644Y-113971366D01*
X193662158Y-113736300D01*
X193624289Y-113557412D01*
X193572178Y-113419564D01*
X193501966Y-113307617D01*
X193409795Y-113206435D01*
X193339213Y-113141840D01*
X193096590Y-112941180D01*
X192892218Y-112806649D01*
X192699233Y-112726386D01*
X192490771Y-112688527D01*
X192295151Y-112680799D01*
X192086748Y-112676917D01*
X191948541Y-112660275D01*
X191849262Y-112623380D01*
X191757645Y-112558742D01*
X191746297Y-112549284D01*
X191624136Y-112407924D01*
X191590000Y-112268614D01*
X191606621Y-112159077D01*
X191677257Y-112105750D01*
X191746766Y-112088106D01*
X191884659Y-112035197D01*
X191936862Y-111960785D01*
X191911987Y-111881177D01*
X191818645Y-111812679D01*
X191665448Y-111771599D01*
X191576867Y-111766400D01*
X191451287Y-111772689D01*
X191403877Y-111801071D01*
X191411511Y-111865815D01*
X191412200Y-111868000D01*
X191418400Y-111951482D01*
X191362213Y-111958284D01*
X191247545Y-111888714D01*
X191200197Y-111851245D01*
X191078979Y-111762224D01*
X190975564Y-111703527D01*
X190967990Y-111700551D01*
X190862480Y-111618801D01*
X190862116Y-111618256D01*
X191209000Y-111618256D01*
X191394336Y-111589394D01*
X191575710Y-111590603D01*
X191755732Y-111664465D01*
X191764805Y-111669764D01*
X191907373Y-111740990D01*
X191976672Y-111742593D01*
X191973723Y-111674259D01*
X191945600Y-111614000D01*
X191906693Y-111525340D01*
X191903384Y-111489595D01*
X191958570Y-111477914D01*
X192087244Y-111460776D01*
X192261704Y-111441864D01*
X192264111Y-111441627D01*
X192453112Y-111427059D01*
X192564463Y-111431503D01*
X192620799Y-111457651D01*
X192638094Y-111486128D01*
X192629629Y-111597223D01*
X192523444Y-111711026D01*
X192323209Y-111823673D01*
X192313900Y-111827832D01*
X192185408Y-111899395D01*
X192108111Y-111970611D01*
X192098000Y-111997377D01*
X192120327Y-112057423D01*
X192193574Y-112059804D01*
X192327137Y-112002154D01*
X192513136Y-111892957D01*
X192677094Y-111778296D01*
X192815290Y-111660399D01*
X192886566Y-111579689D01*
X192943203Y-111482866D01*
X192940326Y-111427738D01*
X192882410Y-111376931D01*
X192759425Y-111333042D01*
X192564114Y-111314356D01*
X192321939Y-111318513D01*
X192058362Y-111343151D01*
X191798845Y-111385909D01*
X191568852Y-111444426D01*
X191396788Y-111514705D01*
X191209000Y-111618256D01*
X190862116Y-111618256D01*
X190765181Y-111473446D01*
X190696482Y-111301748D01*
X190675789Y-111166501D01*
X190663579Y-111062038D01*
X190633873Y-111025357D01*
X190628310Y-111027630D01*
X190564130Y-111019538D01*
X190544001Y-110996959D01*
X190548879Y-110920283D01*
X190594411Y-110864024D01*
X190743320Y-110864024D01*
X190745502Y-110930886D01*
X190779046Y-110981225D01*
X190885143Y-111050333D01*
X191008444Y-111019550D01*
X191015205Y-111015359D01*
X191024968Y-110967377D01*
X190936480Y-110897409D01*
X190927441Y-110892152D01*
X190809893Y-110847555D01*
X190743320Y-110864024D01*
X190594411Y-110864024D01*
X190623649Y-110827898D01*
X190742801Y-110739044D01*
X190880827Y-110672961D01*
X191005573Y-110648800D01*
X191285033Y-110602250D01*
X191562966Y-110471874D01*
X191576933Y-110460553D01*
X191963468Y-110460553D01*
X191968911Y-110493020D01*
X192049017Y-110539962D01*
X192167871Y-110539798D01*
X192275823Y-110495502D01*
X192299353Y-110473225D01*
X192334538Y-110376885D01*
X192283448Y-110309130D01*
X192209301Y-110294815D01*
X192102253Y-110323479D01*
X192009450Y-110387678D01*
X191963468Y-110460553D01*
X191576933Y-110460553D01*
X191810089Y-110271580D01*
X191818600Y-110262649D01*
X191958112Y-110136794D01*
X192098914Y-110044142D01*
X192174200Y-110014326D01*
X192347728Y-109964826D01*
X192519014Y-109885098D01*
X192690313Y-109782152D01*
X192876447Y-109705421D01*
X193152036Y-109653403D01*
X193244933Y-109643502D01*
X193639041Y-109607400D01*
X193694020Y-109378800D01*
X193747730Y-109218646D01*
X193830684Y-109119151D01*
X193926800Y-109061378D01*
X194092950Y-109005235D01*
X194288512Y-108974467D01*
X194342212Y-108972478D01*
X194549322Y-109003067D01*
G36*
X196445004Y-107907593D02*
X197420670Y-107998682D01*
X198411336Y-108143565D01*
X199395370Y-108339254D01*
X200351138Y-108582762D01*
X200981610Y-108776696D01*
X201227510Y-108863261D01*
X201445063Y-108949208D01*
X201612114Y-109025144D01*
X201706506Y-109081673D01*
X201711288Y-109086088D01*
X201759259Y-109153963D01*
X201784326Y-109248889D01*
X201785565Y-109385153D01*
X201762048Y-109577044D01*
X201712851Y-109838852D01*
X201641288Y-110166200D01*
X201293508Y-111475123D01*
X200853958Y-112745830D01*
X200325132Y-113973758D01*
X199709525Y-115154348D01*
X199009632Y-116283036D01*
X198227949Y-117355264D01*
X197366969Y-118366468D01*
X196874108Y-118881368D01*
X196486709Y-119263752D01*
X196161680Y-119570893D01*
X195896010Y-119805321D01*
X195686688Y-119969563D01*
X195530704Y-120066147D01*
X195425400Y-120097600D01*
X195321740Y-120064163D01*
X195168185Y-119972787D01*
X194987184Y-119836868D01*
X194983537Y-119833868D01*
X194548843Y-119451347D01*
X194082846Y-118997523D01*
X193601883Y-118490833D01*
X193122290Y-117949713D01*
X192660401Y-117392600D01*
X192232554Y-116837931D01*
X191855083Y-116304141D01*
X191852233Y-116299888D01*
X191177708Y-115221941D01*
X190596622Y-114137207D01*
X190101363Y-113028334D01*
X189684322Y-111877968D01*
X189337888Y-110668755D01*
X189280803Y-110436689D01*
X189190281Y-110052058D01*
X189124994Y-109752835D01*
X189083640Y-109526355D01*
X189065779Y-109367599D01*
X189379069Y-109367599D01*
X189383176Y-109418767D01*
X189588537Y-110343043D01*
X189810371Y-111188508D01*
X190056124Y-111977551D01*
X190333240Y-112732559D01*
X190649164Y-113475922D01*
X190927271Y-114061971D01*
X191568507Y-115243887D01*
X192295820Y-116371880D01*
X193108826Y-117445379D01*
X193633523Y-118058529D01*
X193833241Y-118275563D01*
X194057301Y-118508717D01*
X194294595Y-118747533D01*
X194534014Y-118981556D01*
X194764452Y-119200326D01*
X194974801Y-119393386D01*
X195153951Y-119550280D01*
X195290796Y-119660549D01*
X195374227Y-119713737D01*
X195393124Y-119715079D01*
X195400155Y-119659291D01*
X195407722Y-119511987D01*
X195415586Y-119283248D01*
X195423506Y-118983153D01*
X195431244Y-118621783D01*
X195438559Y-118209219D01*
X195445214Y-117755542D01*
X195450800Y-117286737D01*
X195457994Y-116680782D01*
X195465813Y-116170472D01*
X195474466Y-115749850D01*
X195484162Y-115412961D01*
X195495110Y-115153851D01*
X195507518Y-114966564D01*
X195521597Y-114845145D01*
X195537555Y-114783638D01*
X195538718Y-114781473D01*
X195611252Y-114701669D01*
X195744274Y-114592859D01*
X195910469Y-114477162D01*
X195929311Y-114465149D01*
X196120890Y-114337888D01*
X196305518Y-114204868D01*
X196440834Y-114096882D01*
X196624281Y-113935813D01*
X196870507Y-114051138D01*
X197051482Y-114121610D01*
X197163946Y-114126542D01*
X197218814Y-114063749D01*
X197228800Y-113979422D01*
X197259917Y-113858794D01*
X197305000Y-113798400D01*
X197363012Y-113702180D01*
X197381200Y-113599139D01*
X197399585Y-113477721D01*
X197433887Y-113410432D01*
X197459812Y-113313639D01*
X197437597Y-113228922D01*
X197415696Y-113099217D01*
X197439184Y-113049535D01*
X197456643Y-112960652D01*
X197410074Y-112808281D01*
X197358019Y-112655605D01*
X197331327Y-112522407D01*
X197330400Y-112502707D01*
X197287761Y-112385387D01*
X197177346Y-112252280D01*
X197025402Y-112126092D01*
X196858179Y-112029530D01*
X196737787Y-111990070D01*
X196536194Y-111981564D01*
X196273860Y-112012990D01*
X195981033Y-112079072D01*
X195694510Y-112172036D01*
X195450800Y-112264638D01*
X195450800Y-111190802D01*
X197209654Y-111190802D01*
X197209889Y-111283740D01*
X197288670Y-111336118D01*
X197451864Y-111349773D01*
X197661124Y-111332336D01*
X197836017Y-111319211D01*
X197928193Y-111332590D01*
X197940000Y-111348807D01*
X197967979Y-111410122D01*
X198043059Y-111532178D01*
X198151949Y-111694014D01*
X198219400Y-111789548D01*
X198498800Y-112178973D01*
X198500405Y-114296786D01*
X198502010Y-116414600D01*
X198752800Y-116129534D01*
X198752800Y-112128325D01*
X198415913Y-111629862D01*
X198277140Y-111430035D01*
X198152411Y-111260445D01*
X198055885Y-111139715D01*
X198003510Y-111087416D01*
X197907497Y-111065814D01*
X197761888Y-111066407D01*
X197718097Y-111071068D01*
X197508200Y-111098704D01*
X197628127Y-111000752D01*
X197755795Y-110928667D01*
X197869427Y-110902800D01*
X197966119Y-110876621D01*
X197990800Y-110801200D01*
X197952352Y-110718932D01*
X197840188Y-110701942D01*
X197663907Y-110749142D01*
X197570044Y-110772029D01*
X197533600Y-110757142D01*
X197575841Y-110710418D01*
X197681710Y-110644608D01*
X197819921Y-110576879D01*
X197955919Y-110525396D01*
X198028591Y-110484745D01*
X198018360Y-110443924D01*
X197943304Y-110413980D01*
X197821500Y-110405960D01*
X197768313Y-110410747D01*
X197559000Y-110438304D01*
X197678927Y-110340352D01*
X197818854Y-110267365D01*
X197949861Y-110242400D01*
X198058514Y-110225613D01*
X198082464Y-110185654D01*
X198030919Y-110138125D01*
X197913086Y-110098628D01*
X197859829Y-110089836D01*
X197751605Y-110065586D01*
X197733128Y-110037216D01*
X197793071Y-110010906D01*
X197920104Y-109992837D01*
X198045754Y-109988400D01*
X198190207Y-109973243D01*
X198244098Y-109926197D01*
X198244800Y-109917635D01*
X198198533Y-109837957D01*
X198071595Y-109792078D01*
X197973945Y-109784422D01*
X197902159Y-109776324D01*
X197923230Y-109745682D01*
X197940000Y-109734400D01*
X198096790Y-109687482D01*
X198307474Y-109717267D01*
X198577099Y-109824567D01*
X198613616Y-109842671D01*
X198847145Y-109977166D01*
X199091203Y-110145561D01*
X199323915Y-110329859D01*
X199523408Y-110512062D01*
X199667807Y-110674175D01*
X199716928Y-110750400D01*
X199763187Y-110862652D01*
X199828265Y-111050184D01*
X199904711Y-111290130D01*
X199985068Y-111559624D01*
X200015017Y-111664800D01*
X200096630Y-111950669D01*
X200177791Y-112226722D01*
X200250517Y-112466337D01*
X200306820Y-112642888D01*
X200319743Y-112680800D01*
X200417584Y-112960200D01*
X200528793Y-112706200D01*
X200652671Y-112396030D01*
X200788360Y-112009603D01*
X200928934Y-111570518D01*
X201067467Y-111102373D01*
X201197032Y-110628769D01*
X201310703Y-110173305D01*
X201401554Y-109759580D01*
X201417443Y-109678331D01*
X201450450Y-109474323D01*
X201454577Y-109349952D01*
X201430224Y-109287564D01*
X201426380Y-109284169D01*
X201330895Y-109234389D01*
X201153330Y-109166589D01*
X200910638Y-109085441D01*
X200619771Y-108995619D01*
X200297685Y-108901794D01*
X199961330Y-108808639D01*
X199627662Y-108720826D01*
X199313632Y-108643028D01*
X199036195Y-108579918D01*
X198812303Y-108536167D01*
X198658909Y-108516449D01*
X198638500Y-108515802D01*
X198498800Y-108515200D01*
X198498800Y-109478456D01*
X198282900Y-109450760D01*
X198082673Y-109459535D01*
X197873182Y-109522746D01*
X197689441Y-109624938D01*
X197566469Y-109750658D01*
X197554662Y-109772150D01*
X197474426Y-109902765D01*
X197408628Y-109986158D01*
X197348994Y-110095744D01*
X197350515Y-110170746D01*
X197348873Y-110278527D01*
X197322256Y-110328412D01*
X197289907Y-110414637D01*
X197265009Y-110568040D01*
X197253557Y-110741073D01*
X197244126Y-110933795D01*
X197227496Y-111098738D01*
X197209654Y-111190802D01*
X195450800Y-111190802D01*
X195450800Y-108194493D01*
X194676100Y-108227055D01*
X193470863Y-108316195D01*
X192309423Y-108482943D01*
X191164642Y-108732167D01*
X190040600Y-109058570D01*
X189769674Y-109148221D01*
X189582051Y-109216282D01*
X189463739Y-109270421D01*
X189400742Y-109318304D01*
X189379069Y-109367599D01*
X189065779Y-109367599D01*
X189064918Y-109359952D01*
X189067527Y-109240961D01*
X189090167Y-109156717D01*
X189131537Y-109094553D01*
X189141843Y-109083756D01*
X189244465Y-109018291D01*
X189431888Y-108935562D01*
X189689635Y-108839884D01*
X190003224Y-108735574D01*
X190358178Y-108626948D01*
X190740015Y-108518321D01*
X191134258Y-108414010D01*
X191526425Y-108318331D01*
X191902039Y-108235600D01*
X192148800Y-108187441D01*
X192918177Y-108065758D01*
X193764281Y-107968371D01*
X194625208Y-107898749D01*
X195505973Y-107873286D01*
X196445004Y-107907593D01*
X196445004Y-107907593D01*
G37*
X196445004Y-107907593D02*
X197420670Y-107998682D01*
X198411336Y-108143565D01*
X199395370Y-108339254D01*
X200351138Y-108582762D01*
X200981610Y-108776696D01*
X201227510Y-108863261D01*
X201445063Y-108949208D01*
X201612114Y-109025144D01*
X201706506Y-109081673D01*
X201711288Y-109086088D01*
X201759259Y-109153963D01*
X201784326Y-109248889D01*
X201785565Y-109385153D01*
X201762048Y-109577044D01*
X201712851Y-109838852D01*
X201641288Y-110166200D01*
X201293508Y-111475123D01*
X200853958Y-112745830D01*
X200325132Y-113973758D01*
X199709525Y-115154348D01*
X199009632Y-116283036D01*
X198227949Y-117355264D01*
X197366969Y-118366468D01*
X196874108Y-118881368D01*
X196486709Y-119263752D01*
X196161680Y-119570893D01*
X195896010Y-119805321D01*
X195686688Y-119969563D01*
X195530704Y-120066147D01*
X195425400Y-120097600D01*
X195321740Y-120064163D01*
X195168185Y-119972787D01*
X194987184Y-119836868D01*
X194983537Y-119833868D01*
X194548843Y-119451347D01*
X194082846Y-118997523D01*
X193601883Y-118490833D01*
X193122290Y-117949713D01*
X192660401Y-117392600D01*
X192232554Y-116837931D01*
X191855083Y-116304141D01*
X191852233Y-116299888D01*
X191177708Y-115221941D01*
X190596622Y-114137207D01*
X190101363Y-113028334D01*
X189684322Y-111877968D01*
X189337888Y-110668755D01*
X189280803Y-110436689D01*
X189190281Y-110052058D01*
X189124994Y-109752835D01*
X189083640Y-109526355D01*
X189065779Y-109367599D01*
X189379069Y-109367599D01*
X189383176Y-109418767D01*
X189588537Y-110343043D01*
X189810371Y-111188508D01*
X190056124Y-111977551D01*
X190333240Y-112732559D01*
X190649164Y-113475922D01*
X190927271Y-114061971D01*
X191568507Y-115243887D01*
X192295820Y-116371880D01*
X193108826Y-117445379D01*
X193633523Y-118058529D01*
X193833241Y-118275563D01*
X194057301Y-118508717D01*
X194294595Y-118747533D01*
X194534014Y-118981556D01*
X194764452Y-119200326D01*
X194974801Y-119393386D01*
X195153951Y-119550280D01*
X195290796Y-119660549D01*
X195374227Y-119713737D01*
X195393124Y-119715079D01*
X195400155Y-119659291D01*
X195407722Y-119511987D01*
X195415586Y-119283248D01*
X195423506Y-118983153D01*
X195431244Y-118621783D01*
X195438559Y-118209219D01*
X195445214Y-117755542D01*
X195450800Y-117286737D01*
X195457994Y-116680782D01*
X195465813Y-116170472D01*
X195474466Y-115749850D01*
X195484162Y-115412961D01*
X195495110Y-115153851D01*
X195507518Y-114966564D01*
X195521597Y-114845145D01*
X195537555Y-114783638D01*
X195538718Y-114781473D01*
X195611252Y-114701669D01*
X195744274Y-114592859D01*
X195910469Y-114477162D01*
X195929311Y-114465149D01*
X196120890Y-114337888D01*
X196305518Y-114204868D01*
X196440834Y-114096882D01*
X196624281Y-113935813D01*
X196870507Y-114051138D01*
X197051482Y-114121610D01*
X197163946Y-114126542D01*
X197218814Y-114063749D01*
X197228800Y-113979422D01*
X197259917Y-113858794D01*
X197305000Y-113798400D01*
X197363012Y-113702180D01*
X197381200Y-113599139D01*
X197399585Y-113477721D01*
X197433887Y-113410432D01*
X197459812Y-113313639D01*
X197437597Y-113228922D01*
X197415696Y-113099217D01*
X197439184Y-113049535D01*
X197456643Y-112960652D01*
X197410074Y-112808281D01*
X197358019Y-112655605D01*
X197331327Y-112522407D01*
X197330400Y-112502707D01*
X197287761Y-112385387D01*
X197177346Y-112252280D01*
X197025402Y-112126092D01*
X196858179Y-112029530D01*
X196737787Y-111990070D01*
X196536194Y-111981564D01*
X196273860Y-112012990D01*
X195981033Y-112079072D01*
X195694510Y-112172036D01*
X195450800Y-112264638D01*
X195450800Y-111190802D01*
X197209654Y-111190802D01*
X197209889Y-111283740D01*
X197288670Y-111336118D01*
X197451864Y-111349773D01*
X197661124Y-111332336D01*
X197836017Y-111319211D01*
X197928193Y-111332590D01*
X197940000Y-111348807D01*
X197967979Y-111410122D01*
X198043059Y-111532178D01*
X198151949Y-111694014D01*
X198219400Y-111789548D01*
X198498800Y-112178973D01*
X198500405Y-114296786D01*
X198502010Y-116414600D01*
X198752800Y-116129534D01*
X198752800Y-112128325D01*
X198415913Y-111629862D01*
X198277140Y-111430035D01*
X198152411Y-111260445D01*
X198055885Y-111139715D01*
X198003510Y-111087416D01*
X197907497Y-111065814D01*
X197761888Y-111066407D01*
X197718097Y-111071068D01*
X197508200Y-111098704D01*
X197628127Y-111000752D01*
X197755795Y-110928667D01*
X197869427Y-110902800D01*
X197966119Y-110876621D01*
X197990800Y-110801200D01*
X197952352Y-110718932D01*
X197840188Y-110701942D01*
X197663907Y-110749142D01*
X197570044Y-110772029D01*
X197533600Y-110757142D01*
X197575841Y-110710418D01*
X197681710Y-110644608D01*
X197819921Y-110576879D01*
X197955919Y-110525396D01*
X198028591Y-110484745D01*
X198018360Y-110443924D01*
X197943304Y-110413980D01*
X197821500Y-110405960D01*
X197768313Y-110410747D01*
X197559000Y-110438304D01*
X197678927Y-110340352D01*
X197818854Y-110267365D01*
X197949861Y-110242400D01*
X198058514Y-110225613D01*
X198082464Y-110185654D01*
X198030919Y-110138125D01*
X197913086Y-110098628D01*
X197859829Y-110089836D01*
X197751605Y-110065586D01*
X197733128Y-110037216D01*
X197793071Y-110010906D01*
X197920104Y-109992837D01*
X198045754Y-109988400D01*
X198190207Y-109973243D01*
X198244098Y-109926197D01*
X198244800Y-109917635D01*
X198198533Y-109837957D01*
X198071595Y-109792078D01*
X197973945Y-109784422D01*
X197902159Y-109776324D01*
X197923230Y-109745682D01*
X197940000Y-109734400D01*
X198096790Y-109687482D01*
X198307474Y-109717267D01*
X198577099Y-109824567D01*
X198613616Y-109842671D01*
X198847145Y-109977166D01*
X199091203Y-110145561D01*
X199323915Y-110329859D01*
X199523408Y-110512062D01*
X199667807Y-110674175D01*
X199716928Y-110750400D01*
X199763187Y-110862652D01*
X199828265Y-111050184D01*
X199904711Y-111290130D01*
X199985068Y-111559624D01*
X200015017Y-111664800D01*
X200096630Y-111950669D01*
X200177791Y-112226722D01*
X200250517Y-112466337D01*
X200306820Y-112642888D01*
X200319743Y-112680800D01*
X200417584Y-112960200D01*
X200528793Y-112706200D01*
X200652671Y-112396030D01*
X200788360Y-112009603D01*
X200928934Y-111570518D01*
X201067467Y-111102373D01*
X201197032Y-110628769D01*
X201310703Y-110173305D01*
X201401554Y-109759580D01*
X201417443Y-109678331D01*
X201450450Y-109474323D01*
X201454577Y-109349952D01*
X201430224Y-109287564D01*
X201426380Y-109284169D01*
X201330895Y-109234389D01*
X201153330Y-109166589D01*
X200910638Y-109085441D01*
X200619771Y-108995619D01*
X200297685Y-108901794D01*
X199961330Y-108808639D01*
X199627662Y-108720826D01*
X199313632Y-108643028D01*
X199036195Y-108579918D01*
X198812303Y-108536167D01*
X198658909Y-108516449D01*
X198638500Y-108515802D01*
X198498800Y-108515200D01*
X198498800Y-109478456D01*
X198282900Y-109450760D01*
X198082673Y-109459535D01*
X197873182Y-109522746D01*
X197689441Y-109624938D01*
X197566469Y-109750658D01*
X197554662Y-109772150D01*
X197474426Y-109902765D01*
X197408628Y-109986158D01*
X197348994Y-110095744D01*
X197350515Y-110170746D01*
X197348873Y-110278527D01*
X197322256Y-110328412D01*
X197289907Y-110414637D01*
X197265009Y-110568040D01*
X197253557Y-110741073D01*
X197244126Y-110933795D01*
X197227496Y-111098738D01*
X197209654Y-111190802D01*
X195450800Y-111190802D01*
X195450800Y-108194493D01*
X194676100Y-108227055D01*
X193470863Y-108316195D01*
X192309423Y-108482943D01*
X191164642Y-108732167D01*
X190040600Y-109058570D01*
X189769674Y-109148221D01*
X189582051Y-109216282D01*
X189463739Y-109270421D01*
X189400742Y-109318304D01*
X189379069Y-109367599D01*
X189065779Y-109367599D01*
X189064918Y-109359952D01*
X189067527Y-109240961D01*
X189090167Y-109156717D01*
X189131537Y-109094553D01*
X189141843Y-109083756D01*
X189244465Y-109018291D01*
X189431888Y-108935562D01*
X189689635Y-108839884D01*
X190003224Y-108735574D01*
X190358178Y-108626948D01*
X190740015Y-108518321D01*
X191134258Y-108414010D01*
X191526425Y-108318331D01*
X191902039Y-108235600D01*
X192148800Y-108187441D01*
X192918177Y-108065758D01*
X193764281Y-107968371D01*
X194625208Y-107898749D01*
X195505973Y-107873286D01*
X196445004Y-107907593D01*
D13*
G04 #@! TO.C,R202*
X142777600Y-119439600D02*
X142777600Y-120760400D01*
X145622400Y-119439600D02*
X142777600Y-119439600D01*
X145622400Y-120760400D02*
X145622400Y-119439600D01*
X142777600Y-120760400D02*
X145622400Y-120760400D01*
D14*
X144657200Y-119617400D02*
X144657200Y-120582600D01*
X144657200Y-120582600D02*
X145038200Y-120582600D01*
X145038200Y-119617400D02*
X144657200Y-119617400D01*
X143742800Y-120582600D02*
X143742800Y-119617400D01*
X143742800Y-119617400D02*
X143361800Y-119617400D01*
X143361800Y-120582600D02*
X143742800Y-120582600D01*
X144657200Y-119617400D02*
X143742800Y-119617400D01*
X143361800Y-119617400D02*
X143361800Y-120582600D01*
X143742800Y-120582600D02*
X144657200Y-120582600D01*
X145038200Y-120582600D02*
X145038200Y-119617400D01*
D13*
G04 #@! TO.C,R201*
X145622400Y-118860400D02*
X145622400Y-117539600D01*
X142777600Y-118860400D02*
X145622400Y-118860400D01*
X142777600Y-117539600D02*
X142777600Y-118860400D01*
X145622400Y-117539600D02*
X142777600Y-117539600D01*
D14*
X143742800Y-118682600D02*
X143742800Y-117717400D01*
X143742800Y-117717400D02*
X143361800Y-117717400D01*
X143361800Y-118682600D02*
X143742800Y-118682600D01*
X144657200Y-117717400D02*
X144657200Y-118682600D01*
X144657200Y-118682600D02*
X145038200Y-118682600D01*
X145038200Y-117717400D02*
X144657200Y-117717400D01*
X143742800Y-118682600D02*
X144657200Y-118682600D01*
X145038200Y-118682600D02*
X145038200Y-117717400D01*
X144657200Y-117717400D02*
X143742800Y-117717400D01*
X143361800Y-117717400D02*
X143361800Y-118682600D01*
D15*
G04 #@! TO.C,D201*
X191599440Y-126250420D02*
X190400560Y-126250420D01*
X190400560Y-126250420D02*
X191000000Y-127149580D01*
X191000000Y-127149580D02*
X191599440Y-126250420D01*
X191599440Y-127149580D02*
X190400560Y-127149580D01*
D13*
G04 #@! TO.C,C301*
X137022400Y-130210400D02*
X137022400Y-128889600D01*
X134177600Y-130210400D02*
X137022400Y-130210400D01*
X134177600Y-128889600D02*
X134177600Y-130210400D01*
X137022400Y-128889600D02*
X134177600Y-128889600D01*
D14*
X135142800Y-130032600D02*
X135142800Y-129067400D01*
X135142800Y-129067400D02*
X134761800Y-129067400D01*
X134761800Y-130032600D02*
X135142800Y-130032600D01*
X136057200Y-129067400D02*
X136057200Y-130032600D01*
X136057200Y-130032600D02*
X136438200Y-130032600D01*
X136438200Y-129067400D02*
X136057200Y-129067400D01*
X135142800Y-130032600D02*
X136057200Y-130032600D01*
X136438200Y-130032600D02*
X136438200Y-129067400D01*
X136057200Y-129067400D02*
X135142800Y-129067400D01*
X134761800Y-129067400D02*
X134761800Y-130032600D01*
D11*
G04 #@! TO.C,U302*
X132951280Y-111098720D02*
X132951280Y-110499280D01*
X133550720Y-111098720D02*
X132951280Y-111098720D01*
X132951280Y-101700720D02*
X132951280Y-101101280D01*
X142948720Y-101700720D02*
X142948720Y-101101280D01*
X142948720Y-111098720D02*
X142948720Y-110499280D01*
X142948720Y-101101280D02*
X142349280Y-101101280D01*
X133550720Y-101101280D02*
X132951280Y-101101280D01*
X142948720Y-111098720D02*
X142349280Y-111098720D01*
X143347500Y-101700720D02*
X143347500Y-100702500D01*
X143347500Y-100702500D02*
X142349280Y-100702500D01*
D13*
G04 #@! TO.C,C205*
X142222400Y-133860400D02*
X142222400Y-132539600D01*
X139377600Y-133860400D02*
X142222400Y-133860400D01*
X139377600Y-132539600D02*
X139377600Y-133860400D01*
X142222400Y-132539600D02*
X139377600Y-132539600D01*
D14*
X140342800Y-133682600D02*
X140342800Y-132717400D01*
X140342800Y-132717400D02*
X139961800Y-132717400D01*
X139961800Y-133682600D02*
X140342800Y-133682600D01*
X141257200Y-132717400D02*
X141257200Y-133682600D01*
X141257200Y-133682600D02*
X141638200Y-133682600D01*
X141638200Y-132717400D02*
X141257200Y-132717400D01*
X140342800Y-133682600D02*
X141257200Y-133682600D01*
X141638200Y-133682600D02*
X141638200Y-132717400D01*
X141257200Y-132717400D02*
X140342800Y-132717400D01*
X139961800Y-132717400D02*
X139961800Y-133682600D01*
G04 #@! TO.C,C302*
X145761800Y-105217400D02*
X145761800Y-106182600D01*
X147057200Y-105217400D02*
X146142800Y-105217400D01*
X147438200Y-106182600D02*
X147438200Y-105217400D01*
X146142800Y-106182600D02*
X147057200Y-106182600D01*
X147438200Y-105217400D02*
X147057200Y-105217400D01*
X147057200Y-106182600D02*
X147438200Y-106182600D01*
X147057200Y-105217400D02*
X147057200Y-106182600D01*
X145761800Y-106182600D02*
X146142800Y-106182600D01*
X146142800Y-105217400D02*
X145761800Y-105217400D01*
X146142800Y-106182600D02*
X146142800Y-105217400D01*
D13*
X148022400Y-105039600D02*
X145177600Y-105039600D01*
X145177600Y-105039600D02*
X145177600Y-106360400D01*
X145177600Y-106360400D02*
X148022400Y-106360400D01*
X148022400Y-106360400D02*
X148022400Y-105039600D01*
G04 #@! TO.C,C303*
X148022400Y-108760400D02*
X148022400Y-107439600D01*
X145177600Y-108760400D02*
X148022400Y-108760400D01*
X145177600Y-107439600D02*
X145177600Y-108760400D01*
X148022400Y-107439600D02*
X145177600Y-107439600D01*
D14*
X146142800Y-108582600D02*
X146142800Y-107617400D01*
X146142800Y-107617400D02*
X145761800Y-107617400D01*
X145761800Y-108582600D02*
X146142800Y-108582600D01*
X147057200Y-107617400D02*
X147057200Y-108582600D01*
X147057200Y-108582600D02*
X147438200Y-108582600D01*
X147438200Y-107617400D02*
X147057200Y-107617400D01*
X146142800Y-108582600D02*
X147057200Y-108582600D01*
X147438200Y-108582600D02*
X147438200Y-107617400D01*
X147057200Y-107617400D02*
X146142800Y-107617400D01*
X145761800Y-107617400D02*
X145761800Y-108582600D01*
D13*
G04 #@! TO.C,C304*
X136260400Y-95877600D02*
X134939600Y-95877600D01*
X136260400Y-98722400D02*
X136260400Y-95877600D01*
X134939600Y-98722400D02*
X136260400Y-98722400D01*
X134939600Y-95877600D02*
X134939600Y-98722400D01*
D14*
X136082600Y-97757200D02*
X135117400Y-97757200D01*
X135117400Y-97757200D02*
X135117400Y-98138200D01*
X136082600Y-98138200D02*
X136082600Y-97757200D01*
X135117400Y-96842800D02*
X136082600Y-96842800D01*
X136082600Y-96842800D02*
X136082600Y-96461800D01*
X135117400Y-96461800D02*
X135117400Y-96842800D01*
X136082600Y-97757200D02*
X136082600Y-96842800D01*
X136082600Y-96461800D02*
X135117400Y-96461800D01*
X135117400Y-96842800D02*
X135117400Y-97757200D01*
X135117400Y-98138200D02*
X136082600Y-98138200D01*
D13*
G04 #@! TO.C,C305*
X131139600Y-113422400D02*
X132460400Y-113422400D01*
X131139600Y-110577600D02*
X131139600Y-113422400D01*
X132460400Y-110577600D02*
X131139600Y-110577600D01*
X132460400Y-113422400D02*
X132460400Y-110577600D01*
D14*
X131317400Y-111542800D02*
X132282600Y-111542800D01*
X132282600Y-111542800D02*
X132282600Y-111161800D01*
X131317400Y-111161800D02*
X131317400Y-111542800D01*
X132282600Y-112457200D02*
X131317400Y-112457200D01*
X131317400Y-112457200D02*
X131317400Y-112838200D01*
X132282600Y-112838200D02*
X132282600Y-112457200D01*
X131317400Y-111542800D02*
X131317400Y-112457200D01*
X131317400Y-112838200D02*
X132282600Y-112838200D01*
X132282600Y-112457200D02*
X132282600Y-111542800D01*
X132282600Y-111161800D02*
X131317400Y-111161800D01*
G04 #@! TO.C,C306*
X139182600Y-114561800D02*
X138217400Y-114561800D01*
X139182600Y-115857200D02*
X139182600Y-114942800D01*
X138217400Y-116238200D02*
X139182600Y-116238200D01*
X138217400Y-114942800D02*
X138217400Y-115857200D01*
X139182600Y-116238200D02*
X139182600Y-115857200D01*
X138217400Y-115857200D02*
X138217400Y-116238200D01*
X139182600Y-115857200D02*
X138217400Y-115857200D01*
X138217400Y-114561800D02*
X138217400Y-114942800D01*
X139182600Y-114942800D02*
X139182600Y-114561800D01*
X138217400Y-114942800D02*
X139182600Y-114942800D01*
D13*
X139360400Y-116822400D02*
X139360400Y-113977600D01*
X139360400Y-113977600D02*
X138039600Y-113977600D01*
X138039600Y-113977600D02*
X138039600Y-116822400D01*
X138039600Y-116822400D02*
X139360400Y-116822400D01*
D14*
G04 #@! TO.C,C307*
X129817400Y-100238200D02*
X130782600Y-100238200D01*
X129817400Y-98942800D02*
X129817400Y-99857200D01*
X130782600Y-98561800D02*
X129817400Y-98561800D01*
X130782600Y-99857200D02*
X130782600Y-98942800D01*
X129817400Y-98561800D02*
X129817400Y-98942800D01*
X130782600Y-98942800D02*
X130782600Y-98561800D01*
X129817400Y-98942800D02*
X130782600Y-98942800D01*
X130782600Y-100238200D02*
X130782600Y-99857200D01*
X129817400Y-99857200D02*
X129817400Y-100238200D01*
X130782600Y-99857200D02*
X129817400Y-99857200D01*
D13*
X129639600Y-97977600D02*
X129639600Y-100822400D01*
X129639600Y-100822400D02*
X130960400Y-100822400D01*
X130960400Y-100822400D02*
X130960400Y-97977600D01*
X130960400Y-97977600D02*
X129639600Y-97977600D01*
G04 #@! TO.C,C308*
X134022400Y-118860400D02*
X134022400Y-117539600D01*
X131177600Y-118860400D02*
X134022400Y-118860400D01*
X131177600Y-117539600D02*
X131177600Y-118860400D01*
X134022400Y-117539600D02*
X131177600Y-117539600D01*
D14*
X132142800Y-118682600D02*
X132142800Y-117717400D01*
X132142800Y-117717400D02*
X131761800Y-117717400D01*
X131761800Y-118682600D02*
X132142800Y-118682600D01*
X133057200Y-117717400D02*
X133057200Y-118682600D01*
X133057200Y-118682600D02*
X133438200Y-118682600D01*
X133438200Y-117717400D02*
X133057200Y-117717400D01*
X132142800Y-118682600D02*
X133057200Y-118682600D01*
X133438200Y-118682600D02*
X133438200Y-117717400D01*
X133057200Y-117717400D02*
X132142800Y-117717400D01*
X131761800Y-117717400D02*
X131761800Y-118682600D01*
D15*
G04 #@! TO.C,F201*
X189199160Y-126401500D02*
X189199160Y-127798500D01*
X187400840Y-126401500D02*
X187400840Y-127798500D01*
D16*
G04 #@! TO.C,X301*
X131740016Y-114001400D02*
X131940676Y-113800740D01*
X131940676Y-113800740D02*
X136736196Y-113800740D01*
X136736196Y-113800740D02*
X136936856Y-114001400D01*
X137035916Y-116998600D02*
X136837796Y-117199260D01*
X136837796Y-117199260D02*
X131940676Y-117199260D01*
X131940676Y-117199260D02*
X131740016Y-116998600D01*
D13*
G04 #@! TO.C,C201*
X179889600Y-137572400D02*
X181210400Y-137572400D01*
X179889600Y-134727600D02*
X179889600Y-137572400D01*
X181210400Y-134727600D02*
X179889600Y-134727600D01*
X181210400Y-137572400D02*
X181210400Y-134727600D01*
D14*
X180067400Y-135692800D02*
X181032600Y-135692800D01*
X181032600Y-135692800D02*
X181032600Y-135311800D01*
X180067400Y-135311800D02*
X180067400Y-135692800D01*
X181032600Y-136607200D02*
X180067400Y-136607200D01*
X180067400Y-136607200D02*
X180067400Y-136988200D01*
X181032600Y-136988200D02*
X181032600Y-136607200D01*
X180067400Y-135692800D02*
X180067400Y-136607200D01*
X180067400Y-136988200D02*
X181032600Y-136988200D01*
X181032600Y-136607200D02*
X181032600Y-135692800D01*
X181032600Y-135311800D02*
X180067400Y-135311800D01*
D13*
G04 #@! TO.C,C309*
X134777600Y-117539600D02*
X134777600Y-118860400D01*
X137622400Y-117539600D02*
X134777600Y-117539600D01*
X137622400Y-118860400D02*
X137622400Y-117539600D01*
X134777600Y-118860400D02*
X137622400Y-118860400D01*
D14*
X136657200Y-117717400D02*
X136657200Y-118682600D01*
X136657200Y-118682600D02*
X137038200Y-118682600D01*
X137038200Y-117717400D02*
X136657200Y-117717400D01*
X135742800Y-118682600D02*
X135742800Y-117717400D01*
X135742800Y-117717400D02*
X135361800Y-117717400D01*
X135361800Y-118682600D02*
X135742800Y-118682600D01*
X136657200Y-117717400D02*
X135742800Y-117717400D01*
X135361800Y-117717400D02*
X135361800Y-118682600D01*
X135742800Y-118682600D02*
X136657200Y-118682600D01*
X137038200Y-118682600D02*
X137038200Y-117717400D01*
D15*
G04 #@! TO.C,J301*
X133784000Y-121352000D02*
X135816000Y-121352000D01*
X133784000Y-127448000D02*
X135816000Y-127448000D01*
D13*
G04 #@! TO.C,C204*
X163900000Y-132900000D02*
X155700000Y-132900000D01*
X155700000Y-137500000D02*
X163900000Y-137500000D01*
X163900000Y-137500000D02*
X163900000Y-136900000D01*
X163700000Y-137500000D02*
X163700000Y-136900000D01*
X163500000Y-136900000D02*
X163500000Y-137500000D01*
X163900000Y-132900000D02*
X163900000Y-133500000D01*
X163700000Y-133500000D02*
X163700000Y-132900000D01*
X163500000Y-132900000D02*
X163500000Y-133500000D01*
X155700000Y-132900000D02*
X155700000Y-133500000D01*
X155700000Y-137500000D02*
X155700000Y-136900000D01*
X163500000Y-136900000D02*
X163900000Y-136900000D01*
X163900000Y-133500000D02*
X163500000Y-133500000D01*
D17*
G04 #@! TO.C,J102*
X146839616Y-54200000D02*
G75*
G03X146839616Y-54200000I-2539616J0D01*
G01*
X145338476Y-72297500D02*
G75*
G03X145338476Y-72297500I-2539616J0D01*
G01*
X195737156Y-72297500D02*
G75*
G03X195737156Y-72297500I-2539616J0D01*
G01*
X194236016Y-54200000D02*
G75*
G03X194236016Y-54200000I-2539616J0D01*
G01*
G04 #@! TO.C,J101*
X185956315Y-130297500D02*
G75*
G03X185956315Y-130297500I-2758735J0D01*
G01*
X184455175Y-112200000D02*
G75*
G03X184455175Y-112200000I-2758735J0D01*
G01*
X157058735Y-112200000D02*
G75*
G03X157058735Y-112200000I-2758735J0D01*
G01*
X155557595Y-130297500D02*
G75*
G03X155557595Y-130297500I-2758735J0D01*
G01*
D13*
G04 #@! TO.C,L201*
X165100000Y-137000000D02*
X165100000Y-133000000D01*
X169300000Y-137000000D02*
X169300000Y-133000000D01*
X169300000Y-137000000D02*
X169000000Y-137000000D01*
X169300000Y-133000000D02*
X169000000Y-133000000D01*
X165100000Y-133000000D02*
X165400000Y-133000000D01*
X165400000Y-137000000D02*
X165100000Y-137000000D01*
D15*
G04 #@! TO.C,D203*
X195148220Y-125101780D02*
X193151780Y-125101780D01*
X193151780Y-125101780D02*
X194150000Y-126699440D01*
X194150000Y-126699440D02*
X195148220Y-125101780D01*
X195148220Y-126699440D02*
X195148220Y-126897560D01*
X195148220Y-126897560D02*
X193151780Y-126897560D01*
X193151780Y-126897560D02*
X193151780Y-127098220D01*
X192250080Y-123801300D02*
X192250080Y-128299640D01*
X192250080Y-128299640D02*
X192651400Y-128299640D01*
X192250080Y-123801300D02*
X192651400Y-123801300D01*
X195648600Y-123801300D02*
X196049920Y-123801300D01*
X196049920Y-123801300D02*
X196049920Y-128299640D01*
X196049920Y-128299640D02*
X195648600Y-128299640D01*
G04 #@! TO.C,D204*
X177749580Y-132599440D02*
X177749580Y-131400560D01*
X177749580Y-131400560D02*
X176850420Y-132000000D01*
X176850420Y-132000000D02*
X177749580Y-132599440D01*
X176850420Y-132599440D02*
X176850420Y-131400560D01*
D18*
G04 #@! TO.C,CP401*
X176670000Y-51100000D02*
X180270000Y-51100000D01*
X180270000Y-51100000D02*
X180270000Y-55500000D01*
X180270000Y-55500000D02*
X176670000Y-55500000D01*
X176670000Y-55500000D02*
X176670000Y-51100000D01*
X177718378Y-54760000D02*
G75*
G03X177718378Y-54760000I-338378J0D01*
G01*
D15*
G04 #@! TO.C,D101*
X169500560Y-53350420D02*
X170699440Y-53350420D01*
X170100000Y-53350420D02*
X169500560Y-54249580D01*
X170699440Y-54249580D02*
X170100000Y-53350420D01*
X169500560Y-54249580D02*
X170699440Y-54249580D01*
G04 #@! TO.C,D102*
X173500560Y-54249580D02*
X174699440Y-54249580D01*
X174699440Y-54249580D02*
X174100000Y-53350420D01*
X174100000Y-53350420D02*
X173500560Y-54249580D01*
X173500560Y-53350420D02*
X174699440Y-53350420D01*
D14*
G04 #@! TO.C,R101*
X170838200Y-58782600D02*
X170838200Y-57817400D01*
X169542800Y-58782600D02*
X170457200Y-58782600D01*
X169161800Y-57817400D02*
X169161800Y-58782600D01*
X170457200Y-57817400D02*
X169542800Y-57817400D01*
X169161800Y-58782600D02*
X169542800Y-58782600D01*
X169542800Y-57817400D02*
X169161800Y-57817400D01*
X169542800Y-58782600D02*
X169542800Y-57817400D01*
X170838200Y-57817400D02*
X170457200Y-57817400D01*
X170457200Y-58782600D02*
X170838200Y-58782600D01*
X170457200Y-57817400D02*
X170457200Y-58782600D01*
D13*
X168577600Y-58960400D02*
X171422400Y-58960400D01*
X171422400Y-58960400D02*
X171422400Y-57639600D01*
X171422400Y-57639600D02*
X168577600Y-57639600D01*
X168577600Y-57639600D02*
X168577600Y-58960400D01*
G04 #@! TO.C,R102*
X172577600Y-57639600D02*
X172577600Y-58960400D01*
X175422400Y-57639600D02*
X172577600Y-57639600D01*
X175422400Y-58960400D02*
X175422400Y-57639600D01*
X172577600Y-58960400D02*
X175422400Y-58960400D01*
D14*
X174457200Y-57817400D02*
X174457200Y-58782600D01*
X174457200Y-58782600D02*
X174838200Y-58782600D01*
X174838200Y-57817400D02*
X174457200Y-57817400D01*
X173542800Y-58782600D02*
X173542800Y-57817400D01*
X173542800Y-57817400D02*
X173161800Y-57817400D01*
X173161800Y-58782600D02*
X173542800Y-58782600D01*
X174457200Y-57817400D02*
X173542800Y-57817400D01*
X173161800Y-57817400D02*
X173161800Y-58782600D01*
X173542800Y-58782600D02*
X174457200Y-58782600D01*
X174838200Y-58782600D02*
X174838200Y-57817400D01*
D15*
G04 #@! TO.C,U301*
X137990000Y-136405000D02*
X132910000Y-136405000D01*
X132910000Y-136405000D02*
X132910000Y-132595000D01*
X132910000Y-132595000D02*
X137990000Y-132595000D01*
X137990000Y-132595000D02*
X137990000Y-136405000D01*
D19*
X137606447Y-133865000D02*
G75*
G03X137606447Y-133865000I-251447J0D01*
G01*
G04 #@! TO.C,VR201*
X175676057Y-133976856D02*
G75*
G03X175676057Y-133976856I-251447J0D01*
G01*
D15*
X174154610Y-133341856D02*
X177964610Y-133341856D01*
X174154610Y-138421856D02*
X174154610Y-133341856D01*
X177964610Y-138421856D02*
X174154610Y-138421856D01*
X177964610Y-133341856D02*
X177964610Y-138421856D01*
D11*
G04 #@! TO.C,C202*
X194947820Y-130152180D02*
X194947820Y-138447820D01*
X194947820Y-138447820D02*
X187650400Y-138447820D01*
X187650400Y-138447820D02*
X186652180Y-137449600D01*
X186652180Y-137449600D02*
X186652180Y-131150400D01*
X186652180Y-131150400D02*
X187650400Y-130152180D01*
X187650400Y-130152180D02*
X194947820Y-130152180D01*
D13*
G04 #@! TO.C,D206*
X166000000Y-108500000D02*
X164850000Y-108500000D01*
X164850000Y-108500000D02*
X164850000Y-116000000D01*
X164850000Y-116000000D02*
X166000000Y-116000000D01*
X170000000Y-116000000D02*
X171150000Y-116000000D01*
X171150000Y-116000000D02*
X171150000Y-108500000D01*
X171150000Y-108500000D02*
X170000000Y-108500000D01*
X168000000Y-110550000D02*
X166000000Y-113700000D01*
X166000000Y-113700000D02*
X170000000Y-113700000D01*
X170000000Y-113700000D02*
X168000000Y-110550000D01*
X166000000Y-110550000D02*
X170000000Y-110550000D01*
G04 #@! TO.C,R103*
X149222400Y-61860400D02*
X149222400Y-60539600D01*
X146377600Y-61860400D02*
X149222400Y-61860400D01*
X146377600Y-60539600D02*
X146377600Y-61860400D01*
X149222400Y-60539600D02*
X146377600Y-60539600D01*
D14*
X147342800Y-61682600D02*
X147342800Y-60717400D01*
X147342800Y-60717400D02*
X146961800Y-60717400D01*
X146961800Y-61682600D02*
X147342800Y-61682600D01*
X148257200Y-60717400D02*
X148257200Y-61682600D01*
X148257200Y-61682600D02*
X148638200Y-61682600D01*
X148638200Y-60717400D02*
X148257200Y-60717400D01*
X147342800Y-61682600D02*
X148257200Y-61682600D01*
X148638200Y-61682600D02*
X148638200Y-60717400D01*
X148257200Y-60717400D02*
X147342800Y-60717400D01*
X146961800Y-60717400D02*
X146961800Y-61682600D01*
G04 #@! TO.C,R405*
X177711800Y-57867400D02*
X177711800Y-58832600D01*
X179007200Y-57867400D02*
X178092800Y-57867400D01*
X179388200Y-58832600D02*
X179388200Y-57867400D01*
X178092800Y-58832600D02*
X179007200Y-58832600D01*
X179388200Y-57867400D02*
X179007200Y-57867400D01*
X179007200Y-58832600D02*
X179388200Y-58832600D01*
X179007200Y-57867400D02*
X179007200Y-58832600D01*
X177711800Y-58832600D02*
X178092800Y-58832600D01*
X178092800Y-57867400D02*
X177711800Y-57867400D01*
X178092800Y-58832600D02*
X178092800Y-57867400D01*
D13*
X179972400Y-57689600D02*
X177127600Y-57689600D01*
X177127600Y-57689600D02*
X177127600Y-59010400D01*
X177127600Y-59010400D02*
X179972400Y-59010400D01*
X179972400Y-59010400D02*
X179972400Y-57689600D01*
G04 #@! TO.C,U401*
X175200000Y-86700000D02*
X180000000Y-86700000D01*
X180000000Y-86700000D02*
X180000000Y-90500000D01*
X175200000Y-90500000D02*
X180000000Y-90500000D01*
X175200000Y-90500000D02*
X175200000Y-86700000D01*
X176082843Y-90000000D02*
G75*
G03X176082843Y-90000000I-282843J0D01*
G01*
G04 #@! TO.C,C701*
X160377600Y-50089600D02*
X160377600Y-51410400D01*
X163222400Y-50089600D02*
X160377600Y-50089600D01*
X163222400Y-51410400D02*
X163222400Y-50089600D01*
X160377600Y-51410400D02*
X163222400Y-51410400D01*
D14*
X162257200Y-50267400D02*
X162257200Y-51232600D01*
X162257200Y-51232600D02*
X162638200Y-51232600D01*
X162638200Y-50267400D02*
X162257200Y-50267400D01*
X161342800Y-51232600D02*
X161342800Y-50267400D01*
X161342800Y-50267400D02*
X160961800Y-50267400D01*
X160961800Y-51232600D02*
X161342800Y-51232600D01*
X162257200Y-50267400D02*
X161342800Y-50267400D01*
X160961800Y-50267400D02*
X160961800Y-51232600D01*
X161342800Y-51232600D02*
X162257200Y-51232600D01*
X162638200Y-51232600D02*
X162638200Y-50267400D01*
G04 #@! TO.C,R104*
X160917400Y-58338200D02*
X161882600Y-58338200D01*
X160917400Y-57042800D02*
X160917400Y-57957200D01*
X161882600Y-56661800D02*
X160917400Y-56661800D01*
X161882600Y-57957200D02*
X161882600Y-57042800D01*
X160917400Y-56661800D02*
X160917400Y-57042800D01*
X161882600Y-57042800D02*
X161882600Y-56661800D01*
X160917400Y-57042800D02*
X161882600Y-57042800D01*
X161882600Y-58338200D02*
X161882600Y-57957200D01*
X160917400Y-57957200D02*
X160917400Y-58338200D01*
X161882600Y-57957200D02*
X160917400Y-57957200D01*
D13*
X160739600Y-56077600D02*
X160739600Y-58922400D01*
X160739600Y-58922400D02*
X162060400Y-58922400D01*
X162060400Y-58922400D02*
X162060400Y-56077600D01*
X162060400Y-56077600D02*
X160739600Y-56077600D01*
D14*
G04 #@! TO.C,R107*
X162617400Y-58338200D02*
X163582600Y-58338200D01*
X162617400Y-57042800D02*
X162617400Y-57957200D01*
X163582600Y-56661800D02*
X162617400Y-56661800D01*
X163582600Y-57957200D02*
X163582600Y-57042800D01*
X162617400Y-56661800D02*
X162617400Y-57042800D01*
X163582600Y-57042800D02*
X163582600Y-56661800D01*
X162617400Y-57042800D02*
X163582600Y-57042800D01*
X163582600Y-58338200D02*
X163582600Y-57957200D01*
X162617400Y-57957200D02*
X162617400Y-58338200D01*
X163582600Y-57957200D02*
X162617400Y-57957200D01*
D13*
X162439600Y-56077600D02*
X162439600Y-58922400D01*
X162439600Y-58922400D02*
X163760400Y-58922400D01*
X163760400Y-58922400D02*
X163760400Y-56077600D01*
X163760400Y-56077600D02*
X162439600Y-56077600D01*
G04 #@! TO.C,R701*
X151347400Y-53385400D02*
X151347400Y-52064600D01*
X148502600Y-53385400D02*
X151347400Y-53385400D01*
X148502600Y-52064600D02*
X148502600Y-53385400D01*
X151347400Y-52064600D02*
X148502600Y-52064600D01*
D14*
X149467800Y-53207600D02*
X149467800Y-52242400D01*
X149467800Y-52242400D02*
X149086800Y-52242400D01*
X149086800Y-53207600D02*
X149467800Y-53207600D01*
X150382200Y-52242400D02*
X150382200Y-53207600D01*
X150382200Y-53207600D02*
X150763200Y-53207600D01*
X150763200Y-52242400D02*
X150382200Y-52242400D01*
X149467800Y-53207600D02*
X150382200Y-53207600D01*
X150763200Y-53207600D02*
X150763200Y-52242400D01*
X150382200Y-52242400D02*
X149467800Y-52242400D01*
X149086800Y-52242400D02*
X149086800Y-53207600D01*
D13*
G04 #@! TO.C,R702*
X160377600Y-53414600D02*
X160377600Y-54735400D01*
X163222400Y-53414600D02*
X160377600Y-53414600D01*
X163222400Y-54735400D02*
X163222400Y-53414600D01*
X160377600Y-54735400D02*
X163222400Y-54735400D01*
D14*
X162257200Y-53592400D02*
X162257200Y-54557600D01*
X162257200Y-54557600D02*
X162638200Y-54557600D01*
X162638200Y-53592400D02*
X162257200Y-53592400D01*
X161342800Y-54557600D02*
X161342800Y-53592400D01*
X161342800Y-53592400D02*
X160961800Y-53592400D01*
X160961800Y-54557600D02*
X161342800Y-54557600D01*
X162257200Y-53592400D02*
X161342800Y-53592400D01*
X160961800Y-53592400D02*
X160961800Y-54557600D01*
X161342800Y-54557600D02*
X162257200Y-54557600D01*
X162638200Y-54557600D02*
X162638200Y-53592400D01*
G04 #@! TO.C,R703*
X149111800Y-50617400D02*
X149111800Y-51582600D01*
X150407200Y-50617400D02*
X149492800Y-50617400D01*
X150788200Y-51582600D02*
X150788200Y-50617400D01*
X149492800Y-51582600D02*
X150407200Y-51582600D01*
X150788200Y-50617400D02*
X150407200Y-50617400D01*
X150407200Y-51582600D02*
X150788200Y-51582600D01*
X150407200Y-50617400D02*
X150407200Y-51582600D01*
X149111800Y-51582600D02*
X149492800Y-51582600D01*
X149492800Y-50617400D02*
X149111800Y-50617400D01*
X149492800Y-51582600D02*
X149492800Y-50617400D01*
D13*
X151372400Y-50439600D02*
X148527600Y-50439600D01*
X148527600Y-50439600D02*
X148527600Y-51760400D01*
X148527600Y-51760400D02*
X151372400Y-51760400D01*
X151372400Y-51760400D02*
X151372400Y-50439600D01*
D14*
G04 #@! TO.C,R704*
X162638200Y-52882600D02*
X162638200Y-51917400D01*
X161342800Y-52882600D02*
X162257200Y-52882600D01*
X160961800Y-51917400D02*
X160961800Y-52882600D01*
X162257200Y-51917400D02*
X161342800Y-51917400D01*
X160961800Y-52882600D02*
X161342800Y-52882600D01*
X161342800Y-51917400D02*
X160961800Y-51917400D01*
X161342800Y-52882600D02*
X161342800Y-51917400D01*
X162638200Y-51917400D02*
X162257200Y-51917400D01*
X162257200Y-52882600D02*
X162638200Y-52882600D01*
X162257200Y-51917400D02*
X162257200Y-52882600D01*
D13*
X160377600Y-53060400D02*
X163222400Y-53060400D01*
X163222400Y-53060400D02*
X163222400Y-51739600D01*
X163222400Y-51739600D02*
X160377600Y-51739600D01*
X160377600Y-51739600D02*
X160377600Y-53060400D01*
G04 #@! TO.C,R705*
X152527600Y-57739600D02*
X152527600Y-59060400D01*
X155372400Y-57739600D02*
X152527600Y-57739600D01*
X155372400Y-59060400D02*
X155372400Y-57739600D01*
X152527600Y-59060400D02*
X155372400Y-59060400D01*
D14*
X154407200Y-57917400D02*
X154407200Y-58882600D01*
X154407200Y-58882600D02*
X154788200Y-58882600D01*
X154788200Y-57917400D02*
X154407200Y-57917400D01*
X153492800Y-58882600D02*
X153492800Y-57917400D01*
X153492800Y-57917400D02*
X153111800Y-57917400D01*
X153111800Y-58882600D02*
X153492800Y-58882600D01*
X154407200Y-57917400D02*
X153492800Y-57917400D01*
X153111800Y-57917400D02*
X153111800Y-58882600D01*
X153492800Y-58882600D02*
X154407200Y-58882600D01*
X154788200Y-58882600D02*
X154788200Y-57917400D01*
D13*
G04 #@! TO.C,R706*
X159372400Y-59110400D02*
X159372400Y-57789600D01*
X156527600Y-59110400D02*
X159372400Y-59110400D01*
X156527600Y-57789600D02*
X156527600Y-59110400D01*
X159372400Y-57789600D02*
X156527600Y-57789600D01*
D14*
X157492800Y-58932600D02*
X157492800Y-57967400D01*
X157492800Y-57967400D02*
X157111800Y-57967400D01*
X157111800Y-58932600D02*
X157492800Y-58932600D01*
X158407200Y-57967400D02*
X158407200Y-58932600D01*
X158407200Y-58932600D02*
X158788200Y-58932600D01*
X158788200Y-57967400D02*
X158407200Y-57967400D01*
X157492800Y-58932600D02*
X158407200Y-58932600D01*
X158788200Y-58932600D02*
X158788200Y-57967400D01*
X158407200Y-57967400D02*
X157492800Y-57967400D01*
X157111800Y-57967400D02*
X157111800Y-58932600D01*
D13*
G04 #@! TO.C,R707*
X152527600Y-56089600D02*
X152527600Y-57410400D01*
X155372400Y-56089600D02*
X152527600Y-56089600D01*
X155372400Y-57410400D02*
X155372400Y-56089600D01*
X152527600Y-57410400D02*
X155372400Y-57410400D01*
D14*
X154407200Y-56267400D02*
X154407200Y-57232600D01*
X154407200Y-57232600D02*
X154788200Y-57232600D01*
X154788200Y-56267400D02*
X154407200Y-56267400D01*
X153492800Y-57232600D02*
X153492800Y-56267400D01*
X153492800Y-56267400D02*
X153111800Y-56267400D01*
X153111800Y-57232600D02*
X153492800Y-57232600D01*
X154407200Y-56267400D02*
X153492800Y-56267400D01*
X153111800Y-56267400D02*
X153111800Y-57232600D01*
X153492800Y-57232600D02*
X154407200Y-57232600D01*
X154788200Y-57232600D02*
X154788200Y-56267400D01*
G04 #@! TO.C,R708*
X157111800Y-56267400D02*
X157111800Y-57232600D01*
X158407200Y-56267400D02*
X157492800Y-56267400D01*
X158788200Y-57232600D02*
X158788200Y-56267400D01*
X157492800Y-57232600D02*
X158407200Y-57232600D01*
X158788200Y-56267400D02*
X158407200Y-56267400D01*
X158407200Y-57232600D02*
X158788200Y-57232600D01*
X158407200Y-56267400D02*
X158407200Y-57232600D01*
X157111800Y-57232600D02*
X157492800Y-57232600D01*
X157492800Y-56267400D02*
X157111800Y-56267400D01*
X157492800Y-57232600D02*
X157492800Y-56267400D01*
D13*
X159372400Y-56089600D02*
X156527600Y-56089600D01*
X156527600Y-56089600D02*
X156527600Y-57410400D01*
X156527600Y-57410400D02*
X159372400Y-57410400D01*
X159372400Y-57410400D02*
X159372400Y-56089600D01*
D19*
G04 #@! TO.C,U701*
X155666447Y-50845000D02*
G75*
G03X155666447Y-50845000I-251447J0D01*
G01*
D15*
X154145000Y-50210000D02*
X157955000Y-50210000D01*
X154145000Y-55290000D02*
X154145000Y-50210000D01*
X157955000Y-55290000D02*
X154145000Y-55290000D01*
X157955000Y-50210000D02*
X157955000Y-55290000D01*
G04 #@! TO.C,D701*
X180399440Y-80850420D02*
X179200560Y-80850420D01*
X179200560Y-80850420D02*
X179800000Y-81749580D01*
X179800000Y-81749580D02*
X180399440Y-80850420D01*
X180399440Y-81749580D02*
X179200560Y-81749580D01*
G04 #@! TO.C,D702*
X175899440Y-81749580D02*
X174700560Y-81749580D01*
X175300000Y-81749580D02*
X175899440Y-80850420D01*
X174700560Y-80850420D02*
X175300000Y-81749580D01*
X175899440Y-80850420D02*
X174700560Y-80850420D01*
D14*
G04 #@! TO.C,R301*
X137238200Y-120782600D02*
X137238200Y-119817400D01*
X135942800Y-120782600D02*
X136857200Y-120782600D01*
X135561800Y-119817400D02*
X135561800Y-120782600D01*
X136857200Y-119817400D02*
X135942800Y-119817400D01*
X135561800Y-120782600D02*
X135942800Y-120782600D01*
X135942800Y-119817400D02*
X135561800Y-119817400D01*
X135942800Y-120782600D02*
X135942800Y-119817400D01*
X137238200Y-119817400D02*
X136857200Y-119817400D01*
X136857200Y-120782600D02*
X137238200Y-120782600D01*
X136857200Y-119817400D02*
X136857200Y-120782600D01*
D13*
X134977600Y-120960400D02*
X137822400Y-120960400D01*
X137822400Y-120960400D02*
X137822400Y-119639600D01*
X137822400Y-119639600D02*
X134977600Y-119639600D01*
X134977600Y-119639600D02*
X134977600Y-120960400D01*
G04 #@! TO.C,R302*
X131477600Y-119639600D02*
X131477600Y-120960400D01*
X134322400Y-119639600D02*
X131477600Y-119639600D01*
X134322400Y-120960400D02*
X134322400Y-119639600D01*
X131477600Y-120960400D02*
X134322400Y-120960400D01*
D14*
X133357200Y-119817400D02*
X133357200Y-120782600D01*
X133357200Y-120782600D02*
X133738200Y-120782600D01*
X133738200Y-119817400D02*
X133357200Y-119817400D01*
X132442800Y-120782600D02*
X132442800Y-119817400D01*
X132442800Y-119817400D02*
X132061800Y-119817400D01*
X132061800Y-120782600D02*
X132442800Y-120782600D01*
X133357200Y-119817400D02*
X132442800Y-119817400D01*
X132061800Y-119817400D02*
X132061800Y-120782600D01*
X132442800Y-120782600D02*
X133357200Y-120782600D01*
X133738200Y-120782600D02*
X133738200Y-119817400D01*
D13*
G04 #@! TO.C,U801*
X159250000Y-89800000D02*
X159250000Y-83300000D01*
X166250000Y-89800000D02*
X166250000Y-83300000D01*
G04 #@! TO.C,U901*
X173650000Y-89800000D02*
X173650000Y-83300000D01*
X166650000Y-89800000D02*
X166650000Y-83300000D01*
G04 #@! TO.C,U1001*
X144450000Y-89800000D02*
X144450000Y-83300000D01*
X151450000Y-89800000D02*
X151450000Y-83300000D01*
G04 #@! TO.C,U1101*
X158850000Y-89800000D02*
X158850000Y-83300000D01*
X151850000Y-89800000D02*
X151850000Y-83300000D01*
G04 #@! TO.C,U1201*
X181400000Y-89700000D02*
X181400000Y-83200000D01*
X188400000Y-89700000D02*
X188400000Y-83200000D01*
G04 #@! TO.C,U1102*
X129650000Y-89800000D02*
X129650000Y-83300000D01*
X136650000Y-89800000D02*
X136650000Y-83300000D01*
G04 #@! TO.C,U1103*
X144050000Y-89800000D02*
X144050000Y-83300000D01*
X137050000Y-89800000D02*
X137050000Y-83300000D01*
G04 #@! TO.C,U1202*
X195950000Y-89750000D02*
X195950000Y-83250000D01*
X188950000Y-89750000D02*
X188950000Y-83250000D01*
G04 #@! TO.C,U1*
X203130000Y-63000000D02*
X196630000Y-63000000D01*
X203130000Y-70000000D02*
X196630000Y-70000000D01*
G04 #@! TO.C,U2*
X203100000Y-62400000D02*
X196600000Y-62400000D01*
X203100000Y-55400000D02*
X196600000Y-55400000D01*
G04 #@! TO.C,D10*
X158000000Y-111800000D02*
X158000000Y-113000000D01*
X159200000Y-113000000D02*
X159200000Y-111800000D01*
X162600000Y-113000000D02*
X162600000Y-111800000D01*
X163800000Y-111800000D02*
X163800000Y-113000000D01*
G04 #@! TO.C,D11*
X178100000Y-111800000D02*
X178100000Y-113000000D01*
X176900000Y-113000000D02*
X176900000Y-111800000D01*
X173500000Y-113000000D02*
X173500000Y-111800000D01*
X172300000Y-111800000D02*
X172300000Y-113000000D01*
G04 #@! TO.C,C1*
X170239600Y-136022400D02*
X171560400Y-136022400D01*
X170239600Y-133177600D02*
X170239600Y-136022400D01*
X171560400Y-133177600D02*
X170239600Y-133177600D01*
X171560400Y-136022400D02*
X171560400Y-133177600D01*
D14*
X170417400Y-134142800D02*
X171382600Y-134142800D01*
X171382600Y-134142800D02*
X171382600Y-133761800D01*
X170417400Y-133761800D02*
X170417400Y-134142800D01*
X171382600Y-135057200D02*
X170417400Y-135057200D01*
X170417400Y-135057200D02*
X170417400Y-135438200D01*
X171382600Y-135438200D02*
X171382600Y-135057200D01*
X170417400Y-134142800D02*
X170417400Y-135057200D01*
X170417400Y-135438200D02*
X171382600Y-135438200D01*
X171382600Y-135057200D02*
X171382600Y-134142800D01*
X171382600Y-133761800D02*
X170417400Y-133761800D01*
G04 #@! TO.C,VR202*
D20*
X142661523Y-135554895D02*
X142932457Y-136367695D01*
X143203390Y-135554895D01*
X143938780Y-136367695D02*
X143667847Y-135980647D01*
X143474323Y-136367695D02*
X143474323Y-135554895D01*
X143783961Y-135554895D01*
X143861371Y-135593600D01*
X143900076Y-135632304D01*
X143938780Y-135709714D01*
X143938780Y-135825828D01*
X143900076Y-135903238D01*
X143861371Y-135941942D01*
X143783961Y-135980647D01*
X143474323Y-135980647D01*
X144248419Y-135632304D02*
X144287123Y-135593600D01*
X144364533Y-135554895D01*
X144558057Y-135554895D01*
X144635466Y-135593600D01*
X144674171Y-135632304D01*
X144712876Y-135709714D01*
X144712876Y-135787123D01*
X144674171Y-135903238D01*
X144209714Y-136367695D01*
X144712876Y-136367695D01*
X145216038Y-135554895D02*
X145293447Y-135554895D01*
X145370857Y-135593600D01*
X145409561Y-135632304D01*
X145448266Y-135709714D01*
X145486971Y-135864533D01*
X145486971Y-136058057D01*
X145448266Y-136212876D01*
X145409561Y-136290285D01*
X145370857Y-136328990D01*
X145293447Y-136367695D01*
X145216038Y-136367695D01*
X145138628Y-136328990D01*
X145099923Y-136290285D01*
X145061219Y-136212876D01*
X145022514Y-136058057D01*
X145022514Y-135864533D01*
X145061219Y-135709714D01*
X145099923Y-135632304D01*
X145138628Y-135593600D01*
X145216038Y-135554895D01*
X145796609Y-135632304D02*
X145835314Y-135593600D01*
X145912723Y-135554895D01*
X146106247Y-135554895D01*
X146183657Y-135593600D01*
X146222361Y-135632304D01*
X146261066Y-135709714D01*
X146261066Y-135787123D01*
X146222361Y-135903238D01*
X145757904Y-136367695D01*
X146261066Y-136367695D01*
G04 #@! TO.C,R202*
X146540438Y-120967695D02*
X146269504Y-120580647D01*
X146075980Y-120967695D02*
X146075980Y-120154895D01*
X146385619Y-120154895D01*
X146463028Y-120193600D01*
X146501733Y-120232304D01*
X146540438Y-120309714D01*
X146540438Y-120425828D01*
X146501733Y-120503238D01*
X146463028Y-120541942D01*
X146385619Y-120580647D01*
X146075980Y-120580647D01*
X146850076Y-120232304D02*
X146888780Y-120193600D01*
X146966190Y-120154895D01*
X147159714Y-120154895D01*
X147237123Y-120193600D01*
X147275828Y-120232304D01*
X147314533Y-120309714D01*
X147314533Y-120387123D01*
X147275828Y-120503238D01*
X146811371Y-120967695D01*
X147314533Y-120967695D01*
X147817695Y-120154895D02*
X147895104Y-120154895D01*
X147972514Y-120193600D01*
X148011219Y-120232304D01*
X148049923Y-120309714D01*
X148088628Y-120464533D01*
X148088628Y-120658057D01*
X148049923Y-120812876D01*
X148011219Y-120890285D01*
X147972514Y-120928990D01*
X147895104Y-120967695D01*
X147817695Y-120967695D01*
X147740285Y-120928990D01*
X147701580Y-120890285D01*
X147662876Y-120812876D01*
X147624171Y-120658057D01*
X147624171Y-120464533D01*
X147662876Y-120309714D01*
X147701580Y-120232304D01*
X147740285Y-120193600D01*
X147817695Y-120154895D01*
X148398266Y-120232304D02*
X148436971Y-120193600D01*
X148514380Y-120154895D01*
X148707904Y-120154895D01*
X148785314Y-120193600D01*
X148824019Y-120232304D01*
X148862723Y-120309714D01*
X148862723Y-120387123D01*
X148824019Y-120503238D01*
X148359561Y-120967695D01*
X148862723Y-120967695D01*
X146425828Y-119867695D02*
X145961371Y-119867695D01*
X146193600Y-119867695D02*
X146193600Y-119054895D01*
X146116190Y-119171009D01*
X146038780Y-119248419D01*
X145961371Y-119287123D01*
X146774171Y-119867695D02*
X146774171Y-119054895D01*
X147238628Y-119867695D02*
X146890285Y-119403238D01*
X147238628Y-119054895D02*
X146774171Y-119519352D01*
G04 #@! TO.C,R201*
X146490438Y-118017695D02*
X146219504Y-117630647D01*
X146025980Y-118017695D02*
X146025980Y-117204895D01*
X146335619Y-117204895D01*
X146413028Y-117243600D01*
X146451733Y-117282304D01*
X146490438Y-117359714D01*
X146490438Y-117475828D01*
X146451733Y-117553238D01*
X146413028Y-117591942D01*
X146335619Y-117630647D01*
X146025980Y-117630647D01*
X146800076Y-117282304D02*
X146838780Y-117243600D01*
X146916190Y-117204895D01*
X147109714Y-117204895D01*
X147187123Y-117243600D01*
X147225828Y-117282304D01*
X147264533Y-117359714D01*
X147264533Y-117437123D01*
X147225828Y-117553238D01*
X146761371Y-118017695D01*
X147264533Y-118017695D01*
X147767695Y-117204895D02*
X147845104Y-117204895D01*
X147922514Y-117243600D01*
X147961219Y-117282304D01*
X147999923Y-117359714D01*
X148038628Y-117514533D01*
X148038628Y-117708057D01*
X147999923Y-117862876D01*
X147961219Y-117940285D01*
X147922514Y-117978990D01*
X147845104Y-118017695D01*
X147767695Y-118017695D01*
X147690285Y-117978990D01*
X147651580Y-117940285D01*
X147612876Y-117862876D01*
X147574171Y-117708057D01*
X147574171Y-117514533D01*
X147612876Y-117359714D01*
X147651580Y-117282304D01*
X147690285Y-117243600D01*
X147767695Y-117204895D01*
X148812723Y-118017695D02*
X148348266Y-118017695D01*
X148580495Y-118017695D02*
X148580495Y-117204895D01*
X148503085Y-117321009D01*
X148425676Y-117398419D01*
X148348266Y-117437123D01*
X146438780Y-119017695D02*
X145974323Y-119017695D01*
X146206552Y-119017695D02*
X146206552Y-118204895D01*
X146129142Y-118321009D01*
X146051733Y-118398419D01*
X145974323Y-118437123D01*
X146941942Y-118204895D02*
X147019352Y-118204895D01*
X147096761Y-118243600D01*
X147135466Y-118282304D01*
X147174171Y-118359714D01*
X147212876Y-118514533D01*
X147212876Y-118708057D01*
X147174171Y-118862876D01*
X147135466Y-118940285D01*
X147096761Y-118978990D01*
X147019352Y-119017695D01*
X146941942Y-119017695D01*
X146864533Y-118978990D01*
X146825828Y-118940285D01*
X146787123Y-118862876D01*
X146748419Y-118708057D01*
X146748419Y-118514533D01*
X146787123Y-118359714D01*
X146825828Y-118282304D01*
X146864533Y-118243600D01*
X146941942Y-118204895D01*
X147561219Y-119017695D02*
X147561219Y-118204895D01*
X148025676Y-119017695D02*
X147677333Y-118553238D01*
X148025676Y-118204895D02*
X147561219Y-118669352D01*
G04 #@! TO.C,D201*
X189625980Y-123417695D02*
X189625980Y-122604895D01*
X189819504Y-122604895D01*
X189935619Y-122643600D01*
X190013028Y-122721009D01*
X190051733Y-122798419D01*
X190090438Y-122953238D01*
X190090438Y-123069352D01*
X190051733Y-123224171D01*
X190013028Y-123301580D01*
X189935619Y-123378990D01*
X189819504Y-123417695D01*
X189625980Y-123417695D01*
X190400076Y-122682304D02*
X190438780Y-122643600D01*
X190516190Y-122604895D01*
X190709714Y-122604895D01*
X190787123Y-122643600D01*
X190825828Y-122682304D01*
X190864533Y-122759714D01*
X190864533Y-122837123D01*
X190825828Y-122953238D01*
X190361371Y-123417695D01*
X190864533Y-123417695D01*
X191367695Y-122604895D02*
X191445104Y-122604895D01*
X191522514Y-122643600D01*
X191561219Y-122682304D01*
X191599923Y-122759714D01*
X191638628Y-122914533D01*
X191638628Y-123108057D01*
X191599923Y-123262876D01*
X191561219Y-123340285D01*
X191522514Y-123378990D01*
X191445104Y-123417695D01*
X191367695Y-123417695D01*
X191290285Y-123378990D01*
X191251580Y-123340285D01*
X191212876Y-123262876D01*
X191174171Y-123108057D01*
X191174171Y-122914533D01*
X191212876Y-122759714D01*
X191251580Y-122682304D01*
X191290285Y-122643600D01*
X191367695Y-122604895D01*
X192412723Y-123417695D02*
X191948266Y-123417695D01*
X192180495Y-123417695D02*
X192180495Y-122604895D01*
X192103085Y-122721009D01*
X192025676Y-122798419D01*
X191948266Y-122837123D01*
G04 #@! TO.C,C301*
X137890438Y-128040285D02*
X137851733Y-128078990D01*
X137735619Y-128117695D01*
X137658209Y-128117695D01*
X137542095Y-128078990D01*
X137464685Y-128001580D01*
X137425980Y-127924171D01*
X137387276Y-127769352D01*
X137387276Y-127653238D01*
X137425980Y-127498419D01*
X137464685Y-127421009D01*
X137542095Y-127343600D01*
X137658209Y-127304895D01*
X137735619Y-127304895D01*
X137851733Y-127343600D01*
X137890438Y-127382304D01*
X138161371Y-127304895D02*
X138664533Y-127304895D01*
X138393600Y-127614533D01*
X138509714Y-127614533D01*
X138587123Y-127653238D01*
X138625828Y-127691942D01*
X138664533Y-127769352D01*
X138664533Y-127962876D01*
X138625828Y-128040285D01*
X138587123Y-128078990D01*
X138509714Y-128117695D01*
X138277485Y-128117695D01*
X138200076Y-128078990D01*
X138161371Y-128040285D01*
X139167695Y-127304895D02*
X139245104Y-127304895D01*
X139322514Y-127343600D01*
X139361219Y-127382304D01*
X139399923Y-127459714D01*
X139438628Y-127614533D01*
X139438628Y-127808057D01*
X139399923Y-127962876D01*
X139361219Y-128040285D01*
X139322514Y-128078990D01*
X139245104Y-128117695D01*
X139167695Y-128117695D01*
X139090285Y-128078990D01*
X139051580Y-128040285D01*
X139012876Y-127962876D01*
X138974171Y-127808057D01*
X138974171Y-127614533D01*
X139012876Y-127459714D01*
X139051580Y-127382304D01*
X139090285Y-127343600D01*
X139167695Y-127304895D01*
X140212723Y-128117695D02*
X139748266Y-128117695D01*
X139980495Y-128117695D02*
X139980495Y-127304895D01*
X139903085Y-127421009D01*
X139825676Y-127498419D01*
X139748266Y-127537123D01*
X137892095Y-129117695D02*
X137427638Y-129117695D01*
X137659866Y-129117695D02*
X137659866Y-128304895D01*
X137582457Y-128421009D01*
X137505047Y-128498419D01*
X137427638Y-128537123D01*
X138395257Y-128304895D02*
X138472666Y-128304895D01*
X138550076Y-128343600D01*
X138588780Y-128382304D01*
X138627485Y-128459714D01*
X138666190Y-128614533D01*
X138666190Y-128808057D01*
X138627485Y-128962876D01*
X138588780Y-129040285D01*
X138550076Y-129078990D01*
X138472666Y-129117695D01*
X138395257Y-129117695D01*
X138317847Y-129078990D01*
X138279142Y-129040285D01*
X138240438Y-128962876D01*
X138201733Y-128808057D01*
X138201733Y-128614533D01*
X138240438Y-128459714D01*
X138279142Y-128382304D01*
X138317847Y-128343600D01*
X138395257Y-128304895D01*
X139169352Y-128304895D02*
X139246761Y-128304895D01*
X139324171Y-128343600D01*
X139362876Y-128382304D01*
X139401580Y-128459714D01*
X139440285Y-128614533D01*
X139440285Y-128808057D01*
X139401580Y-128962876D01*
X139362876Y-129040285D01*
X139324171Y-129078990D01*
X139246761Y-129117695D01*
X139169352Y-129117695D01*
X139091942Y-129078990D01*
X139053238Y-129040285D01*
X139014533Y-128962876D01*
X138975828Y-128808057D01*
X138975828Y-128614533D01*
X139014533Y-128459714D01*
X139053238Y-128382304D01*
X139091942Y-128343600D01*
X139169352Y-128304895D01*
X139788628Y-128575828D02*
X139788628Y-129117695D01*
X139788628Y-128653238D02*
X139827333Y-128614533D01*
X139904742Y-128575828D01*
X140020857Y-128575828D01*
X140098266Y-128614533D01*
X140136971Y-128691942D01*
X140136971Y-129117695D01*
X140794952Y-128691942D02*
X140524019Y-128691942D01*
X140524019Y-129117695D02*
X140524019Y-128304895D01*
X140911066Y-128304895D01*
G04 #@! TO.C,U302*
X136606628Y-108654895D02*
X136606628Y-109312876D01*
X136645333Y-109390285D01*
X136684038Y-109428990D01*
X136761447Y-109467695D01*
X136916266Y-109467695D01*
X136993676Y-109428990D01*
X137032380Y-109390285D01*
X137071085Y-109312876D01*
X137071085Y-108654895D01*
X137380723Y-108654895D02*
X137883885Y-108654895D01*
X137612952Y-108964533D01*
X137729066Y-108964533D01*
X137806476Y-109003238D01*
X137845180Y-109041942D01*
X137883885Y-109119352D01*
X137883885Y-109312876D01*
X137845180Y-109390285D01*
X137806476Y-109428990D01*
X137729066Y-109467695D01*
X137496838Y-109467695D01*
X137419428Y-109428990D01*
X137380723Y-109390285D01*
X138387047Y-108654895D02*
X138464457Y-108654895D01*
X138541866Y-108693600D01*
X138580571Y-108732304D01*
X138619276Y-108809714D01*
X138657980Y-108964533D01*
X138657980Y-109158057D01*
X138619276Y-109312876D01*
X138580571Y-109390285D01*
X138541866Y-109428990D01*
X138464457Y-109467695D01*
X138387047Y-109467695D01*
X138309638Y-109428990D01*
X138270933Y-109390285D01*
X138232228Y-109312876D01*
X138193523Y-109158057D01*
X138193523Y-108964533D01*
X138232228Y-108809714D01*
X138270933Y-108732304D01*
X138309638Y-108693600D01*
X138387047Y-108654895D01*
X138967619Y-108732304D02*
X139006323Y-108693600D01*
X139083733Y-108654895D01*
X139277257Y-108654895D01*
X139354666Y-108693600D01*
X139393371Y-108732304D01*
X139432076Y-108809714D01*
X139432076Y-108887123D01*
X139393371Y-109003238D01*
X138928914Y-109467695D01*
X139432076Y-109467695D01*
X133894057Y-108167695D02*
X133507009Y-108167695D01*
X133507009Y-107354895D01*
X134164990Y-108167695D02*
X134164990Y-107354895D01*
X134474628Y-107354895D01*
X134552038Y-107393600D01*
X134590742Y-107432304D01*
X134629447Y-107509714D01*
X134629447Y-107625828D01*
X134590742Y-107703238D01*
X134552038Y-107741942D01*
X134474628Y-107780647D01*
X134164990Y-107780647D01*
X135442247Y-108090285D02*
X135403542Y-108128990D01*
X135287428Y-108167695D01*
X135210019Y-108167695D01*
X135093904Y-108128990D01*
X135016495Y-108051580D01*
X134977790Y-107974171D01*
X134939085Y-107819352D01*
X134939085Y-107703238D01*
X134977790Y-107548419D01*
X135016495Y-107471009D01*
X135093904Y-107393600D01*
X135210019Y-107354895D01*
X135287428Y-107354895D01*
X135403542Y-107393600D01*
X135442247Y-107432304D01*
X136216342Y-108167695D02*
X135751885Y-108167695D01*
X135984114Y-108167695D02*
X135984114Y-107354895D01*
X135906704Y-107471009D01*
X135829295Y-107548419D01*
X135751885Y-107587123D01*
X136951733Y-107354895D02*
X136564685Y-107354895D01*
X136525980Y-107741942D01*
X136564685Y-107703238D01*
X136642095Y-107664533D01*
X136835619Y-107664533D01*
X136913028Y-107703238D01*
X136951733Y-107741942D01*
X136990438Y-107819352D01*
X136990438Y-108012876D01*
X136951733Y-108090285D01*
X136913028Y-108128990D01*
X136835619Y-108167695D01*
X136642095Y-108167695D01*
X136564685Y-108128990D01*
X136525980Y-108090285D01*
X137687123Y-107625828D02*
X137687123Y-108167695D01*
X137493600Y-107316190D02*
X137300076Y-107896761D01*
X137803238Y-107896761D01*
X138151580Y-108167695D02*
X138306400Y-108167695D01*
X138383809Y-108128990D01*
X138422514Y-108090285D01*
X138499923Y-107974171D01*
X138538628Y-107819352D01*
X138538628Y-107509714D01*
X138499923Y-107432304D01*
X138461219Y-107393600D01*
X138383809Y-107354895D01*
X138228990Y-107354895D01*
X138151580Y-107393600D01*
X138112876Y-107432304D01*
X138074171Y-107509714D01*
X138074171Y-107703238D01*
X138112876Y-107780647D01*
X138151580Y-107819352D01*
X138228990Y-107858057D01*
X138383809Y-107858057D01*
X138461219Y-107819352D01*
X138499923Y-107780647D01*
X138538628Y-107703238D01*
X139119200Y-107354895D02*
X139119200Y-107935466D01*
X139080495Y-108051580D01*
X139003085Y-108128990D01*
X138886971Y-108167695D01*
X138809561Y-108167695D01*
X139777180Y-107741942D02*
X139893295Y-107780647D01*
X139932000Y-107819352D01*
X139970704Y-107896761D01*
X139970704Y-108012876D01*
X139932000Y-108090285D01*
X139893295Y-108128990D01*
X139815885Y-108167695D01*
X139506247Y-108167695D01*
X139506247Y-107354895D01*
X139777180Y-107354895D01*
X139854590Y-107393600D01*
X139893295Y-107432304D01*
X139932000Y-107509714D01*
X139932000Y-107587123D01*
X139893295Y-107664533D01*
X139854590Y-107703238D01*
X139777180Y-107741942D01*
X139506247Y-107741942D01*
X140319047Y-108167695D02*
X140319047Y-107354895D01*
X140512571Y-107354895D01*
X140628685Y-107393600D01*
X140706095Y-107471009D01*
X140744800Y-107548419D01*
X140783504Y-107703238D01*
X140783504Y-107819352D01*
X140744800Y-107974171D01*
X140706095Y-108051580D01*
X140628685Y-108128990D01*
X140512571Y-108167695D01*
X140319047Y-108167695D01*
X141480190Y-107354895D02*
X141325371Y-107354895D01*
X141247961Y-107393600D01*
X141209257Y-107432304D01*
X141131847Y-107548419D01*
X141093142Y-107703238D01*
X141093142Y-108012876D01*
X141131847Y-108090285D01*
X141170552Y-108128990D01*
X141247961Y-108167695D01*
X141402780Y-108167695D01*
X141480190Y-108128990D01*
X141518895Y-108090285D01*
X141557600Y-108012876D01*
X141557600Y-107819352D01*
X141518895Y-107741942D01*
X141480190Y-107703238D01*
X141402780Y-107664533D01*
X141247961Y-107664533D01*
X141170552Y-107703238D01*
X141131847Y-107741942D01*
X141093142Y-107819352D01*
X142254285Y-107625828D02*
X142254285Y-108167695D01*
X142060761Y-107316190D02*
X141867238Y-107896761D01*
X142370400Y-107896761D01*
G04 #@! TO.C,C205*
X142990438Y-133390285D02*
X142951733Y-133428990D01*
X142835619Y-133467695D01*
X142758209Y-133467695D01*
X142642095Y-133428990D01*
X142564685Y-133351580D01*
X142525980Y-133274171D01*
X142487276Y-133119352D01*
X142487276Y-133003238D01*
X142525980Y-132848419D01*
X142564685Y-132771009D01*
X142642095Y-132693600D01*
X142758209Y-132654895D01*
X142835619Y-132654895D01*
X142951733Y-132693600D01*
X142990438Y-132732304D01*
X143300076Y-132732304D02*
X143338780Y-132693600D01*
X143416190Y-132654895D01*
X143609714Y-132654895D01*
X143687123Y-132693600D01*
X143725828Y-132732304D01*
X143764533Y-132809714D01*
X143764533Y-132887123D01*
X143725828Y-133003238D01*
X143261371Y-133467695D01*
X143764533Y-133467695D01*
X144267695Y-132654895D02*
X144345104Y-132654895D01*
X144422514Y-132693600D01*
X144461219Y-132732304D01*
X144499923Y-132809714D01*
X144538628Y-132964533D01*
X144538628Y-133158057D01*
X144499923Y-133312876D01*
X144461219Y-133390285D01*
X144422514Y-133428990D01*
X144345104Y-133467695D01*
X144267695Y-133467695D01*
X144190285Y-133428990D01*
X144151580Y-133390285D01*
X144112876Y-133312876D01*
X144074171Y-133158057D01*
X144074171Y-132964533D01*
X144112876Y-132809714D01*
X144151580Y-132732304D01*
X144190285Y-132693600D01*
X144267695Y-132654895D01*
X145274019Y-132654895D02*
X144886971Y-132654895D01*
X144848266Y-133041942D01*
X144886971Y-133003238D01*
X144964380Y-132964533D01*
X145157904Y-132964533D01*
X145235314Y-133003238D01*
X145274019Y-133041942D01*
X145312723Y-133119352D01*
X145312723Y-133312876D01*
X145274019Y-133390285D01*
X145235314Y-133428990D01*
X145157904Y-133467695D01*
X144964380Y-133467695D01*
X144886971Y-133428990D01*
X144848266Y-133390285D01*
X142942095Y-134567695D02*
X142477638Y-134567695D01*
X142709866Y-134567695D02*
X142709866Y-133754895D01*
X142632457Y-133871009D01*
X142555047Y-133948419D01*
X142477638Y-133987123D01*
X143445257Y-133754895D02*
X143522666Y-133754895D01*
X143600076Y-133793600D01*
X143638780Y-133832304D01*
X143677485Y-133909714D01*
X143716190Y-134064533D01*
X143716190Y-134258057D01*
X143677485Y-134412876D01*
X143638780Y-134490285D01*
X143600076Y-134528990D01*
X143522666Y-134567695D01*
X143445257Y-134567695D01*
X143367847Y-134528990D01*
X143329142Y-134490285D01*
X143290438Y-134412876D01*
X143251733Y-134258057D01*
X143251733Y-134064533D01*
X143290438Y-133909714D01*
X143329142Y-133832304D01*
X143367847Y-133793600D01*
X143445257Y-133754895D01*
X144219352Y-133754895D02*
X144296761Y-133754895D01*
X144374171Y-133793600D01*
X144412876Y-133832304D01*
X144451580Y-133909714D01*
X144490285Y-134064533D01*
X144490285Y-134258057D01*
X144451580Y-134412876D01*
X144412876Y-134490285D01*
X144374171Y-134528990D01*
X144296761Y-134567695D01*
X144219352Y-134567695D01*
X144141942Y-134528990D01*
X144103238Y-134490285D01*
X144064533Y-134412876D01*
X144025828Y-134258057D01*
X144025828Y-134064533D01*
X144064533Y-133909714D01*
X144103238Y-133832304D01*
X144141942Y-133793600D01*
X144219352Y-133754895D01*
X144838628Y-134025828D02*
X144838628Y-134567695D01*
X144838628Y-134103238D02*
X144877333Y-134064533D01*
X144954742Y-134025828D01*
X145070857Y-134025828D01*
X145148266Y-134064533D01*
X145186971Y-134141942D01*
X145186971Y-134567695D01*
X145844952Y-134141942D02*
X145574019Y-134141942D01*
X145574019Y-134567695D02*
X145574019Y-133754895D01*
X145961066Y-133754895D01*
G04 #@! TO.C,C302*
X145940438Y-103540285D02*
X145901733Y-103578990D01*
X145785619Y-103617695D01*
X145708209Y-103617695D01*
X145592095Y-103578990D01*
X145514685Y-103501580D01*
X145475980Y-103424171D01*
X145437276Y-103269352D01*
X145437276Y-103153238D01*
X145475980Y-102998419D01*
X145514685Y-102921009D01*
X145592095Y-102843600D01*
X145708209Y-102804895D01*
X145785619Y-102804895D01*
X145901733Y-102843600D01*
X145940438Y-102882304D01*
X146211371Y-102804895D02*
X146714533Y-102804895D01*
X146443600Y-103114533D01*
X146559714Y-103114533D01*
X146637123Y-103153238D01*
X146675828Y-103191942D01*
X146714533Y-103269352D01*
X146714533Y-103462876D01*
X146675828Y-103540285D01*
X146637123Y-103578990D01*
X146559714Y-103617695D01*
X146327485Y-103617695D01*
X146250076Y-103578990D01*
X146211371Y-103540285D01*
X147217695Y-102804895D02*
X147295104Y-102804895D01*
X147372514Y-102843600D01*
X147411219Y-102882304D01*
X147449923Y-102959714D01*
X147488628Y-103114533D01*
X147488628Y-103308057D01*
X147449923Y-103462876D01*
X147411219Y-103540285D01*
X147372514Y-103578990D01*
X147295104Y-103617695D01*
X147217695Y-103617695D01*
X147140285Y-103578990D01*
X147101580Y-103540285D01*
X147062876Y-103462876D01*
X147024171Y-103308057D01*
X147024171Y-103114533D01*
X147062876Y-102959714D01*
X147101580Y-102882304D01*
X147140285Y-102843600D01*
X147217695Y-102804895D01*
X147798266Y-102882304D02*
X147836971Y-102843600D01*
X147914380Y-102804895D01*
X148107904Y-102804895D01*
X148185314Y-102843600D01*
X148224019Y-102882304D01*
X148262723Y-102959714D01*
X148262723Y-103037123D01*
X148224019Y-103153238D01*
X147759561Y-103617695D01*
X148262723Y-103617695D01*
X145942095Y-104717695D02*
X145477638Y-104717695D01*
X145709866Y-104717695D02*
X145709866Y-103904895D01*
X145632457Y-104021009D01*
X145555047Y-104098419D01*
X145477638Y-104137123D01*
X146445257Y-103904895D02*
X146522666Y-103904895D01*
X146600076Y-103943600D01*
X146638780Y-103982304D01*
X146677485Y-104059714D01*
X146716190Y-104214533D01*
X146716190Y-104408057D01*
X146677485Y-104562876D01*
X146638780Y-104640285D01*
X146600076Y-104678990D01*
X146522666Y-104717695D01*
X146445257Y-104717695D01*
X146367847Y-104678990D01*
X146329142Y-104640285D01*
X146290438Y-104562876D01*
X146251733Y-104408057D01*
X146251733Y-104214533D01*
X146290438Y-104059714D01*
X146329142Y-103982304D01*
X146367847Y-103943600D01*
X146445257Y-103904895D01*
X147219352Y-103904895D02*
X147296761Y-103904895D01*
X147374171Y-103943600D01*
X147412876Y-103982304D01*
X147451580Y-104059714D01*
X147490285Y-104214533D01*
X147490285Y-104408057D01*
X147451580Y-104562876D01*
X147412876Y-104640285D01*
X147374171Y-104678990D01*
X147296761Y-104717695D01*
X147219352Y-104717695D01*
X147141942Y-104678990D01*
X147103238Y-104640285D01*
X147064533Y-104562876D01*
X147025828Y-104408057D01*
X147025828Y-104214533D01*
X147064533Y-104059714D01*
X147103238Y-103982304D01*
X147141942Y-103943600D01*
X147219352Y-103904895D01*
X147838628Y-104175828D02*
X147838628Y-104717695D01*
X147838628Y-104253238D02*
X147877333Y-104214533D01*
X147954742Y-104175828D01*
X148070857Y-104175828D01*
X148148266Y-104214533D01*
X148186971Y-104291942D01*
X148186971Y-104717695D01*
X148844952Y-104291942D02*
X148574019Y-104291942D01*
X148574019Y-104717695D02*
X148574019Y-103904895D01*
X148961066Y-103904895D01*
G04 #@! TO.C,C303*
X149040438Y-107990285D02*
X149001733Y-108028990D01*
X148885619Y-108067695D01*
X148808209Y-108067695D01*
X148692095Y-108028990D01*
X148614685Y-107951580D01*
X148575980Y-107874171D01*
X148537276Y-107719352D01*
X148537276Y-107603238D01*
X148575980Y-107448419D01*
X148614685Y-107371009D01*
X148692095Y-107293600D01*
X148808209Y-107254895D01*
X148885619Y-107254895D01*
X149001733Y-107293600D01*
X149040438Y-107332304D01*
X149311371Y-107254895D02*
X149814533Y-107254895D01*
X149543600Y-107564533D01*
X149659714Y-107564533D01*
X149737123Y-107603238D01*
X149775828Y-107641942D01*
X149814533Y-107719352D01*
X149814533Y-107912876D01*
X149775828Y-107990285D01*
X149737123Y-108028990D01*
X149659714Y-108067695D01*
X149427485Y-108067695D01*
X149350076Y-108028990D01*
X149311371Y-107990285D01*
X150317695Y-107254895D02*
X150395104Y-107254895D01*
X150472514Y-107293600D01*
X150511219Y-107332304D01*
X150549923Y-107409714D01*
X150588628Y-107564533D01*
X150588628Y-107758057D01*
X150549923Y-107912876D01*
X150511219Y-107990285D01*
X150472514Y-108028990D01*
X150395104Y-108067695D01*
X150317695Y-108067695D01*
X150240285Y-108028990D01*
X150201580Y-107990285D01*
X150162876Y-107912876D01*
X150124171Y-107758057D01*
X150124171Y-107564533D01*
X150162876Y-107409714D01*
X150201580Y-107332304D01*
X150240285Y-107293600D01*
X150317695Y-107254895D01*
X150859561Y-107254895D02*
X151362723Y-107254895D01*
X151091790Y-107564533D01*
X151207904Y-107564533D01*
X151285314Y-107603238D01*
X151324019Y-107641942D01*
X151362723Y-107719352D01*
X151362723Y-107912876D01*
X151324019Y-107990285D01*
X151285314Y-108028990D01*
X151207904Y-108067695D01*
X150975676Y-108067695D01*
X150898266Y-108028990D01*
X150859561Y-107990285D01*
X149042095Y-109117695D02*
X148577638Y-109117695D01*
X148809866Y-109117695D02*
X148809866Y-108304895D01*
X148732457Y-108421009D01*
X148655047Y-108498419D01*
X148577638Y-108537123D01*
X149545257Y-108304895D02*
X149622666Y-108304895D01*
X149700076Y-108343600D01*
X149738780Y-108382304D01*
X149777485Y-108459714D01*
X149816190Y-108614533D01*
X149816190Y-108808057D01*
X149777485Y-108962876D01*
X149738780Y-109040285D01*
X149700076Y-109078990D01*
X149622666Y-109117695D01*
X149545257Y-109117695D01*
X149467847Y-109078990D01*
X149429142Y-109040285D01*
X149390438Y-108962876D01*
X149351733Y-108808057D01*
X149351733Y-108614533D01*
X149390438Y-108459714D01*
X149429142Y-108382304D01*
X149467847Y-108343600D01*
X149545257Y-108304895D01*
X150319352Y-108304895D02*
X150396761Y-108304895D01*
X150474171Y-108343600D01*
X150512876Y-108382304D01*
X150551580Y-108459714D01*
X150590285Y-108614533D01*
X150590285Y-108808057D01*
X150551580Y-108962876D01*
X150512876Y-109040285D01*
X150474171Y-109078990D01*
X150396761Y-109117695D01*
X150319352Y-109117695D01*
X150241942Y-109078990D01*
X150203238Y-109040285D01*
X150164533Y-108962876D01*
X150125828Y-108808057D01*
X150125828Y-108614533D01*
X150164533Y-108459714D01*
X150203238Y-108382304D01*
X150241942Y-108343600D01*
X150319352Y-108304895D01*
X150938628Y-108575828D02*
X150938628Y-109117695D01*
X150938628Y-108653238D02*
X150977333Y-108614533D01*
X151054742Y-108575828D01*
X151170857Y-108575828D01*
X151248266Y-108614533D01*
X151286971Y-108691942D01*
X151286971Y-109117695D01*
X151944952Y-108691942D02*
X151674019Y-108691942D01*
X151674019Y-109117695D02*
X151674019Y-108304895D01*
X152061066Y-108304895D01*
G04 #@! TO.C,C304*
X133640438Y-94290285D02*
X133601733Y-94328990D01*
X133485619Y-94367695D01*
X133408209Y-94367695D01*
X133292095Y-94328990D01*
X133214685Y-94251580D01*
X133175980Y-94174171D01*
X133137276Y-94019352D01*
X133137276Y-93903238D01*
X133175980Y-93748419D01*
X133214685Y-93671009D01*
X133292095Y-93593600D01*
X133408209Y-93554895D01*
X133485619Y-93554895D01*
X133601733Y-93593600D01*
X133640438Y-93632304D01*
X133911371Y-93554895D02*
X134414533Y-93554895D01*
X134143600Y-93864533D01*
X134259714Y-93864533D01*
X134337123Y-93903238D01*
X134375828Y-93941942D01*
X134414533Y-94019352D01*
X134414533Y-94212876D01*
X134375828Y-94290285D01*
X134337123Y-94328990D01*
X134259714Y-94367695D01*
X134027485Y-94367695D01*
X133950076Y-94328990D01*
X133911371Y-94290285D01*
X134917695Y-93554895D02*
X134995104Y-93554895D01*
X135072514Y-93593600D01*
X135111219Y-93632304D01*
X135149923Y-93709714D01*
X135188628Y-93864533D01*
X135188628Y-94058057D01*
X135149923Y-94212876D01*
X135111219Y-94290285D01*
X135072514Y-94328990D01*
X134995104Y-94367695D01*
X134917695Y-94367695D01*
X134840285Y-94328990D01*
X134801580Y-94290285D01*
X134762876Y-94212876D01*
X134724171Y-94058057D01*
X134724171Y-93864533D01*
X134762876Y-93709714D01*
X134801580Y-93632304D01*
X134840285Y-93593600D01*
X134917695Y-93554895D01*
X135885314Y-93825828D02*
X135885314Y-94367695D01*
X135691790Y-93516190D02*
X135498266Y-94096761D01*
X136001428Y-94096761D01*
X133542095Y-95417695D02*
X133077638Y-95417695D01*
X133309866Y-95417695D02*
X133309866Y-94604895D01*
X133232457Y-94721009D01*
X133155047Y-94798419D01*
X133077638Y-94837123D01*
X134045257Y-94604895D02*
X134122666Y-94604895D01*
X134200076Y-94643600D01*
X134238780Y-94682304D01*
X134277485Y-94759714D01*
X134316190Y-94914533D01*
X134316190Y-95108057D01*
X134277485Y-95262876D01*
X134238780Y-95340285D01*
X134200076Y-95378990D01*
X134122666Y-95417695D01*
X134045257Y-95417695D01*
X133967847Y-95378990D01*
X133929142Y-95340285D01*
X133890438Y-95262876D01*
X133851733Y-95108057D01*
X133851733Y-94914533D01*
X133890438Y-94759714D01*
X133929142Y-94682304D01*
X133967847Y-94643600D01*
X134045257Y-94604895D01*
X134819352Y-94604895D02*
X134896761Y-94604895D01*
X134974171Y-94643600D01*
X135012876Y-94682304D01*
X135051580Y-94759714D01*
X135090285Y-94914533D01*
X135090285Y-95108057D01*
X135051580Y-95262876D01*
X135012876Y-95340285D01*
X134974171Y-95378990D01*
X134896761Y-95417695D01*
X134819352Y-95417695D01*
X134741942Y-95378990D01*
X134703238Y-95340285D01*
X134664533Y-95262876D01*
X134625828Y-95108057D01*
X134625828Y-94914533D01*
X134664533Y-94759714D01*
X134703238Y-94682304D01*
X134741942Y-94643600D01*
X134819352Y-94604895D01*
X135438628Y-94875828D02*
X135438628Y-95417695D01*
X135438628Y-94953238D02*
X135477333Y-94914533D01*
X135554742Y-94875828D01*
X135670857Y-94875828D01*
X135748266Y-94914533D01*
X135786971Y-94991942D01*
X135786971Y-95417695D01*
X136444952Y-94991942D02*
X136174019Y-94991942D01*
X136174019Y-95417695D02*
X136174019Y-94604895D01*
X136561066Y-94604895D01*
G04 #@! TO.C,C305*
X130490285Y-112859561D02*
X130528990Y-112898266D01*
X130567695Y-113014380D01*
X130567695Y-113091790D01*
X130528990Y-113207904D01*
X130451580Y-113285314D01*
X130374171Y-113324019D01*
X130219352Y-113362723D01*
X130103238Y-113362723D01*
X129948419Y-113324019D01*
X129871009Y-113285314D01*
X129793600Y-113207904D01*
X129754895Y-113091790D01*
X129754895Y-113014380D01*
X129793600Y-112898266D01*
X129832304Y-112859561D01*
X129754895Y-112588628D02*
X129754895Y-112085466D01*
X130064533Y-112356400D01*
X130064533Y-112240285D01*
X130103238Y-112162876D01*
X130141942Y-112124171D01*
X130219352Y-112085466D01*
X130412876Y-112085466D01*
X130490285Y-112124171D01*
X130528990Y-112162876D01*
X130567695Y-112240285D01*
X130567695Y-112472514D01*
X130528990Y-112549923D01*
X130490285Y-112588628D01*
X129754895Y-111582304D02*
X129754895Y-111504895D01*
X129793600Y-111427485D01*
X129832304Y-111388780D01*
X129909714Y-111350076D01*
X130064533Y-111311371D01*
X130258057Y-111311371D01*
X130412876Y-111350076D01*
X130490285Y-111388780D01*
X130528990Y-111427485D01*
X130567695Y-111504895D01*
X130567695Y-111582304D01*
X130528990Y-111659714D01*
X130490285Y-111698419D01*
X130412876Y-111737123D01*
X130258057Y-111775828D01*
X130064533Y-111775828D01*
X129909714Y-111737123D01*
X129832304Y-111698419D01*
X129793600Y-111659714D01*
X129754895Y-111582304D01*
X129754895Y-110575980D02*
X129754895Y-110963028D01*
X130141942Y-111001733D01*
X130103238Y-110963028D01*
X130064533Y-110885619D01*
X130064533Y-110692095D01*
X130103238Y-110614685D01*
X130141942Y-110575980D01*
X130219352Y-110537276D01*
X130412876Y-110537276D01*
X130490285Y-110575980D01*
X130528990Y-110614685D01*
X130567695Y-110692095D01*
X130567695Y-110885619D01*
X130528990Y-110963028D01*
X130490285Y-111001733D01*
G04 #@! TO.C,C306*
X140340438Y-115090285D02*
X140301733Y-115128990D01*
X140185619Y-115167695D01*
X140108209Y-115167695D01*
X139992095Y-115128990D01*
X139914685Y-115051580D01*
X139875980Y-114974171D01*
X139837276Y-114819352D01*
X139837276Y-114703238D01*
X139875980Y-114548419D01*
X139914685Y-114471009D01*
X139992095Y-114393600D01*
X140108209Y-114354895D01*
X140185619Y-114354895D01*
X140301733Y-114393600D01*
X140340438Y-114432304D01*
X140611371Y-114354895D02*
X141114533Y-114354895D01*
X140843600Y-114664533D01*
X140959714Y-114664533D01*
X141037123Y-114703238D01*
X141075828Y-114741942D01*
X141114533Y-114819352D01*
X141114533Y-115012876D01*
X141075828Y-115090285D01*
X141037123Y-115128990D01*
X140959714Y-115167695D01*
X140727485Y-115167695D01*
X140650076Y-115128990D01*
X140611371Y-115090285D01*
X141617695Y-114354895D02*
X141695104Y-114354895D01*
X141772514Y-114393600D01*
X141811219Y-114432304D01*
X141849923Y-114509714D01*
X141888628Y-114664533D01*
X141888628Y-114858057D01*
X141849923Y-115012876D01*
X141811219Y-115090285D01*
X141772514Y-115128990D01*
X141695104Y-115167695D01*
X141617695Y-115167695D01*
X141540285Y-115128990D01*
X141501580Y-115090285D01*
X141462876Y-115012876D01*
X141424171Y-114858057D01*
X141424171Y-114664533D01*
X141462876Y-114509714D01*
X141501580Y-114432304D01*
X141540285Y-114393600D01*
X141617695Y-114354895D01*
X142585314Y-114354895D02*
X142430495Y-114354895D01*
X142353085Y-114393600D01*
X142314380Y-114432304D01*
X142236971Y-114548419D01*
X142198266Y-114703238D01*
X142198266Y-115012876D01*
X142236971Y-115090285D01*
X142275676Y-115128990D01*
X142353085Y-115167695D01*
X142507904Y-115167695D01*
X142585314Y-115128990D01*
X142624019Y-115090285D01*
X142662723Y-115012876D01*
X142662723Y-114819352D01*
X142624019Y-114741942D01*
X142585314Y-114703238D01*
X142507904Y-114664533D01*
X142353085Y-114664533D01*
X142275676Y-114703238D01*
X142236971Y-114741942D01*
X142198266Y-114819352D01*
X140392095Y-116767695D02*
X139927638Y-116767695D01*
X140159866Y-116767695D02*
X140159866Y-115954895D01*
X140082457Y-116071009D01*
X140005047Y-116148419D01*
X139927638Y-116187123D01*
X140895257Y-115954895D02*
X140972666Y-115954895D01*
X141050076Y-115993600D01*
X141088780Y-116032304D01*
X141127485Y-116109714D01*
X141166190Y-116264533D01*
X141166190Y-116458057D01*
X141127485Y-116612876D01*
X141088780Y-116690285D01*
X141050076Y-116728990D01*
X140972666Y-116767695D01*
X140895257Y-116767695D01*
X140817847Y-116728990D01*
X140779142Y-116690285D01*
X140740438Y-116612876D01*
X140701733Y-116458057D01*
X140701733Y-116264533D01*
X140740438Y-116109714D01*
X140779142Y-116032304D01*
X140817847Y-115993600D01*
X140895257Y-115954895D01*
X141669352Y-115954895D02*
X141746761Y-115954895D01*
X141824171Y-115993600D01*
X141862876Y-116032304D01*
X141901580Y-116109714D01*
X141940285Y-116264533D01*
X141940285Y-116458057D01*
X141901580Y-116612876D01*
X141862876Y-116690285D01*
X141824171Y-116728990D01*
X141746761Y-116767695D01*
X141669352Y-116767695D01*
X141591942Y-116728990D01*
X141553238Y-116690285D01*
X141514533Y-116612876D01*
X141475828Y-116458057D01*
X141475828Y-116264533D01*
X141514533Y-116109714D01*
X141553238Y-116032304D01*
X141591942Y-115993600D01*
X141669352Y-115954895D01*
X142288628Y-116225828D02*
X142288628Y-116767695D01*
X142288628Y-116303238D02*
X142327333Y-116264533D01*
X142404742Y-116225828D01*
X142520857Y-116225828D01*
X142598266Y-116264533D01*
X142636971Y-116341942D01*
X142636971Y-116767695D01*
X143294952Y-116341942D02*
X143024019Y-116341942D01*
X143024019Y-116767695D02*
X143024019Y-115954895D01*
X143411066Y-115954895D01*
G04 #@! TO.C,C307*
X129440438Y-97590285D02*
X129401733Y-97628990D01*
X129285619Y-97667695D01*
X129208209Y-97667695D01*
X129092095Y-97628990D01*
X129014685Y-97551580D01*
X128975980Y-97474171D01*
X128937276Y-97319352D01*
X128937276Y-97203238D01*
X128975980Y-97048419D01*
X129014685Y-96971009D01*
X129092095Y-96893600D01*
X129208209Y-96854895D01*
X129285619Y-96854895D01*
X129401733Y-96893600D01*
X129440438Y-96932304D01*
X129711371Y-96854895D02*
X130214533Y-96854895D01*
X129943600Y-97164533D01*
X130059714Y-97164533D01*
X130137123Y-97203238D01*
X130175828Y-97241942D01*
X130214533Y-97319352D01*
X130214533Y-97512876D01*
X130175828Y-97590285D01*
X130137123Y-97628990D01*
X130059714Y-97667695D01*
X129827485Y-97667695D01*
X129750076Y-97628990D01*
X129711371Y-97590285D01*
X130717695Y-96854895D02*
X130795104Y-96854895D01*
X130872514Y-96893600D01*
X130911219Y-96932304D01*
X130949923Y-97009714D01*
X130988628Y-97164533D01*
X130988628Y-97358057D01*
X130949923Y-97512876D01*
X130911219Y-97590285D01*
X130872514Y-97628990D01*
X130795104Y-97667695D01*
X130717695Y-97667695D01*
X130640285Y-97628990D01*
X130601580Y-97590285D01*
X130562876Y-97512876D01*
X130524171Y-97358057D01*
X130524171Y-97164533D01*
X130562876Y-97009714D01*
X130601580Y-96932304D01*
X130640285Y-96893600D01*
X130717695Y-96854895D01*
X131259561Y-96854895D02*
X131801428Y-96854895D01*
X131453085Y-97667695D01*
G04 #@! TO.C,C308*
X130540285Y-118609561D02*
X130578990Y-118648266D01*
X130617695Y-118764380D01*
X130617695Y-118841790D01*
X130578990Y-118957904D01*
X130501580Y-119035314D01*
X130424171Y-119074019D01*
X130269352Y-119112723D01*
X130153238Y-119112723D01*
X129998419Y-119074019D01*
X129921009Y-119035314D01*
X129843600Y-118957904D01*
X129804895Y-118841790D01*
X129804895Y-118764380D01*
X129843600Y-118648266D01*
X129882304Y-118609561D01*
X129804895Y-118338628D02*
X129804895Y-117835466D01*
X130114533Y-118106400D01*
X130114533Y-117990285D01*
X130153238Y-117912876D01*
X130191942Y-117874171D01*
X130269352Y-117835466D01*
X130462876Y-117835466D01*
X130540285Y-117874171D01*
X130578990Y-117912876D01*
X130617695Y-117990285D01*
X130617695Y-118222514D01*
X130578990Y-118299923D01*
X130540285Y-118338628D01*
X129804895Y-117332304D02*
X129804895Y-117254895D01*
X129843600Y-117177485D01*
X129882304Y-117138780D01*
X129959714Y-117100076D01*
X130114533Y-117061371D01*
X130308057Y-117061371D01*
X130462876Y-117100076D01*
X130540285Y-117138780D01*
X130578990Y-117177485D01*
X130617695Y-117254895D01*
X130617695Y-117332304D01*
X130578990Y-117409714D01*
X130540285Y-117448419D01*
X130462876Y-117487123D01*
X130308057Y-117525828D01*
X130114533Y-117525828D01*
X129959714Y-117487123D01*
X129882304Y-117448419D01*
X129843600Y-117409714D01*
X129804895Y-117332304D01*
X130153238Y-116596914D02*
X130114533Y-116674323D01*
X130075828Y-116713028D01*
X129998419Y-116751733D01*
X129959714Y-116751733D01*
X129882304Y-116713028D01*
X129843600Y-116674323D01*
X129804895Y-116596914D01*
X129804895Y-116442095D01*
X129843600Y-116364685D01*
X129882304Y-116325980D01*
X129959714Y-116287276D01*
X129998419Y-116287276D01*
X130075828Y-116325980D01*
X130114533Y-116364685D01*
X130153238Y-116442095D01*
X130153238Y-116596914D01*
X130191942Y-116674323D01*
X130230647Y-116713028D01*
X130308057Y-116751733D01*
X130462876Y-116751733D01*
X130540285Y-116713028D01*
X130578990Y-116674323D01*
X130617695Y-116596914D01*
X130617695Y-116442095D01*
X130578990Y-116364685D01*
X130540285Y-116325980D01*
X130462876Y-116287276D01*
X130308057Y-116287276D01*
X130230647Y-116325980D01*
X130191942Y-116364685D01*
X130153238Y-116442095D01*
G04 #@! TO.C,F201*
X187204971Y-124191942D02*
X186934038Y-124191942D01*
X186934038Y-124617695D02*
X186934038Y-123804895D01*
X187321085Y-123804895D01*
X187592019Y-123882304D02*
X187630723Y-123843600D01*
X187708133Y-123804895D01*
X187901657Y-123804895D01*
X187979066Y-123843600D01*
X188017771Y-123882304D01*
X188056476Y-123959714D01*
X188056476Y-124037123D01*
X188017771Y-124153238D01*
X187553314Y-124617695D01*
X188056476Y-124617695D01*
X188559638Y-123804895D02*
X188637047Y-123804895D01*
X188714457Y-123843600D01*
X188753161Y-123882304D01*
X188791866Y-123959714D01*
X188830571Y-124114533D01*
X188830571Y-124308057D01*
X188791866Y-124462876D01*
X188753161Y-124540285D01*
X188714457Y-124578990D01*
X188637047Y-124617695D01*
X188559638Y-124617695D01*
X188482228Y-124578990D01*
X188443523Y-124540285D01*
X188404819Y-124462876D01*
X188366114Y-124308057D01*
X188366114Y-124114533D01*
X188404819Y-123959714D01*
X188443523Y-123882304D01*
X188482228Y-123843600D01*
X188559638Y-123804895D01*
X189604666Y-124617695D02*
X189140209Y-124617695D01*
X189372438Y-124617695D02*
X189372438Y-123804895D01*
X189295028Y-123921009D01*
X189217619Y-123998419D01*
X189140209Y-124037123D01*
G04 #@! TO.C,X301*
X133067923Y-115604895D02*
X133609790Y-116417695D01*
X133609790Y-115604895D02*
X133067923Y-116417695D01*
X133842019Y-115604895D02*
X134345180Y-115604895D01*
X134074247Y-115914533D01*
X134190361Y-115914533D01*
X134267771Y-115953238D01*
X134306476Y-115991942D01*
X134345180Y-116069352D01*
X134345180Y-116262876D01*
X134306476Y-116340285D01*
X134267771Y-116378990D01*
X134190361Y-116417695D01*
X133958133Y-116417695D01*
X133880723Y-116378990D01*
X133842019Y-116340285D01*
X134848342Y-115604895D02*
X134925752Y-115604895D01*
X135003161Y-115643600D01*
X135041866Y-115682304D01*
X135080571Y-115759714D01*
X135119276Y-115914533D01*
X135119276Y-116108057D01*
X135080571Y-116262876D01*
X135041866Y-116340285D01*
X135003161Y-116378990D01*
X134925752Y-116417695D01*
X134848342Y-116417695D01*
X134770933Y-116378990D01*
X134732228Y-116340285D01*
X134693523Y-116262876D01*
X134654819Y-116108057D01*
X134654819Y-115914533D01*
X134693523Y-115759714D01*
X134732228Y-115682304D01*
X134770933Y-115643600D01*
X134848342Y-115604895D01*
X135893371Y-116417695D02*
X135428914Y-116417695D01*
X135661142Y-116417695D02*
X135661142Y-115604895D01*
X135583733Y-115721009D01*
X135506323Y-115798419D01*
X135428914Y-115837123D01*
G04 #@! TO.C,C201*
X182140438Y-136490285D02*
X182101733Y-136528990D01*
X181985619Y-136567695D01*
X181908209Y-136567695D01*
X181792095Y-136528990D01*
X181714685Y-136451580D01*
X181675980Y-136374171D01*
X181637276Y-136219352D01*
X181637276Y-136103238D01*
X181675980Y-135948419D01*
X181714685Y-135871009D01*
X181792095Y-135793600D01*
X181908209Y-135754895D01*
X181985619Y-135754895D01*
X182101733Y-135793600D01*
X182140438Y-135832304D01*
X182450076Y-135832304D02*
X182488780Y-135793600D01*
X182566190Y-135754895D01*
X182759714Y-135754895D01*
X182837123Y-135793600D01*
X182875828Y-135832304D01*
X182914533Y-135909714D01*
X182914533Y-135987123D01*
X182875828Y-136103238D01*
X182411371Y-136567695D01*
X182914533Y-136567695D01*
X183417695Y-135754895D02*
X183495104Y-135754895D01*
X183572514Y-135793600D01*
X183611219Y-135832304D01*
X183649923Y-135909714D01*
X183688628Y-136064533D01*
X183688628Y-136258057D01*
X183649923Y-136412876D01*
X183611219Y-136490285D01*
X183572514Y-136528990D01*
X183495104Y-136567695D01*
X183417695Y-136567695D01*
X183340285Y-136528990D01*
X183301580Y-136490285D01*
X183262876Y-136412876D01*
X183224171Y-136258057D01*
X183224171Y-136064533D01*
X183262876Y-135909714D01*
X183301580Y-135832304D01*
X183340285Y-135793600D01*
X183417695Y-135754895D01*
X184462723Y-136567695D02*
X183998266Y-136567695D01*
X184230495Y-136567695D02*
X184230495Y-135754895D01*
X184153085Y-135871009D01*
X184075676Y-135948419D01*
X183998266Y-135987123D01*
X182142095Y-135367695D02*
X181677638Y-135367695D01*
X181909866Y-135367695D02*
X181909866Y-134554895D01*
X181832457Y-134671009D01*
X181755047Y-134748419D01*
X181677638Y-134787123D01*
X182645257Y-134554895D02*
X182722666Y-134554895D01*
X182800076Y-134593600D01*
X182838780Y-134632304D01*
X182877485Y-134709714D01*
X182916190Y-134864533D01*
X182916190Y-135058057D01*
X182877485Y-135212876D01*
X182838780Y-135290285D01*
X182800076Y-135328990D01*
X182722666Y-135367695D01*
X182645257Y-135367695D01*
X182567847Y-135328990D01*
X182529142Y-135290285D01*
X182490438Y-135212876D01*
X182451733Y-135058057D01*
X182451733Y-134864533D01*
X182490438Y-134709714D01*
X182529142Y-134632304D01*
X182567847Y-134593600D01*
X182645257Y-134554895D01*
X183419352Y-134554895D02*
X183496761Y-134554895D01*
X183574171Y-134593600D01*
X183612876Y-134632304D01*
X183651580Y-134709714D01*
X183690285Y-134864533D01*
X183690285Y-135058057D01*
X183651580Y-135212876D01*
X183612876Y-135290285D01*
X183574171Y-135328990D01*
X183496761Y-135367695D01*
X183419352Y-135367695D01*
X183341942Y-135328990D01*
X183303238Y-135290285D01*
X183264533Y-135212876D01*
X183225828Y-135058057D01*
X183225828Y-134864533D01*
X183264533Y-134709714D01*
X183303238Y-134632304D01*
X183341942Y-134593600D01*
X183419352Y-134554895D01*
X184038628Y-134825828D02*
X184038628Y-135367695D01*
X184038628Y-134903238D02*
X184077333Y-134864533D01*
X184154742Y-134825828D01*
X184270857Y-134825828D01*
X184348266Y-134864533D01*
X184386971Y-134941942D01*
X184386971Y-135367695D01*
X185044952Y-134941942D02*
X184774019Y-134941942D01*
X184774019Y-135367695D02*
X184774019Y-134554895D01*
X185161066Y-134554895D01*
G04 #@! TO.C,C309*
X138390438Y-118490285D02*
X138351733Y-118528990D01*
X138235619Y-118567695D01*
X138158209Y-118567695D01*
X138042095Y-118528990D01*
X137964685Y-118451580D01*
X137925980Y-118374171D01*
X137887276Y-118219352D01*
X137887276Y-118103238D01*
X137925980Y-117948419D01*
X137964685Y-117871009D01*
X138042095Y-117793600D01*
X138158209Y-117754895D01*
X138235619Y-117754895D01*
X138351733Y-117793600D01*
X138390438Y-117832304D01*
X138661371Y-117754895D02*
X139164533Y-117754895D01*
X138893600Y-118064533D01*
X139009714Y-118064533D01*
X139087123Y-118103238D01*
X139125828Y-118141942D01*
X139164533Y-118219352D01*
X139164533Y-118412876D01*
X139125828Y-118490285D01*
X139087123Y-118528990D01*
X139009714Y-118567695D01*
X138777485Y-118567695D01*
X138700076Y-118528990D01*
X138661371Y-118490285D01*
X139667695Y-117754895D02*
X139745104Y-117754895D01*
X139822514Y-117793600D01*
X139861219Y-117832304D01*
X139899923Y-117909714D01*
X139938628Y-118064533D01*
X139938628Y-118258057D01*
X139899923Y-118412876D01*
X139861219Y-118490285D01*
X139822514Y-118528990D01*
X139745104Y-118567695D01*
X139667695Y-118567695D01*
X139590285Y-118528990D01*
X139551580Y-118490285D01*
X139512876Y-118412876D01*
X139474171Y-118258057D01*
X139474171Y-118064533D01*
X139512876Y-117909714D01*
X139551580Y-117832304D01*
X139590285Y-117793600D01*
X139667695Y-117754895D01*
X140325676Y-118567695D02*
X140480495Y-118567695D01*
X140557904Y-118528990D01*
X140596609Y-118490285D01*
X140674019Y-118374171D01*
X140712723Y-118219352D01*
X140712723Y-117909714D01*
X140674019Y-117832304D01*
X140635314Y-117793600D01*
X140557904Y-117754895D01*
X140403085Y-117754895D01*
X140325676Y-117793600D01*
X140286971Y-117832304D01*
X140248266Y-117909714D01*
X140248266Y-118103238D01*
X140286971Y-118180647D01*
X140325676Y-118219352D01*
X140403085Y-118258057D01*
X140557904Y-118258057D01*
X140635314Y-118219352D01*
X140674019Y-118180647D01*
X140712723Y-118103238D01*
G04 #@! TO.C,J301*
X139054971Y-124104895D02*
X139054971Y-124685466D01*
X139016266Y-124801580D01*
X138938857Y-124878990D01*
X138822742Y-124917695D01*
X138745333Y-124917695D01*
X139364609Y-124104895D02*
X139867771Y-124104895D01*
X139596838Y-124414533D01*
X139712952Y-124414533D01*
X139790361Y-124453238D01*
X139829066Y-124491942D01*
X139867771Y-124569352D01*
X139867771Y-124762876D01*
X139829066Y-124840285D01*
X139790361Y-124878990D01*
X139712952Y-124917695D01*
X139480723Y-124917695D01*
X139403314Y-124878990D01*
X139364609Y-124840285D01*
X140370933Y-124104895D02*
X140448342Y-124104895D01*
X140525752Y-124143600D01*
X140564457Y-124182304D01*
X140603161Y-124259714D01*
X140641866Y-124414533D01*
X140641866Y-124608057D01*
X140603161Y-124762876D01*
X140564457Y-124840285D01*
X140525752Y-124878990D01*
X140448342Y-124917695D01*
X140370933Y-124917695D01*
X140293523Y-124878990D01*
X140254819Y-124840285D01*
X140216114Y-124762876D01*
X140177409Y-124608057D01*
X140177409Y-124414533D01*
X140216114Y-124259714D01*
X140254819Y-124182304D01*
X140293523Y-124143600D01*
X140370933Y-124104895D01*
X141415961Y-124917695D02*
X140951504Y-124917695D01*
X141183733Y-124917695D02*
X141183733Y-124104895D01*
X141106323Y-124221009D01*
X141028914Y-124298419D01*
X140951504Y-124337123D01*
G04 #@! TO.C,C204*
D18*
X158580952Y-135557142D02*
X158533333Y-135604761D01*
X158390476Y-135652380D01*
X158295238Y-135652380D01*
X158152380Y-135604761D01*
X158057142Y-135509523D01*
X158009523Y-135414285D01*
X157961904Y-135223809D01*
X157961904Y-135080952D01*
X158009523Y-134890476D01*
X158057142Y-134795238D01*
X158152380Y-134700000D01*
X158295238Y-134652380D01*
X158390476Y-134652380D01*
X158533333Y-134700000D01*
X158580952Y-134747619D01*
X158961904Y-134747619D02*
X159009523Y-134700000D01*
X159104761Y-134652380D01*
X159342857Y-134652380D01*
X159438095Y-134700000D01*
X159485714Y-134747619D01*
X159533333Y-134842857D01*
X159533333Y-134938095D01*
X159485714Y-135080952D01*
X158914285Y-135652380D01*
X159533333Y-135652380D01*
X160152380Y-134652380D02*
X160247619Y-134652380D01*
X160342857Y-134700000D01*
X160390476Y-134747619D01*
X160438095Y-134842857D01*
X160485714Y-135033333D01*
X160485714Y-135271428D01*
X160438095Y-135461904D01*
X160390476Y-135557142D01*
X160342857Y-135604761D01*
X160247619Y-135652380D01*
X160152380Y-135652380D01*
X160057142Y-135604761D01*
X160009523Y-135557142D01*
X159961904Y-135461904D01*
X159914285Y-135271428D01*
X159914285Y-135033333D01*
X159961904Y-134842857D01*
X160009523Y-134747619D01*
X160057142Y-134700000D01*
X160152380Y-134652380D01*
X161342857Y-134985714D02*
X161342857Y-135652380D01*
X161104761Y-134604761D02*
X160866666Y-135319047D01*
X161485714Y-135319047D01*
G04 #@! TO.C,J102*
D16*
X162444628Y-71081971D02*
X162444628Y-72279400D01*
X162364800Y-72518885D01*
X162205142Y-72678542D01*
X161965657Y-72758371D01*
X161806000Y-72758371D01*
X164121028Y-72758371D02*
X163163085Y-72758371D01*
X163642057Y-72758371D02*
X163642057Y-71081971D01*
X163482400Y-71321457D01*
X163322742Y-71481114D01*
X163163085Y-71560942D01*
X165158800Y-71081971D02*
X165318457Y-71081971D01*
X165478114Y-71161800D01*
X165557942Y-71241628D01*
X165637771Y-71401285D01*
X165717600Y-71720600D01*
X165717600Y-72119742D01*
X165637771Y-72439057D01*
X165557942Y-72598714D01*
X165478114Y-72678542D01*
X165318457Y-72758371D01*
X165158800Y-72758371D01*
X164999142Y-72678542D01*
X164919314Y-72598714D01*
X164839485Y-72439057D01*
X164759657Y-72119742D01*
X164759657Y-71720600D01*
X164839485Y-71401285D01*
X164919314Y-71241628D01*
X164999142Y-71161800D01*
X165158800Y-71081971D01*
X166356228Y-71241628D02*
X166436057Y-71161800D01*
X166595714Y-71081971D01*
X166994857Y-71081971D01*
X167154514Y-71161800D01*
X167234342Y-71241628D01*
X167314171Y-71401285D01*
X167314171Y-71560942D01*
X167234342Y-71800428D01*
X166276400Y-72758371D01*
X167314171Y-72758371D01*
X145562171Y-74779400D02*
X146360457Y-74779400D01*
X145402514Y-75258371D02*
X145961314Y-73581971D01*
X146520114Y-75258371D01*
X147078914Y-75258371D02*
X147078914Y-73581971D01*
X147637714Y-74779400D01*
X148196514Y-73581971D01*
X148196514Y-75258371D01*
X148994800Y-75258371D02*
X148994800Y-73581971D01*
X149633428Y-73581971D01*
X149793085Y-73661800D01*
X149872914Y-73741628D01*
X149952742Y-73901285D01*
X149952742Y-74140771D01*
X149872914Y-74300428D01*
X149793085Y-74380257D01*
X149633428Y-74460085D01*
X148994800Y-74460085D01*
X150591371Y-75178542D02*
X150830857Y-75258371D01*
X151230000Y-75258371D01*
X151389657Y-75178542D01*
X151469485Y-75098714D01*
X151549314Y-74939057D01*
X151549314Y-74779400D01*
X151469485Y-74619742D01*
X151389657Y-74539914D01*
X151230000Y-74460085D01*
X150910685Y-74380257D01*
X150751028Y-74300428D01*
X150671200Y-74220600D01*
X150591371Y-74060942D01*
X150591371Y-73901285D01*
X150671200Y-73741628D01*
X150751028Y-73661800D01*
X150910685Y-73581971D01*
X151309828Y-73581971D01*
X151549314Y-73661800D01*
X152267771Y-74380257D02*
X152826571Y-74380257D01*
X153066057Y-75258371D02*
X152267771Y-75258371D01*
X152267771Y-73581971D01*
X153066057Y-73581971D01*
X153704685Y-74779400D02*
X154502971Y-74779400D01*
X153545028Y-75258371D02*
X154103828Y-73581971D01*
X154662628Y-75258371D01*
X156019714Y-75258371D02*
X155221428Y-75258371D01*
X155221428Y-73581971D01*
X156179371Y-75418028D02*
X157456628Y-75418028D01*
X157775942Y-73741628D02*
X157855771Y-73661800D01*
X158015428Y-73581971D01*
X158414571Y-73581971D01*
X158574228Y-73661800D01*
X158654057Y-73741628D01*
X158733885Y-73901285D01*
X158733885Y-74060942D01*
X158654057Y-74300428D01*
X157696114Y-75258371D01*
X158733885Y-75258371D01*
X159292685Y-73581971D02*
X160330457Y-73581971D01*
X159771657Y-74220600D01*
X160011142Y-74220600D01*
X160170800Y-74300428D01*
X160250628Y-74380257D01*
X160330457Y-74539914D01*
X160330457Y-74939057D01*
X160250628Y-75098714D01*
X160170800Y-75178542D01*
X160011142Y-75258371D01*
X159532171Y-75258371D01*
X159372514Y-75178542D01*
X159292685Y-75098714D01*
X160649771Y-75418028D02*
X161927028Y-75418028D01*
X162326171Y-75258371D02*
X162326171Y-73581971D01*
X162964800Y-73581971D01*
X163124457Y-73661800D01*
X163204285Y-73741628D01*
X163284114Y-73901285D01*
X163284114Y-74140771D01*
X163204285Y-74300428D01*
X163124457Y-74380257D01*
X162964800Y-74460085D01*
X162326171Y-74460085D01*
X164321885Y-73581971D02*
X164641200Y-73581971D01*
X164800857Y-73661800D01*
X164960514Y-73821457D01*
X165040342Y-74140771D01*
X165040342Y-74699571D01*
X164960514Y-75018885D01*
X164800857Y-75178542D01*
X164641200Y-75258371D01*
X164321885Y-75258371D01*
X164162228Y-75178542D01*
X164002571Y-75018885D01*
X163922742Y-74699571D01*
X163922742Y-74140771D01*
X164002571Y-73821457D01*
X164162228Y-73661800D01*
X164321885Y-73581971D01*
X165678971Y-75178542D02*
X165918457Y-75258371D01*
X166317600Y-75258371D01*
X166477257Y-75178542D01*
X166557085Y-75098714D01*
X166636914Y-74939057D01*
X166636914Y-74779400D01*
X166557085Y-74619742D01*
X166477257Y-74539914D01*
X166317600Y-74460085D01*
X165998285Y-74380257D01*
X165838628Y-74300428D01*
X165758800Y-74220600D01*
X165678971Y-74060942D01*
X165678971Y-73901285D01*
X165758800Y-73741628D01*
X165838628Y-73661800D01*
X165998285Y-73581971D01*
X166397428Y-73581971D01*
X166636914Y-73661800D01*
X166956228Y-75418028D02*
X168233485Y-75418028D01*
X169510742Y-75258371D02*
X168552800Y-75258371D01*
X169031771Y-75258371D02*
X169031771Y-73581971D01*
X168872114Y-73821457D01*
X168712457Y-73981114D01*
X168552800Y-74060942D01*
X170229200Y-74619742D02*
X171506457Y-74619742D01*
X172145085Y-73581971D02*
X173262685Y-73581971D01*
X172544228Y-75258371D01*
X173741657Y-73581971D02*
X174859257Y-73581971D01*
X174140800Y-75258371D01*
X176216342Y-73581971D02*
X175897028Y-73581971D01*
X175737371Y-73661800D01*
X175657542Y-73741628D01*
X175497885Y-73981114D01*
X175418057Y-74300428D01*
X175418057Y-74939057D01*
X175497885Y-75098714D01*
X175577714Y-75178542D01*
X175737371Y-75258371D01*
X176056685Y-75258371D01*
X176216342Y-75178542D01*
X176296171Y-75098714D01*
X176376000Y-74939057D01*
X176376000Y-74539914D01*
X176296171Y-74380257D01*
X176216342Y-74300428D01*
X176056685Y-74220600D01*
X175737371Y-74220600D01*
X175577714Y-74300428D01*
X175497885Y-74380257D01*
X175418057Y-74539914D01*
X177014628Y-73741628D02*
X177094457Y-73661800D01*
X177254114Y-73581971D01*
X177653257Y-73581971D01*
X177812914Y-73661800D01*
X177892742Y-73741628D01*
X177972571Y-73901285D01*
X177972571Y-74060942D01*
X177892742Y-74300428D01*
X176934800Y-75258371D01*
X177972571Y-75258371D01*
X178611200Y-73741628D02*
X178691028Y-73661800D01*
X178850685Y-73581971D01*
X179249828Y-73581971D01*
X179409485Y-73661800D01*
X179489314Y-73741628D01*
X179569142Y-73901285D01*
X179569142Y-74060942D01*
X179489314Y-74300428D01*
X178531371Y-75258371D01*
X179569142Y-75258371D01*
X180527085Y-74300428D02*
X180367428Y-74220600D01*
X180287600Y-74140771D01*
X180207771Y-73981114D01*
X180207771Y-73901285D01*
X180287600Y-73741628D01*
X180367428Y-73661800D01*
X180527085Y-73581971D01*
X180846400Y-73581971D01*
X181006057Y-73661800D01*
X181085885Y-73741628D01*
X181165714Y-73901285D01*
X181165714Y-73981114D01*
X181085885Y-74140771D01*
X181006057Y-74220600D01*
X180846400Y-74300428D01*
X180527085Y-74300428D01*
X180367428Y-74380257D01*
X180287600Y-74460085D01*
X180207771Y-74619742D01*
X180207771Y-74939057D01*
X180287600Y-75098714D01*
X180367428Y-75178542D01*
X180527085Y-75258371D01*
X180846400Y-75258371D01*
X181006057Y-75178542D01*
X181085885Y-75098714D01*
X181165714Y-74939057D01*
X181165714Y-74619742D01*
X181085885Y-74460085D01*
X181006057Y-74380257D01*
X180846400Y-74300428D01*
X181884171Y-74619742D02*
X183161428Y-74619742D01*
X184837828Y-75258371D02*
X183879885Y-75258371D01*
X184358857Y-75258371D02*
X184358857Y-73581971D01*
X184199200Y-73821457D01*
X184039542Y-73981114D01*
X183879885Y-74060942D01*
G04 #@! TO.C,J101*
D19*
X158667142Y-122604523D02*
X158667142Y-123511666D01*
X158606666Y-123693095D01*
X158485714Y-123814047D01*
X158304285Y-123874523D01*
X158183333Y-123874523D01*
X159937142Y-123874523D02*
X159211428Y-123874523D01*
X159574285Y-123874523D02*
X159574285Y-122604523D01*
X159453333Y-122785952D01*
X159332380Y-122906904D01*
X159211428Y-122967380D01*
X160723333Y-122604523D02*
X160844285Y-122604523D01*
X160965238Y-122665000D01*
X161025714Y-122725476D01*
X161086190Y-122846428D01*
X161146666Y-123088333D01*
X161146666Y-123390714D01*
X161086190Y-123632619D01*
X161025714Y-123753571D01*
X160965238Y-123814047D01*
X160844285Y-123874523D01*
X160723333Y-123874523D01*
X160602380Y-123814047D01*
X160541904Y-123753571D01*
X160481428Y-123632619D01*
X160420952Y-123390714D01*
X160420952Y-123088333D01*
X160481428Y-122846428D01*
X160541904Y-122725476D01*
X160602380Y-122665000D01*
X160723333Y-122604523D01*
X162356190Y-123874523D02*
X161630476Y-123874523D01*
X161993333Y-123874523D02*
X161993333Y-122604523D01*
X161872380Y-122785952D01*
X161751428Y-122906904D01*
X161630476Y-122967380D01*
X152727619Y-102711666D02*
X153332380Y-102711666D01*
X152606666Y-103074523D02*
X153030000Y-101804523D01*
X153453333Y-103074523D01*
X153876666Y-103074523D02*
X153876666Y-101804523D01*
X154300000Y-102711666D01*
X154723333Y-101804523D01*
X154723333Y-103074523D01*
X155328095Y-103074523D02*
X155328095Y-101804523D01*
X155811904Y-101804523D01*
X155932857Y-101865000D01*
X155993333Y-101925476D01*
X156053809Y-102046428D01*
X156053809Y-102227857D01*
X155993333Y-102348809D01*
X155932857Y-102409285D01*
X155811904Y-102469761D01*
X155328095Y-102469761D01*
X156537619Y-103014047D02*
X156719047Y-103074523D01*
X157021428Y-103074523D01*
X157142380Y-103014047D01*
X157202857Y-102953571D01*
X157263333Y-102832619D01*
X157263333Y-102711666D01*
X157202857Y-102590714D01*
X157142380Y-102530238D01*
X157021428Y-102469761D01*
X156779523Y-102409285D01*
X156658571Y-102348809D01*
X156598095Y-102288333D01*
X156537619Y-102167380D01*
X156537619Y-102046428D01*
X156598095Y-101925476D01*
X156658571Y-101865000D01*
X156779523Y-101804523D01*
X157081904Y-101804523D01*
X157263333Y-101865000D01*
X157807619Y-102409285D02*
X158230952Y-102409285D01*
X158412380Y-103074523D02*
X157807619Y-103074523D01*
X157807619Y-101804523D01*
X158412380Y-101804523D01*
X158896190Y-102711666D02*
X159500952Y-102711666D01*
X158775238Y-103074523D02*
X159198571Y-101804523D01*
X159621904Y-103074523D01*
X160650000Y-103074523D02*
X160045238Y-103074523D01*
X160045238Y-101804523D01*
X160770952Y-103195476D02*
X161738571Y-103195476D01*
X162222380Y-102348809D02*
X162101428Y-102288333D01*
X162040952Y-102227857D01*
X161980476Y-102106904D01*
X161980476Y-102046428D01*
X162040952Y-101925476D01*
X162101428Y-101865000D01*
X162222380Y-101804523D01*
X162464285Y-101804523D01*
X162585238Y-101865000D01*
X162645714Y-101925476D01*
X162706190Y-102046428D01*
X162706190Y-102106904D01*
X162645714Y-102227857D01*
X162585238Y-102288333D01*
X162464285Y-102348809D01*
X162222380Y-102348809D01*
X162101428Y-102409285D01*
X162040952Y-102469761D01*
X161980476Y-102590714D01*
X161980476Y-102832619D01*
X162040952Y-102953571D01*
X162101428Y-103014047D01*
X162222380Y-103074523D01*
X162464285Y-103074523D01*
X162585238Y-103014047D01*
X162645714Y-102953571D01*
X162706190Y-102832619D01*
X162706190Y-102590714D01*
X162645714Y-102469761D01*
X162585238Y-102409285D01*
X162464285Y-102348809D01*
X162948095Y-103195476D02*
X163915714Y-103195476D01*
X164218095Y-103074523D02*
X164218095Y-101804523D01*
X164701904Y-101804523D01*
X164822857Y-101865000D01*
X164883333Y-101925476D01*
X164943809Y-102046428D01*
X164943809Y-102227857D01*
X164883333Y-102348809D01*
X164822857Y-102409285D01*
X164701904Y-102469761D01*
X164218095Y-102469761D01*
X165730000Y-101804523D02*
X165971904Y-101804523D01*
X166092857Y-101865000D01*
X166213809Y-101985952D01*
X166274285Y-102227857D01*
X166274285Y-102651190D01*
X166213809Y-102893095D01*
X166092857Y-103014047D01*
X165971904Y-103074523D01*
X165730000Y-103074523D01*
X165609047Y-103014047D01*
X165488095Y-102893095D01*
X165427619Y-102651190D01*
X165427619Y-102227857D01*
X165488095Y-101985952D01*
X165609047Y-101865000D01*
X165730000Y-101804523D01*
X166758095Y-103014047D02*
X166939523Y-103074523D01*
X167241904Y-103074523D01*
X167362857Y-103014047D01*
X167423333Y-102953571D01*
X167483809Y-102832619D01*
X167483809Y-102711666D01*
X167423333Y-102590714D01*
X167362857Y-102530238D01*
X167241904Y-102469761D01*
X167000000Y-102409285D01*
X166879047Y-102348809D01*
X166818571Y-102288333D01*
X166758095Y-102167380D01*
X166758095Y-102046428D01*
X166818571Y-101925476D01*
X166879047Y-101865000D01*
X167000000Y-101804523D01*
X167302380Y-101804523D01*
X167483809Y-101865000D01*
X167725714Y-103195476D02*
X168693333Y-103195476D01*
X169660952Y-103074523D02*
X168935238Y-103074523D01*
X169298095Y-103074523D02*
X169298095Y-101804523D01*
X169177142Y-101985952D01*
X169056190Y-102106904D01*
X168935238Y-102167380D01*
X170205238Y-102590714D02*
X171172857Y-102590714D01*
X171656666Y-101804523D02*
X172503333Y-101804523D01*
X171959047Y-103074523D01*
X172866190Y-101804523D02*
X173712857Y-101804523D01*
X173168571Y-103074523D01*
X174740952Y-101804523D02*
X174499047Y-101804523D01*
X174378095Y-101865000D01*
X174317619Y-101925476D01*
X174196666Y-102106904D01*
X174136190Y-102348809D01*
X174136190Y-102832619D01*
X174196666Y-102953571D01*
X174257142Y-103014047D01*
X174378095Y-103074523D01*
X174620000Y-103074523D01*
X174740952Y-103014047D01*
X174801428Y-102953571D01*
X174861904Y-102832619D01*
X174861904Y-102530238D01*
X174801428Y-102409285D01*
X174740952Y-102348809D01*
X174620000Y-102288333D01*
X174378095Y-102288333D01*
X174257142Y-102348809D01*
X174196666Y-102409285D01*
X174136190Y-102530238D01*
X175345714Y-101925476D02*
X175406190Y-101865000D01*
X175527142Y-101804523D01*
X175829523Y-101804523D01*
X175950476Y-101865000D01*
X176010952Y-101925476D01*
X176071428Y-102046428D01*
X176071428Y-102167380D01*
X176010952Y-102348809D01*
X175285238Y-103074523D01*
X176071428Y-103074523D01*
X176494761Y-101804523D02*
X177341428Y-101804523D01*
X176797142Y-103074523D01*
X178369523Y-101804523D02*
X178127619Y-101804523D01*
X178006666Y-101865000D01*
X177946190Y-101925476D01*
X177825238Y-102106904D01*
X177764761Y-102348809D01*
X177764761Y-102832619D01*
X177825238Y-102953571D01*
X177885714Y-103014047D01*
X178006666Y-103074523D01*
X178248571Y-103074523D01*
X178369523Y-103014047D01*
X178430000Y-102953571D01*
X178490476Y-102832619D01*
X178490476Y-102530238D01*
X178430000Y-102409285D01*
X178369523Y-102348809D01*
X178248571Y-102288333D01*
X178006666Y-102288333D01*
X177885714Y-102348809D01*
X177825238Y-102409285D01*
X177764761Y-102530238D01*
X179034761Y-102590714D02*
X180002380Y-102590714D01*
X181272380Y-103074523D02*
X180546666Y-103074523D01*
X180909523Y-103074523D02*
X180909523Y-101804523D01*
X180788571Y-101985952D01*
X180667619Y-102106904D01*
X180546666Y-102167380D01*
G04 #@! TO.C,L201*
D18*
X166230952Y-131702380D02*
X165754761Y-131702380D01*
X165754761Y-130702380D01*
X166516666Y-130797619D02*
X166564285Y-130750000D01*
X166659523Y-130702380D01*
X166897619Y-130702380D01*
X166992857Y-130750000D01*
X167040476Y-130797619D01*
X167088095Y-130892857D01*
X167088095Y-130988095D01*
X167040476Y-131130952D01*
X166469047Y-131702380D01*
X167088095Y-131702380D01*
X167707142Y-130702380D02*
X167802380Y-130702380D01*
X167897619Y-130750000D01*
X167945238Y-130797619D01*
X167992857Y-130892857D01*
X168040476Y-131083333D01*
X168040476Y-131321428D01*
X167992857Y-131511904D01*
X167945238Y-131607142D01*
X167897619Y-131654761D01*
X167802380Y-131702380D01*
X167707142Y-131702380D01*
X167611904Y-131654761D01*
X167564285Y-131607142D01*
X167516666Y-131511904D01*
X167469047Y-131321428D01*
X167469047Y-131083333D01*
X167516666Y-130892857D01*
X167564285Y-130797619D01*
X167611904Y-130750000D01*
X167707142Y-130702380D01*
X168992857Y-131702380D02*
X168421428Y-131702380D01*
X168707142Y-131702380D02*
X168707142Y-130702380D01*
X168611904Y-130845238D01*
X168516666Y-130940476D01*
X168421428Y-130988095D01*
G04 #@! TO.C,D203*
D20*
X192725980Y-122467695D02*
X192725980Y-121654895D01*
X192919504Y-121654895D01*
X193035619Y-121693600D01*
X193113028Y-121771009D01*
X193151733Y-121848419D01*
X193190438Y-122003238D01*
X193190438Y-122119352D01*
X193151733Y-122274171D01*
X193113028Y-122351580D01*
X193035619Y-122428990D01*
X192919504Y-122467695D01*
X192725980Y-122467695D01*
X193500076Y-121732304D02*
X193538780Y-121693600D01*
X193616190Y-121654895D01*
X193809714Y-121654895D01*
X193887123Y-121693600D01*
X193925828Y-121732304D01*
X193964533Y-121809714D01*
X193964533Y-121887123D01*
X193925828Y-122003238D01*
X193461371Y-122467695D01*
X193964533Y-122467695D01*
X194467695Y-121654895D02*
X194545104Y-121654895D01*
X194622514Y-121693600D01*
X194661219Y-121732304D01*
X194699923Y-121809714D01*
X194738628Y-121964533D01*
X194738628Y-122158057D01*
X194699923Y-122312876D01*
X194661219Y-122390285D01*
X194622514Y-122428990D01*
X194545104Y-122467695D01*
X194467695Y-122467695D01*
X194390285Y-122428990D01*
X194351580Y-122390285D01*
X194312876Y-122312876D01*
X194274171Y-122158057D01*
X194274171Y-121964533D01*
X194312876Y-121809714D01*
X194351580Y-121732304D01*
X194390285Y-121693600D01*
X194467695Y-121654895D01*
X195009561Y-121654895D02*
X195512723Y-121654895D01*
X195241790Y-121964533D01*
X195357904Y-121964533D01*
X195435314Y-122003238D01*
X195474019Y-122041942D01*
X195512723Y-122119352D01*
X195512723Y-122312876D01*
X195474019Y-122390285D01*
X195435314Y-122428990D01*
X195357904Y-122467695D01*
X195125676Y-122467695D01*
X195048266Y-122428990D01*
X195009561Y-122390285D01*
G04 #@! TO.C,D204*
X176225980Y-130817695D02*
X176225980Y-130004895D01*
X176419504Y-130004895D01*
X176535619Y-130043600D01*
X176613028Y-130121009D01*
X176651733Y-130198419D01*
X176690438Y-130353238D01*
X176690438Y-130469352D01*
X176651733Y-130624171D01*
X176613028Y-130701580D01*
X176535619Y-130778990D01*
X176419504Y-130817695D01*
X176225980Y-130817695D01*
X177000076Y-130082304D02*
X177038780Y-130043600D01*
X177116190Y-130004895D01*
X177309714Y-130004895D01*
X177387123Y-130043600D01*
X177425828Y-130082304D01*
X177464533Y-130159714D01*
X177464533Y-130237123D01*
X177425828Y-130353238D01*
X176961371Y-130817695D01*
X177464533Y-130817695D01*
X177967695Y-130004895D02*
X178045104Y-130004895D01*
X178122514Y-130043600D01*
X178161219Y-130082304D01*
X178199923Y-130159714D01*
X178238628Y-130314533D01*
X178238628Y-130508057D01*
X178199923Y-130662876D01*
X178161219Y-130740285D01*
X178122514Y-130778990D01*
X178045104Y-130817695D01*
X177967695Y-130817695D01*
X177890285Y-130778990D01*
X177851580Y-130740285D01*
X177812876Y-130662876D01*
X177774171Y-130508057D01*
X177774171Y-130314533D01*
X177812876Y-130159714D01*
X177851580Y-130082304D01*
X177890285Y-130043600D01*
X177967695Y-130004895D01*
X178935314Y-130275828D02*
X178935314Y-130817695D01*
X178741790Y-129966190D02*
X178548266Y-130546761D01*
X179051428Y-130546761D01*
G04 #@! TO.C,CP401*
D18*
X181280952Y-54957142D02*
X181233333Y-55004761D01*
X181090476Y-55052380D01*
X180995238Y-55052380D01*
X180852380Y-55004761D01*
X180757142Y-54909523D01*
X180709523Y-54814285D01*
X180661904Y-54623809D01*
X180661904Y-54480952D01*
X180709523Y-54290476D01*
X180757142Y-54195238D01*
X180852380Y-54100000D01*
X180995238Y-54052380D01*
X181090476Y-54052380D01*
X181233333Y-54100000D01*
X181280952Y-54147619D01*
X181709523Y-55052380D02*
X181709523Y-54052380D01*
X182090476Y-54052380D01*
X182185714Y-54100000D01*
X182233333Y-54147619D01*
X182280952Y-54242857D01*
X182280952Y-54385714D01*
X182233333Y-54480952D01*
X182185714Y-54528571D01*
X182090476Y-54576190D01*
X181709523Y-54576190D01*
X183138095Y-54385714D02*
X183138095Y-55052380D01*
X182900000Y-54004761D02*
X182661904Y-54719047D01*
X183280952Y-54719047D01*
X183852380Y-54052380D02*
X183947619Y-54052380D01*
X184042857Y-54100000D01*
X184090476Y-54147619D01*
X184138095Y-54242857D01*
X184185714Y-54433333D01*
X184185714Y-54671428D01*
X184138095Y-54861904D01*
X184090476Y-54957142D01*
X184042857Y-55004761D01*
X183947619Y-55052380D01*
X183852380Y-55052380D01*
X183757142Y-55004761D01*
X183709523Y-54957142D01*
X183661904Y-54861904D01*
X183614285Y-54671428D01*
X183614285Y-54433333D01*
X183661904Y-54242857D01*
X183709523Y-54147619D01*
X183757142Y-54100000D01*
X183852380Y-54052380D01*
X185138095Y-55052380D02*
X184566666Y-55052380D01*
X184852380Y-55052380D02*
X184852380Y-54052380D01*
X184757142Y-54195238D01*
X184661904Y-54290476D01*
X184566666Y-54338095D01*
G04 #@! TO.C,D101*
D20*
X168800980Y-50992695D02*
X168800980Y-50179895D01*
X168994504Y-50179895D01*
X169110619Y-50218600D01*
X169188028Y-50296009D01*
X169226733Y-50373419D01*
X169265438Y-50528238D01*
X169265438Y-50644352D01*
X169226733Y-50799171D01*
X169188028Y-50876580D01*
X169110619Y-50953990D01*
X168994504Y-50992695D01*
X168800980Y-50992695D01*
X170039533Y-50992695D02*
X169575076Y-50992695D01*
X169807304Y-50992695D02*
X169807304Y-50179895D01*
X169729895Y-50296009D01*
X169652485Y-50373419D01*
X169575076Y-50412123D01*
X170542695Y-50179895D02*
X170620104Y-50179895D01*
X170697514Y-50218600D01*
X170736219Y-50257304D01*
X170774923Y-50334714D01*
X170813628Y-50489533D01*
X170813628Y-50683057D01*
X170774923Y-50837876D01*
X170736219Y-50915285D01*
X170697514Y-50953990D01*
X170620104Y-50992695D01*
X170542695Y-50992695D01*
X170465285Y-50953990D01*
X170426580Y-50915285D01*
X170387876Y-50837876D01*
X170349171Y-50683057D01*
X170349171Y-50489533D01*
X170387876Y-50334714D01*
X170426580Y-50257304D01*
X170465285Y-50218600D01*
X170542695Y-50179895D01*
X171587723Y-50992695D02*
X171123266Y-50992695D01*
X171355495Y-50992695D02*
X171355495Y-50179895D01*
X171278085Y-50296009D01*
X171200676Y-50373419D01*
X171123266Y-50412123D01*
G04 #@! TO.C,D102*
X172675980Y-51117695D02*
X172675980Y-50304895D01*
X172869504Y-50304895D01*
X172985619Y-50343600D01*
X173063028Y-50421009D01*
X173101733Y-50498419D01*
X173140438Y-50653238D01*
X173140438Y-50769352D01*
X173101733Y-50924171D01*
X173063028Y-51001580D01*
X172985619Y-51078990D01*
X172869504Y-51117695D01*
X172675980Y-51117695D01*
X173914533Y-51117695D02*
X173450076Y-51117695D01*
X173682304Y-51117695D02*
X173682304Y-50304895D01*
X173604895Y-50421009D01*
X173527485Y-50498419D01*
X173450076Y-50537123D01*
X174417695Y-50304895D02*
X174495104Y-50304895D01*
X174572514Y-50343600D01*
X174611219Y-50382304D01*
X174649923Y-50459714D01*
X174688628Y-50614533D01*
X174688628Y-50808057D01*
X174649923Y-50962876D01*
X174611219Y-51040285D01*
X174572514Y-51078990D01*
X174495104Y-51117695D01*
X174417695Y-51117695D01*
X174340285Y-51078990D01*
X174301580Y-51040285D01*
X174262876Y-50962876D01*
X174224171Y-50808057D01*
X174224171Y-50614533D01*
X174262876Y-50459714D01*
X174301580Y-50382304D01*
X174340285Y-50343600D01*
X174417695Y-50304895D01*
X174998266Y-50382304D02*
X175036971Y-50343600D01*
X175114380Y-50304895D01*
X175307904Y-50304895D01*
X175385314Y-50343600D01*
X175424019Y-50382304D01*
X175462723Y-50459714D01*
X175462723Y-50537123D01*
X175424019Y-50653238D01*
X174959561Y-51117695D01*
X175462723Y-51117695D01*
G04 #@! TO.C,R101*
X169465438Y-57342695D02*
X169194504Y-56955647D01*
X169000980Y-57342695D02*
X169000980Y-56529895D01*
X169310619Y-56529895D01*
X169388028Y-56568600D01*
X169426733Y-56607304D01*
X169465438Y-56684714D01*
X169465438Y-56800828D01*
X169426733Y-56878238D01*
X169388028Y-56916942D01*
X169310619Y-56955647D01*
X169000980Y-56955647D01*
X170239533Y-57342695D02*
X169775076Y-57342695D01*
X170007304Y-57342695D02*
X170007304Y-56529895D01*
X169929895Y-56646009D01*
X169852485Y-56723419D01*
X169775076Y-56762123D01*
X170742695Y-56529895D02*
X170820104Y-56529895D01*
X170897514Y-56568600D01*
X170936219Y-56607304D01*
X170974923Y-56684714D01*
X171013628Y-56839533D01*
X171013628Y-57033057D01*
X170974923Y-57187876D01*
X170936219Y-57265285D01*
X170897514Y-57303990D01*
X170820104Y-57342695D01*
X170742695Y-57342695D01*
X170665285Y-57303990D01*
X170626580Y-57265285D01*
X170587876Y-57187876D01*
X170549171Y-57033057D01*
X170549171Y-56839533D01*
X170587876Y-56684714D01*
X170626580Y-56607304D01*
X170665285Y-56568600D01*
X170742695Y-56529895D01*
X171787723Y-57342695D02*
X171323266Y-57342695D01*
X171555495Y-57342695D02*
X171555495Y-56529895D01*
X171478085Y-56646009D01*
X171400676Y-56723419D01*
X171323266Y-56762123D01*
X167525828Y-58717695D02*
X167061371Y-58717695D01*
X167293600Y-58717695D02*
X167293600Y-57904895D01*
X167216190Y-58021009D01*
X167138780Y-58098419D01*
X167061371Y-58137123D01*
X167874171Y-58717695D02*
X167874171Y-57904895D01*
X168338628Y-58717695D02*
X167990285Y-58253238D01*
X168338628Y-57904895D02*
X167874171Y-58369352D01*
G04 #@! TO.C,R102*
X173065438Y-57267695D02*
X172794504Y-56880647D01*
X172600980Y-57267695D02*
X172600980Y-56454895D01*
X172910619Y-56454895D01*
X172988028Y-56493600D01*
X173026733Y-56532304D01*
X173065438Y-56609714D01*
X173065438Y-56725828D01*
X173026733Y-56803238D01*
X172988028Y-56841942D01*
X172910619Y-56880647D01*
X172600980Y-56880647D01*
X173839533Y-57267695D02*
X173375076Y-57267695D01*
X173607304Y-57267695D02*
X173607304Y-56454895D01*
X173529895Y-56571009D01*
X173452485Y-56648419D01*
X173375076Y-56687123D01*
X174342695Y-56454895D02*
X174420104Y-56454895D01*
X174497514Y-56493600D01*
X174536219Y-56532304D01*
X174574923Y-56609714D01*
X174613628Y-56764533D01*
X174613628Y-56958057D01*
X174574923Y-57112876D01*
X174536219Y-57190285D01*
X174497514Y-57228990D01*
X174420104Y-57267695D01*
X174342695Y-57267695D01*
X174265285Y-57228990D01*
X174226580Y-57190285D01*
X174187876Y-57112876D01*
X174149171Y-56958057D01*
X174149171Y-56764533D01*
X174187876Y-56609714D01*
X174226580Y-56532304D01*
X174265285Y-56493600D01*
X174342695Y-56454895D01*
X174923266Y-56532304D02*
X174961971Y-56493600D01*
X175039380Y-56454895D01*
X175232904Y-56454895D01*
X175310314Y-56493600D01*
X175349019Y-56532304D01*
X175387723Y-56609714D01*
X175387723Y-56687123D01*
X175349019Y-56803238D01*
X174884561Y-57267695D01*
X175387723Y-57267695D01*
X176075828Y-58667695D02*
X175611371Y-58667695D01*
X175843600Y-58667695D02*
X175843600Y-57854895D01*
X175766190Y-57971009D01*
X175688780Y-58048419D01*
X175611371Y-58087123D01*
X176424171Y-58667695D02*
X176424171Y-57854895D01*
X176888628Y-58667695D02*
X176540285Y-58203238D01*
X176888628Y-57854895D02*
X176424171Y-58319352D01*
G04 #@! TO.C,U301*
X133856628Y-134054895D02*
X133856628Y-134712876D01*
X133895333Y-134790285D01*
X133934038Y-134828990D01*
X134011447Y-134867695D01*
X134166266Y-134867695D01*
X134243676Y-134828990D01*
X134282380Y-134790285D01*
X134321085Y-134712876D01*
X134321085Y-134054895D01*
X134630723Y-134054895D02*
X135133885Y-134054895D01*
X134862952Y-134364533D01*
X134979066Y-134364533D01*
X135056476Y-134403238D01*
X135095180Y-134441942D01*
X135133885Y-134519352D01*
X135133885Y-134712876D01*
X135095180Y-134790285D01*
X135056476Y-134828990D01*
X134979066Y-134867695D01*
X134746838Y-134867695D01*
X134669428Y-134828990D01*
X134630723Y-134790285D01*
X135637047Y-134054895D02*
X135714457Y-134054895D01*
X135791866Y-134093600D01*
X135830571Y-134132304D01*
X135869276Y-134209714D01*
X135907980Y-134364533D01*
X135907980Y-134558057D01*
X135869276Y-134712876D01*
X135830571Y-134790285D01*
X135791866Y-134828990D01*
X135714457Y-134867695D01*
X135637047Y-134867695D01*
X135559638Y-134828990D01*
X135520933Y-134790285D01*
X135482228Y-134712876D01*
X135443523Y-134558057D01*
X135443523Y-134364533D01*
X135482228Y-134209714D01*
X135520933Y-134132304D01*
X135559638Y-134093600D01*
X135637047Y-134054895D01*
X136682076Y-134867695D02*
X136217619Y-134867695D01*
X136449847Y-134867695D02*
X136449847Y-134054895D01*
X136372438Y-134171009D01*
X136295028Y-134248419D01*
X136217619Y-134287123D01*
G04 #@! TO.C,VR201*
X174261523Y-137254895D02*
X174532457Y-138067695D01*
X174803390Y-137254895D01*
X175538780Y-138067695D02*
X175267847Y-137680647D01*
X175074323Y-138067695D02*
X175074323Y-137254895D01*
X175383961Y-137254895D01*
X175461371Y-137293600D01*
X175500076Y-137332304D01*
X175538780Y-137409714D01*
X175538780Y-137525828D01*
X175500076Y-137603238D01*
X175461371Y-137641942D01*
X175383961Y-137680647D01*
X175074323Y-137680647D01*
X175848419Y-137332304D02*
X175887123Y-137293600D01*
X175964533Y-137254895D01*
X176158057Y-137254895D01*
X176235466Y-137293600D01*
X176274171Y-137332304D01*
X176312876Y-137409714D01*
X176312876Y-137487123D01*
X176274171Y-137603238D01*
X175809714Y-138067695D01*
X176312876Y-138067695D01*
X176816038Y-137254895D02*
X176893447Y-137254895D01*
X176970857Y-137293600D01*
X177009561Y-137332304D01*
X177048266Y-137409714D01*
X177086971Y-137564533D01*
X177086971Y-137758057D01*
X177048266Y-137912876D01*
X177009561Y-137990285D01*
X176970857Y-138028990D01*
X176893447Y-138067695D01*
X176816038Y-138067695D01*
X176738628Y-138028990D01*
X176699923Y-137990285D01*
X176661219Y-137912876D01*
X176622514Y-137758057D01*
X176622514Y-137564533D01*
X176661219Y-137409714D01*
X176699923Y-137332304D01*
X176738628Y-137293600D01*
X176816038Y-137254895D01*
X177861066Y-138067695D02*
X177396609Y-138067695D01*
X177628838Y-138067695D02*
X177628838Y-137254895D01*
X177551428Y-137371009D01*
X177474019Y-137448419D01*
X177396609Y-137487123D01*
G04 #@! TO.C,C202*
X189840438Y-136340285D02*
X189801733Y-136378990D01*
X189685619Y-136417695D01*
X189608209Y-136417695D01*
X189492095Y-136378990D01*
X189414685Y-136301580D01*
X189375980Y-136224171D01*
X189337276Y-136069352D01*
X189337276Y-135953238D01*
X189375980Y-135798419D01*
X189414685Y-135721009D01*
X189492095Y-135643600D01*
X189608209Y-135604895D01*
X189685619Y-135604895D01*
X189801733Y-135643600D01*
X189840438Y-135682304D01*
X190150076Y-135682304D02*
X190188780Y-135643600D01*
X190266190Y-135604895D01*
X190459714Y-135604895D01*
X190537123Y-135643600D01*
X190575828Y-135682304D01*
X190614533Y-135759714D01*
X190614533Y-135837123D01*
X190575828Y-135953238D01*
X190111371Y-136417695D01*
X190614533Y-136417695D01*
X191117695Y-135604895D02*
X191195104Y-135604895D01*
X191272514Y-135643600D01*
X191311219Y-135682304D01*
X191349923Y-135759714D01*
X191388628Y-135914533D01*
X191388628Y-136108057D01*
X191349923Y-136262876D01*
X191311219Y-136340285D01*
X191272514Y-136378990D01*
X191195104Y-136417695D01*
X191117695Y-136417695D01*
X191040285Y-136378990D01*
X191001580Y-136340285D01*
X190962876Y-136262876D01*
X190924171Y-136108057D01*
X190924171Y-135914533D01*
X190962876Y-135759714D01*
X191001580Y-135682304D01*
X191040285Y-135643600D01*
X191117695Y-135604895D01*
X191698266Y-135682304D02*
X191736971Y-135643600D01*
X191814380Y-135604895D01*
X192007904Y-135604895D01*
X192085314Y-135643600D01*
X192124019Y-135682304D01*
X192162723Y-135759714D01*
X192162723Y-135837123D01*
X192124019Y-135953238D01*
X191659561Y-136417695D01*
X192162723Y-136417695D01*
G04 #@! TO.C,D206*
D18*
X166409523Y-107252380D02*
X166409523Y-106252380D01*
X166647619Y-106252380D01*
X166790476Y-106300000D01*
X166885714Y-106395238D01*
X166933333Y-106490476D01*
X166980952Y-106680952D01*
X166980952Y-106823809D01*
X166933333Y-107014285D01*
X166885714Y-107109523D01*
X166790476Y-107204761D01*
X166647619Y-107252380D01*
X166409523Y-107252380D01*
X167361904Y-106347619D02*
X167409523Y-106300000D01*
X167504761Y-106252380D01*
X167742857Y-106252380D01*
X167838095Y-106300000D01*
X167885714Y-106347619D01*
X167933333Y-106442857D01*
X167933333Y-106538095D01*
X167885714Y-106680952D01*
X167314285Y-107252380D01*
X167933333Y-107252380D01*
X168552380Y-106252380D02*
X168647619Y-106252380D01*
X168742857Y-106300000D01*
X168790476Y-106347619D01*
X168838095Y-106442857D01*
X168885714Y-106633333D01*
X168885714Y-106871428D01*
X168838095Y-107061904D01*
X168790476Y-107157142D01*
X168742857Y-107204761D01*
X168647619Y-107252380D01*
X168552380Y-107252380D01*
X168457142Y-107204761D01*
X168409523Y-107157142D01*
X168361904Y-107061904D01*
X168314285Y-106871428D01*
X168314285Y-106633333D01*
X168361904Y-106442857D01*
X168409523Y-106347619D01*
X168457142Y-106300000D01*
X168552380Y-106252380D01*
X169742857Y-106252380D02*
X169552380Y-106252380D01*
X169457142Y-106300000D01*
X169409523Y-106347619D01*
X169314285Y-106490476D01*
X169266666Y-106680952D01*
X169266666Y-107061904D01*
X169314285Y-107157142D01*
X169361904Y-107204761D01*
X169457142Y-107252380D01*
X169647619Y-107252380D01*
X169742857Y-107204761D01*
X169790476Y-107157142D01*
X169838095Y-107061904D01*
X169838095Y-106823809D01*
X169790476Y-106728571D01*
X169742857Y-106680952D01*
X169647619Y-106633333D01*
X169457142Y-106633333D01*
X169361904Y-106680952D01*
X169314285Y-106728571D01*
X169266666Y-106823809D01*
G04 #@! TO.C,R103*
D20*
X143702238Y-60817695D02*
X143431304Y-60430647D01*
X143237780Y-60817695D02*
X143237780Y-60004895D01*
X143547419Y-60004895D01*
X143624828Y-60043600D01*
X143663533Y-60082304D01*
X143702238Y-60159714D01*
X143702238Y-60275828D01*
X143663533Y-60353238D01*
X143624828Y-60391942D01*
X143547419Y-60430647D01*
X143237780Y-60430647D01*
X144476333Y-60817695D02*
X144011876Y-60817695D01*
X144244104Y-60817695D02*
X144244104Y-60004895D01*
X144166695Y-60121009D01*
X144089285Y-60198419D01*
X144011876Y-60237123D01*
X144979495Y-60004895D02*
X145056904Y-60004895D01*
X145134314Y-60043600D01*
X145173019Y-60082304D01*
X145211723Y-60159714D01*
X145250428Y-60314533D01*
X145250428Y-60508057D01*
X145211723Y-60662876D01*
X145173019Y-60740285D01*
X145134314Y-60778990D01*
X145056904Y-60817695D01*
X144979495Y-60817695D01*
X144902085Y-60778990D01*
X144863380Y-60740285D01*
X144824676Y-60662876D01*
X144785971Y-60508057D01*
X144785971Y-60314533D01*
X144824676Y-60159714D01*
X144863380Y-60082304D01*
X144902085Y-60043600D01*
X144979495Y-60004895D01*
X145521361Y-60004895D02*
X146024523Y-60004895D01*
X145753590Y-60314533D01*
X145869704Y-60314533D01*
X145947114Y-60353238D01*
X145985819Y-60391942D01*
X146024523Y-60469352D01*
X146024523Y-60662876D01*
X145985819Y-60740285D01*
X145947114Y-60778990D01*
X145869704Y-60817695D01*
X145637476Y-60817695D01*
X145560066Y-60778990D01*
X145521361Y-60740285D01*
X144887628Y-61917695D02*
X144423171Y-61917695D01*
X144655400Y-61917695D02*
X144655400Y-61104895D01*
X144577990Y-61221009D01*
X144500580Y-61298419D01*
X144423171Y-61337123D01*
X145235971Y-61917695D02*
X145235971Y-61104895D01*
X145700428Y-61917695D02*
X145352085Y-61453238D01*
X145700428Y-61104895D02*
X145235971Y-61569352D01*
G04 #@! TO.C,R405*
X180790438Y-57967695D02*
X180519504Y-57580647D01*
X180325980Y-57967695D02*
X180325980Y-57154895D01*
X180635619Y-57154895D01*
X180713028Y-57193600D01*
X180751733Y-57232304D01*
X180790438Y-57309714D01*
X180790438Y-57425828D01*
X180751733Y-57503238D01*
X180713028Y-57541942D01*
X180635619Y-57580647D01*
X180325980Y-57580647D01*
X181487123Y-57425828D02*
X181487123Y-57967695D01*
X181293600Y-57116190D02*
X181100076Y-57696761D01*
X181603238Y-57696761D01*
X182067695Y-57154895D02*
X182145104Y-57154895D01*
X182222514Y-57193600D01*
X182261219Y-57232304D01*
X182299923Y-57309714D01*
X182338628Y-57464533D01*
X182338628Y-57658057D01*
X182299923Y-57812876D01*
X182261219Y-57890285D01*
X182222514Y-57928990D01*
X182145104Y-57967695D01*
X182067695Y-57967695D01*
X181990285Y-57928990D01*
X181951580Y-57890285D01*
X181912876Y-57812876D01*
X181874171Y-57658057D01*
X181874171Y-57464533D01*
X181912876Y-57309714D01*
X181951580Y-57232304D01*
X181990285Y-57193600D01*
X182067695Y-57154895D01*
X183074019Y-57154895D02*
X182686971Y-57154895D01*
X182648266Y-57541942D01*
X182686971Y-57503238D01*
X182764380Y-57464533D01*
X182957904Y-57464533D01*
X183035314Y-57503238D01*
X183074019Y-57541942D01*
X183112723Y-57619352D01*
X183112723Y-57812876D01*
X183074019Y-57890285D01*
X183035314Y-57928990D01*
X182957904Y-57967695D01*
X182764380Y-57967695D01*
X182686971Y-57928990D01*
X182648266Y-57890285D01*
X180775828Y-59367695D02*
X180311371Y-59367695D01*
X180543600Y-59367695D02*
X180543600Y-58554895D01*
X180466190Y-58671009D01*
X180388780Y-58748419D01*
X180311371Y-58787123D01*
X181124171Y-59367695D02*
X181124171Y-58554895D01*
X181588628Y-59367695D02*
X181240285Y-58903238D01*
X181588628Y-58554895D02*
X181124171Y-59019352D01*
G04 #@! TO.C,U401*
D18*
X176035714Y-93502380D02*
X176035714Y-94311904D01*
X176083333Y-94407142D01*
X176130952Y-94454761D01*
X176226190Y-94502380D01*
X176416666Y-94502380D01*
X176511904Y-94454761D01*
X176559523Y-94407142D01*
X176607142Y-94311904D01*
X176607142Y-93502380D01*
X177511904Y-93835714D02*
X177511904Y-94502380D01*
X177273809Y-93454761D02*
X177035714Y-94169047D01*
X177654761Y-94169047D01*
X178226190Y-93502380D02*
X178321428Y-93502380D01*
X178416666Y-93550000D01*
X178464285Y-93597619D01*
X178511904Y-93692857D01*
X178559523Y-93883333D01*
X178559523Y-94121428D01*
X178511904Y-94311904D01*
X178464285Y-94407142D01*
X178416666Y-94454761D01*
X178321428Y-94502380D01*
X178226190Y-94502380D01*
X178130952Y-94454761D01*
X178083333Y-94407142D01*
X178035714Y-94311904D01*
X177988095Y-94121428D01*
X177988095Y-93883333D01*
X178035714Y-93692857D01*
X178083333Y-93597619D01*
X178130952Y-93550000D01*
X178226190Y-93502380D01*
X179511904Y-94502380D02*
X178940476Y-94502380D01*
X179226190Y-94502380D02*
X179226190Y-93502380D01*
X179130952Y-93645238D01*
X179035714Y-93740476D01*
X178940476Y-93788095D01*
G04 #@! TO.C,C701*
D20*
X164065438Y-50640285D02*
X164026733Y-50678990D01*
X163910619Y-50717695D01*
X163833209Y-50717695D01*
X163717095Y-50678990D01*
X163639685Y-50601580D01*
X163600980Y-50524171D01*
X163562276Y-50369352D01*
X163562276Y-50253238D01*
X163600980Y-50098419D01*
X163639685Y-50021009D01*
X163717095Y-49943600D01*
X163833209Y-49904895D01*
X163910619Y-49904895D01*
X164026733Y-49943600D01*
X164065438Y-49982304D01*
X164336371Y-49904895D02*
X164878238Y-49904895D01*
X164529895Y-50717695D01*
X165342695Y-49904895D02*
X165420104Y-49904895D01*
X165497514Y-49943600D01*
X165536219Y-49982304D01*
X165574923Y-50059714D01*
X165613628Y-50214533D01*
X165613628Y-50408057D01*
X165574923Y-50562876D01*
X165536219Y-50640285D01*
X165497514Y-50678990D01*
X165420104Y-50717695D01*
X165342695Y-50717695D01*
X165265285Y-50678990D01*
X165226580Y-50640285D01*
X165187876Y-50562876D01*
X165149171Y-50408057D01*
X165149171Y-50214533D01*
X165187876Y-50059714D01*
X165226580Y-49982304D01*
X165265285Y-49943600D01*
X165342695Y-49904895D01*
X166387723Y-50717695D02*
X165923266Y-50717695D01*
X166155495Y-50717695D02*
X166155495Y-49904895D01*
X166078085Y-50021009D01*
X166000676Y-50098419D01*
X165923266Y-50137123D01*
G04 #@! TO.C,R104*
X160592695Y-61609561D02*
X160205647Y-61880495D01*
X160592695Y-62074019D02*
X159779895Y-62074019D01*
X159779895Y-61764380D01*
X159818600Y-61686971D01*
X159857304Y-61648266D01*
X159934714Y-61609561D01*
X160050828Y-61609561D01*
X160128238Y-61648266D01*
X160166942Y-61686971D01*
X160205647Y-61764380D01*
X160205647Y-62074019D01*
X160592695Y-60835466D02*
X160592695Y-61299923D01*
X160592695Y-61067695D02*
X159779895Y-61067695D01*
X159896009Y-61145104D01*
X159973419Y-61222514D01*
X160012123Y-61299923D01*
X159779895Y-60332304D02*
X159779895Y-60254895D01*
X159818600Y-60177485D01*
X159857304Y-60138780D01*
X159934714Y-60100076D01*
X160089533Y-60061371D01*
X160283057Y-60061371D01*
X160437876Y-60100076D01*
X160515285Y-60138780D01*
X160553990Y-60177485D01*
X160592695Y-60254895D01*
X160592695Y-60332304D01*
X160553990Y-60409714D01*
X160515285Y-60448419D01*
X160437876Y-60487123D01*
X160283057Y-60525828D01*
X160089533Y-60525828D01*
X159934714Y-60487123D01*
X159857304Y-60448419D01*
X159818600Y-60409714D01*
X159779895Y-60332304D01*
X160050828Y-59364685D02*
X160592695Y-59364685D01*
X159741190Y-59558209D02*
X160321761Y-59751733D01*
X160321761Y-59248571D01*
X160588780Y-55817695D02*
X160124323Y-55817695D01*
X160356552Y-55817695D02*
X160356552Y-55004895D01*
X160279142Y-55121009D01*
X160201733Y-55198419D01*
X160124323Y-55237123D01*
X161091942Y-55004895D02*
X161169352Y-55004895D01*
X161246761Y-55043600D01*
X161285466Y-55082304D01*
X161324171Y-55159714D01*
X161362876Y-55314533D01*
X161362876Y-55508057D01*
X161324171Y-55662876D01*
X161285466Y-55740285D01*
X161246761Y-55778990D01*
X161169352Y-55817695D01*
X161091942Y-55817695D01*
X161014533Y-55778990D01*
X160975828Y-55740285D01*
X160937123Y-55662876D01*
X160898419Y-55508057D01*
X160898419Y-55314533D01*
X160937123Y-55159714D01*
X160975828Y-55082304D01*
X161014533Y-55043600D01*
X161091942Y-55004895D01*
X161711219Y-55817695D02*
X161711219Y-55004895D01*
X162175676Y-55817695D02*
X161827333Y-55353238D01*
X162175676Y-55004895D02*
X161711219Y-55469352D01*
G04 #@! TO.C,R107*
X164317695Y-61559561D02*
X163930647Y-61830495D01*
X164317695Y-62024019D02*
X163504895Y-62024019D01*
X163504895Y-61714380D01*
X163543600Y-61636971D01*
X163582304Y-61598266D01*
X163659714Y-61559561D01*
X163775828Y-61559561D01*
X163853238Y-61598266D01*
X163891942Y-61636971D01*
X163930647Y-61714380D01*
X163930647Y-62024019D01*
X164317695Y-60785466D02*
X164317695Y-61249923D01*
X164317695Y-61017695D02*
X163504895Y-61017695D01*
X163621009Y-61095104D01*
X163698419Y-61172514D01*
X163737123Y-61249923D01*
X163504895Y-60282304D02*
X163504895Y-60204895D01*
X163543600Y-60127485D01*
X163582304Y-60088780D01*
X163659714Y-60050076D01*
X163814533Y-60011371D01*
X164008057Y-60011371D01*
X164162876Y-60050076D01*
X164240285Y-60088780D01*
X164278990Y-60127485D01*
X164317695Y-60204895D01*
X164317695Y-60282304D01*
X164278990Y-60359714D01*
X164240285Y-60398419D01*
X164162876Y-60437123D01*
X164008057Y-60475828D01*
X163814533Y-60475828D01*
X163659714Y-60437123D01*
X163582304Y-60398419D01*
X163543600Y-60359714D01*
X163504895Y-60282304D01*
X163504895Y-59740438D02*
X163504895Y-59198571D01*
X164317695Y-59546914D01*
X163000828Y-55817695D02*
X162536371Y-55817695D01*
X162768600Y-55817695D02*
X162768600Y-55004895D01*
X162691190Y-55121009D01*
X162613780Y-55198419D01*
X162536371Y-55237123D01*
X163349171Y-55817695D02*
X163349171Y-55004895D01*
X163813628Y-55817695D02*
X163465285Y-55353238D01*
X163813628Y-55004895D02*
X163349171Y-55469352D01*
G04 #@! TO.C,R701*
X145940438Y-52617695D02*
X145669504Y-52230647D01*
X145475980Y-52617695D02*
X145475980Y-51804895D01*
X145785619Y-51804895D01*
X145863028Y-51843600D01*
X145901733Y-51882304D01*
X145940438Y-51959714D01*
X145940438Y-52075828D01*
X145901733Y-52153238D01*
X145863028Y-52191942D01*
X145785619Y-52230647D01*
X145475980Y-52230647D01*
X146211371Y-51804895D02*
X146753238Y-51804895D01*
X146404895Y-52617695D01*
X147217695Y-51804895D02*
X147295104Y-51804895D01*
X147372514Y-51843600D01*
X147411219Y-51882304D01*
X147449923Y-51959714D01*
X147488628Y-52114533D01*
X147488628Y-52308057D01*
X147449923Y-52462876D01*
X147411219Y-52540285D01*
X147372514Y-52578990D01*
X147295104Y-52617695D01*
X147217695Y-52617695D01*
X147140285Y-52578990D01*
X147101580Y-52540285D01*
X147062876Y-52462876D01*
X147024171Y-52308057D01*
X147024171Y-52114533D01*
X147062876Y-51959714D01*
X147101580Y-51882304D01*
X147140285Y-51843600D01*
X147217695Y-51804895D01*
X148262723Y-52617695D02*
X147798266Y-52617695D01*
X148030495Y-52617695D02*
X148030495Y-51804895D01*
X147953085Y-51921009D01*
X147875676Y-51998419D01*
X147798266Y-52037123D01*
X147525828Y-54767695D02*
X147061371Y-54767695D01*
X147293600Y-54767695D02*
X147293600Y-53954895D01*
X147216190Y-54071009D01*
X147138780Y-54148419D01*
X147061371Y-54187123D01*
X147874171Y-54767695D02*
X147874171Y-53954895D01*
X148338628Y-54767695D02*
X147990285Y-54303238D01*
X148338628Y-53954895D02*
X147874171Y-54419352D01*
G04 #@! TO.C,R702*
X164065438Y-53942695D02*
X163794504Y-53555647D01*
X163600980Y-53942695D02*
X163600980Y-53129895D01*
X163910619Y-53129895D01*
X163988028Y-53168600D01*
X164026733Y-53207304D01*
X164065438Y-53284714D01*
X164065438Y-53400828D01*
X164026733Y-53478238D01*
X163988028Y-53516942D01*
X163910619Y-53555647D01*
X163600980Y-53555647D01*
X164336371Y-53129895D02*
X164878238Y-53129895D01*
X164529895Y-53942695D01*
X165342695Y-53129895D02*
X165420104Y-53129895D01*
X165497514Y-53168600D01*
X165536219Y-53207304D01*
X165574923Y-53284714D01*
X165613628Y-53439533D01*
X165613628Y-53633057D01*
X165574923Y-53787876D01*
X165536219Y-53865285D01*
X165497514Y-53903990D01*
X165420104Y-53942695D01*
X165342695Y-53942695D01*
X165265285Y-53903990D01*
X165226580Y-53865285D01*
X165187876Y-53787876D01*
X165149171Y-53633057D01*
X165149171Y-53439533D01*
X165187876Y-53284714D01*
X165226580Y-53207304D01*
X165265285Y-53168600D01*
X165342695Y-53129895D01*
X165923266Y-53207304D02*
X165961971Y-53168600D01*
X166039380Y-53129895D01*
X166232904Y-53129895D01*
X166310314Y-53168600D01*
X166349019Y-53207304D01*
X166387723Y-53284714D01*
X166387723Y-53362123D01*
X166349019Y-53478238D01*
X165884561Y-53942695D01*
X166387723Y-53942695D01*
X164125828Y-54892695D02*
X163661371Y-54892695D01*
X163893600Y-54892695D02*
X163893600Y-54079895D01*
X163816190Y-54196009D01*
X163738780Y-54273419D01*
X163661371Y-54312123D01*
X164474171Y-54892695D02*
X164474171Y-54079895D01*
X164938628Y-54892695D02*
X164590285Y-54428238D01*
X164938628Y-54079895D02*
X164474171Y-54544352D01*
G04 #@! TO.C,R703*
X145915438Y-50492695D02*
X145644504Y-50105647D01*
X145450980Y-50492695D02*
X145450980Y-49679895D01*
X145760619Y-49679895D01*
X145838028Y-49718600D01*
X145876733Y-49757304D01*
X145915438Y-49834714D01*
X145915438Y-49950828D01*
X145876733Y-50028238D01*
X145838028Y-50066942D01*
X145760619Y-50105647D01*
X145450980Y-50105647D01*
X146186371Y-49679895D02*
X146728238Y-49679895D01*
X146379895Y-50492695D01*
X147192695Y-49679895D02*
X147270104Y-49679895D01*
X147347514Y-49718600D01*
X147386219Y-49757304D01*
X147424923Y-49834714D01*
X147463628Y-49989533D01*
X147463628Y-50183057D01*
X147424923Y-50337876D01*
X147386219Y-50415285D01*
X147347514Y-50453990D01*
X147270104Y-50492695D01*
X147192695Y-50492695D01*
X147115285Y-50453990D01*
X147076580Y-50415285D01*
X147037876Y-50337876D01*
X146999171Y-50183057D01*
X146999171Y-49989533D01*
X147037876Y-49834714D01*
X147076580Y-49757304D01*
X147115285Y-49718600D01*
X147192695Y-49679895D01*
X147734561Y-49679895D02*
X148237723Y-49679895D01*
X147966790Y-49989533D01*
X148082904Y-49989533D01*
X148160314Y-50028238D01*
X148199019Y-50066942D01*
X148237723Y-50144352D01*
X148237723Y-50337876D01*
X148199019Y-50415285D01*
X148160314Y-50453990D01*
X148082904Y-50492695D01*
X147850676Y-50492695D01*
X147773266Y-50453990D01*
X147734561Y-50415285D01*
X146838780Y-51567695D02*
X146374323Y-51567695D01*
X146606552Y-51567695D02*
X146606552Y-50754895D01*
X146529142Y-50871009D01*
X146451733Y-50948419D01*
X146374323Y-50987123D01*
X147341942Y-50754895D02*
X147419352Y-50754895D01*
X147496761Y-50793600D01*
X147535466Y-50832304D01*
X147574171Y-50909714D01*
X147612876Y-51064533D01*
X147612876Y-51258057D01*
X147574171Y-51412876D01*
X147535466Y-51490285D01*
X147496761Y-51528990D01*
X147419352Y-51567695D01*
X147341942Y-51567695D01*
X147264533Y-51528990D01*
X147225828Y-51490285D01*
X147187123Y-51412876D01*
X147148419Y-51258057D01*
X147148419Y-51064533D01*
X147187123Y-50909714D01*
X147225828Y-50832304D01*
X147264533Y-50793600D01*
X147341942Y-50754895D01*
X147961219Y-51567695D02*
X147961219Y-50754895D01*
X148425676Y-51567695D02*
X148077333Y-51103238D01*
X148425676Y-50754895D02*
X147961219Y-51219352D01*
G04 #@! TO.C,R704*
X164990438Y-51867695D02*
X164719504Y-51480647D01*
X164525980Y-51867695D02*
X164525980Y-51054895D01*
X164835619Y-51054895D01*
X164913028Y-51093600D01*
X164951733Y-51132304D01*
X164990438Y-51209714D01*
X164990438Y-51325828D01*
X164951733Y-51403238D01*
X164913028Y-51441942D01*
X164835619Y-51480647D01*
X164525980Y-51480647D01*
X165261371Y-51054895D02*
X165803238Y-51054895D01*
X165454895Y-51867695D01*
X166267695Y-51054895D02*
X166345104Y-51054895D01*
X166422514Y-51093600D01*
X166461219Y-51132304D01*
X166499923Y-51209714D01*
X166538628Y-51364533D01*
X166538628Y-51558057D01*
X166499923Y-51712876D01*
X166461219Y-51790285D01*
X166422514Y-51828990D01*
X166345104Y-51867695D01*
X166267695Y-51867695D01*
X166190285Y-51828990D01*
X166151580Y-51790285D01*
X166112876Y-51712876D01*
X166074171Y-51558057D01*
X166074171Y-51364533D01*
X166112876Y-51209714D01*
X166151580Y-51132304D01*
X166190285Y-51093600D01*
X166267695Y-51054895D01*
X167235314Y-51325828D02*
X167235314Y-51867695D01*
X167041790Y-51016190D02*
X166848266Y-51596761D01*
X167351428Y-51596761D01*
X164088780Y-52942695D02*
X163624323Y-52942695D01*
X163856552Y-52942695D02*
X163856552Y-52129895D01*
X163779142Y-52246009D01*
X163701733Y-52323419D01*
X163624323Y-52362123D01*
X164591942Y-52129895D02*
X164669352Y-52129895D01*
X164746761Y-52168600D01*
X164785466Y-52207304D01*
X164824171Y-52284714D01*
X164862876Y-52439533D01*
X164862876Y-52633057D01*
X164824171Y-52787876D01*
X164785466Y-52865285D01*
X164746761Y-52903990D01*
X164669352Y-52942695D01*
X164591942Y-52942695D01*
X164514533Y-52903990D01*
X164475828Y-52865285D01*
X164437123Y-52787876D01*
X164398419Y-52633057D01*
X164398419Y-52439533D01*
X164437123Y-52284714D01*
X164475828Y-52207304D01*
X164514533Y-52168600D01*
X164591942Y-52129895D01*
X165211219Y-52942695D02*
X165211219Y-52129895D01*
X165675676Y-52942695D02*
X165327333Y-52478238D01*
X165675676Y-52129895D02*
X165211219Y-52594352D01*
G04 #@! TO.C,R705*
X149690438Y-59067695D02*
X149419504Y-58680647D01*
X149225980Y-59067695D02*
X149225980Y-58254895D01*
X149535619Y-58254895D01*
X149613028Y-58293600D01*
X149651733Y-58332304D01*
X149690438Y-58409714D01*
X149690438Y-58525828D01*
X149651733Y-58603238D01*
X149613028Y-58641942D01*
X149535619Y-58680647D01*
X149225980Y-58680647D01*
X149961371Y-58254895D02*
X150503238Y-58254895D01*
X150154895Y-59067695D01*
X150967695Y-58254895D02*
X151045104Y-58254895D01*
X151122514Y-58293600D01*
X151161219Y-58332304D01*
X151199923Y-58409714D01*
X151238628Y-58564533D01*
X151238628Y-58758057D01*
X151199923Y-58912876D01*
X151161219Y-58990285D01*
X151122514Y-59028990D01*
X151045104Y-59067695D01*
X150967695Y-59067695D01*
X150890285Y-59028990D01*
X150851580Y-58990285D01*
X150812876Y-58912876D01*
X150774171Y-58758057D01*
X150774171Y-58564533D01*
X150812876Y-58409714D01*
X150851580Y-58332304D01*
X150890285Y-58293600D01*
X150967695Y-58254895D01*
X151974019Y-58254895D02*
X151586971Y-58254895D01*
X151548266Y-58641942D01*
X151586971Y-58603238D01*
X151664380Y-58564533D01*
X151857904Y-58564533D01*
X151935314Y-58603238D01*
X151974019Y-58641942D01*
X152012723Y-58719352D01*
X152012723Y-58912876D01*
X151974019Y-58990285D01*
X151935314Y-59028990D01*
X151857904Y-59067695D01*
X151664380Y-59067695D01*
X151586971Y-59028990D01*
X151548266Y-58990285D01*
X150438780Y-60067695D02*
X149974323Y-60067695D01*
X150206552Y-60067695D02*
X150206552Y-59254895D01*
X150129142Y-59371009D01*
X150051733Y-59448419D01*
X149974323Y-59487123D01*
X150941942Y-59254895D02*
X151019352Y-59254895D01*
X151096761Y-59293600D01*
X151135466Y-59332304D01*
X151174171Y-59409714D01*
X151212876Y-59564533D01*
X151212876Y-59758057D01*
X151174171Y-59912876D01*
X151135466Y-59990285D01*
X151096761Y-60028990D01*
X151019352Y-60067695D01*
X150941942Y-60067695D01*
X150864533Y-60028990D01*
X150825828Y-59990285D01*
X150787123Y-59912876D01*
X150748419Y-59758057D01*
X150748419Y-59564533D01*
X150787123Y-59409714D01*
X150825828Y-59332304D01*
X150864533Y-59293600D01*
X150941942Y-59254895D01*
X151561219Y-60067695D02*
X151561219Y-59254895D01*
X152025676Y-60067695D02*
X151677333Y-59603238D01*
X152025676Y-59254895D02*
X151561219Y-59719352D01*
G04 #@! TO.C,R706*
X160417695Y-58509561D02*
X160030647Y-58780495D01*
X160417695Y-58974019D02*
X159604895Y-58974019D01*
X159604895Y-58664380D01*
X159643600Y-58586971D01*
X159682304Y-58548266D01*
X159759714Y-58509561D01*
X159875828Y-58509561D01*
X159953238Y-58548266D01*
X159991942Y-58586971D01*
X160030647Y-58664380D01*
X160030647Y-58974019D01*
X159604895Y-58238628D02*
X159604895Y-57696761D01*
X160417695Y-58045104D01*
X159604895Y-57232304D02*
X159604895Y-57154895D01*
X159643600Y-57077485D01*
X159682304Y-57038780D01*
X159759714Y-57000076D01*
X159914533Y-56961371D01*
X160108057Y-56961371D01*
X160262876Y-57000076D01*
X160340285Y-57038780D01*
X160378990Y-57077485D01*
X160417695Y-57154895D01*
X160417695Y-57232304D01*
X160378990Y-57309714D01*
X160340285Y-57348419D01*
X160262876Y-57387123D01*
X160108057Y-57425828D01*
X159914533Y-57425828D01*
X159759714Y-57387123D01*
X159682304Y-57348419D01*
X159643600Y-57309714D01*
X159604895Y-57232304D01*
X159604895Y-56264685D02*
X159604895Y-56419504D01*
X159643600Y-56496914D01*
X159682304Y-56535619D01*
X159798419Y-56613028D01*
X159953238Y-56651733D01*
X160262876Y-56651733D01*
X160340285Y-56613028D01*
X160378990Y-56574323D01*
X160417695Y-56496914D01*
X160417695Y-56342095D01*
X160378990Y-56264685D01*
X160340285Y-56225980D01*
X160262876Y-56187276D01*
X160069352Y-56187276D01*
X159991942Y-56225980D01*
X159953238Y-56264685D01*
X159914533Y-56342095D01*
X159914533Y-56496914D01*
X159953238Y-56574323D01*
X159991942Y-56613028D01*
X160069352Y-56651733D01*
G04 #@! TO.C,R707*
X149865438Y-56367695D02*
X149594504Y-55980647D01*
X149400980Y-56367695D02*
X149400980Y-55554895D01*
X149710619Y-55554895D01*
X149788028Y-55593600D01*
X149826733Y-55632304D01*
X149865438Y-55709714D01*
X149865438Y-55825828D01*
X149826733Y-55903238D01*
X149788028Y-55941942D01*
X149710619Y-55980647D01*
X149400980Y-55980647D01*
X150136371Y-55554895D02*
X150678238Y-55554895D01*
X150329895Y-56367695D01*
X151142695Y-55554895D02*
X151220104Y-55554895D01*
X151297514Y-55593600D01*
X151336219Y-55632304D01*
X151374923Y-55709714D01*
X151413628Y-55864533D01*
X151413628Y-56058057D01*
X151374923Y-56212876D01*
X151336219Y-56290285D01*
X151297514Y-56328990D01*
X151220104Y-56367695D01*
X151142695Y-56367695D01*
X151065285Y-56328990D01*
X151026580Y-56290285D01*
X150987876Y-56212876D01*
X150949171Y-56058057D01*
X150949171Y-55864533D01*
X150987876Y-55709714D01*
X151026580Y-55632304D01*
X151065285Y-55593600D01*
X151142695Y-55554895D01*
X151684561Y-55554895D02*
X152226428Y-55554895D01*
X151878085Y-56367695D01*
X150563780Y-57292695D02*
X150099323Y-57292695D01*
X150331552Y-57292695D02*
X150331552Y-56479895D01*
X150254142Y-56596009D01*
X150176733Y-56673419D01*
X150099323Y-56712123D01*
X150912123Y-57292695D02*
X150912123Y-56479895D01*
X151376580Y-57292695D02*
X151028238Y-56828238D01*
X151376580Y-56479895D02*
X150912123Y-56944352D01*
X152111971Y-56479895D02*
X151724923Y-56479895D01*
X151686219Y-56866942D01*
X151724923Y-56828238D01*
X151802333Y-56789533D01*
X151995857Y-56789533D01*
X152073266Y-56828238D01*
X152111971Y-56866942D01*
X152150676Y-56944352D01*
X152150676Y-57137876D01*
X152111971Y-57215285D01*
X152073266Y-57253990D01*
X151995857Y-57292695D01*
X151802333Y-57292695D01*
X151724923Y-57253990D01*
X151686219Y-57215285D01*
G04 #@! TO.C,R708*
X156367695Y-58559561D02*
X155980647Y-58830495D01*
X156367695Y-59024019D02*
X155554895Y-59024019D01*
X155554895Y-58714380D01*
X155593600Y-58636971D01*
X155632304Y-58598266D01*
X155709714Y-58559561D01*
X155825828Y-58559561D01*
X155903238Y-58598266D01*
X155941942Y-58636971D01*
X155980647Y-58714380D01*
X155980647Y-59024019D01*
X155554895Y-58288628D02*
X155554895Y-57746761D01*
X156367695Y-58095104D01*
X155554895Y-57282304D02*
X155554895Y-57204895D01*
X155593600Y-57127485D01*
X155632304Y-57088780D01*
X155709714Y-57050076D01*
X155864533Y-57011371D01*
X156058057Y-57011371D01*
X156212876Y-57050076D01*
X156290285Y-57088780D01*
X156328990Y-57127485D01*
X156367695Y-57204895D01*
X156367695Y-57282304D01*
X156328990Y-57359714D01*
X156290285Y-57398419D01*
X156212876Y-57437123D01*
X156058057Y-57475828D01*
X155864533Y-57475828D01*
X155709714Y-57437123D01*
X155632304Y-57398419D01*
X155593600Y-57359714D01*
X155554895Y-57282304D01*
X155903238Y-56546914D02*
X155864533Y-56624323D01*
X155825828Y-56663028D01*
X155748419Y-56701733D01*
X155709714Y-56701733D01*
X155632304Y-56663028D01*
X155593600Y-56624323D01*
X155554895Y-56546914D01*
X155554895Y-56392095D01*
X155593600Y-56314685D01*
X155632304Y-56275980D01*
X155709714Y-56237276D01*
X155748419Y-56237276D01*
X155825828Y-56275980D01*
X155864533Y-56314685D01*
X155903238Y-56392095D01*
X155903238Y-56546914D01*
X155941942Y-56624323D01*
X155980647Y-56663028D01*
X156058057Y-56701733D01*
X156212876Y-56701733D01*
X156290285Y-56663028D01*
X156328990Y-56624323D01*
X156367695Y-56546914D01*
X156367695Y-56392095D01*
X156328990Y-56314685D01*
X156290285Y-56275980D01*
X156212876Y-56237276D01*
X156058057Y-56237276D01*
X155980647Y-56275980D01*
X155941942Y-56314685D01*
X155903238Y-56392095D01*
G04 #@! TO.C,U701*
X154606628Y-51629895D02*
X154606628Y-52287876D01*
X154645333Y-52365285D01*
X154684038Y-52403990D01*
X154761447Y-52442695D01*
X154916266Y-52442695D01*
X154993676Y-52403990D01*
X155032380Y-52365285D01*
X155071085Y-52287876D01*
X155071085Y-51629895D01*
X155380723Y-51629895D02*
X155922590Y-51629895D01*
X155574247Y-52442695D01*
X156387047Y-51629895D02*
X156464457Y-51629895D01*
X156541866Y-51668600D01*
X156580571Y-51707304D01*
X156619276Y-51784714D01*
X156657980Y-51939533D01*
X156657980Y-52133057D01*
X156619276Y-52287876D01*
X156580571Y-52365285D01*
X156541866Y-52403990D01*
X156464457Y-52442695D01*
X156387047Y-52442695D01*
X156309638Y-52403990D01*
X156270933Y-52365285D01*
X156232228Y-52287876D01*
X156193523Y-52133057D01*
X156193523Y-51939533D01*
X156232228Y-51784714D01*
X156270933Y-51707304D01*
X156309638Y-51668600D01*
X156387047Y-51629895D01*
X157432076Y-52442695D02*
X156967619Y-52442695D01*
X157199847Y-52442695D02*
X157199847Y-51629895D01*
X157122438Y-51746009D01*
X157045028Y-51823419D01*
X156967619Y-51862123D01*
G04 #@! TO.C,D701*
X178525980Y-77567695D02*
X178525980Y-76754895D01*
X178719504Y-76754895D01*
X178835619Y-76793600D01*
X178913028Y-76871009D01*
X178951733Y-76948419D01*
X178990438Y-77103238D01*
X178990438Y-77219352D01*
X178951733Y-77374171D01*
X178913028Y-77451580D01*
X178835619Y-77528990D01*
X178719504Y-77567695D01*
X178525980Y-77567695D01*
X179261371Y-76754895D02*
X179803238Y-76754895D01*
X179454895Y-77567695D01*
X180267695Y-76754895D02*
X180345104Y-76754895D01*
X180422514Y-76793600D01*
X180461219Y-76832304D01*
X180499923Y-76909714D01*
X180538628Y-77064533D01*
X180538628Y-77258057D01*
X180499923Y-77412876D01*
X180461219Y-77490285D01*
X180422514Y-77528990D01*
X180345104Y-77567695D01*
X180267695Y-77567695D01*
X180190285Y-77528990D01*
X180151580Y-77490285D01*
X180112876Y-77412876D01*
X180074171Y-77258057D01*
X180074171Y-77064533D01*
X180112876Y-76909714D01*
X180151580Y-76832304D01*
X180190285Y-76793600D01*
X180267695Y-76754895D01*
X181312723Y-77567695D02*
X180848266Y-77567695D01*
X181080495Y-77567695D02*
X181080495Y-76754895D01*
X181003085Y-76871009D01*
X180925676Y-76948419D01*
X180848266Y-76987123D01*
G04 #@! TO.C,D702*
X173825980Y-77567695D02*
X173825980Y-76754895D01*
X174019504Y-76754895D01*
X174135619Y-76793600D01*
X174213028Y-76871009D01*
X174251733Y-76948419D01*
X174290438Y-77103238D01*
X174290438Y-77219352D01*
X174251733Y-77374171D01*
X174213028Y-77451580D01*
X174135619Y-77528990D01*
X174019504Y-77567695D01*
X173825980Y-77567695D01*
X174561371Y-76754895D02*
X175103238Y-76754895D01*
X174754895Y-77567695D01*
X175567695Y-76754895D02*
X175645104Y-76754895D01*
X175722514Y-76793600D01*
X175761219Y-76832304D01*
X175799923Y-76909714D01*
X175838628Y-77064533D01*
X175838628Y-77258057D01*
X175799923Y-77412876D01*
X175761219Y-77490285D01*
X175722514Y-77528990D01*
X175645104Y-77567695D01*
X175567695Y-77567695D01*
X175490285Y-77528990D01*
X175451580Y-77490285D01*
X175412876Y-77412876D01*
X175374171Y-77258057D01*
X175374171Y-77064533D01*
X175412876Y-76909714D01*
X175451580Y-76832304D01*
X175490285Y-76793600D01*
X175567695Y-76754895D01*
X176148266Y-76832304D02*
X176186971Y-76793600D01*
X176264380Y-76754895D01*
X176457904Y-76754895D01*
X176535314Y-76793600D01*
X176574019Y-76832304D01*
X176612723Y-76909714D01*
X176612723Y-76987123D01*
X176574019Y-77103238D01*
X176109561Y-77567695D01*
X176612723Y-77567695D01*
G04 #@! TO.C,R301*
X138740438Y-120117695D02*
X138469504Y-119730647D01*
X138275980Y-120117695D02*
X138275980Y-119304895D01*
X138585619Y-119304895D01*
X138663028Y-119343600D01*
X138701733Y-119382304D01*
X138740438Y-119459714D01*
X138740438Y-119575828D01*
X138701733Y-119653238D01*
X138663028Y-119691942D01*
X138585619Y-119730647D01*
X138275980Y-119730647D01*
X139011371Y-119304895D02*
X139514533Y-119304895D01*
X139243600Y-119614533D01*
X139359714Y-119614533D01*
X139437123Y-119653238D01*
X139475828Y-119691942D01*
X139514533Y-119769352D01*
X139514533Y-119962876D01*
X139475828Y-120040285D01*
X139437123Y-120078990D01*
X139359714Y-120117695D01*
X139127485Y-120117695D01*
X139050076Y-120078990D01*
X139011371Y-120040285D01*
X140017695Y-119304895D02*
X140095104Y-119304895D01*
X140172514Y-119343600D01*
X140211219Y-119382304D01*
X140249923Y-119459714D01*
X140288628Y-119614533D01*
X140288628Y-119808057D01*
X140249923Y-119962876D01*
X140211219Y-120040285D01*
X140172514Y-120078990D01*
X140095104Y-120117695D01*
X140017695Y-120117695D01*
X139940285Y-120078990D01*
X139901580Y-120040285D01*
X139862876Y-119962876D01*
X139824171Y-119808057D01*
X139824171Y-119614533D01*
X139862876Y-119459714D01*
X139901580Y-119382304D01*
X139940285Y-119343600D01*
X140017695Y-119304895D01*
X141062723Y-120117695D02*
X140598266Y-120117695D01*
X140830495Y-120117695D02*
X140830495Y-119304895D01*
X140753085Y-119421009D01*
X140675676Y-119498419D01*
X140598266Y-119537123D01*
X138738780Y-121117695D02*
X138274323Y-121117695D01*
X138506552Y-121117695D02*
X138506552Y-120304895D01*
X138429142Y-120421009D01*
X138351733Y-120498419D01*
X138274323Y-120537123D01*
X139241942Y-120304895D02*
X139319352Y-120304895D01*
X139396761Y-120343600D01*
X139435466Y-120382304D01*
X139474171Y-120459714D01*
X139512876Y-120614533D01*
X139512876Y-120808057D01*
X139474171Y-120962876D01*
X139435466Y-121040285D01*
X139396761Y-121078990D01*
X139319352Y-121117695D01*
X139241942Y-121117695D01*
X139164533Y-121078990D01*
X139125828Y-121040285D01*
X139087123Y-120962876D01*
X139048419Y-120808057D01*
X139048419Y-120614533D01*
X139087123Y-120459714D01*
X139125828Y-120382304D01*
X139164533Y-120343600D01*
X139241942Y-120304895D01*
X139861219Y-121117695D02*
X139861219Y-120304895D01*
X140325676Y-121117695D02*
X139977333Y-120653238D01*
X140325676Y-120304895D02*
X139861219Y-120769352D01*
G04 #@! TO.C,R302*
X130517695Y-122709561D02*
X130130647Y-122980495D01*
X130517695Y-123174019D02*
X129704895Y-123174019D01*
X129704895Y-122864380D01*
X129743600Y-122786971D01*
X129782304Y-122748266D01*
X129859714Y-122709561D01*
X129975828Y-122709561D01*
X130053238Y-122748266D01*
X130091942Y-122786971D01*
X130130647Y-122864380D01*
X130130647Y-123174019D01*
X129704895Y-122438628D02*
X129704895Y-121935466D01*
X130014533Y-122206400D01*
X130014533Y-122090285D01*
X130053238Y-122012876D01*
X130091942Y-121974171D01*
X130169352Y-121935466D01*
X130362876Y-121935466D01*
X130440285Y-121974171D01*
X130478990Y-122012876D01*
X130517695Y-122090285D01*
X130517695Y-122322514D01*
X130478990Y-122399923D01*
X130440285Y-122438628D01*
X129704895Y-121432304D02*
X129704895Y-121354895D01*
X129743600Y-121277485D01*
X129782304Y-121238780D01*
X129859714Y-121200076D01*
X130014533Y-121161371D01*
X130208057Y-121161371D01*
X130362876Y-121200076D01*
X130440285Y-121238780D01*
X130478990Y-121277485D01*
X130517695Y-121354895D01*
X130517695Y-121432304D01*
X130478990Y-121509714D01*
X130440285Y-121548419D01*
X130362876Y-121587123D01*
X130208057Y-121625828D01*
X130014533Y-121625828D01*
X129859714Y-121587123D01*
X129782304Y-121548419D01*
X129743600Y-121509714D01*
X129704895Y-121432304D01*
X129782304Y-120851733D02*
X129743600Y-120813028D01*
X129704895Y-120735619D01*
X129704895Y-120542095D01*
X129743600Y-120464685D01*
X129782304Y-120425980D01*
X129859714Y-120387276D01*
X129937123Y-120387276D01*
X130053238Y-120425980D01*
X130517695Y-120890438D01*
X130517695Y-120387276D01*
X130567695Y-125261219D02*
X130567695Y-125725676D01*
X130567695Y-125493447D02*
X129754895Y-125493447D01*
X129871009Y-125570857D01*
X129948419Y-125648266D01*
X129987123Y-125725676D01*
X129754895Y-124758057D02*
X129754895Y-124680647D01*
X129793600Y-124603238D01*
X129832304Y-124564533D01*
X129909714Y-124525828D01*
X130064533Y-124487123D01*
X130258057Y-124487123D01*
X130412876Y-124525828D01*
X130490285Y-124564533D01*
X130528990Y-124603238D01*
X130567695Y-124680647D01*
X130567695Y-124758057D01*
X130528990Y-124835466D01*
X130490285Y-124874171D01*
X130412876Y-124912876D01*
X130258057Y-124951580D01*
X130064533Y-124951580D01*
X129909714Y-124912876D01*
X129832304Y-124874171D01*
X129793600Y-124835466D01*
X129754895Y-124758057D01*
X130567695Y-124138780D02*
X129754895Y-124138780D01*
X130567695Y-123674323D02*
X130103238Y-124022666D01*
X129754895Y-123674323D02*
X130219352Y-124138780D01*
G04 #@! TO.C,U801*
D18*
X160835714Y-92352380D02*
X160835714Y-93161904D01*
X160883333Y-93257142D01*
X160930952Y-93304761D01*
X161026190Y-93352380D01*
X161216666Y-93352380D01*
X161311904Y-93304761D01*
X161359523Y-93257142D01*
X161407142Y-93161904D01*
X161407142Y-92352380D01*
X162026190Y-92780952D02*
X161930952Y-92733333D01*
X161883333Y-92685714D01*
X161835714Y-92590476D01*
X161835714Y-92542857D01*
X161883333Y-92447619D01*
X161930952Y-92400000D01*
X162026190Y-92352380D01*
X162216666Y-92352380D01*
X162311904Y-92400000D01*
X162359523Y-92447619D01*
X162407142Y-92542857D01*
X162407142Y-92590476D01*
X162359523Y-92685714D01*
X162311904Y-92733333D01*
X162216666Y-92780952D01*
X162026190Y-92780952D01*
X161930952Y-92828571D01*
X161883333Y-92876190D01*
X161835714Y-92971428D01*
X161835714Y-93161904D01*
X161883333Y-93257142D01*
X161930952Y-93304761D01*
X162026190Y-93352380D01*
X162216666Y-93352380D01*
X162311904Y-93304761D01*
X162359523Y-93257142D01*
X162407142Y-93161904D01*
X162407142Y-92971428D01*
X162359523Y-92876190D01*
X162311904Y-92828571D01*
X162216666Y-92780952D01*
X163026190Y-92352380D02*
X163121428Y-92352380D01*
X163216666Y-92400000D01*
X163264285Y-92447619D01*
X163311904Y-92542857D01*
X163359523Y-92733333D01*
X163359523Y-92971428D01*
X163311904Y-93161904D01*
X163264285Y-93257142D01*
X163216666Y-93304761D01*
X163121428Y-93352380D01*
X163026190Y-93352380D01*
X162930952Y-93304761D01*
X162883333Y-93257142D01*
X162835714Y-93161904D01*
X162788095Y-92971428D01*
X162788095Y-92733333D01*
X162835714Y-92542857D01*
X162883333Y-92447619D01*
X162930952Y-92400000D01*
X163026190Y-92352380D01*
X164311904Y-93352380D02*
X163740476Y-93352380D01*
X164026190Y-93352380D02*
X164026190Y-92352380D01*
X163930952Y-92495238D01*
X163835714Y-92590476D01*
X163740476Y-92638095D01*
G04 #@! TO.C,U901*
X168235714Y-92352380D02*
X168235714Y-93161904D01*
X168283333Y-93257142D01*
X168330952Y-93304761D01*
X168426190Y-93352380D01*
X168616666Y-93352380D01*
X168711904Y-93304761D01*
X168759523Y-93257142D01*
X168807142Y-93161904D01*
X168807142Y-92352380D01*
X169330952Y-93352380D02*
X169521428Y-93352380D01*
X169616666Y-93304761D01*
X169664285Y-93257142D01*
X169759523Y-93114285D01*
X169807142Y-92923809D01*
X169807142Y-92542857D01*
X169759523Y-92447619D01*
X169711904Y-92400000D01*
X169616666Y-92352380D01*
X169426190Y-92352380D01*
X169330952Y-92400000D01*
X169283333Y-92447619D01*
X169235714Y-92542857D01*
X169235714Y-92780952D01*
X169283333Y-92876190D01*
X169330952Y-92923809D01*
X169426190Y-92971428D01*
X169616666Y-92971428D01*
X169711904Y-92923809D01*
X169759523Y-92876190D01*
X169807142Y-92780952D01*
X170426190Y-92352380D02*
X170521428Y-92352380D01*
X170616666Y-92400000D01*
X170664285Y-92447619D01*
X170711904Y-92542857D01*
X170759523Y-92733333D01*
X170759523Y-92971428D01*
X170711904Y-93161904D01*
X170664285Y-93257142D01*
X170616666Y-93304761D01*
X170521428Y-93352380D01*
X170426190Y-93352380D01*
X170330952Y-93304761D01*
X170283333Y-93257142D01*
X170235714Y-93161904D01*
X170188095Y-92971428D01*
X170188095Y-92733333D01*
X170235714Y-92542857D01*
X170283333Y-92447619D01*
X170330952Y-92400000D01*
X170426190Y-92352380D01*
X171711904Y-93352380D02*
X171140476Y-93352380D01*
X171426190Y-93352380D02*
X171426190Y-92352380D01*
X171330952Y-92495238D01*
X171235714Y-92590476D01*
X171140476Y-92638095D01*
G04 #@! TO.C,U1001*
X145559523Y-92352380D02*
X145559523Y-93161904D01*
X145607142Y-93257142D01*
X145654761Y-93304761D01*
X145750000Y-93352380D01*
X145940476Y-93352380D01*
X146035714Y-93304761D01*
X146083333Y-93257142D01*
X146130952Y-93161904D01*
X146130952Y-92352380D01*
X147130952Y-93352380D02*
X146559523Y-93352380D01*
X146845238Y-93352380D02*
X146845238Y-92352380D01*
X146750000Y-92495238D01*
X146654761Y-92590476D01*
X146559523Y-92638095D01*
X147750000Y-92352380D02*
X147845238Y-92352380D01*
X147940476Y-92400000D01*
X147988095Y-92447619D01*
X148035714Y-92542857D01*
X148083333Y-92733333D01*
X148083333Y-92971428D01*
X148035714Y-93161904D01*
X147988095Y-93257142D01*
X147940476Y-93304761D01*
X147845238Y-93352380D01*
X147750000Y-93352380D01*
X147654761Y-93304761D01*
X147607142Y-93257142D01*
X147559523Y-93161904D01*
X147511904Y-92971428D01*
X147511904Y-92733333D01*
X147559523Y-92542857D01*
X147607142Y-92447619D01*
X147654761Y-92400000D01*
X147750000Y-92352380D01*
X148702380Y-92352380D02*
X148797619Y-92352380D01*
X148892857Y-92400000D01*
X148940476Y-92447619D01*
X148988095Y-92542857D01*
X149035714Y-92733333D01*
X149035714Y-92971428D01*
X148988095Y-93161904D01*
X148940476Y-93257142D01*
X148892857Y-93304761D01*
X148797619Y-93352380D01*
X148702380Y-93352380D01*
X148607142Y-93304761D01*
X148559523Y-93257142D01*
X148511904Y-93161904D01*
X148464285Y-92971428D01*
X148464285Y-92733333D01*
X148511904Y-92542857D01*
X148559523Y-92447619D01*
X148607142Y-92400000D01*
X148702380Y-92352380D01*
X149988095Y-93352380D02*
X149416666Y-93352380D01*
X149702380Y-93352380D02*
X149702380Y-92352380D01*
X149607142Y-92495238D01*
X149511904Y-92590476D01*
X149416666Y-92638095D01*
G04 #@! TO.C,U1101*
X152959523Y-92352380D02*
X152959523Y-93161904D01*
X153007142Y-93257142D01*
X153054761Y-93304761D01*
X153150000Y-93352380D01*
X153340476Y-93352380D01*
X153435714Y-93304761D01*
X153483333Y-93257142D01*
X153530952Y-93161904D01*
X153530952Y-92352380D01*
X154530952Y-93352380D02*
X153959523Y-93352380D01*
X154245238Y-93352380D02*
X154245238Y-92352380D01*
X154150000Y-92495238D01*
X154054761Y-92590476D01*
X153959523Y-92638095D01*
X155483333Y-93352380D02*
X154911904Y-93352380D01*
X155197619Y-93352380D02*
X155197619Y-92352380D01*
X155102380Y-92495238D01*
X155007142Y-92590476D01*
X154911904Y-92638095D01*
X156102380Y-92352380D02*
X156197619Y-92352380D01*
X156292857Y-92400000D01*
X156340476Y-92447619D01*
X156388095Y-92542857D01*
X156435714Y-92733333D01*
X156435714Y-92971428D01*
X156388095Y-93161904D01*
X156340476Y-93257142D01*
X156292857Y-93304761D01*
X156197619Y-93352380D01*
X156102380Y-93352380D01*
X156007142Y-93304761D01*
X155959523Y-93257142D01*
X155911904Y-93161904D01*
X155864285Y-92971428D01*
X155864285Y-92733333D01*
X155911904Y-92542857D01*
X155959523Y-92447619D01*
X156007142Y-92400000D01*
X156102380Y-92352380D01*
X157388095Y-93352380D02*
X156816666Y-93352380D01*
X157102380Y-93352380D02*
X157102380Y-92352380D01*
X157007142Y-92495238D01*
X156911904Y-92590476D01*
X156816666Y-92638095D01*
G04 #@! TO.C,U1201*
X182509523Y-92252380D02*
X182509523Y-93061904D01*
X182557142Y-93157142D01*
X182604761Y-93204761D01*
X182700000Y-93252380D01*
X182890476Y-93252380D01*
X182985714Y-93204761D01*
X183033333Y-93157142D01*
X183080952Y-93061904D01*
X183080952Y-92252380D01*
X184080952Y-93252380D02*
X183509523Y-93252380D01*
X183795238Y-93252380D02*
X183795238Y-92252380D01*
X183700000Y-92395238D01*
X183604761Y-92490476D01*
X183509523Y-92538095D01*
X184461904Y-92347619D02*
X184509523Y-92300000D01*
X184604761Y-92252380D01*
X184842857Y-92252380D01*
X184938095Y-92300000D01*
X184985714Y-92347619D01*
X185033333Y-92442857D01*
X185033333Y-92538095D01*
X184985714Y-92680952D01*
X184414285Y-93252380D01*
X185033333Y-93252380D01*
X185652380Y-92252380D02*
X185747619Y-92252380D01*
X185842857Y-92300000D01*
X185890476Y-92347619D01*
X185938095Y-92442857D01*
X185985714Y-92633333D01*
X185985714Y-92871428D01*
X185938095Y-93061904D01*
X185890476Y-93157142D01*
X185842857Y-93204761D01*
X185747619Y-93252380D01*
X185652380Y-93252380D01*
X185557142Y-93204761D01*
X185509523Y-93157142D01*
X185461904Y-93061904D01*
X185414285Y-92871428D01*
X185414285Y-92633333D01*
X185461904Y-92442857D01*
X185509523Y-92347619D01*
X185557142Y-92300000D01*
X185652380Y-92252380D01*
X186938095Y-93252380D02*
X186366666Y-93252380D01*
X186652380Y-93252380D02*
X186652380Y-92252380D01*
X186557142Y-92395238D01*
X186461904Y-92490476D01*
X186366666Y-92538095D01*
G04 #@! TO.C,U1102*
X130759523Y-92352380D02*
X130759523Y-93161904D01*
X130807142Y-93257142D01*
X130854761Y-93304761D01*
X130950000Y-93352380D01*
X131140476Y-93352380D01*
X131235714Y-93304761D01*
X131283333Y-93257142D01*
X131330952Y-93161904D01*
X131330952Y-92352380D01*
X132330952Y-93352380D02*
X131759523Y-93352380D01*
X132045238Y-93352380D02*
X132045238Y-92352380D01*
X131950000Y-92495238D01*
X131854761Y-92590476D01*
X131759523Y-92638095D01*
X133283333Y-93352380D02*
X132711904Y-93352380D01*
X132997619Y-93352380D02*
X132997619Y-92352380D01*
X132902380Y-92495238D01*
X132807142Y-92590476D01*
X132711904Y-92638095D01*
X133902380Y-92352380D02*
X133997619Y-92352380D01*
X134092857Y-92400000D01*
X134140476Y-92447619D01*
X134188095Y-92542857D01*
X134235714Y-92733333D01*
X134235714Y-92971428D01*
X134188095Y-93161904D01*
X134140476Y-93257142D01*
X134092857Y-93304761D01*
X133997619Y-93352380D01*
X133902380Y-93352380D01*
X133807142Y-93304761D01*
X133759523Y-93257142D01*
X133711904Y-93161904D01*
X133664285Y-92971428D01*
X133664285Y-92733333D01*
X133711904Y-92542857D01*
X133759523Y-92447619D01*
X133807142Y-92400000D01*
X133902380Y-92352380D01*
X134616666Y-92447619D02*
X134664285Y-92400000D01*
X134759523Y-92352380D01*
X134997619Y-92352380D01*
X135092857Y-92400000D01*
X135140476Y-92447619D01*
X135188095Y-92542857D01*
X135188095Y-92638095D01*
X135140476Y-92780952D01*
X134569047Y-93352380D01*
X135188095Y-93352380D01*
G04 #@! TO.C,U1103*
X138159523Y-92352380D02*
X138159523Y-93161904D01*
X138207142Y-93257142D01*
X138254761Y-93304761D01*
X138350000Y-93352380D01*
X138540476Y-93352380D01*
X138635714Y-93304761D01*
X138683333Y-93257142D01*
X138730952Y-93161904D01*
X138730952Y-92352380D01*
X139730952Y-93352380D02*
X139159523Y-93352380D01*
X139445238Y-93352380D02*
X139445238Y-92352380D01*
X139350000Y-92495238D01*
X139254761Y-92590476D01*
X139159523Y-92638095D01*
X140683333Y-93352380D02*
X140111904Y-93352380D01*
X140397619Y-93352380D02*
X140397619Y-92352380D01*
X140302380Y-92495238D01*
X140207142Y-92590476D01*
X140111904Y-92638095D01*
X141302380Y-92352380D02*
X141397619Y-92352380D01*
X141492857Y-92400000D01*
X141540476Y-92447619D01*
X141588095Y-92542857D01*
X141635714Y-92733333D01*
X141635714Y-92971428D01*
X141588095Y-93161904D01*
X141540476Y-93257142D01*
X141492857Y-93304761D01*
X141397619Y-93352380D01*
X141302380Y-93352380D01*
X141207142Y-93304761D01*
X141159523Y-93257142D01*
X141111904Y-93161904D01*
X141064285Y-92971428D01*
X141064285Y-92733333D01*
X141111904Y-92542857D01*
X141159523Y-92447619D01*
X141207142Y-92400000D01*
X141302380Y-92352380D01*
X141969047Y-92352380D02*
X142588095Y-92352380D01*
X142254761Y-92733333D01*
X142397619Y-92733333D01*
X142492857Y-92780952D01*
X142540476Y-92828571D01*
X142588095Y-92923809D01*
X142588095Y-93161904D01*
X142540476Y-93257142D01*
X142492857Y-93304761D01*
X142397619Y-93352380D01*
X142111904Y-93352380D01*
X142016666Y-93304761D01*
X141969047Y-93257142D01*
G04 #@! TO.C,U1202*
X190059523Y-92302380D02*
X190059523Y-93111904D01*
X190107142Y-93207142D01*
X190154761Y-93254761D01*
X190250000Y-93302380D01*
X190440476Y-93302380D01*
X190535714Y-93254761D01*
X190583333Y-93207142D01*
X190630952Y-93111904D01*
X190630952Y-92302380D01*
X191630952Y-93302380D02*
X191059523Y-93302380D01*
X191345238Y-93302380D02*
X191345238Y-92302380D01*
X191250000Y-92445238D01*
X191154761Y-92540476D01*
X191059523Y-92588095D01*
X192011904Y-92397619D02*
X192059523Y-92350000D01*
X192154761Y-92302380D01*
X192392857Y-92302380D01*
X192488095Y-92350000D01*
X192535714Y-92397619D01*
X192583333Y-92492857D01*
X192583333Y-92588095D01*
X192535714Y-92730952D01*
X191964285Y-93302380D01*
X192583333Y-93302380D01*
X193202380Y-92302380D02*
X193297619Y-92302380D01*
X193392857Y-92350000D01*
X193440476Y-92397619D01*
X193488095Y-92492857D01*
X193535714Y-92683333D01*
X193535714Y-92921428D01*
X193488095Y-93111904D01*
X193440476Y-93207142D01*
X193392857Y-93254761D01*
X193297619Y-93302380D01*
X193202380Y-93302380D01*
X193107142Y-93254761D01*
X193059523Y-93207142D01*
X193011904Y-93111904D01*
X192964285Y-92921428D01*
X192964285Y-92683333D01*
X193011904Y-92492857D01*
X193059523Y-92397619D01*
X193107142Y-92350000D01*
X193202380Y-92302380D01*
X193916666Y-92397619D02*
X193964285Y-92350000D01*
X194059523Y-92302380D01*
X194297619Y-92302380D01*
X194392857Y-92350000D01*
X194440476Y-92397619D01*
X194488095Y-92492857D01*
X194488095Y-92588095D01*
X194440476Y-92730952D01*
X193869047Y-93302380D01*
X194488095Y-93302380D01*
G04 #@! TO.C,U1*
X198738095Y-70752380D02*
X198738095Y-71561904D01*
X198785714Y-71657142D01*
X198833333Y-71704761D01*
X198928571Y-71752380D01*
X199119047Y-71752380D01*
X199214285Y-71704761D01*
X199261904Y-71657142D01*
X199309523Y-71561904D01*
X199309523Y-70752380D01*
X200309523Y-71752380D02*
X199738095Y-71752380D01*
X200023809Y-71752380D02*
X200023809Y-70752380D01*
X199928571Y-70895238D01*
X199833333Y-70990476D01*
X199738095Y-71038095D01*
G04 #@! TO.C,U2*
X199638095Y-53852380D02*
X199638095Y-54661904D01*
X199685714Y-54757142D01*
X199733333Y-54804761D01*
X199828571Y-54852380D01*
X200019047Y-54852380D01*
X200114285Y-54804761D01*
X200161904Y-54757142D01*
X200209523Y-54661904D01*
X200209523Y-53852380D01*
X200638095Y-53947619D02*
X200685714Y-53900000D01*
X200780952Y-53852380D01*
X201019047Y-53852380D01*
X201114285Y-53900000D01*
X201161904Y-53947619D01*
X201209523Y-54042857D01*
X201209523Y-54138095D01*
X201161904Y-54280952D01*
X200590476Y-54852380D01*
X201209523Y-54852380D01*
G04 #@! TO.C,D10*
X159685714Y-104752380D02*
X159685714Y-103752380D01*
X159923809Y-103752380D01*
X160066666Y-103800000D01*
X160161904Y-103895238D01*
X160209523Y-103990476D01*
X160257142Y-104180952D01*
X160257142Y-104323809D01*
X160209523Y-104514285D01*
X160161904Y-104609523D01*
X160066666Y-104704761D01*
X159923809Y-104752380D01*
X159685714Y-104752380D01*
X161209523Y-104752380D02*
X160638095Y-104752380D01*
X160923809Y-104752380D02*
X160923809Y-103752380D01*
X160828571Y-103895238D01*
X160733333Y-103990476D01*
X160638095Y-104038095D01*
X161828571Y-103752380D02*
X161923809Y-103752380D01*
X162019047Y-103800000D01*
X162066666Y-103847619D01*
X162114285Y-103942857D01*
X162161904Y-104133333D01*
X162161904Y-104371428D01*
X162114285Y-104561904D01*
X162066666Y-104657142D01*
X162019047Y-104704761D01*
X161923809Y-104752380D01*
X161828571Y-104752380D01*
X161733333Y-104704761D01*
X161685714Y-104657142D01*
X161638095Y-104561904D01*
X161590476Y-104371428D01*
X161590476Y-104133333D01*
X161638095Y-103942857D01*
X161685714Y-103847619D01*
X161733333Y-103800000D01*
X161828571Y-103752380D01*
G04 #@! TO.C,D11*
X173985714Y-104752380D02*
X173985714Y-103752380D01*
X174223809Y-103752380D01*
X174366666Y-103800000D01*
X174461904Y-103895238D01*
X174509523Y-103990476D01*
X174557142Y-104180952D01*
X174557142Y-104323809D01*
X174509523Y-104514285D01*
X174461904Y-104609523D01*
X174366666Y-104704761D01*
X174223809Y-104752380D01*
X173985714Y-104752380D01*
X175509523Y-104752380D02*
X174938095Y-104752380D01*
X175223809Y-104752380D02*
X175223809Y-103752380D01*
X175128571Y-103895238D01*
X175033333Y-103990476D01*
X174938095Y-104038095D01*
X176461904Y-104752380D02*
X175890476Y-104752380D01*
X176176190Y-104752380D02*
X176176190Y-103752380D01*
X176080952Y-103895238D01*
X175985714Y-103990476D01*
X175890476Y-104038095D01*
G04 #@! TO.C,C1*
D20*
X170464533Y-131590285D02*
X170425828Y-131628990D01*
X170309714Y-131667695D01*
X170232304Y-131667695D01*
X170116190Y-131628990D01*
X170038780Y-131551580D01*
X170000076Y-131474171D01*
X169961371Y-131319352D01*
X169961371Y-131203238D01*
X170000076Y-131048419D01*
X170038780Y-130971009D01*
X170116190Y-130893600D01*
X170232304Y-130854895D01*
X170309714Y-130854895D01*
X170425828Y-130893600D01*
X170464533Y-130932304D01*
X171238628Y-131667695D02*
X170774171Y-131667695D01*
X171006400Y-131667695D02*
X171006400Y-130854895D01*
X170928990Y-130971009D01*
X170851580Y-131048419D01*
X170774171Y-131087123D01*
X170442095Y-132767695D02*
X169977638Y-132767695D01*
X170209866Y-132767695D02*
X170209866Y-131954895D01*
X170132457Y-132071009D01*
X170055047Y-132148419D01*
X169977638Y-132187123D01*
X170945257Y-131954895D02*
X171022666Y-131954895D01*
X171100076Y-131993600D01*
X171138780Y-132032304D01*
X171177485Y-132109714D01*
X171216190Y-132264533D01*
X171216190Y-132458057D01*
X171177485Y-132612876D01*
X171138780Y-132690285D01*
X171100076Y-132728990D01*
X171022666Y-132767695D01*
X170945257Y-132767695D01*
X170867847Y-132728990D01*
X170829142Y-132690285D01*
X170790438Y-132612876D01*
X170751733Y-132458057D01*
X170751733Y-132264533D01*
X170790438Y-132109714D01*
X170829142Y-132032304D01*
X170867847Y-131993600D01*
X170945257Y-131954895D01*
X171719352Y-131954895D02*
X171796761Y-131954895D01*
X171874171Y-131993600D01*
X171912876Y-132032304D01*
X171951580Y-132109714D01*
X171990285Y-132264533D01*
X171990285Y-132458057D01*
X171951580Y-132612876D01*
X171912876Y-132690285D01*
X171874171Y-132728990D01*
X171796761Y-132767695D01*
X171719352Y-132767695D01*
X171641942Y-132728990D01*
X171603238Y-132690285D01*
X171564533Y-132612876D01*
X171525828Y-132458057D01*
X171525828Y-132264533D01*
X171564533Y-132109714D01*
X171603238Y-132032304D01*
X171641942Y-131993600D01*
X171719352Y-131954895D01*
X172338628Y-132225828D02*
X172338628Y-132767695D01*
X172338628Y-132303238D02*
X172377333Y-132264533D01*
X172454742Y-132225828D01*
X172570857Y-132225828D01*
X172648266Y-132264533D01*
X172686971Y-132341942D01*
X172686971Y-132767695D01*
X173344952Y-132341942D02*
X173074019Y-132341942D01*
X173074019Y-132767695D02*
X173074019Y-131954895D01*
X173461066Y-131954895D01*
G04 #@! TD*
M02*
