G04 #@! TF.GenerationSoftware,KiCad,Pcbnew,(2017-01-11 revision e99b79cb2)-master*
G04 #@! TF.CreationDate,2017-12-08T16:29:26+02:00*
G04 #@! TF.ProjectId,esb,6573622E6B696361645F706362000000,rev?*
G04 #@! TF.FileFunction,Soldermask,Top*
G04 #@! TF.FilePolarity,Negative*
%FSLAX46Y46*%
G04 Gerber Fmt 4.6, Leading zero omitted, Abs format (unit mm)*
G04 Created by KiCad (PCBNEW (2017-01-11 revision e99b79cb2)-master) date Fri Dec  8 16:29:26 2017*
%MOMM*%
%LPD*%
G01*
G04 APERTURE LIST*
%ADD10C,0.100000*%
%ADD11R,0.762000X0.939800*%
%ADD12R,1.297940X1.399540*%
%ADD13R,0.939800X0.762000*%
%ADD14R,0.398780X1.498600*%
%ADD15R,0.279400X1.498600*%
%ADD16R,1.498600X0.398780*%
%ADD17R,1.498600X0.279400*%
%ADD18R,0.998220X1.899920*%
%ADD19R,1.699260X2.397760*%
%ADD20R,0.635000X1.905000*%
%ADD21R,2.400000X2.700000*%
%ADD22R,0.700000X1.350000*%
%ADD23R,2.623820X2.623820*%
%ADD24C,2.623820*%
%ADD25C,2.999740*%
%ADD26R,2.000000X2.800000*%
%ADD27R,1.900000X2.179320*%
%ADD28R,0.700000X1.200000*%
%ADD29R,1.900000X1.400000*%
%ADD30R,5.970000X6.100000*%
%ADD31R,1.399540X1.297940*%
%ADD32R,1.524000X0.600000*%
%ADD33R,1.524000X0.635000*%
%ADD34R,0.998220X3.997960*%
%ADD35R,3.300000X2.400000*%
%ADD36R,0.400000X1.200000*%
%ADD37R,3.600000X1.900000*%
%ADD38R,0.800000X2.200000*%
%ADD39R,5.600000X6.400000*%
G04 APERTURE END LIST*
D10*
D11*
X177411800Y-85050000D03*
X179088200Y-85050000D03*
X142838200Y-127550000D03*
X141161800Y-127550000D03*
X146288200Y-127550000D03*
X144611800Y-127550000D03*
D12*
X146830600Y-132350000D03*
X143300000Y-132350000D03*
D13*
X135250000Y-124338200D03*
X135250000Y-122661800D03*
X129300000Y-56938200D03*
X129300000Y-55261800D03*
X131200000Y-56938200D03*
X131200000Y-55261800D03*
D14*
X125440000Y-74597880D03*
D15*
X126001340Y-74597880D03*
X126501720Y-74597880D03*
X127002100Y-74597880D03*
X127502480Y-74597880D03*
X128000320Y-74597880D03*
X128500700Y-74597880D03*
X129001080Y-74597880D03*
X129498920Y-74597880D03*
X129999300Y-74597880D03*
X130499680Y-74597880D03*
X130997520Y-74597880D03*
X131497900Y-74597880D03*
X131998280Y-74597880D03*
X132498660Y-74597880D03*
D14*
X133060000Y-74597880D03*
D16*
X135147880Y-72510000D03*
D17*
X135147880Y-71948660D03*
X135147880Y-71448280D03*
X135147880Y-70947900D03*
X135147880Y-70447520D03*
X135147880Y-69949680D03*
X135147880Y-69449300D03*
X135147880Y-68948920D03*
X135147880Y-68451080D03*
X135147880Y-67950700D03*
X135147880Y-67450320D03*
X135147880Y-66952480D03*
X135147880Y-66452100D03*
X135147880Y-65951720D03*
X135147880Y-65451340D03*
D16*
X135147880Y-64890000D03*
D14*
X133060000Y-62802120D03*
D15*
X132498660Y-62802120D03*
X131998280Y-62802120D03*
X131497900Y-62802120D03*
X130997520Y-62802120D03*
X130499680Y-62802120D03*
X129999300Y-62802120D03*
X129498920Y-62802120D03*
X129001080Y-62802120D03*
X128500700Y-62802120D03*
X128000320Y-62802120D03*
X127502480Y-62802120D03*
X127002100Y-62802120D03*
X126501720Y-62802120D03*
X126001340Y-62802120D03*
D14*
X125440000Y-62802120D03*
D16*
X123352120Y-64890000D03*
D17*
X123352120Y-65451340D03*
X123352120Y-65951720D03*
X123352120Y-66452100D03*
X123352120Y-66952480D03*
X123352120Y-67450320D03*
X123352120Y-67950700D03*
X123352120Y-68451080D03*
X123352120Y-68948920D03*
X123352120Y-69449300D03*
X123352120Y-69949680D03*
X123352120Y-70447520D03*
X123352120Y-70947900D03*
X123352120Y-71448280D03*
X123352120Y-71948660D03*
D16*
X123352120Y-72510000D03*
D13*
X120750000Y-129711800D03*
X120750000Y-131388200D03*
D11*
X122661800Y-113000000D03*
X124338200Y-113000000D03*
D13*
X120950000Y-67311800D03*
X120950000Y-68988200D03*
X120950000Y-65738200D03*
X120950000Y-64061800D03*
D11*
X131611800Y-76900000D03*
X133288200Y-76900000D03*
X137161800Y-69900000D03*
X138838200Y-69900000D03*
D13*
X130500000Y-59261800D03*
X130500000Y-60938200D03*
D11*
X138838200Y-71900000D03*
X137161800Y-71900000D03*
X138938200Y-55400000D03*
X137261800Y-55400000D03*
D18*
X146798600Y-129650000D03*
X143801400Y-129650000D03*
D19*
X138901564Y-58400000D03*
X133821564Y-58400000D03*
D13*
X130650000Y-133211800D03*
X130650000Y-134888200D03*
D11*
X133661800Y-55400000D03*
X135338200Y-55400000D03*
D20*
X126940000Y-54060000D03*
X126940000Y-59140000D03*
X125670000Y-54060000D03*
X125670000Y-59140000D03*
X124400000Y-54060000D03*
X124400000Y-59140000D03*
X123130000Y-59140000D03*
X121860000Y-54060000D03*
X121860000Y-59140000D03*
D21*
X122800000Y-121000000D03*
X129600000Y-121000000D03*
D22*
X124500000Y-114600000D03*
X122500000Y-114600000D03*
X123500000Y-117200000D03*
D23*
X154000260Y-60999580D03*
D24*
X157998220Y-60999580D03*
X161998720Y-60999580D03*
X165999220Y-60999580D03*
X169997180Y-60999580D03*
X173997680Y-60999580D03*
X177998180Y-60999580D03*
X181996140Y-60999580D03*
X155999240Y-64997540D03*
X159999740Y-64997540D03*
X164000240Y-64997540D03*
X167998200Y-64997540D03*
X171996160Y-64997540D03*
X175996660Y-64997540D03*
X179997160Y-64997540D03*
X154000260Y-68995500D03*
X157998220Y-68995500D03*
X161998720Y-68995500D03*
X165999220Y-68995500D03*
X169997180Y-68995500D03*
X173997680Y-68995500D03*
X177998180Y-68995500D03*
X181996140Y-68995500D03*
D25*
X144300000Y-54200000D03*
X191696400Y-54200000D03*
X142798860Y-72297500D03*
X193197540Y-72297500D03*
D23*
X164000260Y-118999580D03*
D24*
X167998220Y-118999580D03*
X171996180Y-118999580D03*
X165999240Y-122997540D03*
X169997200Y-122997540D03*
X164000260Y-126995500D03*
X167998220Y-126995500D03*
X171996180Y-126995500D03*
D25*
X154300000Y-112200000D03*
X181696440Y-112200000D03*
X183197580Y-130297500D03*
X152798860Y-130297500D03*
D26*
X127200000Y-126500000D03*
X123400000Y-126500000D03*
D27*
X147400000Y-135450000D03*
X142400000Y-135450000D03*
D12*
X125534700Y-130000000D03*
X129065300Y-130000000D03*
D28*
X177200000Y-56500000D03*
X179740000Y-56500000D03*
X179740000Y-50100000D03*
X177200000Y-50100000D03*
D29*
X176515000Y-118910000D03*
X176515000Y-123490000D03*
D30*
X182600000Y-121200000D03*
D29*
X159685000Y-123490000D03*
X159685000Y-118910000D03*
D30*
X153600000Y-121200000D03*
D31*
X170100000Y-52034700D03*
X170100000Y-55565300D03*
X174100000Y-55565300D03*
X174100000Y-52034700D03*
D11*
X169161800Y-58300000D03*
X170838200Y-58300000D03*
X174838200Y-58300000D03*
X173161800Y-58300000D03*
D32*
X137279000Y-121745000D03*
D33*
X137279000Y-123050000D03*
D32*
X137279000Y-124285000D03*
X137279000Y-125555000D03*
X143121000Y-125555000D03*
X143121000Y-124285000D03*
X143121000Y-123015000D03*
X143121000Y-121745000D03*
X129080610Y-131876856D03*
X129080610Y-133146856D03*
X129080610Y-134416856D03*
X129080610Y-135686856D03*
X123238610Y-135686856D03*
X123238610Y-134416856D03*
D33*
X123238610Y-133181856D03*
D32*
X123238610Y-131876856D03*
D34*
X136050000Y-136498380D03*
X136050000Y-129401620D03*
D35*
X168000000Y-115550000D03*
X168000000Y-108950000D03*
D11*
X147450000Y-64300000D03*
X149126400Y-64300000D03*
D13*
X198900000Y-100111800D03*
X198900000Y-101788200D03*
X200500000Y-100111800D03*
X200500000Y-101788200D03*
X197300000Y-100111800D03*
X197300000Y-101788200D03*
X195700000Y-101788200D03*
X195700000Y-100111800D03*
D11*
X179388200Y-58350000D03*
X177711800Y-58350000D03*
X204511800Y-84700000D03*
X206188200Y-84700000D03*
X206188200Y-86450000D03*
X204511800Y-86450000D03*
X179638200Y-86700000D03*
X177961800Y-86700000D03*
X186161800Y-85050000D03*
X187838200Y-85050000D03*
X188638200Y-86700000D03*
X186961800Y-86700000D03*
X159861800Y-84900000D03*
X161538200Y-84900000D03*
X161531695Y-86595667D03*
X159855295Y-86595667D03*
X170588200Y-84950000D03*
X168911800Y-84950000D03*
X170588200Y-86600000D03*
X168911800Y-86600000D03*
X150561800Y-85050000D03*
X152238200Y-85050000D03*
X150561800Y-86750000D03*
X152238200Y-86750000D03*
D36*
X194950000Y-95950000D03*
X195750000Y-95950000D03*
X196550000Y-95950000D03*
X197350000Y-95950000D03*
X198150000Y-95950000D03*
X198950000Y-95950000D03*
X198950000Y-90350000D03*
X198150000Y-90350000D03*
X197350000Y-90350000D03*
X196550000Y-90350000D03*
X195750000Y-90350000D03*
X194950000Y-90350000D03*
D37*
X196950000Y-93150000D03*
D38*
X207670000Y-88850000D03*
X206530000Y-88850000D03*
X204250000Y-88850000D03*
X203110000Y-88850000D03*
D39*
X205390000Y-95150000D03*
D38*
X181071573Y-89107878D03*
X179931573Y-89107878D03*
X177651573Y-89107878D03*
X176511573Y-89107878D03*
D39*
X178791573Y-95407878D03*
X187860000Y-95400000D03*
D38*
X185580000Y-89100000D03*
X186720000Y-89100000D03*
X189000000Y-89100000D03*
X190140000Y-89100000D03*
X162940000Y-89050000D03*
X161800000Y-89050000D03*
X159520000Y-89050000D03*
X158380000Y-89050000D03*
D39*
X160660000Y-95350000D03*
X169712001Y-95405899D03*
D38*
X167432001Y-89105899D03*
X168572001Y-89105899D03*
X170852001Y-89105899D03*
X171992001Y-89105899D03*
D39*
X151500000Y-95350000D03*
D38*
X149220000Y-89050000D03*
X150360000Y-89050000D03*
X152640000Y-89050000D03*
X153780000Y-89050000D03*
D11*
X144361800Y-84950000D03*
X146038200Y-84950000D03*
X144361800Y-86600000D03*
X146038200Y-86600000D03*
D38*
X147460742Y-89075679D03*
X146320742Y-89075679D03*
X144040742Y-89075679D03*
X142900742Y-89075679D03*
D39*
X145180742Y-95375679D03*
D11*
X162638200Y-50750000D03*
X160961800Y-50750000D03*
D13*
X161400000Y-56661800D03*
X161400000Y-58338200D03*
X166950000Y-58338200D03*
X166950000Y-56661800D03*
X165300000Y-58338200D03*
X165300000Y-56661800D03*
X163100000Y-56661800D03*
X163100000Y-58338200D03*
D11*
X149086800Y-52725000D03*
X150763200Y-52725000D03*
X162638200Y-54075000D03*
X160961800Y-54075000D03*
X150788200Y-51100000D03*
X149111800Y-51100000D03*
X160961800Y-52400000D03*
X162638200Y-52400000D03*
X154788200Y-58400000D03*
X153111800Y-58400000D03*
X157111800Y-58450000D03*
X158788200Y-58450000D03*
X154788200Y-56750000D03*
X153111800Y-56750000D03*
X158788200Y-56750000D03*
X157111800Y-56750000D03*
D32*
X158971000Y-50845000D03*
X158971000Y-52115000D03*
X158971000Y-53385000D03*
X158971000Y-54655000D03*
X153129000Y-54655000D03*
X153129000Y-53385000D03*
D33*
X153129000Y-52150000D03*
D32*
X153129000Y-50845000D03*
D12*
X198615300Y-84600000D03*
X195084700Y-84600000D03*
D31*
X193050000Y-85534700D03*
X193050000Y-89065300D03*
M02*
