G04 #@! TF.GenerationSoftware,KiCad,Pcbnew,(2017-01-11 revision e99b79cb2)-master*
G04 #@! TF.CreationDate,2017-12-19T18:45:36+02:00*
G04 #@! TF.ProjectId,esb,6573622E6B696361645F706362000000,rev?*
G04 #@! TF.FileFunction,Soldermask,Top*
G04 #@! TF.FilePolarity,Negative*
%FSLAX46Y46*%
G04 Gerber Fmt 4.6, Leading zero omitted, Abs format (unit mm)*
G04 Created by KiCad (PCBNEW (2017-01-11 revision e99b79cb2)-master) date Tue Dec 19 18:45:36 2017*
%MOMM*%
%LPD*%
G01*
G04 APERTURE LIST*
%ADD10C,0.100000*%
%ADD11R,6.300000X6.100000*%
%ADD12R,0.650000X2.000000*%
%ADD13R,0.762000X0.939800*%
%ADD14R,1.297940X1.399540*%
%ADD15R,0.939800X0.762000*%
%ADD16R,0.398780X1.498600*%
%ADD17R,0.279400X1.498600*%
%ADD18R,1.498600X0.398780*%
%ADD19R,1.498600X0.279400*%
%ADD20R,0.998220X1.899920*%
%ADD21R,1.699260X2.397760*%
%ADD22R,0.635000X1.905000*%
%ADD23R,2.400000X2.700000*%
%ADD24R,0.700000X1.350000*%
%ADD25R,2.623820X2.623820*%
%ADD26C,2.623820*%
%ADD27C,2.999740*%
%ADD28R,2.000000X2.800000*%
%ADD29R,1.900000X2.179320*%
%ADD30R,0.700000X1.200000*%
%ADD31R,1.900000X1.400000*%
%ADD32R,5.970000X6.100000*%
%ADD33R,1.399540X1.297940*%
%ADD34R,1.524000X0.600000*%
%ADD35R,1.524000X0.635000*%
%ADD36R,0.998220X3.997960*%
%ADD37R,3.300000X2.400000*%
%ADD38R,0.400000X1.200000*%
%ADD39R,3.600000X1.900000*%
G04 APERTURE END LIST*
D10*
D11*
X169500000Y-95070000D03*
D12*
X166950000Y-88500000D03*
X167800000Y-88500000D03*
X168650000Y-88500000D03*
X170350000Y-88500000D03*
X171200000Y-88500000D03*
X172050000Y-88500000D03*
D13*
X168411800Y-86500000D03*
X170088200Y-86500000D03*
X142838200Y-127550000D03*
X141161800Y-127550000D03*
X146288200Y-127550000D03*
X144611800Y-127550000D03*
D14*
X146830600Y-132350000D03*
X143300000Y-132350000D03*
D15*
X135250000Y-124338200D03*
X135250000Y-122661800D03*
X129300000Y-56938200D03*
X129300000Y-55261800D03*
X131200000Y-56938200D03*
X131200000Y-55261800D03*
D16*
X125440000Y-74597880D03*
D17*
X126001340Y-74597880D03*
X126501720Y-74597880D03*
X127002100Y-74597880D03*
X127502480Y-74597880D03*
X128000320Y-74597880D03*
X128500700Y-74597880D03*
X129001080Y-74597880D03*
X129498920Y-74597880D03*
X129999300Y-74597880D03*
X130499680Y-74597880D03*
X130997520Y-74597880D03*
X131497900Y-74597880D03*
X131998280Y-74597880D03*
X132498660Y-74597880D03*
D16*
X133060000Y-74597880D03*
D18*
X135147880Y-72510000D03*
D19*
X135147880Y-71948660D03*
X135147880Y-71448280D03*
X135147880Y-70947900D03*
X135147880Y-70447520D03*
X135147880Y-69949680D03*
X135147880Y-69449300D03*
X135147880Y-68948920D03*
X135147880Y-68451080D03*
X135147880Y-67950700D03*
X135147880Y-67450320D03*
X135147880Y-66952480D03*
X135147880Y-66452100D03*
X135147880Y-65951720D03*
X135147880Y-65451340D03*
D18*
X135147880Y-64890000D03*
D16*
X133060000Y-62802120D03*
D17*
X132498660Y-62802120D03*
X131998280Y-62802120D03*
X131497900Y-62802120D03*
X130997520Y-62802120D03*
X130499680Y-62802120D03*
X129999300Y-62802120D03*
X129498920Y-62802120D03*
X129001080Y-62802120D03*
X128500700Y-62802120D03*
X128000320Y-62802120D03*
X127502480Y-62802120D03*
X127002100Y-62802120D03*
X126501720Y-62802120D03*
X126001340Y-62802120D03*
D16*
X125440000Y-62802120D03*
D18*
X123352120Y-64890000D03*
D19*
X123352120Y-65451340D03*
X123352120Y-65951720D03*
X123352120Y-66452100D03*
X123352120Y-66952480D03*
X123352120Y-67450320D03*
X123352120Y-67950700D03*
X123352120Y-68451080D03*
X123352120Y-68948920D03*
X123352120Y-69449300D03*
X123352120Y-69949680D03*
X123352120Y-70447520D03*
X123352120Y-70947900D03*
X123352120Y-71448280D03*
X123352120Y-71948660D03*
D18*
X123352120Y-72510000D03*
D15*
X120750000Y-129711800D03*
X120750000Y-131388200D03*
D13*
X122661800Y-113000000D03*
X124338200Y-113000000D03*
D15*
X120950000Y-67311800D03*
X120950000Y-68988200D03*
X120950000Y-65738200D03*
X120950000Y-64061800D03*
D13*
X131611800Y-76900000D03*
X133288200Y-76900000D03*
X137161800Y-69900000D03*
X138838200Y-69900000D03*
D15*
X130500000Y-59261800D03*
X130500000Y-60938200D03*
D13*
X138838200Y-71900000D03*
X137161800Y-71900000D03*
X138938200Y-55400000D03*
X137261800Y-55400000D03*
D20*
X146798600Y-129650000D03*
X143801400Y-129650000D03*
D21*
X138901564Y-58400000D03*
X133821564Y-58400000D03*
D15*
X130650000Y-133211800D03*
X130650000Y-134888200D03*
D13*
X133661800Y-55400000D03*
X135338200Y-55400000D03*
D22*
X126940000Y-54060000D03*
X126940000Y-59140000D03*
X125670000Y-54060000D03*
X125670000Y-59140000D03*
X124400000Y-54060000D03*
X124400000Y-59140000D03*
X123130000Y-59140000D03*
X121860000Y-54060000D03*
X121860000Y-59140000D03*
D23*
X122800000Y-121000000D03*
X129600000Y-121000000D03*
D24*
X124500000Y-114600000D03*
X122500000Y-114600000D03*
X123500000Y-117200000D03*
D25*
X154000260Y-60999580D03*
D26*
X157998220Y-60999580D03*
X161998720Y-60999580D03*
X165999220Y-60999580D03*
X169997180Y-60999580D03*
X173997680Y-60999580D03*
X177998180Y-60999580D03*
X181996140Y-60999580D03*
X155999240Y-64997540D03*
X159999740Y-64997540D03*
X164000240Y-64997540D03*
X167998200Y-64997540D03*
X171996160Y-64997540D03*
X175996660Y-64997540D03*
X179997160Y-64997540D03*
X154000260Y-68995500D03*
X157998220Y-68995500D03*
X161998720Y-68995500D03*
X165999220Y-68995500D03*
X169997180Y-68995500D03*
X173997680Y-68995500D03*
X177998180Y-68995500D03*
X181996140Y-68995500D03*
D27*
X144300000Y-54200000D03*
X191696400Y-54200000D03*
X142798860Y-72297500D03*
X193197540Y-72297500D03*
D25*
X164000260Y-118999580D03*
D26*
X167998220Y-118999580D03*
X171996180Y-118999580D03*
X165999240Y-122997540D03*
X169997200Y-122997540D03*
X164000260Y-126995500D03*
X167998220Y-126995500D03*
X171996180Y-126995500D03*
D27*
X154300000Y-112200000D03*
X181696440Y-112200000D03*
X183197580Y-130297500D03*
X152798860Y-130297500D03*
D28*
X127200000Y-126500000D03*
X123400000Y-126500000D03*
D29*
X147400000Y-135450000D03*
X142400000Y-135450000D03*
D14*
X125534700Y-130000000D03*
X129065300Y-130000000D03*
D30*
X177200000Y-56500000D03*
X179740000Y-56500000D03*
X179740000Y-50100000D03*
X177200000Y-50100000D03*
D31*
X176515000Y-118910000D03*
X176515000Y-123490000D03*
D32*
X182600000Y-121200000D03*
D31*
X159685000Y-123490000D03*
X159685000Y-118910000D03*
D32*
X153600000Y-121200000D03*
D33*
X170100000Y-52034700D03*
X170100000Y-55565300D03*
X174100000Y-55565300D03*
X174100000Y-52034700D03*
D13*
X169161800Y-58300000D03*
X170838200Y-58300000D03*
X174838200Y-58300000D03*
X173161800Y-58300000D03*
D34*
X137279000Y-121745000D03*
D35*
X137279000Y-123050000D03*
D34*
X137279000Y-124285000D03*
X137279000Y-125555000D03*
X143121000Y-125555000D03*
X143121000Y-124285000D03*
X143121000Y-123015000D03*
X143121000Y-121745000D03*
X129080610Y-131876856D03*
X129080610Y-133146856D03*
X129080610Y-134416856D03*
X129080610Y-135686856D03*
X123238610Y-135686856D03*
X123238610Y-134416856D03*
D35*
X123238610Y-133181856D03*
D34*
X123238610Y-131876856D03*
D36*
X136050000Y-136498380D03*
X136050000Y-129401620D03*
D37*
X168000000Y-115550000D03*
X168000000Y-108950000D03*
D13*
X147450000Y-64300000D03*
X149126400Y-64300000D03*
D15*
X198900000Y-100111800D03*
X198900000Y-101788200D03*
X200500000Y-100111800D03*
X200500000Y-101788200D03*
X197300000Y-100111800D03*
X197300000Y-101788200D03*
X195700000Y-101788200D03*
X195700000Y-100111800D03*
D13*
X179388200Y-58350000D03*
X177711800Y-58350000D03*
X205061800Y-84500000D03*
X206738200Y-84500000D03*
X188688200Y-86550000D03*
X187011800Y-86550000D03*
X186111800Y-84900000D03*
X187788200Y-84900000D03*
X153238200Y-86550000D03*
X151561800Y-86550000D03*
X160111800Y-84850000D03*
X161788200Y-84850000D03*
X145388200Y-86500000D03*
X143711800Y-86500000D03*
X170638200Y-84800000D03*
X168961800Y-84800000D03*
X152011800Y-84850000D03*
X153688200Y-84850000D03*
D38*
X194950000Y-95950000D03*
X195750000Y-95950000D03*
X196550000Y-95950000D03*
X197350000Y-95950000D03*
X198150000Y-95950000D03*
X198950000Y-95950000D03*
X198950000Y-90350000D03*
X198150000Y-90350000D03*
X197350000Y-90350000D03*
X196550000Y-90350000D03*
X195750000Y-90350000D03*
X194950000Y-90350000D03*
D39*
X196950000Y-93150000D03*
D13*
X144361800Y-84800000D03*
X146038200Y-84800000D03*
X162638200Y-50750000D03*
X160961800Y-50750000D03*
D15*
X161400000Y-56661800D03*
X161400000Y-58338200D03*
X166950000Y-58338200D03*
X166950000Y-56661800D03*
X165300000Y-58338200D03*
X165300000Y-56661800D03*
X163100000Y-56661800D03*
X163100000Y-58338200D03*
D13*
X149086800Y-52725000D03*
X150763200Y-52725000D03*
X162638200Y-54075000D03*
X160961800Y-54075000D03*
X150788200Y-51100000D03*
X149111800Y-51100000D03*
X160961800Y-52400000D03*
X162638200Y-52400000D03*
X154788200Y-58400000D03*
X153111800Y-58400000D03*
X157111800Y-58450000D03*
X158788200Y-58450000D03*
X154788200Y-56750000D03*
X153111800Y-56750000D03*
X158788200Y-56750000D03*
X157111800Y-56750000D03*
D34*
X158971000Y-50845000D03*
X158971000Y-52115000D03*
X158971000Y-53385000D03*
X158971000Y-54655000D03*
X153129000Y-54655000D03*
X153129000Y-53385000D03*
D35*
X153129000Y-52150000D03*
D34*
X153129000Y-50845000D03*
D14*
X198615300Y-84600000D03*
X195084700Y-84600000D03*
D33*
X193050000Y-85534700D03*
X193050000Y-89065300D03*
D13*
X204361800Y-86250000D03*
X206038200Y-86250000D03*
X179438200Y-84800000D03*
X177761800Y-84800000D03*
X177211800Y-86500000D03*
X178888200Y-86500000D03*
X159761800Y-86550000D03*
X161438200Y-86550000D03*
D12*
X208200000Y-88500000D03*
X207350000Y-88500000D03*
X206500000Y-88500000D03*
X204800000Y-88500000D03*
X203950000Y-88500000D03*
X203100000Y-88500000D03*
D11*
X205650000Y-95070000D03*
D12*
X181050000Y-88500000D03*
X180200000Y-88500000D03*
X179350000Y-88500000D03*
X177650000Y-88500000D03*
X176800000Y-88500000D03*
X175950000Y-88500000D03*
D11*
X178500000Y-95070000D03*
X188300000Y-95070000D03*
D12*
X185750000Y-88500000D03*
X186600000Y-88500000D03*
X187450000Y-88500000D03*
X189150000Y-88500000D03*
X190000000Y-88500000D03*
X190850000Y-88500000D03*
D11*
X161000000Y-95070000D03*
D12*
X158450000Y-88500000D03*
X159300000Y-88500000D03*
X160150000Y-88500000D03*
X161850000Y-88500000D03*
X162700000Y-88500000D03*
X163550000Y-88500000D03*
X147850000Y-88500000D03*
X147000000Y-88500000D03*
X146150000Y-88500000D03*
X144450000Y-88500000D03*
X143600000Y-88500000D03*
X142750000Y-88500000D03*
D11*
X145300000Y-95070000D03*
D12*
X155300000Y-88500000D03*
X154450000Y-88500000D03*
X153600000Y-88500000D03*
X151900000Y-88500000D03*
X151050000Y-88500000D03*
X150200000Y-88500000D03*
D11*
X152750000Y-95070000D03*
M02*
