G04 #@! TF.GenerationSoftware,KiCad,Pcbnew,(5.0.0-rc2-dev-130-g0bdae22af-dirty)*
G04 #@! TF.CreationDate,2018-10-04T20:22:11+03:00*
G04 #@! TF.ProjectId,esb,6573622E6B696361645F706362000000,rev?*
G04 #@! TF.SameCoordinates,Original*
G04 #@! TF.FileFunction,Legend,Top*
G04 #@! TF.FilePolarity,Positive*
%FSLAX46Y46*%
G04 Gerber Fmt 4.6, Leading zero omitted, Abs format (unit mm)*
G04 Created by KiCad (PCBNEW (5.0.0-rc2-dev-130-g0bdae22af-dirty)) date Thu Oct  4 20:22:11 2018*
%MOMM*%
%LPD*%
G01*
G04 APERTURE LIST*
%ADD10C,0.300000*%
%ADD11C,0.198120*%
%ADD12C,0.010000*%
%ADD13C,0.200000*%
%ADD14C,0.100000*%
%ADD15C,0.203200*%
%ADD16C,0.127000*%
%ADD17C,0.099060*%
%ADD18C,0.150000*%
%ADD19C,0.101600*%
%ADD20C,0.076200*%
G04 APERTURE END LIST*
D10*
X186428571Y-101803571D02*
X186428571Y-103017857D01*
X186500000Y-103160714D01*
X186571428Y-103232142D01*
X186714285Y-103303571D01*
X187000000Y-103303571D01*
X187142857Y-103232142D01*
X187214285Y-103160714D01*
X187285714Y-103017857D01*
X187285714Y-101803571D01*
X187928571Y-103232142D02*
X188071428Y-103303571D01*
X188357142Y-103303571D01*
X188500000Y-103232142D01*
X188571428Y-103089285D01*
X188571428Y-103017857D01*
X188500000Y-102875000D01*
X188357142Y-102803571D01*
X188142857Y-102803571D01*
X188000000Y-102732142D01*
X187928571Y-102589285D01*
X187928571Y-102517857D01*
X188000000Y-102375000D01*
X188142857Y-102303571D01*
X188357142Y-102303571D01*
X188500000Y-102375000D01*
X189785714Y-103232142D02*
X189642857Y-103303571D01*
X189357142Y-103303571D01*
X189214285Y-103232142D01*
X189142857Y-103089285D01*
X189142857Y-102517857D01*
X189214285Y-102375000D01*
X189357142Y-102303571D01*
X189642857Y-102303571D01*
X189785714Y-102375000D01*
X189857142Y-102517857D01*
X189857142Y-102660714D01*
X189142857Y-102803571D01*
X190357142Y-102303571D02*
X190642857Y-103303571D01*
X190928571Y-102589285D01*
X191214285Y-103303571D01*
X191500000Y-102303571D01*
X192285714Y-103303571D02*
X192142857Y-103232142D01*
X192071428Y-103160714D01*
X192000000Y-103017857D01*
X192000000Y-102589285D01*
X192071428Y-102446428D01*
X192142857Y-102375000D01*
X192285714Y-102303571D01*
X192500000Y-102303571D01*
X192642857Y-102375000D01*
X192714285Y-102446428D01*
X192785714Y-102589285D01*
X192785714Y-103017857D01*
X192714285Y-103160714D01*
X192642857Y-103232142D01*
X192500000Y-103303571D01*
X192285714Y-103303571D01*
X193642857Y-103303571D02*
X193500000Y-103232142D01*
X193428571Y-103160714D01*
X193357142Y-103017857D01*
X193357142Y-102589285D01*
X193428571Y-102446428D01*
X193500000Y-102375000D01*
X193642857Y-102303571D01*
X193857142Y-102303571D01*
X194000000Y-102375000D01*
X194071428Y-102446428D01*
X194142857Y-102589285D01*
X194142857Y-103017857D01*
X194071428Y-103160714D01*
X194000000Y-103232142D01*
X193857142Y-103303571D01*
X193642857Y-103303571D01*
X195428571Y-103303571D02*
X195428571Y-101803571D01*
X195428571Y-103232142D02*
X195285714Y-103303571D01*
X195000000Y-103303571D01*
X194857142Y-103232142D01*
X194785714Y-103160714D01*
X194714285Y-103017857D01*
X194714285Y-102589285D01*
X194785714Y-102446428D01*
X194857142Y-102375000D01*
X195000000Y-102303571D01*
X195285714Y-102303571D01*
X195428571Y-102375000D01*
X197285714Y-102517857D02*
X197785714Y-102517857D01*
X198000000Y-103303571D02*
X197285714Y-103303571D01*
X197285714Y-101803571D01*
X198000000Y-101803571D01*
X198571428Y-103232142D02*
X198785714Y-103303571D01*
X199142857Y-103303571D01*
X199285714Y-103232142D01*
X199357142Y-103160714D01*
X199428571Y-103017857D01*
X199428571Y-102875000D01*
X199357142Y-102732142D01*
X199285714Y-102660714D01*
X199142857Y-102589285D01*
X198857142Y-102517857D01*
X198714285Y-102446428D01*
X198642857Y-102375000D01*
X198571428Y-102232142D01*
X198571428Y-102089285D01*
X198642857Y-101946428D01*
X198714285Y-101875000D01*
X198857142Y-101803571D01*
X199214285Y-101803571D01*
X199428571Y-101875000D01*
X200571428Y-102517857D02*
X200785714Y-102589285D01*
X200857142Y-102660714D01*
X200928571Y-102803571D01*
X200928571Y-103017857D01*
X200857142Y-103160714D01*
X200785714Y-103232142D01*
X200642857Y-103303571D01*
X200071428Y-103303571D01*
X200071428Y-101803571D01*
X200571428Y-101803571D01*
X200714285Y-101875000D01*
X200785714Y-101946428D01*
X200857142Y-102089285D01*
X200857142Y-102232142D01*
X200785714Y-102375000D01*
X200714285Y-102446428D01*
X200571428Y-102517857D01*
X200071428Y-102517857D01*
X203428571Y-101803571D02*
X202714285Y-101803571D01*
X202642857Y-102517857D01*
X202714285Y-102446428D01*
X202857142Y-102375000D01*
X203214285Y-102375000D01*
X203357142Y-102446428D01*
X203428571Y-102517857D01*
X203500000Y-102660714D01*
X203500000Y-103017857D01*
X203428571Y-103160714D01*
X203357142Y-103232142D01*
X203214285Y-103303571D01*
X202857142Y-103303571D01*
X202714285Y-103232142D01*
X202642857Y-103160714D01*
X204142857Y-103160714D02*
X204214285Y-103232142D01*
X204142857Y-103303571D01*
X204071428Y-103232142D01*
X204142857Y-103160714D01*
X204142857Y-103303571D01*
X205642857Y-103303571D02*
X204785714Y-103303571D01*
X205214285Y-103303571D02*
X205214285Y-101803571D01*
X205071428Y-102017857D01*
X204928571Y-102160714D01*
X204785714Y-102232142D01*
X190321428Y-104353571D02*
X190321428Y-105567857D01*
X190392857Y-105710714D01*
X190464285Y-105782142D01*
X190607142Y-105853571D01*
X190892857Y-105853571D01*
X191035714Y-105782142D01*
X191107142Y-105710714D01*
X191178571Y-105567857D01*
X191178571Y-104353571D01*
X191821428Y-105782142D02*
X191964285Y-105853571D01*
X192250000Y-105853571D01*
X192392857Y-105782142D01*
X192464285Y-105639285D01*
X192464285Y-105567857D01*
X192392857Y-105425000D01*
X192250000Y-105353571D01*
X192035714Y-105353571D01*
X191892857Y-105282142D01*
X191821428Y-105139285D01*
X191821428Y-105067857D01*
X191892857Y-104925000D01*
X192035714Y-104853571D01*
X192250000Y-104853571D01*
X192392857Y-104925000D01*
X193678571Y-105782142D02*
X193535714Y-105853571D01*
X193250000Y-105853571D01*
X193107142Y-105782142D01*
X193035714Y-105639285D01*
X193035714Y-105067857D01*
X193107142Y-104925000D01*
X193250000Y-104853571D01*
X193535714Y-104853571D01*
X193678571Y-104925000D01*
X193750000Y-105067857D01*
X193750000Y-105210714D01*
X193035714Y-105353571D01*
X194250000Y-104853571D02*
X194607142Y-105853571D01*
X194964285Y-104853571D01*
X195750000Y-105853571D02*
X195607142Y-105782142D01*
X195535714Y-105710714D01*
X195464285Y-105567857D01*
X195464285Y-105139285D01*
X195535714Y-104996428D01*
X195607142Y-104925000D01*
X195750000Y-104853571D01*
X195964285Y-104853571D01*
X196107142Y-104925000D01*
X196178571Y-104996428D01*
X196250000Y-105139285D01*
X196250000Y-105567857D01*
X196178571Y-105710714D01*
X196107142Y-105782142D01*
X195964285Y-105853571D01*
X195750000Y-105853571D01*
X197107142Y-105853571D02*
X196964285Y-105782142D01*
X196892857Y-105639285D01*
X196892857Y-104353571D01*
X197464285Y-104853571D02*
X198035714Y-104853571D01*
X197678571Y-104353571D02*
X197678571Y-105639285D01*
X197750000Y-105782142D01*
X197892857Y-105853571D01*
X198035714Y-105853571D01*
X199964285Y-104353571D02*
X200250000Y-104353571D01*
X200392857Y-104425000D01*
X200535714Y-104567857D01*
X200607142Y-104853571D01*
X200607142Y-105353571D01*
X200535714Y-105639285D01*
X200392857Y-105782142D01*
X200250000Y-105853571D01*
X199964285Y-105853571D01*
X199821428Y-105782142D01*
X199678571Y-105639285D01*
X199607142Y-105353571D01*
X199607142Y-104853571D01*
X199678571Y-104567857D01*
X199821428Y-104425000D01*
X199964285Y-104353571D01*
X201107142Y-104853571D02*
X201464285Y-105853571D01*
X201821428Y-104853571D02*
X201464285Y-105853571D01*
X201321428Y-106210714D01*
X201250000Y-106282142D01*
X201107142Y-106353571D01*
D11*
X139352200Y-136649580D02*
X142247800Y-136649580D01*
X142247800Y-136649580D02*
X142247800Y-135550420D01*
X139352200Y-136649580D02*
X139352200Y-135550420D01*
X139352200Y-135550420D02*
X142247800Y-135550420D01*
D12*
G36*
X196349322Y-109303067D02*
X196488807Y-109400100D01*
X196567031Y-109571241D01*
X196590400Y-109812050D01*
X196590400Y-110083999D01*
X196996800Y-110148985D01*
X196996800Y-111564892D01*
X196997630Y-111932316D01*
X196999975Y-112264280D01*
X197003615Y-112547901D01*
X197008330Y-112770298D01*
X197013899Y-112918589D01*
X197020103Y-112979891D01*
X197020972Y-112980799D01*
X197075706Y-112956671D01*
X197181115Y-112896846D01*
X197211472Y-112878400D01*
X197380316Y-112794194D01*
X197607499Y-112706594D01*
X197859140Y-112626018D01*
X198101355Y-112562884D01*
X198300262Y-112527610D01*
X198365394Y-112523600D01*
X198570036Y-112561654D01*
X198680272Y-112627639D01*
X198800200Y-112731679D01*
X198635100Y-112699803D01*
X198510699Y-112693696D01*
X198467758Y-112729799D01*
X198503471Y-112793561D01*
X198615031Y-112870429D01*
X198673435Y-112898602D01*
X198812986Y-112977313D01*
X198913771Y-113064585D01*
X198930871Y-113089260D01*
X198960939Y-113153203D01*
X198940667Y-113162937D01*
X198852138Y-113121483D01*
X198824451Y-113107206D01*
X198680290Y-113056070D01*
X198571098Y-113060138D01*
X198521569Y-113117618D01*
X198520800Y-113129222D01*
X198562249Y-113181900D01*
X198664216Y-113246839D01*
X198686370Y-113257801D01*
X198817399Y-113339466D01*
X198910961Y-113431182D01*
X198914853Y-113437107D01*
X198950099Y-113499497D01*
X198934405Y-113512048D01*
X198850658Y-113477098D01*
X198799573Y-113452870D01*
X198673820Y-113402178D01*
X198599145Y-113403631D01*
X198558391Y-113434698D01*
X198521796Y-113495699D01*
X198556350Y-113523933D01*
X198650865Y-113576576D01*
X198758279Y-113658870D01*
X198844665Y-113742108D01*
X198876400Y-113794694D01*
X198835745Y-113806152D01*
X198734756Y-113779213D01*
X198701317Y-113766061D01*
X198561845Y-113724940D01*
X198500168Y-113744900D01*
X198519061Y-113818503D01*
X198621301Y-113938313D01*
X198632883Y-113949406D01*
X198723206Y-114042837D01*
X198734027Y-114077875D01*
X198698600Y-114070485D01*
X198498594Y-114012018D01*
X198349163Y-114014057D01*
X198215432Y-114082142D01*
X198123054Y-114161907D01*
X197988567Y-114276537D01*
X197803789Y-114416729D01*
X197605120Y-114555066D01*
X197573551Y-114575798D01*
X197431593Y-114668559D01*
X197316455Y-114751143D01*
X197225152Y-114835012D01*
X197154700Y-114931633D01*
X197102113Y-115052468D01*
X197064406Y-115208982D01*
X197038594Y-115412640D01*
X197021692Y-115674905D01*
X197010715Y-116007243D01*
X197002677Y-116421117D01*
X196996800Y-116790800D01*
X196971400Y-118391000D01*
X196635140Y-117908400D01*
X196324021Y-117441922D01*
X196054700Y-116997524D01*
X195837410Y-116592906D01*
X195700418Y-116291387D01*
X195654446Y-116169860D01*
X195619353Y-116051074D01*
X195592779Y-115916850D01*
X195572363Y-115749010D01*
X195555744Y-115529374D01*
X195540562Y-115239765D01*
X195528900Y-114970587D01*
X195510605Y-114577749D01*
X195489644Y-114271366D01*
X195462158Y-114036300D01*
X195424289Y-113857412D01*
X195372178Y-113719564D01*
X195301966Y-113607617D01*
X195209795Y-113506435D01*
X195139213Y-113441840D01*
X194896590Y-113241180D01*
X194692218Y-113106649D01*
X194499233Y-113026386D01*
X194290771Y-112988527D01*
X194095151Y-112980799D01*
X193886748Y-112976917D01*
X193748541Y-112960275D01*
X193649262Y-112923380D01*
X193557645Y-112858742D01*
X193546297Y-112849284D01*
X193424136Y-112707924D01*
X193390000Y-112568614D01*
X193406621Y-112459077D01*
X193477257Y-112405750D01*
X193546766Y-112388106D01*
X193684659Y-112335197D01*
X193736862Y-112260785D01*
X193711987Y-112181177D01*
X193618645Y-112112679D01*
X193465448Y-112071599D01*
X193376867Y-112066400D01*
X193251287Y-112072689D01*
X193203877Y-112101071D01*
X193211511Y-112165815D01*
X193212200Y-112168000D01*
X193218400Y-112251482D01*
X193162213Y-112258284D01*
X193047545Y-112188714D01*
X193000197Y-112151245D01*
X192878979Y-112062224D01*
X192775564Y-112003527D01*
X192767990Y-112000551D01*
X192662480Y-111918801D01*
X192662116Y-111918256D01*
X193009000Y-111918256D01*
X193194336Y-111889394D01*
X193375710Y-111890603D01*
X193555732Y-111964465D01*
X193564805Y-111969764D01*
X193707373Y-112040990D01*
X193776672Y-112042593D01*
X193773723Y-111974259D01*
X193745600Y-111914000D01*
X193706693Y-111825340D01*
X193703384Y-111789595D01*
X193758570Y-111777914D01*
X193887244Y-111760776D01*
X194061704Y-111741864D01*
X194064111Y-111741627D01*
X194253112Y-111727059D01*
X194364463Y-111731503D01*
X194420799Y-111757651D01*
X194438094Y-111786128D01*
X194429629Y-111897223D01*
X194323444Y-112011026D01*
X194123209Y-112123673D01*
X194113900Y-112127832D01*
X193985408Y-112199395D01*
X193908111Y-112270611D01*
X193898000Y-112297377D01*
X193920327Y-112357423D01*
X193993574Y-112359804D01*
X194127137Y-112302154D01*
X194313136Y-112192957D01*
X194477094Y-112078296D01*
X194615290Y-111960399D01*
X194686566Y-111879689D01*
X194743203Y-111782866D01*
X194740326Y-111727738D01*
X194682410Y-111676931D01*
X194559425Y-111633042D01*
X194364114Y-111614356D01*
X194121939Y-111618513D01*
X193858362Y-111643151D01*
X193598845Y-111685909D01*
X193368852Y-111744426D01*
X193196788Y-111814705D01*
X193009000Y-111918256D01*
X192662116Y-111918256D01*
X192565181Y-111773446D01*
X192496482Y-111601748D01*
X192475789Y-111466501D01*
X192463579Y-111362038D01*
X192433873Y-111325357D01*
X192428310Y-111327630D01*
X192364130Y-111319538D01*
X192344001Y-111296959D01*
X192348879Y-111220283D01*
X192394411Y-111164024D01*
X192543320Y-111164024D01*
X192545502Y-111230886D01*
X192579046Y-111281225D01*
X192685143Y-111350333D01*
X192808444Y-111319550D01*
X192815205Y-111315359D01*
X192824968Y-111267377D01*
X192736480Y-111197409D01*
X192727441Y-111192152D01*
X192609893Y-111147555D01*
X192543320Y-111164024D01*
X192394411Y-111164024D01*
X192423649Y-111127898D01*
X192542801Y-111039044D01*
X192680827Y-110972961D01*
X192805573Y-110948800D01*
X193085033Y-110902250D01*
X193362966Y-110771874D01*
X193376933Y-110760553D01*
X193763468Y-110760553D01*
X193768911Y-110793020D01*
X193849017Y-110839962D01*
X193967871Y-110839798D01*
X194075823Y-110795502D01*
X194099353Y-110773225D01*
X194134538Y-110676885D01*
X194083448Y-110609130D01*
X194009301Y-110594815D01*
X193902253Y-110623479D01*
X193809450Y-110687678D01*
X193763468Y-110760553D01*
X193376933Y-110760553D01*
X193610089Y-110571580D01*
X193618600Y-110562649D01*
X193758112Y-110436794D01*
X193898914Y-110344142D01*
X193974200Y-110314326D01*
X194147728Y-110264826D01*
X194319014Y-110185098D01*
X194490313Y-110082152D01*
X194676447Y-110005421D01*
X194952036Y-109953403D01*
X195044933Y-109943502D01*
X195439041Y-109907400D01*
X195494020Y-109678800D01*
X195547730Y-109518646D01*
X195630684Y-109419151D01*
X195726800Y-109361378D01*
X195892950Y-109305235D01*
X196088512Y-109274467D01*
X196142212Y-109272478D01*
X196349322Y-109303067D01*
X196349322Y-109303067D01*
G37*
X196349322Y-109303067D02*
X196488807Y-109400100D01*
X196567031Y-109571241D01*
X196590400Y-109812050D01*
X196590400Y-110083999D01*
X196996800Y-110148985D01*
X196996800Y-111564892D01*
X196997630Y-111932316D01*
X196999975Y-112264280D01*
X197003615Y-112547901D01*
X197008330Y-112770298D01*
X197013899Y-112918589D01*
X197020103Y-112979891D01*
X197020972Y-112980799D01*
X197075706Y-112956671D01*
X197181115Y-112896846D01*
X197211472Y-112878400D01*
X197380316Y-112794194D01*
X197607499Y-112706594D01*
X197859140Y-112626018D01*
X198101355Y-112562884D01*
X198300262Y-112527610D01*
X198365394Y-112523600D01*
X198570036Y-112561654D01*
X198680272Y-112627639D01*
X198800200Y-112731679D01*
X198635100Y-112699803D01*
X198510699Y-112693696D01*
X198467758Y-112729799D01*
X198503471Y-112793561D01*
X198615031Y-112870429D01*
X198673435Y-112898602D01*
X198812986Y-112977313D01*
X198913771Y-113064585D01*
X198930871Y-113089260D01*
X198960939Y-113153203D01*
X198940667Y-113162937D01*
X198852138Y-113121483D01*
X198824451Y-113107206D01*
X198680290Y-113056070D01*
X198571098Y-113060138D01*
X198521569Y-113117618D01*
X198520800Y-113129222D01*
X198562249Y-113181900D01*
X198664216Y-113246839D01*
X198686370Y-113257801D01*
X198817399Y-113339466D01*
X198910961Y-113431182D01*
X198914853Y-113437107D01*
X198950099Y-113499497D01*
X198934405Y-113512048D01*
X198850658Y-113477098D01*
X198799573Y-113452870D01*
X198673820Y-113402178D01*
X198599145Y-113403631D01*
X198558391Y-113434698D01*
X198521796Y-113495699D01*
X198556350Y-113523933D01*
X198650865Y-113576576D01*
X198758279Y-113658870D01*
X198844665Y-113742108D01*
X198876400Y-113794694D01*
X198835745Y-113806152D01*
X198734756Y-113779213D01*
X198701317Y-113766061D01*
X198561845Y-113724940D01*
X198500168Y-113744900D01*
X198519061Y-113818503D01*
X198621301Y-113938313D01*
X198632883Y-113949406D01*
X198723206Y-114042837D01*
X198734027Y-114077875D01*
X198698600Y-114070485D01*
X198498594Y-114012018D01*
X198349163Y-114014057D01*
X198215432Y-114082142D01*
X198123054Y-114161907D01*
X197988567Y-114276537D01*
X197803789Y-114416729D01*
X197605120Y-114555066D01*
X197573551Y-114575798D01*
X197431593Y-114668559D01*
X197316455Y-114751143D01*
X197225152Y-114835012D01*
X197154700Y-114931633D01*
X197102113Y-115052468D01*
X197064406Y-115208982D01*
X197038594Y-115412640D01*
X197021692Y-115674905D01*
X197010715Y-116007243D01*
X197002677Y-116421117D01*
X196996800Y-116790800D01*
X196971400Y-118391000D01*
X196635140Y-117908400D01*
X196324021Y-117441922D01*
X196054700Y-116997524D01*
X195837410Y-116592906D01*
X195700418Y-116291387D01*
X195654446Y-116169860D01*
X195619353Y-116051074D01*
X195592779Y-115916850D01*
X195572363Y-115749010D01*
X195555744Y-115529374D01*
X195540562Y-115239765D01*
X195528900Y-114970587D01*
X195510605Y-114577749D01*
X195489644Y-114271366D01*
X195462158Y-114036300D01*
X195424289Y-113857412D01*
X195372178Y-113719564D01*
X195301966Y-113607617D01*
X195209795Y-113506435D01*
X195139213Y-113441840D01*
X194896590Y-113241180D01*
X194692218Y-113106649D01*
X194499233Y-113026386D01*
X194290771Y-112988527D01*
X194095151Y-112980799D01*
X193886748Y-112976917D01*
X193748541Y-112960275D01*
X193649262Y-112923380D01*
X193557645Y-112858742D01*
X193546297Y-112849284D01*
X193424136Y-112707924D01*
X193390000Y-112568614D01*
X193406621Y-112459077D01*
X193477257Y-112405750D01*
X193546766Y-112388106D01*
X193684659Y-112335197D01*
X193736862Y-112260785D01*
X193711987Y-112181177D01*
X193618645Y-112112679D01*
X193465448Y-112071599D01*
X193376867Y-112066400D01*
X193251287Y-112072689D01*
X193203877Y-112101071D01*
X193211511Y-112165815D01*
X193212200Y-112168000D01*
X193218400Y-112251482D01*
X193162213Y-112258284D01*
X193047545Y-112188714D01*
X193000197Y-112151245D01*
X192878979Y-112062224D01*
X192775564Y-112003527D01*
X192767990Y-112000551D01*
X192662480Y-111918801D01*
X192662116Y-111918256D01*
X193009000Y-111918256D01*
X193194336Y-111889394D01*
X193375710Y-111890603D01*
X193555732Y-111964465D01*
X193564805Y-111969764D01*
X193707373Y-112040990D01*
X193776672Y-112042593D01*
X193773723Y-111974259D01*
X193745600Y-111914000D01*
X193706693Y-111825340D01*
X193703384Y-111789595D01*
X193758570Y-111777914D01*
X193887244Y-111760776D01*
X194061704Y-111741864D01*
X194064111Y-111741627D01*
X194253112Y-111727059D01*
X194364463Y-111731503D01*
X194420799Y-111757651D01*
X194438094Y-111786128D01*
X194429629Y-111897223D01*
X194323444Y-112011026D01*
X194123209Y-112123673D01*
X194113900Y-112127832D01*
X193985408Y-112199395D01*
X193908111Y-112270611D01*
X193898000Y-112297377D01*
X193920327Y-112357423D01*
X193993574Y-112359804D01*
X194127137Y-112302154D01*
X194313136Y-112192957D01*
X194477094Y-112078296D01*
X194615290Y-111960399D01*
X194686566Y-111879689D01*
X194743203Y-111782866D01*
X194740326Y-111727738D01*
X194682410Y-111676931D01*
X194559425Y-111633042D01*
X194364114Y-111614356D01*
X194121939Y-111618513D01*
X193858362Y-111643151D01*
X193598845Y-111685909D01*
X193368852Y-111744426D01*
X193196788Y-111814705D01*
X193009000Y-111918256D01*
X192662116Y-111918256D01*
X192565181Y-111773446D01*
X192496482Y-111601748D01*
X192475789Y-111466501D01*
X192463579Y-111362038D01*
X192433873Y-111325357D01*
X192428310Y-111327630D01*
X192364130Y-111319538D01*
X192344001Y-111296959D01*
X192348879Y-111220283D01*
X192394411Y-111164024D01*
X192543320Y-111164024D01*
X192545502Y-111230886D01*
X192579046Y-111281225D01*
X192685143Y-111350333D01*
X192808444Y-111319550D01*
X192815205Y-111315359D01*
X192824968Y-111267377D01*
X192736480Y-111197409D01*
X192727441Y-111192152D01*
X192609893Y-111147555D01*
X192543320Y-111164024D01*
X192394411Y-111164024D01*
X192423649Y-111127898D01*
X192542801Y-111039044D01*
X192680827Y-110972961D01*
X192805573Y-110948800D01*
X193085033Y-110902250D01*
X193362966Y-110771874D01*
X193376933Y-110760553D01*
X193763468Y-110760553D01*
X193768911Y-110793020D01*
X193849017Y-110839962D01*
X193967871Y-110839798D01*
X194075823Y-110795502D01*
X194099353Y-110773225D01*
X194134538Y-110676885D01*
X194083448Y-110609130D01*
X194009301Y-110594815D01*
X193902253Y-110623479D01*
X193809450Y-110687678D01*
X193763468Y-110760553D01*
X193376933Y-110760553D01*
X193610089Y-110571580D01*
X193618600Y-110562649D01*
X193758112Y-110436794D01*
X193898914Y-110344142D01*
X193974200Y-110314326D01*
X194147728Y-110264826D01*
X194319014Y-110185098D01*
X194490313Y-110082152D01*
X194676447Y-110005421D01*
X194952036Y-109953403D01*
X195044933Y-109943502D01*
X195439041Y-109907400D01*
X195494020Y-109678800D01*
X195547730Y-109518646D01*
X195630684Y-109419151D01*
X195726800Y-109361378D01*
X195892950Y-109305235D01*
X196088512Y-109274467D01*
X196142212Y-109272478D01*
X196349322Y-109303067D01*
G36*
X198245004Y-108207593D02*
X199220670Y-108298682D01*
X200211336Y-108443565D01*
X201195370Y-108639254D01*
X202151138Y-108882762D01*
X202781610Y-109076696D01*
X203027510Y-109163261D01*
X203245063Y-109249208D01*
X203412114Y-109325144D01*
X203506506Y-109381673D01*
X203511288Y-109386088D01*
X203559259Y-109453963D01*
X203584326Y-109548889D01*
X203585565Y-109685153D01*
X203562048Y-109877044D01*
X203512851Y-110138852D01*
X203441288Y-110466200D01*
X203093508Y-111775123D01*
X202653958Y-113045830D01*
X202125132Y-114273758D01*
X201509525Y-115454348D01*
X200809632Y-116583036D01*
X200027949Y-117655264D01*
X199166969Y-118666468D01*
X198674108Y-119181368D01*
X198286709Y-119563752D01*
X197961680Y-119870893D01*
X197696010Y-120105321D01*
X197486688Y-120269563D01*
X197330704Y-120366147D01*
X197225400Y-120397600D01*
X197121740Y-120364163D01*
X196968185Y-120272787D01*
X196787184Y-120136868D01*
X196783537Y-120133868D01*
X196348843Y-119751347D01*
X195882846Y-119297523D01*
X195401883Y-118790833D01*
X194922290Y-118249713D01*
X194460401Y-117692600D01*
X194032554Y-117137931D01*
X193655083Y-116604141D01*
X193652233Y-116599888D01*
X192977708Y-115521941D01*
X192396622Y-114437207D01*
X191901363Y-113328334D01*
X191484322Y-112177968D01*
X191137888Y-110968755D01*
X191080803Y-110736689D01*
X190990281Y-110352058D01*
X190924994Y-110052835D01*
X190883640Y-109826355D01*
X190865779Y-109667599D01*
X191179069Y-109667599D01*
X191183176Y-109718767D01*
X191388537Y-110643043D01*
X191610371Y-111488508D01*
X191856124Y-112277551D01*
X192133240Y-113032559D01*
X192449164Y-113775922D01*
X192727271Y-114361971D01*
X193368507Y-115543887D01*
X194095820Y-116671880D01*
X194908826Y-117745379D01*
X195433523Y-118358529D01*
X195633241Y-118575563D01*
X195857301Y-118808717D01*
X196094595Y-119047533D01*
X196334014Y-119281556D01*
X196564452Y-119500326D01*
X196774801Y-119693386D01*
X196953951Y-119850280D01*
X197090796Y-119960549D01*
X197174227Y-120013737D01*
X197193124Y-120015079D01*
X197200155Y-119959291D01*
X197207722Y-119811987D01*
X197215586Y-119583248D01*
X197223506Y-119283153D01*
X197231244Y-118921783D01*
X197238559Y-118509219D01*
X197245214Y-118055542D01*
X197250800Y-117586737D01*
X197257994Y-116980782D01*
X197265813Y-116470472D01*
X197274466Y-116049850D01*
X197284162Y-115712961D01*
X197295110Y-115453851D01*
X197307518Y-115266564D01*
X197321597Y-115145145D01*
X197337555Y-115083638D01*
X197338718Y-115081473D01*
X197411252Y-115001669D01*
X197544274Y-114892859D01*
X197710469Y-114777162D01*
X197729311Y-114765149D01*
X197920890Y-114637888D01*
X198105518Y-114504868D01*
X198240834Y-114396882D01*
X198424281Y-114235813D01*
X198670507Y-114351138D01*
X198851482Y-114421610D01*
X198963946Y-114426542D01*
X199018814Y-114363749D01*
X199028800Y-114279422D01*
X199059917Y-114158794D01*
X199105000Y-114098400D01*
X199163012Y-114002180D01*
X199181200Y-113899139D01*
X199199585Y-113777721D01*
X199233887Y-113710432D01*
X199259812Y-113613639D01*
X199237597Y-113528922D01*
X199215696Y-113399217D01*
X199239184Y-113349535D01*
X199256643Y-113260652D01*
X199210074Y-113108281D01*
X199158019Y-112955605D01*
X199131327Y-112822407D01*
X199130400Y-112802707D01*
X199087761Y-112685387D01*
X198977346Y-112552280D01*
X198825402Y-112426092D01*
X198658179Y-112329530D01*
X198537787Y-112290070D01*
X198336194Y-112281564D01*
X198073860Y-112312990D01*
X197781033Y-112379072D01*
X197494510Y-112472036D01*
X197250800Y-112564638D01*
X197250800Y-111490802D01*
X199009654Y-111490802D01*
X199009889Y-111583740D01*
X199088670Y-111636118D01*
X199251864Y-111649773D01*
X199461124Y-111632336D01*
X199636017Y-111619211D01*
X199728193Y-111632590D01*
X199740000Y-111648807D01*
X199767979Y-111710122D01*
X199843059Y-111832178D01*
X199951949Y-111994014D01*
X200019400Y-112089548D01*
X200298800Y-112478973D01*
X200300405Y-114596786D01*
X200302010Y-116714600D01*
X200552800Y-116429534D01*
X200552800Y-112428325D01*
X200215913Y-111929862D01*
X200077140Y-111730035D01*
X199952411Y-111560445D01*
X199855885Y-111439715D01*
X199803510Y-111387416D01*
X199707497Y-111365814D01*
X199561888Y-111366407D01*
X199518097Y-111371068D01*
X199308200Y-111398704D01*
X199428127Y-111300752D01*
X199555795Y-111228667D01*
X199669427Y-111202800D01*
X199766119Y-111176621D01*
X199790800Y-111101200D01*
X199752352Y-111018932D01*
X199640188Y-111001942D01*
X199463907Y-111049142D01*
X199370044Y-111072029D01*
X199333600Y-111057142D01*
X199375841Y-111010418D01*
X199481710Y-110944608D01*
X199619921Y-110876879D01*
X199755919Y-110825396D01*
X199828591Y-110784745D01*
X199818360Y-110743924D01*
X199743304Y-110713980D01*
X199621500Y-110705960D01*
X199568313Y-110710747D01*
X199359000Y-110738304D01*
X199478927Y-110640352D01*
X199618854Y-110567365D01*
X199749861Y-110542400D01*
X199858514Y-110525613D01*
X199882464Y-110485654D01*
X199830919Y-110438125D01*
X199713086Y-110398628D01*
X199659829Y-110389836D01*
X199551605Y-110365586D01*
X199533128Y-110337216D01*
X199593071Y-110310906D01*
X199720104Y-110292837D01*
X199845754Y-110288400D01*
X199990207Y-110273243D01*
X200044098Y-110226197D01*
X200044800Y-110217635D01*
X199998533Y-110137957D01*
X199871595Y-110092078D01*
X199773945Y-110084422D01*
X199702159Y-110076324D01*
X199723230Y-110045682D01*
X199740000Y-110034400D01*
X199896790Y-109987482D01*
X200107474Y-110017267D01*
X200377099Y-110124567D01*
X200413616Y-110142671D01*
X200647145Y-110277166D01*
X200891203Y-110445561D01*
X201123915Y-110629859D01*
X201323408Y-110812062D01*
X201467807Y-110974175D01*
X201516928Y-111050400D01*
X201563187Y-111162652D01*
X201628265Y-111350184D01*
X201704711Y-111590130D01*
X201785068Y-111859624D01*
X201815017Y-111964800D01*
X201896630Y-112250669D01*
X201977791Y-112526722D01*
X202050517Y-112766337D01*
X202106820Y-112942888D01*
X202119743Y-112980800D01*
X202217584Y-113260200D01*
X202328793Y-113006200D01*
X202452671Y-112696030D01*
X202588360Y-112309603D01*
X202728934Y-111870518D01*
X202867467Y-111402373D01*
X202997032Y-110928769D01*
X203110703Y-110473305D01*
X203201554Y-110059580D01*
X203217443Y-109978331D01*
X203250450Y-109774323D01*
X203254577Y-109649952D01*
X203230224Y-109587564D01*
X203226380Y-109584169D01*
X203130895Y-109534389D01*
X202953330Y-109466589D01*
X202710638Y-109385441D01*
X202419771Y-109295619D01*
X202097685Y-109201794D01*
X201761330Y-109108639D01*
X201427662Y-109020826D01*
X201113632Y-108943028D01*
X200836195Y-108879918D01*
X200612303Y-108836167D01*
X200458909Y-108816449D01*
X200438500Y-108815802D01*
X200298800Y-108815200D01*
X200298800Y-109778456D01*
X200082900Y-109750760D01*
X199882673Y-109759535D01*
X199673182Y-109822746D01*
X199489441Y-109924938D01*
X199366469Y-110050658D01*
X199354662Y-110072150D01*
X199274426Y-110202765D01*
X199208628Y-110286158D01*
X199148994Y-110395744D01*
X199150515Y-110470746D01*
X199148873Y-110578527D01*
X199122256Y-110628412D01*
X199089907Y-110714637D01*
X199065009Y-110868040D01*
X199053557Y-111041073D01*
X199044126Y-111233795D01*
X199027496Y-111398738D01*
X199009654Y-111490802D01*
X197250800Y-111490802D01*
X197250800Y-108494493D01*
X196476100Y-108527055D01*
X195270863Y-108616195D01*
X194109423Y-108782943D01*
X192964642Y-109032167D01*
X191840600Y-109358570D01*
X191569674Y-109448221D01*
X191382051Y-109516282D01*
X191263739Y-109570421D01*
X191200742Y-109618304D01*
X191179069Y-109667599D01*
X190865779Y-109667599D01*
X190864918Y-109659952D01*
X190867527Y-109540961D01*
X190890167Y-109456717D01*
X190931537Y-109394553D01*
X190941843Y-109383756D01*
X191044465Y-109318291D01*
X191231888Y-109235562D01*
X191489635Y-109139884D01*
X191803224Y-109035574D01*
X192158178Y-108926948D01*
X192540015Y-108818321D01*
X192934258Y-108714010D01*
X193326425Y-108618331D01*
X193702039Y-108535600D01*
X193948800Y-108487441D01*
X194718177Y-108365758D01*
X195564281Y-108268371D01*
X196425208Y-108198749D01*
X197305973Y-108173286D01*
X198245004Y-108207593D01*
X198245004Y-108207593D01*
G37*
X198245004Y-108207593D02*
X199220670Y-108298682D01*
X200211336Y-108443565D01*
X201195370Y-108639254D01*
X202151138Y-108882762D01*
X202781610Y-109076696D01*
X203027510Y-109163261D01*
X203245063Y-109249208D01*
X203412114Y-109325144D01*
X203506506Y-109381673D01*
X203511288Y-109386088D01*
X203559259Y-109453963D01*
X203584326Y-109548889D01*
X203585565Y-109685153D01*
X203562048Y-109877044D01*
X203512851Y-110138852D01*
X203441288Y-110466200D01*
X203093508Y-111775123D01*
X202653958Y-113045830D01*
X202125132Y-114273758D01*
X201509525Y-115454348D01*
X200809632Y-116583036D01*
X200027949Y-117655264D01*
X199166969Y-118666468D01*
X198674108Y-119181368D01*
X198286709Y-119563752D01*
X197961680Y-119870893D01*
X197696010Y-120105321D01*
X197486688Y-120269563D01*
X197330704Y-120366147D01*
X197225400Y-120397600D01*
X197121740Y-120364163D01*
X196968185Y-120272787D01*
X196787184Y-120136868D01*
X196783537Y-120133868D01*
X196348843Y-119751347D01*
X195882846Y-119297523D01*
X195401883Y-118790833D01*
X194922290Y-118249713D01*
X194460401Y-117692600D01*
X194032554Y-117137931D01*
X193655083Y-116604141D01*
X193652233Y-116599888D01*
X192977708Y-115521941D01*
X192396622Y-114437207D01*
X191901363Y-113328334D01*
X191484322Y-112177968D01*
X191137888Y-110968755D01*
X191080803Y-110736689D01*
X190990281Y-110352058D01*
X190924994Y-110052835D01*
X190883640Y-109826355D01*
X190865779Y-109667599D01*
X191179069Y-109667599D01*
X191183176Y-109718767D01*
X191388537Y-110643043D01*
X191610371Y-111488508D01*
X191856124Y-112277551D01*
X192133240Y-113032559D01*
X192449164Y-113775922D01*
X192727271Y-114361971D01*
X193368507Y-115543887D01*
X194095820Y-116671880D01*
X194908826Y-117745379D01*
X195433523Y-118358529D01*
X195633241Y-118575563D01*
X195857301Y-118808717D01*
X196094595Y-119047533D01*
X196334014Y-119281556D01*
X196564452Y-119500326D01*
X196774801Y-119693386D01*
X196953951Y-119850280D01*
X197090796Y-119960549D01*
X197174227Y-120013737D01*
X197193124Y-120015079D01*
X197200155Y-119959291D01*
X197207722Y-119811987D01*
X197215586Y-119583248D01*
X197223506Y-119283153D01*
X197231244Y-118921783D01*
X197238559Y-118509219D01*
X197245214Y-118055542D01*
X197250800Y-117586737D01*
X197257994Y-116980782D01*
X197265813Y-116470472D01*
X197274466Y-116049850D01*
X197284162Y-115712961D01*
X197295110Y-115453851D01*
X197307518Y-115266564D01*
X197321597Y-115145145D01*
X197337555Y-115083638D01*
X197338718Y-115081473D01*
X197411252Y-115001669D01*
X197544274Y-114892859D01*
X197710469Y-114777162D01*
X197729311Y-114765149D01*
X197920890Y-114637888D01*
X198105518Y-114504868D01*
X198240834Y-114396882D01*
X198424281Y-114235813D01*
X198670507Y-114351138D01*
X198851482Y-114421610D01*
X198963946Y-114426542D01*
X199018814Y-114363749D01*
X199028800Y-114279422D01*
X199059917Y-114158794D01*
X199105000Y-114098400D01*
X199163012Y-114002180D01*
X199181200Y-113899139D01*
X199199585Y-113777721D01*
X199233887Y-113710432D01*
X199259812Y-113613639D01*
X199237597Y-113528922D01*
X199215696Y-113399217D01*
X199239184Y-113349535D01*
X199256643Y-113260652D01*
X199210074Y-113108281D01*
X199158019Y-112955605D01*
X199131327Y-112822407D01*
X199130400Y-112802707D01*
X199087761Y-112685387D01*
X198977346Y-112552280D01*
X198825402Y-112426092D01*
X198658179Y-112329530D01*
X198537787Y-112290070D01*
X198336194Y-112281564D01*
X198073860Y-112312990D01*
X197781033Y-112379072D01*
X197494510Y-112472036D01*
X197250800Y-112564638D01*
X197250800Y-111490802D01*
X199009654Y-111490802D01*
X199009889Y-111583740D01*
X199088670Y-111636118D01*
X199251864Y-111649773D01*
X199461124Y-111632336D01*
X199636017Y-111619211D01*
X199728193Y-111632590D01*
X199740000Y-111648807D01*
X199767979Y-111710122D01*
X199843059Y-111832178D01*
X199951949Y-111994014D01*
X200019400Y-112089548D01*
X200298800Y-112478973D01*
X200300405Y-114596786D01*
X200302010Y-116714600D01*
X200552800Y-116429534D01*
X200552800Y-112428325D01*
X200215913Y-111929862D01*
X200077140Y-111730035D01*
X199952411Y-111560445D01*
X199855885Y-111439715D01*
X199803510Y-111387416D01*
X199707497Y-111365814D01*
X199561888Y-111366407D01*
X199518097Y-111371068D01*
X199308200Y-111398704D01*
X199428127Y-111300752D01*
X199555795Y-111228667D01*
X199669427Y-111202800D01*
X199766119Y-111176621D01*
X199790800Y-111101200D01*
X199752352Y-111018932D01*
X199640188Y-111001942D01*
X199463907Y-111049142D01*
X199370044Y-111072029D01*
X199333600Y-111057142D01*
X199375841Y-111010418D01*
X199481710Y-110944608D01*
X199619921Y-110876879D01*
X199755919Y-110825396D01*
X199828591Y-110784745D01*
X199818360Y-110743924D01*
X199743304Y-110713980D01*
X199621500Y-110705960D01*
X199568313Y-110710747D01*
X199359000Y-110738304D01*
X199478927Y-110640352D01*
X199618854Y-110567365D01*
X199749861Y-110542400D01*
X199858514Y-110525613D01*
X199882464Y-110485654D01*
X199830919Y-110438125D01*
X199713086Y-110398628D01*
X199659829Y-110389836D01*
X199551605Y-110365586D01*
X199533128Y-110337216D01*
X199593071Y-110310906D01*
X199720104Y-110292837D01*
X199845754Y-110288400D01*
X199990207Y-110273243D01*
X200044098Y-110226197D01*
X200044800Y-110217635D01*
X199998533Y-110137957D01*
X199871595Y-110092078D01*
X199773945Y-110084422D01*
X199702159Y-110076324D01*
X199723230Y-110045682D01*
X199740000Y-110034400D01*
X199896790Y-109987482D01*
X200107474Y-110017267D01*
X200377099Y-110124567D01*
X200413616Y-110142671D01*
X200647145Y-110277166D01*
X200891203Y-110445561D01*
X201123915Y-110629859D01*
X201323408Y-110812062D01*
X201467807Y-110974175D01*
X201516928Y-111050400D01*
X201563187Y-111162652D01*
X201628265Y-111350184D01*
X201704711Y-111590130D01*
X201785068Y-111859624D01*
X201815017Y-111964800D01*
X201896630Y-112250669D01*
X201977791Y-112526722D01*
X202050517Y-112766337D01*
X202106820Y-112942888D01*
X202119743Y-112980800D01*
X202217584Y-113260200D01*
X202328793Y-113006200D01*
X202452671Y-112696030D01*
X202588360Y-112309603D01*
X202728934Y-111870518D01*
X202867467Y-111402373D01*
X202997032Y-110928769D01*
X203110703Y-110473305D01*
X203201554Y-110059580D01*
X203217443Y-109978331D01*
X203250450Y-109774323D01*
X203254577Y-109649952D01*
X203230224Y-109587564D01*
X203226380Y-109584169D01*
X203130895Y-109534389D01*
X202953330Y-109466589D01*
X202710638Y-109385441D01*
X202419771Y-109295619D01*
X202097685Y-109201794D01*
X201761330Y-109108639D01*
X201427662Y-109020826D01*
X201113632Y-108943028D01*
X200836195Y-108879918D01*
X200612303Y-108836167D01*
X200458909Y-108816449D01*
X200438500Y-108815802D01*
X200298800Y-108815200D01*
X200298800Y-109778456D01*
X200082900Y-109750760D01*
X199882673Y-109759535D01*
X199673182Y-109822746D01*
X199489441Y-109924938D01*
X199366469Y-110050658D01*
X199354662Y-110072150D01*
X199274426Y-110202765D01*
X199208628Y-110286158D01*
X199148994Y-110395744D01*
X199150515Y-110470746D01*
X199148873Y-110578527D01*
X199122256Y-110628412D01*
X199089907Y-110714637D01*
X199065009Y-110868040D01*
X199053557Y-111041073D01*
X199044126Y-111233795D01*
X199027496Y-111398738D01*
X199009654Y-111490802D01*
X197250800Y-111490802D01*
X197250800Y-108494493D01*
X196476100Y-108527055D01*
X195270863Y-108616195D01*
X194109423Y-108782943D01*
X192964642Y-109032167D01*
X191840600Y-109358570D01*
X191569674Y-109448221D01*
X191382051Y-109516282D01*
X191263739Y-109570421D01*
X191200742Y-109618304D01*
X191179069Y-109667599D01*
X190865779Y-109667599D01*
X190864918Y-109659952D01*
X190867527Y-109540961D01*
X190890167Y-109456717D01*
X190931537Y-109394553D01*
X190941843Y-109383756D01*
X191044465Y-109318291D01*
X191231888Y-109235562D01*
X191489635Y-109139884D01*
X191803224Y-109035574D01*
X192158178Y-108926948D01*
X192540015Y-108818321D01*
X192934258Y-108714010D01*
X193326425Y-108618331D01*
X193702039Y-108535600D01*
X193948800Y-108487441D01*
X194718177Y-108365758D01*
X195564281Y-108268371D01*
X196425208Y-108198749D01*
X197305973Y-108173286D01*
X198245004Y-108207593D01*
D13*
X142777600Y-119439600D02*
X142777600Y-120760400D01*
X145622400Y-119439600D02*
X142777600Y-119439600D01*
X145622400Y-120760400D02*
X145622400Y-119439600D01*
X142777600Y-120760400D02*
X145622400Y-120760400D01*
D14*
X144657200Y-119617400D02*
X144657200Y-120582600D01*
X144657200Y-120582600D02*
X145038200Y-120582600D01*
X145038200Y-119617400D02*
X144657200Y-119617400D01*
X143742800Y-120582600D02*
X143742800Y-119617400D01*
X143742800Y-119617400D02*
X143361800Y-119617400D01*
X143361800Y-120582600D02*
X143742800Y-120582600D01*
X144657200Y-119617400D02*
X143742800Y-119617400D01*
X143361800Y-119617400D02*
X143361800Y-120582600D01*
X143742800Y-120582600D02*
X144657200Y-120582600D01*
X145038200Y-120582600D02*
X145038200Y-119617400D01*
D13*
X145622400Y-118860400D02*
X145622400Y-117539600D01*
X142777600Y-118860400D02*
X145622400Y-118860400D01*
X142777600Y-117539600D02*
X142777600Y-118860400D01*
X145622400Y-117539600D02*
X142777600Y-117539600D01*
D14*
X143742800Y-118682600D02*
X143742800Y-117717400D01*
X143742800Y-117717400D02*
X143361800Y-117717400D01*
X143361800Y-118682600D02*
X143742800Y-118682600D01*
X144657200Y-117717400D02*
X144657200Y-118682600D01*
X144657200Y-118682600D02*
X145038200Y-118682600D01*
X145038200Y-117717400D02*
X144657200Y-117717400D01*
X143742800Y-118682600D02*
X144657200Y-118682600D01*
X145038200Y-118682600D02*
X145038200Y-117717400D01*
X144657200Y-117717400D02*
X143742800Y-117717400D01*
X143361800Y-117717400D02*
X143361800Y-118682600D01*
D15*
X191599440Y-126250420D02*
X190400560Y-126250420D01*
X190400560Y-126250420D02*
X191000000Y-127149580D01*
X191000000Y-127149580D02*
X191599440Y-126250420D01*
X191599440Y-127149580D02*
X190400560Y-127149580D01*
D13*
X137022400Y-130210400D02*
X137022400Y-128889600D01*
X134177600Y-130210400D02*
X137022400Y-130210400D01*
X134177600Y-128889600D02*
X134177600Y-130210400D01*
X137022400Y-128889600D02*
X134177600Y-128889600D01*
D14*
X135142800Y-130032600D02*
X135142800Y-129067400D01*
X135142800Y-129067400D02*
X134761800Y-129067400D01*
X134761800Y-130032600D02*
X135142800Y-130032600D01*
X136057200Y-129067400D02*
X136057200Y-130032600D01*
X136057200Y-130032600D02*
X136438200Y-130032600D01*
X136438200Y-129067400D02*
X136057200Y-129067400D01*
X135142800Y-130032600D02*
X136057200Y-130032600D01*
X136438200Y-130032600D02*
X136438200Y-129067400D01*
X136057200Y-129067400D02*
X135142800Y-129067400D01*
X134761800Y-129067400D02*
X134761800Y-130032600D01*
D11*
X132951280Y-111098720D02*
X132951280Y-110499280D01*
X133550720Y-111098720D02*
X132951280Y-111098720D01*
X132951280Y-101700720D02*
X132951280Y-101101280D01*
X142948720Y-101700720D02*
X142948720Y-101101280D01*
X142948720Y-111098720D02*
X142948720Y-110499280D01*
X142948720Y-101101280D02*
X142349280Y-101101280D01*
X133550720Y-101101280D02*
X132951280Y-101101280D01*
X142948720Y-111098720D02*
X142349280Y-111098720D01*
X143347500Y-101700720D02*
X143347500Y-100702500D01*
X143347500Y-100702500D02*
X142349280Y-100702500D01*
D14*
X170417400Y-135538200D02*
X171382600Y-135538200D01*
X170417400Y-134242800D02*
X170417400Y-135157200D01*
X171382600Y-133861800D02*
X170417400Y-133861800D01*
X171382600Y-135157200D02*
X171382600Y-134242800D01*
X170417400Y-133861800D02*
X170417400Y-134242800D01*
X171382600Y-134242800D02*
X171382600Y-133861800D01*
X170417400Y-134242800D02*
X171382600Y-134242800D01*
X171382600Y-135538200D02*
X171382600Y-135157200D01*
X170417400Y-135157200D02*
X170417400Y-135538200D01*
X171382600Y-135157200D02*
X170417400Y-135157200D01*
D13*
X170239600Y-133277600D02*
X170239600Y-136122400D01*
X170239600Y-136122400D02*
X171560400Y-136122400D01*
X171560400Y-136122400D02*
X171560400Y-133277600D01*
X171560400Y-133277600D02*
X170239600Y-133277600D01*
X142222400Y-133860400D02*
X142222400Y-132539600D01*
X139377600Y-133860400D02*
X142222400Y-133860400D01*
X139377600Y-132539600D02*
X139377600Y-133860400D01*
X142222400Y-132539600D02*
X139377600Y-132539600D01*
D14*
X140342800Y-133682600D02*
X140342800Y-132717400D01*
X140342800Y-132717400D02*
X139961800Y-132717400D01*
X139961800Y-133682600D02*
X140342800Y-133682600D01*
X141257200Y-132717400D02*
X141257200Y-133682600D01*
X141257200Y-133682600D02*
X141638200Y-133682600D01*
X141638200Y-132717400D02*
X141257200Y-132717400D01*
X140342800Y-133682600D02*
X141257200Y-133682600D01*
X141638200Y-133682600D02*
X141638200Y-132717400D01*
X141257200Y-132717400D02*
X140342800Y-132717400D01*
X139961800Y-132717400D02*
X139961800Y-133682600D01*
X145761800Y-105217400D02*
X145761800Y-106182600D01*
X147057200Y-105217400D02*
X146142800Y-105217400D01*
X147438200Y-106182600D02*
X147438200Y-105217400D01*
X146142800Y-106182600D02*
X147057200Y-106182600D01*
X147438200Y-105217400D02*
X147057200Y-105217400D01*
X147057200Y-106182600D02*
X147438200Y-106182600D01*
X147057200Y-105217400D02*
X147057200Y-106182600D01*
X145761800Y-106182600D02*
X146142800Y-106182600D01*
X146142800Y-105217400D02*
X145761800Y-105217400D01*
X146142800Y-106182600D02*
X146142800Y-105217400D01*
D13*
X148022400Y-105039600D02*
X145177600Y-105039600D01*
X145177600Y-105039600D02*
X145177600Y-106360400D01*
X145177600Y-106360400D02*
X148022400Y-106360400D01*
X148022400Y-106360400D02*
X148022400Y-105039600D01*
X148022400Y-108760400D02*
X148022400Y-107439600D01*
X145177600Y-108760400D02*
X148022400Y-108760400D01*
X145177600Y-107439600D02*
X145177600Y-108760400D01*
X148022400Y-107439600D02*
X145177600Y-107439600D01*
D14*
X146142800Y-108582600D02*
X146142800Y-107617400D01*
X146142800Y-107617400D02*
X145761800Y-107617400D01*
X145761800Y-108582600D02*
X146142800Y-108582600D01*
X147057200Y-107617400D02*
X147057200Y-108582600D01*
X147057200Y-108582600D02*
X147438200Y-108582600D01*
X147438200Y-107617400D02*
X147057200Y-107617400D01*
X146142800Y-108582600D02*
X147057200Y-108582600D01*
X147438200Y-108582600D02*
X147438200Y-107617400D01*
X147057200Y-107617400D02*
X146142800Y-107617400D01*
X145761800Y-107617400D02*
X145761800Y-108582600D01*
D13*
X136260400Y-95877600D02*
X134939600Y-95877600D01*
X136260400Y-98722400D02*
X136260400Y-95877600D01*
X134939600Y-98722400D02*
X136260400Y-98722400D01*
X134939600Y-95877600D02*
X134939600Y-98722400D01*
D14*
X136082600Y-97757200D02*
X135117400Y-97757200D01*
X135117400Y-97757200D02*
X135117400Y-98138200D01*
X136082600Y-98138200D02*
X136082600Y-97757200D01*
X135117400Y-96842800D02*
X136082600Y-96842800D01*
X136082600Y-96842800D02*
X136082600Y-96461800D01*
X135117400Y-96461800D02*
X135117400Y-96842800D01*
X136082600Y-97757200D02*
X136082600Y-96842800D01*
X136082600Y-96461800D02*
X135117400Y-96461800D01*
X135117400Y-96842800D02*
X135117400Y-97757200D01*
X135117400Y-98138200D02*
X136082600Y-98138200D01*
D13*
X131139600Y-113422400D02*
X132460400Y-113422400D01*
X131139600Y-110577600D02*
X131139600Y-113422400D01*
X132460400Y-110577600D02*
X131139600Y-110577600D01*
X132460400Y-113422400D02*
X132460400Y-110577600D01*
D14*
X131317400Y-111542800D02*
X132282600Y-111542800D01*
X132282600Y-111542800D02*
X132282600Y-111161800D01*
X131317400Y-111161800D02*
X131317400Y-111542800D01*
X132282600Y-112457200D02*
X131317400Y-112457200D01*
X131317400Y-112457200D02*
X131317400Y-112838200D01*
X132282600Y-112838200D02*
X132282600Y-112457200D01*
X131317400Y-111542800D02*
X131317400Y-112457200D01*
X131317400Y-112838200D02*
X132282600Y-112838200D01*
X132282600Y-112457200D02*
X132282600Y-111542800D01*
X132282600Y-111161800D02*
X131317400Y-111161800D01*
X139182600Y-114561800D02*
X138217400Y-114561800D01*
X139182600Y-115857200D02*
X139182600Y-114942800D01*
X138217400Y-116238200D02*
X139182600Y-116238200D01*
X138217400Y-114942800D02*
X138217400Y-115857200D01*
X139182600Y-116238200D02*
X139182600Y-115857200D01*
X138217400Y-115857200D02*
X138217400Y-116238200D01*
X139182600Y-115857200D02*
X138217400Y-115857200D01*
X138217400Y-114561800D02*
X138217400Y-114942800D01*
X139182600Y-114942800D02*
X139182600Y-114561800D01*
X138217400Y-114942800D02*
X139182600Y-114942800D01*
D13*
X139360400Y-116822400D02*
X139360400Y-113977600D01*
X139360400Y-113977600D02*
X138039600Y-113977600D01*
X138039600Y-113977600D02*
X138039600Y-116822400D01*
X138039600Y-116822400D02*
X139360400Y-116822400D01*
D14*
X131317400Y-101038200D02*
X132282600Y-101038200D01*
X131317400Y-99742800D02*
X131317400Y-100657200D01*
X132282600Y-99361800D02*
X131317400Y-99361800D01*
X132282600Y-100657200D02*
X132282600Y-99742800D01*
X131317400Y-99361800D02*
X131317400Y-99742800D01*
X132282600Y-99742800D02*
X132282600Y-99361800D01*
X131317400Y-99742800D02*
X132282600Y-99742800D01*
X132282600Y-101038200D02*
X132282600Y-100657200D01*
X131317400Y-100657200D02*
X131317400Y-101038200D01*
X132282600Y-100657200D02*
X131317400Y-100657200D01*
D13*
X131139600Y-98777600D02*
X131139600Y-101622400D01*
X131139600Y-101622400D02*
X132460400Y-101622400D01*
X132460400Y-101622400D02*
X132460400Y-98777600D01*
X132460400Y-98777600D02*
X131139600Y-98777600D01*
X134022400Y-118860400D02*
X134022400Y-117539600D01*
X131177600Y-118860400D02*
X134022400Y-118860400D01*
X131177600Y-117539600D02*
X131177600Y-118860400D01*
X134022400Y-117539600D02*
X131177600Y-117539600D01*
D14*
X132142800Y-118682600D02*
X132142800Y-117717400D01*
X132142800Y-117717400D02*
X131761800Y-117717400D01*
X131761800Y-118682600D02*
X132142800Y-118682600D01*
X133057200Y-117717400D02*
X133057200Y-118682600D01*
X133057200Y-118682600D02*
X133438200Y-118682600D01*
X133438200Y-117717400D02*
X133057200Y-117717400D01*
X132142800Y-118682600D02*
X133057200Y-118682600D01*
X133438200Y-118682600D02*
X133438200Y-117717400D01*
X133057200Y-117717400D02*
X132142800Y-117717400D01*
X131761800Y-117717400D02*
X131761800Y-118682600D01*
D15*
X189199160Y-126401500D02*
X189199160Y-127798500D01*
X187400840Y-126401500D02*
X187400840Y-127798500D01*
D16*
X131740016Y-114001400D02*
X131940676Y-113800740D01*
X131940676Y-113800740D02*
X136736196Y-113800740D01*
X136736196Y-113800740D02*
X136936856Y-114001400D01*
X137035916Y-116998600D02*
X136837796Y-117199260D01*
X136837796Y-117199260D02*
X131940676Y-117199260D01*
X131940676Y-117199260D02*
X131740016Y-116998600D01*
D13*
X179889600Y-137572400D02*
X181210400Y-137572400D01*
X179889600Y-134727600D02*
X179889600Y-137572400D01*
X181210400Y-134727600D02*
X179889600Y-134727600D01*
X181210400Y-137572400D02*
X181210400Y-134727600D01*
D14*
X180067400Y-135692800D02*
X181032600Y-135692800D01*
X181032600Y-135692800D02*
X181032600Y-135311800D01*
X180067400Y-135311800D02*
X180067400Y-135692800D01*
X181032600Y-136607200D02*
X180067400Y-136607200D01*
X180067400Y-136607200D02*
X180067400Y-136988200D01*
X181032600Y-136988200D02*
X181032600Y-136607200D01*
X180067400Y-135692800D02*
X180067400Y-136607200D01*
X180067400Y-136988200D02*
X181032600Y-136988200D01*
X181032600Y-136607200D02*
X181032600Y-135692800D01*
X181032600Y-135311800D02*
X180067400Y-135311800D01*
D13*
X134777600Y-117539600D02*
X134777600Y-118860400D01*
X137622400Y-117539600D02*
X134777600Y-117539600D01*
X137622400Y-118860400D02*
X137622400Y-117539600D01*
X134777600Y-118860400D02*
X137622400Y-118860400D01*
D14*
X136657200Y-117717400D02*
X136657200Y-118682600D01*
X136657200Y-118682600D02*
X137038200Y-118682600D01*
X137038200Y-117717400D02*
X136657200Y-117717400D01*
X135742800Y-118682600D02*
X135742800Y-117717400D01*
X135742800Y-117717400D02*
X135361800Y-117717400D01*
X135361800Y-118682600D02*
X135742800Y-118682600D01*
X136657200Y-117717400D02*
X135742800Y-117717400D01*
X135361800Y-117717400D02*
X135361800Y-118682600D01*
X135742800Y-118682600D02*
X136657200Y-118682600D01*
X137038200Y-118682600D02*
X137038200Y-117717400D01*
D15*
X133784000Y-121352000D02*
X135816000Y-121352000D01*
X133784000Y-127448000D02*
X135816000Y-127448000D01*
D13*
X163900000Y-132900000D02*
X155700000Y-132900000D01*
X155700000Y-137500000D02*
X163900000Y-137500000D01*
X163900000Y-137500000D02*
X163900000Y-136900000D01*
X163700000Y-137500000D02*
X163700000Y-136900000D01*
X163500000Y-136900000D02*
X163500000Y-137500000D01*
X163900000Y-132900000D02*
X163900000Y-133500000D01*
X163700000Y-133500000D02*
X163700000Y-132900000D01*
X163500000Y-132900000D02*
X163500000Y-133500000D01*
X155700000Y-132900000D02*
X155700000Y-133500000D01*
X155700000Y-137500000D02*
X155700000Y-136900000D01*
X163500000Y-136900000D02*
X163900000Y-136900000D01*
X163900000Y-133500000D02*
X163500000Y-133500000D01*
D17*
X146839616Y-54200000D02*
G75*
G03X146839616Y-54200000I-2539616J0D01*
G01*
X145338476Y-72297500D02*
G75*
G03X145338476Y-72297500I-2539616J0D01*
G01*
X195737156Y-72297500D02*
G75*
G03X195737156Y-72297500I-2539616J0D01*
G01*
X194236016Y-54200000D02*
G75*
G03X194236016Y-54200000I-2539616J0D01*
G01*
X185956315Y-130297500D02*
G75*
G03X185956315Y-130297500I-2758735J0D01*
G01*
X184455175Y-112200000D02*
G75*
G03X184455175Y-112200000I-2758735J0D01*
G01*
X157058735Y-112200000D02*
G75*
G03X157058735Y-112200000I-2758735J0D01*
G01*
X155557595Y-130297500D02*
G75*
G03X155557595Y-130297500I-2758735J0D01*
G01*
D13*
X165100000Y-137000000D02*
X165100000Y-133000000D01*
X169300000Y-137000000D02*
X169300000Y-133000000D01*
X169300000Y-137000000D02*
X169000000Y-137000000D01*
X169300000Y-133000000D02*
X169000000Y-133000000D01*
X165100000Y-133000000D02*
X165400000Y-133000000D01*
X165400000Y-137000000D02*
X165100000Y-137000000D01*
D15*
X195148220Y-125101780D02*
X193151780Y-125101780D01*
X193151780Y-125101780D02*
X194150000Y-126699440D01*
X194150000Y-126699440D02*
X195148220Y-125101780D01*
X195148220Y-126699440D02*
X195148220Y-126897560D01*
X195148220Y-126897560D02*
X193151780Y-126897560D01*
X193151780Y-126897560D02*
X193151780Y-127098220D01*
X192250080Y-123801300D02*
X192250080Y-128299640D01*
X192250080Y-128299640D02*
X192651400Y-128299640D01*
X192250080Y-123801300D02*
X192651400Y-123801300D01*
X195648600Y-123801300D02*
X196049920Y-123801300D01*
X196049920Y-123801300D02*
X196049920Y-128299640D01*
X196049920Y-128299640D02*
X195648600Y-128299640D01*
X177749580Y-132599440D02*
X177749580Y-131400560D01*
X177749580Y-131400560D02*
X176850420Y-132000000D01*
X176850420Y-132000000D02*
X177749580Y-132599440D01*
X176850420Y-132599440D02*
X176850420Y-131400560D01*
D18*
X176670000Y-51100000D02*
X180270000Y-51100000D01*
X180270000Y-51100000D02*
X180270000Y-55500000D01*
X180270000Y-55500000D02*
X176670000Y-55500000D01*
X176670000Y-55500000D02*
X176670000Y-51100000D01*
X177718378Y-54760000D02*
G75*
G03X177718378Y-54760000I-338378J0D01*
G01*
D15*
X169500560Y-53350420D02*
X170699440Y-53350420D01*
X170100000Y-53350420D02*
X169500560Y-54249580D01*
X170699440Y-54249580D02*
X170100000Y-53350420D01*
X169500560Y-54249580D02*
X170699440Y-54249580D01*
X173500560Y-54249580D02*
X174699440Y-54249580D01*
X174699440Y-54249580D02*
X174100000Y-53350420D01*
X174100000Y-53350420D02*
X173500560Y-54249580D01*
X173500560Y-53350420D02*
X174699440Y-53350420D01*
D14*
X170838200Y-58782600D02*
X170838200Y-57817400D01*
X169542800Y-58782600D02*
X170457200Y-58782600D01*
X169161800Y-57817400D02*
X169161800Y-58782600D01*
X170457200Y-57817400D02*
X169542800Y-57817400D01*
X169161800Y-58782600D02*
X169542800Y-58782600D01*
X169542800Y-57817400D02*
X169161800Y-57817400D01*
X169542800Y-58782600D02*
X169542800Y-57817400D01*
X170838200Y-57817400D02*
X170457200Y-57817400D01*
X170457200Y-58782600D02*
X170838200Y-58782600D01*
X170457200Y-57817400D02*
X170457200Y-58782600D01*
D13*
X168577600Y-58960400D02*
X171422400Y-58960400D01*
X171422400Y-58960400D02*
X171422400Y-57639600D01*
X171422400Y-57639600D02*
X168577600Y-57639600D01*
X168577600Y-57639600D02*
X168577600Y-58960400D01*
X172577600Y-57639600D02*
X172577600Y-58960400D01*
X175422400Y-57639600D02*
X172577600Y-57639600D01*
X175422400Y-58960400D02*
X175422400Y-57639600D01*
X172577600Y-58960400D02*
X175422400Y-58960400D01*
D14*
X174457200Y-57817400D02*
X174457200Y-58782600D01*
X174457200Y-58782600D02*
X174838200Y-58782600D01*
X174838200Y-57817400D02*
X174457200Y-57817400D01*
X173542800Y-58782600D02*
X173542800Y-57817400D01*
X173542800Y-57817400D02*
X173161800Y-57817400D01*
X173161800Y-58782600D02*
X173542800Y-58782600D01*
X174457200Y-57817400D02*
X173542800Y-57817400D01*
X173161800Y-57817400D02*
X173161800Y-58782600D01*
X173542800Y-58782600D02*
X174457200Y-58782600D01*
X174838200Y-58782600D02*
X174838200Y-57817400D01*
D15*
X137990000Y-136405000D02*
X132910000Y-136405000D01*
X132910000Y-136405000D02*
X132910000Y-132595000D01*
X132910000Y-132595000D02*
X137990000Y-132595000D01*
X137990000Y-132595000D02*
X137990000Y-136405000D01*
D19*
X137606447Y-133865000D02*
G75*
G03X137606447Y-133865000I-251447J0D01*
G01*
X175676057Y-133976856D02*
G75*
G03X175676057Y-133976856I-251447J0D01*
G01*
D15*
X174154610Y-133341856D02*
X177964610Y-133341856D01*
X174154610Y-138421856D02*
X174154610Y-133341856D01*
X177964610Y-138421856D02*
X174154610Y-138421856D01*
X177964610Y-133341856D02*
X177964610Y-138421856D01*
D11*
X194947820Y-130152180D02*
X194947820Y-138447820D01*
X194947820Y-138447820D02*
X187650400Y-138447820D01*
X187650400Y-138447820D02*
X186652180Y-137449600D01*
X186652180Y-137449600D02*
X186652180Y-131150400D01*
X186652180Y-131150400D02*
X187650400Y-130152180D01*
X187650400Y-130152180D02*
X194947820Y-130152180D01*
D13*
X166000000Y-108500000D02*
X164850000Y-108500000D01*
X164850000Y-108500000D02*
X164850000Y-116000000D01*
X164850000Y-116000000D02*
X166000000Y-116000000D01*
X170000000Y-116000000D02*
X171150000Y-116000000D01*
X171150000Y-116000000D02*
X171150000Y-108500000D01*
X171150000Y-108500000D02*
X170000000Y-108500000D01*
X168000000Y-110550000D02*
X166000000Y-113700000D01*
X166000000Y-113700000D02*
X170000000Y-113700000D01*
X170000000Y-113700000D02*
X168000000Y-110550000D01*
X166000000Y-110550000D02*
X170000000Y-110550000D01*
X149710600Y-64960400D02*
X149710600Y-63639600D01*
X146865800Y-64960400D02*
X149710600Y-64960400D01*
X146865800Y-63639600D02*
X146865800Y-64960400D01*
X149710600Y-63639600D02*
X146865800Y-63639600D01*
D14*
X147831000Y-64782600D02*
X147831000Y-63817400D01*
X147831000Y-63817400D02*
X147450000Y-63817400D01*
X147450000Y-64782600D02*
X147831000Y-64782600D01*
X148745400Y-63817400D02*
X148745400Y-64782600D01*
X148745400Y-64782600D02*
X149126400Y-64782600D01*
X149126400Y-63817400D02*
X148745400Y-63817400D01*
X147831000Y-64782600D02*
X148745400Y-64782600D01*
X149126400Y-64782600D02*
X149126400Y-63817400D01*
X148745400Y-63817400D02*
X147831000Y-63817400D01*
X147450000Y-63817400D02*
X147450000Y-64782600D01*
X177711800Y-57867400D02*
X177711800Y-58832600D01*
X179007200Y-57867400D02*
X178092800Y-57867400D01*
X179388200Y-58832600D02*
X179388200Y-57867400D01*
X178092800Y-58832600D02*
X179007200Y-58832600D01*
X179388200Y-57867400D02*
X179007200Y-57867400D01*
X179007200Y-58832600D02*
X179388200Y-58832600D01*
X179007200Y-57867400D02*
X179007200Y-58832600D01*
X177711800Y-58832600D02*
X178092800Y-58832600D01*
X178092800Y-57867400D02*
X177711800Y-57867400D01*
X178092800Y-58832600D02*
X178092800Y-57867400D01*
D13*
X179972400Y-57689600D02*
X177127600Y-57689600D01*
X177127600Y-57689600D02*
X177127600Y-59010400D01*
X177127600Y-59010400D02*
X179972400Y-59010400D01*
X179972400Y-59010400D02*
X179972400Y-57689600D01*
X184200000Y-86700000D02*
X189000000Y-86700000D01*
X189000000Y-86700000D02*
X189000000Y-90500000D01*
X184200000Y-90500000D02*
X189000000Y-90500000D01*
X184200000Y-90500000D02*
X184200000Y-86700000D01*
X185082843Y-90000000D02*
G75*
G03X185082843Y-90000000I-282843J0D01*
G01*
X160377600Y-50089600D02*
X160377600Y-51410400D01*
X163222400Y-50089600D02*
X160377600Y-50089600D01*
X163222400Y-51410400D02*
X163222400Y-50089600D01*
X160377600Y-51410400D02*
X163222400Y-51410400D01*
D14*
X162257200Y-50267400D02*
X162257200Y-51232600D01*
X162257200Y-51232600D02*
X162638200Y-51232600D01*
X162638200Y-50267400D02*
X162257200Y-50267400D01*
X161342800Y-51232600D02*
X161342800Y-50267400D01*
X161342800Y-50267400D02*
X160961800Y-50267400D01*
X160961800Y-51232600D02*
X161342800Y-51232600D01*
X162257200Y-50267400D02*
X161342800Y-50267400D01*
X160961800Y-50267400D02*
X160961800Y-51232600D01*
X161342800Y-51232600D02*
X162257200Y-51232600D01*
X162638200Y-51232600D02*
X162638200Y-50267400D01*
X160917400Y-58338200D02*
X161882600Y-58338200D01*
X160917400Y-57042800D02*
X160917400Y-57957200D01*
X161882600Y-56661800D02*
X160917400Y-56661800D01*
X161882600Y-57957200D02*
X161882600Y-57042800D01*
X160917400Y-56661800D02*
X160917400Y-57042800D01*
X161882600Y-57042800D02*
X161882600Y-56661800D01*
X160917400Y-57042800D02*
X161882600Y-57042800D01*
X161882600Y-58338200D02*
X161882600Y-57957200D01*
X160917400Y-57957200D02*
X160917400Y-58338200D01*
X161882600Y-57957200D02*
X160917400Y-57957200D01*
D13*
X160739600Y-56077600D02*
X160739600Y-58922400D01*
X160739600Y-58922400D02*
X162060400Y-58922400D01*
X162060400Y-58922400D02*
X162060400Y-56077600D01*
X162060400Y-56077600D02*
X160739600Y-56077600D01*
D14*
X162617400Y-58338200D02*
X163582600Y-58338200D01*
X162617400Y-57042800D02*
X162617400Y-57957200D01*
X163582600Y-56661800D02*
X162617400Y-56661800D01*
X163582600Y-57957200D02*
X163582600Y-57042800D01*
X162617400Y-56661800D02*
X162617400Y-57042800D01*
X163582600Y-57042800D02*
X163582600Y-56661800D01*
X162617400Y-57042800D02*
X163582600Y-57042800D01*
X163582600Y-58338200D02*
X163582600Y-57957200D01*
X162617400Y-57957200D02*
X162617400Y-58338200D01*
X163582600Y-57957200D02*
X162617400Y-57957200D01*
D13*
X162439600Y-56077600D02*
X162439600Y-58922400D01*
X162439600Y-58922400D02*
X163760400Y-58922400D01*
X163760400Y-58922400D02*
X163760400Y-56077600D01*
X163760400Y-56077600D02*
X162439600Y-56077600D01*
X151347400Y-53385400D02*
X151347400Y-52064600D01*
X148502600Y-53385400D02*
X151347400Y-53385400D01*
X148502600Y-52064600D02*
X148502600Y-53385400D01*
X151347400Y-52064600D02*
X148502600Y-52064600D01*
D14*
X149467800Y-53207600D02*
X149467800Y-52242400D01*
X149467800Y-52242400D02*
X149086800Y-52242400D01*
X149086800Y-53207600D02*
X149467800Y-53207600D01*
X150382200Y-52242400D02*
X150382200Y-53207600D01*
X150382200Y-53207600D02*
X150763200Y-53207600D01*
X150763200Y-52242400D02*
X150382200Y-52242400D01*
X149467800Y-53207600D02*
X150382200Y-53207600D01*
X150763200Y-53207600D02*
X150763200Y-52242400D01*
X150382200Y-52242400D02*
X149467800Y-52242400D01*
X149086800Y-52242400D02*
X149086800Y-53207600D01*
D13*
X160377600Y-53414600D02*
X160377600Y-54735400D01*
X163222400Y-53414600D02*
X160377600Y-53414600D01*
X163222400Y-54735400D02*
X163222400Y-53414600D01*
X160377600Y-54735400D02*
X163222400Y-54735400D01*
D14*
X162257200Y-53592400D02*
X162257200Y-54557600D01*
X162257200Y-54557600D02*
X162638200Y-54557600D01*
X162638200Y-53592400D02*
X162257200Y-53592400D01*
X161342800Y-54557600D02*
X161342800Y-53592400D01*
X161342800Y-53592400D02*
X160961800Y-53592400D01*
X160961800Y-54557600D02*
X161342800Y-54557600D01*
X162257200Y-53592400D02*
X161342800Y-53592400D01*
X160961800Y-53592400D02*
X160961800Y-54557600D01*
X161342800Y-54557600D02*
X162257200Y-54557600D01*
X162638200Y-54557600D02*
X162638200Y-53592400D01*
X149111800Y-50617400D02*
X149111800Y-51582600D01*
X150407200Y-50617400D02*
X149492800Y-50617400D01*
X150788200Y-51582600D02*
X150788200Y-50617400D01*
X149492800Y-51582600D02*
X150407200Y-51582600D01*
X150788200Y-50617400D02*
X150407200Y-50617400D01*
X150407200Y-51582600D02*
X150788200Y-51582600D01*
X150407200Y-50617400D02*
X150407200Y-51582600D01*
X149111800Y-51582600D02*
X149492800Y-51582600D01*
X149492800Y-50617400D02*
X149111800Y-50617400D01*
X149492800Y-51582600D02*
X149492800Y-50617400D01*
D13*
X151372400Y-50439600D02*
X148527600Y-50439600D01*
X148527600Y-50439600D02*
X148527600Y-51760400D01*
X148527600Y-51760400D02*
X151372400Y-51760400D01*
X151372400Y-51760400D02*
X151372400Y-50439600D01*
D14*
X162638200Y-52882600D02*
X162638200Y-51917400D01*
X161342800Y-52882600D02*
X162257200Y-52882600D01*
X160961800Y-51917400D02*
X160961800Y-52882600D01*
X162257200Y-51917400D02*
X161342800Y-51917400D01*
X160961800Y-52882600D02*
X161342800Y-52882600D01*
X161342800Y-51917400D02*
X160961800Y-51917400D01*
X161342800Y-52882600D02*
X161342800Y-51917400D01*
X162638200Y-51917400D02*
X162257200Y-51917400D01*
X162257200Y-52882600D02*
X162638200Y-52882600D01*
X162257200Y-51917400D02*
X162257200Y-52882600D01*
D13*
X160377600Y-53060400D02*
X163222400Y-53060400D01*
X163222400Y-53060400D02*
X163222400Y-51739600D01*
X163222400Y-51739600D02*
X160377600Y-51739600D01*
X160377600Y-51739600D02*
X160377600Y-53060400D01*
X152527600Y-57739600D02*
X152527600Y-59060400D01*
X155372400Y-57739600D02*
X152527600Y-57739600D01*
X155372400Y-59060400D02*
X155372400Y-57739600D01*
X152527600Y-59060400D02*
X155372400Y-59060400D01*
D14*
X154407200Y-57917400D02*
X154407200Y-58882600D01*
X154407200Y-58882600D02*
X154788200Y-58882600D01*
X154788200Y-57917400D02*
X154407200Y-57917400D01*
X153492800Y-58882600D02*
X153492800Y-57917400D01*
X153492800Y-57917400D02*
X153111800Y-57917400D01*
X153111800Y-58882600D02*
X153492800Y-58882600D01*
X154407200Y-57917400D02*
X153492800Y-57917400D01*
X153111800Y-57917400D02*
X153111800Y-58882600D01*
X153492800Y-58882600D02*
X154407200Y-58882600D01*
X154788200Y-58882600D02*
X154788200Y-57917400D01*
D13*
X159372400Y-59110400D02*
X159372400Y-57789600D01*
X156527600Y-59110400D02*
X159372400Y-59110400D01*
X156527600Y-57789600D02*
X156527600Y-59110400D01*
X159372400Y-57789600D02*
X156527600Y-57789600D01*
D14*
X157492800Y-58932600D02*
X157492800Y-57967400D01*
X157492800Y-57967400D02*
X157111800Y-57967400D01*
X157111800Y-58932600D02*
X157492800Y-58932600D01*
X158407200Y-57967400D02*
X158407200Y-58932600D01*
X158407200Y-58932600D02*
X158788200Y-58932600D01*
X158788200Y-57967400D02*
X158407200Y-57967400D01*
X157492800Y-58932600D02*
X158407200Y-58932600D01*
X158788200Y-58932600D02*
X158788200Y-57967400D01*
X158407200Y-57967400D02*
X157492800Y-57967400D01*
X157111800Y-57967400D02*
X157111800Y-58932600D01*
D13*
X152527600Y-56089600D02*
X152527600Y-57410400D01*
X155372400Y-56089600D02*
X152527600Y-56089600D01*
X155372400Y-57410400D02*
X155372400Y-56089600D01*
X152527600Y-57410400D02*
X155372400Y-57410400D01*
D14*
X154407200Y-56267400D02*
X154407200Y-57232600D01*
X154407200Y-57232600D02*
X154788200Y-57232600D01*
X154788200Y-56267400D02*
X154407200Y-56267400D01*
X153492800Y-57232600D02*
X153492800Y-56267400D01*
X153492800Y-56267400D02*
X153111800Y-56267400D01*
X153111800Y-57232600D02*
X153492800Y-57232600D01*
X154407200Y-56267400D02*
X153492800Y-56267400D01*
X153111800Y-56267400D02*
X153111800Y-57232600D01*
X153492800Y-57232600D02*
X154407200Y-57232600D01*
X154788200Y-57232600D02*
X154788200Y-56267400D01*
X157111800Y-56267400D02*
X157111800Y-57232600D01*
X158407200Y-56267400D02*
X157492800Y-56267400D01*
X158788200Y-57232600D02*
X158788200Y-56267400D01*
X157492800Y-57232600D02*
X158407200Y-57232600D01*
X158788200Y-56267400D02*
X158407200Y-56267400D01*
X158407200Y-57232600D02*
X158788200Y-57232600D01*
X158407200Y-56267400D02*
X158407200Y-57232600D01*
X157111800Y-57232600D02*
X157492800Y-57232600D01*
X157492800Y-56267400D02*
X157111800Y-56267400D01*
X157492800Y-57232600D02*
X157492800Y-56267400D01*
D13*
X159372400Y-56089600D02*
X156527600Y-56089600D01*
X156527600Y-56089600D02*
X156527600Y-57410400D01*
X156527600Y-57410400D02*
X159372400Y-57410400D01*
X159372400Y-57410400D02*
X159372400Y-56089600D01*
D19*
X155666447Y-50845000D02*
G75*
G03X155666447Y-50845000I-251447J0D01*
G01*
D15*
X154145000Y-50210000D02*
X157955000Y-50210000D01*
X154145000Y-55290000D02*
X154145000Y-50210000D01*
X157955000Y-55290000D02*
X154145000Y-55290000D01*
X157955000Y-50210000D02*
X157955000Y-55290000D01*
X189399440Y-80850420D02*
X188200560Y-80850420D01*
X188200560Y-80850420D02*
X188800000Y-81749580D01*
X188800000Y-81749580D02*
X189399440Y-80850420D01*
X189399440Y-81749580D02*
X188200560Y-81749580D01*
X184899440Y-81749580D02*
X183700560Y-81749580D01*
X184300000Y-81749580D02*
X184899440Y-80850420D01*
X183700560Y-80850420D02*
X184300000Y-81749580D01*
X184899440Y-80850420D02*
X183700560Y-80850420D01*
D14*
X137238200Y-120782600D02*
X137238200Y-119817400D01*
X135942800Y-120782600D02*
X136857200Y-120782600D01*
X135561800Y-119817400D02*
X135561800Y-120782600D01*
X136857200Y-119817400D02*
X135942800Y-119817400D01*
X135561800Y-120782600D02*
X135942800Y-120782600D01*
X135942800Y-119817400D02*
X135561800Y-119817400D01*
X135942800Y-120782600D02*
X135942800Y-119817400D01*
X137238200Y-119817400D02*
X136857200Y-119817400D01*
X136857200Y-120782600D02*
X137238200Y-120782600D01*
X136857200Y-119817400D02*
X136857200Y-120782600D01*
D13*
X134977600Y-120960400D02*
X137822400Y-120960400D01*
X137822400Y-120960400D02*
X137822400Y-119639600D01*
X137822400Y-119639600D02*
X134977600Y-119639600D01*
X134977600Y-119639600D02*
X134977600Y-120960400D01*
X131477600Y-119639600D02*
X131477600Y-120960400D01*
X134322400Y-119639600D02*
X131477600Y-119639600D01*
X134322400Y-120960400D02*
X134322400Y-119639600D01*
X131477600Y-120960400D02*
X134322400Y-120960400D01*
D14*
X133357200Y-119817400D02*
X133357200Y-120782600D01*
X133357200Y-120782600D02*
X133738200Y-120782600D01*
X133738200Y-119817400D02*
X133357200Y-119817400D01*
X132442800Y-120782600D02*
X132442800Y-119817400D01*
X132442800Y-119817400D02*
X132061800Y-119817400D01*
X132061800Y-120782600D02*
X132442800Y-120782600D01*
X133357200Y-119817400D02*
X132442800Y-119817400D01*
X132061800Y-119817400D02*
X132061800Y-120782600D01*
X132442800Y-120782600D02*
X133357200Y-120782600D01*
X133738200Y-120782600D02*
X133738200Y-119817400D01*
D13*
X168250000Y-89800000D02*
X168250000Y-83300000D01*
X175250000Y-89800000D02*
X175250000Y-83300000D01*
X182650000Y-89800000D02*
X182650000Y-83300000D01*
X175650000Y-89800000D02*
X175650000Y-83300000D01*
X153450000Y-89800000D02*
X153450000Y-83300000D01*
X160450000Y-89800000D02*
X160450000Y-83300000D01*
X167850000Y-89800000D02*
X167850000Y-83300000D01*
X160850000Y-89800000D02*
X160850000Y-83300000D01*
X190400000Y-89700000D02*
X190400000Y-83200000D01*
X197400000Y-89700000D02*
X197400000Y-83200000D01*
X138650000Y-89800000D02*
X138650000Y-83300000D01*
X145650000Y-89800000D02*
X145650000Y-83300000D01*
X153050000Y-89800000D02*
X153050000Y-83300000D01*
X146050000Y-89800000D02*
X146050000Y-83300000D01*
X204950000Y-89750000D02*
X204950000Y-83250000D01*
X197950000Y-89750000D02*
X197950000Y-83250000D01*
D20*
X142661523Y-135554895D02*
X142932457Y-136367695D01*
X143203390Y-135554895D01*
X143938780Y-136367695D02*
X143667847Y-135980647D01*
X143474323Y-136367695D02*
X143474323Y-135554895D01*
X143783961Y-135554895D01*
X143861371Y-135593600D01*
X143900076Y-135632304D01*
X143938780Y-135709714D01*
X143938780Y-135825828D01*
X143900076Y-135903238D01*
X143861371Y-135941942D01*
X143783961Y-135980647D01*
X143474323Y-135980647D01*
X144248419Y-135632304D02*
X144287123Y-135593600D01*
X144364533Y-135554895D01*
X144558057Y-135554895D01*
X144635466Y-135593600D01*
X144674171Y-135632304D01*
X144712876Y-135709714D01*
X144712876Y-135787123D01*
X144674171Y-135903238D01*
X144209714Y-136367695D01*
X144712876Y-136367695D01*
X145216038Y-135554895D02*
X145293447Y-135554895D01*
X145370857Y-135593600D01*
X145409561Y-135632304D01*
X145448266Y-135709714D01*
X145486971Y-135864533D01*
X145486971Y-136058057D01*
X145448266Y-136212876D01*
X145409561Y-136290285D01*
X145370857Y-136328990D01*
X145293447Y-136367695D01*
X145216038Y-136367695D01*
X145138628Y-136328990D01*
X145099923Y-136290285D01*
X145061219Y-136212876D01*
X145022514Y-136058057D01*
X145022514Y-135864533D01*
X145061219Y-135709714D01*
X145099923Y-135632304D01*
X145138628Y-135593600D01*
X145216038Y-135554895D01*
X145796609Y-135632304D02*
X145835314Y-135593600D01*
X145912723Y-135554895D01*
X146106247Y-135554895D01*
X146183657Y-135593600D01*
X146222361Y-135632304D01*
X146261066Y-135709714D01*
X146261066Y-135787123D01*
X146222361Y-135903238D01*
X145757904Y-136367695D01*
X146261066Y-136367695D01*
X146540438Y-120967695D02*
X146269504Y-120580647D01*
X146075980Y-120967695D02*
X146075980Y-120154895D01*
X146385619Y-120154895D01*
X146463028Y-120193600D01*
X146501733Y-120232304D01*
X146540438Y-120309714D01*
X146540438Y-120425828D01*
X146501733Y-120503238D01*
X146463028Y-120541942D01*
X146385619Y-120580647D01*
X146075980Y-120580647D01*
X146850076Y-120232304D02*
X146888780Y-120193600D01*
X146966190Y-120154895D01*
X147159714Y-120154895D01*
X147237123Y-120193600D01*
X147275828Y-120232304D01*
X147314533Y-120309714D01*
X147314533Y-120387123D01*
X147275828Y-120503238D01*
X146811371Y-120967695D01*
X147314533Y-120967695D01*
X147817695Y-120154895D02*
X147895104Y-120154895D01*
X147972514Y-120193600D01*
X148011219Y-120232304D01*
X148049923Y-120309714D01*
X148088628Y-120464533D01*
X148088628Y-120658057D01*
X148049923Y-120812876D01*
X148011219Y-120890285D01*
X147972514Y-120928990D01*
X147895104Y-120967695D01*
X147817695Y-120967695D01*
X147740285Y-120928990D01*
X147701580Y-120890285D01*
X147662876Y-120812876D01*
X147624171Y-120658057D01*
X147624171Y-120464533D01*
X147662876Y-120309714D01*
X147701580Y-120232304D01*
X147740285Y-120193600D01*
X147817695Y-120154895D01*
X148398266Y-120232304D02*
X148436971Y-120193600D01*
X148514380Y-120154895D01*
X148707904Y-120154895D01*
X148785314Y-120193600D01*
X148824019Y-120232304D01*
X148862723Y-120309714D01*
X148862723Y-120387123D01*
X148824019Y-120503238D01*
X148359561Y-120967695D01*
X148862723Y-120967695D01*
X146425828Y-119867695D02*
X145961371Y-119867695D01*
X146193600Y-119867695D02*
X146193600Y-119054895D01*
X146116190Y-119171009D01*
X146038780Y-119248419D01*
X145961371Y-119287123D01*
X146774171Y-119867695D02*
X146774171Y-119054895D01*
X147238628Y-119867695D02*
X146890285Y-119403238D01*
X147238628Y-119054895D02*
X146774171Y-119519352D01*
X146490438Y-118017695D02*
X146219504Y-117630647D01*
X146025980Y-118017695D02*
X146025980Y-117204895D01*
X146335619Y-117204895D01*
X146413028Y-117243600D01*
X146451733Y-117282304D01*
X146490438Y-117359714D01*
X146490438Y-117475828D01*
X146451733Y-117553238D01*
X146413028Y-117591942D01*
X146335619Y-117630647D01*
X146025980Y-117630647D01*
X146800076Y-117282304D02*
X146838780Y-117243600D01*
X146916190Y-117204895D01*
X147109714Y-117204895D01*
X147187123Y-117243600D01*
X147225828Y-117282304D01*
X147264533Y-117359714D01*
X147264533Y-117437123D01*
X147225828Y-117553238D01*
X146761371Y-118017695D01*
X147264533Y-118017695D01*
X147767695Y-117204895D02*
X147845104Y-117204895D01*
X147922514Y-117243600D01*
X147961219Y-117282304D01*
X147999923Y-117359714D01*
X148038628Y-117514533D01*
X148038628Y-117708057D01*
X147999923Y-117862876D01*
X147961219Y-117940285D01*
X147922514Y-117978990D01*
X147845104Y-118017695D01*
X147767695Y-118017695D01*
X147690285Y-117978990D01*
X147651580Y-117940285D01*
X147612876Y-117862876D01*
X147574171Y-117708057D01*
X147574171Y-117514533D01*
X147612876Y-117359714D01*
X147651580Y-117282304D01*
X147690285Y-117243600D01*
X147767695Y-117204895D01*
X148812723Y-118017695D02*
X148348266Y-118017695D01*
X148580495Y-118017695D02*
X148580495Y-117204895D01*
X148503085Y-117321009D01*
X148425676Y-117398419D01*
X148348266Y-117437123D01*
X146438780Y-119017695D02*
X145974323Y-119017695D01*
X146206552Y-119017695D02*
X146206552Y-118204895D01*
X146129142Y-118321009D01*
X146051733Y-118398419D01*
X145974323Y-118437123D01*
X146941942Y-118204895D02*
X147019352Y-118204895D01*
X147096761Y-118243600D01*
X147135466Y-118282304D01*
X147174171Y-118359714D01*
X147212876Y-118514533D01*
X147212876Y-118708057D01*
X147174171Y-118862876D01*
X147135466Y-118940285D01*
X147096761Y-118978990D01*
X147019352Y-119017695D01*
X146941942Y-119017695D01*
X146864533Y-118978990D01*
X146825828Y-118940285D01*
X146787123Y-118862876D01*
X146748419Y-118708057D01*
X146748419Y-118514533D01*
X146787123Y-118359714D01*
X146825828Y-118282304D01*
X146864533Y-118243600D01*
X146941942Y-118204895D01*
X147561219Y-119017695D02*
X147561219Y-118204895D01*
X148025676Y-119017695D02*
X147677333Y-118553238D01*
X148025676Y-118204895D02*
X147561219Y-118669352D01*
X189625980Y-123417695D02*
X189625980Y-122604895D01*
X189819504Y-122604895D01*
X189935619Y-122643600D01*
X190013028Y-122721009D01*
X190051733Y-122798419D01*
X190090438Y-122953238D01*
X190090438Y-123069352D01*
X190051733Y-123224171D01*
X190013028Y-123301580D01*
X189935619Y-123378990D01*
X189819504Y-123417695D01*
X189625980Y-123417695D01*
X190400076Y-122682304D02*
X190438780Y-122643600D01*
X190516190Y-122604895D01*
X190709714Y-122604895D01*
X190787123Y-122643600D01*
X190825828Y-122682304D01*
X190864533Y-122759714D01*
X190864533Y-122837123D01*
X190825828Y-122953238D01*
X190361371Y-123417695D01*
X190864533Y-123417695D01*
X191367695Y-122604895D02*
X191445104Y-122604895D01*
X191522514Y-122643600D01*
X191561219Y-122682304D01*
X191599923Y-122759714D01*
X191638628Y-122914533D01*
X191638628Y-123108057D01*
X191599923Y-123262876D01*
X191561219Y-123340285D01*
X191522514Y-123378990D01*
X191445104Y-123417695D01*
X191367695Y-123417695D01*
X191290285Y-123378990D01*
X191251580Y-123340285D01*
X191212876Y-123262876D01*
X191174171Y-123108057D01*
X191174171Y-122914533D01*
X191212876Y-122759714D01*
X191251580Y-122682304D01*
X191290285Y-122643600D01*
X191367695Y-122604895D01*
X192412723Y-123417695D02*
X191948266Y-123417695D01*
X192180495Y-123417695D02*
X192180495Y-122604895D01*
X192103085Y-122721009D01*
X192025676Y-122798419D01*
X191948266Y-122837123D01*
X137890438Y-128040285D02*
X137851733Y-128078990D01*
X137735619Y-128117695D01*
X137658209Y-128117695D01*
X137542095Y-128078990D01*
X137464685Y-128001580D01*
X137425980Y-127924171D01*
X137387276Y-127769352D01*
X137387276Y-127653238D01*
X137425980Y-127498419D01*
X137464685Y-127421009D01*
X137542095Y-127343600D01*
X137658209Y-127304895D01*
X137735619Y-127304895D01*
X137851733Y-127343600D01*
X137890438Y-127382304D01*
X138161371Y-127304895D02*
X138664533Y-127304895D01*
X138393600Y-127614533D01*
X138509714Y-127614533D01*
X138587123Y-127653238D01*
X138625828Y-127691942D01*
X138664533Y-127769352D01*
X138664533Y-127962876D01*
X138625828Y-128040285D01*
X138587123Y-128078990D01*
X138509714Y-128117695D01*
X138277485Y-128117695D01*
X138200076Y-128078990D01*
X138161371Y-128040285D01*
X139167695Y-127304895D02*
X139245104Y-127304895D01*
X139322514Y-127343600D01*
X139361219Y-127382304D01*
X139399923Y-127459714D01*
X139438628Y-127614533D01*
X139438628Y-127808057D01*
X139399923Y-127962876D01*
X139361219Y-128040285D01*
X139322514Y-128078990D01*
X139245104Y-128117695D01*
X139167695Y-128117695D01*
X139090285Y-128078990D01*
X139051580Y-128040285D01*
X139012876Y-127962876D01*
X138974171Y-127808057D01*
X138974171Y-127614533D01*
X139012876Y-127459714D01*
X139051580Y-127382304D01*
X139090285Y-127343600D01*
X139167695Y-127304895D01*
X140212723Y-128117695D02*
X139748266Y-128117695D01*
X139980495Y-128117695D02*
X139980495Y-127304895D01*
X139903085Y-127421009D01*
X139825676Y-127498419D01*
X139748266Y-127537123D01*
X137892095Y-129117695D02*
X137427638Y-129117695D01*
X137659866Y-129117695D02*
X137659866Y-128304895D01*
X137582457Y-128421009D01*
X137505047Y-128498419D01*
X137427638Y-128537123D01*
X138395257Y-128304895D02*
X138472666Y-128304895D01*
X138550076Y-128343600D01*
X138588780Y-128382304D01*
X138627485Y-128459714D01*
X138666190Y-128614533D01*
X138666190Y-128808057D01*
X138627485Y-128962876D01*
X138588780Y-129040285D01*
X138550076Y-129078990D01*
X138472666Y-129117695D01*
X138395257Y-129117695D01*
X138317847Y-129078990D01*
X138279142Y-129040285D01*
X138240438Y-128962876D01*
X138201733Y-128808057D01*
X138201733Y-128614533D01*
X138240438Y-128459714D01*
X138279142Y-128382304D01*
X138317847Y-128343600D01*
X138395257Y-128304895D01*
X139169352Y-128304895D02*
X139246761Y-128304895D01*
X139324171Y-128343600D01*
X139362876Y-128382304D01*
X139401580Y-128459714D01*
X139440285Y-128614533D01*
X139440285Y-128808057D01*
X139401580Y-128962876D01*
X139362876Y-129040285D01*
X139324171Y-129078990D01*
X139246761Y-129117695D01*
X139169352Y-129117695D01*
X139091942Y-129078990D01*
X139053238Y-129040285D01*
X139014533Y-128962876D01*
X138975828Y-128808057D01*
X138975828Y-128614533D01*
X139014533Y-128459714D01*
X139053238Y-128382304D01*
X139091942Y-128343600D01*
X139169352Y-128304895D01*
X139788628Y-128575828D02*
X139788628Y-129117695D01*
X139788628Y-128653238D02*
X139827333Y-128614533D01*
X139904742Y-128575828D01*
X140020857Y-128575828D01*
X140098266Y-128614533D01*
X140136971Y-128691942D01*
X140136971Y-129117695D01*
X140794952Y-128691942D02*
X140524019Y-128691942D01*
X140524019Y-129117695D02*
X140524019Y-128304895D01*
X140911066Y-128304895D01*
X136606628Y-108654895D02*
X136606628Y-109312876D01*
X136645333Y-109390285D01*
X136684038Y-109428990D01*
X136761447Y-109467695D01*
X136916266Y-109467695D01*
X136993676Y-109428990D01*
X137032380Y-109390285D01*
X137071085Y-109312876D01*
X137071085Y-108654895D01*
X137380723Y-108654895D02*
X137883885Y-108654895D01*
X137612952Y-108964533D01*
X137729066Y-108964533D01*
X137806476Y-109003238D01*
X137845180Y-109041942D01*
X137883885Y-109119352D01*
X137883885Y-109312876D01*
X137845180Y-109390285D01*
X137806476Y-109428990D01*
X137729066Y-109467695D01*
X137496838Y-109467695D01*
X137419428Y-109428990D01*
X137380723Y-109390285D01*
X138387047Y-108654895D02*
X138464457Y-108654895D01*
X138541866Y-108693600D01*
X138580571Y-108732304D01*
X138619276Y-108809714D01*
X138657980Y-108964533D01*
X138657980Y-109158057D01*
X138619276Y-109312876D01*
X138580571Y-109390285D01*
X138541866Y-109428990D01*
X138464457Y-109467695D01*
X138387047Y-109467695D01*
X138309638Y-109428990D01*
X138270933Y-109390285D01*
X138232228Y-109312876D01*
X138193523Y-109158057D01*
X138193523Y-108964533D01*
X138232228Y-108809714D01*
X138270933Y-108732304D01*
X138309638Y-108693600D01*
X138387047Y-108654895D01*
X138967619Y-108732304D02*
X139006323Y-108693600D01*
X139083733Y-108654895D01*
X139277257Y-108654895D01*
X139354666Y-108693600D01*
X139393371Y-108732304D01*
X139432076Y-108809714D01*
X139432076Y-108887123D01*
X139393371Y-109003238D01*
X138928914Y-109467695D01*
X139432076Y-109467695D01*
X133894057Y-108167695D02*
X133507009Y-108167695D01*
X133507009Y-107354895D01*
X134164990Y-108167695D02*
X134164990Y-107354895D01*
X134474628Y-107354895D01*
X134552038Y-107393600D01*
X134590742Y-107432304D01*
X134629447Y-107509714D01*
X134629447Y-107625828D01*
X134590742Y-107703238D01*
X134552038Y-107741942D01*
X134474628Y-107780647D01*
X134164990Y-107780647D01*
X135442247Y-108090285D02*
X135403542Y-108128990D01*
X135287428Y-108167695D01*
X135210019Y-108167695D01*
X135093904Y-108128990D01*
X135016495Y-108051580D01*
X134977790Y-107974171D01*
X134939085Y-107819352D01*
X134939085Y-107703238D01*
X134977790Y-107548419D01*
X135016495Y-107471009D01*
X135093904Y-107393600D01*
X135210019Y-107354895D01*
X135287428Y-107354895D01*
X135403542Y-107393600D01*
X135442247Y-107432304D01*
X136216342Y-108167695D02*
X135751885Y-108167695D01*
X135984114Y-108167695D02*
X135984114Y-107354895D01*
X135906704Y-107471009D01*
X135829295Y-107548419D01*
X135751885Y-107587123D01*
X136951733Y-107354895D02*
X136564685Y-107354895D01*
X136525980Y-107741942D01*
X136564685Y-107703238D01*
X136642095Y-107664533D01*
X136835619Y-107664533D01*
X136913028Y-107703238D01*
X136951733Y-107741942D01*
X136990438Y-107819352D01*
X136990438Y-108012876D01*
X136951733Y-108090285D01*
X136913028Y-108128990D01*
X136835619Y-108167695D01*
X136642095Y-108167695D01*
X136564685Y-108128990D01*
X136525980Y-108090285D01*
X137687123Y-107625828D02*
X137687123Y-108167695D01*
X137493600Y-107316190D02*
X137300076Y-107896761D01*
X137803238Y-107896761D01*
X138151580Y-108167695D02*
X138306400Y-108167695D01*
X138383809Y-108128990D01*
X138422514Y-108090285D01*
X138499923Y-107974171D01*
X138538628Y-107819352D01*
X138538628Y-107509714D01*
X138499923Y-107432304D01*
X138461219Y-107393600D01*
X138383809Y-107354895D01*
X138228990Y-107354895D01*
X138151580Y-107393600D01*
X138112876Y-107432304D01*
X138074171Y-107509714D01*
X138074171Y-107703238D01*
X138112876Y-107780647D01*
X138151580Y-107819352D01*
X138228990Y-107858057D01*
X138383809Y-107858057D01*
X138461219Y-107819352D01*
X138499923Y-107780647D01*
X138538628Y-107703238D01*
X139119200Y-107354895D02*
X139119200Y-107935466D01*
X139080495Y-108051580D01*
X139003085Y-108128990D01*
X138886971Y-108167695D01*
X138809561Y-108167695D01*
X139777180Y-107741942D02*
X139893295Y-107780647D01*
X139932000Y-107819352D01*
X139970704Y-107896761D01*
X139970704Y-108012876D01*
X139932000Y-108090285D01*
X139893295Y-108128990D01*
X139815885Y-108167695D01*
X139506247Y-108167695D01*
X139506247Y-107354895D01*
X139777180Y-107354895D01*
X139854590Y-107393600D01*
X139893295Y-107432304D01*
X139932000Y-107509714D01*
X139932000Y-107587123D01*
X139893295Y-107664533D01*
X139854590Y-107703238D01*
X139777180Y-107741942D01*
X139506247Y-107741942D01*
X140319047Y-108167695D02*
X140319047Y-107354895D01*
X140512571Y-107354895D01*
X140628685Y-107393600D01*
X140706095Y-107471009D01*
X140744800Y-107548419D01*
X140783504Y-107703238D01*
X140783504Y-107819352D01*
X140744800Y-107974171D01*
X140706095Y-108051580D01*
X140628685Y-108128990D01*
X140512571Y-108167695D01*
X140319047Y-108167695D01*
X141480190Y-107354895D02*
X141325371Y-107354895D01*
X141247961Y-107393600D01*
X141209257Y-107432304D01*
X141131847Y-107548419D01*
X141093142Y-107703238D01*
X141093142Y-108012876D01*
X141131847Y-108090285D01*
X141170552Y-108128990D01*
X141247961Y-108167695D01*
X141402780Y-108167695D01*
X141480190Y-108128990D01*
X141518895Y-108090285D01*
X141557600Y-108012876D01*
X141557600Y-107819352D01*
X141518895Y-107741942D01*
X141480190Y-107703238D01*
X141402780Y-107664533D01*
X141247961Y-107664533D01*
X141170552Y-107703238D01*
X141131847Y-107741942D01*
X141093142Y-107819352D01*
X142254285Y-107625828D02*
X142254285Y-108167695D01*
X142060761Y-107316190D02*
X141867238Y-107896761D01*
X142370400Y-107896761D01*
X170440438Y-131940285D02*
X170401733Y-131978990D01*
X170285619Y-132017695D01*
X170208209Y-132017695D01*
X170092095Y-131978990D01*
X170014685Y-131901580D01*
X169975980Y-131824171D01*
X169937276Y-131669352D01*
X169937276Y-131553238D01*
X169975980Y-131398419D01*
X170014685Y-131321009D01*
X170092095Y-131243600D01*
X170208209Y-131204895D01*
X170285619Y-131204895D01*
X170401733Y-131243600D01*
X170440438Y-131282304D01*
X170750076Y-131282304D02*
X170788780Y-131243600D01*
X170866190Y-131204895D01*
X171059714Y-131204895D01*
X171137123Y-131243600D01*
X171175828Y-131282304D01*
X171214533Y-131359714D01*
X171214533Y-131437123D01*
X171175828Y-131553238D01*
X170711371Y-132017695D01*
X171214533Y-132017695D01*
X171717695Y-131204895D02*
X171795104Y-131204895D01*
X171872514Y-131243600D01*
X171911219Y-131282304D01*
X171949923Y-131359714D01*
X171988628Y-131514533D01*
X171988628Y-131708057D01*
X171949923Y-131862876D01*
X171911219Y-131940285D01*
X171872514Y-131978990D01*
X171795104Y-132017695D01*
X171717695Y-132017695D01*
X171640285Y-131978990D01*
X171601580Y-131940285D01*
X171562876Y-131862876D01*
X171524171Y-131708057D01*
X171524171Y-131514533D01*
X171562876Y-131359714D01*
X171601580Y-131282304D01*
X171640285Y-131243600D01*
X171717695Y-131204895D01*
X172259561Y-131204895D02*
X172762723Y-131204895D01*
X172491790Y-131514533D01*
X172607904Y-131514533D01*
X172685314Y-131553238D01*
X172724019Y-131591942D01*
X172762723Y-131669352D01*
X172762723Y-131862876D01*
X172724019Y-131940285D01*
X172685314Y-131978990D01*
X172607904Y-132017695D01*
X172375676Y-132017695D01*
X172298266Y-131978990D01*
X172259561Y-131940285D01*
X170429142Y-133067695D02*
X169964685Y-133067695D01*
X170196914Y-133067695D02*
X170196914Y-132254895D01*
X170119504Y-132371009D01*
X170042095Y-132448419D01*
X169964685Y-132487123D01*
X170932304Y-132254895D02*
X171009714Y-132254895D01*
X171087123Y-132293600D01*
X171125828Y-132332304D01*
X171164533Y-132409714D01*
X171203238Y-132564533D01*
X171203238Y-132758057D01*
X171164533Y-132912876D01*
X171125828Y-132990285D01*
X171087123Y-133028990D01*
X171009714Y-133067695D01*
X170932304Y-133067695D01*
X170854895Y-133028990D01*
X170816190Y-132990285D01*
X170777485Y-132912876D01*
X170738780Y-132758057D01*
X170738780Y-132564533D01*
X170777485Y-132409714D01*
X170816190Y-132332304D01*
X170854895Y-132293600D01*
X170932304Y-132254895D01*
X171551580Y-132525828D02*
X171551580Y-133067695D01*
X171551580Y-132603238D02*
X171590285Y-132564533D01*
X171667695Y-132525828D01*
X171783809Y-132525828D01*
X171861219Y-132564533D01*
X171899923Y-132641942D01*
X171899923Y-133067695D01*
X172557904Y-132641942D02*
X172286971Y-132641942D01*
X172286971Y-133067695D02*
X172286971Y-132254895D01*
X172674019Y-132254895D01*
X142990438Y-133390285D02*
X142951733Y-133428990D01*
X142835619Y-133467695D01*
X142758209Y-133467695D01*
X142642095Y-133428990D01*
X142564685Y-133351580D01*
X142525980Y-133274171D01*
X142487276Y-133119352D01*
X142487276Y-133003238D01*
X142525980Y-132848419D01*
X142564685Y-132771009D01*
X142642095Y-132693600D01*
X142758209Y-132654895D01*
X142835619Y-132654895D01*
X142951733Y-132693600D01*
X142990438Y-132732304D01*
X143300076Y-132732304D02*
X143338780Y-132693600D01*
X143416190Y-132654895D01*
X143609714Y-132654895D01*
X143687123Y-132693600D01*
X143725828Y-132732304D01*
X143764533Y-132809714D01*
X143764533Y-132887123D01*
X143725828Y-133003238D01*
X143261371Y-133467695D01*
X143764533Y-133467695D01*
X144267695Y-132654895D02*
X144345104Y-132654895D01*
X144422514Y-132693600D01*
X144461219Y-132732304D01*
X144499923Y-132809714D01*
X144538628Y-132964533D01*
X144538628Y-133158057D01*
X144499923Y-133312876D01*
X144461219Y-133390285D01*
X144422514Y-133428990D01*
X144345104Y-133467695D01*
X144267695Y-133467695D01*
X144190285Y-133428990D01*
X144151580Y-133390285D01*
X144112876Y-133312876D01*
X144074171Y-133158057D01*
X144074171Y-132964533D01*
X144112876Y-132809714D01*
X144151580Y-132732304D01*
X144190285Y-132693600D01*
X144267695Y-132654895D01*
X145274019Y-132654895D02*
X144886971Y-132654895D01*
X144848266Y-133041942D01*
X144886971Y-133003238D01*
X144964380Y-132964533D01*
X145157904Y-132964533D01*
X145235314Y-133003238D01*
X145274019Y-133041942D01*
X145312723Y-133119352D01*
X145312723Y-133312876D01*
X145274019Y-133390285D01*
X145235314Y-133428990D01*
X145157904Y-133467695D01*
X144964380Y-133467695D01*
X144886971Y-133428990D01*
X144848266Y-133390285D01*
X142942095Y-134567695D02*
X142477638Y-134567695D01*
X142709866Y-134567695D02*
X142709866Y-133754895D01*
X142632457Y-133871009D01*
X142555047Y-133948419D01*
X142477638Y-133987123D01*
X143445257Y-133754895D02*
X143522666Y-133754895D01*
X143600076Y-133793600D01*
X143638780Y-133832304D01*
X143677485Y-133909714D01*
X143716190Y-134064533D01*
X143716190Y-134258057D01*
X143677485Y-134412876D01*
X143638780Y-134490285D01*
X143600076Y-134528990D01*
X143522666Y-134567695D01*
X143445257Y-134567695D01*
X143367847Y-134528990D01*
X143329142Y-134490285D01*
X143290438Y-134412876D01*
X143251733Y-134258057D01*
X143251733Y-134064533D01*
X143290438Y-133909714D01*
X143329142Y-133832304D01*
X143367847Y-133793600D01*
X143445257Y-133754895D01*
X144219352Y-133754895D02*
X144296761Y-133754895D01*
X144374171Y-133793600D01*
X144412876Y-133832304D01*
X144451580Y-133909714D01*
X144490285Y-134064533D01*
X144490285Y-134258057D01*
X144451580Y-134412876D01*
X144412876Y-134490285D01*
X144374171Y-134528990D01*
X144296761Y-134567695D01*
X144219352Y-134567695D01*
X144141942Y-134528990D01*
X144103238Y-134490285D01*
X144064533Y-134412876D01*
X144025828Y-134258057D01*
X144025828Y-134064533D01*
X144064533Y-133909714D01*
X144103238Y-133832304D01*
X144141942Y-133793600D01*
X144219352Y-133754895D01*
X144838628Y-134025828D02*
X144838628Y-134567695D01*
X144838628Y-134103238D02*
X144877333Y-134064533D01*
X144954742Y-134025828D01*
X145070857Y-134025828D01*
X145148266Y-134064533D01*
X145186971Y-134141942D01*
X145186971Y-134567695D01*
X145844952Y-134141942D02*
X145574019Y-134141942D01*
X145574019Y-134567695D02*
X145574019Y-133754895D01*
X145961066Y-133754895D01*
X145940438Y-103540285D02*
X145901733Y-103578990D01*
X145785619Y-103617695D01*
X145708209Y-103617695D01*
X145592095Y-103578990D01*
X145514685Y-103501580D01*
X145475980Y-103424171D01*
X145437276Y-103269352D01*
X145437276Y-103153238D01*
X145475980Y-102998419D01*
X145514685Y-102921009D01*
X145592095Y-102843600D01*
X145708209Y-102804895D01*
X145785619Y-102804895D01*
X145901733Y-102843600D01*
X145940438Y-102882304D01*
X146211371Y-102804895D02*
X146714533Y-102804895D01*
X146443600Y-103114533D01*
X146559714Y-103114533D01*
X146637123Y-103153238D01*
X146675828Y-103191942D01*
X146714533Y-103269352D01*
X146714533Y-103462876D01*
X146675828Y-103540285D01*
X146637123Y-103578990D01*
X146559714Y-103617695D01*
X146327485Y-103617695D01*
X146250076Y-103578990D01*
X146211371Y-103540285D01*
X147217695Y-102804895D02*
X147295104Y-102804895D01*
X147372514Y-102843600D01*
X147411219Y-102882304D01*
X147449923Y-102959714D01*
X147488628Y-103114533D01*
X147488628Y-103308057D01*
X147449923Y-103462876D01*
X147411219Y-103540285D01*
X147372514Y-103578990D01*
X147295104Y-103617695D01*
X147217695Y-103617695D01*
X147140285Y-103578990D01*
X147101580Y-103540285D01*
X147062876Y-103462876D01*
X147024171Y-103308057D01*
X147024171Y-103114533D01*
X147062876Y-102959714D01*
X147101580Y-102882304D01*
X147140285Y-102843600D01*
X147217695Y-102804895D01*
X147798266Y-102882304D02*
X147836971Y-102843600D01*
X147914380Y-102804895D01*
X148107904Y-102804895D01*
X148185314Y-102843600D01*
X148224019Y-102882304D01*
X148262723Y-102959714D01*
X148262723Y-103037123D01*
X148224019Y-103153238D01*
X147759561Y-103617695D01*
X148262723Y-103617695D01*
X145942095Y-104717695D02*
X145477638Y-104717695D01*
X145709866Y-104717695D02*
X145709866Y-103904895D01*
X145632457Y-104021009D01*
X145555047Y-104098419D01*
X145477638Y-104137123D01*
X146445257Y-103904895D02*
X146522666Y-103904895D01*
X146600076Y-103943600D01*
X146638780Y-103982304D01*
X146677485Y-104059714D01*
X146716190Y-104214533D01*
X146716190Y-104408057D01*
X146677485Y-104562876D01*
X146638780Y-104640285D01*
X146600076Y-104678990D01*
X146522666Y-104717695D01*
X146445257Y-104717695D01*
X146367847Y-104678990D01*
X146329142Y-104640285D01*
X146290438Y-104562876D01*
X146251733Y-104408057D01*
X146251733Y-104214533D01*
X146290438Y-104059714D01*
X146329142Y-103982304D01*
X146367847Y-103943600D01*
X146445257Y-103904895D01*
X147219352Y-103904895D02*
X147296761Y-103904895D01*
X147374171Y-103943600D01*
X147412876Y-103982304D01*
X147451580Y-104059714D01*
X147490285Y-104214533D01*
X147490285Y-104408057D01*
X147451580Y-104562876D01*
X147412876Y-104640285D01*
X147374171Y-104678990D01*
X147296761Y-104717695D01*
X147219352Y-104717695D01*
X147141942Y-104678990D01*
X147103238Y-104640285D01*
X147064533Y-104562876D01*
X147025828Y-104408057D01*
X147025828Y-104214533D01*
X147064533Y-104059714D01*
X147103238Y-103982304D01*
X147141942Y-103943600D01*
X147219352Y-103904895D01*
X147838628Y-104175828D02*
X147838628Y-104717695D01*
X147838628Y-104253238D02*
X147877333Y-104214533D01*
X147954742Y-104175828D01*
X148070857Y-104175828D01*
X148148266Y-104214533D01*
X148186971Y-104291942D01*
X148186971Y-104717695D01*
X148844952Y-104291942D02*
X148574019Y-104291942D01*
X148574019Y-104717695D02*
X148574019Y-103904895D01*
X148961066Y-103904895D01*
X149040438Y-107990285D02*
X149001733Y-108028990D01*
X148885619Y-108067695D01*
X148808209Y-108067695D01*
X148692095Y-108028990D01*
X148614685Y-107951580D01*
X148575980Y-107874171D01*
X148537276Y-107719352D01*
X148537276Y-107603238D01*
X148575980Y-107448419D01*
X148614685Y-107371009D01*
X148692095Y-107293600D01*
X148808209Y-107254895D01*
X148885619Y-107254895D01*
X149001733Y-107293600D01*
X149040438Y-107332304D01*
X149311371Y-107254895D02*
X149814533Y-107254895D01*
X149543600Y-107564533D01*
X149659714Y-107564533D01*
X149737123Y-107603238D01*
X149775828Y-107641942D01*
X149814533Y-107719352D01*
X149814533Y-107912876D01*
X149775828Y-107990285D01*
X149737123Y-108028990D01*
X149659714Y-108067695D01*
X149427485Y-108067695D01*
X149350076Y-108028990D01*
X149311371Y-107990285D01*
X150317695Y-107254895D02*
X150395104Y-107254895D01*
X150472514Y-107293600D01*
X150511219Y-107332304D01*
X150549923Y-107409714D01*
X150588628Y-107564533D01*
X150588628Y-107758057D01*
X150549923Y-107912876D01*
X150511219Y-107990285D01*
X150472514Y-108028990D01*
X150395104Y-108067695D01*
X150317695Y-108067695D01*
X150240285Y-108028990D01*
X150201580Y-107990285D01*
X150162876Y-107912876D01*
X150124171Y-107758057D01*
X150124171Y-107564533D01*
X150162876Y-107409714D01*
X150201580Y-107332304D01*
X150240285Y-107293600D01*
X150317695Y-107254895D01*
X150859561Y-107254895D02*
X151362723Y-107254895D01*
X151091790Y-107564533D01*
X151207904Y-107564533D01*
X151285314Y-107603238D01*
X151324019Y-107641942D01*
X151362723Y-107719352D01*
X151362723Y-107912876D01*
X151324019Y-107990285D01*
X151285314Y-108028990D01*
X151207904Y-108067695D01*
X150975676Y-108067695D01*
X150898266Y-108028990D01*
X150859561Y-107990285D01*
X149042095Y-109117695D02*
X148577638Y-109117695D01*
X148809866Y-109117695D02*
X148809866Y-108304895D01*
X148732457Y-108421009D01*
X148655047Y-108498419D01*
X148577638Y-108537123D01*
X149545257Y-108304895D02*
X149622666Y-108304895D01*
X149700076Y-108343600D01*
X149738780Y-108382304D01*
X149777485Y-108459714D01*
X149816190Y-108614533D01*
X149816190Y-108808057D01*
X149777485Y-108962876D01*
X149738780Y-109040285D01*
X149700076Y-109078990D01*
X149622666Y-109117695D01*
X149545257Y-109117695D01*
X149467847Y-109078990D01*
X149429142Y-109040285D01*
X149390438Y-108962876D01*
X149351733Y-108808057D01*
X149351733Y-108614533D01*
X149390438Y-108459714D01*
X149429142Y-108382304D01*
X149467847Y-108343600D01*
X149545257Y-108304895D01*
X150319352Y-108304895D02*
X150396761Y-108304895D01*
X150474171Y-108343600D01*
X150512876Y-108382304D01*
X150551580Y-108459714D01*
X150590285Y-108614533D01*
X150590285Y-108808057D01*
X150551580Y-108962876D01*
X150512876Y-109040285D01*
X150474171Y-109078990D01*
X150396761Y-109117695D01*
X150319352Y-109117695D01*
X150241942Y-109078990D01*
X150203238Y-109040285D01*
X150164533Y-108962876D01*
X150125828Y-108808057D01*
X150125828Y-108614533D01*
X150164533Y-108459714D01*
X150203238Y-108382304D01*
X150241942Y-108343600D01*
X150319352Y-108304895D01*
X150938628Y-108575828D02*
X150938628Y-109117695D01*
X150938628Y-108653238D02*
X150977333Y-108614533D01*
X151054742Y-108575828D01*
X151170857Y-108575828D01*
X151248266Y-108614533D01*
X151286971Y-108691942D01*
X151286971Y-109117695D01*
X151944952Y-108691942D02*
X151674019Y-108691942D01*
X151674019Y-109117695D02*
X151674019Y-108304895D01*
X152061066Y-108304895D01*
X133640438Y-94290285D02*
X133601733Y-94328990D01*
X133485619Y-94367695D01*
X133408209Y-94367695D01*
X133292095Y-94328990D01*
X133214685Y-94251580D01*
X133175980Y-94174171D01*
X133137276Y-94019352D01*
X133137276Y-93903238D01*
X133175980Y-93748419D01*
X133214685Y-93671009D01*
X133292095Y-93593600D01*
X133408209Y-93554895D01*
X133485619Y-93554895D01*
X133601733Y-93593600D01*
X133640438Y-93632304D01*
X133911371Y-93554895D02*
X134414533Y-93554895D01*
X134143600Y-93864533D01*
X134259714Y-93864533D01*
X134337123Y-93903238D01*
X134375828Y-93941942D01*
X134414533Y-94019352D01*
X134414533Y-94212876D01*
X134375828Y-94290285D01*
X134337123Y-94328990D01*
X134259714Y-94367695D01*
X134027485Y-94367695D01*
X133950076Y-94328990D01*
X133911371Y-94290285D01*
X134917695Y-93554895D02*
X134995104Y-93554895D01*
X135072514Y-93593600D01*
X135111219Y-93632304D01*
X135149923Y-93709714D01*
X135188628Y-93864533D01*
X135188628Y-94058057D01*
X135149923Y-94212876D01*
X135111219Y-94290285D01*
X135072514Y-94328990D01*
X134995104Y-94367695D01*
X134917695Y-94367695D01*
X134840285Y-94328990D01*
X134801580Y-94290285D01*
X134762876Y-94212876D01*
X134724171Y-94058057D01*
X134724171Y-93864533D01*
X134762876Y-93709714D01*
X134801580Y-93632304D01*
X134840285Y-93593600D01*
X134917695Y-93554895D01*
X135885314Y-93825828D02*
X135885314Y-94367695D01*
X135691790Y-93516190D02*
X135498266Y-94096761D01*
X136001428Y-94096761D01*
X133542095Y-95417695D02*
X133077638Y-95417695D01*
X133309866Y-95417695D02*
X133309866Y-94604895D01*
X133232457Y-94721009D01*
X133155047Y-94798419D01*
X133077638Y-94837123D01*
X134045257Y-94604895D02*
X134122666Y-94604895D01*
X134200076Y-94643600D01*
X134238780Y-94682304D01*
X134277485Y-94759714D01*
X134316190Y-94914533D01*
X134316190Y-95108057D01*
X134277485Y-95262876D01*
X134238780Y-95340285D01*
X134200076Y-95378990D01*
X134122666Y-95417695D01*
X134045257Y-95417695D01*
X133967847Y-95378990D01*
X133929142Y-95340285D01*
X133890438Y-95262876D01*
X133851733Y-95108057D01*
X133851733Y-94914533D01*
X133890438Y-94759714D01*
X133929142Y-94682304D01*
X133967847Y-94643600D01*
X134045257Y-94604895D01*
X134819352Y-94604895D02*
X134896761Y-94604895D01*
X134974171Y-94643600D01*
X135012876Y-94682304D01*
X135051580Y-94759714D01*
X135090285Y-94914533D01*
X135090285Y-95108057D01*
X135051580Y-95262876D01*
X135012876Y-95340285D01*
X134974171Y-95378990D01*
X134896761Y-95417695D01*
X134819352Y-95417695D01*
X134741942Y-95378990D01*
X134703238Y-95340285D01*
X134664533Y-95262876D01*
X134625828Y-95108057D01*
X134625828Y-94914533D01*
X134664533Y-94759714D01*
X134703238Y-94682304D01*
X134741942Y-94643600D01*
X134819352Y-94604895D01*
X135438628Y-94875828D02*
X135438628Y-95417695D01*
X135438628Y-94953238D02*
X135477333Y-94914533D01*
X135554742Y-94875828D01*
X135670857Y-94875828D01*
X135748266Y-94914533D01*
X135786971Y-94991942D01*
X135786971Y-95417695D01*
X136444952Y-94991942D02*
X136174019Y-94991942D01*
X136174019Y-95417695D02*
X136174019Y-94604895D01*
X136561066Y-94604895D01*
X130490285Y-112859561D02*
X130528990Y-112898266D01*
X130567695Y-113014380D01*
X130567695Y-113091790D01*
X130528990Y-113207904D01*
X130451580Y-113285314D01*
X130374171Y-113324019D01*
X130219352Y-113362723D01*
X130103238Y-113362723D01*
X129948419Y-113324019D01*
X129871009Y-113285314D01*
X129793600Y-113207904D01*
X129754895Y-113091790D01*
X129754895Y-113014380D01*
X129793600Y-112898266D01*
X129832304Y-112859561D01*
X129754895Y-112588628D02*
X129754895Y-112085466D01*
X130064533Y-112356400D01*
X130064533Y-112240285D01*
X130103238Y-112162876D01*
X130141942Y-112124171D01*
X130219352Y-112085466D01*
X130412876Y-112085466D01*
X130490285Y-112124171D01*
X130528990Y-112162876D01*
X130567695Y-112240285D01*
X130567695Y-112472514D01*
X130528990Y-112549923D01*
X130490285Y-112588628D01*
X129754895Y-111582304D02*
X129754895Y-111504895D01*
X129793600Y-111427485D01*
X129832304Y-111388780D01*
X129909714Y-111350076D01*
X130064533Y-111311371D01*
X130258057Y-111311371D01*
X130412876Y-111350076D01*
X130490285Y-111388780D01*
X130528990Y-111427485D01*
X130567695Y-111504895D01*
X130567695Y-111582304D01*
X130528990Y-111659714D01*
X130490285Y-111698419D01*
X130412876Y-111737123D01*
X130258057Y-111775828D01*
X130064533Y-111775828D01*
X129909714Y-111737123D01*
X129832304Y-111698419D01*
X129793600Y-111659714D01*
X129754895Y-111582304D01*
X129754895Y-110575980D02*
X129754895Y-110963028D01*
X130141942Y-111001733D01*
X130103238Y-110963028D01*
X130064533Y-110885619D01*
X130064533Y-110692095D01*
X130103238Y-110614685D01*
X130141942Y-110575980D01*
X130219352Y-110537276D01*
X130412876Y-110537276D01*
X130490285Y-110575980D01*
X130528990Y-110614685D01*
X130567695Y-110692095D01*
X130567695Y-110885619D01*
X130528990Y-110963028D01*
X130490285Y-111001733D01*
X140340438Y-115090285D02*
X140301733Y-115128990D01*
X140185619Y-115167695D01*
X140108209Y-115167695D01*
X139992095Y-115128990D01*
X139914685Y-115051580D01*
X139875980Y-114974171D01*
X139837276Y-114819352D01*
X139837276Y-114703238D01*
X139875980Y-114548419D01*
X139914685Y-114471009D01*
X139992095Y-114393600D01*
X140108209Y-114354895D01*
X140185619Y-114354895D01*
X140301733Y-114393600D01*
X140340438Y-114432304D01*
X140611371Y-114354895D02*
X141114533Y-114354895D01*
X140843600Y-114664533D01*
X140959714Y-114664533D01*
X141037123Y-114703238D01*
X141075828Y-114741942D01*
X141114533Y-114819352D01*
X141114533Y-115012876D01*
X141075828Y-115090285D01*
X141037123Y-115128990D01*
X140959714Y-115167695D01*
X140727485Y-115167695D01*
X140650076Y-115128990D01*
X140611371Y-115090285D01*
X141617695Y-114354895D02*
X141695104Y-114354895D01*
X141772514Y-114393600D01*
X141811219Y-114432304D01*
X141849923Y-114509714D01*
X141888628Y-114664533D01*
X141888628Y-114858057D01*
X141849923Y-115012876D01*
X141811219Y-115090285D01*
X141772514Y-115128990D01*
X141695104Y-115167695D01*
X141617695Y-115167695D01*
X141540285Y-115128990D01*
X141501580Y-115090285D01*
X141462876Y-115012876D01*
X141424171Y-114858057D01*
X141424171Y-114664533D01*
X141462876Y-114509714D01*
X141501580Y-114432304D01*
X141540285Y-114393600D01*
X141617695Y-114354895D01*
X142585314Y-114354895D02*
X142430495Y-114354895D01*
X142353085Y-114393600D01*
X142314380Y-114432304D01*
X142236971Y-114548419D01*
X142198266Y-114703238D01*
X142198266Y-115012876D01*
X142236971Y-115090285D01*
X142275676Y-115128990D01*
X142353085Y-115167695D01*
X142507904Y-115167695D01*
X142585314Y-115128990D01*
X142624019Y-115090285D01*
X142662723Y-115012876D01*
X142662723Y-114819352D01*
X142624019Y-114741942D01*
X142585314Y-114703238D01*
X142507904Y-114664533D01*
X142353085Y-114664533D01*
X142275676Y-114703238D01*
X142236971Y-114741942D01*
X142198266Y-114819352D01*
X140392095Y-116217695D02*
X139927638Y-116217695D01*
X140159866Y-116217695D02*
X140159866Y-115404895D01*
X140082457Y-115521009D01*
X140005047Y-115598419D01*
X139927638Y-115637123D01*
X140895257Y-115404895D02*
X140972666Y-115404895D01*
X141050076Y-115443600D01*
X141088780Y-115482304D01*
X141127485Y-115559714D01*
X141166190Y-115714533D01*
X141166190Y-115908057D01*
X141127485Y-116062876D01*
X141088780Y-116140285D01*
X141050076Y-116178990D01*
X140972666Y-116217695D01*
X140895257Y-116217695D01*
X140817847Y-116178990D01*
X140779142Y-116140285D01*
X140740438Y-116062876D01*
X140701733Y-115908057D01*
X140701733Y-115714533D01*
X140740438Y-115559714D01*
X140779142Y-115482304D01*
X140817847Y-115443600D01*
X140895257Y-115404895D01*
X141669352Y-115404895D02*
X141746761Y-115404895D01*
X141824171Y-115443600D01*
X141862876Y-115482304D01*
X141901580Y-115559714D01*
X141940285Y-115714533D01*
X141940285Y-115908057D01*
X141901580Y-116062876D01*
X141862876Y-116140285D01*
X141824171Y-116178990D01*
X141746761Y-116217695D01*
X141669352Y-116217695D01*
X141591942Y-116178990D01*
X141553238Y-116140285D01*
X141514533Y-116062876D01*
X141475828Y-115908057D01*
X141475828Y-115714533D01*
X141514533Y-115559714D01*
X141553238Y-115482304D01*
X141591942Y-115443600D01*
X141669352Y-115404895D01*
X142288628Y-115675828D02*
X142288628Y-116217695D01*
X142288628Y-115753238D02*
X142327333Y-115714533D01*
X142404742Y-115675828D01*
X142520857Y-115675828D01*
X142598266Y-115714533D01*
X142636971Y-115791942D01*
X142636971Y-116217695D01*
X143294952Y-115791942D02*
X143024019Y-115791942D01*
X143024019Y-116217695D02*
X143024019Y-115404895D01*
X143411066Y-115404895D01*
X130940438Y-98390285D02*
X130901733Y-98428990D01*
X130785619Y-98467695D01*
X130708209Y-98467695D01*
X130592095Y-98428990D01*
X130514685Y-98351580D01*
X130475980Y-98274171D01*
X130437276Y-98119352D01*
X130437276Y-98003238D01*
X130475980Y-97848419D01*
X130514685Y-97771009D01*
X130592095Y-97693600D01*
X130708209Y-97654895D01*
X130785619Y-97654895D01*
X130901733Y-97693600D01*
X130940438Y-97732304D01*
X131211371Y-97654895D02*
X131714533Y-97654895D01*
X131443600Y-97964533D01*
X131559714Y-97964533D01*
X131637123Y-98003238D01*
X131675828Y-98041942D01*
X131714533Y-98119352D01*
X131714533Y-98312876D01*
X131675828Y-98390285D01*
X131637123Y-98428990D01*
X131559714Y-98467695D01*
X131327485Y-98467695D01*
X131250076Y-98428990D01*
X131211371Y-98390285D01*
X132217695Y-97654895D02*
X132295104Y-97654895D01*
X132372514Y-97693600D01*
X132411219Y-97732304D01*
X132449923Y-97809714D01*
X132488628Y-97964533D01*
X132488628Y-98158057D01*
X132449923Y-98312876D01*
X132411219Y-98390285D01*
X132372514Y-98428990D01*
X132295104Y-98467695D01*
X132217695Y-98467695D01*
X132140285Y-98428990D01*
X132101580Y-98390285D01*
X132062876Y-98312876D01*
X132024171Y-98158057D01*
X132024171Y-97964533D01*
X132062876Y-97809714D01*
X132101580Y-97732304D01*
X132140285Y-97693600D01*
X132217695Y-97654895D01*
X132759561Y-97654895D02*
X133301428Y-97654895D01*
X132953085Y-98467695D01*
X130540285Y-118609561D02*
X130578990Y-118648266D01*
X130617695Y-118764380D01*
X130617695Y-118841790D01*
X130578990Y-118957904D01*
X130501580Y-119035314D01*
X130424171Y-119074019D01*
X130269352Y-119112723D01*
X130153238Y-119112723D01*
X129998419Y-119074019D01*
X129921009Y-119035314D01*
X129843600Y-118957904D01*
X129804895Y-118841790D01*
X129804895Y-118764380D01*
X129843600Y-118648266D01*
X129882304Y-118609561D01*
X129804895Y-118338628D02*
X129804895Y-117835466D01*
X130114533Y-118106400D01*
X130114533Y-117990285D01*
X130153238Y-117912876D01*
X130191942Y-117874171D01*
X130269352Y-117835466D01*
X130462876Y-117835466D01*
X130540285Y-117874171D01*
X130578990Y-117912876D01*
X130617695Y-117990285D01*
X130617695Y-118222514D01*
X130578990Y-118299923D01*
X130540285Y-118338628D01*
X129804895Y-117332304D02*
X129804895Y-117254895D01*
X129843600Y-117177485D01*
X129882304Y-117138780D01*
X129959714Y-117100076D01*
X130114533Y-117061371D01*
X130308057Y-117061371D01*
X130462876Y-117100076D01*
X130540285Y-117138780D01*
X130578990Y-117177485D01*
X130617695Y-117254895D01*
X130617695Y-117332304D01*
X130578990Y-117409714D01*
X130540285Y-117448419D01*
X130462876Y-117487123D01*
X130308057Y-117525828D01*
X130114533Y-117525828D01*
X129959714Y-117487123D01*
X129882304Y-117448419D01*
X129843600Y-117409714D01*
X129804895Y-117332304D01*
X130153238Y-116596914D02*
X130114533Y-116674323D01*
X130075828Y-116713028D01*
X129998419Y-116751733D01*
X129959714Y-116751733D01*
X129882304Y-116713028D01*
X129843600Y-116674323D01*
X129804895Y-116596914D01*
X129804895Y-116442095D01*
X129843600Y-116364685D01*
X129882304Y-116325980D01*
X129959714Y-116287276D01*
X129998419Y-116287276D01*
X130075828Y-116325980D01*
X130114533Y-116364685D01*
X130153238Y-116442095D01*
X130153238Y-116596914D01*
X130191942Y-116674323D01*
X130230647Y-116713028D01*
X130308057Y-116751733D01*
X130462876Y-116751733D01*
X130540285Y-116713028D01*
X130578990Y-116674323D01*
X130617695Y-116596914D01*
X130617695Y-116442095D01*
X130578990Y-116364685D01*
X130540285Y-116325980D01*
X130462876Y-116287276D01*
X130308057Y-116287276D01*
X130230647Y-116325980D01*
X130191942Y-116364685D01*
X130153238Y-116442095D01*
X187204971Y-124191942D02*
X186934038Y-124191942D01*
X186934038Y-124617695D02*
X186934038Y-123804895D01*
X187321085Y-123804895D01*
X187592019Y-123882304D02*
X187630723Y-123843600D01*
X187708133Y-123804895D01*
X187901657Y-123804895D01*
X187979066Y-123843600D01*
X188017771Y-123882304D01*
X188056476Y-123959714D01*
X188056476Y-124037123D01*
X188017771Y-124153238D01*
X187553314Y-124617695D01*
X188056476Y-124617695D01*
X188559638Y-123804895D02*
X188637047Y-123804895D01*
X188714457Y-123843600D01*
X188753161Y-123882304D01*
X188791866Y-123959714D01*
X188830571Y-124114533D01*
X188830571Y-124308057D01*
X188791866Y-124462876D01*
X188753161Y-124540285D01*
X188714457Y-124578990D01*
X188637047Y-124617695D01*
X188559638Y-124617695D01*
X188482228Y-124578990D01*
X188443523Y-124540285D01*
X188404819Y-124462876D01*
X188366114Y-124308057D01*
X188366114Y-124114533D01*
X188404819Y-123959714D01*
X188443523Y-123882304D01*
X188482228Y-123843600D01*
X188559638Y-123804895D01*
X189604666Y-124617695D02*
X189140209Y-124617695D01*
X189372438Y-124617695D02*
X189372438Y-123804895D01*
X189295028Y-123921009D01*
X189217619Y-123998419D01*
X189140209Y-124037123D01*
X133067923Y-115604895D02*
X133609790Y-116417695D01*
X133609790Y-115604895D02*
X133067923Y-116417695D01*
X133842019Y-115604895D02*
X134345180Y-115604895D01*
X134074247Y-115914533D01*
X134190361Y-115914533D01*
X134267771Y-115953238D01*
X134306476Y-115991942D01*
X134345180Y-116069352D01*
X134345180Y-116262876D01*
X134306476Y-116340285D01*
X134267771Y-116378990D01*
X134190361Y-116417695D01*
X133958133Y-116417695D01*
X133880723Y-116378990D01*
X133842019Y-116340285D01*
X134848342Y-115604895D02*
X134925752Y-115604895D01*
X135003161Y-115643600D01*
X135041866Y-115682304D01*
X135080571Y-115759714D01*
X135119276Y-115914533D01*
X135119276Y-116108057D01*
X135080571Y-116262876D01*
X135041866Y-116340285D01*
X135003161Y-116378990D01*
X134925752Y-116417695D01*
X134848342Y-116417695D01*
X134770933Y-116378990D01*
X134732228Y-116340285D01*
X134693523Y-116262876D01*
X134654819Y-116108057D01*
X134654819Y-115914533D01*
X134693523Y-115759714D01*
X134732228Y-115682304D01*
X134770933Y-115643600D01*
X134848342Y-115604895D01*
X135893371Y-116417695D02*
X135428914Y-116417695D01*
X135661142Y-116417695D02*
X135661142Y-115604895D01*
X135583733Y-115721009D01*
X135506323Y-115798419D01*
X135428914Y-115837123D01*
X182140438Y-136490285D02*
X182101733Y-136528990D01*
X181985619Y-136567695D01*
X181908209Y-136567695D01*
X181792095Y-136528990D01*
X181714685Y-136451580D01*
X181675980Y-136374171D01*
X181637276Y-136219352D01*
X181637276Y-136103238D01*
X181675980Y-135948419D01*
X181714685Y-135871009D01*
X181792095Y-135793600D01*
X181908209Y-135754895D01*
X181985619Y-135754895D01*
X182101733Y-135793600D01*
X182140438Y-135832304D01*
X182450076Y-135832304D02*
X182488780Y-135793600D01*
X182566190Y-135754895D01*
X182759714Y-135754895D01*
X182837123Y-135793600D01*
X182875828Y-135832304D01*
X182914533Y-135909714D01*
X182914533Y-135987123D01*
X182875828Y-136103238D01*
X182411371Y-136567695D01*
X182914533Y-136567695D01*
X183417695Y-135754895D02*
X183495104Y-135754895D01*
X183572514Y-135793600D01*
X183611219Y-135832304D01*
X183649923Y-135909714D01*
X183688628Y-136064533D01*
X183688628Y-136258057D01*
X183649923Y-136412876D01*
X183611219Y-136490285D01*
X183572514Y-136528990D01*
X183495104Y-136567695D01*
X183417695Y-136567695D01*
X183340285Y-136528990D01*
X183301580Y-136490285D01*
X183262876Y-136412876D01*
X183224171Y-136258057D01*
X183224171Y-136064533D01*
X183262876Y-135909714D01*
X183301580Y-135832304D01*
X183340285Y-135793600D01*
X183417695Y-135754895D01*
X184462723Y-136567695D02*
X183998266Y-136567695D01*
X184230495Y-136567695D02*
X184230495Y-135754895D01*
X184153085Y-135871009D01*
X184075676Y-135948419D01*
X183998266Y-135987123D01*
X138390438Y-118490285D02*
X138351733Y-118528990D01*
X138235619Y-118567695D01*
X138158209Y-118567695D01*
X138042095Y-118528990D01*
X137964685Y-118451580D01*
X137925980Y-118374171D01*
X137887276Y-118219352D01*
X137887276Y-118103238D01*
X137925980Y-117948419D01*
X137964685Y-117871009D01*
X138042095Y-117793600D01*
X138158209Y-117754895D01*
X138235619Y-117754895D01*
X138351733Y-117793600D01*
X138390438Y-117832304D01*
X138661371Y-117754895D02*
X139164533Y-117754895D01*
X138893600Y-118064533D01*
X139009714Y-118064533D01*
X139087123Y-118103238D01*
X139125828Y-118141942D01*
X139164533Y-118219352D01*
X139164533Y-118412876D01*
X139125828Y-118490285D01*
X139087123Y-118528990D01*
X139009714Y-118567695D01*
X138777485Y-118567695D01*
X138700076Y-118528990D01*
X138661371Y-118490285D01*
X139667695Y-117754895D02*
X139745104Y-117754895D01*
X139822514Y-117793600D01*
X139861219Y-117832304D01*
X139899923Y-117909714D01*
X139938628Y-118064533D01*
X139938628Y-118258057D01*
X139899923Y-118412876D01*
X139861219Y-118490285D01*
X139822514Y-118528990D01*
X139745104Y-118567695D01*
X139667695Y-118567695D01*
X139590285Y-118528990D01*
X139551580Y-118490285D01*
X139512876Y-118412876D01*
X139474171Y-118258057D01*
X139474171Y-118064533D01*
X139512876Y-117909714D01*
X139551580Y-117832304D01*
X139590285Y-117793600D01*
X139667695Y-117754895D01*
X140325676Y-118567695D02*
X140480495Y-118567695D01*
X140557904Y-118528990D01*
X140596609Y-118490285D01*
X140674019Y-118374171D01*
X140712723Y-118219352D01*
X140712723Y-117909714D01*
X140674019Y-117832304D01*
X140635314Y-117793600D01*
X140557904Y-117754895D01*
X140403085Y-117754895D01*
X140325676Y-117793600D01*
X140286971Y-117832304D01*
X140248266Y-117909714D01*
X140248266Y-118103238D01*
X140286971Y-118180647D01*
X140325676Y-118219352D01*
X140403085Y-118258057D01*
X140557904Y-118258057D01*
X140635314Y-118219352D01*
X140674019Y-118180647D01*
X140712723Y-118103238D01*
X139054971Y-124104895D02*
X139054971Y-124685466D01*
X139016266Y-124801580D01*
X138938857Y-124878990D01*
X138822742Y-124917695D01*
X138745333Y-124917695D01*
X139364609Y-124104895D02*
X139867771Y-124104895D01*
X139596838Y-124414533D01*
X139712952Y-124414533D01*
X139790361Y-124453238D01*
X139829066Y-124491942D01*
X139867771Y-124569352D01*
X139867771Y-124762876D01*
X139829066Y-124840285D01*
X139790361Y-124878990D01*
X139712952Y-124917695D01*
X139480723Y-124917695D01*
X139403314Y-124878990D01*
X139364609Y-124840285D01*
X140370933Y-124104895D02*
X140448342Y-124104895D01*
X140525752Y-124143600D01*
X140564457Y-124182304D01*
X140603161Y-124259714D01*
X140641866Y-124414533D01*
X140641866Y-124608057D01*
X140603161Y-124762876D01*
X140564457Y-124840285D01*
X140525752Y-124878990D01*
X140448342Y-124917695D01*
X140370933Y-124917695D01*
X140293523Y-124878990D01*
X140254819Y-124840285D01*
X140216114Y-124762876D01*
X140177409Y-124608057D01*
X140177409Y-124414533D01*
X140216114Y-124259714D01*
X140254819Y-124182304D01*
X140293523Y-124143600D01*
X140370933Y-124104895D01*
X141415961Y-124917695D02*
X140951504Y-124917695D01*
X141183733Y-124917695D02*
X141183733Y-124104895D01*
X141106323Y-124221009D01*
X141028914Y-124298419D01*
X140951504Y-124337123D01*
D18*
X158580952Y-135557142D02*
X158533333Y-135604761D01*
X158390476Y-135652380D01*
X158295238Y-135652380D01*
X158152380Y-135604761D01*
X158057142Y-135509523D01*
X158009523Y-135414285D01*
X157961904Y-135223809D01*
X157961904Y-135080952D01*
X158009523Y-134890476D01*
X158057142Y-134795238D01*
X158152380Y-134700000D01*
X158295238Y-134652380D01*
X158390476Y-134652380D01*
X158533333Y-134700000D01*
X158580952Y-134747619D01*
X158961904Y-134747619D02*
X159009523Y-134700000D01*
X159104761Y-134652380D01*
X159342857Y-134652380D01*
X159438095Y-134700000D01*
X159485714Y-134747619D01*
X159533333Y-134842857D01*
X159533333Y-134938095D01*
X159485714Y-135080952D01*
X158914285Y-135652380D01*
X159533333Y-135652380D01*
X160152380Y-134652380D02*
X160247619Y-134652380D01*
X160342857Y-134700000D01*
X160390476Y-134747619D01*
X160438095Y-134842857D01*
X160485714Y-135033333D01*
X160485714Y-135271428D01*
X160438095Y-135461904D01*
X160390476Y-135557142D01*
X160342857Y-135604761D01*
X160247619Y-135652380D01*
X160152380Y-135652380D01*
X160057142Y-135604761D01*
X160009523Y-135557142D01*
X159961904Y-135461904D01*
X159914285Y-135271428D01*
X159914285Y-135033333D01*
X159961904Y-134842857D01*
X160009523Y-134747619D01*
X160057142Y-134700000D01*
X160152380Y-134652380D01*
X161342857Y-134985714D02*
X161342857Y-135652380D01*
X161104761Y-134604761D02*
X160866666Y-135319047D01*
X161485714Y-135319047D01*
D16*
X162444628Y-71081971D02*
X162444628Y-72279400D01*
X162364800Y-72518885D01*
X162205142Y-72678542D01*
X161965657Y-72758371D01*
X161806000Y-72758371D01*
X164121028Y-72758371D02*
X163163085Y-72758371D01*
X163642057Y-72758371D02*
X163642057Y-71081971D01*
X163482400Y-71321457D01*
X163322742Y-71481114D01*
X163163085Y-71560942D01*
X165158800Y-71081971D02*
X165318457Y-71081971D01*
X165478114Y-71161800D01*
X165557942Y-71241628D01*
X165637771Y-71401285D01*
X165717600Y-71720600D01*
X165717600Y-72119742D01*
X165637771Y-72439057D01*
X165557942Y-72598714D01*
X165478114Y-72678542D01*
X165318457Y-72758371D01*
X165158800Y-72758371D01*
X164999142Y-72678542D01*
X164919314Y-72598714D01*
X164839485Y-72439057D01*
X164759657Y-72119742D01*
X164759657Y-71720600D01*
X164839485Y-71401285D01*
X164919314Y-71241628D01*
X164999142Y-71161800D01*
X165158800Y-71081971D01*
X166356228Y-71241628D02*
X166436057Y-71161800D01*
X166595714Y-71081971D01*
X166994857Y-71081971D01*
X167154514Y-71161800D01*
X167234342Y-71241628D01*
X167314171Y-71401285D01*
X167314171Y-71560942D01*
X167234342Y-71800428D01*
X166276400Y-72758371D01*
X167314171Y-72758371D01*
X145562171Y-74779400D02*
X146360457Y-74779400D01*
X145402514Y-75258371D02*
X145961314Y-73581971D01*
X146520114Y-75258371D01*
X147078914Y-75258371D02*
X147078914Y-73581971D01*
X147637714Y-74779400D01*
X148196514Y-73581971D01*
X148196514Y-75258371D01*
X148994800Y-75258371D02*
X148994800Y-73581971D01*
X149633428Y-73581971D01*
X149793085Y-73661800D01*
X149872914Y-73741628D01*
X149952742Y-73901285D01*
X149952742Y-74140771D01*
X149872914Y-74300428D01*
X149793085Y-74380257D01*
X149633428Y-74460085D01*
X148994800Y-74460085D01*
X150591371Y-75178542D02*
X150830857Y-75258371D01*
X151230000Y-75258371D01*
X151389657Y-75178542D01*
X151469485Y-75098714D01*
X151549314Y-74939057D01*
X151549314Y-74779400D01*
X151469485Y-74619742D01*
X151389657Y-74539914D01*
X151230000Y-74460085D01*
X150910685Y-74380257D01*
X150751028Y-74300428D01*
X150671200Y-74220600D01*
X150591371Y-74060942D01*
X150591371Y-73901285D01*
X150671200Y-73741628D01*
X150751028Y-73661800D01*
X150910685Y-73581971D01*
X151309828Y-73581971D01*
X151549314Y-73661800D01*
X152267771Y-74380257D02*
X152826571Y-74380257D01*
X153066057Y-75258371D02*
X152267771Y-75258371D01*
X152267771Y-73581971D01*
X153066057Y-73581971D01*
X153704685Y-74779400D02*
X154502971Y-74779400D01*
X153545028Y-75258371D02*
X154103828Y-73581971D01*
X154662628Y-75258371D01*
X156019714Y-75258371D02*
X155221428Y-75258371D01*
X155221428Y-73581971D01*
X156179371Y-75418028D02*
X157456628Y-75418028D01*
X157775942Y-73741628D02*
X157855771Y-73661800D01*
X158015428Y-73581971D01*
X158414571Y-73581971D01*
X158574228Y-73661800D01*
X158654057Y-73741628D01*
X158733885Y-73901285D01*
X158733885Y-74060942D01*
X158654057Y-74300428D01*
X157696114Y-75258371D01*
X158733885Y-75258371D01*
X159292685Y-73581971D02*
X160330457Y-73581971D01*
X159771657Y-74220600D01*
X160011142Y-74220600D01*
X160170800Y-74300428D01*
X160250628Y-74380257D01*
X160330457Y-74539914D01*
X160330457Y-74939057D01*
X160250628Y-75098714D01*
X160170800Y-75178542D01*
X160011142Y-75258371D01*
X159532171Y-75258371D01*
X159372514Y-75178542D01*
X159292685Y-75098714D01*
X160649771Y-75418028D02*
X161927028Y-75418028D01*
X162326171Y-75258371D02*
X162326171Y-73581971D01*
X162964800Y-73581971D01*
X163124457Y-73661800D01*
X163204285Y-73741628D01*
X163284114Y-73901285D01*
X163284114Y-74140771D01*
X163204285Y-74300428D01*
X163124457Y-74380257D01*
X162964800Y-74460085D01*
X162326171Y-74460085D01*
X164321885Y-73581971D02*
X164641200Y-73581971D01*
X164800857Y-73661800D01*
X164960514Y-73821457D01*
X165040342Y-74140771D01*
X165040342Y-74699571D01*
X164960514Y-75018885D01*
X164800857Y-75178542D01*
X164641200Y-75258371D01*
X164321885Y-75258371D01*
X164162228Y-75178542D01*
X164002571Y-75018885D01*
X163922742Y-74699571D01*
X163922742Y-74140771D01*
X164002571Y-73821457D01*
X164162228Y-73661800D01*
X164321885Y-73581971D01*
X165678971Y-75178542D02*
X165918457Y-75258371D01*
X166317600Y-75258371D01*
X166477257Y-75178542D01*
X166557085Y-75098714D01*
X166636914Y-74939057D01*
X166636914Y-74779400D01*
X166557085Y-74619742D01*
X166477257Y-74539914D01*
X166317600Y-74460085D01*
X165998285Y-74380257D01*
X165838628Y-74300428D01*
X165758800Y-74220600D01*
X165678971Y-74060942D01*
X165678971Y-73901285D01*
X165758800Y-73741628D01*
X165838628Y-73661800D01*
X165998285Y-73581971D01*
X166397428Y-73581971D01*
X166636914Y-73661800D01*
X166956228Y-75418028D02*
X168233485Y-75418028D01*
X169510742Y-75258371D02*
X168552800Y-75258371D01*
X169031771Y-75258371D02*
X169031771Y-73581971D01*
X168872114Y-73821457D01*
X168712457Y-73981114D01*
X168552800Y-74060942D01*
X170229200Y-74619742D02*
X171506457Y-74619742D01*
X172145085Y-73581971D02*
X173262685Y-73581971D01*
X172544228Y-75258371D01*
X173741657Y-73581971D02*
X174859257Y-73581971D01*
X174140800Y-75258371D01*
X176216342Y-73581971D02*
X175897028Y-73581971D01*
X175737371Y-73661800D01*
X175657542Y-73741628D01*
X175497885Y-73981114D01*
X175418057Y-74300428D01*
X175418057Y-74939057D01*
X175497885Y-75098714D01*
X175577714Y-75178542D01*
X175737371Y-75258371D01*
X176056685Y-75258371D01*
X176216342Y-75178542D01*
X176296171Y-75098714D01*
X176376000Y-74939057D01*
X176376000Y-74539914D01*
X176296171Y-74380257D01*
X176216342Y-74300428D01*
X176056685Y-74220600D01*
X175737371Y-74220600D01*
X175577714Y-74300428D01*
X175497885Y-74380257D01*
X175418057Y-74539914D01*
X177014628Y-73741628D02*
X177094457Y-73661800D01*
X177254114Y-73581971D01*
X177653257Y-73581971D01*
X177812914Y-73661800D01*
X177892742Y-73741628D01*
X177972571Y-73901285D01*
X177972571Y-74060942D01*
X177892742Y-74300428D01*
X176934800Y-75258371D01*
X177972571Y-75258371D01*
X178611200Y-73741628D02*
X178691028Y-73661800D01*
X178850685Y-73581971D01*
X179249828Y-73581971D01*
X179409485Y-73661800D01*
X179489314Y-73741628D01*
X179569142Y-73901285D01*
X179569142Y-74060942D01*
X179489314Y-74300428D01*
X178531371Y-75258371D01*
X179569142Y-75258371D01*
X180527085Y-74300428D02*
X180367428Y-74220600D01*
X180287600Y-74140771D01*
X180207771Y-73981114D01*
X180207771Y-73901285D01*
X180287600Y-73741628D01*
X180367428Y-73661800D01*
X180527085Y-73581971D01*
X180846400Y-73581971D01*
X181006057Y-73661800D01*
X181085885Y-73741628D01*
X181165714Y-73901285D01*
X181165714Y-73981114D01*
X181085885Y-74140771D01*
X181006057Y-74220600D01*
X180846400Y-74300428D01*
X180527085Y-74300428D01*
X180367428Y-74380257D01*
X180287600Y-74460085D01*
X180207771Y-74619742D01*
X180207771Y-74939057D01*
X180287600Y-75098714D01*
X180367428Y-75178542D01*
X180527085Y-75258371D01*
X180846400Y-75258371D01*
X181006057Y-75178542D01*
X181085885Y-75098714D01*
X181165714Y-74939057D01*
X181165714Y-74619742D01*
X181085885Y-74460085D01*
X181006057Y-74380257D01*
X180846400Y-74300428D01*
X181884171Y-74619742D02*
X183161428Y-74619742D01*
X184837828Y-75258371D02*
X183879885Y-75258371D01*
X184358857Y-75258371D02*
X184358857Y-73581971D01*
X184199200Y-73821457D01*
X184039542Y-73981114D01*
X183879885Y-74060942D01*
D19*
X157667142Y-107054523D02*
X157667142Y-107961666D01*
X157606666Y-108143095D01*
X157485714Y-108264047D01*
X157304285Y-108324523D01*
X157183333Y-108324523D01*
X158937142Y-108324523D02*
X158211428Y-108324523D01*
X158574285Y-108324523D02*
X158574285Y-107054523D01*
X158453333Y-107235952D01*
X158332380Y-107356904D01*
X158211428Y-107417380D01*
X159723333Y-107054523D02*
X159844285Y-107054523D01*
X159965238Y-107115000D01*
X160025714Y-107175476D01*
X160086190Y-107296428D01*
X160146666Y-107538333D01*
X160146666Y-107840714D01*
X160086190Y-108082619D01*
X160025714Y-108203571D01*
X159965238Y-108264047D01*
X159844285Y-108324523D01*
X159723333Y-108324523D01*
X159602380Y-108264047D01*
X159541904Y-108203571D01*
X159481428Y-108082619D01*
X159420952Y-107840714D01*
X159420952Y-107538333D01*
X159481428Y-107296428D01*
X159541904Y-107175476D01*
X159602380Y-107115000D01*
X159723333Y-107054523D01*
X161356190Y-108324523D02*
X160630476Y-108324523D01*
X160993333Y-108324523D02*
X160993333Y-107054523D01*
X160872380Y-107235952D01*
X160751428Y-107356904D01*
X160630476Y-107417380D01*
X151427619Y-106161666D02*
X152032380Y-106161666D01*
X151306666Y-106524523D02*
X151730000Y-105254523D01*
X152153333Y-106524523D01*
X152576666Y-106524523D02*
X152576666Y-105254523D01*
X153000000Y-106161666D01*
X153423333Y-105254523D01*
X153423333Y-106524523D01*
X154028095Y-106524523D02*
X154028095Y-105254523D01*
X154511904Y-105254523D01*
X154632857Y-105315000D01*
X154693333Y-105375476D01*
X154753809Y-105496428D01*
X154753809Y-105677857D01*
X154693333Y-105798809D01*
X154632857Y-105859285D01*
X154511904Y-105919761D01*
X154028095Y-105919761D01*
X155237619Y-106464047D02*
X155419047Y-106524523D01*
X155721428Y-106524523D01*
X155842380Y-106464047D01*
X155902857Y-106403571D01*
X155963333Y-106282619D01*
X155963333Y-106161666D01*
X155902857Y-106040714D01*
X155842380Y-105980238D01*
X155721428Y-105919761D01*
X155479523Y-105859285D01*
X155358571Y-105798809D01*
X155298095Y-105738333D01*
X155237619Y-105617380D01*
X155237619Y-105496428D01*
X155298095Y-105375476D01*
X155358571Y-105315000D01*
X155479523Y-105254523D01*
X155781904Y-105254523D01*
X155963333Y-105315000D01*
X156507619Y-105859285D02*
X156930952Y-105859285D01*
X157112380Y-106524523D02*
X156507619Y-106524523D01*
X156507619Y-105254523D01*
X157112380Y-105254523D01*
X157596190Y-106161666D02*
X158200952Y-106161666D01*
X157475238Y-106524523D02*
X157898571Y-105254523D01*
X158321904Y-106524523D01*
X159350000Y-106524523D02*
X158745238Y-106524523D01*
X158745238Y-105254523D01*
X159470952Y-106645476D02*
X160438571Y-106645476D01*
X160922380Y-105798809D02*
X160801428Y-105738333D01*
X160740952Y-105677857D01*
X160680476Y-105556904D01*
X160680476Y-105496428D01*
X160740952Y-105375476D01*
X160801428Y-105315000D01*
X160922380Y-105254523D01*
X161164285Y-105254523D01*
X161285238Y-105315000D01*
X161345714Y-105375476D01*
X161406190Y-105496428D01*
X161406190Y-105556904D01*
X161345714Y-105677857D01*
X161285238Y-105738333D01*
X161164285Y-105798809D01*
X160922380Y-105798809D01*
X160801428Y-105859285D01*
X160740952Y-105919761D01*
X160680476Y-106040714D01*
X160680476Y-106282619D01*
X160740952Y-106403571D01*
X160801428Y-106464047D01*
X160922380Y-106524523D01*
X161164285Y-106524523D01*
X161285238Y-106464047D01*
X161345714Y-106403571D01*
X161406190Y-106282619D01*
X161406190Y-106040714D01*
X161345714Y-105919761D01*
X161285238Y-105859285D01*
X161164285Y-105798809D01*
X161648095Y-106645476D02*
X162615714Y-106645476D01*
X162918095Y-106524523D02*
X162918095Y-105254523D01*
X163401904Y-105254523D01*
X163522857Y-105315000D01*
X163583333Y-105375476D01*
X163643809Y-105496428D01*
X163643809Y-105677857D01*
X163583333Y-105798809D01*
X163522857Y-105859285D01*
X163401904Y-105919761D01*
X162918095Y-105919761D01*
X164430000Y-105254523D02*
X164671904Y-105254523D01*
X164792857Y-105315000D01*
X164913809Y-105435952D01*
X164974285Y-105677857D01*
X164974285Y-106101190D01*
X164913809Y-106343095D01*
X164792857Y-106464047D01*
X164671904Y-106524523D01*
X164430000Y-106524523D01*
X164309047Y-106464047D01*
X164188095Y-106343095D01*
X164127619Y-106101190D01*
X164127619Y-105677857D01*
X164188095Y-105435952D01*
X164309047Y-105315000D01*
X164430000Y-105254523D01*
X165458095Y-106464047D02*
X165639523Y-106524523D01*
X165941904Y-106524523D01*
X166062857Y-106464047D01*
X166123333Y-106403571D01*
X166183809Y-106282619D01*
X166183809Y-106161666D01*
X166123333Y-106040714D01*
X166062857Y-105980238D01*
X165941904Y-105919761D01*
X165700000Y-105859285D01*
X165579047Y-105798809D01*
X165518571Y-105738333D01*
X165458095Y-105617380D01*
X165458095Y-105496428D01*
X165518571Y-105375476D01*
X165579047Y-105315000D01*
X165700000Y-105254523D01*
X166002380Y-105254523D01*
X166183809Y-105315000D01*
X166425714Y-106645476D02*
X167393333Y-106645476D01*
X168360952Y-106524523D02*
X167635238Y-106524523D01*
X167998095Y-106524523D02*
X167998095Y-105254523D01*
X167877142Y-105435952D01*
X167756190Y-105556904D01*
X167635238Y-105617380D01*
X168905238Y-106040714D02*
X169872857Y-106040714D01*
X170356666Y-105254523D02*
X171203333Y-105254523D01*
X170659047Y-106524523D01*
X171566190Y-105254523D02*
X172412857Y-105254523D01*
X171868571Y-106524523D01*
X173440952Y-105254523D02*
X173199047Y-105254523D01*
X173078095Y-105315000D01*
X173017619Y-105375476D01*
X172896666Y-105556904D01*
X172836190Y-105798809D01*
X172836190Y-106282619D01*
X172896666Y-106403571D01*
X172957142Y-106464047D01*
X173078095Y-106524523D01*
X173320000Y-106524523D01*
X173440952Y-106464047D01*
X173501428Y-106403571D01*
X173561904Y-106282619D01*
X173561904Y-105980238D01*
X173501428Y-105859285D01*
X173440952Y-105798809D01*
X173320000Y-105738333D01*
X173078095Y-105738333D01*
X172957142Y-105798809D01*
X172896666Y-105859285D01*
X172836190Y-105980238D01*
X174045714Y-105375476D02*
X174106190Y-105315000D01*
X174227142Y-105254523D01*
X174529523Y-105254523D01*
X174650476Y-105315000D01*
X174710952Y-105375476D01*
X174771428Y-105496428D01*
X174771428Y-105617380D01*
X174710952Y-105798809D01*
X173985238Y-106524523D01*
X174771428Y-106524523D01*
X175194761Y-105254523D02*
X176041428Y-105254523D01*
X175497142Y-106524523D01*
X177069523Y-105254523D02*
X176827619Y-105254523D01*
X176706666Y-105315000D01*
X176646190Y-105375476D01*
X176525238Y-105556904D01*
X176464761Y-105798809D01*
X176464761Y-106282619D01*
X176525238Y-106403571D01*
X176585714Y-106464047D01*
X176706666Y-106524523D01*
X176948571Y-106524523D01*
X177069523Y-106464047D01*
X177130000Y-106403571D01*
X177190476Y-106282619D01*
X177190476Y-105980238D01*
X177130000Y-105859285D01*
X177069523Y-105798809D01*
X176948571Y-105738333D01*
X176706666Y-105738333D01*
X176585714Y-105798809D01*
X176525238Y-105859285D01*
X176464761Y-105980238D01*
X177734761Y-106040714D02*
X178702380Y-106040714D01*
X179972380Y-106524523D02*
X179246666Y-106524523D01*
X179609523Y-106524523D02*
X179609523Y-105254523D01*
X179488571Y-105435952D01*
X179367619Y-105556904D01*
X179246666Y-105617380D01*
D18*
X166230952Y-131702380D02*
X165754761Y-131702380D01*
X165754761Y-130702380D01*
X166516666Y-130797619D02*
X166564285Y-130750000D01*
X166659523Y-130702380D01*
X166897619Y-130702380D01*
X166992857Y-130750000D01*
X167040476Y-130797619D01*
X167088095Y-130892857D01*
X167088095Y-130988095D01*
X167040476Y-131130952D01*
X166469047Y-131702380D01*
X167088095Y-131702380D01*
X167707142Y-130702380D02*
X167802380Y-130702380D01*
X167897619Y-130750000D01*
X167945238Y-130797619D01*
X167992857Y-130892857D01*
X168040476Y-131083333D01*
X168040476Y-131321428D01*
X167992857Y-131511904D01*
X167945238Y-131607142D01*
X167897619Y-131654761D01*
X167802380Y-131702380D01*
X167707142Y-131702380D01*
X167611904Y-131654761D01*
X167564285Y-131607142D01*
X167516666Y-131511904D01*
X167469047Y-131321428D01*
X167469047Y-131083333D01*
X167516666Y-130892857D01*
X167564285Y-130797619D01*
X167611904Y-130750000D01*
X167707142Y-130702380D01*
X168992857Y-131702380D02*
X168421428Y-131702380D01*
X168707142Y-131702380D02*
X168707142Y-130702380D01*
X168611904Y-130845238D01*
X168516666Y-130940476D01*
X168421428Y-130988095D01*
D20*
X192725980Y-122467695D02*
X192725980Y-121654895D01*
X192919504Y-121654895D01*
X193035619Y-121693600D01*
X193113028Y-121771009D01*
X193151733Y-121848419D01*
X193190438Y-122003238D01*
X193190438Y-122119352D01*
X193151733Y-122274171D01*
X193113028Y-122351580D01*
X193035619Y-122428990D01*
X192919504Y-122467695D01*
X192725980Y-122467695D01*
X193500076Y-121732304D02*
X193538780Y-121693600D01*
X193616190Y-121654895D01*
X193809714Y-121654895D01*
X193887123Y-121693600D01*
X193925828Y-121732304D01*
X193964533Y-121809714D01*
X193964533Y-121887123D01*
X193925828Y-122003238D01*
X193461371Y-122467695D01*
X193964533Y-122467695D01*
X194467695Y-121654895D02*
X194545104Y-121654895D01*
X194622514Y-121693600D01*
X194661219Y-121732304D01*
X194699923Y-121809714D01*
X194738628Y-121964533D01*
X194738628Y-122158057D01*
X194699923Y-122312876D01*
X194661219Y-122390285D01*
X194622514Y-122428990D01*
X194545104Y-122467695D01*
X194467695Y-122467695D01*
X194390285Y-122428990D01*
X194351580Y-122390285D01*
X194312876Y-122312876D01*
X194274171Y-122158057D01*
X194274171Y-121964533D01*
X194312876Y-121809714D01*
X194351580Y-121732304D01*
X194390285Y-121693600D01*
X194467695Y-121654895D01*
X195009561Y-121654895D02*
X195512723Y-121654895D01*
X195241790Y-121964533D01*
X195357904Y-121964533D01*
X195435314Y-122003238D01*
X195474019Y-122041942D01*
X195512723Y-122119352D01*
X195512723Y-122312876D01*
X195474019Y-122390285D01*
X195435314Y-122428990D01*
X195357904Y-122467695D01*
X195125676Y-122467695D01*
X195048266Y-122428990D01*
X195009561Y-122390285D01*
X176225980Y-130817695D02*
X176225980Y-130004895D01*
X176419504Y-130004895D01*
X176535619Y-130043600D01*
X176613028Y-130121009D01*
X176651733Y-130198419D01*
X176690438Y-130353238D01*
X176690438Y-130469352D01*
X176651733Y-130624171D01*
X176613028Y-130701580D01*
X176535619Y-130778990D01*
X176419504Y-130817695D01*
X176225980Y-130817695D01*
X177000076Y-130082304D02*
X177038780Y-130043600D01*
X177116190Y-130004895D01*
X177309714Y-130004895D01*
X177387123Y-130043600D01*
X177425828Y-130082304D01*
X177464533Y-130159714D01*
X177464533Y-130237123D01*
X177425828Y-130353238D01*
X176961371Y-130817695D01*
X177464533Y-130817695D01*
X177967695Y-130004895D02*
X178045104Y-130004895D01*
X178122514Y-130043600D01*
X178161219Y-130082304D01*
X178199923Y-130159714D01*
X178238628Y-130314533D01*
X178238628Y-130508057D01*
X178199923Y-130662876D01*
X178161219Y-130740285D01*
X178122514Y-130778990D01*
X178045104Y-130817695D01*
X177967695Y-130817695D01*
X177890285Y-130778990D01*
X177851580Y-130740285D01*
X177812876Y-130662876D01*
X177774171Y-130508057D01*
X177774171Y-130314533D01*
X177812876Y-130159714D01*
X177851580Y-130082304D01*
X177890285Y-130043600D01*
X177967695Y-130004895D01*
X178935314Y-130275828D02*
X178935314Y-130817695D01*
X178741790Y-129966190D02*
X178548266Y-130546761D01*
X179051428Y-130546761D01*
D18*
X181280952Y-54957142D02*
X181233333Y-55004761D01*
X181090476Y-55052380D01*
X180995238Y-55052380D01*
X180852380Y-55004761D01*
X180757142Y-54909523D01*
X180709523Y-54814285D01*
X180661904Y-54623809D01*
X180661904Y-54480952D01*
X180709523Y-54290476D01*
X180757142Y-54195238D01*
X180852380Y-54100000D01*
X180995238Y-54052380D01*
X181090476Y-54052380D01*
X181233333Y-54100000D01*
X181280952Y-54147619D01*
X181709523Y-55052380D02*
X181709523Y-54052380D01*
X182090476Y-54052380D01*
X182185714Y-54100000D01*
X182233333Y-54147619D01*
X182280952Y-54242857D01*
X182280952Y-54385714D01*
X182233333Y-54480952D01*
X182185714Y-54528571D01*
X182090476Y-54576190D01*
X181709523Y-54576190D01*
X183138095Y-54385714D02*
X183138095Y-55052380D01*
X182900000Y-54004761D02*
X182661904Y-54719047D01*
X183280952Y-54719047D01*
X183852380Y-54052380D02*
X183947619Y-54052380D01*
X184042857Y-54100000D01*
X184090476Y-54147619D01*
X184138095Y-54242857D01*
X184185714Y-54433333D01*
X184185714Y-54671428D01*
X184138095Y-54861904D01*
X184090476Y-54957142D01*
X184042857Y-55004761D01*
X183947619Y-55052380D01*
X183852380Y-55052380D01*
X183757142Y-55004761D01*
X183709523Y-54957142D01*
X183661904Y-54861904D01*
X183614285Y-54671428D01*
X183614285Y-54433333D01*
X183661904Y-54242857D01*
X183709523Y-54147619D01*
X183757142Y-54100000D01*
X183852380Y-54052380D01*
X185138095Y-55052380D02*
X184566666Y-55052380D01*
X184852380Y-55052380D02*
X184852380Y-54052380D01*
X184757142Y-54195238D01*
X184661904Y-54290476D01*
X184566666Y-54338095D01*
D20*
X168800980Y-50992695D02*
X168800980Y-50179895D01*
X168994504Y-50179895D01*
X169110619Y-50218600D01*
X169188028Y-50296009D01*
X169226733Y-50373419D01*
X169265438Y-50528238D01*
X169265438Y-50644352D01*
X169226733Y-50799171D01*
X169188028Y-50876580D01*
X169110619Y-50953990D01*
X168994504Y-50992695D01*
X168800980Y-50992695D01*
X170039533Y-50992695D02*
X169575076Y-50992695D01*
X169807304Y-50992695D02*
X169807304Y-50179895D01*
X169729895Y-50296009D01*
X169652485Y-50373419D01*
X169575076Y-50412123D01*
X170542695Y-50179895D02*
X170620104Y-50179895D01*
X170697514Y-50218600D01*
X170736219Y-50257304D01*
X170774923Y-50334714D01*
X170813628Y-50489533D01*
X170813628Y-50683057D01*
X170774923Y-50837876D01*
X170736219Y-50915285D01*
X170697514Y-50953990D01*
X170620104Y-50992695D01*
X170542695Y-50992695D01*
X170465285Y-50953990D01*
X170426580Y-50915285D01*
X170387876Y-50837876D01*
X170349171Y-50683057D01*
X170349171Y-50489533D01*
X170387876Y-50334714D01*
X170426580Y-50257304D01*
X170465285Y-50218600D01*
X170542695Y-50179895D01*
X171587723Y-50992695D02*
X171123266Y-50992695D01*
X171355495Y-50992695D02*
X171355495Y-50179895D01*
X171278085Y-50296009D01*
X171200676Y-50373419D01*
X171123266Y-50412123D01*
X172675980Y-51117695D02*
X172675980Y-50304895D01*
X172869504Y-50304895D01*
X172985619Y-50343600D01*
X173063028Y-50421009D01*
X173101733Y-50498419D01*
X173140438Y-50653238D01*
X173140438Y-50769352D01*
X173101733Y-50924171D01*
X173063028Y-51001580D01*
X172985619Y-51078990D01*
X172869504Y-51117695D01*
X172675980Y-51117695D01*
X173914533Y-51117695D02*
X173450076Y-51117695D01*
X173682304Y-51117695D02*
X173682304Y-50304895D01*
X173604895Y-50421009D01*
X173527485Y-50498419D01*
X173450076Y-50537123D01*
X174417695Y-50304895D02*
X174495104Y-50304895D01*
X174572514Y-50343600D01*
X174611219Y-50382304D01*
X174649923Y-50459714D01*
X174688628Y-50614533D01*
X174688628Y-50808057D01*
X174649923Y-50962876D01*
X174611219Y-51040285D01*
X174572514Y-51078990D01*
X174495104Y-51117695D01*
X174417695Y-51117695D01*
X174340285Y-51078990D01*
X174301580Y-51040285D01*
X174262876Y-50962876D01*
X174224171Y-50808057D01*
X174224171Y-50614533D01*
X174262876Y-50459714D01*
X174301580Y-50382304D01*
X174340285Y-50343600D01*
X174417695Y-50304895D01*
X174998266Y-50382304D02*
X175036971Y-50343600D01*
X175114380Y-50304895D01*
X175307904Y-50304895D01*
X175385314Y-50343600D01*
X175424019Y-50382304D01*
X175462723Y-50459714D01*
X175462723Y-50537123D01*
X175424019Y-50653238D01*
X174959561Y-51117695D01*
X175462723Y-51117695D01*
X169465438Y-57342695D02*
X169194504Y-56955647D01*
X169000980Y-57342695D02*
X169000980Y-56529895D01*
X169310619Y-56529895D01*
X169388028Y-56568600D01*
X169426733Y-56607304D01*
X169465438Y-56684714D01*
X169465438Y-56800828D01*
X169426733Y-56878238D01*
X169388028Y-56916942D01*
X169310619Y-56955647D01*
X169000980Y-56955647D01*
X170239533Y-57342695D02*
X169775076Y-57342695D01*
X170007304Y-57342695D02*
X170007304Y-56529895D01*
X169929895Y-56646009D01*
X169852485Y-56723419D01*
X169775076Y-56762123D01*
X170742695Y-56529895D02*
X170820104Y-56529895D01*
X170897514Y-56568600D01*
X170936219Y-56607304D01*
X170974923Y-56684714D01*
X171013628Y-56839533D01*
X171013628Y-57033057D01*
X170974923Y-57187876D01*
X170936219Y-57265285D01*
X170897514Y-57303990D01*
X170820104Y-57342695D01*
X170742695Y-57342695D01*
X170665285Y-57303990D01*
X170626580Y-57265285D01*
X170587876Y-57187876D01*
X170549171Y-57033057D01*
X170549171Y-56839533D01*
X170587876Y-56684714D01*
X170626580Y-56607304D01*
X170665285Y-56568600D01*
X170742695Y-56529895D01*
X171787723Y-57342695D02*
X171323266Y-57342695D01*
X171555495Y-57342695D02*
X171555495Y-56529895D01*
X171478085Y-56646009D01*
X171400676Y-56723419D01*
X171323266Y-56762123D01*
X167525828Y-58717695D02*
X167061371Y-58717695D01*
X167293600Y-58717695D02*
X167293600Y-57904895D01*
X167216190Y-58021009D01*
X167138780Y-58098419D01*
X167061371Y-58137123D01*
X167874171Y-58717695D02*
X167874171Y-57904895D01*
X168338628Y-58717695D02*
X167990285Y-58253238D01*
X168338628Y-57904895D02*
X167874171Y-58369352D01*
X173065438Y-57267695D02*
X172794504Y-56880647D01*
X172600980Y-57267695D02*
X172600980Y-56454895D01*
X172910619Y-56454895D01*
X172988028Y-56493600D01*
X173026733Y-56532304D01*
X173065438Y-56609714D01*
X173065438Y-56725828D01*
X173026733Y-56803238D01*
X172988028Y-56841942D01*
X172910619Y-56880647D01*
X172600980Y-56880647D01*
X173839533Y-57267695D02*
X173375076Y-57267695D01*
X173607304Y-57267695D02*
X173607304Y-56454895D01*
X173529895Y-56571009D01*
X173452485Y-56648419D01*
X173375076Y-56687123D01*
X174342695Y-56454895D02*
X174420104Y-56454895D01*
X174497514Y-56493600D01*
X174536219Y-56532304D01*
X174574923Y-56609714D01*
X174613628Y-56764533D01*
X174613628Y-56958057D01*
X174574923Y-57112876D01*
X174536219Y-57190285D01*
X174497514Y-57228990D01*
X174420104Y-57267695D01*
X174342695Y-57267695D01*
X174265285Y-57228990D01*
X174226580Y-57190285D01*
X174187876Y-57112876D01*
X174149171Y-56958057D01*
X174149171Y-56764533D01*
X174187876Y-56609714D01*
X174226580Y-56532304D01*
X174265285Y-56493600D01*
X174342695Y-56454895D01*
X174923266Y-56532304D02*
X174961971Y-56493600D01*
X175039380Y-56454895D01*
X175232904Y-56454895D01*
X175310314Y-56493600D01*
X175349019Y-56532304D01*
X175387723Y-56609714D01*
X175387723Y-56687123D01*
X175349019Y-56803238D01*
X174884561Y-57267695D01*
X175387723Y-57267695D01*
X176075828Y-58667695D02*
X175611371Y-58667695D01*
X175843600Y-58667695D02*
X175843600Y-57854895D01*
X175766190Y-57971009D01*
X175688780Y-58048419D01*
X175611371Y-58087123D01*
X176424171Y-58667695D02*
X176424171Y-57854895D01*
X176888628Y-58667695D02*
X176540285Y-58203238D01*
X176888628Y-57854895D02*
X176424171Y-58319352D01*
X133856628Y-134054895D02*
X133856628Y-134712876D01*
X133895333Y-134790285D01*
X133934038Y-134828990D01*
X134011447Y-134867695D01*
X134166266Y-134867695D01*
X134243676Y-134828990D01*
X134282380Y-134790285D01*
X134321085Y-134712876D01*
X134321085Y-134054895D01*
X134630723Y-134054895D02*
X135133885Y-134054895D01*
X134862952Y-134364533D01*
X134979066Y-134364533D01*
X135056476Y-134403238D01*
X135095180Y-134441942D01*
X135133885Y-134519352D01*
X135133885Y-134712876D01*
X135095180Y-134790285D01*
X135056476Y-134828990D01*
X134979066Y-134867695D01*
X134746838Y-134867695D01*
X134669428Y-134828990D01*
X134630723Y-134790285D01*
X135637047Y-134054895D02*
X135714457Y-134054895D01*
X135791866Y-134093600D01*
X135830571Y-134132304D01*
X135869276Y-134209714D01*
X135907980Y-134364533D01*
X135907980Y-134558057D01*
X135869276Y-134712876D01*
X135830571Y-134790285D01*
X135791866Y-134828990D01*
X135714457Y-134867695D01*
X135637047Y-134867695D01*
X135559638Y-134828990D01*
X135520933Y-134790285D01*
X135482228Y-134712876D01*
X135443523Y-134558057D01*
X135443523Y-134364533D01*
X135482228Y-134209714D01*
X135520933Y-134132304D01*
X135559638Y-134093600D01*
X135637047Y-134054895D01*
X136682076Y-134867695D02*
X136217619Y-134867695D01*
X136449847Y-134867695D02*
X136449847Y-134054895D01*
X136372438Y-134171009D01*
X136295028Y-134248419D01*
X136217619Y-134287123D01*
X174261523Y-137254895D02*
X174532457Y-138067695D01*
X174803390Y-137254895D01*
X175538780Y-138067695D02*
X175267847Y-137680647D01*
X175074323Y-138067695D02*
X175074323Y-137254895D01*
X175383961Y-137254895D01*
X175461371Y-137293600D01*
X175500076Y-137332304D01*
X175538780Y-137409714D01*
X175538780Y-137525828D01*
X175500076Y-137603238D01*
X175461371Y-137641942D01*
X175383961Y-137680647D01*
X175074323Y-137680647D01*
X175848419Y-137332304D02*
X175887123Y-137293600D01*
X175964533Y-137254895D01*
X176158057Y-137254895D01*
X176235466Y-137293600D01*
X176274171Y-137332304D01*
X176312876Y-137409714D01*
X176312876Y-137487123D01*
X176274171Y-137603238D01*
X175809714Y-138067695D01*
X176312876Y-138067695D01*
X176816038Y-137254895D02*
X176893447Y-137254895D01*
X176970857Y-137293600D01*
X177009561Y-137332304D01*
X177048266Y-137409714D01*
X177086971Y-137564533D01*
X177086971Y-137758057D01*
X177048266Y-137912876D01*
X177009561Y-137990285D01*
X176970857Y-138028990D01*
X176893447Y-138067695D01*
X176816038Y-138067695D01*
X176738628Y-138028990D01*
X176699923Y-137990285D01*
X176661219Y-137912876D01*
X176622514Y-137758057D01*
X176622514Y-137564533D01*
X176661219Y-137409714D01*
X176699923Y-137332304D01*
X176738628Y-137293600D01*
X176816038Y-137254895D01*
X177861066Y-138067695D02*
X177396609Y-138067695D01*
X177628838Y-138067695D02*
X177628838Y-137254895D01*
X177551428Y-137371009D01*
X177474019Y-137448419D01*
X177396609Y-137487123D01*
X189840438Y-136340285D02*
X189801733Y-136378990D01*
X189685619Y-136417695D01*
X189608209Y-136417695D01*
X189492095Y-136378990D01*
X189414685Y-136301580D01*
X189375980Y-136224171D01*
X189337276Y-136069352D01*
X189337276Y-135953238D01*
X189375980Y-135798419D01*
X189414685Y-135721009D01*
X189492095Y-135643600D01*
X189608209Y-135604895D01*
X189685619Y-135604895D01*
X189801733Y-135643600D01*
X189840438Y-135682304D01*
X190150076Y-135682304D02*
X190188780Y-135643600D01*
X190266190Y-135604895D01*
X190459714Y-135604895D01*
X190537123Y-135643600D01*
X190575828Y-135682304D01*
X190614533Y-135759714D01*
X190614533Y-135837123D01*
X190575828Y-135953238D01*
X190111371Y-136417695D01*
X190614533Y-136417695D01*
X191117695Y-135604895D02*
X191195104Y-135604895D01*
X191272514Y-135643600D01*
X191311219Y-135682304D01*
X191349923Y-135759714D01*
X191388628Y-135914533D01*
X191388628Y-136108057D01*
X191349923Y-136262876D01*
X191311219Y-136340285D01*
X191272514Y-136378990D01*
X191195104Y-136417695D01*
X191117695Y-136417695D01*
X191040285Y-136378990D01*
X191001580Y-136340285D01*
X190962876Y-136262876D01*
X190924171Y-136108057D01*
X190924171Y-135914533D01*
X190962876Y-135759714D01*
X191001580Y-135682304D01*
X191040285Y-135643600D01*
X191117695Y-135604895D01*
X191698266Y-135682304D02*
X191736971Y-135643600D01*
X191814380Y-135604895D01*
X192007904Y-135604895D01*
X192085314Y-135643600D01*
X192124019Y-135682304D01*
X192162723Y-135759714D01*
X192162723Y-135837123D01*
X192124019Y-135953238D01*
X191659561Y-136417695D01*
X192162723Y-136417695D01*
D18*
X171909523Y-112302380D02*
X171909523Y-111302380D01*
X172147619Y-111302380D01*
X172290476Y-111350000D01*
X172385714Y-111445238D01*
X172433333Y-111540476D01*
X172480952Y-111730952D01*
X172480952Y-111873809D01*
X172433333Y-112064285D01*
X172385714Y-112159523D01*
X172290476Y-112254761D01*
X172147619Y-112302380D01*
X171909523Y-112302380D01*
X172861904Y-111397619D02*
X172909523Y-111350000D01*
X173004761Y-111302380D01*
X173242857Y-111302380D01*
X173338095Y-111350000D01*
X173385714Y-111397619D01*
X173433333Y-111492857D01*
X173433333Y-111588095D01*
X173385714Y-111730952D01*
X172814285Y-112302380D01*
X173433333Y-112302380D01*
X174052380Y-111302380D02*
X174147619Y-111302380D01*
X174242857Y-111350000D01*
X174290476Y-111397619D01*
X174338095Y-111492857D01*
X174385714Y-111683333D01*
X174385714Y-111921428D01*
X174338095Y-112111904D01*
X174290476Y-112207142D01*
X174242857Y-112254761D01*
X174147619Y-112302380D01*
X174052380Y-112302380D01*
X173957142Y-112254761D01*
X173909523Y-112207142D01*
X173861904Y-112111904D01*
X173814285Y-111921428D01*
X173814285Y-111683333D01*
X173861904Y-111492857D01*
X173909523Y-111397619D01*
X173957142Y-111350000D01*
X174052380Y-111302380D01*
X175242857Y-111302380D02*
X175052380Y-111302380D01*
X174957142Y-111350000D01*
X174909523Y-111397619D01*
X174814285Y-111540476D01*
X174766666Y-111730952D01*
X174766666Y-112111904D01*
X174814285Y-112207142D01*
X174861904Y-112254761D01*
X174957142Y-112302380D01*
X175147619Y-112302380D01*
X175242857Y-112254761D01*
X175290476Y-112207142D01*
X175338095Y-112111904D01*
X175338095Y-111873809D01*
X175290476Y-111778571D01*
X175242857Y-111730952D01*
X175147619Y-111683333D01*
X174957142Y-111683333D01*
X174861904Y-111730952D01*
X174814285Y-111778571D01*
X174766666Y-111873809D01*
D20*
X144190438Y-63917695D02*
X143919504Y-63530647D01*
X143725980Y-63917695D02*
X143725980Y-63104895D01*
X144035619Y-63104895D01*
X144113028Y-63143600D01*
X144151733Y-63182304D01*
X144190438Y-63259714D01*
X144190438Y-63375828D01*
X144151733Y-63453238D01*
X144113028Y-63491942D01*
X144035619Y-63530647D01*
X143725980Y-63530647D01*
X144964533Y-63917695D02*
X144500076Y-63917695D01*
X144732304Y-63917695D02*
X144732304Y-63104895D01*
X144654895Y-63221009D01*
X144577485Y-63298419D01*
X144500076Y-63337123D01*
X145467695Y-63104895D02*
X145545104Y-63104895D01*
X145622514Y-63143600D01*
X145661219Y-63182304D01*
X145699923Y-63259714D01*
X145738628Y-63414533D01*
X145738628Y-63608057D01*
X145699923Y-63762876D01*
X145661219Y-63840285D01*
X145622514Y-63878990D01*
X145545104Y-63917695D01*
X145467695Y-63917695D01*
X145390285Y-63878990D01*
X145351580Y-63840285D01*
X145312876Y-63762876D01*
X145274171Y-63608057D01*
X145274171Y-63414533D01*
X145312876Y-63259714D01*
X145351580Y-63182304D01*
X145390285Y-63143600D01*
X145467695Y-63104895D01*
X146009561Y-63104895D02*
X146512723Y-63104895D01*
X146241790Y-63414533D01*
X146357904Y-63414533D01*
X146435314Y-63453238D01*
X146474019Y-63491942D01*
X146512723Y-63569352D01*
X146512723Y-63762876D01*
X146474019Y-63840285D01*
X146435314Y-63878990D01*
X146357904Y-63917695D01*
X146125676Y-63917695D01*
X146048266Y-63878990D01*
X146009561Y-63840285D01*
X145375828Y-65017695D02*
X144911371Y-65017695D01*
X145143600Y-65017695D02*
X145143600Y-64204895D01*
X145066190Y-64321009D01*
X144988780Y-64398419D01*
X144911371Y-64437123D01*
X145724171Y-65017695D02*
X145724171Y-64204895D01*
X146188628Y-65017695D02*
X145840285Y-64553238D01*
X146188628Y-64204895D02*
X145724171Y-64669352D01*
X180790438Y-57967695D02*
X180519504Y-57580647D01*
X180325980Y-57967695D02*
X180325980Y-57154895D01*
X180635619Y-57154895D01*
X180713028Y-57193600D01*
X180751733Y-57232304D01*
X180790438Y-57309714D01*
X180790438Y-57425828D01*
X180751733Y-57503238D01*
X180713028Y-57541942D01*
X180635619Y-57580647D01*
X180325980Y-57580647D01*
X181487123Y-57425828D02*
X181487123Y-57967695D01*
X181293600Y-57116190D02*
X181100076Y-57696761D01*
X181603238Y-57696761D01*
X182067695Y-57154895D02*
X182145104Y-57154895D01*
X182222514Y-57193600D01*
X182261219Y-57232304D01*
X182299923Y-57309714D01*
X182338628Y-57464533D01*
X182338628Y-57658057D01*
X182299923Y-57812876D01*
X182261219Y-57890285D01*
X182222514Y-57928990D01*
X182145104Y-57967695D01*
X182067695Y-57967695D01*
X181990285Y-57928990D01*
X181951580Y-57890285D01*
X181912876Y-57812876D01*
X181874171Y-57658057D01*
X181874171Y-57464533D01*
X181912876Y-57309714D01*
X181951580Y-57232304D01*
X181990285Y-57193600D01*
X182067695Y-57154895D01*
X183074019Y-57154895D02*
X182686971Y-57154895D01*
X182648266Y-57541942D01*
X182686971Y-57503238D01*
X182764380Y-57464533D01*
X182957904Y-57464533D01*
X183035314Y-57503238D01*
X183074019Y-57541942D01*
X183112723Y-57619352D01*
X183112723Y-57812876D01*
X183074019Y-57890285D01*
X183035314Y-57928990D01*
X182957904Y-57967695D01*
X182764380Y-57967695D01*
X182686971Y-57928990D01*
X182648266Y-57890285D01*
X180775828Y-59367695D02*
X180311371Y-59367695D01*
X180543600Y-59367695D02*
X180543600Y-58554895D01*
X180466190Y-58671009D01*
X180388780Y-58748419D01*
X180311371Y-58787123D01*
X181124171Y-59367695D02*
X181124171Y-58554895D01*
X181588628Y-59367695D02*
X181240285Y-58903238D01*
X181588628Y-58554895D02*
X181124171Y-59019352D01*
D18*
X185035714Y-93502380D02*
X185035714Y-94311904D01*
X185083333Y-94407142D01*
X185130952Y-94454761D01*
X185226190Y-94502380D01*
X185416666Y-94502380D01*
X185511904Y-94454761D01*
X185559523Y-94407142D01*
X185607142Y-94311904D01*
X185607142Y-93502380D01*
X186511904Y-93835714D02*
X186511904Y-94502380D01*
X186273809Y-93454761D02*
X186035714Y-94169047D01*
X186654761Y-94169047D01*
X187226190Y-93502380D02*
X187321428Y-93502380D01*
X187416666Y-93550000D01*
X187464285Y-93597619D01*
X187511904Y-93692857D01*
X187559523Y-93883333D01*
X187559523Y-94121428D01*
X187511904Y-94311904D01*
X187464285Y-94407142D01*
X187416666Y-94454761D01*
X187321428Y-94502380D01*
X187226190Y-94502380D01*
X187130952Y-94454761D01*
X187083333Y-94407142D01*
X187035714Y-94311904D01*
X186988095Y-94121428D01*
X186988095Y-93883333D01*
X187035714Y-93692857D01*
X187083333Y-93597619D01*
X187130952Y-93550000D01*
X187226190Y-93502380D01*
X188511904Y-94502380D02*
X187940476Y-94502380D01*
X188226190Y-94502380D02*
X188226190Y-93502380D01*
X188130952Y-93645238D01*
X188035714Y-93740476D01*
X187940476Y-93788095D01*
D20*
X164065438Y-50640285D02*
X164026733Y-50678990D01*
X163910619Y-50717695D01*
X163833209Y-50717695D01*
X163717095Y-50678990D01*
X163639685Y-50601580D01*
X163600980Y-50524171D01*
X163562276Y-50369352D01*
X163562276Y-50253238D01*
X163600980Y-50098419D01*
X163639685Y-50021009D01*
X163717095Y-49943600D01*
X163833209Y-49904895D01*
X163910619Y-49904895D01*
X164026733Y-49943600D01*
X164065438Y-49982304D01*
X164336371Y-49904895D02*
X164878238Y-49904895D01*
X164529895Y-50717695D01*
X165342695Y-49904895D02*
X165420104Y-49904895D01*
X165497514Y-49943600D01*
X165536219Y-49982304D01*
X165574923Y-50059714D01*
X165613628Y-50214533D01*
X165613628Y-50408057D01*
X165574923Y-50562876D01*
X165536219Y-50640285D01*
X165497514Y-50678990D01*
X165420104Y-50717695D01*
X165342695Y-50717695D01*
X165265285Y-50678990D01*
X165226580Y-50640285D01*
X165187876Y-50562876D01*
X165149171Y-50408057D01*
X165149171Y-50214533D01*
X165187876Y-50059714D01*
X165226580Y-49982304D01*
X165265285Y-49943600D01*
X165342695Y-49904895D01*
X166387723Y-50717695D02*
X165923266Y-50717695D01*
X166155495Y-50717695D02*
X166155495Y-49904895D01*
X166078085Y-50021009D01*
X166000676Y-50098419D01*
X165923266Y-50137123D01*
X160592695Y-61609561D02*
X160205647Y-61880495D01*
X160592695Y-62074019D02*
X159779895Y-62074019D01*
X159779895Y-61764380D01*
X159818600Y-61686971D01*
X159857304Y-61648266D01*
X159934714Y-61609561D01*
X160050828Y-61609561D01*
X160128238Y-61648266D01*
X160166942Y-61686971D01*
X160205647Y-61764380D01*
X160205647Y-62074019D01*
X160592695Y-60835466D02*
X160592695Y-61299923D01*
X160592695Y-61067695D02*
X159779895Y-61067695D01*
X159896009Y-61145104D01*
X159973419Y-61222514D01*
X160012123Y-61299923D01*
X159779895Y-60332304D02*
X159779895Y-60254895D01*
X159818600Y-60177485D01*
X159857304Y-60138780D01*
X159934714Y-60100076D01*
X160089533Y-60061371D01*
X160283057Y-60061371D01*
X160437876Y-60100076D01*
X160515285Y-60138780D01*
X160553990Y-60177485D01*
X160592695Y-60254895D01*
X160592695Y-60332304D01*
X160553990Y-60409714D01*
X160515285Y-60448419D01*
X160437876Y-60487123D01*
X160283057Y-60525828D01*
X160089533Y-60525828D01*
X159934714Y-60487123D01*
X159857304Y-60448419D01*
X159818600Y-60409714D01*
X159779895Y-60332304D01*
X160050828Y-59364685D02*
X160592695Y-59364685D01*
X159741190Y-59558209D02*
X160321761Y-59751733D01*
X160321761Y-59248571D01*
X160588780Y-55817695D02*
X160124323Y-55817695D01*
X160356552Y-55817695D02*
X160356552Y-55004895D01*
X160279142Y-55121009D01*
X160201733Y-55198419D01*
X160124323Y-55237123D01*
X161091942Y-55004895D02*
X161169352Y-55004895D01*
X161246761Y-55043600D01*
X161285466Y-55082304D01*
X161324171Y-55159714D01*
X161362876Y-55314533D01*
X161362876Y-55508057D01*
X161324171Y-55662876D01*
X161285466Y-55740285D01*
X161246761Y-55778990D01*
X161169352Y-55817695D01*
X161091942Y-55817695D01*
X161014533Y-55778990D01*
X160975828Y-55740285D01*
X160937123Y-55662876D01*
X160898419Y-55508057D01*
X160898419Y-55314533D01*
X160937123Y-55159714D01*
X160975828Y-55082304D01*
X161014533Y-55043600D01*
X161091942Y-55004895D01*
X161711219Y-55817695D02*
X161711219Y-55004895D01*
X162175676Y-55817695D02*
X161827333Y-55353238D01*
X162175676Y-55004895D02*
X161711219Y-55469352D01*
X164317695Y-61559561D02*
X163930647Y-61830495D01*
X164317695Y-62024019D02*
X163504895Y-62024019D01*
X163504895Y-61714380D01*
X163543600Y-61636971D01*
X163582304Y-61598266D01*
X163659714Y-61559561D01*
X163775828Y-61559561D01*
X163853238Y-61598266D01*
X163891942Y-61636971D01*
X163930647Y-61714380D01*
X163930647Y-62024019D01*
X164317695Y-60785466D02*
X164317695Y-61249923D01*
X164317695Y-61017695D02*
X163504895Y-61017695D01*
X163621009Y-61095104D01*
X163698419Y-61172514D01*
X163737123Y-61249923D01*
X163504895Y-60282304D02*
X163504895Y-60204895D01*
X163543600Y-60127485D01*
X163582304Y-60088780D01*
X163659714Y-60050076D01*
X163814533Y-60011371D01*
X164008057Y-60011371D01*
X164162876Y-60050076D01*
X164240285Y-60088780D01*
X164278990Y-60127485D01*
X164317695Y-60204895D01*
X164317695Y-60282304D01*
X164278990Y-60359714D01*
X164240285Y-60398419D01*
X164162876Y-60437123D01*
X164008057Y-60475828D01*
X163814533Y-60475828D01*
X163659714Y-60437123D01*
X163582304Y-60398419D01*
X163543600Y-60359714D01*
X163504895Y-60282304D01*
X163504895Y-59740438D02*
X163504895Y-59198571D01*
X164317695Y-59546914D01*
X163000828Y-55817695D02*
X162536371Y-55817695D01*
X162768600Y-55817695D02*
X162768600Y-55004895D01*
X162691190Y-55121009D01*
X162613780Y-55198419D01*
X162536371Y-55237123D01*
X163349171Y-55817695D02*
X163349171Y-55004895D01*
X163813628Y-55817695D02*
X163465285Y-55353238D01*
X163813628Y-55004895D02*
X163349171Y-55469352D01*
X145940438Y-52617695D02*
X145669504Y-52230647D01*
X145475980Y-52617695D02*
X145475980Y-51804895D01*
X145785619Y-51804895D01*
X145863028Y-51843600D01*
X145901733Y-51882304D01*
X145940438Y-51959714D01*
X145940438Y-52075828D01*
X145901733Y-52153238D01*
X145863028Y-52191942D01*
X145785619Y-52230647D01*
X145475980Y-52230647D01*
X146211371Y-51804895D02*
X146753238Y-51804895D01*
X146404895Y-52617695D01*
X147217695Y-51804895D02*
X147295104Y-51804895D01*
X147372514Y-51843600D01*
X147411219Y-51882304D01*
X147449923Y-51959714D01*
X147488628Y-52114533D01*
X147488628Y-52308057D01*
X147449923Y-52462876D01*
X147411219Y-52540285D01*
X147372514Y-52578990D01*
X147295104Y-52617695D01*
X147217695Y-52617695D01*
X147140285Y-52578990D01*
X147101580Y-52540285D01*
X147062876Y-52462876D01*
X147024171Y-52308057D01*
X147024171Y-52114533D01*
X147062876Y-51959714D01*
X147101580Y-51882304D01*
X147140285Y-51843600D01*
X147217695Y-51804895D01*
X148262723Y-52617695D02*
X147798266Y-52617695D01*
X148030495Y-52617695D02*
X148030495Y-51804895D01*
X147953085Y-51921009D01*
X147875676Y-51998419D01*
X147798266Y-52037123D01*
X147525828Y-54767695D02*
X147061371Y-54767695D01*
X147293600Y-54767695D02*
X147293600Y-53954895D01*
X147216190Y-54071009D01*
X147138780Y-54148419D01*
X147061371Y-54187123D01*
X147874171Y-54767695D02*
X147874171Y-53954895D01*
X148338628Y-54767695D02*
X147990285Y-54303238D01*
X148338628Y-53954895D02*
X147874171Y-54419352D01*
X164065438Y-53942695D02*
X163794504Y-53555647D01*
X163600980Y-53942695D02*
X163600980Y-53129895D01*
X163910619Y-53129895D01*
X163988028Y-53168600D01*
X164026733Y-53207304D01*
X164065438Y-53284714D01*
X164065438Y-53400828D01*
X164026733Y-53478238D01*
X163988028Y-53516942D01*
X163910619Y-53555647D01*
X163600980Y-53555647D01*
X164336371Y-53129895D02*
X164878238Y-53129895D01*
X164529895Y-53942695D01*
X165342695Y-53129895D02*
X165420104Y-53129895D01*
X165497514Y-53168600D01*
X165536219Y-53207304D01*
X165574923Y-53284714D01*
X165613628Y-53439533D01*
X165613628Y-53633057D01*
X165574923Y-53787876D01*
X165536219Y-53865285D01*
X165497514Y-53903990D01*
X165420104Y-53942695D01*
X165342695Y-53942695D01*
X165265285Y-53903990D01*
X165226580Y-53865285D01*
X165187876Y-53787876D01*
X165149171Y-53633057D01*
X165149171Y-53439533D01*
X165187876Y-53284714D01*
X165226580Y-53207304D01*
X165265285Y-53168600D01*
X165342695Y-53129895D01*
X165923266Y-53207304D02*
X165961971Y-53168600D01*
X166039380Y-53129895D01*
X166232904Y-53129895D01*
X166310314Y-53168600D01*
X166349019Y-53207304D01*
X166387723Y-53284714D01*
X166387723Y-53362123D01*
X166349019Y-53478238D01*
X165884561Y-53942695D01*
X166387723Y-53942695D01*
X164125828Y-54892695D02*
X163661371Y-54892695D01*
X163893600Y-54892695D02*
X163893600Y-54079895D01*
X163816190Y-54196009D01*
X163738780Y-54273419D01*
X163661371Y-54312123D01*
X164474171Y-54892695D02*
X164474171Y-54079895D01*
X164938628Y-54892695D02*
X164590285Y-54428238D01*
X164938628Y-54079895D02*
X164474171Y-54544352D01*
X145915438Y-50492695D02*
X145644504Y-50105647D01*
X145450980Y-50492695D02*
X145450980Y-49679895D01*
X145760619Y-49679895D01*
X145838028Y-49718600D01*
X145876733Y-49757304D01*
X145915438Y-49834714D01*
X145915438Y-49950828D01*
X145876733Y-50028238D01*
X145838028Y-50066942D01*
X145760619Y-50105647D01*
X145450980Y-50105647D01*
X146186371Y-49679895D02*
X146728238Y-49679895D01*
X146379895Y-50492695D01*
X147192695Y-49679895D02*
X147270104Y-49679895D01*
X147347514Y-49718600D01*
X147386219Y-49757304D01*
X147424923Y-49834714D01*
X147463628Y-49989533D01*
X147463628Y-50183057D01*
X147424923Y-50337876D01*
X147386219Y-50415285D01*
X147347514Y-50453990D01*
X147270104Y-50492695D01*
X147192695Y-50492695D01*
X147115285Y-50453990D01*
X147076580Y-50415285D01*
X147037876Y-50337876D01*
X146999171Y-50183057D01*
X146999171Y-49989533D01*
X147037876Y-49834714D01*
X147076580Y-49757304D01*
X147115285Y-49718600D01*
X147192695Y-49679895D01*
X147734561Y-49679895D02*
X148237723Y-49679895D01*
X147966790Y-49989533D01*
X148082904Y-49989533D01*
X148160314Y-50028238D01*
X148199019Y-50066942D01*
X148237723Y-50144352D01*
X148237723Y-50337876D01*
X148199019Y-50415285D01*
X148160314Y-50453990D01*
X148082904Y-50492695D01*
X147850676Y-50492695D01*
X147773266Y-50453990D01*
X147734561Y-50415285D01*
X146838780Y-51567695D02*
X146374323Y-51567695D01*
X146606552Y-51567695D02*
X146606552Y-50754895D01*
X146529142Y-50871009D01*
X146451733Y-50948419D01*
X146374323Y-50987123D01*
X147341942Y-50754895D02*
X147419352Y-50754895D01*
X147496761Y-50793600D01*
X147535466Y-50832304D01*
X147574171Y-50909714D01*
X147612876Y-51064533D01*
X147612876Y-51258057D01*
X147574171Y-51412876D01*
X147535466Y-51490285D01*
X147496761Y-51528990D01*
X147419352Y-51567695D01*
X147341942Y-51567695D01*
X147264533Y-51528990D01*
X147225828Y-51490285D01*
X147187123Y-51412876D01*
X147148419Y-51258057D01*
X147148419Y-51064533D01*
X147187123Y-50909714D01*
X147225828Y-50832304D01*
X147264533Y-50793600D01*
X147341942Y-50754895D01*
X147961219Y-51567695D02*
X147961219Y-50754895D01*
X148425676Y-51567695D02*
X148077333Y-51103238D01*
X148425676Y-50754895D02*
X147961219Y-51219352D01*
X164990438Y-51867695D02*
X164719504Y-51480647D01*
X164525980Y-51867695D02*
X164525980Y-51054895D01*
X164835619Y-51054895D01*
X164913028Y-51093600D01*
X164951733Y-51132304D01*
X164990438Y-51209714D01*
X164990438Y-51325828D01*
X164951733Y-51403238D01*
X164913028Y-51441942D01*
X164835619Y-51480647D01*
X164525980Y-51480647D01*
X165261371Y-51054895D02*
X165803238Y-51054895D01*
X165454895Y-51867695D01*
X166267695Y-51054895D02*
X166345104Y-51054895D01*
X166422514Y-51093600D01*
X166461219Y-51132304D01*
X166499923Y-51209714D01*
X166538628Y-51364533D01*
X166538628Y-51558057D01*
X166499923Y-51712876D01*
X166461219Y-51790285D01*
X166422514Y-51828990D01*
X166345104Y-51867695D01*
X166267695Y-51867695D01*
X166190285Y-51828990D01*
X166151580Y-51790285D01*
X166112876Y-51712876D01*
X166074171Y-51558057D01*
X166074171Y-51364533D01*
X166112876Y-51209714D01*
X166151580Y-51132304D01*
X166190285Y-51093600D01*
X166267695Y-51054895D01*
X167235314Y-51325828D02*
X167235314Y-51867695D01*
X167041790Y-51016190D02*
X166848266Y-51596761D01*
X167351428Y-51596761D01*
X164088780Y-52942695D02*
X163624323Y-52942695D01*
X163856552Y-52942695D02*
X163856552Y-52129895D01*
X163779142Y-52246009D01*
X163701733Y-52323419D01*
X163624323Y-52362123D01*
X164591942Y-52129895D02*
X164669352Y-52129895D01*
X164746761Y-52168600D01*
X164785466Y-52207304D01*
X164824171Y-52284714D01*
X164862876Y-52439533D01*
X164862876Y-52633057D01*
X164824171Y-52787876D01*
X164785466Y-52865285D01*
X164746761Y-52903990D01*
X164669352Y-52942695D01*
X164591942Y-52942695D01*
X164514533Y-52903990D01*
X164475828Y-52865285D01*
X164437123Y-52787876D01*
X164398419Y-52633057D01*
X164398419Y-52439533D01*
X164437123Y-52284714D01*
X164475828Y-52207304D01*
X164514533Y-52168600D01*
X164591942Y-52129895D01*
X165211219Y-52942695D02*
X165211219Y-52129895D01*
X165675676Y-52942695D02*
X165327333Y-52478238D01*
X165675676Y-52129895D02*
X165211219Y-52594352D01*
X148990438Y-59367695D02*
X148719504Y-58980647D01*
X148525980Y-59367695D02*
X148525980Y-58554895D01*
X148835619Y-58554895D01*
X148913028Y-58593600D01*
X148951733Y-58632304D01*
X148990438Y-58709714D01*
X148990438Y-58825828D01*
X148951733Y-58903238D01*
X148913028Y-58941942D01*
X148835619Y-58980647D01*
X148525980Y-58980647D01*
X149261371Y-58554895D02*
X149803238Y-58554895D01*
X149454895Y-59367695D01*
X150267695Y-58554895D02*
X150345104Y-58554895D01*
X150422514Y-58593600D01*
X150461219Y-58632304D01*
X150499923Y-58709714D01*
X150538628Y-58864533D01*
X150538628Y-59058057D01*
X150499923Y-59212876D01*
X150461219Y-59290285D01*
X150422514Y-59328990D01*
X150345104Y-59367695D01*
X150267695Y-59367695D01*
X150190285Y-59328990D01*
X150151580Y-59290285D01*
X150112876Y-59212876D01*
X150074171Y-59058057D01*
X150074171Y-58864533D01*
X150112876Y-58709714D01*
X150151580Y-58632304D01*
X150190285Y-58593600D01*
X150267695Y-58554895D01*
X151274019Y-58554895D02*
X150886971Y-58554895D01*
X150848266Y-58941942D01*
X150886971Y-58903238D01*
X150964380Y-58864533D01*
X151157904Y-58864533D01*
X151235314Y-58903238D01*
X151274019Y-58941942D01*
X151312723Y-59019352D01*
X151312723Y-59212876D01*
X151274019Y-59290285D01*
X151235314Y-59328990D01*
X151157904Y-59367695D01*
X150964380Y-59367695D01*
X150886971Y-59328990D01*
X150848266Y-59290285D01*
X150538780Y-60417695D02*
X150074323Y-60417695D01*
X150306552Y-60417695D02*
X150306552Y-59604895D01*
X150229142Y-59721009D01*
X150151733Y-59798419D01*
X150074323Y-59837123D01*
X151041942Y-59604895D02*
X151119352Y-59604895D01*
X151196761Y-59643600D01*
X151235466Y-59682304D01*
X151274171Y-59759714D01*
X151312876Y-59914533D01*
X151312876Y-60108057D01*
X151274171Y-60262876D01*
X151235466Y-60340285D01*
X151196761Y-60378990D01*
X151119352Y-60417695D01*
X151041942Y-60417695D01*
X150964533Y-60378990D01*
X150925828Y-60340285D01*
X150887123Y-60262876D01*
X150848419Y-60108057D01*
X150848419Y-59914533D01*
X150887123Y-59759714D01*
X150925828Y-59682304D01*
X150964533Y-59643600D01*
X151041942Y-59604895D01*
X151661219Y-60417695D02*
X151661219Y-59604895D01*
X152125676Y-60417695D02*
X151777333Y-59953238D01*
X152125676Y-59604895D02*
X151661219Y-60069352D01*
X160417695Y-58509561D02*
X160030647Y-58780495D01*
X160417695Y-58974019D02*
X159604895Y-58974019D01*
X159604895Y-58664380D01*
X159643600Y-58586971D01*
X159682304Y-58548266D01*
X159759714Y-58509561D01*
X159875828Y-58509561D01*
X159953238Y-58548266D01*
X159991942Y-58586971D01*
X160030647Y-58664380D01*
X160030647Y-58974019D01*
X159604895Y-58238628D02*
X159604895Y-57696761D01*
X160417695Y-58045104D01*
X159604895Y-57232304D02*
X159604895Y-57154895D01*
X159643600Y-57077485D01*
X159682304Y-57038780D01*
X159759714Y-57000076D01*
X159914533Y-56961371D01*
X160108057Y-56961371D01*
X160262876Y-57000076D01*
X160340285Y-57038780D01*
X160378990Y-57077485D01*
X160417695Y-57154895D01*
X160417695Y-57232304D01*
X160378990Y-57309714D01*
X160340285Y-57348419D01*
X160262876Y-57387123D01*
X160108057Y-57425828D01*
X159914533Y-57425828D01*
X159759714Y-57387123D01*
X159682304Y-57348419D01*
X159643600Y-57309714D01*
X159604895Y-57232304D01*
X159604895Y-56264685D02*
X159604895Y-56419504D01*
X159643600Y-56496914D01*
X159682304Y-56535619D01*
X159798419Y-56613028D01*
X159953238Y-56651733D01*
X160262876Y-56651733D01*
X160340285Y-56613028D01*
X160378990Y-56574323D01*
X160417695Y-56496914D01*
X160417695Y-56342095D01*
X160378990Y-56264685D01*
X160340285Y-56225980D01*
X160262876Y-56187276D01*
X160069352Y-56187276D01*
X159991942Y-56225980D01*
X159953238Y-56264685D01*
X159914533Y-56342095D01*
X159914533Y-56496914D01*
X159953238Y-56574323D01*
X159991942Y-56613028D01*
X160069352Y-56651733D01*
X149865438Y-56367695D02*
X149594504Y-55980647D01*
X149400980Y-56367695D02*
X149400980Y-55554895D01*
X149710619Y-55554895D01*
X149788028Y-55593600D01*
X149826733Y-55632304D01*
X149865438Y-55709714D01*
X149865438Y-55825828D01*
X149826733Y-55903238D01*
X149788028Y-55941942D01*
X149710619Y-55980647D01*
X149400980Y-55980647D01*
X150136371Y-55554895D02*
X150678238Y-55554895D01*
X150329895Y-56367695D01*
X151142695Y-55554895D02*
X151220104Y-55554895D01*
X151297514Y-55593600D01*
X151336219Y-55632304D01*
X151374923Y-55709714D01*
X151413628Y-55864533D01*
X151413628Y-56058057D01*
X151374923Y-56212876D01*
X151336219Y-56290285D01*
X151297514Y-56328990D01*
X151220104Y-56367695D01*
X151142695Y-56367695D01*
X151065285Y-56328990D01*
X151026580Y-56290285D01*
X150987876Y-56212876D01*
X150949171Y-56058057D01*
X150949171Y-55864533D01*
X150987876Y-55709714D01*
X151026580Y-55632304D01*
X151065285Y-55593600D01*
X151142695Y-55554895D01*
X151684561Y-55554895D02*
X152226428Y-55554895D01*
X151878085Y-56367695D01*
X150563780Y-57292695D02*
X150099323Y-57292695D01*
X150331552Y-57292695D02*
X150331552Y-56479895D01*
X150254142Y-56596009D01*
X150176733Y-56673419D01*
X150099323Y-56712123D01*
X150912123Y-57292695D02*
X150912123Y-56479895D01*
X151376580Y-57292695D02*
X151028238Y-56828238D01*
X151376580Y-56479895D02*
X150912123Y-56944352D01*
X152111971Y-56479895D02*
X151724923Y-56479895D01*
X151686219Y-56866942D01*
X151724923Y-56828238D01*
X151802333Y-56789533D01*
X151995857Y-56789533D01*
X152073266Y-56828238D01*
X152111971Y-56866942D01*
X152150676Y-56944352D01*
X152150676Y-57137876D01*
X152111971Y-57215285D01*
X152073266Y-57253990D01*
X151995857Y-57292695D01*
X151802333Y-57292695D01*
X151724923Y-57253990D01*
X151686219Y-57215285D01*
X156367695Y-58559561D02*
X155980647Y-58830495D01*
X156367695Y-59024019D02*
X155554895Y-59024019D01*
X155554895Y-58714380D01*
X155593600Y-58636971D01*
X155632304Y-58598266D01*
X155709714Y-58559561D01*
X155825828Y-58559561D01*
X155903238Y-58598266D01*
X155941942Y-58636971D01*
X155980647Y-58714380D01*
X155980647Y-59024019D01*
X155554895Y-58288628D02*
X155554895Y-57746761D01*
X156367695Y-58095104D01*
X155554895Y-57282304D02*
X155554895Y-57204895D01*
X155593600Y-57127485D01*
X155632304Y-57088780D01*
X155709714Y-57050076D01*
X155864533Y-57011371D01*
X156058057Y-57011371D01*
X156212876Y-57050076D01*
X156290285Y-57088780D01*
X156328990Y-57127485D01*
X156367695Y-57204895D01*
X156367695Y-57282304D01*
X156328990Y-57359714D01*
X156290285Y-57398419D01*
X156212876Y-57437123D01*
X156058057Y-57475828D01*
X155864533Y-57475828D01*
X155709714Y-57437123D01*
X155632304Y-57398419D01*
X155593600Y-57359714D01*
X155554895Y-57282304D01*
X155903238Y-56546914D02*
X155864533Y-56624323D01*
X155825828Y-56663028D01*
X155748419Y-56701733D01*
X155709714Y-56701733D01*
X155632304Y-56663028D01*
X155593600Y-56624323D01*
X155554895Y-56546914D01*
X155554895Y-56392095D01*
X155593600Y-56314685D01*
X155632304Y-56275980D01*
X155709714Y-56237276D01*
X155748419Y-56237276D01*
X155825828Y-56275980D01*
X155864533Y-56314685D01*
X155903238Y-56392095D01*
X155903238Y-56546914D01*
X155941942Y-56624323D01*
X155980647Y-56663028D01*
X156058057Y-56701733D01*
X156212876Y-56701733D01*
X156290285Y-56663028D01*
X156328990Y-56624323D01*
X156367695Y-56546914D01*
X156367695Y-56392095D01*
X156328990Y-56314685D01*
X156290285Y-56275980D01*
X156212876Y-56237276D01*
X156058057Y-56237276D01*
X155980647Y-56275980D01*
X155941942Y-56314685D01*
X155903238Y-56392095D01*
X154606628Y-51629895D02*
X154606628Y-52287876D01*
X154645333Y-52365285D01*
X154684038Y-52403990D01*
X154761447Y-52442695D01*
X154916266Y-52442695D01*
X154993676Y-52403990D01*
X155032380Y-52365285D01*
X155071085Y-52287876D01*
X155071085Y-51629895D01*
X155380723Y-51629895D02*
X155922590Y-51629895D01*
X155574247Y-52442695D01*
X156387047Y-51629895D02*
X156464457Y-51629895D01*
X156541866Y-51668600D01*
X156580571Y-51707304D01*
X156619276Y-51784714D01*
X156657980Y-51939533D01*
X156657980Y-52133057D01*
X156619276Y-52287876D01*
X156580571Y-52365285D01*
X156541866Y-52403990D01*
X156464457Y-52442695D01*
X156387047Y-52442695D01*
X156309638Y-52403990D01*
X156270933Y-52365285D01*
X156232228Y-52287876D01*
X156193523Y-52133057D01*
X156193523Y-51939533D01*
X156232228Y-51784714D01*
X156270933Y-51707304D01*
X156309638Y-51668600D01*
X156387047Y-51629895D01*
X157432076Y-52442695D02*
X156967619Y-52442695D01*
X157199847Y-52442695D02*
X157199847Y-51629895D01*
X157122438Y-51746009D01*
X157045028Y-51823419D01*
X156967619Y-51862123D01*
X187575980Y-78367695D02*
X187575980Y-77554895D01*
X187769504Y-77554895D01*
X187885619Y-77593600D01*
X187963028Y-77671009D01*
X188001733Y-77748419D01*
X188040438Y-77903238D01*
X188040438Y-78019352D01*
X188001733Y-78174171D01*
X187963028Y-78251580D01*
X187885619Y-78328990D01*
X187769504Y-78367695D01*
X187575980Y-78367695D01*
X188311371Y-77554895D02*
X188853238Y-77554895D01*
X188504895Y-78367695D01*
X189317695Y-77554895D02*
X189395104Y-77554895D01*
X189472514Y-77593600D01*
X189511219Y-77632304D01*
X189549923Y-77709714D01*
X189588628Y-77864533D01*
X189588628Y-78058057D01*
X189549923Y-78212876D01*
X189511219Y-78290285D01*
X189472514Y-78328990D01*
X189395104Y-78367695D01*
X189317695Y-78367695D01*
X189240285Y-78328990D01*
X189201580Y-78290285D01*
X189162876Y-78212876D01*
X189124171Y-78058057D01*
X189124171Y-77864533D01*
X189162876Y-77709714D01*
X189201580Y-77632304D01*
X189240285Y-77593600D01*
X189317695Y-77554895D01*
X190362723Y-78367695D02*
X189898266Y-78367695D01*
X190130495Y-78367695D02*
X190130495Y-77554895D01*
X190053085Y-77671009D01*
X189975676Y-77748419D01*
X189898266Y-77787123D01*
X182825980Y-78567695D02*
X182825980Y-77754895D01*
X183019504Y-77754895D01*
X183135619Y-77793600D01*
X183213028Y-77871009D01*
X183251733Y-77948419D01*
X183290438Y-78103238D01*
X183290438Y-78219352D01*
X183251733Y-78374171D01*
X183213028Y-78451580D01*
X183135619Y-78528990D01*
X183019504Y-78567695D01*
X182825980Y-78567695D01*
X183561371Y-77754895D02*
X184103238Y-77754895D01*
X183754895Y-78567695D01*
X184567695Y-77754895D02*
X184645104Y-77754895D01*
X184722514Y-77793600D01*
X184761219Y-77832304D01*
X184799923Y-77909714D01*
X184838628Y-78064533D01*
X184838628Y-78258057D01*
X184799923Y-78412876D01*
X184761219Y-78490285D01*
X184722514Y-78528990D01*
X184645104Y-78567695D01*
X184567695Y-78567695D01*
X184490285Y-78528990D01*
X184451580Y-78490285D01*
X184412876Y-78412876D01*
X184374171Y-78258057D01*
X184374171Y-78064533D01*
X184412876Y-77909714D01*
X184451580Y-77832304D01*
X184490285Y-77793600D01*
X184567695Y-77754895D01*
X185148266Y-77832304D02*
X185186971Y-77793600D01*
X185264380Y-77754895D01*
X185457904Y-77754895D01*
X185535314Y-77793600D01*
X185574019Y-77832304D01*
X185612723Y-77909714D01*
X185612723Y-77987123D01*
X185574019Y-78103238D01*
X185109561Y-78567695D01*
X185612723Y-78567695D01*
X138740438Y-120117695D02*
X138469504Y-119730647D01*
X138275980Y-120117695D02*
X138275980Y-119304895D01*
X138585619Y-119304895D01*
X138663028Y-119343600D01*
X138701733Y-119382304D01*
X138740438Y-119459714D01*
X138740438Y-119575828D01*
X138701733Y-119653238D01*
X138663028Y-119691942D01*
X138585619Y-119730647D01*
X138275980Y-119730647D01*
X139011371Y-119304895D02*
X139514533Y-119304895D01*
X139243600Y-119614533D01*
X139359714Y-119614533D01*
X139437123Y-119653238D01*
X139475828Y-119691942D01*
X139514533Y-119769352D01*
X139514533Y-119962876D01*
X139475828Y-120040285D01*
X139437123Y-120078990D01*
X139359714Y-120117695D01*
X139127485Y-120117695D01*
X139050076Y-120078990D01*
X139011371Y-120040285D01*
X140017695Y-119304895D02*
X140095104Y-119304895D01*
X140172514Y-119343600D01*
X140211219Y-119382304D01*
X140249923Y-119459714D01*
X140288628Y-119614533D01*
X140288628Y-119808057D01*
X140249923Y-119962876D01*
X140211219Y-120040285D01*
X140172514Y-120078990D01*
X140095104Y-120117695D01*
X140017695Y-120117695D01*
X139940285Y-120078990D01*
X139901580Y-120040285D01*
X139862876Y-119962876D01*
X139824171Y-119808057D01*
X139824171Y-119614533D01*
X139862876Y-119459714D01*
X139901580Y-119382304D01*
X139940285Y-119343600D01*
X140017695Y-119304895D01*
X141062723Y-120117695D02*
X140598266Y-120117695D01*
X140830495Y-120117695D02*
X140830495Y-119304895D01*
X140753085Y-119421009D01*
X140675676Y-119498419D01*
X140598266Y-119537123D01*
X138738780Y-121117695D02*
X138274323Y-121117695D01*
X138506552Y-121117695D02*
X138506552Y-120304895D01*
X138429142Y-120421009D01*
X138351733Y-120498419D01*
X138274323Y-120537123D01*
X139241942Y-120304895D02*
X139319352Y-120304895D01*
X139396761Y-120343600D01*
X139435466Y-120382304D01*
X139474171Y-120459714D01*
X139512876Y-120614533D01*
X139512876Y-120808057D01*
X139474171Y-120962876D01*
X139435466Y-121040285D01*
X139396761Y-121078990D01*
X139319352Y-121117695D01*
X139241942Y-121117695D01*
X139164533Y-121078990D01*
X139125828Y-121040285D01*
X139087123Y-120962876D01*
X139048419Y-120808057D01*
X139048419Y-120614533D01*
X139087123Y-120459714D01*
X139125828Y-120382304D01*
X139164533Y-120343600D01*
X139241942Y-120304895D01*
X139861219Y-121117695D02*
X139861219Y-120304895D01*
X140325676Y-121117695D02*
X139977333Y-120653238D01*
X140325676Y-120304895D02*
X139861219Y-120769352D01*
X130517695Y-122709561D02*
X130130647Y-122980495D01*
X130517695Y-123174019D02*
X129704895Y-123174019D01*
X129704895Y-122864380D01*
X129743600Y-122786971D01*
X129782304Y-122748266D01*
X129859714Y-122709561D01*
X129975828Y-122709561D01*
X130053238Y-122748266D01*
X130091942Y-122786971D01*
X130130647Y-122864380D01*
X130130647Y-123174019D01*
X129704895Y-122438628D02*
X129704895Y-121935466D01*
X130014533Y-122206400D01*
X130014533Y-122090285D01*
X130053238Y-122012876D01*
X130091942Y-121974171D01*
X130169352Y-121935466D01*
X130362876Y-121935466D01*
X130440285Y-121974171D01*
X130478990Y-122012876D01*
X130517695Y-122090285D01*
X130517695Y-122322514D01*
X130478990Y-122399923D01*
X130440285Y-122438628D01*
X129704895Y-121432304D02*
X129704895Y-121354895D01*
X129743600Y-121277485D01*
X129782304Y-121238780D01*
X129859714Y-121200076D01*
X130014533Y-121161371D01*
X130208057Y-121161371D01*
X130362876Y-121200076D01*
X130440285Y-121238780D01*
X130478990Y-121277485D01*
X130517695Y-121354895D01*
X130517695Y-121432304D01*
X130478990Y-121509714D01*
X130440285Y-121548419D01*
X130362876Y-121587123D01*
X130208057Y-121625828D01*
X130014533Y-121625828D01*
X129859714Y-121587123D01*
X129782304Y-121548419D01*
X129743600Y-121509714D01*
X129704895Y-121432304D01*
X129782304Y-120851733D02*
X129743600Y-120813028D01*
X129704895Y-120735619D01*
X129704895Y-120542095D01*
X129743600Y-120464685D01*
X129782304Y-120425980D01*
X129859714Y-120387276D01*
X129937123Y-120387276D01*
X130053238Y-120425980D01*
X130517695Y-120890438D01*
X130517695Y-120387276D01*
X130517695Y-125411219D02*
X130517695Y-125875676D01*
X130517695Y-125643447D02*
X129704895Y-125643447D01*
X129821009Y-125720857D01*
X129898419Y-125798266D01*
X129937123Y-125875676D01*
X129704895Y-124908057D02*
X129704895Y-124830647D01*
X129743600Y-124753238D01*
X129782304Y-124714533D01*
X129859714Y-124675828D01*
X130014533Y-124637123D01*
X130208057Y-124637123D01*
X130362876Y-124675828D01*
X130440285Y-124714533D01*
X130478990Y-124753238D01*
X130517695Y-124830647D01*
X130517695Y-124908057D01*
X130478990Y-124985466D01*
X130440285Y-125024171D01*
X130362876Y-125062876D01*
X130208057Y-125101580D01*
X130014533Y-125101580D01*
X129859714Y-125062876D01*
X129782304Y-125024171D01*
X129743600Y-124985466D01*
X129704895Y-124908057D01*
X130517695Y-124288780D02*
X129704895Y-124288780D01*
X130517695Y-123824323D02*
X130053238Y-124172666D01*
X129704895Y-123824323D02*
X130169352Y-124288780D01*
D18*
X169835714Y-92352380D02*
X169835714Y-93161904D01*
X169883333Y-93257142D01*
X169930952Y-93304761D01*
X170026190Y-93352380D01*
X170216666Y-93352380D01*
X170311904Y-93304761D01*
X170359523Y-93257142D01*
X170407142Y-93161904D01*
X170407142Y-92352380D01*
X171026190Y-92780952D02*
X170930952Y-92733333D01*
X170883333Y-92685714D01*
X170835714Y-92590476D01*
X170835714Y-92542857D01*
X170883333Y-92447619D01*
X170930952Y-92400000D01*
X171026190Y-92352380D01*
X171216666Y-92352380D01*
X171311904Y-92400000D01*
X171359523Y-92447619D01*
X171407142Y-92542857D01*
X171407142Y-92590476D01*
X171359523Y-92685714D01*
X171311904Y-92733333D01*
X171216666Y-92780952D01*
X171026190Y-92780952D01*
X170930952Y-92828571D01*
X170883333Y-92876190D01*
X170835714Y-92971428D01*
X170835714Y-93161904D01*
X170883333Y-93257142D01*
X170930952Y-93304761D01*
X171026190Y-93352380D01*
X171216666Y-93352380D01*
X171311904Y-93304761D01*
X171359523Y-93257142D01*
X171407142Y-93161904D01*
X171407142Y-92971428D01*
X171359523Y-92876190D01*
X171311904Y-92828571D01*
X171216666Y-92780952D01*
X172026190Y-92352380D02*
X172121428Y-92352380D01*
X172216666Y-92400000D01*
X172264285Y-92447619D01*
X172311904Y-92542857D01*
X172359523Y-92733333D01*
X172359523Y-92971428D01*
X172311904Y-93161904D01*
X172264285Y-93257142D01*
X172216666Y-93304761D01*
X172121428Y-93352380D01*
X172026190Y-93352380D01*
X171930952Y-93304761D01*
X171883333Y-93257142D01*
X171835714Y-93161904D01*
X171788095Y-92971428D01*
X171788095Y-92733333D01*
X171835714Y-92542857D01*
X171883333Y-92447619D01*
X171930952Y-92400000D01*
X172026190Y-92352380D01*
X173311904Y-93352380D02*
X172740476Y-93352380D01*
X173026190Y-93352380D02*
X173026190Y-92352380D01*
X172930952Y-92495238D01*
X172835714Y-92590476D01*
X172740476Y-92638095D01*
X177235714Y-92352380D02*
X177235714Y-93161904D01*
X177283333Y-93257142D01*
X177330952Y-93304761D01*
X177426190Y-93352380D01*
X177616666Y-93352380D01*
X177711904Y-93304761D01*
X177759523Y-93257142D01*
X177807142Y-93161904D01*
X177807142Y-92352380D01*
X178330952Y-93352380D02*
X178521428Y-93352380D01*
X178616666Y-93304761D01*
X178664285Y-93257142D01*
X178759523Y-93114285D01*
X178807142Y-92923809D01*
X178807142Y-92542857D01*
X178759523Y-92447619D01*
X178711904Y-92400000D01*
X178616666Y-92352380D01*
X178426190Y-92352380D01*
X178330952Y-92400000D01*
X178283333Y-92447619D01*
X178235714Y-92542857D01*
X178235714Y-92780952D01*
X178283333Y-92876190D01*
X178330952Y-92923809D01*
X178426190Y-92971428D01*
X178616666Y-92971428D01*
X178711904Y-92923809D01*
X178759523Y-92876190D01*
X178807142Y-92780952D01*
X179426190Y-92352380D02*
X179521428Y-92352380D01*
X179616666Y-92400000D01*
X179664285Y-92447619D01*
X179711904Y-92542857D01*
X179759523Y-92733333D01*
X179759523Y-92971428D01*
X179711904Y-93161904D01*
X179664285Y-93257142D01*
X179616666Y-93304761D01*
X179521428Y-93352380D01*
X179426190Y-93352380D01*
X179330952Y-93304761D01*
X179283333Y-93257142D01*
X179235714Y-93161904D01*
X179188095Y-92971428D01*
X179188095Y-92733333D01*
X179235714Y-92542857D01*
X179283333Y-92447619D01*
X179330952Y-92400000D01*
X179426190Y-92352380D01*
X180711904Y-93352380D02*
X180140476Y-93352380D01*
X180426190Y-93352380D02*
X180426190Y-92352380D01*
X180330952Y-92495238D01*
X180235714Y-92590476D01*
X180140476Y-92638095D01*
X154559523Y-92352380D02*
X154559523Y-93161904D01*
X154607142Y-93257142D01*
X154654761Y-93304761D01*
X154750000Y-93352380D01*
X154940476Y-93352380D01*
X155035714Y-93304761D01*
X155083333Y-93257142D01*
X155130952Y-93161904D01*
X155130952Y-92352380D01*
X156130952Y-93352380D02*
X155559523Y-93352380D01*
X155845238Y-93352380D02*
X155845238Y-92352380D01*
X155750000Y-92495238D01*
X155654761Y-92590476D01*
X155559523Y-92638095D01*
X156750000Y-92352380D02*
X156845238Y-92352380D01*
X156940476Y-92400000D01*
X156988095Y-92447619D01*
X157035714Y-92542857D01*
X157083333Y-92733333D01*
X157083333Y-92971428D01*
X157035714Y-93161904D01*
X156988095Y-93257142D01*
X156940476Y-93304761D01*
X156845238Y-93352380D01*
X156750000Y-93352380D01*
X156654761Y-93304761D01*
X156607142Y-93257142D01*
X156559523Y-93161904D01*
X156511904Y-92971428D01*
X156511904Y-92733333D01*
X156559523Y-92542857D01*
X156607142Y-92447619D01*
X156654761Y-92400000D01*
X156750000Y-92352380D01*
X157702380Y-92352380D02*
X157797619Y-92352380D01*
X157892857Y-92400000D01*
X157940476Y-92447619D01*
X157988095Y-92542857D01*
X158035714Y-92733333D01*
X158035714Y-92971428D01*
X157988095Y-93161904D01*
X157940476Y-93257142D01*
X157892857Y-93304761D01*
X157797619Y-93352380D01*
X157702380Y-93352380D01*
X157607142Y-93304761D01*
X157559523Y-93257142D01*
X157511904Y-93161904D01*
X157464285Y-92971428D01*
X157464285Y-92733333D01*
X157511904Y-92542857D01*
X157559523Y-92447619D01*
X157607142Y-92400000D01*
X157702380Y-92352380D01*
X158988095Y-93352380D02*
X158416666Y-93352380D01*
X158702380Y-93352380D02*
X158702380Y-92352380D01*
X158607142Y-92495238D01*
X158511904Y-92590476D01*
X158416666Y-92638095D01*
X161959523Y-92352380D02*
X161959523Y-93161904D01*
X162007142Y-93257142D01*
X162054761Y-93304761D01*
X162150000Y-93352380D01*
X162340476Y-93352380D01*
X162435714Y-93304761D01*
X162483333Y-93257142D01*
X162530952Y-93161904D01*
X162530952Y-92352380D01*
X163530952Y-93352380D02*
X162959523Y-93352380D01*
X163245238Y-93352380D02*
X163245238Y-92352380D01*
X163150000Y-92495238D01*
X163054761Y-92590476D01*
X162959523Y-92638095D01*
X164483333Y-93352380D02*
X163911904Y-93352380D01*
X164197619Y-93352380D02*
X164197619Y-92352380D01*
X164102380Y-92495238D01*
X164007142Y-92590476D01*
X163911904Y-92638095D01*
X165102380Y-92352380D02*
X165197619Y-92352380D01*
X165292857Y-92400000D01*
X165340476Y-92447619D01*
X165388095Y-92542857D01*
X165435714Y-92733333D01*
X165435714Y-92971428D01*
X165388095Y-93161904D01*
X165340476Y-93257142D01*
X165292857Y-93304761D01*
X165197619Y-93352380D01*
X165102380Y-93352380D01*
X165007142Y-93304761D01*
X164959523Y-93257142D01*
X164911904Y-93161904D01*
X164864285Y-92971428D01*
X164864285Y-92733333D01*
X164911904Y-92542857D01*
X164959523Y-92447619D01*
X165007142Y-92400000D01*
X165102380Y-92352380D01*
X166388095Y-93352380D02*
X165816666Y-93352380D01*
X166102380Y-93352380D02*
X166102380Y-92352380D01*
X166007142Y-92495238D01*
X165911904Y-92590476D01*
X165816666Y-92638095D01*
X191509523Y-92252380D02*
X191509523Y-93061904D01*
X191557142Y-93157142D01*
X191604761Y-93204761D01*
X191700000Y-93252380D01*
X191890476Y-93252380D01*
X191985714Y-93204761D01*
X192033333Y-93157142D01*
X192080952Y-93061904D01*
X192080952Y-92252380D01*
X193080952Y-93252380D02*
X192509523Y-93252380D01*
X192795238Y-93252380D02*
X192795238Y-92252380D01*
X192700000Y-92395238D01*
X192604761Y-92490476D01*
X192509523Y-92538095D01*
X193461904Y-92347619D02*
X193509523Y-92300000D01*
X193604761Y-92252380D01*
X193842857Y-92252380D01*
X193938095Y-92300000D01*
X193985714Y-92347619D01*
X194033333Y-92442857D01*
X194033333Y-92538095D01*
X193985714Y-92680952D01*
X193414285Y-93252380D01*
X194033333Y-93252380D01*
X194652380Y-92252380D02*
X194747619Y-92252380D01*
X194842857Y-92300000D01*
X194890476Y-92347619D01*
X194938095Y-92442857D01*
X194985714Y-92633333D01*
X194985714Y-92871428D01*
X194938095Y-93061904D01*
X194890476Y-93157142D01*
X194842857Y-93204761D01*
X194747619Y-93252380D01*
X194652380Y-93252380D01*
X194557142Y-93204761D01*
X194509523Y-93157142D01*
X194461904Y-93061904D01*
X194414285Y-92871428D01*
X194414285Y-92633333D01*
X194461904Y-92442857D01*
X194509523Y-92347619D01*
X194557142Y-92300000D01*
X194652380Y-92252380D01*
X195938095Y-93252380D02*
X195366666Y-93252380D01*
X195652380Y-93252380D02*
X195652380Y-92252380D01*
X195557142Y-92395238D01*
X195461904Y-92490476D01*
X195366666Y-92538095D01*
X139759523Y-92352380D02*
X139759523Y-93161904D01*
X139807142Y-93257142D01*
X139854761Y-93304761D01*
X139950000Y-93352380D01*
X140140476Y-93352380D01*
X140235714Y-93304761D01*
X140283333Y-93257142D01*
X140330952Y-93161904D01*
X140330952Y-92352380D01*
X141330952Y-93352380D02*
X140759523Y-93352380D01*
X141045238Y-93352380D02*
X141045238Y-92352380D01*
X140950000Y-92495238D01*
X140854761Y-92590476D01*
X140759523Y-92638095D01*
X142283333Y-93352380D02*
X141711904Y-93352380D01*
X141997619Y-93352380D02*
X141997619Y-92352380D01*
X141902380Y-92495238D01*
X141807142Y-92590476D01*
X141711904Y-92638095D01*
X142902380Y-92352380D02*
X142997619Y-92352380D01*
X143092857Y-92400000D01*
X143140476Y-92447619D01*
X143188095Y-92542857D01*
X143235714Y-92733333D01*
X143235714Y-92971428D01*
X143188095Y-93161904D01*
X143140476Y-93257142D01*
X143092857Y-93304761D01*
X142997619Y-93352380D01*
X142902380Y-93352380D01*
X142807142Y-93304761D01*
X142759523Y-93257142D01*
X142711904Y-93161904D01*
X142664285Y-92971428D01*
X142664285Y-92733333D01*
X142711904Y-92542857D01*
X142759523Y-92447619D01*
X142807142Y-92400000D01*
X142902380Y-92352380D01*
X143616666Y-92447619D02*
X143664285Y-92400000D01*
X143759523Y-92352380D01*
X143997619Y-92352380D01*
X144092857Y-92400000D01*
X144140476Y-92447619D01*
X144188095Y-92542857D01*
X144188095Y-92638095D01*
X144140476Y-92780952D01*
X143569047Y-93352380D01*
X144188095Y-93352380D01*
X147159523Y-92352380D02*
X147159523Y-93161904D01*
X147207142Y-93257142D01*
X147254761Y-93304761D01*
X147350000Y-93352380D01*
X147540476Y-93352380D01*
X147635714Y-93304761D01*
X147683333Y-93257142D01*
X147730952Y-93161904D01*
X147730952Y-92352380D01*
X148730952Y-93352380D02*
X148159523Y-93352380D01*
X148445238Y-93352380D02*
X148445238Y-92352380D01*
X148350000Y-92495238D01*
X148254761Y-92590476D01*
X148159523Y-92638095D01*
X149683333Y-93352380D02*
X149111904Y-93352380D01*
X149397619Y-93352380D02*
X149397619Y-92352380D01*
X149302380Y-92495238D01*
X149207142Y-92590476D01*
X149111904Y-92638095D01*
X150302380Y-92352380D02*
X150397619Y-92352380D01*
X150492857Y-92400000D01*
X150540476Y-92447619D01*
X150588095Y-92542857D01*
X150635714Y-92733333D01*
X150635714Y-92971428D01*
X150588095Y-93161904D01*
X150540476Y-93257142D01*
X150492857Y-93304761D01*
X150397619Y-93352380D01*
X150302380Y-93352380D01*
X150207142Y-93304761D01*
X150159523Y-93257142D01*
X150111904Y-93161904D01*
X150064285Y-92971428D01*
X150064285Y-92733333D01*
X150111904Y-92542857D01*
X150159523Y-92447619D01*
X150207142Y-92400000D01*
X150302380Y-92352380D01*
X150969047Y-92352380D02*
X151588095Y-92352380D01*
X151254761Y-92733333D01*
X151397619Y-92733333D01*
X151492857Y-92780952D01*
X151540476Y-92828571D01*
X151588095Y-92923809D01*
X151588095Y-93161904D01*
X151540476Y-93257142D01*
X151492857Y-93304761D01*
X151397619Y-93352380D01*
X151111904Y-93352380D01*
X151016666Y-93304761D01*
X150969047Y-93257142D01*
X199059523Y-92302380D02*
X199059523Y-93111904D01*
X199107142Y-93207142D01*
X199154761Y-93254761D01*
X199250000Y-93302380D01*
X199440476Y-93302380D01*
X199535714Y-93254761D01*
X199583333Y-93207142D01*
X199630952Y-93111904D01*
X199630952Y-92302380D01*
X200630952Y-93302380D02*
X200059523Y-93302380D01*
X200345238Y-93302380D02*
X200345238Y-92302380D01*
X200250000Y-92445238D01*
X200154761Y-92540476D01*
X200059523Y-92588095D01*
X201011904Y-92397619D02*
X201059523Y-92350000D01*
X201154761Y-92302380D01*
X201392857Y-92302380D01*
X201488095Y-92350000D01*
X201535714Y-92397619D01*
X201583333Y-92492857D01*
X201583333Y-92588095D01*
X201535714Y-92730952D01*
X200964285Y-93302380D01*
X201583333Y-93302380D01*
X202202380Y-92302380D02*
X202297619Y-92302380D01*
X202392857Y-92350000D01*
X202440476Y-92397619D01*
X202488095Y-92492857D01*
X202535714Y-92683333D01*
X202535714Y-92921428D01*
X202488095Y-93111904D01*
X202440476Y-93207142D01*
X202392857Y-93254761D01*
X202297619Y-93302380D01*
X202202380Y-93302380D01*
X202107142Y-93254761D01*
X202059523Y-93207142D01*
X202011904Y-93111904D01*
X201964285Y-92921428D01*
X201964285Y-92683333D01*
X202011904Y-92492857D01*
X202059523Y-92397619D01*
X202107142Y-92350000D01*
X202202380Y-92302380D01*
X202916666Y-92397619D02*
X202964285Y-92350000D01*
X203059523Y-92302380D01*
X203297619Y-92302380D01*
X203392857Y-92350000D01*
X203440476Y-92397619D01*
X203488095Y-92492857D01*
X203488095Y-92588095D01*
X203440476Y-92730952D01*
X202869047Y-93302380D01*
X203488095Y-93302380D01*
M02*
