G04 #@! TF.GenerationSoftware,KiCad,Pcbnew,(2017-01-11 revision e99b79c)-master*
G04 #@! TF.CreationDate,2017-07-03T16:39:02+03:00*
G04 #@! TF.ProjectId,esb,6573622E6B696361645F706362000000,rev?*
G04 #@! TF.FileFunction,Soldermask,Top*
G04 #@! TF.FilePolarity,Negative*
%FSLAX46Y46*%
G04 Gerber Fmt 4.6, Leading zero omitted, Abs format (unit mm)*
G04 Created by KiCad (PCBNEW (2017-01-11 revision e99b79c)-master) date Mon Jul  3 16:39:02 2017*
%MOMM*%
%LPD*%
G01*
G04 APERTURE LIST*
%ADD10C,0.100000*%
%ADD11R,0.500000X1.200000*%
%ADD12R,0.700000X0.600000*%
%ADD13R,0.800000X0.500000*%
%ADD14R,0.762000X0.939800*%
%ADD15R,0.650000X1.200000*%
%ADD16R,2.300000X5.000000*%
%ADD17R,2.700000X1.800000*%
%ADD18R,2.000000X3.600000*%
%ADD19R,1.297940X1.399540*%
%ADD20R,0.939800X0.762000*%
%ADD21O,1.524000X0.635000*%
%ADD22R,1.524000X0.635000*%
%ADD23R,0.398780X1.498600*%
%ADD24R,0.279400X1.498600*%
%ADD25R,1.498600X0.398780*%
%ADD26R,1.498600X0.279400*%
%ADD27R,2.623820X2.623820*%
%ADD28C,2.623820*%
%ADD29C,2.999740*%
%ADD30R,1.800000X2.700000*%
%ADD31R,0.998220X1.899920*%
%ADD32R,0.647700X1.049020*%
%ADD33R,1.699260X2.397760*%
%ADD34R,1.200000X0.500000*%
%ADD35R,1.524000X0.762000*%
%ADD36R,1.900000X2.179320*%
%ADD37R,3.700000X2.700000*%
%ADD38R,1.600000X1.000000*%
%ADD39R,1.800000X0.762000*%
%ADD40R,0.650000X1.400000*%
%ADD41R,2.100000X5.000000*%
%ADD42R,0.635000X1.905000*%
G04 APERTURE END LIST*
D10*
D11*
X137850000Y-102000000D03*
X139750000Y-102000000D03*
X139750000Y-104800000D03*
X138800000Y-104800000D03*
X137850000Y-104800000D03*
D12*
X193800000Y-89900000D03*
X192200000Y-89900000D03*
X193800000Y-90700000D03*
X192200000Y-90700000D03*
X193800000Y-91500000D03*
X192200000Y-91500000D03*
X193800000Y-92300000D03*
X192200000Y-92300000D03*
D13*
X152700000Y-54350000D03*
X152700000Y-52450000D03*
X155100000Y-52450000D03*
X155100000Y-53400000D03*
X155100000Y-54350000D03*
D14*
X156161800Y-137000000D03*
X157838200Y-137000000D03*
X161838200Y-137000000D03*
X160161800Y-137000000D03*
D15*
X151905000Y-91675000D03*
X150635000Y-91675000D03*
X149365000Y-91675000D03*
X148095000Y-91675000D03*
D16*
X151350000Y-95425000D03*
X148650000Y-95425000D03*
D14*
X157838200Y-135000000D03*
X156161800Y-135000000D03*
X161838200Y-135000000D03*
X160161800Y-135000000D03*
D17*
X134000000Y-135100000D03*
X134000000Y-129300000D03*
D18*
X126950000Y-126500000D03*
X123550000Y-126500000D03*
D14*
X136088200Y-82250000D03*
X134411800Y-82250000D03*
X136088200Y-97250000D03*
X134411800Y-97250000D03*
D19*
X145930600Y-132300000D03*
X142400000Y-132300000D03*
D20*
X135250000Y-124338200D03*
X135250000Y-122661800D03*
X129300000Y-56938200D03*
X129300000Y-55261800D03*
X131200000Y-56938200D03*
X131200000Y-55261800D03*
X178050000Y-55900000D03*
X178050000Y-57576400D03*
D21*
X143092000Y-121750000D03*
X143092000Y-123020000D03*
X143092000Y-124290000D03*
X143092000Y-125560000D03*
X137250000Y-125560000D03*
X137250000Y-124290000D03*
X137250000Y-123020000D03*
D22*
X137250000Y-121750000D03*
D23*
X125440000Y-74597880D03*
D24*
X126001340Y-74597880D03*
X126501720Y-74597880D03*
X127002100Y-74597880D03*
X127502480Y-74597880D03*
X128000320Y-74597880D03*
X128500700Y-74597880D03*
X129001080Y-74597880D03*
X129498920Y-74597880D03*
X129999300Y-74597880D03*
X130499680Y-74597880D03*
X130997520Y-74597880D03*
X131497900Y-74597880D03*
X131998280Y-74597880D03*
X132498660Y-74597880D03*
D23*
X133060000Y-74597880D03*
D25*
X135147880Y-72510000D03*
D26*
X135147880Y-71948660D03*
X135147880Y-71448280D03*
X135147880Y-70947900D03*
X135147880Y-70447520D03*
X135147880Y-69949680D03*
X135147880Y-69449300D03*
X135147880Y-68948920D03*
X135147880Y-68451080D03*
X135147880Y-67950700D03*
X135147880Y-67450320D03*
X135147880Y-66952480D03*
X135147880Y-66452100D03*
X135147880Y-65951720D03*
X135147880Y-65451340D03*
D25*
X135147880Y-64890000D03*
D23*
X133060000Y-62802120D03*
D24*
X132498660Y-62802120D03*
X131998280Y-62802120D03*
X131497900Y-62802120D03*
X130997520Y-62802120D03*
X130499680Y-62802120D03*
X129999300Y-62802120D03*
X129498920Y-62802120D03*
X129001080Y-62802120D03*
X128500700Y-62802120D03*
X128000320Y-62802120D03*
X127502480Y-62802120D03*
X127002100Y-62802120D03*
X126501720Y-62802120D03*
X126001340Y-62802120D03*
D23*
X125440000Y-62802120D03*
D25*
X123352120Y-64890000D03*
D26*
X123352120Y-65451340D03*
X123352120Y-65951720D03*
X123352120Y-66452100D03*
X123352120Y-66952480D03*
X123352120Y-67450320D03*
X123352120Y-67950700D03*
X123352120Y-68451080D03*
X123352120Y-68948920D03*
X123352120Y-69449300D03*
X123352120Y-69949680D03*
X123352120Y-70447520D03*
X123352120Y-70947900D03*
X123352120Y-71448280D03*
X123352120Y-71948660D03*
D25*
X123352120Y-72510000D03*
D27*
X164002040Y-119002040D03*
D28*
X168000000Y-119002040D03*
X171997960Y-119002040D03*
X166001020Y-123000000D03*
X169998980Y-123000000D03*
X164002040Y-126997960D03*
X168000000Y-126997960D03*
X171997960Y-126997960D03*
D29*
X154301780Y-112202460D03*
X181698220Y-112202460D03*
X183199360Y-130299960D03*
X152800640Y-130299960D03*
X193199340Y-72299960D03*
X142800660Y-72299960D03*
X191698200Y-54202460D03*
X144301800Y-54202460D03*
D28*
X181997940Y-68997960D03*
X177999980Y-68997960D03*
X173999480Y-68997960D03*
X169998980Y-68997960D03*
X166001020Y-68997960D03*
X162000520Y-68997960D03*
X158000020Y-68997960D03*
X154002060Y-68997960D03*
X179998960Y-65000000D03*
X175998460Y-65000000D03*
X171997960Y-65000000D03*
X168000000Y-65000000D03*
X164002040Y-65000000D03*
X160001540Y-65000000D03*
X156001040Y-65000000D03*
X181997940Y-61002040D03*
X177999980Y-61002040D03*
X173999480Y-61002040D03*
X169998980Y-61002040D03*
X166001020Y-61002040D03*
X162000520Y-61002040D03*
X158000020Y-61002040D03*
D27*
X154002060Y-61002040D03*
D20*
X120750000Y-129711800D03*
X120750000Y-131388200D03*
D30*
X122850000Y-121000000D03*
X128650000Y-121000000D03*
D14*
X122661800Y-113000000D03*
X124338200Y-113000000D03*
D20*
X120950000Y-67311800D03*
X120950000Y-68988200D03*
X120950000Y-65738200D03*
X120950000Y-64061800D03*
D14*
X131611800Y-76900000D03*
X133288200Y-76900000D03*
X137161800Y-69900000D03*
X138838200Y-69900000D03*
D20*
X130500000Y-59261800D03*
X130500000Y-60938200D03*
D14*
X138838200Y-71900000D03*
X137161800Y-71900000D03*
X138938200Y-55400000D03*
X137261800Y-55400000D03*
D31*
X145898600Y-129600000D03*
X142901400Y-129600000D03*
D14*
X150138200Y-64800000D03*
X148461800Y-64800000D03*
D20*
X170000000Y-58138200D03*
X170000000Y-56461800D03*
X173900000Y-58238200D03*
X173900000Y-56561800D03*
X180300000Y-57576400D03*
X180300000Y-55900000D03*
D14*
X158838200Y-57000000D03*
X157161800Y-57000000D03*
X166638200Y-57000000D03*
X164961800Y-57000000D03*
D13*
X159200000Y-54350000D03*
X159200000Y-53400000D03*
X159200000Y-52450000D03*
X156800000Y-52450000D03*
X156800000Y-54350000D03*
X164543785Y-54350000D03*
X164543785Y-52450000D03*
X166943785Y-52450000D03*
X166943785Y-53400000D03*
X166943785Y-54350000D03*
D22*
X123179000Y-131895000D03*
D21*
X123179000Y-133165000D03*
X123179000Y-134435000D03*
X123179000Y-135705000D03*
X129021000Y-135705000D03*
X129021000Y-134435000D03*
X129021000Y-133165000D03*
X129021000Y-131895000D03*
D32*
X124449960Y-114750000D03*
X122550040Y-114750000D03*
X123500000Y-117046160D03*
D33*
X138901564Y-58400000D03*
X133821564Y-58400000D03*
D20*
X130650000Y-133211800D03*
X130650000Y-134888200D03*
D34*
X182200000Y-54190000D03*
X182200000Y-51650000D03*
X175800000Y-51650000D03*
X175800000Y-54190000D03*
D35*
X142012500Y-95515000D03*
X142012500Y-94245000D03*
X142012500Y-92975000D03*
X142012500Y-91705000D03*
X142012500Y-90435000D03*
X142012500Y-89165000D03*
X142012500Y-87895000D03*
X142012500Y-86625000D03*
X142012500Y-85355000D03*
X142012500Y-84085000D03*
X132487500Y-84085000D03*
X132487500Y-85355000D03*
X132487500Y-86625000D03*
X132487500Y-87895000D03*
X132487500Y-89165000D03*
X132487500Y-90435000D03*
X132487500Y-91705000D03*
X132487500Y-92975000D03*
X132487500Y-94245000D03*
X132487500Y-95515000D03*
D15*
X163905000Y-91675000D03*
X162635000Y-91675000D03*
X161365000Y-91675000D03*
X160095000Y-91675000D03*
D16*
X163350000Y-95425000D03*
X160650000Y-95425000D03*
D14*
X133661800Y-55400000D03*
X135338200Y-55400000D03*
D12*
X144025000Y-90850000D03*
X145625000Y-90850000D03*
X144025000Y-90050000D03*
X145625000Y-90050000D03*
X144025000Y-89250000D03*
X145625000Y-89250000D03*
X144025000Y-88450000D03*
X145625000Y-88450000D03*
D14*
X202361800Y-98300000D03*
X204038200Y-98300000D03*
X204038200Y-83200000D03*
X202361800Y-83200000D03*
D36*
X146500000Y-135500000D03*
X141500000Y-135500000D03*
D19*
X129065300Y-130050000D03*
X125534700Y-130050000D03*
D37*
X149200000Y-111900000D03*
X149200000Y-106900000D03*
X143200000Y-106900000D03*
X143200000Y-111900000D03*
X165250000Y-111900000D03*
X165250000Y-106900000D03*
X176250000Y-106900000D03*
X176250000Y-111900000D03*
X170750000Y-111900000D03*
X170750000Y-106900000D03*
X192750000Y-111900000D03*
X192750000Y-106900000D03*
D38*
X186750000Y-107850000D03*
X186750000Y-111050000D03*
D14*
X154838200Y-57000000D03*
X153161800Y-57000000D03*
X161161800Y-57000000D03*
X162838200Y-57000000D03*
D39*
X196025000Y-84990000D03*
X196025000Y-86260000D03*
X196025000Y-87530000D03*
X196025000Y-88800000D03*
X196025000Y-90070000D03*
X196025000Y-91340000D03*
X196025000Y-92610000D03*
X196025000Y-93880000D03*
X196025000Y-95150000D03*
X196025000Y-96420000D03*
X205950000Y-96420000D03*
X205950000Y-95150000D03*
X205950000Y-93880000D03*
X205950000Y-92610000D03*
X205950000Y-91340000D03*
X205950000Y-90070000D03*
X205950000Y-88800000D03*
X205950000Y-87530000D03*
X205950000Y-86260000D03*
X205950000Y-84990000D03*
D40*
X187905000Y-91575000D03*
X186635000Y-91575000D03*
X185365000Y-91575000D03*
X184095000Y-91575000D03*
D41*
X187400000Y-95425000D03*
X184600000Y-95425000D03*
X172600000Y-95425000D03*
X175400000Y-95425000D03*
D40*
X172095000Y-91575000D03*
X173365000Y-91575000D03*
X174635000Y-91575000D03*
X175905000Y-91575000D03*
D13*
X163200000Y-54350000D03*
X163200000Y-53400000D03*
X163200000Y-52450000D03*
X160800000Y-52450000D03*
X160800000Y-54350000D03*
D11*
X137800000Y-113600000D03*
X138750000Y-113600000D03*
X139700000Y-113600000D03*
X139700000Y-110800000D03*
X137800000Y-110800000D03*
X137850000Y-106400000D03*
X139750000Y-106400000D03*
X139750000Y-109200000D03*
X138800000Y-109200000D03*
X137850000Y-109200000D03*
X198650000Y-114800000D03*
X196750000Y-114800000D03*
X196750000Y-112000000D03*
X197700000Y-112000000D03*
X198650000Y-112000000D03*
X198650000Y-119100000D03*
X196750000Y-119100000D03*
X196750000Y-116300000D03*
X197700000Y-116300000D03*
X198650000Y-116300000D03*
X198650000Y-102900000D03*
X197700000Y-102900000D03*
X196750000Y-102900000D03*
X196750000Y-105700000D03*
X198650000Y-105700000D03*
X198650000Y-107200000D03*
X197700000Y-107200000D03*
X196750000Y-107200000D03*
X196750000Y-110000000D03*
X198650000Y-110000000D03*
D42*
X126940000Y-54060000D03*
X126940000Y-59140000D03*
X125670000Y-54060000D03*
X125670000Y-59140000D03*
X124400000Y-54060000D03*
X124400000Y-59140000D03*
X123130000Y-59140000D03*
X121860000Y-54060000D03*
X121860000Y-59140000D03*
M02*
