M48
INCH,TZ
T1C0.016
T2C0.069
T3C0.079
%
G90
G05
T1
X46890Y-42205
X46890Y-42677
X47244Y-25866
X47244Y-27165
X47638Y-49173
X48307Y-51339
X48386Y-22244
X48386Y-34055
X48543Y-43346
X48622Y-29173
X49331Y-28661
X49370Y-26969
X49724Y-34094
X49724Y-41181
X49803Y-28425
X49961Y-19685
X50192Y-28277
X50236Y-43346
X50512Y-20315
X50551Y-31732
X50669Y-23858
X50748Y-28110
X50787Y-25472
X50866Y-50433
X51024Y-45827
X51142Y-28701
X51575Y-25512
X51693Y-53661
X51811Y-27402
X52047Y-28583
X52047Y-30906
X52068Y-33529
X52087Y-39094
X52244Y-26850
X52323Y-32244
X52362Y-27756
X52501Y-33894
X52598Y-47992
X53071Y-44252
X53244Y-47323
X53346Y-49685
X53375Y-30347
X53376Y-32978
X53740Y-32598
X53895Y-26581
X53995Y-34685
X54146Y-34101
X54160Y-31395
X54213Y-47323
X54370Y-50512
X54450Y-30843
X54528Y-31535
X54606Y-32638
X54646Y-29094
X54646Y-34055
X54685Y-24528
X54800Y-31023
X55276Y-35512
X55354Y-50039
X55551Y-20276
X55748Y-22953
X55827Y-47362
X56181Y-30000
X56339Y-50118
X56709Y-35069
X56969Y-48425
X56969Y-53386
X57323Y-34094
X57559Y-24016
X57607Y-35069
X57638Y-48937
X57717Y-47874
X58268Y-51339
X58661Y-22953
X58937Y-49252
X58976Y-22008
X58979Y-22559
X59134Y-23268
X59173Y-27087
X59197Y-35059
X59373Y-22205
X59373Y-21654
X59409Y-23661
X59488Y-20157
X59764Y-34173
X59843Y-22598
X59921Y-19685
X60094Y-35059
X60984Y-53071
X61063Y-21575
X61260Y-20827
X61417Y-22520
X61535Y-35591
X61732Y-19685
X62559Y-53150
X62717Y-21654
X62795Y-51929
X62811Y-35069
X62992Y-22520
X63071Y-20827
X63425Y-34094
X63504Y-19685
X63709Y-35069
X64213Y-52047
X64331Y-21732
X64528Y-22559
X64528Y-29843
X64567Y-31654
X64567Y-32598
X64843Y-20118
X64882Y-35394
X65236Y-19685
X65591Y-21772
X66362Y-35079
X66599Y-22953
X66654Y-31614
X66969Y-34094
X67260Y-35079
X67953Y-32913
X68174Y-22953
X68543Y-30197
X68583Y-35512
X69764Y-20394
X69942Y-35082
X69961Y-31614
X70551Y-34134
X70839Y-35082
X71732Y-22598
X72244Y-35433
X72913Y-28425
X72992Y-53543
X73512Y-35082
X74094Y-34134
X74410Y-35082
X74921Y-48780
X75394Y-19843
X75984Y-35551
X76299Y-31969
X76575Y-39331
X76614Y-44055
X76969Y-38268
X77145Y-38620
X77480Y-30827
X77677Y-38646
X78268Y-25748
X78425Y-38646
X78583Y-52126
X78622Y-54173
X79764Y-51181
X83228Y-19803
X83268Y-54134
X85236Y-39409
X85236Y-52283
X85276Y-33228
X85276Y-45354
X85315Y-21575
X85354Y-25551
T2
X60630Y-24016
X60630Y-27164
X61417Y-25590
X62204Y-24016
X62204Y-27164
X62992Y-25590
X63779Y-24016
X63779Y-27164
X64567Y-25590
X64567Y-46850
X64567Y-49998
X65354Y-24016
X65354Y-27164
X65354Y-48424
X66141Y-25590
X66141Y-46850
X66141Y-49998
X66928Y-24016
X66928Y-27164
X66928Y-48424
X67715Y-25590
X67715Y-46850
X67715Y-49998
X68503Y-24016
X68503Y-27164
X69290Y-25590
X70078Y-24016
X70078Y-27164
X70865Y-25590
X71652Y-24016
X71652Y-27164
T3
X56220Y-28464
X56811Y-21339
X60157Y-51298
X60748Y-44173
X71534Y-44173
X72125Y-51298
X75471Y-21339
X76062Y-28464
T0
M30
