M48
;DRILL file {KiCad (2017-01-11 revision e99b79c)-master} date Mon Jul  3 16:39:00 2017
;FORMAT={-:-/ absolute / metric / decimal}
FMAT,2
METRIC,TZ
T1C0.400
T2C1.748
T3C1.999
%
G90
G05
M71
T1
X119.1Y-107.2
X119.1Y-108.4
X120.Y-65.7
X120.Y-69.
X120.3Y-106.7
X121.Y-124.9
X122.Y-89.1
X122.1Y-104.5
X122.2Y-76.1
X122.7Y-130.4
X122.9Y-56.5
X123.3Y-110.1
X125.4Y-68.5
X126.1Y-72.1
X126.4Y-89.
X126.6Y-79.9
X126.73Y-70.512
X126.9Y-50.
X127.1Y-71.7
X127.6Y-110.1
X128.4Y-103.7
X128.6Y-51.8
X128.7Y-60.6
X129.Y-64.7
X129.2Y-128.1
X129.306Y-81.901
X129.7Y-79.1
X130.Y-72.6
X130.Y-105.5
X130.306Y-81.89
X131.Y-64.8
X131.3Y-136.3
X131.4Y-82.
X131.6Y-69.6
X132.2Y-72.6
X132.7Y-68.2
X132.8Y-109.5
X133.Y-70.5
X133.6Y-121.9
X134.5Y-77.1
X134.5Y-110.4
X135.239Y-120.2
X135.5Y-126.2
X135.7Y-108.4
X136.1Y-114.3
X136.5Y-58.4
X136.8Y-105.4
X136.8Y-112.2
X136.9Y-109.6
X137.3Y-67.652
X137.6Y-82.4
X137.6Y-107.8
X137.7Y-120.2
X137.9Y-62.7
X138.1Y-128.3
X138.7Y-91.4
X138.8Y-73.9
X138.8Y-103.3
X139.Y-90.3
X139.4Y-92.2
X139.4Y-102.
X139.4Y-107.9
X139.6Y-127.2
X139.7Y-110.8
X140.6Y-65.
X140.6Y-74.2
X140.6Y-127.1
X140.7Y-75.9
X141.Y-81.4
X141.392Y-100.772
X141.5Y-76.8
X141.7Y-75.1
X141.8Y-120.3
X143.1Y-127.3
X143.2Y-106.9
X144.7Y-66.2
X144.7Y-123.
X144.7Y-135.6
X145.Y-93.8
X146.4Y-124.3
X146.9Y-89.2
X147.Y-58.4
X147.3Y-77.3
X148.Y-130.4
X148.095Y-91.675
X149.Y-58.3
X149.2Y-106.9
X149.3Y-81.3
X149.6Y-51.1
X149.8Y-55.9
X149.8Y-79.8
X149.806Y-57.3
X149.806Y-78.3
X150.2Y-59.1
X150.6Y-71.
X150.635Y-91.675
X150.661Y-79.192
X150.7Y-77.792
X150.806Y-56.4
X150.807Y-55.
X150.9Y-60.1
X151.Y-104.4
X152.Y-57.4
X152.3Y-108.1
X153.4Y-92.2
X153.6Y-50.
X154.9Y-135.
X155.1Y-54.8
X156.Y-57.2
X156.Y-89.
X156.6Y-51.2
X157.7Y-50.
X158.8Y-92.2
X158.9Y-135.
X159.Y-136.7
X159.1Y-55.1
X159.5Y-131.9
X160.Y-57.2
X160.Y-71.2
X160.Y-75.8
X160.1Y-79.8
X160.6Y-51.3
X161.4Y-108.1
X161.7Y-50.
X162.2Y-89.1
X162.4Y-104.3
X162.635Y-91.675
X163.1Y-132.2
X163.6Y-55.2
X163.9Y-57.3
X163.9Y-75.8
X163.9Y-80.
X164.Y-50.
X164.Y-71.4
X164.2Y-53.4
X165.25Y-106.9
X165.4Y-89.8
X166.944Y-54.35
X168.Y-104.1
X168.1Y-71.3
X168.4Y-75.8
X168.4Y-80.
X168.5Y-53.7
X168.7Y-57.5
X169.Y-55.2
X170.9Y-132.
X171.5Y-89.4
X172.095Y-91.575
X173.Y-56.6
X173.3Y-108.5
X173.3Y-132.4
X174.635Y-91.575
X176.Y-57.7
X179.1Y-105.8
X179.3Y-83.8
X179.6Y-93.3
X179.7Y-87.2
X179.8Y-108.4
X179.9Y-71.2
X180.2Y-76.5
X180.3Y-84.6
X180.7Y-104.7
X180.7Y-83.5
X181.548Y-104.07
X181.8Y-84.2
X182.2Y-57.4
X182.207Y-103.293
X182.928Y-102.6
X183.7Y-87.
X184.095Y-91.575
X184.1Y-71.3
X185.4Y-136.
X185.7Y-72.3
X185.8Y-74.7
X185.9Y-76.6
X186.1Y-83.7
X186.6Y-73.9
X186.635Y-91.575
X186.8Y-105.1
X188.1Y-73.1
X189.8Y-100.4
X190.1Y-88.
X190.1Y-108.7
X190.2Y-93.8
X191.5Y-50.4
X192.75Y-106.9
X193.3Y-104.5
X194.3Y-83.6
X194.6Y-100.7
X195.9Y-110.2
X195.9Y-113.
X195.9Y-113.
X196.1Y-117.4
X196.232Y-106.063
X196.3Y-108.7
X196.7Y-137.8
X196.8Y-78.3
X198.2Y-94.6
X198.65Y-107.5
X198.65Y-112.
X198.65Y-116.3
X198.7Y-102.2
X198.8Y-65.4
X199.Y-93.8
X199.6Y-132.4
X199.7Y-137.6
X199.9Y-108.7
X199.9Y-117.3
X200.3Y-102.7
X200.5Y-89.3
X200.5Y-90.5
X202.6Y-130.
X202.7Y-112.3
X204.Y-99.7
X211.4Y-50.3
X216.5Y-100.1
X216.5Y-132.8
X216.6Y-84.4
X216.6Y-115.2
X216.7Y-54.8
X216.8Y-64.9
T2
X154.002Y-61.002
X154.002Y-68.998
X156.001Y-65.
X158.Y-61.002
X158.Y-68.998
X160.002Y-65.
X162.001Y-61.002
X162.001Y-68.998
X164.002Y-65.
X164.002Y-119.002
X164.002Y-126.998
X166.001Y-61.002
X166.001Y-68.998
X166.001Y-123.
X168.Y-65.
X168.Y-119.002
X168.Y-126.998
X169.999Y-61.002
X169.999Y-68.998
X169.999Y-123.
X171.998Y-65.
X171.998Y-119.002
X171.998Y-126.998
X173.999Y-61.002
X173.999Y-68.998
X175.998Y-65.
X178.Y-61.002
X178.Y-68.998
X179.999Y-65.
X181.998Y-61.002
X181.998Y-68.998
T3
X142.801Y-72.3
X144.302Y-54.202
X152.801Y-130.3
X154.302Y-112.202
X181.698Y-112.202
X183.199Y-130.3
X191.698Y-54.202
X193.199Y-72.3
T0
M30
