M48
INCH,TZ
T1C0.016
T2C0.069
T3C0.079
%
G90
G05
T1
X46890Y-42205
X46890Y-42677
X47244Y-25866
X47244Y-27165
X47638Y-49173
X48307Y-51339
X48386Y-22244
X48386Y-34055
X48543Y-43346
X48622Y-29173
X49331Y-28661
X49370Y-26969
X49724Y-34094
X49724Y-41181
X49803Y-28425
X49961Y-19685
X50192Y-28277
X50236Y-43346
X50512Y-20315
X50551Y-31732
X50669Y-23858
X50748Y-28110
X50787Y-25472
X50866Y-50433
X51024Y-45827
X51142Y-28701
X51575Y-25512
X51693Y-53661
X51811Y-27402
X52047Y-28583
X52047Y-30906
X52068Y-33529
X52087Y-39094
X52244Y-26850
X52323Y-32244
X52343Y-49547
X52362Y-27756
X52501Y-33894
X52598Y-47992
X52677Y-51417
X53071Y-44252
X53244Y-47323
X53346Y-49685
X53375Y-30347
X53376Y-32978
X53740Y-32598
X53895Y-26581
X53995Y-34685
X54146Y-34101
X54160Y-31395
X54213Y-47323
X54313Y-30100
X54370Y-51319
X54450Y-30843
X54528Y-31535
X54606Y-32638
X54606Y-53327
X54646Y-29094
X54646Y-34055
X54685Y-24528
X54800Y-31023
X54851Y-30102
X55276Y-35512
X55551Y-20276
X55748Y-22953
X55827Y-47362
X56186Y-29724
X56555Y-35610
X56900Y-34843
X56966Y-34075
X56969Y-48425
X57028Y-53425
X57510Y-34843
X57559Y-24016
X57618Y-23317
X57628Y-20285
X57638Y-48937
X57874Y-22717
X57874Y-35689
X58010Y-23681
X58012Y-22008
X58169Y-23031
X58406Y-22362
X58425Y-49547
X58602Y-21427
X59173Y-27087
X59449Y-35650
X59828Y-35285
X60056Y-34075
X60461Y-35328
X60846Y-35689
X60955Y-21506
X61063Y-53268
X61348Y-19685
X61535Y-35591
X61732Y-50709
X62717Y-35650
X62966Y-20518
X63077Y-35277
X63285Y-33898
X63533Y-21909
X63661Y-19685
X63709Y-35328
X64055Y-35669
X64528Y-29724
X64567Y-31654
X64567Y-32598
X64705Y-21073
X64882Y-35394
X65236Y-19685
X65738Y-21870
X66063Y-35650
X66142Y-52205
X66423Y-35280
X66599Y-22953
X66654Y-31614
X66772Y-33858
X66860Y-21211
X67046Y-35301
X67402Y-35669
X67953Y-32913
X68174Y-22953
X68494Y-19754
X68563Y-29862
X68583Y-35512
X69400Y-21742
X69528Y-51220
X69606Y-35689
X69969Y-35259
X70217Y-33740
X70256Y-31614
X70590Y-35301
X70965Y-35689
X71732Y-22598
X72244Y-35433
X72913Y-28425
X72992Y-53543
X73445Y-35748
X73820Y-35301
X74009Y-33846
X74469Y-35354
X74803Y-35650
X75118Y-26969
X75197Y-49173
X75394Y-19843
X75984Y-35551
X76299Y-31969
X76575Y-39331
X76693Y-30295
X76969Y-38268
X77145Y-38620
X77677Y-38646
X77854Y-32736
X78268Y-25748
X78425Y-38646
X78622Y-54173
X78819Y-40630
X78976Y-44843
X79154Y-35551
X79764Y-51181
X80276Y-35709
X80648Y-35307
X80886Y-33681
X81299Y-35354
X81634Y-35689
X82283Y-29724
X82776Y-41063
X83051Y-34724
X83228Y-19803
X83268Y-54134
X85236Y-39409
X85236Y-52283
X85276Y-33228
X85276Y-45354
X85315Y-21575
X85354Y-25551
T2
X60630Y-24016
X60630Y-27164
X61417Y-25590
X62204Y-24016
X62204Y-27164
X62992Y-25590
X63779Y-24016
X63779Y-27164
X64567Y-25590
X64567Y-46850
X64567Y-49998
X65354Y-24016
X65354Y-27164
X65354Y-48424
X66141Y-25590
X66141Y-46850
X66141Y-49998
X66928Y-24016
X66928Y-27164
X66928Y-48424
X67715Y-25590
X67715Y-46850
X67715Y-49998
X68503Y-24016
X68503Y-27164
X69290Y-25590
X70078Y-24016
X70078Y-27164
X70865Y-25590
X71652Y-24016
X71652Y-27164
T3
X56220Y-28464
X56811Y-21339
X60157Y-51298
X60748Y-44173
X71534Y-44173
X72125Y-51298
X75471Y-21339
X76062Y-28464
T0
M30
