M48
;DRILL file {KiCad (2017-01-11 revision e99b79cb2)-master} date Sun Oct  8 10:51:04 2017
;FORMAT={-:-/ absolute / metric / decimal}
FMAT,2
METRIC,TZ
T1C0.400
T2C1.748
T3C1.999
%
G90
G05
M71
T1
X119.1Y-107.2
X119.1Y-108.4
X120.Y-65.7
X120.Y-69.
X121.Y-124.9
X122.7Y-130.4
X122.9Y-56.5
X122.9Y-86.5
X123.3Y-110.1
X123.5Y-74.1
X125.3Y-72.8
X125.4Y-68.5
X126.3Y-86.6
X126.3Y-104.6
X126.5Y-72.2
X126.9Y-50.
X127.488Y-71.822
X127.6Y-110.1
X128.3Y-51.6
X128.4Y-80.6
X128.7Y-60.6
X128.9Y-71.4
X129.Y-64.7
X129.2Y-128.1
X129.6Y-116.4
X129.9Y-72.9
X131.Y-64.8
X131.3Y-136.3
X131.6Y-69.6
X132.2Y-72.6
X132.2Y-78.5
X132.252Y-85.164
X132.3Y-99.3
X132.7Y-68.2
X132.9Y-81.9
X133.Y-70.5
X133.352Y-86.09
X133.6Y-121.9
X134.8Y-112.4
X135.239Y-120.2
X135.5Y-126.2
X135.572Y-77.082
X135.574Y-83.764
X136.5Y-82.8
X136.893Y-67.517
X137.148Y-88.099
X137.53Y-86.617
X137.566Y-79.742
X137.7Y-120.2
X138.1Y-128.3
X138.302Y-78.34
X138.5Y-80.1
X138.7Y-82.9
X138.8Y-73.9
X138.8Y-86.5
X138.9Y-62.3
X139.193Y-78.798
X140.4Y-90.2
X140.6Y-127.1
X141.1Y-51.5
X141.6Y-58.3
X141.8Y-120.3
X142.7Y-76.2
X143.1Y-127.3
X144.041Y-89.076
X144.7Y-123.
X144.7Y-135.6
X145.6Y-86.6
X146.2Y-61.
X146.321Y-89.076
X146.4Y-124.3
X146.6Y-121.6
X148.Y-130.4
X149.Y-58.3
X149.7Y-125.1
X149.8Y-55.9
X149.806Y-57.3
X150.2Y-59.1
X150.3Y-68.8
X150.36Y-89.05
X150.806Y-56.4
X150.807Y-55.
X150.9Y-60.1
X151.1Y-51.2
X151.8Y-86.8
X152.Y-57.4
X152.2Y-50.
X152.64Y-89.05
X154.9Y-134.8
X155.1Y-54.8
X155.6Y-52.9
X156.Y-57.2
X156.3Y-90.4
X156.8Y-50.
X158.9Y-135.
X159.3Y-55.
X159.5Y-131.9
X159.541Y-89.076
X160.Y-57.2
X160.2Y-52.9
X161.1Y-86.6
X161.3Y-50.
X161.821Y-89.076
X163.1Y-132.2
X163.4Y-55.2
X163.9Y-57.3
X163.9Y-75.8
X164.Y-80.4
X164.Y-82.8
X164.7Y-51.1
X164.8Y-89.9
X165.7Y-50.
X166.6Y-55.3
X168.56Y-89.1
X169.3Y-80.3
X169.919Y-53.2
X170.1Y-86.6
X170.3Y-55.8
X170.84Y-89.1
X172.1Y-52.
X172.6Y-83.6
X173.2Y-54.6
X174.1Y-76.7
X174.2Y-90.2
X177.2Y-51.8
X177.652Y-89.108
X177.7Y-80.3
X179.2Y-86.7
X179.932Y-89.108
X182.2Y-57.4
X183.5Y-90.
X185.2Y-72.2
X185.4Y-136.
X186.722Y-89.108
X188.2Y-86.7
X189.002Y-89.108
X190.3Y-123.9
X191.5Y-50.4
X193.Y-90.3
X193.8Y-81.2
X194.5Y-99.9
X194.6Y-111.9
X195.5Y-97.2
X195.947Y-98.094
X196.8Y-78.3
X197.3Y-98.162
X198.8Y-65.4
X199.2Y-98.162
X199.6Y-132.4
X199.7Y-137.6
X202.6Y-130.
X211.4Y-50.3
X211.5Y-137.5
X216.5Y-100.1
X216.5Y-132.8
X216.6Y-84.4
X216.6Y-115.2
X216.7Y-54.8
X216.8Y-64.9
T2
X154.Y-61.
X154.Y-68.995
X155.999Y-64.998
X157.998Y-61.
X157.998Y-68.995
X160.Y-64.998
X161.999Y-61.
X161.999Y-68.995
X164.Y-64.998
X164.Y-119.
X164.Y-126.995
X165.999Y-61.
X165.999Y-68.995
X165.999Y-122.998
X167.998Y-64.998
X167.998Y-119.
X167.998Y-126.995
X169.997Y-61.
X169.997Y-68.995
X169.997Y-122.998
X171.996Y-64.998
X171.996Y-119.
X171.996Y-126.995
X173.998Y-61.
X173.998Y-68.995
X175.997Y-64.998
X177.998Y-61.
X177.998Y-68.995
X179.997Y-64.998
X181.996Y-61.
X181.996Y-68.995
T3
X142.799Y-72.297
X144.3Y-54.2
X152.799Y-130.297
X154.3Y-112.2
X181.696Y-112.2
X183.198Y-130.297
X191.696Y-54.2
X193.198Y-72.297
T0
M30
