M48
;DRILL file {KiCad (2017-01-11 revision e99b79c)-master} date Sun Mar 26 11:10:59 2017
;FORMAT={-:-/ absolute / metric / decimal}
FMAT,2
METRIC,TZ
T1C0.400
T2C1.748
T3C1.999
%
G90
G05
M71
T1
X120.4Y-125.9
X120.45Y-93.6
X120.5Y-88.55
X120.75Y-64.9
X120.75Y-111.25
X120.8Y-61.25
X121.95Y-84.55
X123.1Y-72.9
X123.55Y-74.8
X123.95Y-53.35
X124.033Y-88.584
X124.05Y-92.6
X124.1Y-86.3
X124.406Y-89.512
X124.55Y-90.55
X124.75Y-78.75
X125.Y-68.1
X125.Y-75.55
X125.108Y-113.076
X125.55Y-66.05
X126.Y-116.
X126.75Y-100.45
X126.85Y-134.
X127.Y-111.2
X127.8Y-57.25
X128.753Y-59.412
X128.8Y-62.3
X129.05Y-112.1
X129.5Y-108.7
X129.6Y-126.95
X129.8Y-101.95
X130.25Y-70.
X130.35Y-56.1
X130.5Y-121.
X130.8Y-83.3
X131.Y-106.75
X131.Y-110.8
X131.Y-113.55
X131.199Y-99.443
X131.3Y-96.65
X131.505Y-56.773
X131.97Y-100.5
X132.15Y-102.4
X132.25Y-70.85
X132.257Y-98.95
X132.55Y-65.6
X132.95Y-78.75
X132.97Y-97.943
X133.Y-69.
X133.025Y-77.18
X133.95Y-76.8
X134.Y-101.3
X134.Y-122.75
X134.25Y-106.
X134.35Y-92.
X134.45Y-94.25
X134.48Y-74.87
X134.5Y-110.081
X134.5Y-113.95
X134.5Y-118.5
X134.705Y-89.495
X135.45Y-57.
X135.5Y-84.8
X135.65Y-73.95
X135.65Y-75.2
X136.15Y-53.5
X136.3Y-131.05
X136.55Y-94.45
X136.7Y-136.4
X137.25Y-82.25
X137.25Y-97.25
X137.35Y-60.75
X137.65Y-87.
X138.147Y-88.113
X138.65Y-105.86
X138.75Y-110.5
X138.75Y-114.5
X138.75Y-118.75
X138.75Y-123.
X138.85Y-60.1
X139.1Y-92.7
X139.35Y-91.185
X139.5Y-89.685
X139.7Y-68.
X139.7Y-70.
X139.7Y-111.3
X139.95Y-73.65
X140.1Y-50.55
X140.203Y-103.838
X140.206Y-88.977
X140.25Y-114.75
X140.45Y-58.95
X140.7Y-56.55
X140.85Y-60.347
X140.96Y-61.341
X141.354Y-59.378
X141.5Y-121.75
X142.05Y-61.3
X142.63Y-77.22
X142.9Y-81.25
X143.25Y-95.5
X143.43Y-78.02
X144.Y-136.25
X144.75Y-63.25
X145.Y-123.25
X145.15Y-89.5
X145.5Y-125.95
X145.6Y-137.25
X145.765Y-133.5
X145.9Y-68.2
X146.Y-124.25
X146.4Y-138.1
X147.35Y-90.65
X148.35Y-51.55
X149.Y-104.25
X150.5Y-64.6
X150.5Y-133.8
X150.635Y-91.45
X150.8Y-60.55
X151.05Y-67.9
X151.55Y-55.6
X151.65Y-51.7
X154.333Y-136.4
X154.5Y-53.8
X154.5Y-108.25
X154.75Y-135.
X155.55Y-110.2
X156.15Y-108.05
X156.25Y-54.75
X156.7Y-90.2
X156.9Y-93.95
X159.95Y-79.3
X160.095Y-91.675
X160.6Y-53.8
X162.25Y-133.15
X162.3Y-54.75
X162.635Y-91.675
X163.Y-108.5
X165.3Y-56.65
X166.5Y-56.85
X168.35Y-132.35
X168.45Y-51.85
X170.15Y-57.6
X170.75Y-106.8
X171.4Y-57.
X171.5Y-135.35
X172.095Y-91.675
X174.635Y-91.675
X175.7Y-55.95
X176.25Y-106.8
X176.9Y-51.7
X178.Y-54.9
X179.5Y-132.05
X180.4Y-94.35
X180.7Y-79.1
X180.7Y-84.6
X180.9Y-51.65
X181.2Y-89.75
X181.75Y-106.9
X181.95Y-109.75
X184.095Y-91.675
X185.85Y-131.25
X186.65Y-91.35
X187.25Y-106.8
X187.85Y-67.55
X189.55Y-57.9
X193.2Y-88.25
X193.95Y-80.15
X194.313Y-84.5
X194.55Y-88.05
X195.4Y-68.1
X195.9Y-106.9
X195.9Y-116.7
X195.9Y-135.85
X195.95Y-104.8
X196.2Y-113.2
X197.5Y-96.5
X197.6Y-93.5
X197.75Y-112.75
X197.75Y-117.25
X197.79Y-104.21
X197.926Y-108.574
X198.2Y-90.05
X198.35Y-92.6
X198.55Y-91.4
X198.75Y-85.25
X198.8Y-86.55
X199.4Y-117.6
X200.Y-113.35
X200.3Y-108.893
X201.Y-83.
X201.1Y-104.55
X201.25Y-98.5
X202.Y-102.75
X202.Y-107.25
X202.25Y-51.9
X202.253Y-111.3
X202.253Y-115.8
X205.Y-50.5
X205.75Y-102.25
X207.05Y-116.7
X207.1Y-81.
X207.1Y-100.45
X209.65Y-62.
X210.4Y-65.4
X210.847Y-133.947
X211.15Y-66.6
X212.Y-65.75
X214.3Y-56.8
X214.65Y-66.35
X214.8Y-125.1
X216.75Y-62.2
T2
X154.002Y-61.002
X154.002Y-68.998
X156.001Y-65.
X158.Y-61.002
X158.Y-68.998
X160.002Y-65.
X162.001Y-61.002
X162.001Y-68.998
X164.002Y-65.
X164.002Y-119.002
X164.002Y-126.998
X166.001Y-61.002
X166.001Y-68.998
X166.001Y-123.
X168.Y-65.
X168.Y-119.002
X168.Y-126.998
X169.999Y-61.002
X169.999Y-68.998
X169.999Y-123.
X171.998Y-65.
X171.998Y-119.002
X171.998Y-126.998
X173.999Y-61.002
X173.999Y-68.998
X175.998Y-65.
X178.Y-61.002
X178.Y-68.998
X179.999Y-65.
X181.998Y-61.002
X181.998Y-68.998
T3
X142.801Y-72.3
X144.302Y-54.202
X152.801Y-130.3
X154.302Y-112.202
X181.698Y-112.202
X183.199Y-130.3
X191.698Y-54.202
X193.199Y-72.3
T0
M30
